<?xml version="1.0" encoding="utf-8" standalone="no"?>
<!DOCTYPE svg PUBLIC "-//W3C//DTD SVG 1.1//EN"
  "http://www.w3.org/Graphics/SVG/1.1/DTD/svg11.dtd">
<!-- Created with matplotlib (http://matplotlib.org/) -->
<svg height="603pt" version="1.1" viewBox="0 0 1229 603" width="1229pt" xmlns="http://www.w3.org/2000/svg" xmlns:xlink="http://www.w3.org/1999/xlink">
 <defs>
  <style type="text/css">
*{stroke-linecap:butt;stroke-linejoin:round;}
  </style>
 </defs>
 <g id="figure_1">
  <g id="patch_1">
   <path d="
M0 603
L1229.4 603
L1229.4 0
L0 0
z
" style="fill:#ffffff;"/>
  </g>
  <g id="axes_1">
   <g id="patch_2">
    <path d="
M153.675 542.7
L586.759 542.7
L586.759 60.3
L153.675 60.3
z
" style="fill:#ffffff;"/>
   </g>
   <g id="line2d_1">
    <path clip-path="url(#paa341766a5)" d="
M153.675 301.5
L154.603 300.928
L155.147 300.304
L155.667 299.347
L156.199 297.875
L156.768 295.605
L157.387 292.149
L158.043 287.152
L158.748 279.991
L159.515 269.78
L160.332 255.794
L161.235 236.32
L162.262 209.146
L163.166 179.629
L163.747 153.288
L164.292 117.554
L164.354 112.754
L164.366 490.655
L164.465 482.698
L165.752 386.207
L166.321 361.571
L166.841 347.89
L167.311 340.809
L167.707 337.729
L168.016 336.711
L168.227 336.562
L168.4 336.707
L168.66 337.287
L169.08 338.865
L170.813 346.01
L171.196 346.596
L171.469 346.667
L171.704 346.486
L172.001 345.924
L172.372 344.693
L172.842 342.284
L173.411 338.108
L174.092 331.353
L174.908 320.852
L175.898 305.037
L177.334 278.064
L179.153 244.652
L179.994 233.067
L180.625 227.101
L181.145 224.077
L181.689 222.201
L182.11 220.545
L182.407 218.28
L182.704 214.08
L183.026 205.974
L183.385 190.497
L183.793 161.899
L184.275 113.153
L184.288 490.648
L184.387 479.551
L185.142 407.069
L185.624 380.444
L186.045 367.842
L186.416 362.495
L186.701 360.935
L186.886 360.753
L187.022 360.925
L187.27 361.701
L187.926 364.823
L188.421 366.588
L188.718 367.006
L188.903 366.976
L189.114 366.658
L189.398 365.738
L189.769 363.701
L190.252 359.691
L190.871 352.48
L191.65 340.535
L192.702 320.62
L195.895 257.699
L196.711 246.868
L197.355 240.998
L197.85 238.277
L198.208 237.334
L198.444 237.187
L198.629 237.328
L198.877 237.848
L199.248 239.235
L200.448 244.2
L200.572 244.118
L200.733 243.62
L200.955 242.015
L201.228 238.194
L201.549 230.214
L201.921 214.817
L202.341 186.89
L202.873 134.358
L203.071 112.076
L203.084 489.565
L203.183 478.612
L203.789 424.231
L204.234 401.935
L204.643 391.387
L205.051 386.107
L205.645 381.643
L206.239 376.621
L206.821 369.564
L207.551 357.721
L208.677 335.309
L210.706 295.034
L211.671 280.354
L212.463 271.452
L213.119 266.381
L213.651 263.817
L214.059 262.77
L214.369 262.483
L214.604 262.536
L214.876 262.864
L215.26 263.738
L215.903 265.878
L216.633 268.087
L216.93 268.431
L217.103 268.368
L217.301 267.992
L217.549 266.965
L217.858 264.607
L218.217 259.986
L218.625 251.575
L219.071 237.442
L219.566 213.931
L220.135 175.217
L220.902 112.786
L220.914 490.711
L221.013 483.271
L221.731 438.597
L222.671 394.812
L223.562 362.611
L224.33 342.414
L225.035 329.363
L225.678 321.231
L226.285 316.175
L226.841 313.248
L227.361 311.607
L227.868 310.692
L228.475 310.067
L229.304 309.214
L229.774 308.352
L230.244 306.991
L230.752 304.784
L231.308 301.282
L231.915 295.96
L232.583 288.029
L233.325 276.435
L234.179 259.367
L235.243 233.186
L236.629 193.448
L237.198 171.085
L237.644 144.177
L238.015 112.69
L238.027 490.393
L238.126 480.809
L239.166 389.315
L239.673 364.451
L240.131 351.799
L240.527 346.176
L240.849 344.175
L241.084 343.755
L241.232 343.825
L241.443 344.251
L241.839 345.669
L242.692 348.713
L243.014 349.144
L243.212 349.113
L243.422 348.809
L243.707 347.932
L244.078 345.958
L244.548 342.099
L245.13 335.281
L245.835 324.195
L246.739 306.21
L250.018 237.089
L250.599 230.754
L251.069 227.791
L251.552 226.138
L251.911 224.736
L252.183 222.574
L252.455 218.407
L252.752 210.133
L253.086 193.97
L253.47 163.537
L253.915 112.95
L253.928 490.296
L254.027 478.057
L254.683 410.898
L255.116 386.818
L255.499 376.19
L255.833 372.152
L256.118 370.896
L256.378 370.588
L256.873 370.241
L257.12 369.606
L257.43 368.078
L257.813 364.907
L258.308 358.722
L258.952 347.557
L259.855 327.544
L262.391 269.163
L263.146 257.537
L263.74 251.434
L264.198 248.703
L264.532 247.796
L264.755 247.672
L264.94 247.836
L265.213 248.444
L265.757 250.381
L266.165 251.458
L266.339 251.483
L266.487 251.167
L266.685 250.109
L266.945 247.269
L267.254 241.011
L267.601 229.003
L267.997 206.633
L268.455 166.778
L268.95 112.174
L268.962 489.696
L269.061 479.118
L269.618 432.711
L270.088 410.856
L270.694 393.535
L274.097 310.724
L274.889 298.368
L275.57 290.944
L276.164 286.694
L276.683 284.438
L277.141 283.337
L277.599 282.78
L278.477 281.89
L278.824 281.039
L279.183 279.487
L279.566 276.752
L279.987 272.025
L280.445 264.197
L280.94 251.692
L281.484 231.872
L282.103 200.507
L282.994 142.158
L283.402 112.137
L283.415 490.062
L283.514 482.348
L284.998 373.636
L285.555 351.229
L286.05 339.342
L286.496 333.332
L286.892 330.62
L287.226 329.641
L287.498 329.415
L287.77 329.482
L288.537 329.792
L288.785 329.573
L289.069 328.964
L289.404 327.663
L289.812 325.085
L290.294 320.5
L290.876 312.656
L291.569 300.044
L292.448 279.621
L294.984 217.724
L295.801 200.882
L296.147 187.754
L296.494 165.432
L296.927 120.867
L296.989 113.278
L297.001 490.616
L297.1 478.157
L297.83 399.709
L298.263 375.089
L298.647 364.296
L298.969 360.431
L299.228 359.4
L299.414 359.313
L299.637 359.538
L300.033 359.898
L300.206 359.777
L300.404 359.311
L300.676 357.996
L301.023 355.096
L301.468 349.321
L302.05 338.575
L302.829 319.622
L305.477 251.423
L306.059 243.223
L306.504 239.679
L306.838 238.488
L307.098 238.217
L307.605 237.971
L307.791 237.315
L308.001 235.633
L308.249 231.658
L308.533 223.138
L308.855 206.286
L309.239 173.016
L309.721 112.939
L309.734 490.187
L309.833 477.364
L310.377 422.164
L310.786 400.925
L311.194 390.255
L312.951 354.396
L315.587 285.703
L316.242 275.825
L316.774 270.778
L317.208 268.501
L317.554 267.673
L317.839 267.475
L318.222 267.532
L318.507 267.472
L318.717 267.156
L318.952 266.319
L319.224 264.396
L319.534 260.451
L319.893 252.635
L320.289 238.535
L320.722 214.496
L321.254 171.138
L321.872 112.293
L321.885 490.066
L321.984 481.448
L322.801 421.325
L323.679 370.71
L324.323 345.263
L324.904 330.339
L325.436 321.912
L325.931 317.292
L326.414 314.712
L327.057 312.572
L327.626 310.439
L328.072 307.808
L328.542 303.573
L329.062 296.674
L329.643 285.74
L330.311 268.7
L331.165 240.709
L332.601 185.305
L333.046 159.342
L333.467 119.775
L333.529 112.633
L333.541 490.05
L333.64 478.089
L334.469 389.287
L334.902 365.369
L335.286 354.773
L335.62 350.766
L335.892 349.623
L336.115 349.421
L336.672 349.256
L336.894 348.663
L337.167 347.201
L337.513 343.977
L337.946 337.669
L338.503 325.979
L339.258 304.874
L341.398 242.005
L341.943 233.375
L342.45 228.704
L342.871 224.591
L343.143 219.262
L343.428 208.675
L343.737 187.96
L344.121 145.151
L344.343 113.432
L344.356 490.496
L344.455 476.098
L344.999 413.502
L345.383 391.754
L345.742 382.327
L346.224 375.732
L346.756 367.689
L347.276 355.93
L348.031 333.031
L349.738 279.967
L350.382 267.092
L350.877 261.051
L351.273 258.517
L351.607 257.615
L352.3 256.407
L352.535 254.858
L352.795 251.437
L353.092 244.21
L353.426 230.027
L353.809 203.01
L354.304 149.763
L354.614 112.46
L354.626 489.918
L354.725 478.964
L355.269 432.777
L356.049 388.594
L356.989 345.884
L357.67 324.263
L358.264 311.846
L358.808 304.724
L359.34 300.457
L360.776 290.64
L361.221 284.517
L361.691 274.756
L362.211 258.969
L362.805 233.555
L363.572 190.16
L364.278 138.894
L364.537 112.932
L364.55 490.446
L364.649 479.194
L365.626 377.577
L366.059 355.738
L366.443 346.077
L366.789 342.188
L367.111 340.722
L367.817 338.336
L368.138 335.792
L368.522 330.771
L368.992 321.389
L369.598 304.316
L370.564 269.589
L371.578 235.558
L372.209 221.567
L372.729 209.77
L373.026 196.609
L373.335 171.517
L373.731 118.36
L373.768 112.54
L373.781 489.466
L373.88 473.855
L374.424 405.632
L374.795 383.633
L375.142 374.684
L375.6 368.927
L376.045 362.389
L376.503 351.754
L377.122 331.444
L379.04 264.655
L379.559 255.173
L379.968 251.208
L380.413 249.014
L380.71 247.117
L380.958 243.804
L381.23 236.606
L381.527 222.054
L381.873 192.557
L382.368 126.924
L382.467 112.802
L382.48 489.952
L382.579 476.62
L383.061 428.577
L383.606 397.705
L385.103 329.069
L385.771 308.139
L386.328 296.918
L386.847 290.571
L387.516 285.368
L387.986 280.979
L388.369 275.07
L388.765 265.176
L389.199 248.133
L389.681 219.571
L390.349 164.683
L390.881 112.769
L390.894 490.309
L390.993 479.352
L392.082 368.187
L392.515 347.495
L392.911 338.024
L393.282 333.839
L394.383 324.555
L394.791 316.992
L395.286 303.338
L395.942 278.452
L397.687 209.058
L398.083 191.542
L398.392 165.993
L398.763 113.674
L398.776 490.495
L398.875 473.849
L399.432 398.573
L399.791 376.661
L400.125 368.035
L401.263 347.548
L401.807 327.954
L403.725 253.194
L404.171 245.685
L404.963 234.842
L405.223 224.895
L405.507 204.535
L405.854 161.735
L406.151 113.458
L406.163 490.316
L406.262 474.682
L406.707 423.416
L407.165 396.36
L409.219 301.965
L409.764 288.474
L410.259 281.302
L411.236 269.31
L411.57 260.272
L411.929 244.056
L412.338 214.547
L412.919 153.309
L413.266 113.461
L413.278 490.913
L413.377 479.465
L414.478 364.108
L414.924 341.42
L415.332 330.855
L415.765 325.127
L416.433 317.002
L416.842 308.343
L417.312 293.055
L417.918 265.227
L419.539 175.559
L419.861 137.696
L420.009 113.499
L420.022 490.222
L420.121 472.616
L420.678 392.202
L421.024 370.476
L421.358 361.75
L422.175 345.722
L422.633 328.678
L423.425 288.849
L424.216 253.39
L424.699 240.705
L425.342 226.129
L425.602 211.586
L425.887 181.453
L426.283 113.504
L426.295 490.079
L426.394 472.207
L426.815 417.665
L427.223 392.228
L428.485 323.91
L429.166 293.287
L429.673 279.52
L430.181 271.605
L430.626 264.241
L430.935 254.705
L431.257 237.063
L431.628 202.796
L432.309 112.13
L432.321 489.386
L432.42 476.639
L433.385 367.754
L433.843 339.037
L434.264 325.279
L434.747 316.781
L435.279 307.087
L435.687 294.758
L436.157 273.025
L436.85 228.814
L437.741 159.985
L438.05 113.61
L438.063 490.235
L438.162 471.642
L438.719 385.944
L439.053 364.592
L439.399 355.264
L439.956 342.143
L440.377 324.81
L441.057 285.493
L441.824 245.344
L442.406 227.128
L442.691 214.224
L442.95 190.247
L443.272 135.868
L443.384 112.647
L443.396 488.937
L443.495 468.821
L443.903 410.858
L444.299 385.403
L445.103 337.365
L445.945 289.13
L446.427 273.225
L447.393 247.523
L447.69 225.968
L448.048 181.022
L448.469 112.913
L448.482 489.89
L448.581 475.211
L449.397 373.993
L449.88 336.84
L450.3 319.821
L450.857 307.081
L451.278 295.314
L451.674 277.222
L452.157 243.787
L453.01 165.805
L453.357 113.677
L453.369 490.189
L453.468 470.475
L454.025 379.337
L454.359 358.123
L454.78 346.176
L455.163 333.065
L455.596 309.286
L457.007 224.628
L457.329 206.145
L457.576 176.548
L457.886 112.374
L457.898 488.36
L457.997 465.815
L458.381 405.633
L458.777 378.414
L459.42 334.447
L460.224 281.268
L460.682 264.765
L461.214 247.279
L461.486 227.335
L461.796 185.545
L462.179 113.368
L462.192 490.006
L462.291 472.941
L462.971 379.529
L463.479 333.217
L463.899 313.284
L464.902 275.859
L465.31 243.523
L465.978 169.155
L466.325 113.944
L466.337 490.319
L466.436 469.273
L466.98 373.514
L467.302 352.3
L468.218 310.331
L469.789 190.234
L470.049 141.969
L470.16 113.9
L470.173 489.557
L470.272 464.252
L470.643 399.965
L471.064 368.608
L471.67 318.497
L472.301 272.562
L472.858 249.786
L473.118 233.101
L473.378 200.188
L473.786 114.358
L473.798 490.598
L473.897 470.693
L474.479 381.698
L474.999 327.371
L475.419 305.101
L476.075 275.315
L476.434 243.21
L476.978 169.875
L477.3 112.673
L477.313 488.846
L477.412 466.011
L477.931 367.593
L478.253 345.505
L478.859 313.125
L479.379 264.778
L480.394 153.655
L480.542 113.764
L480.554 489.056
L480.653 460.779
L481 394.772
L481.507 351.418
L482.67 253.919
L483.005 232.493
L483.252 197.877
L483.598 114.08
L483.611 489.879
L483.71 466.864
L484.242 376.368
L484.737 319.28
L485.17 294.215
L485.566 270.137
L485.888 234.182
L486.407 145.223
L486.556 113.389
L486.568 489.333
L486.667 464.442
L487.162 361.99
L487.496 337.378
L487.917 308.738
L488.412 253.397
L489.179 149.11
L489.29 115.878
L489.303 490.775
L489.402 459.02
L489.736 388.782
L490.911 263.891
L491.493 211.345
L491.765 144.75
L491.864 115.091
L491.877 490.368
L491.976 463.638
L492.47 369.111
L492.941 309.696
L493.819 228.075
L494.314 122.916
L494.351 113.472
L494.364 489.106
L494.463 461.55
L494.933 355.314
L495.304 325.05
L495.651 290.225
L496.467 171.46
L496.665 112.172
L496.678 486.574
L496.777 451.115
L497.086 381.707
L498.645 172.144
L498.818 113.81
L498.831 488.516
L498.93 457.886
L499.412 354.957
L499.833 298.533
L500.377 240.71
L500.736 157.529
L500.897 113.329
L500.909 488.557
L501.008 457.617
L501.454 347.674
L502.431 214.5
L502.753 144.565
L502.84 112.141
L502.852 485.994
L502.951 446.019
L503.248 373.742
L504.411 196.065
L504.634 116.379
L504.646 490.371
L504.745 454.613
L505.203 343.246
L505.587 287.139
L505.933 240.461
L506.255 151.863
L506.366 116.044
L506.379 490.79
L506.478 455.877
L506.898 340.202
L507.517 242.395
L507.987 117.705
L508 112.133
L508.012 485.34
L508.111 440.07
L508.396 364.593
L509.274 203.216
L509.497 115.513
L509.509 488.716
L509.608 447.689
L510.066 322.734
L510.908 126.34
L510.945 112.104
L510.957 486.157
L511.056 445.569
L511.427 332.549
L511.873 246.727
L512.293 113.065
L512.306 485.521
L512.405 433.926
L512.689 351.44
L513.395 185.57
L513.543 112.905
L513.556 485.198
L513.654 438.497
L514.112 299.889
L514.57 185.994
L514.731 114.608
L514.743 487.869
L514.842 440.842
L515.189 322.495
L515.523 240.051
L515.845 118.714
L515.857 490.409
L515.956 430.936
L516.241 336.098
L516.835 145.875
L516.884 115.21
L516.896 486.356
L516.995 431.886
L517.429 282.572
L517.713 194.709
L517.862 117.122
L517.874 489.382
L517.973 434.186
L518.295 309.979
L518.579 214.873
L518.79 115.066
L518.802 485.527
L518.901 417.501
L519.21 300.376
L519.643 112.433
L519.656 482.271
L519.755 420.082
L520.2 247.557
L520.423 128.598
L520.448 112.888
L520.46 483.877
L520.559 417.824
L520.856 289.642
L521.165 141.204
L521.203 114.513
L521.215 483.546
L521.314 405.299
L521.685 239.141
L521.895 116.841
L521.908 485.029
L522.007 411.558
L522.551 116.856
L522.564 486.325
L522.663 407.142
L522.984 238.659
L523.17 115.66
L523.182 482.961
L523.281 392.608
L523.739 112.179
L523.752 478.461
L523.851 393.823
L524.271 112.506
L524.284 480.032
L524.383 384.062
L524.766 116.435
L524.779 481.476
L524.878 377.531
L524.89 368.39
L524.89 368.39" style="fill:none;stroke:#008000;stroke-linecap:square;stroke-width:2;"/>
   </g>
   <g id="patch_3">
    <path d="
M153.675 60.3
L586.759 60.3" style="fill:none;stroke:#000000;stroke-linecap:square;stroke-linejoin:miter;"/>
   </g>
   <g id="patch_4">
    <path d="
M586.759 542.7
L586.759 60.3" style="fill:none;stroke:#000000;stroke-linecap:square;stroke-linejoin:miter;"/>
   </g>
   <g id="patch_5">
    <path d="
M153.675 542.7
L586.759 542.7" style="fill:none;stroke:#000000;stroke-linecap:square;stroke-linejoin:miter;"/>
   </g>
   <g id="patch_6">
    <path d="
M153.675 542.7
L153.675 60.3" style="fill:none;stroke:#000000;stroke-linecap:square;stroke-linejoin:miter;"/>
   </g>
   <g id="matplotlib.axis_1">
    <g id="xtick_1">
     <g id="line2d_2">
      <defs>
       <path d="
M0 0
L0 -4" id="m93b0483c22" style="stroke:#000000;stroke-width:0.5;"/>
      </defs>
      <g>
       <use style="stroke:#000000;stroke-width:0.5;" x="153.675" xlink:href="#m93b0483c22" y="542.7"/>
      </g>
     </g>
     <g id="line2d_3">
      <defs>
       <path d="
M0 0
L0 4" id="m741efc42ff" style="stroke:#000000;stroke-width:0.5;"/>
      </defs>
      <g>
       <use style="stroke:#000000;stroke-width:0.5;" x="153.675" xlink:href="#m741efc42ff" y="60.3"/>
      </g>
     </g>
     <g id="text_1">
      <!-- 0 -->
      <defs>
       <path d="
M31.7812 66.4062
Q24.1719 66.4062 20.3281 58.9062
Q16.5 51.4219 16.5 36.375
Q16.5 21.3906 20.3281 13.8906
Q24.1719 6.39062 31.7812 6.39062
Q39.4531 6.39062 43.2812 13.8906
Q47.125 21.3906 47.125 36.375
Q47.125 51.4219 43.2812 58.9062
Q39.4531 66.4062 31.7812 66.4062
M31.7812 74.2188
Q44.0469 74.2188 50.5156 64.5156
Q56.9844 54.8281 56.9844 36.375
Q56.9844 17.9688 50.5156 8.26562
Q44.0469 -1.42188 31.7812 -1.42188
Q19.5312 -1.42188 13.0625 8.26562
Q6.59375 17.9688 6.59375 36.375
Q6.59375 54.8281 13.0625 64.5156
Q19.5312 74.2188 31.7812 74.2188" id="BitstreamVeraSans-Roman-30"/>
      </defs>
      <g transform="translate(150.6515625 555.818125)scale(0.12 -0.12)">
       <use xlink:href="#BitstreamVeraSans-Roman-30"/>
      </g>
     </g>
    </g>
    <g id="xtick_2">
     <g id="line2d_4">
      <g>
       <use style="stroke:#000000;stroke-width:0.5;" x="215.544155844" xlink:href="#m93b0483c22" y="542.7"/>
      </g>
     </g>
     <g id="line2d_5">
      <g>
       <use style="stroke:#000000;stroke-width:0.5;" x="215.544155844" xlink:href="#m741efc42ff" y="60.3"/>
      </g>
     </g>
     <g id="text_2">
      <!-- 5 -->
      <defs>
       <path d="
M10.7969 72.9062
L49.5156 72.9062
L49.5156 64.5938
L19.8281 64.5938
L19.8281 46.7344
Q21.9688 47.4688 24.1094 47.8281
Q26.2656 48.1875 28.4219 48.1875
Q40.625 48.1875 47.75 41.5
Q54.8906 34.8125 54.8906 23.3906
Q54.8906 11.625 47.5625 5.09375
Q40.2344 -1.42188 26.9062 -1.42188
Q22.3125 -1.42188 17.5469 -0.640625
Q12.7969 0.140625 7.71875 1.70312
L7.71875 11.625
Q12.1094 9.23438 16.7969 8.0625
Q21.4844 6.89062 26.7031 6.89062
Q35.1562 6.89062 40.0781 11.3281
Q45.0156 15.7656 45.0156 23.3906
Q45.0156 31 40.0781 35.4375
Q35.1562 39.8906 26.7031 39.8906
Q22.75 39.8906 18.8125 39.0156
Q14.8906 38.1406 10.7969 36.2812
z
" id="BitstreamVeraSans-Roman-35"/>
      </defs>
      <g transform="translate(212.713843344 555.818125)scale(0.12 -0.12)">
       <use xlink:href="#BitstreamVeraSans-Roman-35"/>
      </g>
     </g>
    </g>
    <g id="xtick_3">
     <g id="line2d_6">
      <g>
       <use style="stroke:#000000;stroke-width:0.5;" x="277.413311688" xlink:href="#m93b0483c22" y="542.7"/>
      </g>
     </g>
     <g id="line2d_7">
      <g>
       <use style="stroke:#000000;stroke-width:0.5;" x="277.413311688" xlink:href="#m741efc42ff" y="60.3"/>
      </g>
     </g>
     <g id="text_3">
      <!-- 10 -->
      <defs>
       <path d="
M12.4062 8.29688
L28.5156 8.29688
L28.5156 63.9219
L10.9844 60.4062
L10.9844 69.3906
L28.4219 72.9062
L38.2812 72.9062
L38.2812 8.29688
L54.3906 8.29688
L54.3906 0
L12.4062 0
z
" id="BitstreamVeraSans-Roman-31"/>
      </defs>
      <g transform="translate(270.835811688 555.818125)scale(0.12 -0.12)">
       <use xlink:href="#BitstreamVeraSans-Roman-31"/>
       <use x="63.623046875" xlink:href="#BitstreamVeraSans-Roman-30"/>
      </g>
     </g>
    </g>
    <g id="xtick_4">
     <g id="line2d_8">
      <g>
       <use style="stroke:#000000;stroke-width:0.5;" x="339.282467532" xlink:href="#m93b0483c22" y="542.7"/>
      </g>
     </g>
     <g id="line2d_9">
      <g>
       <use style="stroke:#000000;stroke-width:0.5;" x="339.282467532" xlink:href="#m741efc42ff" y="60.3"/>
      </g>
     </g>
     <g id="text_4">
      <!-- 15 -->
      <g transform="translate(332.830592532 555.818125)scale(0.12 -0.12)">
       <use xlink:href="#BitstreamVeraSans-Roman-31"/>
       <use x="63.623046875" xlink:href="#BitstreamVeraSans-Roman-35"/>
      </g>
     </g>
    </g>
    <g id="xtick_5">
     <g id="line2d_10">
      <g>
       <use style="stroke:#000000;stroke-width:0.5;" x="401.151623377" xlink:href="#m93b0483c22" y="542.7"/>
      </g>
     </g>
     <g id="line2d_11">
      <g>
       <use style="stroke:#000000;stroke-width:0.5;" x="401.151623377" xlink:href="#m741efc42ff" y="60.3"/>
      </g>
     </g>
     <g id="text_5">
      <!-- 20 -->
      <defs>
       <path d="
M19.1875 8.29688
L53.6094 8.29688
L53.6094 0
L7.32812 0
L7.32812 8.29688
Q12.9375 14.1094 22.625 23.8906
Q32.3281 33.6875 34.8125 36.5312
Q39.5469 41.8438 41.4219 45.5312
Q43.3125 49.2188 43.3125 52.7812
Q43.3125 58.5938 39.2344 62.25
Q35.1562 65.9219 28.6094 65.9219
Q23.9688 65.9219 18.8125 64.3125
Q13.6719 62.7031 7.8125 59.4219
L7.8125 69.3906
Q13.7656 71.7812 18.9375 73
Q24.125 74.2188 28.4219 74.2188
Q39.75 74.2188 46.4844 68.5469
Q53.2188 62.8906 53.2188 53.4219
Q53.2188 48.9219 51.5312 44.8906
Q49.8594 40.875 45.4062 35.4062
Q44.1875 33.9844 37.6406 27.2188
Q31.1094 20.4531 19.1875 8.29688" id="BitstreamVeraSans-Roman-32"/>
      </defs>
      <g transform="translate(394.354748377 555.818125)scale(0.12 -0.12)">
       <use xlink:href="#BitstreamVeraSans-Roman-32"/>
       <use x="63.623046875" xlink:href="#BitstreamVeraSans-Roman-30"/>
      </g>
     </g>
    </g>
    <g id="xtick_6">
     <g id="line2d_12">
      <g>
       <use style="stroke:#000000;stroke-width:0.5;" x="463.020779221" xlink:href="#m93b0483c22" y="542.7"/>
      </g>
     </g>
     <g id="line2d_13">
      <g>
       <use style="stroke:#000000;stroke-width:0.5;" x="463.020779221" xlink:href="#m741efc42ff" y="60.3"/>
      </g>
     </g>
     <g id="text_6">
      <!-- 25 -->
      <g transform="translate(456.349529221 555.818125)scale(0.12 -0.12)">
       <use xlink:href="#BitstreamVeraSans-Roman-32"/>
       <use x="63.623046875" xlink:href="#BitstreamVeraSans-Roman-35"/>
      </g>
     </g>
    </g>
    <g id="xtick_7">
     <g id="line2d_14">
      <g>
       <use style="stroke:#000000;stroke-width:0.5;" x="524.889935065" xlink:href="#m93b0483c22" y="542.7"/>
      </g>
     </g>
     <g id="line2d_15">
      <g>
       <use style="stroke:#000000;stroke-width:0.5;" x="524.889935065" xlink:href="#m741efc42ff" y="60.3"/>
      </g>
     </g>
     <g id="text_7">
      <!-- 30 -->
      <defs>
       <path d="
M40.5781 39.3125
Q47.6562 37.7969 51.625 33
Q55.6094 28.2188 55.6094 21.1875
Q55.6094 10.4062 48.1875 4.48438
Q40.7656 -1.42188 27.0938 -1.42188
Q22.5156 -1.42188 17.6562 -0.515625
Q12.7969 0.390625 7.625 2.20312
L7.625 11.7188
Q11.7188 9.32812 16.5938 8.10938
Q21.4844 6.89062 26.8125 6.89062
Q36.0781 6.89062 40.9375 10.5469
Q45.7969 14.2031 45.7969 21.1875
Q45.7969 27.6406 41.2812 31.2656
Q36.7656 34.9062 28.7188 34.9062
L20.2188 34.9062
L20.2188 43.0156
L29.1094 43.0156
Q36.375 43.0156 40.2344 45.9219
Q44.0938 48.8281 44.0938 54.2969
Q44.0938 59.9062 40.1094 62.9062
Q36.1406 65.9219 28.7188 65.9219
Q24.6562 65.9219 20.0156 65.0312
Q15.375 64.1562 9.8125 62.3125
L9.8125 71.0938
Q15.4375 72.6562 20.3438 73.4375
Q25.25 74.2188 29.5938 74.2188
Q40.8281 74.2188 47.3594 69.1094
Q53.9062 64.0156 53.9062 55.3281
Q53.9062 49.2656 50.4375 45.0938
Q46.9688 40.9219 40.5781 39.3125" id="BitstreamVeraSans-Roman-33"/>
      </defs>
      <g transform="translate(518.110872565 555.818125)scale(0.12 -0.12)">
       <use xlink:href="#BitstreamVeraSans-Roman-33"/>
       <use x="63.623046875" xlink:href="#BitstreamVeraSans-Roman-30"/>
      </g>
     </g>
    </g>
    <g id="xtick_8">
     <g id="line2d_16">
      <g>
       <use style="stroke:#000000;stroke-width:0.5;" x="586.759090909" xlink:href="#m93b0483c22" y="542.7"/>
      </g>
     </g>
     <g id="line2d_17">
      <g>
       <use style="stroke:#000000;stroke-width:0.5;" x="586.759090909" xlink:href="#m741efc42ff" y="60.3"/>
      </g>
     </g>
     <g id="text_8">
      <!-- 35 -->
      <g transform="translate(580.105653409 555.818125)scale(0.12 -0.12)">
       <use xlink:href="#BitstreamVeraSans-Roman-33"/>
       <use x="63.623046875" xlink:href="#BitstreamVeraSans-Roman-35"/>
      </g>
     </g>
    </g>
    <g id="text_9">
     <!-- time($s$) -->
     <defs>
      <path d="
M8.01562 75.875
L15.8281 75.875
Q23.1406 64.3594 26.7812 53.3125
Q30.4219 42.2812 30.4219 31.3906
Q30.4219 20.4531 26.7812 9.375
Q23.1406 -1.70312 15.8281 -13.1875
L8.01562 -13.1875
Q14.5 -2 17.7031 9.0625
Q20.9062 20.125 20.9062 31.3906
Q20.9062 42.6719 17.7031 53.6562
Q14.5 64.6562 8.01562 75.875" id="BitstreamVeraSans-Roman-29"/>
      <path d="
M52 44.1875
Q55.375 50.25 60.0625 53.125
Q64.75 56 71.0938 56
Q79.6406 56 84.2812 50.0156
Q88.9219 44.0469 88.9219 33.0156
L88.9219 0
L79.8906 0
L79.8906 32.7188
Q79.8906 40.5781 77.0938 44.375
Q74.3125 48.1875 68.6094 48.1875
Q61.625 48.1875 57.5625 43.5469
Q53.5156 38.9219 53.5156 30.9062
L53.5156 0
L44.4844 0
L44.4844 32.7188
Q44.4844 40.625 41.7031 44.4062
Q38.9219 48.1875 33.1094 48.1875
Q26.2188 48.1875 22.1562 43.5312
Q18.1094 38.875 18.1094 30.9062
L18.1094 0
L9.07812 0
L9.07812 54.6875
L18.1094 54.6875
L18.1094 46.1875
Q21.1875 51.2188 25.4844 53.6094
Q29.7812 56 35.6875 56
Q41.6562 56 45.8281 52.9688
Q50 49.9531 52 44.1875" id="BitstreamVeraSans-Roman-6d"/>
      <path d="
M8.6875 6.10938
Q11.375 1.51562 19.4844 1.51562
Q23 1.51562 26.1719 2.70312
Q29.3438 3.90625 31.4219 6.29688
Q33.5 8.6875 33.5 12.1094
Q33.5 14.7031 31.6406 16.3594
Q29.7812 18.0156 27.0938 18.6094
L21.6875 19.6719
Q17.9688 20.6094 15.5781 23.1406
Q13.1875 25.6875 13.1875 29.2969
Q13.1875 33.7344 15.5938 37.1562
Q18.0156 40.5781 21.9688 42.375
Q25.9219 44.1875 30.1719 44.1875
Q34.7188 44.1875 38.2969 42.0156
Q41.8906 39.8438 41.8906 35.5938
Q41.8906 33.2969 40.5938 31.5312
Q39.3125 29.7812 37.0156 29.7812
Q35.6875 29.7812 34.7344 30.6406
Q33.7969 31.5 33.7969 32.8125
Q33.7969 33.9844 34.4531 35.0781
Q35.1094 36.1875 36.2031 36.8438
Q37.3125 37.5 38.4844 37.5
Q37.5938 39.6562 35.1719 40.625
Q32.7656 41.6094 29.9844 41.6094
Q27.4375 41.6094 24.8906 40.5781
Q22.3594 39.5469 20.8125 37.5625
Q19.2812 35.5938 19.2812 32.9062
Q19.2812 31.1094 20.5469 29.7344
Q21.8281 28.375 23.6875 27.7812
L29.5 26.6094
Q32.2812 26.0312 34.5938 24.5312
Q36.9219 23.0469 38.25 20.7656
Q39.5938 18.5 39.5938 15.5781
Q39.5938 11.8594 37.5156 8.25
Q35.4531 4.64062 32.4219 2.48438
Q27.0938 -1.125 19.3906 -1.125
Q14.0625 -1.125 9.60938 1.3125
Q5.17188 3.76562 5.17188 8.59375
Q5.17188 11.3281 6.75 13.3438
Q8.34375 15.375 11.0781 15.375
Q12.7031 15.375 13.7969 14.3906
Q14.8906 13.4219 14.8906 11.8125
Q14.8906 9.51562 13.1719 7.8125
Q11.4688 6.10938 9.1875 6.10938
z
" id="Cmmi10-73"/>
      <path d="
M9.42188 54.6875
L18.4062 54.6875
L18.4062 0
L9.42188 0
z

M9.42188 75.9844
L18.4062 75.9844
L18.4062 64.5938
L9.42188 64.5938
z
" id="BitstreamVeraSans-Roman-69"/>
      <path d="
M31 75.875
Q24.4688 64.6562 21.2812 53.6562
Q18.1094 42.6719 18.1094 31.3906
Q18.1094 20.125 21.3125 9.0625
Q24.5156 -2 31 -13.1875
L23.1875 -13.1875
Q15.875 -1.70312 12.2344 9.375
Q8.59375 20.4531 8.59375 31.3906
Q8.59375 42.2812 12.2031 53.3125
Q15.8281 64.3594 23.1875 75.875
z
" id="BitstreamVeraSans-Roman-28"/>
      <path d="
M56.2031 29.5938
L56.2031 25.2031
L14.8906 25.2031
Q15.4844 15.9219 20.4844 11.0625
Q25.4844 6.20312 34.4219 6.20312
Q39.5938 6.20312 44.4531 7.46875
Q49.3125 8.73438 54.1094 11.2812
L54.1094 2.78125
Q49.2656 0.734375 44.1875 -0.34375
Q39.1094 -1.42188 33.8906 -1.42188
Q20.7969 -1.42188 13.1562 6.1875
Q5.51562 13.8125 5.51562 26.8125
Q5.51562 40.2344 12.7656 48.1094
Q20.0156 56 32.3281 56
Q43.3594 56 49.7812 48.8906
Q56.2031 41.7969 56.2031 29.5938
M47.2188 32.2344
Q47.125 39.5938 43.0938 43.9844
Q39.0625 48.3906 32.4219 48.3906
Q24.9062 48.3906 20.3906 44.1406
Q15.875 39.8906 15.1875 32.1719
z
" id="BitstreamVeraSans-Roman-65"/>
      <path d="
M18.3125 70.2188
L18.3125 54.6875
L36.8125 54.6875
L36.8125 47.7031
L18.3125 47.7031
L18.3125 18.0156
Q18.3125 11.3281 20.1406 9.42188
Q21.9688 7.51562 27.5938 7.51562
L36.8125 7.51562
L36.8125 0
L27.5938 0
Q17.1875 0 13.2344 3.875
Q9.28125 7.76562 9.28125 18.0156
L9.28125 47.7031
L2.6875 47.7031
L2.6875 54.6875
L9.28125 54.6875
L9.28125 70.2188
z
" id="BitstreamVeraSans-Roman-74"/>
     </defs>
     <g transform="translate(349.157045455 572.431875)scale(0.12 -0.12)">
      <use transform="translate(0.0 0.015625)" xlink:href="#BitstreamVeraSans-Roman-74"/>
      <use transform="translate(39.208984375 0.015625)" xlink:href="#BitstreamVeraSans-Roman-69"/>
      <use transform="translate(66.9921875 0.015625)" xlink:href="#BitstreamVeraSans-Roman-6d"/>
      <use transform="translate(164.404296875 0.015625)" xlink:href="#BitstreamVeraSans-Roman-65"/>
      <use transform="translate(225.927734375 0.015625)" xlink:href="#BitstreamVeraSans-Roman-28"/>
      <use transform="translate(264.94140625 0.015625)" xlink:href="#Cmmi10-73"/>
      <use transform="translate(311.71875 0.015625)" xlink:href="#BitstreamVeraSans-Roman-29"/>
     </g>
    </g>
   </g>
   <g id="matplotlib.axis_2">
    <g id="ytick_1">
     <g id="line2d_18">
      <defs>
       <path d="
M0 0
L4 0" id="m728421d6d4" style="stroke:#000000;stroke-width:0.5;"/>
      </defs>
      <g>
       <use style="stroke:#000000;stroke-width:0.5;" x="153.675" xlink:href="#m728421d6d4" y="542.7"/>
      </g>
     </g>
     <g id="line2d_19">
      <defs>
       <path d="
M0 0
L-4 0" id="mcb0005524f" style="stroke:#000000;stroke-width:0.5;"/>
      </defs>
      <g>
       <use style="stroke:#000000;stroke-width:0.5;" x="586.759090909" xlink:href="#mcb0005524f" y="542.7"/>
      </g>
     </g>
     <g id="text_10">
      <!-- −4 -->
      <defs>
       <path d="
M10.5938 35.5
L73.1875 35.5
L73.1875 27.2031
L10.5938 27.2031
z
" id="BitstreamVeraSans-Roman-2212"/>
       <path d="
M37.7969 64.3125
L12.8906 25.3906
L37.7969 25.3906
z

M35.2031 72.9062
L47.6094 72.9062
L47.6094 25.3906
L58.0156 25.3906
L58.0156 17.1875
L47.6094 17.1875
L47.6094 0
L37.7969 0
L37.7969 17.1875
L4.89062 17.1875
L4.89062 26.7031
z
" id="BitstreamVeraSans-Roman-34"/>
      </defs>
      <g transform="translate(133.92875 546.01125)scale(0.12 -0.12)">
       <use xlink:href="#BitstreamVeraSans-Roman-2212"/>
       <use x="83.7890625" xlink:href="#BitstreamVeraSans-Roman-34"/>
      </g>
     </g>
    </g>
    <g id="ytick_2">
     <g id="line2d_20">
      <g>
       <use style="stroke:#000000;stroke-width:0.5;" x="153.675" xlink:href="#m728421d6d4" y="482.4"/>
      </g>
     </g>
     <g id="line2d_21">
      <g>
       <use style="stroke:#000000;stroke-width:0.5;" x="586.759090909" xlink:href="#mcb0005524f" y="482.4"/>
      </g>
     </g>
     <g id="text_11">
      <!-- −3 -->
      <g transform="translate(134.2175 485.71125)scale(0.12 -0.12)">
       <use xlink:href="#BitstreamVeraSans-Roman-2212"/>
       <use x="83.7890625" xlink:href="#BitstreamVeraSans-Roman-33"/>
      </g>
     </g>
    </g>
    <g id="ytick_3">
     <g id="line2d_22">
      <g>
       <use style="stroke:#000000;stroke-width:0.5;" x="153.675" xlink:href="#m728421d6d4" y="422.1"/>
      </g>
     </g>
     <g id="line2d_23">
      <g>
       <use style="stroke:#000000;stroke-width:0.5;" x="586.759090909" xlink:href="#mcb0005524f" y="422.1"/>
      </g>
     </g>
     <g id="text_12">
      <!-- −2 -->
      <g transform="translate(134.4575 425.41125)scale(0.12 -0.12)">
       <use xlink:href="#BitstreamVeraSans-Roman-2212"/>
       <use x="83.7890625" xlink:href="#BitstreamVeraSans-Roman-32"/>
      </g>
     </g>
    </g>
    <g id="ytick_4">
     <g id="line2d_24">
      <g>
       <use style="stroke:#000000;stroke-width:0.5;" x="153.675" xlink:href="#m728421d6d4" y="361.8"/>
      </g>
     </g>
     <g id="line2d_25">
      <g>
       <use style="stroke:#000000;stroke-width:0.5;" x="586.759090909" xlink:href="#mcb0005524f" y="361.8"/>
      </g>
     </g>
     <g id="text_13">
      <!-- −1 -->
      <g transform="translate(134.36375 365.11125)scale(0.12 -0.12)">
       <use xlink:href="#BitstreamVeraSans-Roman-2212"/>
       <use x="83.7890625" xlink:href="#BitstreamVeraSans-Roman-31"/>
      </g>
     </g>
    </g>
    <g id="ytick_5">
     <g id="line2d_26">
      <g>
       <use style="stroke:#000000;stroke-width:0.5;" x="153.675" xlink:href="#m728421d6d4" y="301.5"/>
      </g>
     </g>
     <g id="line2d_27">
      <g>
       <use style="stroke:#000000;stroke-width:0.5;" x="586.759090909" xlink:href="#mcb0005524f" y="301.5"/>
      </g>
     </g>
     <g id="text_14">
      <!-- 0 -->
      <g transform="translate(143.628125 304.81125)scale(0.12 -0.12)">
       <use xlink:href="#BitstreamVeraSans-Roman-30"/>
      </g>
     </g>
    </g>
    <g id="ytick_6">
     <g id="line2d_28">
      <g>
       <use style="stroke:#000000;stroke-width:0.5;" x="153.675" xlink:href="#m728421d6d4" y="241.2"/>
      </g>
     </g>
     <g id="line2d_29">
      <g>
       <use style="stroke:#000000;stroke-width:0.5;" x="586.759090909" xlink:href="#mcb0005524f" y="241.2"/>
      </g>
     </g>
     <g id="text_15">
      <!-- 1 -->
      <g transform="translate(144.46625 244.51125)scale(0.12 -0.12)">
       <use xlink:href="#BitstreamVeraSans-Roman-31"/>
      </g>
     </g>
    </g>
    <g id="ytick_7">
     <g id="line2d_30">
      <g>
       <use style="stroke:#000000;stroke-width:0.5;" x="153.675" xlink:href="#m728421d6d4" y="180.9"/>
      </g>
     </g>
     <g id="line2d_31">
      <g>
       <use style="stroke:#000000;stroke-width:0.5;" x="586.759090909" xlink:href="#mcb0005524f" y="180.9"/>
      </g>
     </g>
     <g id="text_16">
      <!-- 2 -->
      <g transform="translate(144.12125 184.21125)scale(0.12 -0.12)">
       <use xlink:href="#BitstreamVeraSans-Roman-32"/>
      </g>
     </g>
    </g>
    <g id="ytick_8">
     <g id="line2d_32">
      <g>
       <use style="stroke:#000000;stroke-width:0.5;" x="153.675" xlink:href="#m728421d6d4" y="120.6"/>
      </g>
     </g>
     <g id="line2d_33">
      <g>
       <use style="stroke:#000000;stroke-width:0.5;" x="586.759090909" xlink:href="#mcb0005524f" y="120.6"/>
      </g>
     </g>
     <g id="text_17">
      <!-- 3 -->
      <g transform="translate(143.916875 123.91125)scale(0.12 -0.12)">
       <use xlink:href="#BitstreamVeraSans-Roman-33"/>
      </g>
     </g>
    </g>
    <g id="ytick_9">
     <g id="line2d_34">
      <g>
       <use style="stroke:#000000;stroke-width:0.5;" x="153.675" xlink:href="#m728421d6d4" y="60.3"/>
      </g>
     </g>
     <g id="line2d_35">
      <g>
       <use style="stroke:#000000;stroke-width:0.5;" x="586.759090909" xlink:href="#mcb0005524f" y="60.3"/>
      </g>
     </g>
     <g id="text_18">
      <!-- 4 -->
      <g transform="translate(143.3 63.61125)scale(0.12 -0.12)">
       <use xlink:href="#BitstreamVeraSans-Roman-34"/>
      </g>
     </g>
    </g>
    <g id="text_19">
     <!-- $\theta$($Rad$) -->
     <defs>
      <path d="
M16.1094 -1.125
Q11.5781 -1.125 8.84375 2.1875
Q6.10938 5.51562 5.04688 10.2031
Q4 14.8906 4 19.4844
L4 19.5781
Q4 24.5625 4.95312 29.9219
Q5.90625 35.2969 7.70312 40.6406
Q9.51562 46 11.625 50.2031
Q13.0938 53.125 15.4062 56.7344
Q17.7188 60.3594 20.5781 63.5
Q23.4375 66.6562 26.7344 68.5781
Q30.0312 70.5156 33.4062 70.5156
L33.5 70.5156
Q37.1094 70.5156 39.5156 68.5
Q41.9375 66.5 43.2812 63.375
Q44.625 60.25 45.1562 56.6875
Q45.7031 53.125 45.7031 49.9062
Q45.7031 42.3281 43.6562 34.4375
Q41.6094 26.5625 37.9844 19.1875
Q36.625 16.4062 34.2031 12.6406
Q31.7812 8.89062 29.0781 5.90625
Q26.375 2.9375 23 0.90625
Q19.625 -1.125 16.2188 -1.125
z

M16.3125 1.51562
Q19.625 1.51562 22.6719 5.04688
Q25.7344 8.59375 28.0312 13.6406
Q30.3281 18.7031 32.0625 24
Q33.7969 29.2969 34.625 33.0156
L14.2031 33.0156
Q12.6406 26.7031 11.7656 22.1406
Q10.8906 17.5781 10.8906 13.1875
Q10.8906 1.51562 16.3125 1.51562
M14.9844 36.5312
L35.5 36.5312
Q36.5781 40.9219 37.2031 43.875
Q37.8438 46.8281 38.2812 50.0938
Q38.7188 53.375 38.7188 56.2031
Q38.7188 67.9219 33.4062 67.9219
Q27.0469 67.9219 22.4375 57.6875
Q17.8281 47.4688 14.9844 36.5312" id="Cmmi10-b5"/>
      <path d="
M17.3906 -1.125
Q11.0781 -1.125 7.4375 3.64062
Q3.8125 8.40625 3.8125 14.8906
Q3.8125 21.2969 7.125 28.1719
Q10.4531 35.0625 16.0938 39.625
Q21.7344 44.1875 28.2188 44.1875
Q31.2031 44.1875 33.5469 42.5781
Q35.8906 40.9688 37.2031 38.1875
Q38.3281 42.1875 41.6094 42.1875
Q42.875 42.1875 43.7188 41.4219
Q44.5781 40.6719 44.5781 39.4062
Q44.5781 39.1094 44.5469 38.9531
Q44.5312 38.8125 44.4844 38.625
L37.5 10.6875
Q36.8125 7.71875 36.8125 5.8125
Q36.8125 1.51562 39.7031 1.51562
Q42.8281 1.51562 44.4531 5.48438
Q46.0938 9.46875 47.2188 14.7031
Q47.4062 15.2812 48 15.2812
L49.2188 15.2812
Q49.6094 15.2812 49.8438 14.9375
Q50.0938 14.5938 50.0938 14.3125
Q48.3438 7.32812 46.2656 3.09375
Q44.1875 -1.125 39.5 -1.125
Q36.1406 -1.125 33.5469 0.84375
Q30.9531 2.82812 30.3281 6.10938
Q23.875 -1.125 17.3906 -1.125
M17.4844 1.51562
Q21.0938 1.51562 24.4844 4.21875
Q27.875 6.9375 30.3281 10.5938
Q30.4219 10.6875 30.4219 10.8906
L35.7969 32.625
L35.8906 32.9062
Q35.2969 36.4688 33.3125 39.0312
Q31.3438 41.6094 27.9844 41.6094
Q24.6094 41.6094 21.7031 38.8438
Q18.7969 36.0781 16.7969 32.3281
Q14.8438 28.3281 13.0625 21.3438
Q11.2812 14.3594 11.2812 10.5
Q11.2812 7.03125 12.7656 4.26562
Q14.2656 1.51562 17.4844 1.51562" id="Cmmi10-61"/>
      <path d="
M4.89062 0
Q3.90625 0 3.90625 1.3125
Q3.95312 1.5625 4.09375 2.17188
Q4.25 2.78125 4.51562 3.14062
Q4.78125 3.51562 5.17188 3.51562
Q11.2812 3.51562 13.7188 4.20312
Q14.9844 4.64062 15.5781 6.89062
L29.2969 61.8125
Q29.5 62.7969 29.5 63.1875
Q29.5 64.2656 28.3281 64.4062
Q26.4219 64.7969 21.0938 64.7969
Q20.125 64.7969 20.125 66.1094
Q20.1719 66.3594 20.3125 66.9688
Q20.4531 67.5781 20.7188 67.9375
Q21 68.3125 21.3906 68.3125
L51.7031 68.3125
Q55.3281 68.3125 59.2344 67.4844
Q63.1406 66.6562 66.4062 64.875
Q69.6719 63.0938 71.7656 60.125
Q73.875 57.1719 73.875 53.2188
Q73.875 48.1875 70.5469 44.2344
Q67.2344 40.2812 62.1562 37.625
Q57.0781 34.9688 52.2969 33.8906
Q56.2031 32.4688 58.6875 29.3594
Q61.1875 26.2656 61.1875 22.2188
Q61.1875 21.6875 61.1562 21.4062
Q61.1406 21.1406 61.0781 20.7969
L60.2969 11.9219
Q60.2031 9.96875 60.1094 8.59375
Q60.0156 7.23438 60.0156 6.39062
Q60.0156 3.65625 60.8125 2.01562
Q61.625 0.390625 64.0156 0.390625
Q67.1406 0.390625 69.5 3.29688
Q71.875 6.20312 72.6094 9.625
Q73.0469 10.5 73.5781 10.5
L74.5156 10.5
Q75.4844 10.5 75.4844 9.1875
Q74.75 6.29688 73.1562 3.70312
Q71.5781 1.125 69.1562 -0.53125
Q66.75 -2.20312 63.9219 -2.20312
Q58.0625 -2.20312 53.9375 0.40625
Q49.8125 3.03125 49.8125 8.59375
Q49.8125 10.6875 50.2031 12.3125
L52.3906 21.1875
Q52.7812 22.4062 52.7812 24.0312
Q52.7812 28.1719 49.9688 30.5312
Q47.1719 32.9062 42.9219 32.9062
L30.6094 32.9062
L24.0312 6.5
Q23.7812 5.67188 23.7812 5.07812
Q23.7812 4.04688 25 3.90625
Q26.9062 3.51562 32.1719 3.51562
Q33.2031 3.51562 33.2031 2.20312
Q32.8594 0.78125 32.6562 0.390625
Q32.4688 0 31.5 0
z

M31.2031 35.5
L42.2812 35.5
Q53.1719 35.5 58.6875 41.0156
Q61.2344 43.5625 62.7188 47.4844
Q64.2031 51.4219 64.2031 55.3281
Q64.2031 59.0312 62.0312 61.125
Q59.8594 63.2344 56.6562 64.0156
Q53.4688 64.7969 49.6094 64.7969
L42.9219 64.7969
Q40.1875 64.7969 39.2969 64.3281
Q38.4219 63.875 37.7031 61.375
z
" id="Cmmi10-52"/>
      <path d="
M17.3906 -1.125
Q11.0781 -1.125 7.4375 3.64062
Q3.8125 8.40625 3.8125 14.8906
Q3.8125 21.2969 7.125 28.1719
Q10.4531 35.0625 16.0938 39.625
Q21.7344 44.1875 28.2188 44.1875
Q31.1562 44.1875 33.5156 42.5469
Q35.8906 40.9219 37.2031 38.1875
L42.8281 60.5
Q43.2188 62.2031 43.3125 63.1875
Q43.3125 64.7969 36.8125 64.7969
Q35.7969 64.7969 35.7969 66.1094
Q35.8438 66.3594 36.0156 66.9844
Q36.1875 67.625 36.4531 67.9688
Q36.7188 68.3125 37.2031 68.3125
L50.6875 69.3906
Q51.9062 69.3906 51.9062 68.1094
L37.5 10.5938
Q36.8125 8.9375 36.8125 5.8125
Q36.8125 1.51562 39.7031 1.51562
Q42.8281 1.51562 44.4531 5.48438
Q46.0938 9.46875 47.2188 14.7031
Q47.4062 15.2812 48 15.2812
L49.2188 15.2812
Q49.6094 15.2812 49.8438 14.9375
Q50.0938 14.5938 50.0938 14.3125
Q48.3438 7.32812 46.2656 3.09375
Q44.1875 -1.125 39.5 -1.125
Q36.1406 -1.125 33.5469 0.84375
Q30.9531 2.82812 30.3281 6.10938
Q23.875 -1.125 17.3906 -1.125
M17.4844 1.51562
Q21.0938 1.51562 24.4844 4.21875
Q27.875 6.9375 30.3281 10.5938
Q30.4219 10.6875 30.4219 10.9844
L35.8906 33.0156
Q35.2969 36.5312 33.2969 39.0625
Q31.2969 41.6094 27.9844 41.6094
Q24.6094 41.6094 21.7031 38.8438
Q18.7969 36.0781 16.7969 32.3281
Q14.8438 28.3281 13.0625 21.3438
Q11.2812 14.3594 11.2812 10.5
Q11.2812 7.03125 12.7656 4.26562
Q14.2656 1.51562 17.4844 1.51562" id="Cmmi10-64"/>
     </defs>
     <g transform="translate(126.433125 319.86)rotate(-90.0)scale(0.12 -0.12)">
      <use transform="translate(0.0 0.125)" xlink:href="#Cmmi10-b5"/>
      <use transform="translate(46.923828125 0.125)" xlink:href="#BitstreamVeraSans-Roman-28"/>
      <use transform="translate(85.9375 0.125)" xlink:href="#Cmmi10-52"/>
      <use transform="translate(161.81640625 0.125)" xlink:href="#Cmmi10-61"/>
      <use transform="translate(214.599609375 0.125)" xlink:href="#Cmmi10-64"/>
      <use transform="translate(266.6015625 0.125)" xlink:href="#BitstreamVeraSans-Roman-29"/>
     </g>
    </g>
   </g>
   <g id="legend_1">
    <g id="line2d_36">
     <path d="
M540.777 73.3932
L554.772 73.3932" style="fill:none;stroke:#008000;stroke-linecap:square;stroke-width:2;"/>
    </g>
    <g id="line2d_37"/>
    <g id="text_20">
     <!-- $\theta$-$t$ -->
     <defs>
      <path d="
M4.89062 31.3906
L31.2031 31.3906
L31.2031 23.3906
L4.89062 23.3906
z
" id="BitstreamVeraSans-Roman-2d"/>
      <path d="
M6.20312 8.10938
Q6.20312 9.57812 6.5 10.8906
L13.7188 39.5938
L3.21875 39.5938
Q2.20312 39.5938 2.20312 40.9219
Q2.59375 43.1094 3.51562 43.1094
L14.5938 43.1094
L18.6094 59.4219
Q19 60.75 20.1719 61.6719
Q21.3438 62.5938 22.7969 62.5938
Q24.0781 62.5938 24.9219 61.8281
Q25.7812 61.0781 25.7812 59.8125
Q25.7812 59.5156 25.75 59.3438
Q25.7344 59.1875 25.6875 58.9844
L21.6875 43.1094
L31.9844 43.1094
Q33.0156 43.1094 33.0156 41.7969
Q32.9531 41.5469 32.8125 40.9531
Q32.6719 40.375 32.4219 39.9844
Q32.1719 39.5938 31.6875 39.5938
L20.7969 39.5938
L13.625 10.6875
Q12.8906 7.85938 12.8906 5.8125
Q12.8906 1.51562 15.8281 1.51562
Q20.2188 1.51562 23.6094 5.64062
Q27 9.76562 28.8125 14.7031
Q29.2031 15.2812 29.5938 15.2812
L30.8125 15.2812
Q31.2031 15.2812 31.4375 15.0156
Q31.6875 14.75 31.6875 14.4062
Q31.6875 14.2031 31.5938 14.1094
Q29.3906 8.0625 25.1875 3.46875
Q21 -1.125 15.5781 -1.125
Q11.625 -1.125 8.90625 1.45312
Q6.20312 4.04688 6.20312 8.10938" id="Cmmi10-74"/>
     </defs>
     <g transform="translate(565.767490909 76.891798125)scale(0.09996 -0.09996)">
      <use transform="translate(0.0 0.484375)" xlink:href="#Cmmi10-b5"/>
      <use transform="translate(46.923828125 0.484375)" xlink:href="#BitstreamVeraSans-Roman-2d"/>
      <use transform="translate(83.0078125 0.484375)" xlink:href="#Cmmi10-74"/>
     </g>
    </g>
   </g>
  </g>
  <g id="axes_2">
   <g id="patch_7">
    <path d="
M673.376 542.7
L1106.46 542.7
L1106.46 60.3
L673.376 60.3
z
" style="fill:#ffffff;"/>
   </g>
   <g id="line2d_38">
    <path clip-path="url(#p9b96c9b755)" d="
M673.376 462.139
L674.242 462.029
L675.133 461.686
L676.073 461.081
L677.088 460.156
L678.189 458.84
L679.414 457.01
L682.161 452.319
L682.57 451.172
L682.916 449.459
L683.275 446.415
L683.795 439.679
L684.253 434.816
L684.438 434.308
L684.45 434.311
L684.549 434.507
L684.723 435.509
L685.044 438.963
L686.331 454.045
L686.962 458.443
L687.569 461.225
L688.113 462.792
L688.596 463.574
L689.016 463.871
L689.412 463.886
L689.858 463.668
L690.464 463.098
L691.479 461.789
L694.807 457.342
L695.834 456.361
L696.564 455.945
L697.158 455.849
L697.703 455.987
L698.247 456.361
L698.854 457.065
L699.571 458.268
L701.254 461.286
L701.465 461.243
L701.662 460.946
L701.91 460.104
L702.207 458.181
L702.553 454.324
L702.974 446.867
L704.075 425.264
L704.088 425.274
L704.174 425.622
L704.348 427.642
L704.706 435.293
L705.511 452.032
L706.043 458.663
L706.513 462.051
L706.909 463.487
L707.218 463.914
L707.466 463.927
L707.75 463.678
L708.196 462.932
L709.26 460.557
L710.535 457.958
L711.487 456.485
L712.242 455.691
L712.861 455.34
L713.405 455.28
L713.937 455.449
L714.531 455.888
L715.237 456.709
L716.115 458.096
L717.216 460.282
L718.961 463.805
L719.308 464.042
L719.543 463.962
L719.79 463.596
L720.087 462.679
L720.434 460.804
L720.842 457.245
L721.3 451.132
L721.819 440.893
L722.599 425.35
L722.698 425.046
L722.735 425.102
L722.846 425.827
L723.057 429.207
L723.626 443.721
L724.158 454.093
L724.566 458.223
L724.901 459.678
L725.148 459.998
L725.346 459.947
L725.618 459.596
L726.2 458.378
L727.177 456.444
L727.784 455.706
L728.303 455.396
L728.786 455.362
L729.293 455.559
L729.9 456.049
L730.716 457.023
L732.003 458.95
L734.577 462.851
L735.196 463.376
L735.629 463.478
L735.987 463.333
L736.346 462.932
L736.755 462.106
L737.213 460.636
L737.72 458.215
L738.264 454.473
L738.846 448.806
L740.182 434.782
L740.269 434.821
L740.281 434.844
L740.417 435.378
L740.677 437.56
L741.531 445.381
L742.026 447.435
L743.424 452.743
L744.538 456.676
L745.404 458.96
L746.196 460.462
L746.914 461.375
L747.545 461.844
L748.126 462.013
L748.708 461.949
L749.326 461.649
L750.044 461.04
L750.91 459.997
L751.999 458.315
L754.932 453.554
L756.095 452.296
L756.367 451.306
L756.652 449.294
L756.974 445.213
L757.506 434.802
L757.889 429.445
L758.001 429.113
L758.05 429.173
L758.161 429.755
L758.384 432.468
L759.015 444.277
L759.646 453.709
L760.203 458.991
L760.71 461.882
L761.131 463.169
L761.478 463.62
L761.762 463.664
L762.059 463.467
L762.48 462.886
L763.198 461.449
L765.734 456.118
L766.514 455.033
L767.083 454.587
L767.528 454.499
L767.937 454.643
L768.37 455.045
L768.89 455.861
L769.521 457.304
L771.154 461.323
L771.327 461.256
L771.513 460.871
L771.748 459.769
L772.032 457.239
L772.379 451.936
L772.812 441.403
L773.592 421.64
L773.666 421.44
L773.703 421.528
L773.814 422.524
L774.037 427.213
L775.225 456.598
L775.633 460.596
L775.955 461.939
L776.19 462.194
L776.363 462.1
L776.623 461.652
L777.118 460.25
L778.578 455.972
L779.234 454.758
L779.741 454.23
L780.162 454.081
L780.558 454.178
L780.991 454.529
L781.536 455.284
L782.253 456.693
L783.28 459.252
L784.839 463.138
L785.211 463.531
L785.446 463.504
L785.668 463.215
L785.941 462.429
L786.275 460.678
L786.671 457.246
L787.116 451.241
L787.623 441.065
L788.403 425.238
L788.49 425.013
L788.527 425.083
L788.638 425.898
L788.849 429.601
L789.925 451.997
L790.234 453.661
L790.494 454.079
L790.717 454.077
L791.162 453.756
L791.645 453.526
L792.016 453.596
L792.425 453.926
L792.957 454.676
L793.81 456.323
L796.025 460.714
L796.755 461.655
L797.275 462.005
L797.683 462.034
L798.055 461.837
L798.451 461.361
L798.908 460.428
L799.428 458.821
L800.01 456.241
L800.653 452.293
L801.544 445.192
L802.187 440.809
L802.67 439.044
L803.029 437.432
L803.573 434.941
L803.672 434.999
L803.808 435.476
L804.044 437.294
L804.526 443.261
L805.392 453.381
L806.011 458.076
L806.555 460.675
L807.026 461.958
L807.409 462.444
L807.731 462.526
L808.053 462.363
L808.473 461.859
L809.08 460.737
L810.156 458.189
L811.715 454.597
L812.334 453.689
L812.755 453.416
L813.089 453.452
L813.423 453.735
L813.831 454.411
L814.883 456.35
L815.032 456.165
L815.217 455.458
L815.452 453.477
L815.737 448.849
L816.108 438.591
L816.751 420.775
L816.826 420.481
L816.875 420.599
L816.987 421.743
L817.209 426.888
L818.298 455.476
L818.731 460.497
L819.078 462.326
L819.325 462.735
L819.498 462.688
L819.721 462.331
L820.105 461.217
L822.406 453.681
L822.889 452.999
L823.26 452.816
L823.569 452.903
L823.916 453.259
L824.349 454.062
L824.918 455.644
L825.735 458.663
L826.663 461.945
L826.948 462.301
L827.096 462.212
L827.269 461.786
L827.504 460.514
L827.801 457.48
L828.16 451.198
L828.593 439.232
L829.323 418.692
L829.373 418.596
L829.41 418.713
L829.521 420.01
L829.744 426.077
L830.623 452.85
L830.944 456.187
L831.192 456.959
L831.34 456.949
L831.538 456.6
L831.996 455.183
L832.677 453.306
L833.085 452.75
L833.394 452.648
L833.691 452.792
L834.05 453.241
L834.557 454.281
L835.349 456.487
L837.181 461.708
L837.614 462.306
L837.886 462.375
L838.109 462.202
L838.381 461.657
L838.715 460.401
L839.111 457.935
L839.569 453.532
L840.089 446.169
L841.14 430.272
L841.215 430.179
L841.264 430.253
L841.388 430.882
L841.66 433.804
L842.167 438.818
L843.541 447.889
L844.518 455.135
L845.187 458.495
L845.743 460.266
L846.189 461.044
L846.548 461.282
L846.857 461.232
L847.203 460.922
L847.649 460.183
L848.243 458.721
L849.109 455.929
L850.656 450.902
L851.114 450.155
L851.522 449.897
L851.819 449.637
L852.017 449.095
L852.227 447.762
L852.475 444.484
L852.784 436.924
L853.403 421.298
L853.452 421.167
L853.502 421.286
L853.613 422.422
L853.848 427.845
L854.875 454.578
L855.308 459.851
L855.667 461.895
L855.927 462.356
L856.088 462.311
L856.298 461.962
L856.657 460.846
L857.449 457.436
L858.464 453.399
L859.02 451.989
L859.392 451.549
L859.664 451.527
L859.924 451.76
L860.246 452.392
L860.679 453.806
L861.322 456.795
L861.978 459.549
L862.163 459.731
L862.176 459.725
L862.3 459.508
L862.473 458.632
L862.708 456.048
L863.005 449.839
L863.388 436.294
L864.007 414.15
L864.057 413.973
L864.094 414.099
L864.094 414.099
L864.193 415.484
L864.403 422.476
L865.232 453.171
L865.554 457.347
L865.789 458.234
L865.913 458.211
L866.086 457.804
L866.445 456.228
L867.348 452.233
L867.756 451.33
L868.053 451.119
L868.288 451.213
L868.573 451.611
L868.969 452.606
L869.551 454.749
L871.357 461.861
L871.58 461.983
L871.741 461.798
L871.951 461.132
L872.223 459.411
L872.557 455.717
L872.953 448.661
L873.461 435.087
L873.993 422.263
L874.092 421.837
L874.129 421.921
L874.24 422.959
L874.463 427.86
L875.069 441.663
L875.379 444.006
L875.861 445.66
L876.331 447.724
L877.321 453.502
L878.163 457.697
L878.744 459.603
L879.165 460.343
L879.474 460.506
L879.722 460.392
L880.007 459.99
L880.378 459.032
L880.848 457.142
L881.454 453.686
L882.469 446.292
L883.137 442.306
L883.558 439.722
L883.818 436.2
L884.226 426.535
L884.511 422.256
L884.548 422.188
L884.585 422.25
L884.585 422.25
L884.684 423.033
L884.882 426.854
L886.193 457.339
L886.577 460.488
L886.874 461.42
L887.06 461.475
L887.233 461.237
L887.517 460.391
L888.025 458.053
L889.497 450.996
L889.906 450.048
L890.165 449.877
L890.363 450.003
L890.611 450.485
L890.957 451.74
L891.947 456.077
L892.009 456.018
L892.133 455.559
L892.306 453.917
L892.541 449.171
L892.851 437.521
L893.519 410.148
L893.531 410.161
L893.593 410.694
L893.741 414.846
L894.175 436.654
L894.608 452.541
L894.929 457.591
L895.152 458.567
L895.251 458.543
L895.263 458.525
L895.424 458.039
L895.758 456.133
L896.711 450.544
L897.095 449.511
L897.342 449.342
L897.528 449.472
L897.775 449.969
L898.134 451.267
L898.679 454.201
L899.842 460.671
L900.04 460.88
L900.163 460.685
L900.337 459.879
L900.572 457.563
L900.869 452.184
L901.24 440.963
L902.032 414.399
L902.057 414.466
L902.143 415.485
L902.329 421.132
L902.997 443.656
L903.257 445.805
L903.48 446.196
L903.999 446.537
L904.272 447.286
L904.68 449.183
L906.66 459.473
L906.969 459.901
L907.155 459.869
L907.353 459.569
L907.625 458.673
L907.971 456.676
L908.417 452.64
L908.986 445.204
L909.889 433.425
L910.508 428.054
L910.953 422.827
L911.015 422.991
L911.139 424.241
L911.387 429.651
L912.401 454.268
L912.81 458.725
L913.119 460.14
L913.317 460.317
L913.465 460.145
L913.7 459.442
L914.096 457.436
L915.804 447.896
L916.051 447.634
L916.212 447.752
L916.423 448.253
L916.769 449.778
L917.202 451.453
L917.289 451.376
L917.413 450.74
L917.586 448.353
L917.809 441.707
L918.143 423.733
L918.526 406.757
L918.563 406.629
L918.588 406.74
L918.588 406.74
L918.675 408.323
L918.873 417.303
L919.578 451.982
L919.887 457.361
L920.098 458.244
L920.184 458.152
L920.345 457.493
L920.692 454.887
L921.533 448.588
L921.88 447.437
L922.09 447.306
L922.251 447.502
L922.486 448.229
L922.832 450.139
L923.439 455.006
L923.983 458.771
L924.144 459.05
L924.169 459.033
L924.268 458.769
L924.429 457.554
L924.651 453.859
L924.936 444.957
L925.344 423.913
L925.728 407.58
L925.765 407.368
L925.802 407.498
L925.802 407.498
L925.901 409.486
L926.124 420.366
L926.606 442.755
L926.866 446.219
L927.015 446.534
L927.039 446.522
L927.188 446.249
L927.646 445.363
L927.794 445.465
L927.992 445.966
L928.302 447.471
L928.871 451.588
L929.774 457.87
L930.121 459.014
L930.306 459.096
L930.455 458.835
L930.665 457.903
L930.95 455.473
L931.321 450.099
L931.803 439.442
L932.472 425.147
L932.67 424.257
L932.781 424.34
L932.917 424.431
L932.942 424.405
L933.066 424.008
L933.362 422.707
L933.412 422.797
L933.523 423.592
L933.721 427.005
L934.266 442.04
L934.798 453.364
L935.194 457.708
L935.478 458.858
L935.615 458.908
L935.627 458.898
L935.775 458.611
L936.023 457.537
L936.444 454.538
L937.718 444.856
L937.966 444.379
L938.102 444.457
L938.3 444.949
L938.671 445.982
L938.708 445.951
L938.807 445.567
L938.955 443.784
L939.153 437.968
L939.438 421.528
L939.809 403.126
L939.834 403.051
L939.846 403.087
L939.846 403.087
L939.921 404.29
L940.094 412.461
L940.836 452.59
L941.108 456.891
L941.257 457.347
L941.282 457.326
L941.393 456.957
L941.628 455.143
L942.742 445.306
L942.965 444.91
L943.088 445.02
L943.262 445.568
L943.534 447.282
L944.004 451.969
L944.499 456.291
L944.586 456.449
L944.635 456.39
L944.746 455.767
L944.92 453.106
L945.155 445.267
L945.476 425.749
L945.922 400.409
L945.934 400.36
L945.947 400.366
L945.947 400.366
L946.009 401.221
L946.145 407.405
L946.838 444.914
L947.036 446.135
L947.11 446.016
L947.308 445.063
L947.704 443.382
L947.84 443.327
L947.852 443.338
L947.988 443.629
L948.223 444.803
L948.619 448.171
L949.659 457.442
L949.869 457.883
L949.968 457.746
L950.117 457.05
L950.339 454.744
L950.636 449.004
L951.032 436.44
L951.663 416.438
L951.738 416.142
L951.787 416.283
L951.923 417.696
L952.282 421.277
L952.53 422.373
L952.715 425.04
L953.062 434.175
L953.755 451.598
L954.138 456.271
L954.386 457.276
L954.485 457.277
L954.509 457.245
L954.658 456.793
L954.905 455.195
L955.338 450.656
L956.291 440.407
L956.539 439.633
L956.687 439.652
L956.873 439.732
L956.898 439.698
L956.996 439.295
L957.133 437.577
L957.306 432.074
L957.578 414.494
L957.887 399.122
L957.912 399.179
L957.986 400.731
L958.16 410.646
L958.803 450.684
L959.075 455.611
L959.187 455.941
L959.224 455.887
L959.348 455.239
L959.62 452.201
L960.424 442.829
L960.659 442.065
L960.758 442.135
L960.907 442.683
L961.154 444.687
L961.934 453.026
L962.008 452.788
L962.132 451.232
L962.317 445.312
L962.577 428.199
L963.06 393.05
L963.084 393.167
L963.171 395.959
L963.381 413.229
L963.777 441.238
L964 444.926
L964.037 444.981
L964.087 444.898
L964.235 443.955
L964.73 440.599
L964.817 440.547
L964.854 440.586
L964.99 441.038
L965.225 442.829
L965.658 448.258
L966.289 455.581
L966.462 456.088
L966.487 456.066
L966.586 455.702
L966.747 454.044
L966.982 448.844
L967.304 435.847
L967.96 407.41
L967.972 407.426
L968.034 407.977
L968.207 412.42
L968.541 419.371
L968.863 423.18
L969.172 431.451
L969.915 451.397
L970.236 454.966
L970.397 455.393
L970.422 455.382
L970.521 455.143
L970.707 453.918
L971.016 450.047
L972.216 433.038
L972.451 431.928
L972.588 429.627
L972.761 422.262
L973.219 394.559
L973.293 395.956
L973.454 406.134
L974.072 449.664
L974.307 453.858
L974.369 454.016
L974.419 453.922
L974.543 452.997
L974.827 448.669
L975.458 439.382
L975.669 438.597
L975.743 438.712
L975.879 439.456
L976.126 442.362
L976.634 448.704
L976.646 448.687
L976.72 448.185
L976.844 445.418
L977.03 435.243
L977.339 402.549
L977.587 385.16
L977.599 385.234
L977.673 387.899
L977.859 406.307
L978.242 439.633
L978.44 443.065
L978.465 443.06
L978.49 442.991
L978.614 441.959
L979.133 437.116
L979.183 437.115
L979.22 437.181
L979.344 437.805
L979.566 440.289
L980.111 449.833
L980.445 453.543
L980.494 453.615
L980.544 453.512
L980.655 452.553
L980.828 448.695
L981.076 437.376
L981.719 397.962
L981.806 399.222
L982.016 408.865
L982.289 416.907
L982.66 423.144
L983.142 439.547
L983.588 450.813
L983.848 453.041
L983.897 453.067
L983.934 453.003
L984.058 452.297
L984.268 449.497
L984.64 440.908
L985.308 425.739
L985.667 420.983
L985.84 411.989
L986.199 389.151
L986.236 389.667
L986.347 395.629
L987.139 451.116
L987.226 451.509
L987.275 451.348
L987.411 449.803
L987.758 442.353
L988.191 434.915
L988.339 434.34
L988.364 434.368
L988.463 434.838
L988.649 437.121
L989.069 443.365
L989.119 443.151
L989.218 441.152
L989.379 431.74
L989.639 399.07
L989.886 376.43
L989.899 376.572
L989.973 380.46
L990.195 410.026
L990.505 438.135
L990.653 440.349
L990.678 440.277
L990.789 439.061
L991.284 432.918
L991.346 433.04
L991.47 434.008
L991.705 438.053
L992.361 450.319
L992.41 450.136
L992.522 448.461
L992.695 441.658
L992.955 420.829
L993.376 387.56
L993.388 387.641
L993.462 389.904
L994.068 415.776
L994.279 421.109
L995.219 450.101
L995.269 450.179
L995.306 450.104
L995.306 450.104
L995.417 449.197
L995.615 445.217
L995.974 432.32
L996.469 416.069
L996.766 409.599
L996.964 394.678
L997.162 382.649
L997.199 383.012
L997.298 388.667
L998.065 448.319
L998.102 448.254
L998.201 447.137
L998.449 440.761
L998.919 429.554
L999.03 429.059
L999.068 429.145
L999.179 430.127
L999.463 435.614
L999.587 436.836
L999.624 436.615
L999.711 434.403
L999.859 422.897
L1000.27 366.552
L1000.38 373.819
L1000.95 436.714
L1001 436.429
L1001.16 433.222
L1001.48 427.887
L1001.52 427.845
L1001.54 427.895
L1001.54 427.895
L1001.64 428.715
L1001.84 432.905
L1002.37 446.028
L1002.41 445.874
L1002.51 443.901
L1002.67 434.761
L1002.93 403.746
L1003.21 375.896
L1003.23 375.983
L1003.3 379.29
L1003.81 410.325
L1003.99 414.799
L1004.33 430.645
L1004.72 445.408
L1004.85 446.52
L1004.88 446.449
L1004.98 445.322
L1005.17 439.698
L1005.51 420.568
L1005.89 404.341
L1006.11 397.779
L1006.43 374.78
L1006.52 378.592
L1006.73 406.291
L1007.07 441.403
L1007.22 444.3
L1007.25 444.204
L1007.35 442.577
L1007.61 433.131
L1007.96 422.775
L1008.03 422.478
L1008.08 422.63
L1008.19 424.121
L1008.45 428.914
L1008.5 428.455
L1008.6 423.862
L1008.76 401.648
L1009.04 355.207
L1009.08 356.842
L1009.2 377.199
L1009.55 430.607
L1009.62 431.985
L1009.67 431.637
L1009.83 427.219
L1010.1 421.675
L1010.13 421.687
L1010.14 421.73
L1010.23 422.714
L1010.41 428.208
L1010.8 440.514
L1010.84 440.346
L1010.92 437.935
L1011.07 425.6
L1011.37 374.869
L1011.5 362.651
L1011.54 363.588
L1011.65 375.656
L1011.94 402.307
L1012.27 411.765
L1012.91 441.857
L1012.93 441.831
L1013 440.922
L1013.15 435.253
L1013.43 413.279
L1013.79 390.957
L1013.97 384.753
L1014.21 365.235
L1014.29 368.19
L1014.45 392.022
L1014.81 437.285
L1014.91 439.236
L1014.96 438.782
L1015.09 434.119
L1015.6 414.259
L1015.61 414.285
L1015.69 415.09
L1015.9 419.309
L1015.96 418.477
L1016.06 411.017
L1016.23 373.911
L1016.4 341.994
L1016.44 343.589
L1016.55 366.184
L1016.87 425.269
L1016.92 425.932
L1016.96 425.501
L1016.96 425.501
L1017.12 419.453
L1017.33 414.126
L1017.36 414.167
L1017.43 415.223
L1017.6 422.168
L1017.89 433.507
L1017.91 433.334
L1017.99 430.561
L1018.12 414.516
L1018.47 347.426
L1018.56 354.549
L1018.92 395.444
L1019.06 399.272
L1019.27 413.688
L1019.65 435.771
L1019.67 435.893
L1019.69 435.777
L1019.69 435.777
L1019.78 433.436
L1019.94 421.326
L1020.51 372.924
L1020.66 359.609
L1020.76 353.573
L1020.8 354.878
L1020.91 370.971
L1021.3 432.266
L1021.35 432.829
L1021.39 432.326
L1021.39 432.326
L1021.51 426.457
L1021.93 403.982
L1021.95 404.011
L1022.02 405.087
L1022.16 407.702
L1022.19 407.113
L1022.28 399.9
L1022.43 361.593
L1022.59 326.511
L1022.63 329.92
L1022.78 375.544
L1023.01 418.097
L1023.02 418.219
L1023.04 418.201
L1023.04 418.201
L1023.1 416.496
L1023.38 404.846
L1023.43 405.335
L1023.56 410.528
L1023.82 424.631
L1023.86 423.792
L1023.96 414.061
L1024.15 363.897
L1024.31 329.715
L1024.35 332.059
L1024.52 371.376
L1024.71 385.333
L1024.82 388.616
L1024.99 403.296
L1025.32 428.255
L1025.37 427.326
L1025.49 419.055
L1025.75 376.668
L1025.97 357.985
L1026.05 354.342
L1026.23 339.283
L1026.28 342.495
L1026.43 376.985
L1026.7 424.322
L1026.72 424.725
L1026.75 424.551
L1026.75 424.551
L1026.83 420.239
L1027.23 391.162
L1027.29 392.063
L1027.38 393.664
L1027.42 392.969
L1027.49 385.124
L1027.64 334.94
L1027.75 307.996
L1027.79 312.411
L1027.96 381.016
L1028.12 408.391
L1028.15 408.179
L1028.25 402.296
L1028.43 393.385
L1028.46 393.672
L1028.55 398.537
L1028.78 413.48
L1028.83 411.396
L1028.93 393.305
L1029.19 308.982
L1029.26 322.86
L1029.52 372.226
L1029.62 375.62
L1029.78 393.823
L1030.03 418.476
L1030.05 418.226
L1030.13 413.155
L1030.29 381.878
L1030.56 338.16
L1030.63 335.825
L1030.78 321.596
L1030.84 328.01
L1031.2 414.408
L1031.31 407.092
L1031.62 375.195
L1031.67 375.779
L1031.72 376.659
L1031.76 376.062
L1031.83 365.722
L1032.04 285.751
L1032.13 312.949
L1032.37 395.875
L1032.38 395.749
L1032.46 389.174
L1032.61 379.112
L1032.65 379.753
L1032.76 389.015
L1032.89 399.463
L1032.93 397.227
L1033.03 370.438
L1033.23 284.344
L1033.29 298.006
L1033.54 356.133
L1033.63 361.568
L1033.94 405.967
L1034.02 398.655
L1034.2 346.463
L1034.39 314.473
L1034.43 313.442
L1034.56 299.619
L1034.62 307.193
L1034.91 401.202
L1035.01 391.467
L1035.27 355.408
L1035.31 355.88
L1035.34 356.125
L1035.35 356
L1035.35 356
L1035.4 351.64
L1035.5 309.207
L1035.61 258.839
L1035.66 275.014
L1035.88 379.751
L1035.93 376.107
L1036.08 361.274
L1036.13 363.061
L1036.3 381.984
L1036.36 373.874
L1036.49 301.811
L1036.58 255.008
L1036.63 269.36
L1036.86 335.489
L1036.94 345.865
L1037.17 389.947
L1037.23 383.489
L1037.38 322.854
L1037.53 286.341
L1037.56 286.397
L1037.62 279.349
L1037.69 271.888
L1037.72 277.707
L1037.98 384.119
L1038.08 366.294
L1038.28 331.033
L1038.3 331.246
L1038.33 330.873
L1038.38 322.767
L1038.54 225.632
L1038.61 269.072
L1038.76 358.795
L1038.8 356.579
L1038.94 338.808
L1038.99 342.4
L1039.11 360.113
L1039.15 355.291
L1039.23 300.424
L1039.34 219.71
L1039.39 240.368
L1039.59 310.126
L1039.69 336.237
L1039.83 369.356
L1039.86 364.181
L1039.99 296.864
L1040.16 251.983
L1040.25 236.565
L1040.28 244.075
L1040.5 362.006
L1040.58 338.758
L1040.78 300.131
L1040.83 283.965
L1040.95 184.72
L1041 221.519
L1041.14 331.504
L1041.19 323.721
L1041.27 310.429
L1041.32 316.852
L1041.41 332.857
L1041.45 324.416
L1041.56 205.33
L1041.61 177.285
L1041.65 198.816
L1041.65 198.816
L1041.84 285.051
L1041.99 343.137
L1042.04 330.647
L1042.35 191.376
L1042.38 200.437
L1042.54 333.197
L1042.62 301.043
L1042.91 133.943
L1042.96 173.253
L1043.07 295.045
L1043.13 280.174
L1043.17 274.166
L1043.2 278.761
L1043.2 278.761
L1043.28 298.983
L1043.32 288.524
L1043.44 125.97
L1043.53 203.322
L1043.76 309.131
L1043.77 306.615
L1043.86 224.459
L1044.05 131.493
L1044.08 155.251
L1044.21 294.57
L1044.26 268.231
L1044.5 68.2671
L1044.54 112.378
L1044.59 218.535
L1044.59 218.535" style="fill:none;stroke:#bf00bf;stroke-linecap:square;stroke-width:2;"/>
   </g>
   <g id="patch_8">
    <path d="
M673.376 60.3
L1106.46 60.3" style="fill:none;stroke:#000000;stroke-linecap:square;stroke-linejoin:miter;"/>
   </g>
   <g id="patch_9">
    <path d="
M1106.46 542.7
L1106.46 60.3" style="fill:none;stroke:#000000;stroke-linecap:square;stroke-linejoin:miter;"/>
   </g>
   <g id="patch_10">
    <path d="
M673.376 542.7
L1106.46 542.7" style="fill:none;stroke:#000000;stroke-linecap:square;stroke-linejoin:miter;"/>
   </g>
   <g id="patch_11">
    <path d="
M673.376 542.7
L673.376 60.3" style="fill:none;stroke:#000000;stroke-linecap:square;stroke-linejoin:miter;"/>
   </g>
   <g id="matplotlib.axis_3">
    <g id="xtick_9">
     <g id="line2d_39">
      <g>
       <use style="stroke:#000000;stroke-width:0.5;" x="673.375909091" xlink:href="#m93b0483c22" y="542.7"/>
      </g>
     </g>
     <g id="line2d_40">
      <g>
       <use style="stroke:#000000;stroke-width:0.5;" x="673.375909091" xlink:href="#m741efc42ff" y="60.3"/>
      </g>
     </g>
     <g id="text_21">
      <!-- 0 -->
      <g transform="translate(670.352471591 555.818125)scale(0.12 -0.12)">
       <use xlink:href="#BitstreamVeraSans-Roman-30"/>
      </g>
     </g>
    </g>
    <g id="xtick_10">
     <g id="line2d_41">
      <g>
       <use style="stroke:#000000;stroke-width:0.5;" x="735.245064935" xlink:href="#m93b0483c22" y="542.7"/>
      </g>
     </g>
     <g id="line2d_42">
      <g>
       <use style="stroke:#000000;stroke-width:0.5;" x="735.245064935" xlink:href="#m741efc42ff" y="60.3"/>
      </g>
     </g>
     <g id="text_22">
      <!-- 5 -->
      <g transform="translate(732.414752435 555.818125)scale(0.12 -0.12)">
       <use xlink:href="#BitstreamVeraSans-Roman-35"/>
      </g>
     </g>
    </g>
    <g id="xtick_11">
     <g id="line2d_43">
      <g>
       <use style="stroke:#000000;stroke-width:0.5;" x="797.114220779" xlink:href="#m93b0483c22" y="542.7"/>
      </g>
     </g>
     <g id="line2d_44">
      <g>
       <use style="stroke:#000000;stroke-width:0.5;" x="797.114220779" xlink:href="#m741efc42ff" y="60.3"/>
      </g>
     </g>
     <g id="text_23">
      <!-- 10 -->
      <g transform="translate(790.536720779 555.818125)scale(0.12 -0.12)">
       <use xlink:href="#BitstreamVeraSans-Roman-31"/>
       <use x="63.623046875" xlink:href="#BitstreamVeraSans-Roman-30"/>
      </g>
     </g>
    </g>
    <g id="xtick_12">
     <g id="line2d_45">
      <g>
       <use style="stroke:#000000;stroke-width:0.5;" x="858.983376623" xlink:href="#m93b0483c22" y="542.7"/>
      </g>
     </g>
     <g id="line2d_46">
      <g>
       <use style="stroke:#000000;stroke-width:0.5;" x="858.983376623" xlink:href="#m741efc42ff" y="60.3"/>
      </g>
     </g>
     <g id="text_24">
      <!-- 15 -->
      <g transform="translate(852.531501623 555.818125)scale(0.12 -0.12)">
       <use xlink:href="#BitstreamVeraSans-Roman-31"/>
       <use x="63.623046875" xlink:href="#BitstreamVeraSans-Roman-35"/>
      </g>
     </g>
    </g>
    <g id="xtick_13">
     <g id="line2d_47">
      <g>
       <use style="stroke:#000000;stroke-width:0.5;" x="920.852532468" xlink:href="#m93b0483c22" y="542.7"/>
      </g>
     </g>
     <g id="line2d_48">
      <g>
       <use style="stroke:#000000;stroke-width:0.5;" x="920.852532468" xlink:href="#m741efc42ff" y="60.3"/>
      </g>
     </g>
     <g id="text_25">
      <!-- 20 -->
      <g transform="translate(914.055657468 555.818125)scale(0.12 -0.12)">
       <use xlink:href="#BitstreamVeraSans-Roman-32"/>
       <use x="63.623046875" xlink:href="#BitstreamVeraSans-Roman-30"/>
      </g>
     </g>
    </g>
    <g id="xtick_14">
     <g id="line2d_49">
      <g>
       <use style="stroke:#000000;stroke-width:0.5;" x="982.721688312" xlink:href="#m93b0483c22" y="542.7"/>
      </g>
     </g>
     <g id="line2d_50">
      <g>
       <use style="stroke:#000000;stroke-width:0.5;" x="982.721688312" xlink:href="#m741efc42ff" y="60.3"/>
      </g>
     </g>
     <g id="text_26">
      <!-- 25 -->
      <g transform="translate(976.050438312 555.818125)scale(0.12 -0.12)">
       <use xlink:href="#BitstreamVeraSans-Roman-32"/>
       <use x="63.623046875" xlink:href="#BitstreamVeraSans-Roman-35"/>
      </g>
     </g>
    </g>
    <g id="xtick_15">
     <g id="line2d_51">
      <g>
       <use style="stroke:#000000;stroke-width:0.5;" x="1044.59084416" xlink:href="#m93b0483c22" y="542.7"/>
      </g>
     </g>
     <g id="line2d_52">
      <g>
       <use style="stroke:#000000;stroke-width:0.5;" x="1044.59084416" xlink:href="#m741efc42ff" y="60.3"/>
      </g>
     </g>
     <g id="text_27">
      <!-- 30 -->
      <g transform="translate(1037.81178166 555.818125)scale(0.12 -0.12)">
       <use xlink:href="#BitstreamVeraSans-Roman-33"/>
       <use x="63.623046875" xlink:href="#BitstreamVeraSans-Roman-30"/>
      </g>
     </g>
    </g>
    <g id="xtick_16">
     <g id="line2d_53">
      <g>
       <use style="stroke:#000000;stroke-width:0.5;" x="1106.46" xlink:href="#m93b0483c22" y="542.7"/>
      </g>
     </g>
     <g id="line2d_54">
      <g>
       <use style="stroke:#000000;stroke-width:0.5;" x="1106.46" xlink:href="#m741efc42ff" y="60.3"/>
      </g>
     </g>
     <g id="text_28">
      <!-- 35 -->
      <g transform="translate(1099.8065625 555.818125)scale(0.12 -0.12)">
       <use xlink:href="#BitstreamVeraSans-Roman-33"/>
       <use x="63.623046875" xlink:href="#BitstreamVeraSans-Roman-35"/>
      </g>
     </g>
    </g>
    <g id="text_29">
     <!-- time($s$) -->
     <g transform="translate(868.857954545 572.431875)scale(0.12 -0.12)">
      <use transform="translate(0.0 0.015625)" xlink:href="#BitstreamVeraSans-Roman-74"/>
      <use transform="translate(39.208984375 0.015625)" xlink:href="#BitstreamVeraSans-Roman-69"/>
      <use transform="translate(66.9921875 0.015625)" xlink:href="#BitstreamVeraSans-Roman-6d"/>
      <use transform="translate(164.404296875 0.015625)" xlink:href="#BitstreamVeraSans-Roman-65"/>
      <use transform="translate(225.927734375 0.015625)" xlink:href="#BitstreamVeraSans-Roman-28"/>
      <use transform="translate(264.94140625 0.015625)" xlink:href="#Cmmi10-73"/>
      <use transform="translate(311.71875 0.015625)" xlink:href="#BitstreamVeraSans-Roman-29"/>
     </g>
    </g>
   </g>
   <g id="matplotlib.axis_4">
    <g id="ytick_10">
     <g id="line2d_55">
      <g>
       <use style="stroke:#000000;stroke-width:0.5;" x="673.375909091" xlink:href="#m728421d6d4" y="542.7"/>
      </g>
     </g>
     <g id="line2d_56">
      <g>
       <use style="stroke:#000000;stroke-width:0.5;" x="1106.46" xlink:href="#mcb0005524f" y="542.7"/>
      </g>
     </g>
     <g id="text_30">
      <!-- −50 -->
      <g transform="translate(646.118409091 546.01125)scale(0.12 -0.12)">
       <use xlink:href="#BitstreamVeraSans-Roman-2212"/>
       <use x="83.7890625" xlink:href="#BitstreamVeraSans-Roman-35"/>
       <use x="147.412109375" xlink:href="#BitstreamVeraSans-Roman-30"/>
      </g>
     </g>
    </g>
    <g id="ytick_11">
     <g id="line2d_57">
      <g>
       <use style="stroke:#000000;stroke-width:0.5;" x="673.375909091" xlink:href="#m728421d6d4" y="462.3"/>
      </g>
     </g>
     <g id="line2d_58">
      <g>
       <use style="stroke:#000000;stroke-width:0.5;" x="1106.46" xlink:href="#mcb0005524f" y="462.3"/>
      </g>
     </g>
     <g id="text_31">
      <!-- 0 -->
      <g transform="translate(663.329034091 465.61125)scale(0.12 -0.12)">
       <use xlink:href="#BitstreamVeraSans-Roman-30"/>
      </g>
     </g>
    </g>
    <g id="ytick_12">
     <g id="line2d_59">
      <g>
       <use style="stroke:#000000;stroke-width:0.5;" x="673.375909091" xlink:href="#m728421d6d4" y="381.9"/>
      </g>
     </g>
     <g id="line2d_60">
      <g>
       <use style="stroke:#000000;stroke-width:0.5;" x="1106.46" xlink:href="#mcb0005524f" y="381.9"/>
      </g>
     </g>
     <g id="text_32">
      <!-- 50 -->
      <g transform="translate(655.829034091 385.21125)scale(0.12 -0.12)">
       <use xlink:href="#BitstreamVeraSans-Roman-35"/>
       <use x="63.623046875" xlink:href="#BitstreamVeraSans-Roman-30"/>
      </g>
     </g>
    </g>
    <g id="ytick_13">
     <g id="line2d_61">
      <g>
       <use style="stroke:#000000;stroke-width:0.5;" x="673.375909091" xlink:href="#m728421d6d4" y="301.5"/>
      </g>
     </g>
     <g id="line2d_62">
      <g>
       <use style="stroke:#000000;stroke-width:0.5;" x="1106.46" xlink:href="#mcb0005524f" y="301.5"/>
      </g>
     </g>
     <g id="text_33">
      <!-- 100 -->
      <g transform="translate(648.585909091 304.81125)scale(0.12 -0.12)">
       <use xlink:href="#BitstreamVeraSans-Roman-31"/>
       <use x="63.623046875" xlink:href="#BitstreamVeraSans-Roman-30"/>
       <use x="127.24609375" xlink:href="#BitstreamVeraSans-Roman-30"/>
      </g>
     </g>
    </g>
    <g id="ytick_14">
     <g id="line2d_63">
      <g>
       <use style="stroke:#000000;stroke-width:0.5;" x="673.375909091" xlink:href="#m728421d6d4" y="221.1"/>
      </g>
     </g>
     <g id="line2d_64">
      <g>
       <use style="stroke:#000000;stroke-width:0.5;" x="1106.46" xlink:href="#mcb0005524f" y="221.1"/>
      </g>
     </g>
     <g id="text_34">
      <!-- 150 -->
      <g transform="translate(648.585909091 224.41125)scale(0.12 -0.12)">
       <use xlink:href="#BitstreamVeraSans-Roman-31"/>
       <use x="63.623046875" xlink:href="#BitstreamVeraSans-Roman-35"/>
       <use x="127.24609375" xlink:href="#BitstreamVeraSans-Roman-30"/>
      </g>
     </g>
    </g>
    <g id="ytick_15">
     <g id="line2d_65">
      <g>
       <use style="stroke:#000000;stroke-width:0.5;" x="673.375909091" xlink:href="#m728421d6d4" y="140.7"/>
      </g>
     </g>
     <g id="line2d_66">
      <g>
       <use style="stroke:#000000;stroke-width:0.5;" x="1106.46" xlink:href="#mcb0005524f" y="140.7"/>
      </g>
     </g>
     <g id="text_35">
      <!-- 200 -->
      <g transform="translate(648.147159091 144.01125)scale(0.12 -0.12)">
       <use xlink:href="#BitstreamVeraSans-Roman-32"/>
       <use x="63.623046875" xlink:href="#BitstreamVeraSans-Roman-30"/>
       <use x="127.24609375" xlink:href="#BitstreamVeraSans-Roman-30"/>
      </g>
     </g>
    </g>
    <g id="ytick_16">
     <g id="line2d_67">
      <g>
       <use style="stroke:#000000;stroke-width:0.5;" x="673.375909091" xlink:href="#m728421d6d4" y="60.3"/>
      </g>
     </g>
     <g id="line2d_68">
      <g>
       <use style="stroke:#000000;stroke-width:0.5;" x="1106.46" xlink:href="#mcb0005524f" y="60.3"/>
      </g>
     </g>
     <g id="text_36">
      <!-- 250 -->
      <g transform="translate(648.147159091 63.61125)scale(0.12 -0.12)">
       <use xlink:href="#BitstreamVeraSans-Roman-32"/>
       <use x="63.623046875" xlink:href="#BitstreamVeraSans-Roman-35"/>
       <use x="127.24609375" xlink:href="#BitstreamVeraSans-Roman-30"/>
      </g>
     </g>
    </g>
    <g id="text_37">
     <!-- $\omega$($Rad/s$) -->
     <defs>
      <path d="
M5.60938 -23
Q5.60938 -22.7031 5.71875 -22.6094
L40.4844 73.7812
Q40.6719 74.3594 41.1562 74.6719
Q41.6562 75 42.2812 75
Q43.1719 75 43.7188 74.4531
Q44.2812 73.9219 44.2812 73
L44.2812 72.6094
L9.51562 -23.7812
Q8.9375 -25 7.625 -25
Q6.78125 -25 6.1875 -24.4062
Q5.60938 -23.8281 5.60938 -23" id="Cmmi10-3d"/>
      <path d="
M12.1094 -1.125
Q6.45312 -1.125 3.9375 3.01562
Q1.42188 7.17188 1.42188 13.1875
Q1.42188 17.1406 2.125 20.9219
Q2.82812 24.7031 4.26562 28.5781
Q5.71875 32.4688 7.5625 35.8594
Q9.42188 39.2656 11.7188 42.4844
Q12.1562 43.1094 12.8906 43.1094
Q13.5312 43.1094 13.9219 42.7188
Q14.3125 42.3281 14.3125 41.7969
Q14.3125 41.2656 14.0156 40.8281
Q4.89062 28.2656 4.89062 17.6719
Q4.89062 13.0938 7 9.79688
Q9.125 6.5 13.4844 6.5
Q17.2344 6.5 20.4375 8.6875
Q23.6406 10.8906 25.9844 14.3125
Q25.9844 16.0625 26.5938 19.7656
Q27.2031 23.4844 28.4844 26.3906
Q29.7812 29.2969 31.5938 29.2969
Q33.8906 29.2969 33.8906 26.6094
Q33.8906 25.0469 33.2188 22.6719
Q32.5625 20.3125 31.75 18.2656
Q30.9531 16.2188 29.7812 13.625
Q30.9531 6.5 36.9219 6.5
Q40.375 6.5 43.8594 8.5
Q47.3594 10.5 50.0469 13.75
Q52.7344 17 54.2656 20.75
Q55.8125 24.5156 55.8125 27.875
Q55.8125 30.9062 54.8594 32.5938
Q53.9062 34.2812 52.3438 36.125
Q50.7812 37.9844 50.7812 39.1094
Q50.7812 41.0625 52.4375 42.6719
Q54.1094 44.2812 56 44.2812
Q58.4531 44.2812 59.4688 42.0625
Q60.5 39.8438 60.5 37.0156
Q60.5 32.4219 58.6719 25.4375
Q56.8438 18.4531 54.5 13.8125
Q51.2656 7.51562 46.4062 3.1875
Q41.5469 -1.125 35.5 -1.125
Q31.6406 -1.125 29.2656 1.1875
Q26.9062 3.51562 26.2188 7.51562
Q23.4375 3.5625 19.875 1.21875
Q16.3125 -1.125 12.1094 -1.125" id="Cmmi10-21"/>
     </defs>
     <g transform="translate(638.118409091 326.58)rotate(-90.0)scale(0.12 -0.12)">
      <use transform="translate(0.0 0.125)" xlink:href="#Cmmi10-21"/>
      <use transform="translate(62.20703125 0.125)" xlink:href="#BitstreamVeraSans-Roman-28"/>
      <use transform="translate(101.220703125 0.125)" xlink:href="#Cmmi10-52"/>
      <use transform="translate(177.099609375 0.125)" xlink:href="#Cmmi10-61"/>
      <use transform="translate(229.8828125 0.125)" xlink:href="#Cmmi10-64"/>
      <use transform="translate(281.884765625 0.125)" xlink:href="#Cmmi10-3d"/>
      <use transform="translate(331.884765625 0.125)" xlink:href="#Cmmi10-73"/>
      <use transform="translate(378.662109375 0.125)" xlink:href="#BitstreamVeraSans-Roman-29"/>
     </g>
    </g>
   </g>
   <g id="legend_2">
    <g id="line2d_69">
     <path d="
M1058.98 73.3932
L1072.97 73.3932" style="fill:none;stroke:#bf00bf;stroke-linecap:square;stroke-width:2;"/>
    </g>
    <g id="line2d_70"/>
    <g id="text_38">
     <!-- $\omega$-$t$ -->
     <g transform="translate(1083.969 76.891798125)scale(0.09996 -0.09996)">
      <use transform="translate(0.0 0.40625)" xlink:href="#Cmmi10-21"/>
      <use transform="translate(62.20703125 0.40625)" xlink:href="#BitstreamVeraSans-Roman-2d"/>
      <use transform="translate(98.291015625 0.40625)" xlink:href="#Cmmi10-74"/>
     </g>
    </g>
   </g>
  </g>
  <g id="text_39">
   <!-- elleptical orbit, $m1/M=$0.1 -->
   <defs>
    <path id="BitstreamVeraSans-Roman-20"/>
    <path d="
M9.28125 0
L9.28125 3.51562
Q21.7812 3.51562 21.7812 6.6875
L21.7812 59.1875
Q16.6094 56.6875 8.6875 56.6875
L8.6875 60.2031
Q20.9531 60.2031 27.2031 66.6094
L28.6094 66.6094
Q28.9531 66.6094 29.2656 66.3281
Q29.5938 66.0625 29.5938 65.7188
L29.5938 6.6875
Q29.5938 3.51562 42.0938 3.51562
L42.0938 0
z
" id="Cmr10-31"/>
    <path d="
M5.07812 0
Q4.10938 0 4.10938 1.3125
Q4.15625 1.5625 4.29688 2.14062
Q4.4375 2.73438 4.6875 3.125
Q4.9375 3.51562 5.42188 3.51562
Q14.9375 3.51562 16.5 9.625
L29.5 61.8125
Q29.6875 62.7969 29.6875 63.1875
Q29.6875 64.2656 28.5156 64.4062
Q26.6094 64.7969 21.2969 64.7969
Q20.3125 64.7969 20.3125 66.1094
Q20.3594 66.3594 20.5 66.9688
Q20.6562 67.5781 20.9219 67.9375
Q21.1875 68.3125 21.5781 68.3125
L39.2031 68.3125
Q40.3281 68.3125 40.4844 67.1875
L48.2969 9.90625
L84.7188 67.1875
Q85.4062 68.3125 86.625 68.3125
L103.609 68.3125
Q104.594 68.3125 104.594 67
Q104.547 66.75 104.391 66.1406
Q104.25 65.5312 103.984 65.1562
Q103.719 64.7969 103.328 64.7969
Q97.2188 64.7969 94.8281 64.1094
Q93.5 63.6719 92.9219 61.375
L79.2031 6.5
Q79 5.51562 79 5.07812
Q79 4.6875 79.125 4.42188
Q79.25 4.15625 79.4688 4.07812
Q79.6875 4 80.1719 3.90625
Q82.0781 3.51562 87.4062 3.51562
Q88.375 3.51562 88.375 2.20312
Q88.0312 0.78125 87.8281 0.390625
Q87.6406 0 86.7188 0
L60.5938 0
Q59.625 0 59.625 1.3125
Q59.6719 1.5625 59.8125 2.17188
Q59.9688 2.78125 60.2344 3.14062
Q60.5 3.51562 60.8906 3.51562
Q67 3.51562 69.3906 4.20312
Q70.7031 4.64062 71.2969 6.89062
L85.6875 64.7969
L45.3125 1.125
Q44.7344 0 43.3125 0
Q42.0469 0 41.8906 1.125
L33.4062 64.0156
L19.6719 9.1875
Q19.5781 8.9375 19.5312 8.5625
Q19.4844 8.20312 19.3906 7.71875
Q19.3906 5.125 21.6562 4.3125
Q23.9219 3.51562 27.2031 3.51562
Q28.2188 3.51562 28.2188 2.20312
Q27.875 0.875 27.6562 0.4375
Q27.4375 0 26.5156 0
z
" id="Cmmi10-4d"/>
    <path d="
M7.71875 1.70312
Q7.71875 2.29688 7.8125 2.59375
L15.2812 32.4219
Q16.0156 35.2031 16.0156 37.3125
Q16.0156 41.6094 13.0938 41.6094
Q9.96875 41.6094 8.45312 37.8594
Q6.9375 34.125 5.51562 28.4219
Q5.51562 28.125 5.21875 27.9531
Q4.9375 27.7812 4.6875 27.7812
L3.51562 27.7812
Q3.17188 27.7812 2.92188 28.1406
Q2.6875 28.5156 2.6875 28.8125
Q3.76562 33.1562 4.76562 36.1719
Q5.76562 39.2031 7.89062 41.6875
Q10.0156 44.1875 13.1875 44.1875
Q16.9375 44.1875 19.8125 41.8125
Q22.7031 39.4531 22.7031 35.7969
Q25.6875 39.7031 29.6875 41.9375
Q33.6875 44.1875 38.1875 44.1875
Q42.9219 44.1875 46.3594 41.7656
Q49.8125 39.3594 49.8125 34.9062
Q52.875 39.2656 57 41.7188
Q61.1406 44.1875 66.0156 44.1875
Q71.1875 44.1875 74.3281 41.375
Q77.4844 38.5781 77.4844 33.4062
Q77.4844 29.2969 75.6562 23.4844
Q73.8281 17.6719 71.0938 10.5
Q69.6719 7.03125 69.6719 4.5
Q69.6719 1.51562 72.0156 1.51562
Q75.9219 1.51562 78.5156 5.70312
Q81.1094 9.90625 82.1719 14.7031
Q82.4688 15.2812 83.0156 15.2812
L84.1875 15.2812
Q84.5781 15.2812 84.8438 15.0156
Q85.1094 14.75 85.1094 14.4062
Q85.1094 14.3125 85.0156 14.1094
Q83.6406 8.45312 80.25 3.65625
Q76.8594 -1.125 71.7812 -1.125
Q68.2656 -1.125 65.7656 1.29688
Q63.2812 3.71875 63.2812 7.17188
Q63.2812 8.9375 64.1094 11.0781
Q66.9375 18.6094 68.8125 24.5156
Q70.7031 30.4219 70.7031 34.9062
Q70.7031 37.7031 69.5781 39.6562
Q68.4531 41.6094 65.8281 41.6094
Q60.3594 41.6094 56.3438 38.25
Q52.3438 34.9062 49.4219 29.3906
Q49.2188 28.4219 49.125 27.875
L42.6719 2.20312
Q42.3281 0.828125 41.125 -0.140625
Q39.9375 -1.125 38.4844 -1.125
Q37.3125 -1.125 36.4062 -0.34375
Q35.5 0.4375 35.5 1.70312
Q35.5 2.29688 35.5938 2.59375
L42 28.0781
Q43.0156 32.1719 43.0156 34.9062
Q43.0156 37.7031 41.8594 39.6562
Q40.7188 41.6094 37.9844 41.6094
Q34.3281 41.6094 31.25 39.9844
Q28.1719 38.375 25.875 35.7188
Q23.5781 33.0625 21.6875 29.3906
L14.8906 2.20312
Q14.5469 0.828125 13.3438 -0.140625
Q12.1562 -1.125 10.6875 -1.125
Q9.46875 -1.125 8.59375 -0.34375
Q7.71875 0.4375 7.71875 1.70312" id="Cmmi10-6d"/>
    <path d="
M41.1094 46.2969
Q39.5938 47.1719 37.8125 47.5781
Q36.0312 48 33.8906 48
Q26.2656 48 22.1875 43.0469
Q18.1094 38.0938 18.1094 28.8125
L18.1094 0
L9.07812 0
L9.07812 54.6875
L18.1094 54.6875
L18.1094 46.1875
Q20.9531 51.1719 25.4844 53.5781
Q30.0312 56 36.5312 56
Q37.4531 56 38.5781 55.875
Q39.7031 55.7656 41.0625 55.5156
z
" id="BitstreamVeraSans-Roman-72"/>
    <path d="
M30.6094 48.3906
Q23.3906 48.3906 19.1875 42.75
Q14.9844 37.1094 14.9844 27.2969
Q14.9844 17.4844 19.1562 11.8438
Q23.3438 6.20312 30.6094 6.20312
Q37.7969 6.20312 41.9844 11.8594
Q46.1875 17.5312 46.1875 27.2969
Q46.1875 37.0156 41.9844 42.7031
Q37.7969 48.3906 30.6094 48.3906
M30.6094 56
Q42.3281 56 49.0156 48.375
Q55.7188 40.7656 55.7188 27.2969
Q55.7188 13.875 49.0156 6.21875
Q42.3281 -1.42188 30.6094 -1.42188
Q18.8438 -1.42188 12.1719 6.21875
Q5.51562 13.875 5.51562 27.2969
Q5.51562 40.7656 12.1719 48.375
Q18.8438 56 30.6094 56" id="BitstreamVeraSans-Roman-6f"/>
    <path d="
M9.42188 75.9844
L18.4062 75.9844
L18.4062 0
L9.42188 0
z
" id="BitstreamVeraSans-Roman-6c"/>
    <path d="
M11.7188 12.4062
L22.0156 12.4062
L22.0156 4
L14.0156 -11.625
L7.71875 -11.625
L11.7188 4
z
" id="BitstreamVeraSans-Roman-2c"/>
    <path d="
M10.6875 12.4062
L21 12.4062
L21 0
L10.6875 0
z
" id="BitstreamVeraSans-Roman-2e"/>
    <path d="
M18.1094 8.20312
L18.1094 -20.7969
L9.07812 -20.7969
L9.07812 54.6875
L18.1094 54.6875
L18.1094 46.3906
Q20.9531 51.2656 25.2656 53.625
Q29.5938 56 35.5938 56
Q45.5625 56 51.7812 48.0938
Q58.0156 40.1875 58.0156 27.2969
Q58.0156 14.4062 51.7812 6.48438
Q45.5625 -1.42188 35.5938 -1.42188
Q29.5938 -1.42188 25.2656 0.953125
Q20.9531 3.32812 18.1094 8.20312
M48.6875 27.2969
Q48.6875 37.2031 44.6094 42.8438
Q40.5312 48.4844 33.4062 48.4844
Q26.2656 48.4844 22.1875 42.8438
Q18.1094 37.2031 18.1094 27.2969
Q18.1094 17.3906 22.1875 11.75
Q26.2656 6.10938 33.4062 6.10938
Q40.5312 6.10938 44.6094 11.75
Q48.6875 17.3906 48.6875 27.2969" id="BitstreamVeraSans-Roman-70"/>
    <path d="
M7.51562 13.2812
Q6.6875 13.2812 6.14062 13.9062
Q5.60938 14.5469 5.60938 15.2812
Q5.60938 16.1094 6.14062 16.6875
Q6.6875 17.2812 7.51562 17.2812
L70.3125 17.2812
Q71.0469 17.2812 71.5781 16.6875
Q72.125 16.1094 72.125 15.2812
Q72.125 14.5469 71.5781 13.9062
Q71.0469 13.2812 70.3125 13.2812
z

M7.51562 32.7188
Q6.6875 32.7188 6.14062 33.2969
Q5.60938 33.8906 5.60938 34.7188
Q5.60938 35.4531 6.14062 36.0781
Q6.6875 36.7188 7.51562 36.7188
L70.3125 36.7188
Q71.0469 36.7188 71.5781 36.0781
Q72.125 35.4531 72.125 34.7188
Q72.125 33.8906 71.5781 33.2969
Q71.0469 32.7188 70.3125 32.7188
z
" id="Cmr10-3d"/>
    <path d="
M34.2812 27.4844
Q23.3906 27.4844 19.1875 25
Q14.9844 22.5156 14.9844 16.5
Q14.9844 11.7188 18.1406 8.90625
Q21.2969 6.10938 26.7031 6.10938
Q34.1875 6.10938 38.7031 11.4062
Q43.2188 16.7031 43.2188 25.4844
L43.2188 27.4844
z

M52.2031 31.2031
L52.2031 0
L43.2188 0
L43.2188 8.29688
Q40.1406 3.32812 35.5469 0.953125
Q30.9531 -1.42188 24.3125 -1.42188
Q15.9219 -1.42188 10.9531 3.29688
Q6 8.01562 6 15.9219
Q6 25.1406 12.1719 29.8281
Q18.3594 34.5156 30.6094 34.5156
L43.2188 34.5156
L43.2188 35.4062
Q43.2188 41.6094 39.1406 45
Q35.0625 48.3906 27.6875 48.3906
Q23 48.3906 18.5469 47.2656
Q14.1094 46.1406 10.0156 43.8906
L10.0156 52.2031
Q14.9375 54.1094 19.5781 55.0469
Q24.2188 56 28.6094 56
Q40.4844 56 46.3438 49.8438
Q52.2031 43.7031 52.2031 31.2031" id="BitstreamVeraSans-Roman-61"/>
    <path d="
M48.7812 52.5938
L48.7812 44.1875
Q44.9688 46.2969 41.1406 47.3438
Q37.3125 48.3906 33.4062 48.3906
Q24.6562 48.3906 19.8125 42.8438
Q14.9844 37.3125 14.9844 27.2969
Q14.9844 17.2812 19.8125 11.7344
Q24.6562 6.20312 33.4062 6.20312
Q37.3125 6.20312 41.1406 7.25
Q44.9688 8.29688 48.7812 10.4062
L48.7812 2.09375
Q45.0156 0.34375 40.9844 -0.53125
Q36.9688 -1.42188 32.4219 -1.42188
Q20.0625 -1.42188 12.7812 6.34375
Q5.51562 14.1094 5.51562 27.2969
Q5.51562 40.6719 12.8594 48.3281
Q20.2188 56 33.0156 56
Q37.1562 56 41.1094 55.1406
Q45.0625 54.2969 48.7812 52.5938" id="BitstreamVeraSans-Roman-63"/>
    <path d="
M48.6875 27.2969
Q48.6875 37.2031 44.6094 42.8438
Q40.5312 48.4844 33.4062 48.4844
Q26.2656 48.4844 22.1875 42.8438
Q18.1094 37.2031 18.1094 27.2969
Q18.1094 17.3906 22.1875 11.75
Q26.2656 6.10938 33.4062 6.10938
Q40.5312 6.10938 44.6094 11.75
Q48.6875 17.3906 48.6875 27.2969
M18.1094 46.3906
Q20.9531 51.2656 25.2656 53.625
Q29.5938 56 35.5938 56
Q45.5625 56 51.7812 48.0938
Q58.0156 40.1875 58.0156 27.2969
Q58.0156 14.4062 51.7812 6.48438
Q45.5625 -1.42188 35.5938 -1.42188
Q29.5938 -1.42188 25.2656 0.953125
Q20.9531 3.32812 18.1094 8.20312
L18.1094 0
L9.07812 0
L9.07812 75.9844
L18.1094 75.9844
z
" id="BitstreamVeraSans-Roman-62"/>
   </defs>
   <g transform="translate(535.08 21.18)scale(0.12 -0.12)">
    <use transform="translate(0.0 0.015625)" xlink:href="#BitstreamVeraSans-Roman-65"/>
    <use transform="translate(61.5234375 0.015625)" xlink:href="#BitstreamVeraSans-Roman-6c"/>
    <use transform="translate(89.306640625 0.015625)" xlink:href="#BitstreamVeraSans-Roman-6c"/>
    <use transform="translate(117.08984375 0.015625)" xlink:href="#BitstreamVeraSans-Roman-65"/>
    <use transform="translate(178.61328125 0.015625)" xlink:href="#BitstreamVeraSans-Roman-70"/>
    <use transform="translate(242.08984375 0.015625)" xlink:href="#BitstreamVeraSans-Roman-74"/>
    <use transform="translate(281.298828125 0.015625)" xlink:href="#BitstreamVeraSans-Roman-69"/>
    <use transform="translate(309.08203125 0.015625)" xlink:href="#BitstreamVeraSans-Roman-63"/>
    <use transform="translate(364.0625 0.015625)" xlink:href="#BitstreamVeraSans-Roman-61"/>
    <use transform="translate(425.341796875 0.015625)" xlink:href="#BitstreamVeraSans-Roman-6c"/>
    <use transform="translate(453.125 0.015625)" xlink:href="#BitstreamVeraSans-Roman-20"/>
    <use transform="translate(484.912109375 0.015625)" xlink:href="#BitstreamVeraSans-Roman-6f"/>
    <use transform="translate(546.09375 0.015625)" xlink:href="#BitstreamVeraSans-Roman-72"/>
    <use transform="translate(587.20703125 0.015625)" xlink:href="#BitstreamVeraSans-Roman-62"/>
    <use transform="translate(650.68359375 0.015625)" xlink:href="#BitstreamVeraSans-Roman-69"/>
    <use transform="translate(678.466796875 0.015625)" xlink:href="#BitstreamVeraSans-Roman-74"/>
    <use transform="translate(717.67578125 0.015625)" xlink:href="#BitstreamVeraSans-Roman-2c"/>
    <use transform="translate(749.462890625 0.015625)" xlink:href="#BitstreamVeraSans-Roman-20"/>
    <use transform="translate(781.25 0.015625)" xlink:href="#Cmmi10-6d"/>
    <use transform="translate(869.04296875 0.015625)" xlink:href="#Cmr10-31"/>
    <use transform="translate(919.04296875 0.015625)" xlink:href="#Cmmi10-3d"/>
    <use transform="translate(969.04296875 0.015625)" xlink:href="#Cmmi10-4d"/>
    <use transform="translate(1083.62304688 0.015625)" xlink:href="#Cmr10-3d"/>
    <use transform="translate(1167.68164062 0.015625)" xlink:href="#BitstreamVeraSans-Roman-30"/>
    <use transform="translate(1231.3046875 0.015625)" xlink:href="#BitstreamVeraSans-Roman-2e"/>
    <use transform="translate(1263.09179688 0.015625)" xlink:href="#BitstreamVeraSans-Roman-31"/>
   </g>
  </g>
 </g>
 <defs>
  <clipPath id="paa341766a5">
   <rect height="482.4" width="433.084090909" x="153.675" y="60.3"/>
  </clipPath>
  <clipPath id="p9b96c9b755">
   <rect height="482.4" width="433.084090909" x="673.375909091" y="60.3"/>
  </clipPath>
 </defs>
</svg>
