<?xml version="1.0" encoding="utf-8" standalone="no"?>
<!DOCTYPE svg PUBLIC "-//W3C//DTD SVG 1.1//EN"
  "http://www.w3.org/Graphics/SVG/1.1/DTD/svg11.dtd">
<!-- Created with matplotlib (http://matplotlib.org/) -->
<svg height="603pt" version="1.1" viewBox="0 0 1229 603" width="1229pt" xmlns="http://www.w3.org/2000/svg" xmlns:xlink="http://www.w3.org/1999/xlink">
 <defs>
  <style type="text/css">
*{stroke-linecap:butt;stroke-linejoin:round;}
  </style>
 </defs>
 <g id="figure_1">
  <g id="patch_1">
   <path d="
M0 603
L1229.4 603
L1229.4 0
L0 0
z
" style="fill:#ffffff;"/>
  </g>
  <g id="axes_1">
   <g id="patch_2">
    <path d="
M153.675 542.7
L586.759 542.7
L586.759 60.3
L153.675 60.3
z
" style="fill:#ffffff;"/>
   </g>
   <g id="line2d_1">
    <path clip-path="url(#paa341766a5)" d="
M153.675 301.5
L154.69 300.883
L155.271 300.246
L155.828 299.283
L156.385 297.852
L156.979 295.67
L157.61 292.441
L158.278 287.785
L158.983 281.204
L159.713 272.219
L160.481 259.879
L161.26 243.612
L162.064 221.963
L162.856 194.481
L163.574 161.799
L164.23 121.279
L164.354 112.287
L164.366 490.243
L164.465 482.768
L165.999 373.612
L166.668 344.153
L167.323 324.511
L167.954 311.76
L168.548 303.842
L169.08 299.414
L169.526 297.333
L169.872 296.612
L170.107 296.527
L170.318 296.706
L170.602 297.303
L170.998 298.741
L171.543 301.683
L172.335 307.355
L174.562 323.961
L175.205 326.944
L175.688 328.275
L176.035 328.699
L176.282 328.713
L176.529 328.478
L176.839 327.819
L177.222 326.417
L177.693 323.768
L178.237 319.323
L178.843 312.444
L179.512 302.15
L180.204 287.852
L180.922 268.225
L181.677 241.177
L182.593 199.564
L184.35 112.459
L184.362 490.635
L184.461 484.886
L185.216 433.386
L186.317 360.707
L187.047 327.173
L187.79 302.817
L188.582 283.895
L189.423 268.957
L190.289 257.38
L191.143 248.809
L191.923 243.071
L192.591 239.654
L193.123 237.942
L193.531 237.266
L193.816 237.142
L194.063 237.277
L194.348 237.724
L194.707 238.756
L195.152 240.805
L195.684 244.425
L196.315 250.399
L197.12 260.34
L198.963 283.927
L199.409 286.83
L199.693 287.555
L199.842 287.527
L200.003 287.155
L200.238 285.917
L200.547 282.902
L200.918 276.895
L201.351 265.881
L201.809 248.029
L202.267 220.859
L202.725 179.393
L203.232 112.723
L203.245 489.78
L203.344 475.144
L204.123 375.771
L204.828 316.643
L206.338 196.719
L207.266 112.696
L207.278 490.492
L207.377 481.912
L211.659 112.359
L211.671 490.139
L211.77 481.38
L216.039 112.677
L216.051 490.465
L216.15 481.715
L220.358 112.467
L220.37 490.666
L220.469 485.734
L220.791 475.981
L220.989 474.569
L221.051 474.681
L221.211 475.654
L221.471 476.98
L221.496 476.966
L221.583 476.625
L221.731 474.851
L221.966 468.774
L222.313 453.146
L222.845 417.732
L225.122 253.659
L226.742 146.671
L227.225 112.535
L227.237 490.543
L227.336 483.624
L230.962 238.888
L232.88 112.831
L232.892 490.844
L232.991 483.901
L235.132 340.585
L236.728 244.86
L237.248 194.493
L237.842 112.252
L237.854 489.288
L237.953 474.733
L238.572 400.965
L239.054 367.605
L239.5 350.363
L239.883 342.82
L240.18 340.474
L240.341 340.224
L240.354 340.231
L240.465 340.445
L240.663 341.433
L240.997 344.467
L241.665 353.114
L242.556 363.748
L243.076 367.569
L243.472 369.067
L243.732 369.394
L243.905 369.332
L244.115 368.965
L244.412 367.92
L244.808 365.604
L245.316 361.163
L245.922 353.752
L246.627 342.252
L247.432 325.253
L248.347 300.812
L249.585 261.046
L251.02 216.495
L251.663 202.845
L252.134 196.948
L252.604 193.761
L252.901 191.233
L253.148 186.864
L253.42 177.472
L253.742 157.405
L254.151 115.767
L254.175 112.72
L254.188 490.055
L254.287 477.347
L255.425 341.693
L256.328 271.057
L257.392 182.995
L258.16 113.106
L258.172 490.885
L258.271 482.171
L262.565 112.197
L262.577 489.967
L262.676 481.102
L266.289 167.139
L267.007 112.699
L267.019 490.634
L267.118 483.033
L267.824 419.926
L268.479 337.928
L269.16 261.059
L269.556 238.583
L269.902 230.049
L270.373 224.568
L270.769 218.7
L271.214 208.289
L271.845 187.624
L273.825 112.349
L273.837 490.813
L273.936 487.569
L274.84 461.96
L275.631 445.361
L276.337 434.887
L276.918 429.21
L277.364 426.71
L277.673 425.963
L277.859 425.921
L278.032 426.163
L278.279 426.992
L278.614 429.026
L279.047 433.183
L279.678 441.7
L280.631 454.34
L280.94 456.057
L281.039 456.149
L281.076 456.117
L281.2 455.728
L281.385 454.247
L281.645 450.077
L281.967 440.8
L282.338 422.789
L282.734 391.617
L283.18 336.608
L284.33 182.38
L284.838 149.007
L285.357 128.439
L285.84 117.237
L286.248 112.207
L286.261 112.111
L286.273 490.893
L286.372 490.253
L286.619 489.476
L286.743 489.503
L286.892 489.881
L287.09 490.935
L287.102 112.144
L287.201 112.908
L287.585 117.08
L288.179 126.341
L289.75 151.872
L290.294 156.972
L290.703 159.025
L290.987 159.559
L291.161 159.529
L291.346 159.204
L291.618 158.187
L291.977 155.875
L292.435 151.311
L292.967 143.611
L293.549 131.797
L294.143 114.968
L294.217 112.431
L294.229 490.873
L294.328 487.286
L294.885 462.431
L295.43 427.58
L296.036 372.774
L297.063 278.928
L297.694 246.065
L299.191 169.159
L300.033 133.91
L300.738 113.099
L300.775 112.212
L300.787 490.796
L300.886 488.542
L301.493 477.586
L302.012 471.76
L302.433 469.197
L302.743 468.429
L302.928 468.386
L303.101 468.608
L303.361 469.374
L303.745 471.315
L304.376 475.873
L305.304 482.322
L305.663 483.516
L305.861 483.633
L306.009 483.418
L306.22 482.61
L306.504 480.451
L306.851 475.891
L307.259 467.244
L307.704 452.765
L308.187 429.38
L308.719 391.862
L309.61 308.717
L310.365 249.878
L311.305 194.804
L312.097 159.98
L312.79 138.579
L313.421 125.406
L313.99 117.702
L314.51 113.407
L314.758 112.095
L314.77 490.917
L314.869 490.51
L315.29 489.351
L315.686 488.863
L316.762 487.926
L317.096 487.002
L317.455 485.29
L317.863 482.14
L318.321 476.669
L318.816 467.878
L319.361 453.932
L319.942 432.984
L320.598 400.665
L321.39 349.693
L322.157 286.539
L323.432 176.994
L323.988 149.473
L324.496 134.16
L324.954 126.291
L325.337 123.015
L325.622 122.111
L325.795 122.071
L325.968 122.347
L326.253 123.334
L326.797 126.237
L327.503 129.668
L327.824 130.356
L328.01 130.373
L328.183 130.098
L328.418 129.235
L328.728 127.154
L329.124 122.768
L329.594 114.778
L329.717 112.133
L329.73 490.732
L329.829 488.425
L330.398 472.037
L331.054 446.185
L331.945 400.929
L333.504 310.622
L334.036 253.63
L334.865 168.306
L335.409 134.37
L335.929 114.445
L336.003 112.352
L336.016 490.896
L336.115 488.394
L336.56 480.36
L336.919 477.282
L337.154 476.72
L337.266 476.826
L337.439 477.436
L337.711 479.402
L338.119 484.277
L338.54 490.916
L338.552 112.249
L338.651 113.932
L339.604 128.388
L340.025 131.84
L340.285 132.611
L340.408 132.574
L340.557 132.169
L340.78 130.79
L341.089 127.249
L341.473 119.978
L341.757 112.246
L341.77 490.736
L341.869 487.482
L342.339 467.575
L342.834 436.544
L343.391 386.279
L344.479 284.601
L347.066 123.102
L347.4 112.197
L347.412 490.724
L347.511 488.065
L348.018 477.927
L348.427 473.576
L348.724 472.291
L348.885 472.19
L348.897 472.199
L349.045 472.471
L349.281 473.497
L349.652 476.322
L351.124 488.871
L351.273 488.982
L351.285 488.974
L351.409 488.727
L351.594 487.763
L351.854 485.072
L352.188 478.952
L352.584 467.046
L353.017 446.754
L353.5 412.684
L354.143 348.607
L354.948 273.692
L356.408 171.233
L357.064 139.302
L357.633 121.374
L358.115 112.152
L358.128 490.854
L358.227 489.565
L358.623 486.094
L358.932 484.985
L359.13 484.86
L359.303 485.043
L359.588 485.761
L360.454 488.151
L360.615 488.12
L360.776 487.798
L360.999 486.772
L361.283 484.278
L361.63 479.068
L362.038 469.19
L362.496 452.209
L363.003 424.543
L363.634 376.719
L365.181 236.113
L365.96 169.704
L366.505 141.09
L366.987 126.25
L367.396 119.58
L367.718 117.255
L367.94 116.823
L368.064 116.914
L368.262 117.445
L368.633 119.247
L369.314 122.451
L369.536 122.724
L369.66 122.601
L369.833 122.043
L370.081 120.361
L370.403 116.395
L370.638 112.063
L370.65 490.675
L370.749 488.427
L371.195 475.128
L371.714 452.285
L372.333 414.323
L373.867 299.879
L374.461 230.928
L375.129 162.82
L375.624 133.036
L376.07 118.015
L376.429 112.065
L376.441 490.819
L376.54 490.025
L376.75 489.343
L376.837 489.424
L376.986 489.997
L377.109 490.848
L377.122 112.074
L377.221 112.986
L377.666 118.614
L378.458 128.399
L378.755 129.86
L378.866 129.925
L378.891 129.9
L379.015 129.555
L379.213 128.19
L379.485 124.554
L379.832 116.677
L379.98 112.075
L379.992 490.533
L380.091 486.976
L380.549 465.383
L381.069 429.267
L383.073 256.09
L384.15 144.251
L384.657 116.327
L384.769 112.064
L384.781 490.502
L384.88 487.253
L385.288 478.162
L385.585 475.427
L385.734 475.148
L385.759 475.167
L385.87 475.475
L386.068 476.852
L386.39 480.977
L386.934 490.793
L386.946 112.146
L387.045 113.937
L387.553 120.962
L387.813 122.298
L387.887 122.314
L387.912 122.281
L388.035 121.809
L388.233 119.94
L388.506 114.913
L388.605 112.314
L388.617 490.835
L388.716 487.734
L389.1 470.947
L389.52 441.786
L390.003 391.092
L391.005 280.781
L391.945 204.151
L392.75 140.326
L393.294 113.756
L393.331 112.423
L393.344 490.867
L393.443 487.634
L393.876 477.834
L394.198 474.641
L394.396 474.166
L394.495 474.302
L394.668 475.061
L394.965 477.563
L395.905 486.152
L396.004 486.243
L396.041 486.205
L396.165 485.76
L396.351 484.075
L396.61 479.33
L396.932 468.825
L397.303 448.793
L397.724 413.199
L398.368 335.563
L398.999 270.911
L400.669 137.813
L401.164 118.1
L401.399 112.236
L401.411 490.859
L401.51 489.021
L401.857 484.969
L402.117 483.95
L402.241 483.929
L402.253 483.94
L402.414 484.263
L402.81 485.766
L403.119 486.528
L403.243 486.466
L403.391 485.98
L403.602 484.326
L403.874 480.078
L404.208 470.803
L404.592 453.275
L405.037 421.655
L405.656 358.977
L407.561 161.897
L408.044 134.218
L408.465 121.326
L408.799 116.7
L409.046 115.612
L409.157 115.594
L409.182 115.621
L409.355 116.05
L410.024 118.121
L410.048 118.107
L410.172 117.848
L410.358 116.76
L410.605 113.715
L410.692 112.153
L410.704 490.784
L410.803 488.606
L411.162 477.263
L411.583 456.094
L412.09 418.14
L413.439 290.601
L414.849 135.749
L415.233 121.715
L415.53 117.303
L415.703 116.736
L415.716 116.742
L415.815 116.987
L416 118.221
L416.495 123.64
L416.842 126.134
L416.941 126.276
L416.99 126.227
L417.114 125.718
L417.299 123.82
L417.559 118.585
L417.757 112.351
L417.77 490.768
L417.869 486.793
L418.265 465.075
L418.747 425.224
L420.455 249.359
L421.21 149.923
L421.643 121.209
L421.903 112.184
L421.915 490.759
L422.014 488.74
L422.261 486.468
L422.311 486.442
L422.348 486.506
L422.472 487.203
L422.707 490.201
L422.744 490.825
L422.756 112.164
L422.855 113.984
L423.548 125.294
L423.709 125.896
L423.734 125.882
L423.82 125.588
L423.981 123.974
L424.216 118.878
L424.402 112.317
L424.414 490.669
L424.513 486.075
L424.885 461.735
L425.318 417.144
L426.444 291.766
L426.827 248.668
L427.792 131.726
L428.114 112.34
L428.127 490.656
L428.226 486.627
L428.56 478.479
L428.77 477.16
L428.832 477.259
L428.956 478.045
L429.191 481.301
L429.661 490.713
L429.673 112.064
L429.772 113.732
L430.057 116.401
L430.106 116.448
L430.144 116.388
L430.255 115.689
L430.44 112.622
L430.453 112.326
L430.465 490.895
L430.564 487.992
L430.849 474.844
L431.195 447.303
L431.604 395.164
L432.445 282.962
L433.027 223.827
L433.88 131.355
L434.19 112.629
L434.202 490.926
L434.301 486.723
L434.648 477.677
L434.883 475.907
L434.932 475.913
L434.957 475.959
L435.081 476.585
L435.328 479.305
L435.885 485.446
L435.947 485.518
L435.984 485.46
L436.095 484.782
L436.269 481.997
L436.504 474.18
L436.801 456.143
L437.159 419.162
L437.766 326.332
L438.273 267.799
L438.966 187.705
L439.535 133.452
L439.944 112.253
L439.956 490.698
L440.055 487.653
L440.364 482.29
L440.562 481.527
L440.649 481.663
L440.834 482.548
L441.23 484.35
L441.305 484.244
L441.428 483.493
L441.614 480.659
L441.862 472.803
L442.171 454.648
L442.542 417.742
L443.99 224.764
L444.658 146.712
L445.066 122.03
L445.4 113.041
L445.475 112.095
L445.487 490.843
L445.586 490.105
L445.735 489.763
L445.759 489.773
L445.883 490.008
L446.192 490.659
L446.217 490.638
L446.316 490.337
L446.477 488.909
L446.687 484.697
L446.96 474.136
L447.294 451.372
L447.714 405.412
L449.286 186.669
L449.731 139.538
L450.09 121.854
L450.362 117.233
L450.486 116.857
L450.523 116.892
L450.647 117.351
L451.055 119.243
L451.092 119.199
L451.191 118.736
L451.352 116.682
L451.525 112.275
L451.538 490.738
L451.637 486.928
L451.946 468.648
L452.33 431.161
L453.629 263.046
L454.409 142.178
L454.755 121.636
L455.003 116.967
L455.077 116.769
L455.126 116.876
L455.262 117.934
L455.794 123.409
L455.844 123.314
L455.955 122.385
L456.129 118.664
L456.289 112.368
L456.302 490.636
L456.401 485.107
L456.722 458.292
L457.168 399.249
L457.836 314.906
L458.158 270.612
L459.049 128.568
L459.358 113.474
L459.42 112.229
L459.432 490.917
L459.531 490.096
L459.556 490.067
L459.581 490.101
L459.581 490.101
L459.667 490.678
L459.68 490.813
L459.692 112.083
L459.791 113.608
L460.348 122.412
L460.373 122.379
L460.459 121.758
L460.608 118.66
L460.756 112.672
L460.769 490.908
L460.868 484.958
L461.165 457.424
L461.561 397.181
L462.167 308.793
L462.526 262.342
L463.441 118.641
L463.54 112.577
L463.553 490.821
L463.652 486.7
L463.875 482.939
L463.899 482.932
L463.912 482.955
L463.912 482.955
L463.998 483.581
L464.196 487.271
L464.345 490.896
L464.357 112.313
L464.456 114.432
L464.654 116.515
L464.679 116.49
L464.753 115.951
L464.889 112.945
L464.914 112.092
L464.926 490.504
L465.025 485.858
L465.285 464.859
L465.607 418.144
L466.485 277.433
L466.82 223.606
L467.438 125.363
L467.599 112.282
L467.611 490.362
L467.71 485.011
L467.958 478.749
L468.02 478.55
L468.069 478.715
L468.205 480.355
L468.676 487.859
L468.725 487.705
L468.824 486.339
L468.997 479.923
L469.232 461.207
L469.529 417.298
L470.532 247.709
L471.46 112.284
L471.472 490.36
L471.571 484.989
L471.819 478.698
L471.893 478.447
L471.942 478.597
L472.091 480.091
L472.388 483.098
L472.413 483.069
L472.487 482.52
L472.623 479.315
L472.821 468.183
L473.081 438.771
L473.44 368.215
L473.947 278.267
L474.368 210.229
L474.912 127.022
L475.11 112.141
L475.122 490.35
L475.221 486.024
L475.444 481.862
L475.506 481.733
L475.555 481.836
L475.828 483.082
L475.902 482.794
L476.026 480.825
L476.199 473.706
L476.434 453.188
L476.743 402.996
L477.993 169.837
L478.377 122.648
L478.562 112.474
L478.575 490.913
L478.674 488.329
L478.872 486.78
L478.971 486.89
L479.045 486.933
L479.082 486.862
L479.181 486.12
L479.329 482.666
L479.527 471.659
L479.787 442.539
L480.171 369.016
L481.26 159.964
L481.594 122.775
L481.841 113.873
L481.99 113.029
L482.015 113.039
L482.138 113.141
L482.175 113.064
L482.274 112.249
L482.287 112.065
L482.299 490.735
L482.398 488.203
L482.584 478.128
L482.831 451.009
L483.202 380.931
L484.465 135.399
L484.737 118.201
L484.898 116.383
L484.91 116.39
L484.997 116.719
L485.12 117.202
L485.17 117.09
L485.269 115.851
L485.38 112.229
L485.393 490.529
L485.492 484.503
L485.727 458.801
L486.073 391.886
L486.655 287.051
L487.57 118.172
L487.682 116.816
L487.731 116.962
L487.979 119.193
L488.065 118.598
L488.189 114.807
L488.239 112.103
L488.251 490.186
L488.35 482.046
L488.597 446.413
L489.612 232.114
L490.045 131.571
L490.293 115.148
L490.367 114.502
L490.416 114.784
L490.701 118.701
L490.775 117.944
L490.899 113.028
L490.911 112.245
L490.924 490.282
L491.023 481.415
L491.258 443.516
L492.384 176.877
L492.706 119.183
L492.817 112.331
L492.829 490.78
L492.928 489.365
L492.978 489.736
L493.04 490.853
L493.052 112.255
L493.151 114.577
L493.262 115.882
L493.3 115.658
L493.399 112.784
L493.411 112.161
L493.423 490.349
L493.522 482.403
L493.733 449.23
L494.71 213.144
L495.106 119.438
L495.18 112.322
L495.193 490.301
L495.292 485.793
L495.354 485.063
L495.403 485.368
L495.589 489.508
L495.675 490.413
L495.712 490.138
L495.811 486.721
L495.972 470.683
L496.195 422.392
L497.296 134.655
L497.445 112.607
L497.457 490.272
L497.556 483.654
L497.655 481.712
L497.705 482.035
L497.927 485.84
L498.002 484.864
L498.113 478.482
L498.286 453.159
L498.558 371.85
L498.917 282.442
L499.152 224.729
L499.598 112.282
L499.61 489.815
L499.709 482.395
L499.821 479.957
L499.858 480.124
L500.031 482.318
L500.093 481.757
L500.192 477.128
L500.353 455.929
L500.588 388.294
L501.008 273.723
L501.256 203.723
L501.627 112.244
L501.64 489.745
L501.738 482.263
L501.862 479.848
L501.899 480.017
L501.998 480.657
L502.048 480.312
L502.134 477.203
L502.271 462.632
L502.469 413.634
L503.409 133.078
L503.533 112.919
L503.545 490.437
L503.644 483.266
L503.78 481.031
L503.805 481.037
L503.854 480.944
L503.929 479.665
L504.04 472.452
L504.201 444.775
L504.485 345.803
L505.129 151.872
L505.339 112.287
L505.352 490.021
L505.451 484.487
L505.772 474.002
L505.933 445.059
L506.255 330.377
L507.034 112.541
L507.047 490.495
L507.146 486.469
L507.344 481.555
L507.48 465.099
L507.678 407.647
L508.507 127.228
L508.643 112.304
L508.655 490.61
L508.754 488.411
L508.853 486
L508.965 475.989
L509.138 434.39
L510.165 112.544
L510.19 112.108
L510.202 490.82
L510.301 488.752
L510.413 478.708
L510.573 438.429
L511.576 113.403
L511.662 112.065
L511.675 490.488
L511.774 481.591
L511.922 443.703
L512.912 113.606
L512.974 112.309
L512.986 490.587
L513.085 478.95
L513.246 426.43
L514.026 115.893
L514.174 112.85
L514.187 112.522
L514.199 490.923
L514.298 479.474
L514.446 428.196
L515.189 114.2
L515.238 112.104
L515.3 490.896
L515.35 489.896
L515.436 479.697
L515.585 424.491
L516.265 113.615
L516.278 112.384
L516.29 490.335
L516.389 489.08
L516.426 488.377
L516.5 480.272
L516.637 429.901
L517.28 112.787
L517.292 490.031
L517.391 486.821
L517.404 486.858
L517.404 486.858
L517.404 486.858
L517.441 486.163
L517.515 476.958
L517.651 418.491
L518.233 112.09
L518.245 488.895
L518.344 484.438
L518.357 484.46
L518.357 484.46
L518.357 484.46
L518.394 483.594
L518.468 472.564
L518.604 403.911
L519.111 115.462
L519.124 112.227
L519.136 488.454
L519.235 482.14
L519.26 481.982
L519.309 478.636
L519.408 447.337
L519.953 114.473
L519.965 489.791
L520.064 480.141
L520.101 479.528
L520.163 471.52
L520.274 415.671
L520.732 116.285
L520.745 490.841
L520.844 478.538
L520.893 476.614
L520.967 458.429
L521.128 335.751
L521.475 112.982
L521.487 487.731
L521.586 476.994
L521.636 472.454
L521.722 435.787
L522.155 114.845
L522.168 488.892
L522.267 476.019
L522.329 466.381
L522.44 390.028
L522.799 113.202
L522.811 487.278
L522.91 474.67
L522.972 458.844
L523.12 326.224
L523.393 114.407
L523.405 487.971
L523.504 473.708
L523.578 444.078
L523.95 114.038
L523.962 487.469
L524.061 471.915
L524.135 430.662
L524.469 113.104
L524.482 486.605
L524.581 468.812
L524.667 397.511
L524.89 171.432
L524.89 171.432" style="fill:none;stroke:#008000;stroke-linecap:square;stroke-width:2;"/>
   </g>
   <g id="patch_3">
    <path d="
M153.675 60.3
L586.759 60.3" style="fill:none;stroke:#000000;stroke-linecap:square;stroke-linejoin:miter;"/>
   </g>
   <g id="patch_4">
    <path d="
M586.759 542.7
L586.759 60.3" style="fill:none;stroke:#000000;stroke-linecap:square;stroke-linejoin:miter;"/>
   </g>
   <g id="patch_5">
    <path d="
M153.675 542.7
L586.759 542.7" style="fill:none;stroke:#000000;stroke-linecap:square;stroke-linejoin:miter;"/>
   </g>
   <g id="patch_6">
    <path d="
M153.675 542.7
L153.675 60.3" style="fill:none;stroke:#000000;stroke-linecap:square;stroke-linejoin:miter;"/>
   </g>
   <g id="matplotlib.axis_1">
    <g id="xtick_1">
     <g id="line2d_2">
      <defs>
       <path d="
M0 0
L0 -4" id="m93b0483c22" style="stroke:#000000;stroke-width:0.5;"/>
      </defs>
      <g>
       <use style="stroke:#000000;stroke-width:0.5;" x="153.675" xlink:href="#m93b0483c22" y="542.7"/>
      </g>
     </g>
     <g id="line2d_3">
      <defs>
       <path d="
M0 0
L0 4" id="m741efc42ff" style="stroke:#000000;stroke-width:0.5;"/>
      </defs>
      <g>
       <use style="stroke:#000000;stroke-width:0.5;" x="153.675" xlink:href="#m741efc42ff" y="60.3"/>
      </g>
     </g>
     <g id="text_1">
      <!-- 0 -->
      <defs>
       <path d="
M31.7812 66.4062
Q24.1719 66.4062 20.3281 58.9062
Q16.5 51.4219 16.5 36.375
Q16.5 21.3906 20.3281 13.8906
Q24.1719 6.39062 31.7812 6.39062
Q39.4531 6.39062 43.2812 13.8906
Q47.125 21.3906 47.125 36.375
Q47.125 51.4219 43.2812 58.9062
Q39.4531 66.4062 31.7812 66.4062
M31.7812 74.2188
Q44.0469 74.2188 50.5156 64.5156
Q56.9844 54.8281 56.9844 36.375
Q56.9844 17.9688 50.5156 8.26562
Q44.0469 -1.42188 31.7812 -1.42188
Q19.5312 -1.42188 13.0625 8.26562
Q6.59375 17.9688 6.59375 36.375
Q6.59375 54.8281 13.0625 64.5156
Q19.5312 74.2188 31.7812 74.2188" id="BitstreamVeraSans-Roman-30"/>
      </defs>
      <g transform="translate(150.6515625 555.818125)scale(0.12 -0.12)">
       <use xlink:href="#BitstreamVeraSans-Roman-30"/>
      </g>
     </g>
    </g>
    <g id="xtick_2">
     <g id="line2d_4">
      <g>
       <use style="stroke:#000000;stroke-width:0.5;" x="215.544155844" xlink:href="#m93b0483c22" y="542.7"/>
      </g>
     </g>
     <g id="line2d_5">
      <g>
       <use style="stroke:#000000;stroke-width:0.5;" x="215.544155844" xlink:href="#m741efc42ff" y="60.3"/>
      </g>
     </g>
     <g id="text_2">
      <!-- 5 -->
      <defs>
       <path d="
M10.7969 72.9062
L49.5156 72.9062
L49.5156 64.5938
L19.8281 64.5938
L19.8281 46.7344
Q21.9688 47.4688 24.1094 47.8281
Q26.2656 48.1875 28.4219 48.1875
Q40.625 48.1875 47.75 41.5
Q54.8906 34.8125 54.8906 23.3906
Q54.8906 11.625 47.5625 5.09375
Q40.2344 -1.42188 26.9062 -1.42188
Q22.3125 -1.42188 17.5469 -0.640625
Q12.7969 0.140625 7.71875 1.70312
L7.71875 11.625
Q12.1094 9.23438 16.7969 8.0625
Q21.4844 6.89062 26.7031 6.89062
Q35.1562 6.89062 40.0781 11.3281
Q45.0156 15.7656 45.0156 23.3906
Q45.0156 31 40.0781 35.4375
Q35.1562 39.8906 26.7031 39.8906
Q22.75 39.8906 18.8125 39.0156
Q14.8906 38.1406 10.7969 36.2812
z
" id="BitstreamVeraSans-Roman-35"/>
      </defs>
      <g transform="translate(212.713843344 555.818125)scale(0.12 -0.12)">
       <use xlink:href="#BitstreamVeraSans-Roman-35"/>
      </g>
     </g>
    </g>
    <g id="xtick_3">
     <g id="line2d_6">
      <g>
       <use style="stroke:#000000;stroke-width:0.5;" x="277.413311688" xlink:href="#m93b0483c22" y="542.7"/>
      </g>
     </g>
     <g id="line2d_7">
      <g>
       <use style="stroke:#000000;stroke-width:0.5;" x="277.413311688" xlink:href="#m741efc42ff" y="60.3"/>
      </g>
     </g>
     <g id="text_3">
      <!-- 10 -->
      <defs>
       <path d="
M12.4062 8.29688
L28.5156 8.29688
L28.5156 63.9219
L10.9844 60.4062
L10.9844 69.3906
L28.4219 72.9062
L38.2812 72.9062
L38.2812 8.29688
L54.3906 8.29688
L54.3906 0
L12.4062 0
z
" id="BitstreamVeraSans-Roman-31"/>
      </defs>
      <g transform="translate(270.835811688 555.818125)scale(0.12 -0.12)">
       <use xlink:href="#BitstreamVeraSans-Roman-31"/>
       <use x="63.623046875" xlink:href="#BitstreamVeraSans-Roman-30"/>
      </g>
     </g>
    </g>
    <g id="xtick_4">
     <g id="line2d_8">
      <g>
       <use style="stroke:#000000;stroke-width:0.5;" x="339.282467532" xlink:href="#m93b0483c22" y="542.7"/>
      </g>
     </g>
     <g id="line2d_9">
      <g>
       <use style="stroke:#000000;stroke-width:0.5;" x="339.282467532" xlink:href="#m741efc42ff" y="60.3"/>
      </g>
     </g>
     <g id="text_4">
      <!-- 15 -->
      <g transform="translate(332.830592532 555.818125)scale(0.12 -0.12)">
       <use xlink:href="#BitstreamVeraSans-Roman-31"/>
       <use x="63.623046875" xlink:href="#BitstreamVeraSans-Roman-35"/>
      </g>
     </g>
    </g>
    <g id="xtick_5">
     <g id="line2d_10">
      <g>
       <use style="stroke:#000000;stroke-width:0.5;" x="401.151623377" xlink:href="#m93b0483c22" y="542.7"/>
      </g>
     </g>
     <g id="line2d_11">
      <g>
       <use style="stroke:#000000;stroke-width:0.5;" x="401.151623377" xlink:href="#m741efc42ff" y="60.3"/>
      </g>
     </g>
     <g id="text_5">
      <!-- 20 -->
      <defs>
       <path d="
M19.1875 8.29688
L53.6094 8.29688
L53.6094 0
L7.32812 0
L7.32812 8.29688
Q12.9375 14.1094 22.625 23.8906
Q32.3281 33.6875 34.8125 36.5312
Q39.5469 41.8438 41.4219 45.5312
Q43.3125 49.2188 43.3125 52.7812
Q43.3125 58.5938 39.2344 62.25
Q35.1562 65.9219 28.6094 65.9219
Q23.9688 65.9219 18.8125 64.3125
Q13.6719 62.7031 7.8125 59.4219
L7.8125 69.3906
Q13.7656 71.7812 18.9375 73
Q24.125 74.2188 28.4219 74.2188
Q39.75 74.2188 46.4844 68.5469
Q53.2188 62.8906 53.2188 53.4219
Q53.2188 48.9219 51.5312 44.8906
Q49.8594 40.875 45.4062 35.4062
Q44.1875 33.9844 37.6406 27.2188
Q31.1094 20.4531 19.1875 8.29688" id="BitstreamVeraSans-Roman-32"/>
      </defs>
      <g transform="translate(394.354748377 555.818125)scale(0.12 -0.12)">
       <use xlink:href="#BitstreamVeraSans-Roman-32"/>
       <use x="63.623046875" xlink:href="#BitstreamVeraSans-Roman-30"/>
      </g>
     </g>
    </g>
    <g id="xtick_6">
     <g id="line2d_12">
      <g>
       <use style="stroke:#000000;stroke-width:0.5;" x="463.020779221" xlink:href="#m93b0483c22" y="542.7"/>
      </g>
     </g>
     <g id="line2d_13">
      <g>
       <use style="stroke:#000000;stroke-width:0.5;" x="463.020779221" xlink:href="#m741efc42ff" y="60.3"/>
      </g>
     </g>
     <g id="text_6">
      <!-- 25 -->
      <g transform="translate(456.349529221 555.818125)scale(0.12 -0.12)">
       <use xlink:href="#BitstreamVeraSans-Roman-32"/>
       <use x="63.623046875" xlink:href="#BitstreamVeraSans-Roman-35"/>
      </g>
     </g>
    </g>
    <g id="xtick_7">
     <g id="line2d_14">
      <g>
       <use style="stroke:#000000;stroke-width:0.5;" x="524.889935065" xlink:href="#m93b0483c22" y="542.7"/>
      </g>
     </g>
     <g id="line2d_15">
      <g>
       <use style="stroke:#000000;stroke-width:0.5;" x="524.889935065" xlink:href="#m741efc42ff" y="60.3"/>
      </g>
     </g>
     <g id="text_7">
      <!-- 30 -->
      <defs>
       <path d="
M40.5781 39.3125
Q47.6562 37.7969 51.625 33
Q55.6094 28.2188 55.6094 21.1875
Q55.6094 10.4062 48.1875 4.48438
Q40.7656 -1.42188 27.0938 -1.42188
Q22.5156 -1.42188 17.6562 -0.515625
Q12.7969 0.390625 7.625 2.20312
L7.625 11.7188
Q11.7188 9.32812 16.5938 8.10938
Q21.4844 6.89062 26.8125 6.89062
Q36.0781 6.89062 40.9375 10.5469
Q45.7969 14.2031 45.7969 21.1875
Q45.7969 27.6406 41.2812 31.2656
Q36.7656 34.9062 28.7188 34.9062
L20.2188 34.9062
L20.2188 43.0156
L29.1094 43.0156
Q36.375 43.0156 40.2344 45.9219
Q44.0938 48.8281 44.0938 54.2969
Q44.0938 59.9062 40.1094 62.9062
Q36.1406 65.9219 28.7188 65.9219
Q24.6562 65.9219 20.0156 65.0312
Q15.375 64.1562 9.8125 62.3125
L9.8125 71.0938
Q15.4375 72.6562 20.3438 73.4375
Q25.25 74.2188 29.5938 74.2188
Q40.8281 74.2188 47.3594 69.1094
Q53.9062 64.0156 53.9062 55.3281
Q53.9062 49.2656 50.4375 45.0938
Q46.9688 40.9219 40.5781 39.3125" id="BitstreamVeraSans-Roman-33"/>
      </defs>
      <g transform="translate(518.110872565 555.818125)scale(0.12 -0.12)">
       <use xlink:href="#BitstreamVeraSans-Roman-33"/>
       <use x="63.623046875" xlink:href="#BitstreamVeraSans-Roman-30"/>
      </g>
     </g>
    </g>
    <g id="xtick_8">
     <g id="line2d_16">
      <g>
       <use style="stroke:#000000;stroke-width:0.5;" x="586.759090909" xlink:href="#m93b0483c22" y="542.7"/>
      </g>
     </g>
     <g id="line2d_17">
      <g>
       <use style="stroke:#000000;stroke-width:0.5;" x="586.759090909" xlink:href="#m741efc42ff" y="60.3"/>
      </g>
     </g>
     <g id="text_8">
      <!-- 35 -->
      <g transform="translate(580.105653409 555.818125)scale(0.12 -0.12)">
       <use xlink:href="#BitstreamVeraSans-Roman-33"/>
       <use x="63.623046875" xlink:href="#BitstreamVeraSans-Roman-35"/>
      </g>
     </g>
    </g>
    <g id="text_9">
     <!-- time($s$) -->
     <defs>
      <path d="
M8.01562 75.875
L15.8281 75.875
Q23.1406 64.3594 26.7812 53.3125
Q30.4219 42.2812 30.4219 31.3906
Q30.4219 20.4531 26.7812 9.375
Q23.1406 -1.70312 15.8281 -13.1875
L8.01562 -13.1875
Q14.5 -2 17.7031 9.0625
Q20.9062 20.125 20.9062 31.3906
Q20.9062 42.6719 17.7031 53.6562
Q14.5 64.6562 8.01562 75.875" id="BitstreamVeraSans-Roman-29"/>
      <path d="
M52 44.1875
Q55.375 50.25 60.0625 53.125
Q64.75 56 71.0938 56
Q79.6406 56 84.2812 50.0156
Q88.9219 44.0469 88.9219 33.0156
L88.9219 0
L79.8906 0
L79.8906 32.7188
Q79.8906 40.5781 77.0938 44.375
Q74.3125 48.1875 68.6094 48.1875
Q61.625 48.1875 57.5625 43.5469
Q53.5156 38.9219 53.5156 30.9062
L53.5156 0
L44.4844 0
L44.4844 32.7188
Q44.4844 40.625 41.7031 44.4062
Q38.9219 48.1875 33.1094 48.1875
Q26.2188 48.1875 22.1562 43.5312
Q18.1094 38.875 18.1094 30.9062
L18.1094 0
L9.07812 0
L9.07812 54.6875
L18.1094 54.6875
L18.1094 46.1875
Q21.1875 51.2188 25.4844 53.6094
Q29.7812 56 35.6875 56
Q41.6562 56 45.8281 52.9688
Q50 49.9531 52 44.1875" id="BitstreamVeraSans-Roman-6d"/>
      <path d="
M8.6875 6.10938
Q11.375 1.51562 19.4844 1.51562
Q23 1.51562 26.1719 2.70312
Q29.3438 3.90625 31.4219 6.29688
Q33.5 8.6875 33.5 12.1094
Q33.5 14.7031 31.6406 16.3594
Q29.7812 18.0156 27.0938 18.6094
L21.6875 19.6719
Q17.9688 20.6094 15.5781 23.1406
Q13.1875 25.6875 13.1875 29.2969
Q13.1875 33.7344 15.5938 37.1562
Q18.0156 40.5781 21.9688 42.375
Q25.9219 44.1875 30.1719 44.1875
Q34.7188 44.1875 38.2969 42.0156
Q41.8906 39.8438 41.8906 35.5938
Q41.8906 33.2969 40.5938 31.5312
Q39.3125 29.7812 37.0156 29.7812
Q35.6875 29.7812 34.7344 30.6406
Q33.7969 31.5 33.7969 32.8125
Q33.7969 33.9844 34.4531 35.0781
Q35.1094 36.1875 36.2031 36.8438
Q37.3125 37.5 38.4844 37.5
Q37.5938 39.6562 35.1719 40.625
Q32.7656 41.6094 29.9844 41.6094
Q27.4375 41.6094 24.8906 40.5781
Q22.3594 39.5469 20.8125 37.5625
Q19.2812 35.5938 19.2812 32.9062
Q19.2812 31.1094 20.5469 29.7344
Q21.8281 28.375 23.6875 27.7812
L29.5 26.6094
Q32.2812 26.0312 34.5938 24.5312
Q36.9219 23.0469 38.25 20.7656
Q39.5938 18.5 39.5938 15.5781
Q39.5938 11.8594 37.5156 8.25
Q35.4531 4.64062 32.4219 2.48438
Q27.0938 -1.125 19.3906 -1.125
Q14.0625 -1.125 9.60938 1.3125
Q5.17188 3.76562 5.17188 8.59375
Q5.17188 11.3281 6.75 13.3438
Q8.34375 15.375 11.0781 15.375
Q12.7031 15.375 13.7969 14.3906
Q14.8906 13.4219 14.8906 11.8125
Q14.8906 9.51562 13.1719 7.8125
Q11.4688 6.10938 9.1875 6.10938
z
" id="Cmmi10-73"/>
      <path d="
M9.42188 54.6875
L18.4062 54.6875
L18.4062 0
L9.42188 0
z

M9.42188 75.9844
L18.4062 75.9844
L18.4062 64.5938
L9.42188 64.5938
z
" id="BitstreamVeraSans-Roman-69"/>
      <path d="
M31 75.875
Q24.4688 64.6562 21.2812 53.6562
Q18.1094 42.6719 18.1094 31.3906
Q18.1094 20.125 21.3125 9.0625
Q24.5156 -2 31 -13.1875
L23.1875 -13.1875
Q15.875 -1.70312 12.2344 9.375
Q8.59375 20.4531 8.59375 31.3906
Q8.59375 42.2812 12.2031 53.3125
Q15.8281 64.3594 23.1875 75.875
z
" id="BitstreamVeraSans-Roman-28"/>
      <path d="
M56.2031 29.5938
L56.2031 25.2031
L14.8906 25.2031
Q15.4844 15.9219 20.4844 11.0625
Q25.4844 6.20312 34.4219 6.20312
Q39.5938 6.20312 44.4531 7.46875
Q49.3125 8.73438 54.1094 11.2812
L54.1094 2.78125
Q49.2656 0.734375 44.1875 -0.34375
Q39.1094 -1.42188 33.8906 -1.42188
Q20.7969 -1.42188 13.1562 6.1875
Q5.51562 13.8125 5.51562 26.8125
Q5.51562 40.2344 12.7656 48.1094
Q20.0156 56 32.3281 56
Q43.3594 56 49.7812 48.8906
Q56.2031 41.7969 56.2031 29.5938
M47.2188 32.2344
Q47.125 39.5938 43.0938 43.9844
Q39.0625 48.3906 32.4219 48.3906
Q24.9062 48.3906 20.3906 44.1406
Q15.875 39.8906 15.1875 32.1719
z
" id="BitstreamVeraSans-Roman-65"/>
      <path d="
M18.3125 70.2188
L18.3125 54.6875
L36.8125 54.6875
L36.8125 47.7031
L18.3125 47.7031
L18.3125 18.0156
Q18.3125 11.3281 20.1406 9.42188
Q21.9688 7.51562 27.5938 7.51562
L36.8125 7.51562
L36.8125 0
L27.5938 0
Q17.1875 0 13.2344 3.875
Q9.28125 7.76562 9.28125 18.0156
L9.28125 47.7031
L2.6875 47.7031
L2.6875 54.6875
L9.28125 54.6875
L9.28125 70.2188
z
" id="BitstreamVeraSans-Roman-74"/>
     </defs>
     <g transform="translate(349.157045455 572.431875)scale(0.12 -0.12)">
      <use transform="translate(0.0 0.015625)" xlink:href="#BitstreamVeraSans-Roman-74"/>
      <use transform="translate(39.208984375 0.015625)" xlink:href="#BitstreamVeraSans-Roman-69"/>
      <use transform="translate(66.9921875 0.015625)" xlink:href="#BitstreamVeraSans-Roman-6d"/>
      <use transform="translate(164.404296875 0.015625)" xlink:href="#BitstreamVeraSans-Roman-65"/>
      <use transform="translate(225.927734375 0.015625)" xlink:href="#BitstreamVeraSans-Roman-28"/>
      <use transform="translate(264.94140625 0.015625)" xlink:href="#Cmmi10-73"/>
      <use transform="translate(311.71875 0.015625)" xlink:href="#BitstreamVeraSans-Roman-29"/>
     </g>
    </g>
   </g>
   <g id="matplotlib.axis_2">
    <g id="ytick_1">
     <g id="line2d_18">
      <defs>
       <path d="
M0 0
L4 0" id="m728421d6d4" style="stroke:#000000;stroke-width:0.5;"/>
      </defs>
      <g>
       <use style="stroke:#000000;stroke-width:0.5;" x="153.675" xlink:href="#m728421d6d4" y="542.7"/>
      </g>
     </g>
     <g id="line2d_19">
      <defs>
       <path d="
M0 0
L-4 0" id="mcb0005524f" style="stroke:#000000;stroke-width:0.5;"/>
      </defs>
      <g>
       <use style="stroke:#000000;stroke-width:0.5;" x="586.759090909" xlink:href="#mcb0005524f" y="542.7"/>
      </g>
     </g>
     <g id="text_10">
      <!-- −4 -->
      <defs>
       <path d="
M10.5938 35.5
L73.1875 35.5
L73.1875 27.2031
L10.5938 27.2031
z
" id="BitstreamVeraSans-Roman-2212"/>
       <path d="
M37.7969 64.3125
L12.8906 25.3906
L37.7969 25.3906
z

M35.2031 72.9062
L47.6094 72.9062
L47.6094 25.3906
L58.0156 25.3906
L58.0156 17.1875
L47.6094 17.1875
L47.6094 0
L37.7969 0
L37.7969 17.1875
L4.89062 17.1875
L4.89062 26.7031
z
" id="BitstreamVeraSans-Roman-34"/>
      </defs>
      <g transform="translate(133.92875 546.01125)scale(0.12 -0.12)">
       <use xlink:href="#BitstreamVeraSans-Roman-2212"/>
       <use x="83.7890625" xlink:href="#BitstreamVeraSans-Roman-34"/>
      </g>
     </g>
    </g>
    <g id="ytick_2">
     <g id="line2d_20">
      <g>
       <use style="stroke:#000000;stroke-width:0.5;" x="153.675" xlink:href="#m728421d6d4" y="482.4"/>
      </g>
     </g>
     <g id="line2d_21">
      <g>
       <use style="stroke:#000000;stroke-width:0.5;" x="586.759090909" xlink:href="#mcb0005524f" y="482.4"/>
      </g>
     </g>
     <g id="text_11">
      <!-- −3 -->
      <g transform="translate(134.2175 485.71125)scale(0.12 -0.12)">
       <use xlink:href="#BitstreamVeraSans-Roman-2212"/>
       <use x="83.7890625" xlink:href="#BitstreamVeraSans-Roman-33"/>
      </g>
     </g>
    </g>
    <g id="ytick_3">
     <g id="line2d_22">
      <g>
       <use style="stroke:#000000;stroke-width:0.5;" x="153.675" xlink:href="#m728421d6d4" y="422.1"/>
      </g>
     </g>
     <g id="line2d_23">
      <g>
       <use style="stroke:#000000;stroke-width:0.5;" x="586.759090909" xlink:href="#mcb0005524f" y="422.1"/>
      </g>
     </g>
     <g id="text_12">
      <!-- −2 -->
      <g transform="translate(134.4575 425.41125)scale(0.12 -0.12)">
       <use xlink:href="#BitstreamVeraSans-Roman-2212"/>
       <use x="83.7890625" xlink:href="#BitstreamVeraSans-Roman-32"/>
      </g>
     </g>
    </g>
    <g id="ytick_4">
     <g id="line2d_24">
      <g>
       <use style="stroke:#000000;stroke-width:0.5;" x="153.675" xlink:href="#m728421d6d4" y="361.8"/>
      </g>
     </g>
     <g id="line2d_25">
      <g>
       <use style="stroke:#000000;stroke-width:0.5;" x="586.759090909" xlink:href="#mcb0005524f" y="361.8"/>
      </g>
     </g>
     <g id="text_13">
      <!-- −1 -->
      <g transform="translate(134.36375 365.11125)scale(0.12 -0.12)">
       <use xlink:href="#BitstreamVeraSans-Roman-2212"/>
       <use x="83.7890625" xlink:href="#BitstreamVeraSans-Roman-31"/>
      </g>
     </g>
    </g>
    <g id="ytick_5">
     <g id="line2d_26">
      <g>
       <use style="stroke:#000000;stroke-width:0.5;" x="153.675" xlink:href="#m728421d6d4" y="301.5"/>
      </g>
     </g>
     <g id="line2d_27">
      <g>
       <use style="stroke:#000000;stroke-width:0.5;" x="586.759090909" xlink:href="#mcb0005524f" y="301.5"/>
      </g>
     </g>
     <g id="text_14">
      <!-- 0 -->
      <g transform="translate(143.628125 304.81125)scale(0.12 -0.12)">
       <use xlink:href="#BitstreamVeraSans-Roman-30"/>
      </g>
     </g>
    </g>
    <g id="ytick_6">
     <g id="line2d_28">
      <g>
       <use style="stroke:#000000;stroke-width:0.5;" x="153.675" xlink:href="#m728421d6d4" y="241.2"/>
      </g>
     </g>
     <g id="line2d_29">
      <g>
       <use style="stroke:#000000;stroke-width:0.5;" x="586.759090909" xlink:href="#mcb0005524f" y="241.2"/>
      </g>
     </g>
     <g id="text_15">
      <!-- 1 -->
      <g transform="translate(144.46625 244.51125)scale(0.12 -0.12)">
       <use xlink:href="#BitstreamVeraSans-Roman-31"/>
      </g>
     </g>
    </g>
    <g id="ytick_7">
     <g id="line2d_30">
      <g>
       <use style="stroke:#000000;stroke-width:0.5;" x="153.675" xlink:href="#m728421d6d4" y="180.9"/>
      </g>
     </g>
     <g id="line2d_31">
      <g>
       <use style="stroke:#000000;stroke-width:0.5;" x="586.759090909" xlink:href="#mcb0005524f" y="180.9"/>
      </g>
     </g>
     <g id="text_16">
      <!-- 2 -->
      <g transform="translate(144.12125 184.21125)scale(0.12 -0.12)">
       <use xlink:href="#BitstreamVeraSans-Roman-32"/>
      </g>
     </g>
    </g>
    <g id="ytick_8">
     <g id="line2d_32">
      <g>
       <use style="stroke:#000000;stroke-width:0.5;" x="153.675" xlink:href="#m728421d6d4" y="120.6"/>
      </g>
     </g>
     <g id="line2d_33">
      <g>
       <use style="stroke:#000000;stroke-width:0.5;" x="586.759090909" xlink:href="#mcb0005524f" y="120.6"/>
      </g>
     </g>
     <g id="text_17">
      <!-- 3 -->
      <g transform="translate(143.916875 123.91125)scale(0.12 -0.12)">
       <use xlink:href="#BitstreamVeraSans-Roman-33"/>
      </g>
     </g>
    </g>
    <g id="ytick_9">
     <g id="line2d_34">
      <g>
       <use style="stroke:#000000;stroke-width:0.5;" x="153.675" xlink:href="#m728421d6d4" y="60.3"/>
      </g>
     </g>
     <g id="line2d_35">
      <g>
       <use style="stroke:#000000;stroke-width:0.5;" x="586.759090909" xlink:href="#mcb0005524f" y="60.3"/>
      </g>
     </g>
     <g id="text_18">
      <!-- 4 -->
      <g transform="translate(143.3 63.61125)scale(0.12 -0.12)">
       <use xlink:href="#BitstreamVeraSans-Roman-34"/>
      </g>
     </g>
    </g>
    <g id="text_19">
     <!-- $\theta$($Rad$) -->
     <defs>
      <path d="
M16.1094 -1.125
Q11.5781 -1.125 8.84375 2.1875
Q6.10938 5.51562 5.04688 10.2031
Q4 14.8906 4 19.4844
L4 19.5781
Q4 24.5625 4.95312 29.9219
Q5.90625 35.2969 7.70312 40.6406
Q9.51562 46 11.625 50.2031
Q13.0938 53.125 15.4062 56.7344
Q17.7188 60.3594 20.5781 63.5
Q23.4375 66.6562 26.7344 68.5781
Q30.0312 70.5156 33.4062 70.5156
L33.5 70.5156
Q37.1094 70.5156 39.5156 68.5
Q41.9375 66.5 43.2812 63.375
Q44.625 60.25 45.1562 56.6875
Q45.7031 53.125 45.7031 49.9062
Q45.7031 42.3281 43.6562 34.4375
Q41.6094 26.5625 37.9844 19.1875
Q36.625 16.4062 34.2031 12.6406
Q31.7812 8.89062 29.0781 5.90625
Q26.375 2.9375 23 0.90625
Q19.625 -1.125 16.2188 -1.125
z

M16.3125 1.51562
Q19.625 1.51562 22.6719 5.04688
Q25.7344 8.59375 28.0312 13.6406
Q30.3281 18.7031 32.0625 24
Q33.7969 29.2969 34.625 33.0156
L14.2031 33.0156
Q12.6406 26.7031 11.7656 22.1406
Q10.8906 17.5781 10.8906 13.1875
Q10.8906 1.51562 16.3125 1.51562
M14.9844 36.5312
L35.5 36.5312
Q36.5781 40.9219 37.2031 43.875
Q37.8438 46.8281 38.2812 50.0938
Q38.7188 53.375 38.7188 56.2031
Q38.7188 67.9219 33.4062 67.9219
Q27.0469 67.9219 22.4375 57.6875
Q17.8281 47.4688 14.9844 36.5312" id="Cmmi10-b5"/>
      <path d="
M17.3906 -1.125
Q11.0781 -1.125 7.4375 3.64062
Q3.8125 8.40625 3.8125 14.8906
Q3.8125 21.2969 7.125 28.1719
Q10.4531 35.0625 16.0938 39.625
Q21.7344 44.1875 28.2188 44.1875
Q31.2031 44.1875 33.5469 42.5781
Q35.8906 40.9688 37.2031 38.1875
Q38.3281 42.1875 41.6094 42.1875
Q42.875 42.1875 43.7188 41.4219
Q44.5781 40.6719 44.5781 39.4062
Q44.5781 39.1094 44.5469 38.9531
Q44.5312 38.8125 44.4844 38.625
L37.5 10.6875
Q36.8125 7.71875 36.8125 5.8125
Q36.8125 1.51562 39.7031 1.51562
Q42.8281 1.51562 44.4531 5.48438
Q46.0938 9.46875 47.2188 14.7031
Q47.4062 15.2812 48 15.2812
L49.2188 15.2812
Q49.6094 15.2812 49.8438 14.9375
Q50.0938 14.5938 50.0938 14.3125
Q48.3438 7.32812 46.2656 3.09375
Q44.1875 -1.125 39.5 -1.125
Q36.1406 -1.125 33.5469 0.84375
Q30.9531 2.82812 30.3281 6.10938
Q23.875 -1.125 17.3906 -1.125
M17.4844 1.51562
Q21.0938 1.51562 24.4844 4.21875
Q27.875 6.9375 30.3281 10.5938
Q30.4219 10.6875 30.4219 10.8906
L35.7969 32.625
L35.8906 32.9062
Q35.2969 36.4688 33.3125 39.0312
Q31.3438 41.6094 27.9844 41.6094
Q24.6094 41.6094 21.7031 38.8438
Q18.7969 36.0781 16.7969 32.3281
Q14.8438 28.3281 13.0625 21.3438
Q11.2812 14.3594 11.2812 10.5
Q11.2812 7.03125 12.7656 4.26562
Q14.2656 1.51562 17.4844 1.51562" id="Cmmi10-61"/>
      <path d="
M4.89062 0
Q3.90625 0 3.90625 1.3125
Q3.95312 1.5625 4.09375 2.17188
Q4.25 2.78125 4.51562 3.14062
Q4.78125 3.51562 5.17188 3.51562
Q11.2812 3.51562 13.7188 4.20312
Q14.9844 4.64062 15.5781 6.89062
L29.2969 61.8125
Q29.5 62.7969 29.5 63.1875
Q29.5 64.2656 28.3281 64.4062
Q26.4219 64.7969 21.0938 64.7969
Q20.125 64.7969 20.125 66.1094
Q20.1719 66.3594 20.3125 66.9688
Q20.4531 67.5781 20.7188 67.9375
Q21 68.3125 21.3906 68.3125
L51.7031 68.3125
Q55.3281 68.3125 59.2344 67.4844
Q63.1406 66.6562 66.4062 64.875
Q69.6719 63.0938 71.7656 60.125
Q73.875 57.1719 73.875 53.2188
Q73.875 48.1875 70.5469 44.2344
Q67.2344 40.2812 62.1562 37.625
Q57.0781 34.9688 52.2969 33.8906
Q56.2031 32.4688 58.6875 29.3594
Q61.1875 26.2656 61.1875 22.2188
Q61.1875 21.6875 61.1562 21.4062
Q61.1406 21.1406 61.0781 20.7969
L60.2969 11.9219
Q60.2031 9.96875 60.1094 8.59375
Q60.0156 7.23438 60.0156 6.39062
Q60.0156 3.65625 60.8125 2.01562
Q61.625 0.390625 64.0156 0.390625
Q67.1406 0.390625 69.5 3.29688
Q71.875 6.20312 72.6094 9.625
Q73.0469 10.5 73.5781 10.5
L74.5156 10.5
Q75.4844 10.5 75.4844 9.1875
Q74.75 6.29688 73.1562 3.70312
Q71.5781 1.125 69.1562 -0.53125
Q66.75 -2.20312 63.9219 -2.20312
Q58.0625 -2.20312 53.9375 0.40625
Q49.8125 3.03125 49.8125 8.59375
Q49.8125 10.6875 50.2031 12.3125
L52.3906 21.1875
Q52.7812 22.4062 52.7812 24.0312
Q52.7812 28.1719 49.9688 30.5312
Q47.1719 32.9062 42.9219 32.9062
L30.6094 32.9062
L24.0312 6.5
Q23.7812 5.67188 23.7812 5.07812
Q23.7812 4.04688 25 3.90625
Q26.9062 3.51562 32.1719 3.51562
Q33.2031 3.51562 33.2031 2.20312
Q32.8594 0.78125 32.6562 0.390625
Q32.4688 0 31.5 0
z

M31.2031 35.5
L42.2812 35.5
Q53.1719 35.5 58.6875 41.0156
Q61.2344 43.5625 62.7188 47.4844
Q64.2031 51.4219 64.2031 55.3281
Q64.2031 59.0312 62.0312 61.125
Q59.8594 63.2344 56.6562 64.0156
Q53.4688 64.7969 49.6094 64.7969
L42.9219 64.7969
Q40.1875 64.7969 39.2969 64.3281
Q38.4219 63.875 37.7031 61.375
z
" id="Cmmi10-52"/>
      <path d="
M17.3906 -1.125
Q11.0781 -1.125 7.4375 3.64062
Q3.8125 8.40625 3.8125 14.8906
Q3.8125 21.2969 7.125 28.1719
Q10.4531 35.0625 16.0938 39.625
Q21.7344 44.1875 28.2188 44.1875
Q31.1562 44.1875 33.5156 42.5469
Q35.8906 40.9219 37.2031 38.1875
L42.8281 60.5
Q43.2188 62.2031 43.3125 63.1875
Q43.3125 64.7969 36.8125 64.7969
Q35.7969 64.7969 35.7969 66.1094
Q35.8438 66.3594 36.0156 66.9844
Q36.1875 67.625 36.4531 67.9688
Q36.7188 68.3125 37.2031 68.3125
L50.6875 69.3906
Q51.9062 69.3906 51.9062 68.1094
L37.5 10.5938
Q36.8125 8.9375 36.8125 5.8125
Q36.8125 1.51562 39.7031 1.51562
Q42.8281 1.51562 44.4531 5.48438
Q46.0938 9.46875 47.2188 14.7031
Q47.4062 15.2812 48 15.2812
L49.2188 15.2812
Q49.6094 15.2812 49.8438 14.9375
Q50.0938 14.5938 50.0938 14.3125
Q48.3438 7.32812 46.2656 3.09375
Q44.1875 -1.125 39.5 -1.125
Q36.1406 -1.125 33.5469 0.84375
Q30.9531 2.82812 30.3281 6.10938
Q23.875 -1.125 17.3906 -1.125
M17.4844 1.51562
Q21.0938 1.51562 24.4844 4.21875
Q27.875 6.9375 30.3281 10.5938
Q30.4219 10.6875 30.4219 10.9844
L35.8906 33.0156
Q35.2969 36.5312 33.2969 39.0625
Q31.2969 41.6094 27.9844 41.6094
Q24.6094 41.6094 21.7031 38.8438
Q18.7969 36.0781 16.7969 32.3281
Q14.8438 28.3281 13.0625 21.3438
Q11.2812 14.3594 11.2812 10.5
Q11.2812 7.03125 12.7656 4.26562
Q14.2656 1.51562 17.4844 1.51562" id="Cmmi10-64"/>
     </defs>
     <g transform="translate(126.433125 319.86)rotate(-90.0)scale(0.12 -0.12)">
      <use transform="translate(0.0 0.125)" xlink:href="#Cmmi10-b5"/>
      <use transform="translate(46.923828125 0.125)" xlink:href="#BitstreamVeraSans-Roman-28"/>
      <use transform="translate(85.9375 0.125)" xlink:href="#Cmmi10-52"/>
      <use transform="translate(161.81640625 0.125)" xlink:href="#Cmmi10-61"/>
      <use transform="translate(214.599609375 0.125)" xlink:href="#Cmmi10-64"/>
      <use transform="translate(266.6015625 0.125)" xlink:href="#BitstreamVeraSans-Roman-29"/>
     </g>
    </g>
   </g>
   <g id="legend_1">
    <g id="line2d_36">
     <path d="
M540.777 73.3932
L554.772 73.3932" style="fill:none;stroke:#008000;stroke-linecap:square;stroke-width:2;"/>
    </g>
    <g id="line2d_37"/>
    <g id="text_20">
     <!-- $\theta$-$t$ -->
     <defs>
      <path d="
M4.89062 31.3906
L31.2031 31.3906
L31.2031 23.3906
L4.89062 23.3906
z
" id="BitstreamVeraSans-Roman-2d"/>
      <path d="
M6.20312 8.10938
Q6.20312 9.57812 6.5 10.8906
L13.7188 39.5938
L3.21875 39.5938
Q2.20312 39.5938 2.20312 40.9219
Q2.59375 43.1094 3.51562 43.1094
L14.5938 43.1094
L18.6094 59.4219
Q19 60.75 20.1719 61.6719
Q21.3438 62.5938 22.7969 62.5938
Q24.0781 62.5938 24.9219 61.8281
Q25.7812 61.0781 25.7812 59.8125
Q25.7812 59.5156 25.75 59.3438
Q25.7344 59.1875 25.6875 58.9844
L21.6875 43.1094
L31.9844 43.1094
Q33.0156 43.1094 33.0156 41.7969
Q32.9531 41.5469 32.8125 40.9531
Q32.6719 40.375 32.4219 39.9844
Q32.1719 39.5938 31.6875 39.5938
L20.7969 39.5938
L13.625 10.6875
Q12.8906 7.85938 12.8906 5.8125
Q12.8906 1.51562 15.8281 1.51562
Q20.2188 1.51562 23.6094 5.64062
Q27 9.76562 28.8125 14.7031
Q29.2031 15.2812 29.5938 15.2812
L30.8125 15.2812
Q31.2031 15.2812 31.4375 15.0156
Q31.6875 14.75 31.6875 14.4062
Q31.6875 14.2031 31.5938 14.1094
Q29.3906 8.0625 25.1875 3.46875
Q21 -1.125 15.5781 -1.125
Q11.625 -1.125 8.90625 1.45312
Q6.20312 4.04688 6.20312 8.10938" id="Cmmi10-74"/>
     </defs>
     <g transform="translate(565.767490909 76.891798125)scale(0.09996 -0.09996)">
      <use transform="translate(0.0 0.484375)" xlink:href="#Cmmi10-b5"/>
      <use transform="translate(46.923828125 0.484375)" xlink:href="#BitstreamVeraSans-Roman-2d"/>
      <use transform="translate(83.0078125 0.484375)" xlink:href="#Cmmi10-74"/>
     </g>
    </g>
   </g>
  </g>
  <g id="axes_2">
   <g id="patch_7">
    <path d="
M673.376 542.7
L1106.46 542.7
L1106.46 60.3
L673.376 60.3
z
" style="fill:#ffffff;"/>
   </g>
   <g id="line2d_38">
    <path clip-path="url(#p9b96c9b755)" d="
M673.376 473.648
L674.428 473.539
L675.504 473.201
L676.593 472.623
L677.682 471.792
L678.734 470.709
L679.736 469.352
L680.689 467.679
L681.605 465.608
L682.372 463.329
L682.929 460.964
L683.423 457.81
L684.376 451.384
L684.537 451.258
L684.549 451.267
L684.686 451.525
L684.921 452.605
L685.366 455.976
L686.381 463.602
L687.061 466.999
L687.791 469.553
L688.62 471.662
L689.561 473.463
L690.501 474.809
L691.306 475.601
L691.999 475.988
L692.63 476.09
L693.261 475.964
L693.978 475.583
L694.894 474.824
L696.156 473.466
L697.579 471.615
L698.68 469.826
L699.571 467.95
L700.413 465.635
L702.417 459.73
L702.665 459.666
L702.912 459.855
L703.457 460.324
L703.605 460.123
L703.816 459.365
L704.15 457.119
L704.731 453.372
L704.954 453.035
L705.078 453.169
L705.276 453.796
L705.647 455.893
L706.958 463.85
L707.614 466.284
L708.307 468.029
L709.074 469.365
L709.99 470.508
L711.302 471.76
L713.801 474.107
L715.187 475.79
L716.61 477.47
L717.142 477.773
L717.538 477.758
L717.909 477.512
L718.318 476.952
L718.813 475.862
L719.419 473.942
L720.112 470.976
L720.755 467.241
L721.287 462.831
L721.745 457.132
L722.191 448.603
L723.007 431.924
L723.044 431.908
L723.069 431.958
L723.069 431.958
L723.168 432.62
L723.379 435.982
L724.208 450.77
L724.529 452.809
L724.752 453.191
L724.888 453.094
L725.086 452.593
L725.445 450.956
L726.101 448.058
L726.336 447.798
L726.497 447.915
L726.757 448.474
L727.474 450.126
L727.697 450.177
L727.92 449.971
L728.365 449.152
L728.774 448.618
L729.009 448.625
L729.281 448.908
L730.06 449.836
L730.308 449.768
L730.642 449.394
L731.236 448.752
L731.483 448.783
L731.793 449.088
L732.473 449.796
L732.733 449.737
L733.055 449.387
L733.686 448.687
L733.921 448.734
L734.206 449.056
L734.948 449.988
L735.171 449.916
L735.443 449.542
L736.247 448.268
L736.433 448.387
L736.68 448.882
L737.608 451.075
L737.757 450.956
L737.955 450.456
L738.252 448.988
L739.044 444.693
L739.13 444.778
L739.267 445.331
L739.489 447.38
L739.836 453.075
L740.368 466.043
L740.826 475.482
L740.937 475.917
L740.974 475.849
L741.086 475.053
L741.321 471.282
L742.236 455.348
L742.645 451.842
L742.917 450.965
L743.065 450.95
L743.226 451.24
L743.523 452.341
L744.414 455.852
L744.736 456.287
L744.959 456.282
L745.206 456.026
L745.614 455.218
L746.32 453.862
L746.604 453.724
L746.852 453.853
L747.211 454.345
L748.002 455.463
L748.299 455.528
L748.584 455.355
L749.017 454.776
L749.661 453.966
L749.945 453.919
L750.217 454.109
L750.65 454.743
L751.282 455.593
L751.579 455.663
L751.838 455.486
L752.185 454.938
L753.113 453.332
L753.323 453.373
L753.546 453.68
L753.88 454.59
L755.117 458.366
L755.328 458.421
L755.513 458.205
L755.749 457.496
L756.033 455.814
L756.355 452.441
L756.726 445.947
L757.493 431.547
L757.555 431.724
L757.679 433.047
L757.939 438.945
L758.817 460.247
L759.386 468.137
L759.968 473.354
L760.475 476.144
L760.884 477.313
L761.193 477.639
L761.44 477.617
L761.737 477.337
L762.208 476.534
L766.068 469.022
L768.654 464.634
L769.125 464.302
L769.471 464.3
L769.805 464.534
L770.176 465.097
L770.622 466.218
L771.179 468.297
L772.156 472.092
L772.28 472.069
L772.416 471.69
L772.614 470.284
L772.874 466.554
L773.245 457.498
L774.099 435.463
L774.198 435.103
L774.247 435.189
L774.371 436.097
L774.643 440.378
L775.274 450.131
L775.609 452.326
L775.844 452.754
L775.98 452.661
L776.178 452.169
L776.549 450.502
L777.143 448.001
L777.378 447.759
L777.539 447.894
L777.799 448.494
L778.516 450.249
L778.739 450.293
L778.949 450.075
L779.345 449.245
L779.791 448.484
L780.014 448.451
L780.236 448.677
L780.781 449.707
L781.115 450.054
L781.338 449.999
L781.61 449.639
L782.402 448.435
L782.6 448.521
L782.872 448.951
L783.639 450.297
L783.837 450.24
L784.072 449.868
L784.518 448.602
L784.901 447.808
L785.074 447.815
L785.248 448.112
L785.532 449.154
L786.398 452.621
L786.559 452.632
L786.708 452.327
L786.918 451.291
L787.203 448.583
L787.611 442.11
L788.069 435.685
L788.143 435.536
L788.18 435.607
L788.292 436.43
L788.49 440.029
L788.923 453.337
L789.455 467.348
L789.752 470.452
L789.925 470.811
L789.937 470.805
L790.049 470.611
L790.284 469.605
L791.534 463.451
L791.93 462.674
L792.239 462.483
L792.511 462.577
L792.845 462.965
L793.353 463.949
L794.627 467.1
L796.446 471.274
L797.894 474.815
L799.082 477.666
L799.441 478.032
L799.663 477.998
L799.886 477.71
L800.171 476.914
L800.529 475.161
L800.975 471.769
L801.482 466.098
L801.965 458.125
L802.423 446.573
L803.116 428.472
L803.153 428.404
L803.19 428.492
L803.19 428.492
L803.289 429.461
L803.499 434.288
L804.39 457.126
L804.897 463.68
L805.504 468.702
L806.296 473.383
L807.075 476.791
L807.62 478.304
L808.003 478.819
L808.3 478.891
L808.585 478.714
L808.956 478.186
L809.55 476.889
L812.792 468.607
L813.46 466.222
L814.005 463.422
L814.499 459.654
L815.019 453.82
L815.848 444.334
L815.935 444.214
L815.972 444.259
L816.083 444.756
L816.281 446.933
L816.801 456.342
L817.135 459.868
L817.333 460.312
L817.457 460.184
L817.779 459.322
L818.125 458.691
L818.311 458.692
L818.509 458.959
L818.818 459.825
L819.387 462.225
L820.897 468.688
L821.961 472.157
L822.901 474.546
L823.532 475.62
L823.965 475.98
L824.3 475.993
L824.621 475.762
L824.992 475.184
L825.45 474.015
L826.007 471.926
L826.626 468.688
L827.232 464.264
L827.814 458.285
L828.915 446.333
L829.002 446.266
L829.039 446.311
L829.162 446.766
L829.398 448.7
L830.165 455.527
L830.92 458.897
L833.32 469.684
L834.1 471.791
L834.755 472.975
L835.275 473.503
L835.696 473.647
L836.079 473.547
L836.488 473.199
L836.97 472.467
L837.54 471.169
L838.195 469.081
L838.901 466.057
L839.705 461.553
L841.734 448.304
L842.068 446.331
L842.155 446.279
L842.192 446.327
L842.328 446.852
L842.563 448.875
L843.17 456.797
L843.887 464.756
L844.543 469.664
L845.174 472.848
L845.706 474.537
L846.127 475.24
L846.449 475.413
L846.733 475.319
L847.067 474.946
L847.525 474.054
L848.169 472.25
L849.035 469.114
L850.025 464.665
L851.274 459.053
L851.596 458.481
L851.794 458.485
L852.017 458.793
L852.425 459.397
L852.438 459.39
L852.549 459.17
L852.71 458.189
L852.933 455.116
L853.774 440.238
L853.823 440.323
L853.947 441.145
L854.195 444.69
L855.284 462.031
L855.915 467.755
L856.707 472.905
L857.486 476.689
L857.981 478.175
L858.315 478.601
L858.538 478.594
L858.773 478.339
L859.095 477.615
L859.577 475.894
L860.344 472.204
L861.186 467.105
L861.792 462.059
L862.337 455.527
L863.302 443.369
L863.351 443.365
L863.376 443.409
L863.487 443.994
L863.685 446.5
L864.378 456.416
L864.428 456.416
L864.465 456.349
L864.613 455.657
L865.195 452.599
L865.306 452.622
L865.319 452.639
L865.48 453.104
L865.764 454.802
L866.531 461.338
L867.398 467.692
L868.288 472.597
L869.006 475.479
L869.464 476.557
L869.773 476.815
L869.996 476.731
L870.244 476.362
L870.578 475.409
L871.023 473.392
L871.592 469.698
L872.199 464.231
L872.768 456.97
L873.782 443.356
L873.832 443.331
L873.869 443.388
L873.993 444.045
L874.228 446.883
L874.723 452.686
L874.933 453.17
L875.119 453.107
L875.317 453.124
L875.478 453.428
L875.725 454.498
L876.146 457.524
L877.569 468.331
L878.311 472.108
L878.88 473.988
L879.276 474.66
L879.561 474.775
L879.796 474.626
L880.081 474.147
L880.464 473.002
L880.959 470.734
L881.553 466.877
L882.197 461.158
L883.459 449.363
L883.657 449.131
L883.88 449.316
L884.028 449.279
L884.164 448.876
L884.424 447.157
L884.746 445.497
L884.808 445.501
L884.832 445.54
L884.956 446.043
L885.179 448.094
L885.723 455.911
L886.478 465.401
L887.121 470.842
L887.678 473.875
L888.087 475.078
L888.371 475.379
L888.582 475.319
L888.829 474.961
L889.176 473.993
L889.658 471.902
L890.326 467.919
L891.106 461.858
L892.182 453.432
L892.417 452.928
L892.541 453.014
L892.752 453.583
L892.999 454.123
L893.024 454.105
L893.123 453.788
L893.284 452.215
L893.556 446.621
L893.977 439.001
L894.051 438.788
L894.1 438.876
L894.224 439.827
L894.472 444.004
L895.56 464.402
L896.216 471.69
L896.798 475.979
L897.194 477.537
L897.454 477.85
L897.614 477.757
L897.825 477.325
L898.147 476.073
L898.642 473.126
L899.372 467.317
L900.064 460.043
L901.24 447.059
L901.302 447.066
L901.327 447.11
L901.45 447.697
L901.673 450.125
L902.081 454.414
L902.131 454.305
L902.242 453.26
L902.465 448.466
L902.898 439.86
L902.985 439.563
L903.034 439.643
L903.146 440.422
L903.381 444.054
L904.569 464.893
L905.311 472.761
L905.942 477.48
L906.313 478.916
L906.524 479.117
L906.672 478.969
L906.882 478.359
L907.204 476.621
L907.699 472.534
L908.355 465.174
L908.912 456.366
L909.592 441.191
L909.889 437.124
L909.939 437.043
L909.976 437.124
L909.976 437.124
L910.087 438.119
L910.298 442.743
L910.793 453.722
L910.842 453.805
L910.879 453.734
L910.879 453.734
L911.003 452.841
L911.597 447.741
L911.684 447.897
L911.844 448.829
L912.166 452.386
L913.577 469.481
L914.257 474.849
L914.678 476.713
L914.925 477.038
L915.062 476.935
L915.26 476.415
L915.544 474.914
L915.94 471.492
L916.46 464.879
L916.992 455.165
L917.908 437.602
L917.957 437.691
L918.068 438.629
L918.304 443.192
L918.687 449.544
L918.774 449.748
L918.823 449.688
L918.984 448.988
L919.281 447.956
L919.368 448.07
L919.516 448.778
L919.788 451.426
L921.607 472.136
L922.053 474.403
L922.337 474.935
L922.486 474.893
L922.671 474.523
L922.931 473.421
L923.303 470.743
L923.798 465.341
L924.379 456.34
L925.233 443.017
L925.344 442.738
L925.381 442.771
L925.493 443.206
L925.889 445.484
L925.951 445.358
L926.099 444.305
L926.495 441.27
L926.507 441.274
L926.582 441.482
L926.73 442.774
L927.027 447.827
L928.066 466.651
L928.611 472.428
L928.995 474.563
L929.242 474.995
L929.378 474.91
L929.564 474.442
L929.848 473.004
L930.269 469.561
L930.851 462.799
L932.15 446.705
L932.212 446.703
L932.249 446.765
L932.397 447.417
L932.682 448.842
L932.719 448.798
L932.806 448.272
L932.967 445.496
L933.511 433.652
L933.548 433.739
L933.659 434.886
L933.895 440.449
L934.872 465.948
L935.404 473.796
L935.775 476.612
L935.998 477.091
L936.109 476.988
L936.283 476.401
L936.567 474.469
L937.025 469.547
L937.681 459.901
L938.72 444.114
L938.782 444.047
L938.819 444.108
L938.931 444.761
L939.153 447.871
L939.45 451.506
L939.463 451.493
L939.525 451.097
L939.661 448.169
L940.242 429.698
L940.317 430.095
L940.465 433.002
L940.923 448.632
L941.517 464.824
L942.111 475.308
L942.494 478.905
L942.705 479.414
L942.804 479.267
L942.977 478.445
L943.262 475.771
L943.744 468.738
L944.363 456.362
L945.303 435.607
L945.34 435.697
L945.439 436.699
L945.637 441.742
L946.009 451.029
L946.021 451.009
L946.095 450.239
L946.268 444.936
L946.677 432.956
L946.726 432.809
L946.763 432.912
L946.763 432.912
L946.875 434.202
L947.122 440.578
L948.038 465.667
L948.657 476.332
L949.003 479.4
L949.164 479.725
L949.189 479.706
L949.3 479.391
L949.498 477.94
L949.82 473.542
L950.315 463.295
L950.834 447.781
L951.478 428.307
L951.49 428.294
L951.503 428.307
L951.503 428.307
L951.564 428.781
L951.7 432.17
L952.208 449.733
L952.27 449.293
L952.431 445.737
L952.802 438.217
L952.851 438.093
L952.901 438.202
L953.024 439.393
L953.284 444.803
L954.423 470.877
L954.881 476.735
L955.128 477.788
L955.215 477.709
L955.351 477.09
L955.574 474.819
L955.92 468.593
L956.39 455.69
L957.244 427.681
L957.318 428.114
L957.454 431.403
L957.925 445.912
L957.962 445.794
L958.085 444.171
L958.469 438.913
L958.518 438.994
L958.63 439.905
L958.865 444.325
L960.164 472.657
L960.486 475.338
L960.61 475.57
L960.647 475.544
L960.758 475.199
L960.944 473.737
L961.241 469.27
L961.661 459.121
L962.305 437.08
L962.589 431.144
L962.627 431.063
L962.651 431.117
L962.651 431.117
L962.738 431.974
L962.948 437.155
L963.196 441.237
L963.258 440.89
L963.431 437.852
L963.691 434.458
L963.703 434.459
L963.765 434.721
L963.901 436.683
L964.21 445.473
L964.99 467.321
L965.398 473.457
L965.633 474.636
L965.695 474.626
L965.72 474.584
L965.844 474.052
L966.054 471.986
L966.388 466.148
L966.883 453.081
L967.576 434.968
L967.638 434.773
L967.687 434.918
L967.811 436.35
L968.108 440.805
L968.158 440.609
L968.269 438.506
L968.69 426.979
L968.752 427.317
L968.888 430.306
L969.247 445.308
L969.841 466.781
L970.236 474.334
L970.459 475.587
L970.533 475.491
L970.67 474.678
L970.905 471.565
L971.301 462.743
L972.352 435.13
L972.427 435.427
L972.563 437.591
L972.872 443.666
L972.922 443.301
L973.033 439.998
L973.478 419.887
L973.553 420.582
L973.701 425.837
L974.802 474.276
L975.075 477.633
L975.137 477.735
L975.186 477.64
L975.31 476.749
L975.532 473.116
L975.928 462.342
L976.918 430.869
L976.993 431.357
L977.129 434.644
L977.475 445.691
L977.525 445.1
L977.648 439.459
L978.069 415.704
L978.094 415.86
L978.193 418.476
L978.453 433.788
L979.047 466.137
L979.455 478.277
L979.653 479.892
L979.665 479.884
L979.74 479.565
L979.888 477.637
L980.16 470.607
L980.643 451.512
L981.323 423.268
L981.348 423.316
L981.422 424.444
L981.583 431.632
L981.88 445.772
L981.917 445.395
L982.016 441.061
L982.437 415.833
L982.487 416.251
L982.61 420.609
L983.192 456.155
L983.699 476.882
L983.959 480.76
L983.984 480.784
L984.009 480.745
L984.009 480.745
L984.095 480.114
L984.268 476.721
L984.578 465.432
L985.048 439.703
L985.531 415.321
L985.58 415.895
L985.704 421.486
L986.063 444.499
L986.124 443.334
L986.285 433.047
L986.57 418.799
L986.582 418.753
L986.595 418.759
L986.595 418.759
L986.657 419.532
L986.805 425.384
L987.894 478.296
L988.055 479.841
L988.08 479.814
L988.166 479.143
L988.327 475.638
L988.612 463.711
L989.045 435.418
L989.465 410.593
L989.503 410.923
L989.602 415.058
L989.985 441.784
L990.072 439.507
L990.468 420.861
L990.542 421.631
L990.69 427.202
L991.779 477.422
L991.854 477.736
L991.903 477.549
L992.014 475.961
L992.225 468.913
L992.571 448.471
L993.153 409.731
L993.202 410.35
L993.314 416.094
L993.635 437.516
L993.685 436.846
L993.833 429.351
L994.081 420.135
L994.093 420.152
L994.155 420.953
L994.304 426.832
L995.306 475.289
L995.368 475.57
L995.417 475.411
L995.529 473.798
L995.727 466.968
L996.061 446.554
L996.605 411.243
L996.63 411.375
L996.716 414.095
L997.051 433.075
L997.137 430.798
L997.459 416.022
L997.521 416.659
L997.657 422.433
L998.622 474.13
L998.659 474.233
L998.696 474.12
L998.696 474.12
L998.795 472.774
L998.981 466.49
L999.315 445.982
L999.847 413.126
L999.859 413.175
L999.934 414.875
L1000.24 430.709
L1000.34 427.721
L1000.66 409.131
L1000.73 410.265
L1000.87 419.355
L1001.62 472.176
L1001.77 474.179
L1001.79 474.108
L1001.88 472.96
L1002.05 466.898
L1002.37 446.291
L1002.89 413.393
L1002.9 413.42
L1002.97 414.596
L1003.13 424.073
L1003.27 431.097
L1003.32 430.297
L1003.44 421.748
L1003.7 401.01
L1003.73 401.42
L1003.83 406.924
L1004.72 475.322
L1004.75 475.215
L1004.83 473.708
L1005.02 465.406
L1005.39 436.388
L1005.77 410.868
L1005.79 410.838
L1005.79 410.838
L1005.79 410.838
L1005.82 411.236
L1005.92 415.793
L1006.17 432.78
L1006.23 431.032
L1006.37 414.857
L1006.59 393.229
L1006.62 393.548
L1006.7 398.948
L1007.06 445.06
L1007.42 474.89
L1007.54 477.203
L1007.58 476.945
L1007.69 473.714
L1007.91 458.873
L1008.55 405.426
L1008.62 407.343
L1008.78 422.415
L1008.93 434.171
L1008.98 432.844
L1009.09 418.403
L1009.34 386.971
L1009.36 387.369
L1009.45 393.998
L1010.23 479.189
L1010.27 479.002
L1010.36 475.894
L1010.58 459.681
L1011.18 397.825
L1011.27 401.547
L1011.57 434.532
L1011.65 427.03
L1011.95 382.924
L1012.01 386.016
L1012.2 413.777
L1012.65 475.529
L1012.8 480.648
L1012.83 480.43
L1012.91 477.318
L1013.11 459.53
L1013.68 389.093
L1013.77 394.09
L1014.04 433.72
L1014.13 426.573
L1014.41 380.945
L1014.47 383.986
L1014.65 410.984
L1015.1 476.936
L1015.22 481.058
L1015.26 480.483
L1015.38 474.002
L1015.62 441.87
L1016.03 380.649
L1016.09 383.153
L1016.23 407.468
L1016.39 431.766
L1016.43 429.723
L1016.56 402.726
L1016.74 380.184
L1016.76 380.828
L1016.86 391.581
L1017.5 480.268
L1017.52 480.181
L1017.59 477.347
L1017.75 459.631
L1018.26 373.647
L1018.36 383.732
L1018.59 428.65
L1018.66 422.877
L1018.92 379.311
L1018.98 382.287
L1019.15 411.531
L1019.58 477.282
L1019.63 478.489
L1019.68 477.637
L1019.79 468.509
L1020.04 423.324
L1020.34 368.648
L1020.38 370.177
L1020.49 391.817
L1020.66 424.437
L1020.7 421.698
L1020.96 377.312
L1021.06 384.748
L1021.64 476.206
L1021.72 472.433
L1021.88 448.912
L1022.29 365.391
L1022.37 372.75
L1022.59 419.616
L1022.66 410.714
L1022.87 373.453
L1022.92 375.7
L1023.06 400.175
L1023.48 473.562
L1023.51 473.899
L1023.52 473.812
L1023.52 473.812
L1023.58 470.832
L1023.73 448.623
L1024.12 363.172
L1024.2 371.144
L1024.4 414.722
L1024.47 406.267
L1024.67 367.507
L1024.73 371.375
L1024.9 411.167
L1025.24 471.698
L1025.26 471.97
L1025.28 471.808
L1025.28 471.808
L1025.35 466.756
L1025.52 433.169
L1025.84 361.142
L1025.89 365.379
L1026.1 410.614
L1026.18 399.341
L1026.36 359.409
L1026.41 363.304
L1026.57 405.617
L1026.9 470.635
L1026.91 470.713
L1026.91 470.713
L1026.91 470.713
L1026.96 468.678
L1027.08 449.104
L1027.45 358.364
L1027.53 366.777
L1027.7 407.736
L1027.76 399.285
L1027.95 349.596
L1028.01 355.602
L1028.22 424.686
L1028.46 470.204
L1028.47 470.12
L1028.53 465.494
L1028.69 428.138
L1028.98 354.23
L1029.01 357.008
L1029.15 396.032
L1029.21 406.126
L1029.26 399.18
L1029.46 338.522
L1029.52 348.948
L1029.92 470.377
L1030 463.027
L1030.19 407.75
L1030.4 348.337
L1030.44 350.316
L1030.55 384.412
L1030.63 405.37
L1030.68 396.645
L1030.87 326.64
L1030.93 338.867
L1031.3 471.17
L1031.38 463.435
L1031.55 404.47
L1031.76 340.453
L1031.8 344.979
L1031.97 404.824
L1032.04 384.546
L1032.19 314.634
L1032.25 326.546
L1032.6 472.254
L1032.67 463.313
L1032.86 387.11
L1033.02 330.707
L1033.07 336.762
L1033.24 404.288
L1033.31 380.698
L1033.45 302.59
L1033.5 315.288
L1033.83 473.419
L1033.9 462.944
L1034.09 372.206
L1034.22 319.284
L1034.27 327.207
L1034.43 403.398
L1034.49 376.196
L1034.63 290.834
L1034.68 304.082
L1034.99 474.55
L1035.06 458.426
L1035.36 306.559
L1035.43 336.19
L1035.55 401.773
L1035.6 383.552
L1035.74 279.596
L1035.79 298.548
L1036.08 475.188
L1036.13 464.606
L1036.3 349.847
L1036.41 292.559
L1036.46 305.675
L1036.6 399.436
L1036.66 364.225
L1036.78 268.444
L1036.83 290.227
L1037.09 475.523
L1037.14 464.17
L1037.3 340.581
L1037.41 277.949
L1037.45 290.95
L1037.59 396.082
L1037.64 363.146
L1037.75 257.604
L1037.81 285.104
L1038.05 475.111
L1038.09 462.108
L1038.27 304.53
L1038.34 262.645
L1038.39 285.876
L1038.5 392.073
L1038.55 361.488
L1038.66 245.931
L1038.73 281.412
L1038.94 473.947
L1038.99 459.508
L1039.21 247.603
L1039.29 315.727
L1039.37 387.297
L1039.42 346.195
L1039.52 233.829
L1039.57 261.451
L1039.78 472.042
L1039.83 449.541
L1040.02 231.912
L1040.1 295.666
L1040.17 381.558
L1040.22 336.454
L1040.32 220.911
L1040.37 262.267
L1040.56 469.606
L1040.61 442.265
L1040.79 216.041
L1040.85 280.237
L1040.93 375.102
L1040.98 318.176
L1041.06 206.066
L1041.11 252.412
L1041.27 466.539
L1041.32 443.967
L1041.5 200.27
L1041.57 290.572
L1041.63 367.504
L1041.68 294.611
L1041.76 189.447
L1041.81 242.484
L1041.96 463.523
L1042 432.962
L1042.17 183.842
L1042.23 273.468
L1042.29 359.486
L1042.33 302.464
L1042.4 170.743
L1042.45 226.583
L1042.59 459.884
L1042.64 424.568
L1042.78 166.982
L1042.83 242.394
L1042.9 352.593
L1042.95 260.207
L1043.01 149.498
L1043.06 224.838
L1043.18 456.625
L1043.23 404.135
L1043.35 148.714
L1043.4 219.992
L1043.46 344.499
L1043.51 233.303
L1043.56 125.976
L1043.61 202.578
L1043.72 452.719
L1043.77 398.386
L1043.9 130.463
L1043.95 240.545
L1044 335.419
L1044.03 241.599
L1044.1 100.08
L1044.15 223.809
L1044.24 448.393
L1044.29 357.736
L1044.39 107.974
L1044.44 224.208
L1044.48 326.411
L1044.52 258.096
L1044.52 258.096
L1044.58 68.2164
L1044.59 80.7966" style="fill:none;stroke:#bf00bf;stroke-linecap:square;stroke-width:2;"/>
   </g>
   <g id="patch_8">
    <path d="
M673.376 60.3
L1106.46 60.3" style="fill:none;stroke:#000000;stroke-linecap:square;stroke-linejoin:miter;"/>
   </g>
   <g id="patch_9">
    <path d="
M1106.46 542.7
L1106.46 60.3" style="fill:none;stroke:#000000;stroke-linecap:square;stroke-linejoin:miter;"/>
   </g>
   <g id="patch_10">
    <path d="
M673.376 542.7
L1106.46 542.7" style="fill:none;stroke:#000000;stroke-linecap:square;stroke-linejoin:miter;"/>
   </g>
   <g id="patch_11">
    <path d="
M673.376 542.7
L673.376 60.3" style="fill:none;stroke:#000000;stroke-linecap:square;stroke-linejoin:miter;"/>
   </g>
   <g id="matplotlib.axis_3">
    <g id="xtick_9">
     <g id="line2d_39">
      <g>
       <use style="stroke:#000000;stroke-width:0.5;" x="673.375909091" xlink:href="#m93b0483c22" y="542.7"/>
      </g>
     </g>
     <g id="line2d_40">
      <g>
       <use style="stroke:#000000;stroke-width:0.5;" x="673.375909091" xlink:href="#m741efc42ff" y="60.3"/>
      </g>
     </g>
     <g id="text_21">
      <!-- 0 -->
      <g transform="translate(670.352471591 555.818125)scale(0.12 -0.12)">
       <use xlink:href="#BitstreamVeraSans-Roman-30"/>
      </g>
     </g>
    </g>
    <g id="xtick_10">
     <g id="line2d_41">
      <g>
       <use style="stroke:#000000;stroke-width:0.5;" x="735.245064935" xlink:href="#m93b0483c22" y="542.7"/>
      </g>
     </g>
     <g id="line2d_42">
      <g>
       <use style="stroke:#000000;stroke-width:0.5;" x="735.245064935" xlink:href="#m741efc42ff" y="60.3"/>
      </g>
     </g>
     <g id="text_22">
      <!-- 5 -->
      <g transform="translate(732.414752435 555.818125)scale(0.12 -0.12)">
       <use xlink:href="#BitstreamVeraSans-Roman-35"/>
      </g>
     </g>
    </g>
    <g id="xtick_11">
     <g id="line2d_43">
      <g>
       <use style="stroke:#000000;stroke-width:0.5;" x="797.114220779" xlink:href="#m93b0483c22" y="542.7"/>
      </g>
     </g>
     <g id="line2d_44">
      <g>
       <use style="stroke:#000000;stroke-width:0.5;" x="797.114220779" xlink:href="#m741efc42ff" y="60.3"/>
      </g>
     </g>
     <g id="text_23">
      <!-- 10 -->
      <g transform="translate(790.536720779 555.818125)scale(0.12 -0.12)">
       <use xlink:href="#BitstreamVeraSans-Roman-31"/>
       <use x="63.623046875" xlink:href="#BitstreamVeraSans-Roman-30"/>
      </g>
     </g>
    </g>
    <g id="xtick_12">
     <g id="line2d_45">
      <g>
       <use style="stroke:#000000;stroke-width:0.5;" x="858.983376623" xlink:href="#m93b0483c22" y="542.7"/>
      </g>
     </g>
     <g id="line2d_46">
      <g>
       <use style="stroke:#000000;stroke-width:0.5;" x="858.983376623" xlink:href="#m741efc42ff" y="60.3"/>
      </g>
     </g>
     <g id="text_24">
      <!-- 15 -->
      <g transform="translate(852.531501623 555.818125)scale(0.12 -0.12)">
       <use xlink:href="#BitstreamVeraSans-Roman-31"/>
       <use x="63.623046875" xlink:href="#BitstreamVeraSans-Roman-35"/>
      </g>
     </g>
    </g>
    <g id="xtick_13">
     <g id="line2d_47">
      <g>
       <use style="stroke:#000000;stroke-width:0.5;" x="920.852532468" xlink:href="#m93b0483c22" y="542.7"/>
      </g>
     </g>
     <g id="line2d_48">
      <g>
       <use style="stroke:#000000;stroke-width:0.5;" x="920.852532468" xlink:href="#m741efc42ff" y="60.3"/>
      </g>
     </g>
     <g id="text_25">
      <!-- 20 -->
      <g transform="translate(914.055657468 555.818125)scale(0.12 -0.12)">
       <use xlink:href="#BitstreamVeraSans-Roman-32"/>
       <use x="63.623046875" xlink:href="#BitstreamVeraSans-Roman-30"/>
      </g>
     </g>
    </g>
    <g id="xtick_14">
     <g id="line2d_49">
      <g>
       <use style="stroke:#000000;stroke-width:0.5;" x="982.721688312" xlink:href="#m93b0483c22" y="542.7"/>
      </g>
     </g>
     <g id="line2d_50">
      <g>
       <use style="stroke:#000000;stroke-width:0.5;" x="982.721688312" xlink:href="#m741efc42ff" y="60.3"/>
      </g>
     </g>
     <g id="text_26">
      <!-- 25 -->
      <g transform="translate(976.050438312 555.818125)scale(0.12 -0.12)">
       <use xlink:href="#BitstreamVeraSans-Roman-32"/>
       <use x="63.623046875" xlink:href="#BitstreamVeraSans-Roman-35"/>
      </g>
     </g>
    </g>
    <g id="xtick_15">
     <g id="line2d_51">
      <g>
       <use style="stroke:#000000;stroke-width:0.5;" x="1044.59084416" xlink:href="#m93b0483c22" y="542.7"/>
      </g>
     </g>
     <g id="line2d_52">
      <g>
       <use style="stroke:#000000;stroke-width:0.5;" x="1044.59084416" xlink:href="#m741efc42ff" y="60.3"/>
      </g>
     </g>
     <g id="text_27">
      <!-- 30 -->
      <g transform="translate(1037.81178166 555.818125)scale(0.12 -0.12)">
       <use xlink:href="#BitstreamVeraSans-Roman-33"/>
       <use x="63.623046875" xlink:href="#BitstreamVeraSans-Roman-30"/>
      </g>
     </g>
    </g>
    <g id="xtick_16">
     <g id="line2d_53">
      <g>
       <use style="stroke:#000000;stroke-width:0.5;" x="1106.46" xlink:href="#m93b0483c22" y="542.7"/>
      </g>
     </g>
     <g id="line2d_54">
      <g>
       <use style="stroke:#000000;stroke-width:0.5;" x="1106.46" xlink:href="#m741efc42ff" y="60.3"/>
      </g>
     </g>
     <g id="text_28">
      <!-- 35 -->
      <g transform="translate(1099.8065625 555.818125)scale(0.12 -0.12)">
       <use xlink:href="#BitstreamVeraSans-Roman-33"/>
       <use x="63.623046875" xlink:href="#BitstreamVeraSans-Roman-35"/>
      </g>
     </g>
    </g>
    <g id="text_29">
     <!-- time($s$) -->
     <g transform="translate(868.857954545 572.431875)scale(0.12 -0.12)">
      <use transform="translate(0.0 0.015625)" xlink:href="#BitstreamVeraSans-Roman-74"/>
      <use transform="translate(39.208984375 0.015625)" xlink:href="#BitstreamVeraSans-Roman-69"/>
      <use transform="translate(66.9921875 0.015625)" xlink:href="#BitstreamVeraSans-Roman-6d"/>
      <use transform="translate(164.404296875 0.015625)" xlink:href="#BitstreamVeraSans-Roman-65"/>
      <use transform="translate(225.927734375 0.015625)" xlink:href="#BitstreamVeraSans-Roman-28"/>
      <use transform="translate(264.94140625 0.015625)" xlink:href="#Cmmi10-73"/>
      <use transform="translate(311.71875 0.015625)" xlink:href="#BitstreamVeraSans-Roman-29"/>
     </g>
    </g>
   </g>
   <g id="matplotlib.axis_4">
    <g id="ytick_10">
     <g id="line2d_55">
      <g>
       <use style="stroke:#000000;stroke-width:0.5;" x="673.375909091" xlink:href="#m728421d6d4" y="542.7"/>
      </g>
     </g>
     <g id="line2d_56">
      <g>
       <use style="stroke:#000000;stroke-width:0.5;" x="1106.46" xlink:href="#mcb0005524f" y="542.7"/>
      </g>
     </g>
     <g id="text_30">
      <!-- −50 -->
      <g transform="translate(646.118409091 546.01125)scale(0.12 -0.12)">
       <use xlink:href="#BitstreamVeraSans-Roman-2212"/>
       <use x="83.7890625" xlink:href="#BitstreamVeraSans-Roman-35"/>
       <use x="147.412109375" xlink:href="#BitstreamVeraSans-Roman-30"/>
      </g>
     </g>
    </g>
    <g id="ytick_11">
     <g id="line2d_57">
      <g>
       <use style="stroke:#000000;stroke-width:0.5;" x="673.375909091" xlink:href="#m728421d6d4" y="473.785714286"/>
      </g>
     </g>
     <g id="line2d_58">
      <g>
       <use style="stroke:#000000;stroke-width:0.5;" x="1106.46" xlink:href="#mcb0005524f" y="473.785714286"/>
      </g>
     </g>
     <g id="text_31">
      <!-- 0 -->
      <g transform="translate(663.329034091 477.096964286)scale(0.12 -0.12)">
       <use xlink:href="#BitstreamVeraSans-Roman-30"/>
      </g>
     </g>
    </g>
    <g id="ytick_12">
     <g id="line2d_59">
      <g>
       <use style="stroke:#000000;stroke-width:0.5;" x="673.375909091" xlink:href="#m728421d6d4" y="404.871428571"/>
      </g>
     </g>
     <g id="line2d_60">
      <g>
       <use style="stroke:#000000;stroke-width:0.5;" x="1106.46" xlink:href="#mcb0005524f" y="404.871428571"/>
      </g>
     </g>
     <g id="text_32">
      <!-- 50 -->
      <g transform="translate(655.829034091 408.182678571)scale(0.12 -0.12)">
       <use xlink:href="#BitstreamVeraSans-Roman-35"/>
       <use x="63.623046875" xlink:href="#BitstreamVeraSans-Roman-30"/>
      </g>
     </g>
    </g>
    <g id="ytick_13">
     <g id="line2d_61">
      <g>
       <use style="stroke:#000000;stroke-width:0.5;" x="673.375909091" xlink:href="#m728421d6d4" y="335.957142857"/>
      </g>
     </g>
     <g id="line2d_62">
      <g>
       <use style="stroke:#000000;stroke-width:0.5;" x="1106.46" xlink:href="#mcb0005524f" y="335.957142857"/>
      </g>
     </g>
     <g id="text_33">
      <!-- 100 -->
      <g transform="translate(648.585909091 339.268392857)scale(0.12 -0.12)">
       <use xlink:href="#BitstreamVeraSans-Roman-31"/>
       <use x="63.623046875" xlink:href="#BitstreamVeraSans-Roman-30"/>
       <use x="127.24609375" xlink:href="#BitstreamVeraSans-Roman-30"/>
      </g>
     </g>
    </g>
    <g id="ytick_14">
     <g id="line2d_63">
      <g>
       <use style="stroke:#000000;stroke-width:0.5;" x="673.375909091" xlink:href="#m728421d6d4" y="267.042857143"/>
      </g>
     </g>
     <g id="line2d_64">
      <g>
       <use style="stroke:#000000;stroke-width:0.5;" x="1106.46" xlink:href="#mcb0005524f" y="267.042857143"/>
      </g>
     </g>
     <g id="text_34">
      <!-- 150 -->
      <g transform="translate(648.585909091 270.354107143)scale(0.12 -0.12)">
       <use xlink:href="#BitstreamVeraSans-Roman-31"/>
       <use x="63.623046875" xlink:href="#BitstreamVeraSans-Roman-35"/>
       <use x="127.24609375" xlink:href="#BitstreamVeraSans-Roman-30"/>
      </g>
     </g>
    </g>
    <g id="ytick_15">
     <g id="line2d_65">
      <g>
       <use style="stroke:#000000;stroke-width:0.5;" x="673.375909091" xlink:href="#m728421d6d4" y="198.128571429"/>
      </g>
     </g>
     <g id="line2d_66">
      <g>
       <use style="stroke:#000000;stroke-width:0.5;" x="1106.46" xlink:href="#mcb0005524f" y="198.128571429"/>
      </g>
     </g>
     <g id="text_35">
      <!-- 200 -->
      <g transform="translate(648.147159091 201.439821429)scale(0.12 -0.12)">
       <use xlink:href="#BitstreamVeraSans-Roman-32"/>
       <use x="63.623046875" xlink:href="#BitstreamVeraSans-Roman-30"/>
       <use x="127.24609375" xlink:href="#BitstreamVeraSans-Roman-30"/>
      </g>
     </g>
    </g>
    <g id="ytick_16">
     <g id="line2d_67">
      <g>
       <use style="stroke:#000000;stroke-width:0.5;" x="673.375909091" xlink:href="#m728421d6d4" y="129.214285714"/>
      </g>
     </g>
     <g id="line2d_68">
      <g>
       <use style="stroke:#000000;stroke-width:0.5;" x="1106.46" xlink:href="#mcb0005524f" y="129.214285714"/>
      </g>
     </g>
     <g id="text_36">
      <!-- 250 -->
      <g transform="translate(648.147159091 132.525535714)scale(0.12 -0.12)">
       <use xlink:href="#BitstreamVeraSans-Roman-32"/>
       <use x="63.623046875" xlink:href="#BitstreamVeraSans-Roman-35"/>
       <use x="127.24609375" xlink:href="#BitstreamVeraSans-Roman-30"/>
      </g>
     </g>
    </g>
    <g id="ytick_17">
     <g id="line2d_69">
      <g>
       <use style="stroke:#000000;stroke-width:0.5;" x="673.375909091" xlink:href="#m728421d6d4" y="60.3"/>
      </g>
     </g>
     <g id="line2d_70">
      <g>
       <use style="stroke:#000000;stroke-width:0.5;" x="1106.46" xlink:href="#mcb0005524f" y="60.3"/>
      </g>
     </g>
     <g id="text_37">
      <!-- 300 -->
      <g transform="translate(648.182784091 63.61125)scale(0.12 -0.12)">
       <use xlink:href="#BitstreamVeraSans-Roman-33"/>
       <use x="63.623046875" xlink:href="#BitstreamVeraSans-Roman-30"/>
       <use x="127.24609375" xlink:href="#BitstreamVeraSans-Roman-30"/>
      </g>
     </g>
    </g>
    <g id="text_38">
     <!-- $\omega$($Rad/s$) -->
     <defs>
      <path d="
M5.60938 -23
Q5.60938 -22.7031 5.71875 -22.6094
L40.4844 73.7812
Q40.6719 74.3594 41.1562 74.6719
Q41.6562 75 42.2812 75
Q43.1719 75 43.7188 74.4531
Q44.2812 73.9219 44.2812 73
L44.2812 72.6094
L9.51562 -23.7812
Q8.9375 -25 7.625 -25
Q6.78125 -25 6.1875 -24.4062
Q5.60938 -23.8281 5.60938 -23" id="Cmmi10-3d"/>
      <path d="
M12.1094 -1.125
Q6.45312 -1.125 3.9375 3.01562
Q1.42188 7.17188 1.42188 13.1875
Q1.42188 17.1406 2.125 20.9219
Q2.82812 24.7031 4.26562 28.5781
Q5.71875 32.4688 7.5625 35.8594
Q9.42188 39.2656 11.7188 42.4844
Q12.1562 43.1094 12.8906 43.1094
Q13.5312 43.1094 13.9219 42.7188
Q14.3125 42.3281 14.3125 41.7969
Q14.3125 41.2656 14.0156 40.8281
Q4.89062 28.2656 4.89062 17.6719
Q4.89062 13.0938 7 9.79688
Q9.125 6.5 13.4844 6.5
Q17.2344 6.5 20.4375 8.6875
Q23.6406 10.8906 25.9844 14.3125
Q25.9844 16.0625 26.5938 19.7656
Q27.2031 23.4844 28.4844 26.3906
Q29.7812 29.2969 31.5938 29.2969
Q33.8906 29.2969 33.8906 26.6094
Q33.8906 25.0469 33.2188 22.6719
Q32.5625 20.3125 31.75 18.2656
Q30.9531 16.2188 29.7812 13.625
Q30.9531 6.5 36.9219 6.5
Q40.375 6.5 43.8594 8.5
Q47.3594 10.5 50.0469 13.75
Q52.7344 17 54.2656 20.75
Q55.8125 24.5156 55.8125 27.875
Q55.8125 30.9062 54.8594 32.5938
Q53.9062 34.2812 52.3438 36.125
Q50.7812 37.9844 50.7812 39.1094
Q50.7812 41.0625 52.4375 42.6719
Q54.1094 44.2812 56 44.2812
Q58.4531 44.2812 59.4688 42.0625
Q60.5 39.8438 60.5 37.0156
Q60.5 32.4219 58.6719 25.4375
Q56.8438 18.4531 54.5 13.8125
Q51.2656 7.51562 46.4062 3.1875
Q41.5469 -1.125 35.5 -1.125
Q31.6406 -1.125 29.2656 1.1875
Q26.9062 3.51562 26.2188 7.51562
Q23.4375 3.5625 19.875 1.21875
Q16.3125 -1.125 12.1094 -1.125" id="Cmmi10-21"/>
     </defs>
     <g transform="translate(638.118409091 326.58)rotate(-90.0)scale(0.12 -0.12)">
      <use transform="translate(0.0 0.125)" xlink:href="#Cmmi10-21"/>
      <use transform="translate(62.20703125 0.125)" xlink:href="#BitstreamVeraSans-Roman-28"/>
      <use transform="translate(101.220703125 0.125)" xlink:href="#Cmmi10-52"/>
      <use transform="translate(177.099609375 0.125)" xlink:href="#Cmmi10-61"/>
      <use transform="translate(229.8828125 0.125)" xlink:href="#Cmmi10-64"/>
      <use transform="translate(281.884765625 0.125)" xlink:href="#Cmmi10-3d"/>
      <use transform="translate(331.884765625 0.125)" xlink:href="#Cmmi10-73"/>
      <use transform="translate(378.662109375 0.125)" xlink:href="#BitstreamVeraSans-Roman-29"/>
     </g>
    </g>
   </g>
   <g id="legend_2">
    <g id="line2d_71">
     <path d="
M1058.98 73.3932
L1072.97 73.3932" style="fill:none;stroke:#bf00bf;stroke-linecap:square;stroke-width:2;"/>
    </g>
    <g id="line2d_72"/>
    <g id="text_39">
     <!-- $\omega$-$t$ -->
     <g transform="translate(1083.969 76.891798125)scale(0.09996 -0.09996)">
      <use transform="translate(0.0 0.40625)" xlink:href="#Cmmi10-21"/>
      <use transform="translate(62.20703125 0.40625)" xlink:href="#BitstreamVeraSans-Roman-2d"/>
      <use transform="translate(98.291015625 0.40625)" xlink:href="#Cmmi10-74"/>
     </g>
    </g>
   </g>
  </g>
  <g id="text_40">
   <!-- elleptical orbit, $m1/M=$0.3 -->
   <defs>
    <path id="BitstreamVeraSans-Roman-20"/>
    <path d="
M9.28125 0
L9.28125 3.51562
Q21.7812 3.51562 21.7812 6.6875
L21.7812 59.1875
Q16.6094 56.6875 8.6875 56.6875
L8.6875 60.2031
Q20.9531 60.2031 27.2031 66.6094
L28.6094 66.6094
Q28.9531 66.6094 29.2656 66.3281
Q29.5938 66.0625 29.5938 65.7188
L29.5938 6.6875
Q29.5938 3.51562 42.0938 3.51562
L42.0938 0
z
" id="Cmr10-31"/>
    <path d="
M5.07812 0
Q4.10938 0 4.10938 1.3125
Q4.15625 1.5625 4.29688 2.14062
Q4.4375 2.73438 4.6875 3.125
Q4.9375 3.51562 5.42188 3.51562
Q14.9375 3.51562 16.5 9.625
L29.5 61.8125
Q29.6875 62.7969 29.6875 63.1875
Q29.6875 64.2656 28.5156 64.4062
Q26.6094 64.7969 21.2969 64.7969
Q20.3125 64.7969 20.3125 66.1094
Q20.3594 66.3594 20.5 66.9688
Q20.6562 67.5781 20.9219 67.9375
Q21.1875 68.3125 21.5781 68.3125
L39.2031 68.3125
Q40.3281 68.3125 40.4844 67.1875
L48.2969 9.90625
L84.7188 67.1875
Q85.4062 68.3125 86.625 68.3125
L103.609 68.3125
Q104.594 68.3125 104.594 67
Q104.547 66.75 104.391 66.1406
Q104.25 65.5312 103.984 65.1562
Q103.719 64.7969 103.328 64.7969
Q97.2188 64.7969 94.8281 64.1094
Q93.5 63.6719 92.9219 61.375
L79.2031 6.5
Q79 5.51562 79 5.07812
Q79 4.6875 79.125 4.42188
Q79.25 4.15625 79.4688 4.07812
Q79.6875 4 80.1719 3.90625
Q82.0781 3.51562 87.4062 3.51562
Q88.375 3.51562 88.375 2.20312
Q88.0312 0.78125 87.8281 0.390625
Q87.6406 0 86.7188 0
L60.5938 0
Q59.625 0 59.625 1.3125
Q59.6719 1.5625 59.8125 2.17188
Q59.9688 2.78125 60.2344 3.14062
Q60.5 3.51562 60.8906 3.51562
Q67 3.51562 69.3906 4.20312
Q70.7031 4.64062 71.2969 6.89062
L85.6875 64.7969
L45.3125 1.125
Q44.7344 0 43.3125 0
Q42.0469 0 41.8906 1.125
L33.4062 64.0156
L19.6719 9.1875
Q19.5781 8.9375 19.5312 8.5625
Q19.4844 8.20312 19.3906 7.71875
Q19.3906 5.125 21.6562 4.3125
Q23.9219 3.51562 27.2031 3.51562
Q28.2188 3.51562 28.2188 2.20312
Q27.875 0.875 27.6562 0.4375
Q27.4375 0 26.5156 0
z
" id="Cmmi10-4d"/>
    <path d="
M7.71875 1.70312
Q7.71875 2.29688 7.8125 2.59375
L15.2812 32.4219
Q16.0156 35.2031 16.0156 37.3125
Q16.0156 41.6094 13.0938 41.6094
Q9.96875 41.6094 8.45312 37.8594
Q6.9375 34.125 5.51562 28.4219
Q5.51562 28.125 5.21875 27.9531
Q4.9375 27.7812 4.6875 27.7812
L3.51562 27.7812
Q3.17188 27.7812 2.92188 28.1406
Q2.6875 28.5156 2.6875 28.8125
Q3.76562 33.1562 4.76562 36.1719
Q5.76562 39.2031 7.89062 41.6875
Q10.0156 44.1875 13.1875 44.1875
Q16.9375 44.1875 19.8125 41.8125
Q22.7031 39.4531 22.7031 35.7969
Q25.6875 39.7031 29.6875 41.9375
Q33.6875 44.1875 38.1875 44.1875
Q42.9219 44.1875 46.3594 41.7656
Q49.8125 39.3594 49.8125 34.9062
Q52.875 39.2656 57 41.7188
Q61.1406 44.1875 66.0156 44.1875
Q71.1875 44.1875 74.3281 41.375
Q77.4844 38.5781 77.4844 33.4062
Q77.4844 29.2969 75.6562 23.4844
Q73.8281 17.6719 71.0938 10.5
Q69.6719 7.03125 69.6719 4.5
Q69.6719 1.51562 72.0156 1.51562
Q75.9219 1.51562 78.5156 5.70312
Q81.1094 9.90625 82.1719 14.7031
Q82.4688 15.2812 83.0156 15.2812
L84.1875 15.2812
Q84.5781 15.2812 84.8438 15.0156
Q85.1094 14.75 85.1094 14.4062
Q85.1094 14.3125 85.0156 14.1094
Q83.6406 8.45312 80.25 3.65625
Q76.8594 -1.125 71.7812 -1.125
Q68.2656 -1.125 65.7656 1.29688
Q63.2812 3.71875 63.2812 7.17188
Q63.2812 8.9375 64.1094 11.0781
Q66.9375 18.6094 68.8125 24.5156
Q70.7031 30.4219 70.7031 34.9062
Q70.7031 37.7031 69.5781 39.6562
Q68.4531 41.6094 65.8281 41.6094
Q60.3594 41.6094 56.3438 38.25
Q52.3438 34.9062 49.4219 29.3906
Q49.2188 28.4219 49.125 27.875
L42.6719 2.20312
Q42.3281 0.828125 41.125 -0.140625
Q39.9375 -1.125 38.4844 -1.125
Q37.3125 -1.125 36.4062 -0.34375
Q35.5 0.4375 35.5 1.70312
Q35.5 2.29688 35.5938 2.59375
L42 28.0781
Q43.0156 32.1719 43.0156 34.9062
Q43.0156 37.7031 41.8594 39.6562
Q40.7188 41.6094 37.9844 41.6094
Q34.3281 41.6094 31.25 39.9844
Q28.1719 38.375 25.875 35.7188
Q23.5781 33.0625 21.6875 29.3906
L14.8906 2.20312
Q14.5469 0.828125 13.3438 -0.140625
Q12.1562 -1.125 10.6875 -1.125
Q9.46875 -1.125 8.59375 -0.34375
Q7.71875 0.4375 7.71875 1.70312" id="Cmmi10-6d"/>
    <path d="
M41.1094 46.2969
Q39.5938 47.1719 37.8125 47.5781
Q36.0312 48 33.8906 48
Q26.2656 48 22.1875 43.0469
Q18.1094 38.0938 18.1094 28.8125
L18.1094 0
L9.07812 0
L9.07812 54.6875
L18.1094 54.6875
L18.1094 46.1875
Q20.9531 51.1719 25.4844 53.5781
Q30.0312 56 36.5312 56
Q37.4531 56 38.5781 55.875
Q39.7031 55.7656 41.0625 55.5156
z
" id="BitstreamVeraSans-Roman-72"/>
    <path d="
M30.6094 48.3906
Q23.3906 48.3906 19.1875 42.75
Q14.9844 37.1094 14.9844 27.2969
Q14.9844 17.4844 19.1562 11.8438
Q23.3438 6.20312 30.6094 6.20312
Q37.7969 6.20312 41.9844 11.8594
Q46.1875 17.5312 46.1875 27.2969
Q46.1875 37.0156 41.9844 42.7031
Q37.7969 48.3906 30.6094 48.3906
M30.6094 56
Q42.3281 56 49.0156 48.375
Q55.7188 40.7656 55.7188 27.2969
Q55.7188 13.875 49.0156 6.21875
Q42.3281 -1.42188 30.6094 -1.42188
Q18.8438 -1.42188 12.1719 6.21875
Q5.51562 13.875 5.51562 27.2969
Q5.51562 40.7656 12.1719 48.375
Q18.8438 56 30.6094 56" id="BitstreamVeraSans-Roman-6f"/>
    <path d="
M9.42188 75.9844
L18.4062 75.9844
L18.4062 0
L9.42188 0
z
" id="BitstreamVeraSans-Roman-6c"/>
    <path d="
M11.7188 12.4062
L22.0156 12.4062
L22.0156 4
L14.0156 -11.625
L7.71875 -11.625
L11.7188 4
z
" id="BitstreamVeraSans-Roman-2c"/>
    <path d="
M10.6875 12.4062
L21 12.4062
L21 0
L10.6875 0
z
" id="BitstreamVeraSans-Roman-2e"/>
    <path d="
M18.1094 8.20312
L18.1094 -20.7969
L9.07812 -20.7969
L9.07812 54.6875
L18.1094 54.6875
L18.1094 46.3906
Q20.9531 51.2656 25.2656 53.625
Q29.5938 56 35.5938 56
Q45.5625 56 51.7812 48.0938
Q58.0156 40.1875 58.0156 27.2969
Q58.0156 14.4062 51.7812 6.48438
Q45.5625 -1.42188 35.5938 -1.42188
Q29.5938 -1.42188 25.2656 0.953125
Q20.9531 3.32812 18.1094 8.20312
M48.6875 27.2969
Q48.6875 37.2031 44.6094 42.8438
Q40.5312 48.4844 33.4062 48.4844
Q26.2656 48.4844 22.1875 42.8438
Q18.1094 37.2031 18.1094 27.2969
Q18.1094 17.3906 22.1875 11.75
Q26.2656 6.10938 33.4062 6.10938
Q40.5312 6.10938 44.6094 11.75
Q48.6875 17.3906 48.6875 27.2969" id="BitstreamVeraSans-Roman-70"/>
    <path d="
M7.51562 13.2812
Q6.6875 13.2812 6.14062 13.9062
Q5.60938 14.5469 5.60938 15.2812
Q5.60938 16.1094 6.14062 16.6875
Q6.6875 17.2812 7.51562 17.2812
L70.3125 17.2812
Q71.0469 17.2812 71.5781 16.6875
Q72.125 16.1094 72.125 15.2812
Q72.125 14.5469 71.5781 13.9062
Q71.0469 13.2812 70.3125 13.2812
z

M7.51562 32.7188
Q6.6875 32.7188 6.14062 33.2969
Q5.60938 33.8906 5.60938 34.7188
Q5.60938 35.4531 6.14062 36.0781
Q6.6875 36.7188 7.51562 36.7188
L70.3125 36.7188
Q71.0469 36.7188 71.5781 36.0781
Q72.125 35.4531 72.125 34.7188
Q72.125 33.8906 71.5781 33.2969
Q71.0469 32.7188 70.3125 32.7188
z
" id="Cmr10-3d"/>
    <path d="
M34.2812 27.4844
Q23.3906 27.4844 19.1875 25
Q14.9844 22.5156 14.9844 16.5
Q14.9844 11.7188 18.1406 8.90625
Q21.2969 6.10938 26.7031 6.10938
Q34.1875 6.10938 38.7031 11.4062
Q43.2188 16.7031 43.2188 25.4844
L43.2188 27.4844
z

M52.2031 31.2031
L52.2031 0
L43.2188 0
L43.2188 8.29688
Q40.1406 3.32812 35.5469 0.953125
Q30.9531 -1.42188 24.3125 -1.42188
Q15.9219 -1.42188 10.9531 3.29688
Q6 8.01562 6 15.9219
Q6 25.1406 12.1719 29.8281
Q18.3594 34.5156 30.6094 34.5156
L43.2188 34.5156
L43.2188 35.4062
Q43.2188 41.6094 39.1406 45
Q35.0625 48.3906 27.6875 48.3906
Q23 48.3906 18.5469 47.2656
Q14.1094 46.1406 10.0156 43.8906
L10.0156 52.2031
Q14.9375 54.1094 19.5781 55.0469
Q24.2188 56 28.6094 56
Q40.4844 56 46.3438 49.8438
Q52.2031 43.7031 52.2031 31.2031" id="BitstreamVeraSans-Roman-61"/>
    <path d="
M48.7812 52.5938
L48.7812 44.1875
Q44.9688 46.2969 41.1406 47.3438
Q37.3125 48.3906 33.4062 48.3906
Q24.6562 48.3906 19.8125 42.8438
Q14.9844 37.3125 14.9844 27.2969
Q14.9844 17.2812 19.8125 11.7344
Q24.6562 6.20312 33.4062 6.20312
Q37.3125 6.20312 41.1406 7.25
Q44.9688 8.29688 48.7812 10.4062
L48.7812 2.09375
Q45.0156 0.34375 40.9844 -0.53125
Q36.9688 -1.42188 32.4219 -1.42188
Q20.0625 -1.42188 12.7812 6.34375
Q5.51562 14.1094 5.51562 27.2969
Q5.51562 40.6719 12.8594 48.3281
Q20.2188 56 33.0156 56
Q37.1562 56 41.1094 55.1406
Q45.0625 54.2969 48.7812 52.5938" id="BitstreamVeraSans-Roman-63"/>
    <path d="
M48.6875 27.2969
Q48.6875 37.2031 44.6094 42.8438
Q40.5312 48.4844 33.4062 48.4844
Q26.2656 48.4844 22.1875 42.8438
Q18.1094 37.2031 18.1094 27.2969
Q18.1094 17.3906 22.1875 11.75
Q26.2656 6.10938 33.4062 6.10938
Q40.5312 6.10938 44.6094 11.75
Q48.6875 17.3906 48.6875 27.2969
M18.1094 46.3906
Q20.9531 51.2656 25.2656 53.625
Q29.5938 56 35.5938 56
Q45.5625 56 51.7812 48.0938
Q58.0156 40.1875 58.0156 27.2969
Q58.0156 14.4062 51.7812 6.48438
Q45.5625 -1.42188 35.5938 -1.42188
Q29.5938 -1.42188 25.2656 0.953125
Q20.9531 3.32812 18.1094 8.20312
L18.1094 0
L9.07812 0
L9.07812 75.9844
L18.1094 75.9844
z
" id="BitstreamVeraSans-Roman-62"/>
   </defs>
   <g transform="translate(535.08 21.18)scale(0.12 -0.12)">
    <use transform="translate(0.0 0.015625)" xlink:href="#BitstreamVeraSans-Roman-65"/>
    <use transform="translate(61.5234375 0.015625)" xlink:href="#BitstreamVeraSans-Roman-6c"/>
    <use transform="translate(89.306640625 0.015625)" xlink:href="#BitstreamVeraSans-Roman-6c"/>
    <use transform="translate(117.08984375 0.015625)" xlink:href="#BitstreamVeraSans-Roman-65"/>
    <use transform="translate(178.61328125 0.015625)" xlink:href="#BitstreamVeraSans-Roman-70"/>
    <use transform="translate(242.08984375 0.015625)" xlink:href="#BitstreamVeraSans-Roman-74"/>
    <use transform="translate(281.298828125 0.015625)" xlink:href="#BitstreamVeraSans-Roman-69"/>
    <use transform="translate(309.08203125 0.015625)" xlink:href="#BitstreamVeraSans-Roman-63"/>
    <use transform="translate(364.0625 0.015625)" xlink:href="#BitstreamVeraSans-Roman-61"/>
    <use transform="translate(425.341796875 0.015625)" xlink:href="#BitstreamVeraSans-Roman-6c"/>
    <use transform="translate(453.125 0.015625)" xlink:href="#BitstreamVeraSans-Roman-20"/>
    <use transform="translate(484.912109375 0.015625)" xlink:href="#BitstreamVeraSans-Roman-6f"/>
    <use transform="translate(546.09375 0.015625)" xlink:href="#BitstreamVeraSans-Roman-72"/>
    <use transform="translate(587.20703125 0.015625)" xlink:href="#BitstreamVeraSans-Roman-62"/>
    <use transform="translate(650.68359375 0.015625)" xlink:href="#BitstreamVeraSans-Roman-69"/>
    <use transform="translate(678.466796875 0.015625)" xlink:href="#BitstreamVeraSans-Roman-74"/>
    <use transform="translate(717.67578125 0.015625)" xlink:href="#BitstreamVeraSans-Roman-2c"/>
    <use transform="translate(749.462890625 0.015625)" xlink:href="#BitstreamVeraSans-Roman-20"/>
    <use transform="translate(781.25 0.015625)" xlink:href="#Cmmi10-6d"/>
    <use transform="translate(869.04296875 0.015625)" xlink:href="#Cmr10-31"/>
    <use transform="translate(919.04296875 0.015625)" xlink:href="#Cmmi10-3d"/>
    <use transform="translate(969.04296875 0.015625)" xlink:href="#Cmmi10-4d"/>
    <use transform="translate(1083.62304688 0.015625)" xlink:href="#Cmr10-3d"/>
    <use transform="translate(1167.68164062 0.015625)" xlink:href="#BitstreamVeraSans-Roman-30"/>
    <use transform="translate(1231.3046875 0.015625)" xlink:href="#BitstreamVeraSans-Roman-2e"/>
    <use transform="translate(1263.09179688 0.015625)" xlink:href="#BitstreamVeraSans-Roman-33"/>
   </g>
  </g>
 </g>
 <defs>
  <clipPath id="paa341766a5">
   <rect height="482.4" width="433.084090909" x="153.675" y="60.3"/>
  </clipPath>
  <clipPath id="p9b96c9b755">
   <rect height="482.4" width="433.084090909" x="673.375909091" y="60.3"/>
  </clipPath>
 </defs>
</svg>
