<?xml version="1.0" encoding="utf-8" standalone="no"?>
<!DOCTYPE svg PUBLIC "-//W3C//DTD SVG 1.1//EN"
  "http://www.w3.org/Graphics/SVG/1.1/DTD/svg11.dtd">
<!-- Created with matplotlib (http://matplotlib.org/) -->
<svg height="603pt" version="1.1" viewBox="0 0 1229 603" width="1229pt" xmlns="http://www.w3.org/2000/svg" xmlns:xlink="http://www.w3.org/1999/xlink">
 <defs>
  <style type="text/css">
*{stroke-linecap:butt;stroke-linejoin:round;}
  </style>
 </defs>
 <g id="figure_1">
  <g id="patch_1">
   <path d="
M0 603
L1229.4 603
L1229.4 0
L0 0
z
" style="fill:#ffffff;"/>
  </g>
  <g id="axes_1">
   <g id="patch_2">
    <path d="
M153.675 542.7
L586.759 542.7
L586.759 60.3
L153.675 60.3
z
" style="fill:#ffffff;"/>
   </g>
   <g id="line2d_1">
    <path clip-path="url(#paa341766a5)" d="
M153.675 301.5
L154.813 300.822
L155.457 300.157
L156.051 299.212
L156.657 297.801
L157.276 295.763
L157.919 292.845
L158.6 288.662
L159.305 282.845
L160.023 274.968
L160.74 264.523
L161.446 250.896
L162.126 233.321
L162.782 210.385
L163.413 180.014
L164.057 137.366
L164.366 112.527
L164.378 490.365
L164.477 481.965
L165.9 369.321
L166.717 324.653
L167.756 280.549
L170.367 173.918
L171.691 112.465
L171.704 490.769
L171.803 486.199
L173.844 397.272
L176.134 296.568
L178.608 186.888
L180.415 112.41
L180.427 490.734
L180.526 486.281
L181.59 432.975
L183.682 323.799
L185.055 272.066
L185.773 225.884
L187.319 125.536
L187.555 112.631
L187.567 490.842
L187.666 485.566
L194.175 135.581
L194.583 112.613
L194.595 490.789
L194.694 485.189
L197.181 350.698
L198.901 254.661
L200.51 166.358
L201.364 131.421
L201.958 114.933
L202.119 112.212
L202.131 490.921
L202.23 489.82
L202.403 489.043
L202.428 489.063
L202.515 489.41
L202.651 490.838
L202.663 112.145
L202.762 113.895
L203.566 129.143
L203.616 129.068
L203.727 128.312
L203.938 124.896
L204.284 114.909
L204.358 112.232
L204.371 490.646
L204.47 486.803
L205.101 456.987
L205.93 406.351
L210.298 112.611
L210.31 490.644
L210.409 483.911
L214.913 185.669
L216.039 112.152
L216.051 490.189
L216.15 483.453
L218.6 323.589
L220.011 237.534
L220.58 186.28
L221.162 112.156
L221.174 489.258
L221.273 474.951
L222.238 350.902
L224.453 113.064
L224.466 490.588
L224.565 479.821
L227.918 112.771
L227.93 490.276
L228.029 479.316
L231.37 113.322
L231.383 490.827
L231.482 479.846
L234.835 113.168
L234.847 490.703
L234.946 479.916
L237.235 241.081
L237.928 165.775
L238.287 113.434
L238.3 490.331
L238.399 474.192
L239.797 260.933
L240.774 113.616
L240.787 490.665
L240.886 476.104
L243.323 113.304
L243.336 490.327
L243.435 475.524
L245.872 112.645
L245.885 489.666
L245.984 474.828
L248.409 113.835
L248.421 490.858
L248.52 476.01
L250.958 113.461
L250.97 490.509
L251.069 475.816
L253.458 112.423
L253.47 489.379
L253.569 474.426
L254.188 399.429
L254.881 342.733
L257.034 182.642
L257.838 112.954
L257.85 490.79
L257.949 482.519
L262.441 112.131
L262.453 489.956
L262.552 481.539
L266.537 152.016
L267.069 112.737
L267.081 490.695
L267.18 483.308
L267.997 413.562
L268.653 335.792
L269.593 226.069
L270.125 189.879
L270.632 169.319
L271.115 157.93
L271.56 152.041
L271.969 149.234
L272.328 148.12
L272.625 147.817
L272.897 147.842
L273.355 148.176
L273.899 148.489
L274.208 148.421
L274.505 148.103
L274.852 147.357
L275.26 145.889
L275.743 143.261
L276.312 138.834
L276.968 131.871
L277.71 121.492
L278.255 112.147
L278.267 490.794
L278.366 488.929
L279.294 469.066
L280.383 440.648
L281.905 394.476
L282.685 365.42
L283.155 338.785
L283.637 297.422
L285.58 112.3
L285.592 490.314
L285.691 483.489
L287.857 328.139
L289.775 185.945
L290.752 112.263
L290.765 490.178
L290.864 482.482
L292.868 335.167
L294.205 230.796
L295.256 154.032
L295.863 124.354
L296.222 115.259
L296.382 114.208
L296.407 114.239
L296.494 114.757
L296.667 117.534
L297.211 127.645
L297.236 127.625
L297.31 127.19
L297.459 124.667
L297.719 115.608
L297.793 112.114
L297.805 490.373
L297.904 485.11
L298.412 450.278
L299.167 380.837
L300.8 229.113
L302.062 112.8
L302.074 490.509
L302.173 481.201
L305.923 140.212
L306.22 113.07
L306.232 490.793
L306.331 481.508
L308.261 309.658
L309.598 203.629
L310.13 138.418
L310.291 113.292
L310.303 490.125
L310.402 473.275
L312.505 112.522
L312.518 489.32
L312.617 472.784
L314.758 112.502
L314.77 489.274
L314.869 472.471
L317.01 112.173
L317.022 488.944
L317.121 472.09
L319.262 112.154
L319.274 488.953
L319.373 472.231
L321.464 112.605
L321.477 489.396
L321.576 473.303
L322.132 403.229
L322.652 363.537
L323.11 343.401
L323.493 334.788
L323.778 332.307
L323.902 332.099
L323.939 332.129
L324.063 332.506
L324.285 334.138
L324.657 338.86
L326.302 362.11
L326.711 364.439
L326.995 365.055
L327.168 365.045
L327.354 364.722
L327.626 363.692
L327.998 361.272
L328.48 356.46
L329.062 348.202
L329.705 335.713
L330.373 318.213
L331.017 295.313
L331.623 265.538
L332.217 224.784
L332.91 160.108
L333.38 112.074
L333.393 489.734
L333.492 480.167
L334.296 414.103
L335.075 367.248
L335.805 335.907
L336.498 315.134
L337.142 301.977
L337.736 294.029
L338.255 289.771
L338.701 287.739
L339.072 286.931
L339.394 286.694
L339.753 286.719
L340.272 286.741
L340.52 286.503
L340.78 285.909
L341.077 284.614
L341.423 281.968
L341.807 277.122
L342.227 268.695
L342.673 254.919
L343.131 233.403
L343.601 200.059
L344.121 145.649
L344.38 112.448
L344.393 489.696
L344.492 476.645
L345.284 386.948
L345.841 348.018
L346.385 324.289
L346.905 310.473
L347.363 303.47
L347.746 300.506
L348.031 299.698
L348.192 299.683
L348.365 299.971
L348.637 300.956
L349.095 303.607
L350.147 309.858
L350.456 310.565
L350.629 310.564
L350.79 310.27
L351.025 309.275
L351.335 306.817
L351.706 301.901
L352.139 292.968
L352.621 277.997
L353.129 254.701
L353.648 219.647
L354.218 164.566
L354.663 112.243
L354.676 489.645
L354.775 477.943
L355.542 401.153
L356.148 361.827
L356.73 337.471
L357.299 322.213
L357.843 313.12
L358.351 308.035
L358.833 305.227
L359.365 303.392
L360.169 300.758
L360.59 298.383
L361.023 294.518
L361.481 288.243
L361.964 278.386
L362.483 262.836
L363.015 239.721
L363.56 205.631
L364.129 155.067
L364.513 112.271
L364.525 489.686
L364.624 477.904
L365.589 375.604
L366.183 336.337
L366.74 312.981
L367.26 299.495
L367.718 292.689
L368.089 290.011
L368.349 289.409
L368.485 289.456
L368.658 289.827
L368.943 291.065
L369.462 294.541
L370.155 298.778
L370.427 299.388
L370.564 299.327
L370.724 298.883
L370.947 297.504
L371.244 294.054
L371.603 286.937
L372.011 273.91
L372.444 252.419
L372.89 218.543
L373.372 163.43
L373.719 113.702
L373.731 490.753
L373.83 476.263
L374.486 397.265
L374.993 361.388
L375.476 341.55
L375.946 330.597
L376.392 324.958
L376.825 322.031
L377.443 319.515
L377.938 317.097
L378.359 313.813
L378.817 308.306
L379.324 299.214
L379.881 284.858
L380.487 262.997
L381.143 230.71
L381.848 184.334
L382.467 128.824
L382.616 112.222
L382.628 489.654
L382.727 477.804
L383.94 342.434
L384.521 305.306
L385.103 281.33
L385.647 267.124
L386.105 260.215
L386.439 257.887
L386.637 257.572
L386.748 257.741
L386.934 258.563
L387.219 261.081
L387.639 267.146
L388.704 283.42
L388.902 284.045
L388.914 284.038
L389.001 283.818
L389.149 282.706
L389.372 279.079
L389.669 269.94
L390.015 251.468
L390.386 218.605
L390.77 162.617
L391.005 114.164
L391.017 490.242
L391.116 467.363
L391.871 316.019
L393.01 113.401
L393.022 490.024
L393.121 472.196
L395.113 113.184
L395.126 489.768
L395.225 471.421
L397.217 113.535
L397.229 490.257
L397.328 472.78
L398.664 251.965
L398.937 240.144
L398.999 239.748
L399.048 239.957
L399.172 242.045
L399.642 250.873
L399.692 250.747
L399.803 249.561
L400.013 244.245
L400.347 229.183
L400.855 194.813
L401.77 113.722
L401.783 112.608
L401.795 490.373
L401.894 481.575
L402.797 411.802
L404.938 261.743
L405.507 189.372
L406.064 112.618
L406.076 490.065
L406.175 479.28
L406.707 435.896
L408.848 290.656
L409.405 271.784
L409.863 262.906
L410.197 259.96
L410.407 259.512
L410.519 259.668
L410.704 260.443
L411.075 263.21
L411.484 265.687
L411.558 265.75
L411.608 265.685
L411.731 265.076
L411.917 262.683
L412.152 256.303
L412.437 241.804
L412.758 212.854
L413.117 158.147
L413.327 114.336
L413.34 490.46
L413.439 468.225
L414.045 356.402
L414.577 299.987
L415.555 225.574
L416.347 156.317
L416.755 113.351
L416.767 490.883
L416.866 480.121
L417.856 384.482
L418.648 330.331
L419.341 295.382
L419.564 291.394
L419.613 291.708
L419.725 294.522
L419.947 307.849
L420.244 321.096
L420.269 321.205
L420.294 321.159
L420.294 321.159
L420.381 319.911
L420.566 312.966
L420.999 286.208
L421.692 229.541
L422.36 154.879
L422.694 112.453
L422.707 489.767
L422.806 477.384
L423.746 374.743
L424.637 274.989
L425.751 142.127
L426.023 132.293
L426.209 131.399
L426.295 130.802
L426.419 127.762
L426.605 115.846
L426.642 112.314
L426.654 489.93
L426.753 478.418
L427.149 412.447
L428.139 242.792
L428.931 113.18
L428.943 489.916
L429.042 472.923
L431.133 136.234
L431.307 112.132
L431.319 489.263
L431.418 475.032
L431.901 388.299
L432.891 187.59
L433.212 168.828
L433.46 164.458
L433.559 164.192
L433.596 164.234
L433.72 164.747
L434.177 166.98
L434.202 166.968
L434.301 166.697
L434.462 165.419
L434.709 161.26
L435.044 151.309
L435.477 131.13
L435.774 112.789
L435.786 490.828
L435.885 483.93
L438.063 320.15
L438.446 247.157
L439.127 123.089
L439.201 113.272
L439.214 490.562
L439.313 478.315
L440.946 269.415
L441.75 168.513
L442.245 112.639
L442.257 489.977
L442.356 477.184
L442.814 400.659
L443.693 240.568
L444.089 216.61
L444.646 182.464
L445.549 112.46
L445.561 490.453
L445.66 483.573
L446.254 450.753
L446.687 437.378
L447.009 433.07
L447.603 427.968
L447.801 420.866
L448.036 403.093
L448.308 363.457
L448.692 268.668
L449.224 152.588
L449.546 112.539
L449.558 490.149
L449.657 480.553
L450.251 435.965
L451.191 383.778
L452.911 298.799
L452.936 298.875
L453.01 300.303
L453.159 309.163
L453.505 331.189
L453.518 331.152
L453.592 329.692
L453.778 319.561
L454.384 268.548
L455.077 196.209
L455.646 112.344
L455.658 489.219
L455.757 473.243
L456.487 373.745
L457.118 317.97
L457.465 300.948
L457.514 300.541
L457.552 300.78
L457.552 300.78
L457.651 304.047
L457.898 323.914
L458.046 329.726
L458.084 329.49
L458.183 326.023
L458.418 307.22
L458.888 249.307
L459.395 157.963
L459.606 114.554
L459.618 490.918
L459.717 471.217
L461.486 148.088
L461.833 116.437
L461.932 114.419
L461.981 114.997
L462.105 120.7
L462.34 131.753
L462.377 131.403
L462.476 126.944
L462.625 112.142
L462.637 489.42
L462.736 474.9
L463.107 396.435
L464.308 112.748
L464.32 488.542
L464.419 463.951
L465.953 113.326
L465.966 490.542
L466.065 479.752
L466.226 472.975
L466.25 473.162
L466.349 476.303
L466.535 482.079
L466.572 481.706
L466.671 477.377
L466.869 455.87
L467.216 388.536
L468.255 172.246
L468.527 114.688
L468.54 490.772
L468.638 468.151
L469.356 328.391
L470.222 179.487
L470.445 113.925
L470.457 488.409
L470.556 450.4
L471.423 114.303
L471.435 488.381
L471.534 450.823
L472.425 113.859
L472.437 487.915
L472.536 448.951
L473.415 113.982
L473.427 488.733
L473.526 457.312
L474.021 272.015
L474.368 115.986
L474.38 489.968
L474.479 450.164
L475.246 115.971
L475.258 489.35
L475.357 446.063
L476.125 115.924
L476.137 489.392
L476.236 445.312
L476.991 114.135
L477.003 487.97
L477.102 450.742
L477.845 154.568
L477.931 116.573
L477.944 490.191
L478.043 448.465
L478.785 115.084
L478.797 488.25
L478.896 443.125
L479.639 113.01
L479.651 486.376
L479.75 440.958
L480.456 118.554
L480.468 490.876
L480.567 441.746
L481 295.206
L481.483 113.244
L481.495 487.412
L481.594 451.01
L482.497 114.262
L482.51 488.332
L482.609 449.084
L483.462 115.837
L483.475 489.682
L483.574 454.016
L483.846 402.622
L483.933 399.773
L483.982 400.243
L484.254 407.49
L484.341 406.008
L484.489 397.468
L484.749 366.975
L485.219 278.863
L485.714 201.386
L485.962 187.81
L485.999 187.637
L486.024 187.781
L486.024 187.781
L486.123 190.003
L486.271 193.467
L486.308 193.026
L486.395 188.032
L486.543 163.211
L486.692 115.766
L486.704 489.685
L486.803 445.745
L487.447 192.827
L487.645 112.285
L487.657 486.153
L487.756 447.366
L488.647 112.123
L488.659 486.517
L488.758 448.552
L489.365 244.122
L489.439 241.774
L489.488 242.776
L489.662 248.287
L489.711 247.456
L489.822 239.939
L490.033 207.567
L490.404 115.205
L490.416 490.836
L490.515 465.822
L490.961 384.033
L491.295 355.509
L491.357 354.41
L491.406 354.935
L491.505 360.22
L491.753 380.238
L491.815 378.35
L491.938 362.24
L492.174 296.511
L492.557 115.89
L492.569 489.205
L492.668 446.595
L493.411 112.283
L493.423 485.294
L493.522 437.432
L494.203 117.379
L494.215 490.097
L494.314 447.548
L494.562 398.563
L494.599 397.816
L494.636 398.311
L494.636 398.311
L494.871 407.008
L494.945 405.318
L495.081 394.492
L495.329 353.308
L496.22 182.269
L496.245 182.085
L496.269 182.233
L496.269 182.233
L496.381 185.559
L496.455 187.065
L496.492 186.336
L496.579 178.356
L496.727 139.476
L496.789 113.412
L496.801 486.417
L496.9 433.497
L497.445 185.485
L497.593 114.259
L497.606 487.156
L497.705 441.114
L498.459 112.175
L498.472 486.639
L498.571 450.726
L498.855 300.291
L499.214 115.66
L499.227 490.095
L499.326 454.399
L499.858 214.682
L500.093 112.642
L500.105 485.544
L500.204 436.41
L500.909 116.42
L500.922 486.348
L501.021 417.108
L501.392 250.784
L501.664 116.563
L501.677 488.977
L501.776 439.998
L502.469 116.486
L502.481 490.673
L502.58 452.43
L502.84 304.017
L503.186 114.116
L503.199 488.533
L503.298 453.203
L503.706 263.698
L504.052 113.797
L504.065 486.735
L504.164 435.524
L504.547 284.501
L504.609 280.934
L504.659 283.491
L504.782 293.99
L504.844 290.775
L504.968 263.708
L505.228 145.635
L505.29 114.016
L505.302 486.837
L505.401 442.439
L506.218 113.139
L506.23 490.669
L506.317 489.981
L506.329 112.118
L506.428 121.016
L506.441 121.276
L506.453 121.193
L506.453 121.193
L506.515 115.3
L506.527 113.044
L506.54 489.327
L506.639 457.617
L507.121 207.159
L507.307 116.161
L507.319 488.114
L507.418 431.329
L507.826 263.925
L508.161 186.874
L508.173 187.084
L508.247 195.206
L508.47 223.056
L508.507 222.455
L508.618 214.686
L508.965 168.583
L509.237 141.081
L509.262 141.713
L509.348 152.794
L509.485 175.098
L509.534 172.429
L509.682 138.384
L509.769 112.183
L509.781 487.184
L509.88 454.672
L510.177 313.943
L510.598 112.835
L510.611 486.296
L510.71 436.014
L511.167 205.35
L511.192 205.539
L511.229 205.922
L511.254 205.758
L511.254 205.758
L511.316 202.352
L511.44 179.728
L511.625 113.008
L511.638 486.647
L511.737 445.495
L512.009 379.865
L512.232 363.169
L512.368 290.312
L512.615 114.497
L512.627 487.714
L512.726 449.548
L513.358 203.573
L513.481 112.112
L513.494 483.525
L513.593 444.063
L513.951 354.174
L514.323 217.237
L514.385 214.353
L514.434 216.104
L514.533 221.579
L514.57 219.83
L514.657 198.293
L514.781 113.248
L514.793 480.079
L514.892 382.445
L515.164 240.656
L515.473 117.429
L515.486 489.165
L515.585 420.784
L515.857 286.967
L515.919 285.466
L515.993 268.612
L516.166 154.208
L516.216 117.96
L516.228 488.531
L516.327 434.376
L516.587 367.202
L516.612 366.701
L516.624 367.05
L516.624 367.05
L516.698 378.019
L516.797 395.923
L516.847 390.787
L516.971 334.748
L517.181 119.004
L517.193 484.973
L517.292 389.735
L517.552 119.241
L517.565 485.322
L517.664 372.146
L517.973 114.956
L517.985 480.321
L518.084 349.935
L518.282 114.998
L518.295 477.881
L518.394 361.501
L518.592 122.682
L518.604 488.576
L518.703 370.767
L518.975 132.028
L519.025 126.259
L519.074 131.158
L519.223 158.3
L519.285 153.446
L519.408 115.797
L519.421 488.954
L519.52 424.377
L519.817 187.027
L519.879 189.209
L519.916 186.925
L520.015 155.444
L520.077 118.282
L520.089 488.482
L520.188 415.699
L520.386 351.976
L520.448 336.344
L520.571 216.731
L520.67 116.592
L520.683 486.993
L520.782 444.843
L520.831 439.188
L520.881 443.543
L520.992 462.25
L521.042 455.594
L521.141 398.661
L521.388 115.971
L521.401 489.844
L521.5 481.428
L521.537 489.917
L521.549 114.256
L521.648 123.058
L521.685 114.441
L521.697 488.963
L521.796 424.402
L522.143 180.908
L522.254 116.957
L522.267 485.11
L522.366 397.594
L522.737 122.395
L522.749 490.772
L522.848 448.297
L522.861 447.734
L522.873 448.148
L522.873 448.148
L522.984 466.369
L523.034 455.687
L523.133 366.376
L523.331 154.886
L523.368 159.075
L523.393 161.374
L523.417 160.3
L523.417 160.3
L523.492 129.861
L523.504 120.735
L523.516 489.346
L523.615 380.095
L523.925 113.439
L523.937 479.9
L524.036 433.381
L524.061 434.966
L524.135 445.92
L524.172 435.967
L524.259 339.165
L524.42 147.053
L524.457 151.351
L524.482 153.506
L524.494 152.914
L524.494 152.914
L524.556 127.322
L524.568 117.508
L524.581 485.004
L524.68 358.259
L524.89 177.914
L524.89 177.914" style="fill:none;stroke:#008000;stroke-linecap:square;stroke-width:2;"/>
   </g>
   <g id="patch_3">
    <path d="
M153.675 60.3
L586.759 60.3" style="fill:none;stroke:#000000;stroke-linecap:square;stroke-linejoin:miter;"/>
   </g>
   <g id="patch_4">
    <path d="
M586.759 542.7
L586.759 60.3" style="fill:none;stroke:#000000;stroke-linecap:square;stroke-linejoin:miter;"/>
   </g>
   <g id="patch_5">
    <path d="
M153.675 542.7
L586.759 542.7" style="fill:none;stroke:#000000;stroke-linecap:square;stroke-linejoin:miter;"/>
   </g>
   <g id="patch_6">
    <path d="
M153.675 542.7
L153.675 60.3" style="fill:none;stroke:#000000;stroke-linecap:square;stroke-linejoin:miter;"/>
   </g>
   <g id="matplotlib.axis_1">
    <g id="xtick_1">
     <g id="line2d_2">
      <defs>
       <path d="
M0 0
L0 -4" id="m93b0483c22" style="stroke:#000000;stroke-width:0.5;"/>
      </defs>
      <g>
       <use style="stroke:#000000;stroke-width:0.5;" x="153.675" xlink:href="#m93b0483c22" y="542.7"/>
      </g>
     </g>
     <g id="line2d_3">
      <defs>
       <path d="
M0 0
L0 4" id="m741efc42ff" style="stroke:#000000;stroke-width:0.5;"/>
      </defs>
      <g>
       <use style="stroke:#000000;stroke-width:0.5;" x="153.675" xlink:href="#m741efc42ff" y="60.3"/>
      </g>
     </g>
     <g id="text_1">
      <!-- 0 -->
      <defs>
       <path d="
M31.7812 66.4062
Q24.1719 66.4062 20.3281 58.9062
Q16.5 51.4219 16.5 36.375
Q16.5 21.3906 20.3281 13.8906
Q24.1719 6.39062 31.7812 6.39062
Q39.4531 6.39062 43.2812 13.8906
Q47.125 21.3906 47.125 36.375
Q47.125 51.4219 43.2812 58.9062
Q39.4531 66.4062 31.7812 66.4062
M31.7812 74.2188
Q44.0469 74.2188 50.5156 64.5156
Q56.9844 54.8281 56.9844 36.375
Q56.9844 17.9688 50.5156 8.26562
Q44.0469 -1.42188 31.7812 -1.42188
Q19.5312 -1.42188 13.0625 8.26562
Q6.59375 17.9688 6.59375 36.375
Q6.59375 54.8281 13.0625 64.5156
Q19.5312 74.2188 31.7812 74.2188" id="BitstreamVeraSans-Roman-30"/>
      </defs>
      <g transform="translate(150.6515625 555.818125)scale(0.12 -0.12)">
       <use xlink:href="#BitstreamVeraSans-Roman-30"/>
      </g>
     </g>
    </g>
    <g id="xtick_2">
     <g id="line2d_4">
      <g>
       <use style="stroke:#000000;stroke-width:0.5;" x="215.544155844" xlink:href="#m93b0483c22" y="542.7"/>
      </g>
     </g>
     <g id="line2d_5">
      <g>
       <use style="stroke:#000000;stroke-width:0.5;" x="215.544155844" xlink:href="#m741efc42ff" y="60.3"/>
      </g>
     </g>
     <g id="text_2">
      <!-- 5 -->
      <defs>
       <path d="
M10.7969 72.9062
L49.5156 72.9062
L49.5156 64.5938
L19.8281 64.5938
L19.8281 46.7344
Q21.9688 47.4688 24.1094 47.8281
Q26.2656 48.1875 28.4219 48.1875
Q40.625 48.1875 47.75 41.5
Q54.8906 34.8125 54.8906 23.3906
Q54.8906 11.625 47.5625 5.09375
Q40.2344 -1.42188 26.9062 -1.42188
Q22.3125 -1.42188 17.5469 -0.640625
Q12.7969 0.140625 7.71875 1.70312
L7.71875 11.625
Q12.1094 9.23438 16.7969 8.0625
Q21.4844 6.89062 26.7031 6.89062
Q35.1562 6.89062 40.0781 11.3281
Q45.0156 15.7656 45.0156 23.3906
Q45.0156 31 40.0781 35.4375
Q35.1562 39.8906 26.7031 39.8906
Q22.75 39.8906 18.8125 39.0156
Q14.8906 38.1406 10.7969 36.2812
z
" id="BitstreamVeraSans-Roman-35"/>
      </defs>
      <g transform="translate(212.713843344 555.818125)scale(0.12 -0.12)">
       <use xlink:href="#BitstreamVeraSans-Roman-35"/>
      </g>
     </g>
    </g>
    <g id="xtick_3">
     <g id="line2d_6">
      <g>
       <use style="stroke:#000000;stroke-width:0.5;" x="277.413311688" xlink:href="#m93b0483c22" y="542.7"/>
      </g>
     </g>
     <g id="line2d_7">
      <g>
       <use style="stroke:#000000;stroke-width:0.5;" x="277.413311688" xlink:href="#m741efc42ff" y="60.3"/>
      </g>
     </g>
     <g id="text_3">
      <!-- 10 -->
      <defs>
       <path d="
M12.4062 8.29688
L28.5156 8.29688
L28.5156 63.9219
L10.9844 60.4062
L10.9844 69.3906
L28.4219 72.9062
L38.2812 72.9062
L38.2812 8.29688
L54.3906 8.29688
L54.3906 0
L12.4062 0
z
" id="BitstreamVeraSans-Roman-31"/>
      </defs>
      <g transform="translate(270.835811688 555.818125)scale(0.12 -0.12)">
       <use xlink:href="#BitstreamVeraSans-Roman-31"/>
       <use x="63.623046875" xlink:href="#BitstreamVeraSans-Roman-30"/>
      </g>
     </g>
    </g>
    <g id="xtick_4">
     <g id="line2d_8">
      <g>
       <use style="stroke:#000000;stroke-width:0.5;" x="339.282467532" xlink:href="#m93b0483c22" y="542.7"/>
      </g>
     </g>
     <g id="line2d_9">
      <g>
       <use style="stroke:#000000;stroke-width:0.5;" x="339.282467532" xlink:href="#m741efc42ff" y="60.3"/>
      </g>
     </g>
     <g id="text_4">
      <!-- 15 -->
      <g transform="translate(332.830592532 555.818125)scale(0.12 -0.12)">
       <use xlink:href="#BitstreamVeraSans-Roman-31"/>
       <use x="63.623046875" xlink:href="#BitstreamVeraSans-Roman-35"/>
      </g>
     </g>
    </g>
    <g id="xtick_5">
     <g id="line2d_10">
      <g>
       <use style="stroke:#000000;stroke-width:0.5;" x="401.151623377" xlink:href="#m93b0483c22" y="542.7"/>
      </g>
     </g>
     <g id="line2d_11">
      <g>
       <use style="stroke:#000000;stroke-width:0.5;" x="401.151623377" xlink:href="#m741efc42ff" y="60.3"/>
      </g>
     </g>
     <g id="text_5">
      <!-- 20 -->
      <defs>
       <path d="
M19.1875 8.29688
L53.6094 8.29688
L53.6094 0
L7.32812 0
L7.32812 8.29688
Q12.9375 14.1094 22.625 23.8906
Q32.3281 33.6875 34.8125 36.5312
Q39.5469 41.8438 41.4219 45.5312
Q43.3125 49.2188 43.3125 52.7812
Q43.3125 58.5938 39.2344 62.25
Q35.1562 65.9219 28.6094 65.9219
Q23.9688 65.9219 18.8125 64.3125
Q13.6719 62.7031 7.8125 59.4219
L7.8125 69.3906
Q13.7656 71.7812 18.9375 73
Q24.125 74.2188 28.4219 74.2188
Q39.75 74.2188 46.4844 68.5469
Q53.2188 62.8906 53.2188 53.4219
Q53.2188 48.9219 51.5312 44.8906
Q49.8594 40.875 45.4062 35.4062
Q44.1875 33.9844 37.6406 27.2188
Q31.1094 20.4531 19.1875 8.29688" id="BitstreamVeraSans-Roman-32"/>
      </defs>
      <g transform="translate(394.354748377 555.818125)scale(0.12 -0.12)">
       <use xlink:href="#BitstreamVeraSans-Roman-32"/>
       <use x="63.623046875" xlink:href="#BitstreamVeraSans-Roman-30"/>
      </g>
     </g>
    </g>
    <g id="xtick_6">
     <g id="line2d_12">
      <g>
       <use style="stroke:#000000;stroke-width:0.5;" x="463.020779221" xlink:href="#m93b0483c22" y="542.7"/>
      </g>
     </g>
     <g id="line2d_13">
      <g>
       <use style="stroke:#000000;stroke-width:0.5;" x="463.020779221" xlink:href="#m741efc42ff" y="60.3"/>
      </g>
     </g>
     <g id="text_6">
      <!-- 25 -->
      <g transform="translate(456.349529221 555.818125)scale(0.12 -0.12)">
       <use xlink:href="#BitstreamVeraSans-Roman-32"/>
       <use x="63.623046875" xlink:href="#BitstreamVeraSans-Roman-35"/>
      </g>
     </g>
    </g>
    <g id="xtick_7">
     <g id="line2d_14">
      <g>
       <use style="stroke:#000000;stroke-width:0.5;" x="524.889935065" xlink:href="#m93b0483c22" y="542.7"/>
      </g>
     </g>
     <g id="line2d_15">
      <g>
       <use style="stroke:#000000;stroke-width:0.5;" x="524.889935065" xlink:href="#m741efc42ff" y="60.3"/>
      </g>
     </g>
     <g id="text_7">
      <!-- 30 -->
      <defs>
       <path d="
M40.5781 39.3125
Q47.6562 37.7969 51.625 33
Q55.6094 28.2188 55.6094 21.1875
Q55.6094 10.4062 48.1875 4.48438
Q40.7656 -1.42188 27.0938 -1.42188
Q22.5156 -1.42188 17.6562 -0.515625
Q12.7969 0.390625 7.625 2.20312
L7.625 11.7188
Q11.7188 9.32812 16.5938 8.10938
Q21.4844 6.89062 26.8125 6.89062
Q36.0781 6.89062 40.9375 10.5469
Q45.7969 14.2031 45.7969 21.1875
Q45.7969 27.6406 41.2812 31.2656
Q36.7656 34.9062 28.7188 34.9062
L20.2188 34.9062
L20.2188 43.0156
L29.1094 43.0156
Q36.375 43.0156 40.2344 45.9219
Q44.0938 48.8281 44.0938 54.2969
Q44.0938 59.9062 40.1094 62.9062
Q36.1406 65.9219 28.7188 65.9219
Q24.6562 65.9219 20.0156 65.0312
Q15.375 64.1562 9.8125 62.3125
L9.8125 71.0938
Q15.4375 72.6562 20.3438 73.4375
Q25.25 74.2188 29.5938 74.2188
Q40.8281 74.2188 47.3594 69.1094
Q53.9062 64.0156 53.9062 55.3281
Q53.9062 49.2656 50.4375 45.0938
Q46.9688 40.9219 40.5781 39.3125" id="BitstreamVeraSans-Roman-33"/>
      </defs>
      <g transform="translate(518.110872565 555.818125)scale(0.12 -0.12)">
       <use xlink:href="#BitstreamVeraSans-Roman-33"/>
       <use x="63.623046875" xlink:href="#BitstreamVeraSans-Roman-30"/>
      </g>
     </g>
    </g>
    <g id="xtick_8">
     <g id="line2d_16">
      <g>
       <use style="stroke:#000000;stroke-width:0.5;" x="586.759090909" xlink:href="#m93b0483c22" y="542.7"/>
      </g>
     </g>
     <g id="line2d_17">
      <g>
       <use style="stroke:#000000;stroke-width:0.5;" x="586.759090909" xlink:href="#m741efc42ff" y="60.3"/>
      </g>
     </g>
     <g id="text_8">
      <!-- 35 -->
      <g transform="translate(580.105653409 555.818125)scale(0.12 -0.12)">
       <use xlink:href="#BitstreamVeraSans-Roman-33"/>
       <use x="63.623046875" xlink:href="#BitstreamVeraSans-Roman-35"/>
      </g>
     </g>
    </g>
    <g id="text_9">
     <!-- time($s$) -->
     <defs>
      <path d="
M8.01562 75.875
L15.8281 75.875
Q23.1406 64.3594 26.7812 53.3125
Q30.4219 42.2812 30.4219 31.3906
Q30.4219 20.4531 26.7812 9.375
Q23.1406 -1.70312 15.8281 -13.1875
L8.01562 -13.1875
Q14.5 -2 17.7031 9.0625
Q20.9062 20.125 20.9062 31.3906
Q20.9062 42.6719 17.7031 53.6562
Q14.5 64.6562 8.01562 75.875" id="BitstreamVeraSans-Roman-29"/>
      <path d="
M52 44.1875
Q55.375 50.25 60.0625 53.125
Q64.75 56 71.0938 56
Q79.6406 56 84.2812 50.0156
Q88.9219 44.0469 88.9219 33.0156
L88.9219 0
L79.8906 0
L79.8906 32.7188
Q79.8906 40.5781 77.0938 44.375
Q74.3125 48.1875 68.6094 48.1875
Q61.625 48.1875 57.5625 43.5469
Q53.5156 38.9219 53.5156 30.9062
L53.5156 0
L44.4844 0
L44.4844 32.7188
Q44.4844 40.625 41.7031 44.4062
Q38.9219 48.1875 33.1094 48.1875
Q26.2188 48.1875 22.1562 43.5312
Q18.1094 38.875 18.1094 30.9062
L18.1094 0
L9.07812 0
L9.07812 54.6875
L18.1094 54.6875
L18.1094 46.1875
Q21.1875 51.2188 25.4844 53.6094
Q29.7812 56 35.6875 56
Q41.6562 56 45.8281 52.9688
Q50 49.9531 52 44.1875" id="BitstreamVeraSans-Roman-6d"/>
      <path d="
M8.6875 6.10938
Q11.375 1.51562 19.4844 1.51562
Q23 1.51562 26.1719 2.70312
Q29.3438 3.90625 31.4219 6.29688
Q33.5 8.6875 33.5 12.1094
Q33.5 14.7031 31.6406 16.3594
Q29.7812 18.0156 27.0938 18.6094
L21.6875 19.6719
Q17.9688 20.6094 15.5781 23.1406
Q13.1875 25.6875 13.1875 29.2969
Q13.1875 33.7344 15.5938 37.1562
Q18.0156 40.5781 21.9688 42.375
Q25.9219 44.1875 30.1719 44.1875
Q34.7188 44.1875 38.2969 42.0156
Q41.8906 39.8438 41.8906 35.5938
Q41.8906 33.2969 40.5938 31.5312
Q39.3125 29.7812 37.0156 29.7812
Q35.6875 29.7812 34.7344 30.6406
Q33.7969 31.5 33.7969 32.8125
Q33.7969 33.9844 34.4531 35.0781
Q35.1094 36.1875 36.2031 36.8438
Q37.3125 37.5 38.4844 37.5
Q37.5938 39.6562 35.1719 40.625
Q32.7656 41.6094 29.9844 41.6094
Q27.4375 41.6094 24.8906 40.5781
Q22.3594 39.5469 20.8125 37.5625
Q19.2812 35.5938 19.2812 32.9062
Q19.2812 31.1094 20.5469 29.7344
Q21.8281 28.375 23.6875 27.7812
L29.5 26.6094
Q32.2812 26.0312 34.5938 24.5312
Q36.9219 23.0469 38.25 20.7656
Q39.5938 18.5 39.5938 15.5781
Q39.5938 11.8594 37.5156 8.25
Q35.4531 4.64062 32.4219 2.48438
Q27.0938 -1.125 19.3906 -1.125
Q14.0625 -1.125 9.60938 1.3125
Q5.17188 3.76562 5.17188 8.59375
Q5.17188 11.3281 6.75 13.3438
Q8.34375 15.375 11.0781 15.375
Q12.7031 15.375 13.7969 14.3906
Q14.8906 13.4219 14.8906 11.8125
Q14.8906 9.51562 13.1719 7.8125
Q11.4688 6.10938 9.1875 6.10938
z
" id="Cmmi10-73"/>
      <path d="
M9.42188 54.6875
L18.4062 54.6875
L18.4062 0
L9.42188 0
z

M9.42188 75.9844
L18.4062 75.9844
L18.4062 64.5938
L9.42188 64.5938
z
" id="BitstreamVeraSans-Roman-69"/>
      <path d="
M31 75.875
Q24.4688 64.6562 21.2812 53.6562
Q18.1094 42.6719 18.1094 31.3906
Q18.1094 20.125 21.3125 9.0625
Q24.5156 -2 31 -13.1875
L23.1875 -13.1875
Q15.875 -1.70312 12.2344 9.375
Q8.59375 20.4531 8.59375 31.3906
Q8.59375 42.2812 12.2031 53.3125
Q15.8281 64.3594 23.1875 75.875
z
" id="BitstreamVeraSans-Roman-28"/>
      <path d="
M56.2031 29.5938
L56.2031 25.2031
L14.8906 25.2031
Q15.4844 15.9219 20.4844 11.0625
Q25.4844 6.20312 34.4219 6.20312
Q39.5938 6.20312 44.4531 7.46875
Q49.3125 8.73438 54.1094 11.2812
L54.1094 2.78125
Q49.2656 0.734375 44.1875 -0.34375
Q39.1094 -1.42188 33.8906 -1.42188
Q20.7969 -1.42188 13.1562 6.1875
Q5.51562 13.8125 5.51562 26.8125
Q5.51562 40.2344 12.7656 48.1094
Q20.0156 56 32.3281 56
Q43.3594 56 49.7812 48.8906
Q56.2031 41.7969 56.2031 29.5938
M47.2188 32.2344
Q47.125 39.5938 43.0938 43.9844
Q39.0625 48.3906 32.4219 48.3906
Q24.9062 48.3906 20.3906 44.1406
Q15.875 39.8906 15.1875 32.1719
z
" id="BitstreamVeraSans-Roman-65"/>
      <path d="
M18.3125 70.2188
L18.3125 54.6875
L36.8125 54.6875
L36.8125 47.7031
L18.3125 47.7031
L18.3125 18.0156
Q18.3125 11.3281 20.1406 9.42188
Q21.9688 7.51562 27.5938 7.51562
L36.8125 7.51562
L36.8125 0
L27.5938 0
Q17.1875 0 13.2344 3.875
Q9.28125 7.76562 9.28125 18.0156
L9.28125 47.7031
L2.6875 47.7031
L2.6875 54.6875
L9.28125 54.6875
L9.28125 70.2188
z
" id="BitstreamVeraSans-Roman-74"/>
     </defs>
     <g transform="translate(349.157045455 572.431875)scale(0.12 -0.12)">
      <use transform="translate(0.0 0.015625)" xlink:href="#BitstreamVeraSans-Roman-74"/>
      <use transform="translate(39.208984375 0.015625)" xlink:href="#BitstreamVeraSans-Roman-69"/>
      <use transform="translate(66.9921875 0.015625)" xlink:href="#BitstreamVeraSans-Roman-6d"/>
      <use transform="translate(164.404296875 0.015625)" xlink:href="#BitstreamVeraSans-Roman-65"/>
      <use transform="translate(225.927734375 0.015625)" xlink:href="#BitstreamVeraSans-Roman-28"/>
      <use transform="translate(264.94140625 0.015625)" xlink:href="#Cmmi10-73"/>
      <use transform="translate(311.71875 0.015625)" xlink:href="#BitstreamVeraSans-Roman-29"/>
     </g>
    </g>
   </g>
   <g id="matplotlib.axis_2">
    <g id="ytick_1">
     <g id="line2d_18">
      <defs>
       <path d="
M0 0
L4 0" id="m728421d6d4" style="stroke:#000000;stroke-width:0.5;"/>
      </defs>
      <g>
       <use style="stroke:#000000;stroke-width:0.5;" x="153.675" xlink:href="#m728421d6d4" y="542.7"/>
      </g>
     </g>
     <g id="line2d_19">
      <defs>
       <path d="
M0 0
L-4 0" id="mcb0005524f" style="stroke:#000000;stroke-width:0.5;"/>
      </defs>
      <g>
       <use style="stroke:#000000;stroke-width:0.5;" x="586.759090909" xlink:href="#mcb0005524f" y="542.7"/>
      </g>
     </g>
     <g id="text_10">
      <!-- −4 -->
      <defs>
       <path d="
M10.5938 35.5
L73.1875 35.5
L73.1875 27.2031
L10.5938 27.2031
z
" id="BitstreamVeraSans-Roman-2212"/>
       <path d="
M37.7969 64.3125
L12.8906 25.3906
L37.7969 25.3906
z

M35.2031 72.9062
L47.6094 72.9062
L47.6094 25.3906
L58.0156 25.3906
L58.0156 17.1875
L47.6094 17.1875
L47.6094 0
L37.7969 0
L37.7969 17.1875
L4.89062 17.1875
L4.89062 26.7031
z
" id="BitstreamVeraSans-Roman-34"/>
      </defs>
      <g transform="translate(133.92875 546.01125)scale(0.12 -0.12)">
       <use xlink:href="#BitstreamVeraSans-Roman-2212"/>
       <use x="83.7890625" xlink:href="#BitstreamVeraSans-Roman-34"/>
      </g>
     </g>
    </g>
    <g id="ytick_2">
     <g id="line2d_20">
      <g>
       <use style="stroke:#000000;stroke-width:0.5;" x="153.675" xlink:href="#m728421d6d4" y="482.4"/>
      </g>
     </g>
     <g id="line2d_21">
      <g>
       <use style="stroke:#000000;stroke-width:0.5;" x="586.759090909" xlink:href="#mcb0005524f" y="482.4"/>
      </g>
     </g>
     <g id="text_11">
      <!-- −3 -->
      <g transform="translate(134.2175 485.71125)scale(0.12 -0.12)">
       <use xlink:href="#BitstreamVeraSans-Roman-2212"/>
       <use x="83.7890625" xlink:href="#BitstreamVeraSans-Roman-33"/>
      </g>
     </g>
    </g>
    <g id="ytick_3">
     <g id="line2d_22">
      <g>
       <use style="stroke:#000000;stroke-width:0.5;" x="153.675" xlink:href="#m728421d6d4" y="422.1"/>
      </g>
     </g>
     <g id="line2d_23">
      <g>
       <use style="stroke:#000000;stroke-width:0.5;" x="586.759090909" xlink:href="#mcb0005524f" y="422.1"/>
      </g>
     </g>
     <g id="text_12">
      <!-- −2 -->
      <g transform="translate(134.4575 425.41125)scale(0.12 -0.12)">
       <use xlink:href="#BitstreamVeraSans-Roman-2212"/>
       <use x="83.7890625" xlink:href="#BitstreamVeraSans-Roman-32"/>
      </g>
     </g>
    </g>
    <g id="ytick_4">
     <g id="line2d_24">
      <g>
       <use style="stroke:#000000;stroke-width:0.5;" x="153.675" xlink:href="#m728421d6d4" y="361.8"/>
      </g>
     </g>
     <g id="line2d_25">
      <g>
       <use style="stroke:#000000;stroke-width:0.5;" x="586.759090909" xlink:href="#mcb0005524f" y="361.8"/>
      </g>
     </g>
     <g id="text_13">
      <!-- −1 -->
      <g transform="translate(134.36375 365.11125)scale(0.12 -0.12)">
       <use xlink:href="#BitstreamVeraSans-Roman-2212"/>
       <use x="83.7890625" xlink:href="#BitstreamVeraSans-Roman-31"/>
      </g>
     </g>
    </g>
    <g id="ytick_5">
     <g id="line2d_26">
      <g>
       <use style="stroke:#000000;stroke-width:0.5;" x="153.675" xlink:href="#m728421d6d4" y="301.5"/>
      </g>
     </g>
     <g id="line2d_27">
      <g>
       <use style="stroke:#000000;stroke-width:0.5;" x="586.759090909" xlink:href="#mcb0005524f" y="301.5"/>
      </g>
     </g>
     <g id="text_14">
      <!-- 0 -->
      <g transform="translate(143.628125 304.81125)scale(0.12 -0.12)">
       <use xlink:href="#BitstreamVeraSans-Roman-30"/>
      </g>
     </g>
    </g>
    <g id="ytick_6">
     <g id="line2d_28">
      <g>
       <use style="stroke:#000000;stroke-width:0.5;" x="153.675" xlink:href="#m728421d6d4" y="241.2"/>
      </g>
     </g>
     <g id="line2d_29">
      <g>
       <use style="stroke:#000000;stroke-width:0.5;" x="586.759090909" xlink:href="#mcb0005524f" y="241.2"/>
      </g>
     </g>
     <g id="text_15">
      <!-- 1 -->
      <g transform="translate(144.46625 244.51125)scale(0.12 -0.12)">
       <use xlink:href="#BitstreamVeraSans-Roman-31"/>
      </g>
     </g>
    </g>
    <g id="ytick_7">
     <g id="line2d_30">
      <g>
       <use style="stroke:#000000;stroke-width:0.5;" x="153.675" xlink:href="#m728421d6d4" y="180.9"/>
      </g>
     </g>
     <g id="line2d_31">
      <g>
       <use style="stroke:#000000;stroke-width:0.5;" x="586.759090909" xlink:href="#mcb0005524f" y="180.9"/>
      </g>
     </g>
     <g id="text_16">
      <!-- 2 -->
      <g transform="translate(144.12125 184.21125)scale(0.12 -0.12)">
       <use xlink:href="#BitstreamVeraSans-Roman-32"/>
      </g>
     </g>
    </g>
    <g id="ytick_8">
     <g id="line2d_32">
      <g>
       <use style="stroke:#000000;stroke-width:0.5;" x="153.675" xlink:href="#m728421d6d4" y="120.6"/>
      </g>
     </g>
     <g id="line2d_33">
      <g>
       <use style="stroke:#000000;stroke-width:0.5;" x="586.759090909" xlink:href="#mcb0005524f" y="120.6"/>
      </g>
     </g>
     <g id="text_17">
      <!-- 3 -->
      <g transform="translate(143.916875 123.91125)scale(0.12 -0.12)">
       <use xlink:href="#BitstreamVeraSans-Roman-33"/>
      </g>
     </g>
    </g>
    <g id="ytick_9">
     <g id="line2d_34">
      <g>
       <use style="stroke:#000000;stroke-width:0.5;" x="153.675" xlink:href="#m728421d6d4" y="60.3"/>
      </g>
     </g>
     <g id="line2d_35">
      <g>
       <use style="stroke:#000000;stroke-width:0.5;" x="586.759090909" xlink:href="#mcb0005524f" y="60.3"/>
      </g>
     </g>
     <g id="text_18">
      <!-- 4 -->
      <g transform="translate(143.3 63.61125)scale(0.12 -0.12)">
       <use xlink:href="#BitstreamVeraSans-Roman-34"/>
      </g>
     </g>
    </g>
    <g id="text_19">
     <!-- $\theta$($Rad$) -->
     <defs>
      <path d="
M16.1094 -1.125
Q11.5781 -1.125 8.84375 2.1875
Q6.10938 5.51562 5.04688 10.2031
Q4 14.8906 4 19.4844
L4 19.5781
Q4 24.5625 4.95312 29.9219
Q5.90625 35.2969 7.70312 40.6406
Q9.51562 46 11.625 50.2031
Q13.0938 53.125 15.4062 56.7344
Q17.7188 60.3594 20.5781 63.5
Q23.4375 66.6562 26.7344 68.5781
Q30.0312 70.5156 33.4062 70.5156
L33.5 70.5156
Q37.1094 70.5156 39.5156 68.5
Q41.9375 66.5 43.2812 63.375
Q44.625 60.25 45.1562 56.6875
Q45.7031 53.125 45.7031 49.9062
Q45.7031 42.3281 43.6562 34.4375
Q41.6094 26.5625 37.9844 19.1875
Q36.625 16.4062 34.2031 12.6406
Q31.7812 8.89062 29.0781 5.90625
Q26.375 2.9375 23 0.90625
Q19.625 -1.125 16.2188 -1.125
z

M16.3125 1.51562
Q19.625 1.51562 22.6719 5.04688
Q25.7344 8.59375 28.0312 13.6406
Q30.3281 18.7031 32.0625 24
Q33.7969 29.2969 34.625 33.0156
L14.2031 33.0156
Q12.6406 26.7031 11.7656 22.1406
Q10.8906 17.5781 10.8906 13.1875
Q10.8906 1.51562 16.3125 1.51562
M14.9844 36.5312
L35.5 36.5312
Q36.5781 40.9219 37.2031 43.875
Q37.8438 46.8281 38.2812 50.0938
Q38.7188 53.375 38.7188 56.2031
Q38.7188 67.9219 33.4062 67.9219
Q27.0469 67.9219 22.4375 57.6875
Q17.8281 47.4688 14.9844 36.5312" id="Cmmi10-b5"/>
      <path d="
M17.3906 -1.125
Q11.0781 -1.125 7.4375 3.64062
Q3.8125 8.40625 3.8125 14.8906
Q3.8125 21.2969 7.125 28.1719
Q10.4531 35.0625 16.0938 39.625
Q21.7344 44.1875 28.2188 44.1875
Q31.2031 44.1875 33.5469 42.5781
Q35.8906 40.9688 37.2031 38.1875
Q38.3281 42.1875 41.6094 42.1875
Q42.875 42.1875 43.7188 41.4219
Q44.5781 40.6719 44.5781 39.4062
Q44.5781 39.1094 44.5469 38.9531
Q44.5312 38.8125 44.4844 38.625
L37.5 10.6875
Q36.8125 7.71875 36.8125 5.8125
Q36.8125 1.51562 39.7031 1.51562
Q42.8281 1.51562 44.4531 5.48438
Q46.0938 9.46875 47.2188 14.7031
Q47.4062 15.2812 48 15.2812
L49.2188 15.2812
Q49.6094 15.2812 49.8438 14.9375
Q50.0938 14.5938 50.0938 14.3125
Q48.3438 7.32812 46.2656 3.09375
Q44.1875 -1.125 39.5 -1.125
Q36.1406 -1.125 33.5469 0.84375
Q30.9531 2.82812 30.3281 6.10938
Q23.875 -1.125 17.3906 -1.125
M17.4844 1.51562
Q21.0938 1.51562 24.4844 4.21875
Q27.875 6.9375 30.3281 10.5938
Q30.4219 10.6875 30.4219 10.8906
L35.7969 32.625
L35.8906 32.9062
Q35.2969 36.4688 33.3125 39.0312
Q31.3438 41.6094 27.9844 41.6094
Q24.6094 41.6094 21.7031 38.8438
Q18.7969 36.0781 16.7969 32.3281
Q14.8438 28.3281 13.0625 21.3438
Q11.2812 14.3594 11.2812 10.5
Q11.2812 7.03125 12.7656 4.26562
Q14.2656 1.51562 17.4844 1.51562" id="Cmmi10-61"/>
      <path d="
M4.89062 0
Q3.90625 0 3.90625 1.3125
Q3.95312 1.5625 4.09375 2.17188
Q4.25 2.78125 4.51562 3.14062
Q4.78125 3.51562 5.17188 3.51562
Q11.2812 3.51562 13.7188 4.20312
Q14.9844 4.64062 15.5781 6.89062
L29.2969 61.8125
Q29.5 62.7969 29.5 63.1875
Q29.5 64.2656 28.3281 64.4062
Q26.4219 64.7969 21.0938 64.7969
Q20.125 64.7969 20.125 66.1094
Q20.1719 66.3594 20.3125 66.9688
Q20.4531 67.5781 20.7188 67.9375
Q21 68.3125 21.3906 68.3125
L51.7031 68.3125
Q55.3281 68.3125 59.2344 67.4844
Q63.1406 66.6562 66.4062 64.875
Q69.6719 63.0938 71.7656 60.125
Q73.875 57.1719 73.875 53.2188
Q73.875 48.1875 70.5469 44.2344
Q67.2344 40.2812 62.1562 37.625
Q57.0781 34.9688 52.2969 33.8906
Q56.2031 32.4688 58.6875 29.3594
Q61.1875 26.2656 61.1875 22.2188
Q61.1875 21.6875 61.1562 21.4062
Q61.1406 21.1406 61.0781 20.7969
L60.2969 11.9219
Q60.2031 9.96875 60.1094 8.59375
Q60.0156 7.23438 60.0156 6.39062
Q60.0156 3.65625 60.8125 2.01562
Q61.625 0.390625 64.0156 0.390625
Q67.1406 0.390625 69.5 3.29688
Q71.875 6.20312 72.6094 9.625
Q73.0469 10.5 73.5781 10.5
L74.5156 10.5
Q75.4844 10.5 75.4844 9.1875
Q74.75 6.29688 73.1562 3.70312
Q71.5781 1.125 69.1562 -0.53125
Q66.75 -2.20312 63.9219 -2.20312
Q58.0625 -2.20312 53.9375 0.40625
Q49.8125 3.03125 49.8125 8.59375
Q49.8125 10.6875 50.2031 12.3125
L52.3906 21.1875
Q52.7812 22.4062 52.7812 24.0312
Q52.7812 28.1719 49.9688 30.5312
Q47.1719 32.9062 42.9219 32.9062
L30.6094 32.9062
L24.0312 6.5
Q23.7812 5.67188 23.7812 5.07812
Q23.7812 4.04688 25 3.90625
Q26.9062 3.51562 32.1719 3.51562
Q33.2031 3.51562 33.2031 2.20312
Q32.8594 0.78125 32.6562 0.390625
Q32.4688 0 31.5 0
z

M31.2031 35.5
L42.2812 35.5
Q53.1719 35.5 58.6875 41.0156
Q61.2344 43.5625 62.7188 47.4844
Q64.2031 51.4219 64.2031 55.3281
Q64.2031 59.0312 62.0312 61.125
Q59.8594 63.2344 56.6562 64.0156
Q53.4688 64.7969 49.6094 64.7969
L42.9219 64.7969
Q40.1875 64.7969 39.2969 64.3281
Q38.4219 63.875 37.7031 61.375
z
" id="Cmmi10-52"/>
      <path d="
M17.3906 -1.125
Q11.0781 -1.125 7.4375 3.64062
Q3.8125 8.40625 3.8125 14.8906
Q3.8125 21.2969 7.125 28.1719
Q10.4531 35.0625 16.0938 39.625
Q21.7344 44.1875 28.2188 44.1875
Q31.1562 44.1875 33.5156 42.5469
Q35.8906 40.9219 37.2031 38.1875
L42.8281 60.5
Q43.2188 62.2031 43.3125 63.1875
Q43.3125 64.7969 36.8125 64.7969
Q35.7969 64.7969 35.7969 66.1094
Q35.8438 66.3594 36.0156 66.9844
Q36.1875 67.625 36.4531 67.9688
Q36.7188 68.3125 37.2031 68.3125
L50.6875 69.3906
Q51.9062 69.3906 51.9062 68.1094
L37.5 10.5938
Q36.8125 8.9375 36.8125 5.8125
Q36.8125 1.51562 39.7031 1.51562
Q42.8281 1.51562 44.4531 5.48438
Q46.0938 9.46875 47.2188 14.7031
Q47.4062 15.2812 48 15.2812
L49.2188 15.2812
Q49.6094 15.2812 49.8438 14.9375
Q50.0938 14.5938 50.0938 14.3125
Q48.3438 7.32812 46.2656 3.09375
Q44.1875 -1.125 39.5 -1.125
Q36.1406 -1.125 33.5469 0.84375
Q30.9531 2.82812 30.3281 6.10938
Q23.875 -1.125 17.3906 -1.125
M17.4844 1.51562
Q21.0938 1.51562 24.4844 4.21875
Q27.875 6.9375 30.3281 10.5938
Q30.4219 10.6875 30.4219 10.9844
L35.8906 33.0156
Q35.2969 36.5312 33.2969 39.0625
Q31.2969 41.6094 27.9844 41.6094
Q24.6094 41.6094 21.7031 38.8438
Q18.7969 36.0781 16.7969 32.3281
Q14.8438 28.3281 13.0625 21.3438
Q11.2812 14.3594 11.2812 10.5
Q11.2812 7.03125 12.7656 4.26562
Q14.2656 1.51562 17.4844 1.51562" id="Cmmi10-64"/>
     </defs>
     <g transform="translate(126.433125 319.86)rotate(-90.0)scale(0.12 -0.12)">
      <use transform="translate(0.0 0.125)" xlink:href="#Cmmi10-b5"/>
      <use transform="translate(46.923828125 0.125)" xlink:href="#BitstreamVeraSans-Roman-28"/>
      <use transform="translate(85.9375 0.125)" xlink:href="#Cmmi10-52"/>
      <use transform="translate(161.81640625 0.125)" xlink:href="#Cmmi10-61"/>
      <use transform="translate(214.599609375 0.125)" xlink:href="#Cmmi10-64"/>
      <use transform="translate(266.6015625 0.125)" xlink:href="#BitstreamVeraSans-Roman-29"/>
     </g>
    </g>
   </g>
   <g id="legend_1">
    <g id="line2d_36">
     <path d="
M540.777 73.3932
L554.772 73.3932" style="fill:none;stroke:#008000;stroke-linecap:square;stroke-width:2;"/>
    </g>
    <g id="line2d_37"/>
    <g id="text_20">
     <!-- $\theta$-$t$ -->
     <defs>
      <path d="
M4.89062 31.3906
L31.2031 31.3906
L31.2031 23.3906
L4.89062 23.3906
z
" id="BitstreamVeraSans-Roman-2d"/>
      <path d="
M6.20312 8.10938
Q6.20312 9.57812 6.5 10.8906
L13.7188 39.5938
L3.21875 39.5938
Q2.20312 39.5938 2.20312 40.9219
Q2.59375 43.1094 3.51562 43.1094
L14.5938 43.1094
L18.6094 59.4219
Q19 60.75 20.1719 61.6719
Q21.3438 62.5938 22.7969 62.5938
Q24.0781 62.5938 24.9219 61.8281
Q25.7812 61.0781 25.7812 59.8125
Q25.7812 59.5156 25.75 59.3438
Q25.7344 59.1875 25.6875 58.9844
L21.6875 43.1094
L31.9844 43.1094
Q33.0156 43.1094 33.0156 41.7969
Q32.9531 41.5469 32.8125 40.9531
Q32.6719 40.375 32.4219 39.9844
Q32.1719 39.5938 31.6875 39.5938
L20.7969 39.5938
L13.625 10.6875
Q12.8906 7.85938 12.8906 5.8125
Q12.8906 1.51562 15.8281 1.51562
Q20.2188 1.51562 23.6094 5.64062
Q27 9.76562 28.8125 14.7031
Q29.2031 15.2812 29.5938 15.2812
L30.8125 15.2812
Q31.2031 15.2812 31.4375 15.0156
Q31.6875 14.75 31.6875 14.4062
Q31.6875 14.2031 31.5938 14.1094
Q29.3906 8.0625 25.1875 3.46875
Q21 -1.125 15.5781 -1.125
Q11.625 -1.125 8.90625 1.45312
Q6.20312 4.04688 6.20312 8.10938" id="Cmmi10-74"/>
     </defs>
     <g transform="translate(565.767490909 76.891798125)scale(0.09996 -0.09996)">
      <use transform="translate(0.0 0.484375)" xlink:href="#Cmmi10-b5"/>
      <use transform="translate(46.923828125 0.484375)" xlink:href="#BitstreamVeraSans-Roman-2d"/>
      <use transform="translate(83.0078125 0.484375)" xlink:href="#Cmmi10-74"/>
     </g>
    </g>
   </g>
  </g>
  <g id="axes_2">
   <g id="patch_7">
    <path d="
M673.376 542.7
L1106.46 542.7
L1106.46 60.3
L673.376 60.3
z
" style="fill:#ffffff;"/>
   </g>
   <g id="line2d_38">
    <path clip-path="url(#p9b96c9b755)" d="
M673.374 362.422
L674.066 356.404
L674.794 347.959
L676.269 329.961
L676.56 328.841
L676.688 328.8
L676.706 328.817
L676.852 329.144
L677.088 330.358
L677.471 333.703
L679.565 354.389
L680.166 357.444
L680.712 359.185
L681.185 360.043
L681.604 360.383
L681.968 360.408
L682.351 360.206
L682.842 359.665
L683.534 358.53
L685.264 355.562
L685.792 355.126
L686.229 355.034
L686.666 355.179
L687.194 355.615
L688.123 356.743
L689.088 357.785
L689.671 358.11
L690.162 358.147
L690.672 357.953
L691.273 357.463
L692.347 356.219
L693.167 355.435
L693.677 355.224
L694.114 355.27
L694.569 355.548
L695.133 356.174
L696.171 357.743
L697.064 358.91
L697.592 359.277
L698.01 359.32
L698.393 359.135
L698.812 358.66
L699.285 357.757
L699.85 356.17
L700.596 353.338
L701.907 348.288
L702.271 347.657
L702.49 347.609
L702.69 347.828
L702.945 348.512
L703.273 350.116
L703.71 353.537
L704.493 361.982
L704.948 365.579
L705.148 366.005
L705.239 365.893
L705.403 365.189
L705.658 362.9
L706.132 356.122
L706.987 344.187
L707.424 340.874
L707.734 339.883
L707.934 339.787
L708.098 339.988
L708.353 340.713
L708.79 342.77
L710.393 350.949
L710.902 352.26
L711.303 352.746
L711.613 352.821
L711.922 352.666
L712.323 352.182
L712.942 351.017
L714.107 348.81
L714.562 348.401
L714.927 348.348
L715.291 348.531
L715.764 349.045
L717.476 351.143
L717.895 351.232
L718.295 351.093
L718.787 350.662
L719.752 349.418
L720.407 348.78
L720.826 348.646
L721.209 348.753
L721.646 349.126
L722.319 350.045
L723.285 351.306
L723.74 351.569
L724.104 351.544
L724.486 351.274
L724.942 350.644
L725.633 349.235
L726.544 347.466
L726.926 347.141
L727.199 347.162
L727.473 347.425
L727.819 348.121
L728.274 349.618
L728.911 352.597
L729.894 358.39
L730.732 364.495
L731.278 370.184
L731.752 377.671
L732.298 390.396
L732.844 401.837
L733.008 402.66
L733.026 402.641
L733.117 402.204
L733.299 399.707
L733.645 390.784
L734.483 368.97
L735.029 360.739
L735.758 353.291
L736.868 344.26
L737.488 340.701
L737.906 339.379
L738.198 339.048
L738.416 339.1
L738.671 339.439
L739.072 340.405
L740.346 343.726
L740.711 344.065
L741.002 344.067
L741.311 343.831
L741.748 343.178
L743.023 341.108
L743.369 340.984
L743.679 341.103
L744.079 341.528
L745.609 343.435
L745.955 343.428
L746.319 343.18
L746.829 342.524
L747.83 341.209
L748.194 341.078
L748.522 341.2
L748.905 341.605
L749.615 342.77
L750.252 343.63
L750.616 343.8
L750.926 343.7
L751.272 343.319
L751.745 342.415
L752.892 340.104
L753.184 339.977
L753.42 340.112
L753.712 340.589
L754.112 341.757
L754.786 344.57
L755.66 347.994
L756.061 348.821
L756.316 348.955
L756.516 348.802
L756.753 348.281
L757.044 347.052
L757.408 344.41
L757.809 339.719
L758.264 331.479
L758.792 317.437
L759.721 292.207
L759.921 290.987
L759.994 291.139
L760.14 292.338
L760.394 296.739
L761.523 318.814
L761.815 320.47
L761.96 320.622
L761.979 320.612
L762.106 320.382
L762.325 319.412
L762.743 316.283
L763.363 312.026
L763.636 311.4
L763.781 311.454
L763.982 311.906
L764.364 313.499
L764.91 315.525
L765.165 315.81
L765.347 315.709
L765.602 315.213
L766.586 312.925
L766.786 312.983
L767.041 313.358
L768.024 315.089
L768.243 315.006
L768.534 314.601
L769.371 313.296
L769.608 313.331
L769.881 313.641
L770.81 314.9
L771.047 314.823
L771.356 314.44
L772.139 313.371
L772.376 313.394
L772.649 313.677
L773.632 314.921
L773.869 314.799
L774.197 314.324
L774.907 313.263
L775.144 313.274
L775.399 313.559
L775.927 314.623
L776.309 315.143
L776.528 315.148
L776.764 314.88
L777.147 314.002
L777.693 312.838
L777.912 312.769
L778.094 312.958
L778.367 313.621
L779.277 316.155
L779.441 316.112
L779.623 315.774
L779.915 314.641
L780.861 310.462
L780.971 310.532
L781.135 311.012
L781.389 312.643
L781.826 317.282
L782.591 325.227
L782.883 326.389
L782.992 326.414
L783.01 326.394
L783.137 326.053
L783.338 324.755
L783.611 321.33
L783.975 313.473
L784.467 297.226
L785.104 277.453
L785.323 275.775
L785.395 275.999
L785.541 277.47
L785.869 283.866
L786.379 292.75
L786.615 293.992
L786.688 293.969
L786.706 293.936
L786.852 293.314
L787.143 290.718
L787.69 286.083
L787.854 285.812
L787.872 285.821
L787.999 286.089
L788.236 287.294
L788.8 290.239
L788.964 290.368
L788.983 290.357
L789.128 290.1
L789.42 288.969
L789.875 287.382
L790.057 287.321
L790.221 287.584
L790.603 288.811
L790.949 289.564
L791.113 289.56
L791.313 289.244
L792.078 287.741
L792.26 287.909
L792.606 288.671
L792.989 289.302
L793.171 289.281
L793.389 288.98
L794.063 287.904
L794.245 288.002
L794.536 288.497
L794.992 289.202
L795.192 289.181
L795.429 288.871
L796.048 287.953
L796.248 288.039
L796.539 288.509
L797.013 289.207
L797.213 289.166
L797.468 288.8
L798.051 287.913
L798.233 287.983
L798.488 288.391
L799.034 289.301
L799.216 289.257
L799.453 288.885
L800.09 287.755
L800.254 287.846
L800.491 288.309
L801.092 289.562
L801.255 289.487
L801.474 289.03
L802.166 287.341
L802.312 287.482
L802.53 288.113
L803.204 290.292
L803.331 290.189
L803.513 289.627
L803.896 287.441
L804.242 286.018
L804.333 285.993
L804.369 286.035
L804.515 286.506
L804.77 288.361
L805.425 293.474
L805.498 293.52
L805.535 293.478
L805.662 292.974
L805.862 291.029
L806.208 284.984
L806.7 277.269
L806.791 277.047
L806.827 277.118
L806.937 277.903
L807.137 281.534
L807.501 293.467
L808.448 325.423
L808.958 335.171
L809.395 339.852
L809.759 341.695
L809.996 342.059
L810.141 341.997
L810.342 341.593
L810.651 340.338
L811.125 337.313
L812.327 329.259
L812.654 328.478
L812.855 328.439
L813.055 328.702
L813.364 329.563
L814.566 333.355
L814.839 333.51
L815.058 333.382
L815.349 332.914
L815.914 331.473
L816.478 330.274
L816.77 330.066
L817.006 330.15
L817.298 330.533
L817.862 331.758
L818.427 332.762
L818.736 332.927
L818.991 332.81
L819.319 332.357
L820.648 330.131
L820.885 330.227
L821.176 330.628
L821.686 331.809
L822.323 333.125
L822.615 333.314
L822.833 333.218
L823.106 332.808
L823.507 331.724
L824.436 329.097
L824.672 328.976
L824.854 329.139
L825.109 329.751
L825.492 331.394
L826.784 337.554
L827.003 337.718
L827.149 337.567
L827.349 336.972
L827.622 335.348
L827.968 331.746
L828.387 324.819
L829.042 309.499
L829.534 300.166
L829.734 299.05
L829.753 299.054
L829.825 299.254
L829.971 300.539
L830.226 305.385
L830.699 319.903
L831.683 349.704
L832.338 362.838
L832.994 371.716
L833.649 377.707
L834.268 381.495
L834.851 383.819
L835.379 385.112
L835.853 385.747
L836.271 385.975
L836.69 385.95
L837.164 385.679
L837.765 385.054
L838.602 383.829
L839.877 381.524
L842.007 377.162
L846.833 367.107
L847.688 366.004
L849.018 364.441
L849.364 363.435
L849.691 361.71
L850.037 358.528
L850.42 352.636
L850.893 341.339
L851.968 314.085
L852.222 312.142
L852.295 312.061
L852.332 312.096
L852.441 312.491
L852.641 314.208
L853.024 319.886
L854.098 336.545
L854.571 340.469
L854.936 341.958
L855.191 342.312
L855.373 342.262
L855.591 341.912
L855.919 340.902
L856.52 338.157
L857.266 335.032
L857.612 334.358
L857.849 334.279
L858.068 334.473
L858.377 335.113
L859.033 337.161
L859.615 338.643
L859.961 339.002
L860.198 338.977
L860.471 338.683
L860.854 337.879
L862.11 334.946
L862.365 334.887
L862.602 335.085
L862.929 335.72
L863.512 337.468
L864.168 339.206
L864.495 339.564
L864.714 339.535
L864.951 339.243
L865.26 338.459
L865.734 336.543
L866.699 332.537
L866.954 332.249
L867.099 332.343
L867.3 332.81
L867.573 334.095
L867.973 337.238
L868.556 343.877
L869.266 354.578
L869.812 366.234
L870.322 382.505
L870.941 401.488
L871.051 402.048
L871.087 401.932
L871.196 400.667
L871.415 394.505
L872.871 343.715
L873.654 328.964
L874.183 322.478
L874.51 320.654
L874.692 320.436
L874.711 320.444
L874.856 320.68
L875.093 321.627
L875.603 324.889
L876.185 328.048
L876.495 328.747
L876.695 328.779
L876.896 328.506
L877.205 327.603
L878.334 323.878
L878.534 323.839
L878.735 324.061
L879.044 324.82
L880.082 327.653
L880.319 327.711
L880.537 327.492
L880.847 326.795
L881.94 324.003
L882.14 324.025
L882.358 324.33
L882.704 325.303
L883.651 328.179
L883.87 328.287
L884.052 328.125
L884.307 327.514
L884.689 325.906
L885.527 322.29
L885.727 322.124
L885.873 322.291
L886.073 322.938
L886.383 324.825
L886.929 329.87
L887.73 336.853
L888.094 338.442
L888.313 338.691
L888.44 338.561
L888.622 337.994
L888.877 336.385
L889.205 332.766
L889.606 325.62
L890.061 313.056
L890.589 291.498
L891.226 266.692
L891.426 264.713
L891.481 264.831
L891.609 266.055
L891.9 271.991
L892.355 280.233
L892.555 281.092
L892.646 280.874
L892.829 279.522
L893.575 272.898
L893.666 273.026
L893.83 273.827
L894.54 277.933
L894.649 277.791
L894.85 276.966
L895.432 274.305
L895.542 274.333
L895.706 274.754
L896.416 277.178
L896.434 277.169
L896.58 276.923
L896.871 275.823
L897.235 274.735
L897.381 274.747
L897.545 275.091
L898.237 276.947
L898.255 276.938
L898.4 276.717
L898.71 275.686
L899.056 274.822
L899.202 274.859
L899.384 275.261
L900.039 276.952
L900.185 276.765
L900.44 275.94
L900.859 274.718
L901.004 274.75
L901.186 275.187
L901.842 277.198
L901.86 277.191
L901.988 277.002
L902.224 276.097
L902.698 274.284
L902.807 274.295
L902.825 274.319
L902.989 274.804
L903.372 276.995
L903.663 277.982
L903.772 277.904
L903.936 277.272
L904.264 274.762
L904.61 272.811
L904.683 272.803
L904.701 272.829
L904.828 273.331
L905.065 275.562
L905.648 281.381
L905.702 281.415
L905.739 281.36
L905.848 280.797
L906.048 278.21
L906.431 269.393
L906.777 263.655
L906.831 263.567
L906.868 263.673
L906.977 264.815
L907.177 270.029
L907.56 287.482
L908.47 328.804
L909.235 352.766
L910.036 371.313
L910.801 384.237
L911.42 391.373
L911.912 394.797
L912.294 396.126
L912.567 396.435
L912.767 396.368
L913.022 395.982
L913.405 394.91
L914.042 392.334
L916.573 381.505
L919.778 369.273
L920.543 364.936
L921.235 359.662
L921.89 352.832
L922.564 343.267
L924.184 318.483
L924.348 318.141
L924.367 318.15
L924.476 318.395
L924.658 319.501
L924.986 323.205
L926.861 347.441
L928.045 359.083
L929.046 366.851
L930.048 372.949
L931.086 377.938
L932.069 381.629
L932.888 383.905
L933.507 385.049
L933.981 385.523
L934.345 385.618
L934.673 385.483
L935.037 385.067
L935.456 384.217
L935.947 382.668
L936.512 380.08
L937.131 376.096
L937.768 370.434
L938.387 362.852
L938.988 352.621
L939.589 338.35
L941.082 299.745
L941.137 299.671
L941.173 299.722
L941.283 300.343
L941.483 303.188
L941.847 312.48
L943.213 350.411
L943.905 362.285
L944.651 371.381
L945.471 378.712
L946.29 384.139
L946.982 387.389
L947.547 389.08
L947.965 389.741
L948.293 389.896
L948.566 389.783
L948.894 389.367
L949.313 388.412
L949.841 386.593
L950.515 383.405
L951.316 378.486
L952.153 371.923
L952.918 364.109
L953.61 354.611
L954.266 342.387
L955.158 320.769
L955.722 309.607
L955.996 307.623
L956.05 307.583
L956.087 307.625
L956.196 308.072
L956.396 310.068
L956.742 316.326
L958.745 357.902
L959.492 366.807
L960.256 373.343
L961.003 377.924
L961.695 380.896
L962.296 382.582
L962.788 383.365
L963.17 383.608
L963.498 383.565
L963.844 383.271
L964.262 382.579
L964.772 381.246
L965.373 378.99
L966.047 375.546
L966.775 370.587
L967.485 364.177
L968.177 355.864
L968.869 344.753
L969.671 327.938
L970.563 309.851
L970.854 307.591
L970.927 307.526
L970.963 307.573
L971.091 308.159
L971.309 310.606
L971.674 317.824
L973.422 356.652
L974.186 367.107
L975.042 375.83
L975.934 382.777
L976.699 387.151
L977.264 389.248
L977.664 390.03
L977.956 390.19
L978.192 390.052
L978.465 389.59
L978.83 388.47
L979.285 386.279
L979.868 382.261
L980.541 375.947
L981.233 367.288
L981.871 356.431
L982.453 342.567
L983.054 322.584
L983.983 290.888
L984.165 289.441
L984.183 289.449
L984.256 289.765
L984.402 291.718
L984.657 298.729
L985.348 326.725
L986.04 349.617
L986.66 363.166
L987.279 372.147
L987.861 377.68
L988.389 380.824
L988.845 382.359
L989.209 382.916
L989.482 382.992
L989.737 382.826
L990.065 382.313
L990.502 381.175
L991.084 378.99
L991.849 375.192
L992.76 369.493
L993.761 361.746
L994.872 351.289
L995.983 338.822
L996.492 330.62
L996.984 318.632
L997.64 303.227
L997.84 302.072
L997.913 302.242
L998.058 303.487
L998.313 308.11
L998.878 323.785
L999.715 345.035
L1000.41 357.032
L1001.19 366.728
L1002.3 377.475
L1004.21 393.801
L1004.74 396.625
L1005.03 397.283
L1005.2 397.287
L1005.36 396.996
L1005.6 396.019
L1005.92 393.537
L1006.34 388.483
L1006.89 378.973
L1007.53 363.806
L1008.11 344.574
L1008.6 320.857
L1009.07 286.617
L1009.78 233.726
L1009.86 232.904
L1009.91 233.191
L1010.04 236.596
L1010.33 253.112
L1010.8 276.3
L1011.04 279.779
L1011.08 279.833
L1011.11 279.77
L1011.22 278.934
L1011.44 274.954
L1012.08 262.191
L1012.15 262.022
L1012.21 262.131
L1012.33 263.077
L1012.66 267.937
L1012.99 271.469
L1013.1 271.673
L1013.14 271.622
L1013.26 271.014
L1013.54 268.166
L1013.92 264.759
L1014.01 264.639
L1014.05 264.684
L1014.17 265.228
L1014.46 267.927
L1014.81 270.478
L1014.9 270.579
L1014.94 270.539
L1015.07 270.055
L1015.32 267.905
L1015.72 264.952
L1015.79 264.899
L1015.83 264.946
L1015.96 265.481
L1016.23 267.991
L1016.61 270.918
L1016.69 270.984
L1016.72 270.94
L1016.85 270.389
L1017.09 268.027
L1017.54 263.662
L1017.6 263.624
L1017.63 263.683
L1017.76 264.426
L1018 267.615
L1018.49 274.214
L1018.56 274.329
L1018.6 274.259
L1018.71 273.512
L1018.91 270.082
L1019.58 254.317
L1019.65 254.631
L1019.78 256.995
L1020 266.137
L1020.44 296.134
L1021.15 359.959
L1021.64 399.696
L1021.82 403.183
L1021.84 403.142
L1021.93 402.024
L1022.13 395.629
L1023.28 352.507
L1023.99 336.924
L1024.55 328.623
L1024.92 325.992
L1025.12 325.624
L1025.23 325.743
L1025.41 326.405
L1025.7 328.476
L1026.28 334.669
L1027.12 342.968
L1027.59 345.667
L1027.9 346.433
L1028.08 346.483
L1028.25 346.258
L1028.49 345.45
L1028.8 343.433
L1029.16 339.427
L1029.58 332.124
L1030.07 319.138
L1031.09 290.417
L1031.14 290.247
L1031.2 290.356
L1031.31 291.453
L1031.51 296.496
L1031.87 313.179
L1032.4 335.365
L1032.66 338.776
L1032.75 338.943
L1032.78 338.896
L1032.91 338.356
L1033.73 333.8
L1033.75 333.806
L1033.88 334.026
L1034.08 334.948
L1034.4 337.722
L1034.97 344.763
L1037.39 376.784
L1038.41 387.467
L1038.86 390.3
L1039.12 390.819
L1039.23 390.735
L1039.39 390.212
L1039.63 388.521
L1039.94 384.445
L1040.32 376.198
L1040.78 361.238
L1041.27 337.234
L1041.76 301.481
L1042.58 239.243
L1042.62 238.995
L1042.65 239.12
L1042.65 239.12
L1042.74 241.002
L1042.94 251.677
L1044.02 320.555
L1044.44 331.41
L1044.82 336.307
L1045.11 337.767
L1045.26 337.895
L1045.27 337.886
L1045.4 337.666
L1045.62 336.703
L1045.95 334.007
L1046.44 327.737
L1047.37 315.698
L1047.62 314.735
L1047.71 314.792
L1047.86 315.33
L1048.1 317.286
L1048.5 322.832
L1049.79 341.881
L1050.46 347.75
L1050.88 352.028
L1051.16 357.419
L1051.41 367.223
L1051.7 388.66
L1052.21 431.241
L1052.25 430.929
L1052.36 425.685
L1052.63 395.744
L1053.05 358.574
L1053.38 346.537
L1053.78 339.785
L1054.58 327.864
L1055.4 310.272
L1055.84 303.527
L1056.05 302.48
L1056.13 302.533
L1056.25 303.09
L1056.49 305.464
L1057.11 315.082
L1057.53 319.656
L1057.77 320.522
L1057.86 320.47
L1057.98 320.023
L1058.2 318.227
L1058.51 313.552
L1059.57 294.587
L1059.6 294.621
L1059.7 295.115
L1059.86 297.554
L1060.11 305.335
L1060.48 324.109
L1061.01 364.431
L1061.35 384.017
L1061.39 384.26
L1061.43 384.014
L1061.53 380.271
L1061.74 363.235
L1062.74 263.752
L1062.97 258.253
L1062.99 258.235
L1063.01 258.271
L1063.1 259.206
L1063.3 264.715
L1064.03 287.473
L1064.21 288.483
L1064.28 288.273
L1064.43 286.923
L1064.72 281.556
L1065.23 272.779
L1065.34 272.447
L1065.38 272.499
L1065.49 273.124
L1065.7 276.076
L1066.32 285.079
L1066.41 285.265
L1066.45 285.222
L1066.56 284.689
L1066.76 282.272
L1067.49 271.158
L1067.54 271.246
L1067.65 272.072
L1067.85 275.652
L1068.76 295.33
L1068.78 295.327
L1068.85 295.047
L1069 293.085
L1069.22 286.134
L1069.51 268.138
L1070.22 214.475
L1070.28 215.291
L1070.4 222.023
L1070.68 252.612
L1071.46 343.096
L1071.95 374.797
L1072.31 386.562
L1072.59 389.706
L1072.68 389.869
L1072.72 389.828
L1072.84 389.267
L1073.08 386.843
L1073.53 379.277
L1075.96 335.552
L1076.34 332.42
L1076.54 331.996
L1076.63 332.129
L1076.79 332.917
L1077.03 335.337
L1077.39 341.779
L1078 352.4
L1078.03 352.415
L1078.05 352.365
L1078.14 351.459
L1078.29 347.266
L1078.51 333.388
L1078.89 291.148
L1079.34 247.722
L1079.51 244.094
L1079.53 244.17
L1079.62 245.863
L1079.82 255.617
L1080.73 307.029
L1081.05 313.17
L1081.26 314.042
L1081.33 313.887
L1081.47 312.89
L1081.73 309.207
L1082.2 298.196
L1082.68 289.127
L1082.84 288.336
L1082.86 288.345
L1082.95 288.687
L1083.11 290.469
L1083.42 296.871
L1084.19 313.066
L1084.42 314.589
L1084.48 314.594
L1084.5 314.565
L1084.61 314.049
L1084.79 311.795
L1085.04 305.274
L1085.35 291.036
L1085.81 257.905
L1086.17 237.411
L1086.23 236.943
L1086.26 237.164
L1086.26 237.164
L1086.37 240.492
L1086.57 256.279
L1087.56 350.896
L1087.72 352.395
L1087.74 352.363
L1087.83 351.755
L1088.05 348.308
L1088.83 334.931
L1089.1 333.371
L1089.21 333.284
L1089.25 333.321
L1089.38 333.697
L1089.6 335.174
L1089.94 339.295
L1090.51 349.147
L1092.29 382.514
L1092.36 382.637
L1092.4 382.589
L1092.51 381.955
L1092.67 379.414
L1092.91 371.679
L1093.22 352.963
L1093.6 314.598
L1094.49 205.621
L1094.57 206.965
L1094.71 217.082
L1095.88 322.093
L1096.31 335.702
L1096.77 343.659
L1097.22 348.179
L1097.66 350.562
L1098.03 351.528
L1098.3 351.769
L1098.52 351.703
L1098.79 351.334
L1099.19 350.341
L1099.74 349.041
L1099.85 349.087
L1099.97 349.496
L1100.14 350.955
L1100.32 354.756
L1100.54 365.013
L1100.78 388.651
L1101.21 446.178
L1101.29 443.868
L1101.43 423.538
L1101.94 344.615
L1102.21 333.042
L1102.49 329.625
L1103.09 324.829
L1103.42 319.035
L1103.83 307.055
L1104.71 280.728
L1104.82 280.294
L1104.85 280.386
L1104.96 281.36
L1105.16 285.596
L1105.6 301.087
L1106.31 324.212
L1106.47 328.164
L1106.47 328.164" style="fill:none;stroke:#bf00bf;stroke-linecap:square;stroke-width:2;"/>
   </g>
   <g id="patch_8">
    <path d="
M673.376 60.3
L1106.46 60.3" style="fill:none;stroke:#000000;stroke-linecap:square;stroke-linejoin:miter;"/>
   </g>
   <g id="patch_9">
    <path d="
M1106.46 542.7
L1106.46 60.3" style="fill:none;stroke:#000000;stroke-linecap:square;stroke-linejoin:miter;"/>
   </g>
   <g id="patch_10">
    <path d="
M673.376 542.7
L1106.46 542.7" style="fill:none;stroke:#000000;stroke-linecap:square;stroke-linejoin:miter;"/>
   </g>
   <g id="patch_11">
    <path d="
M673.376 542.7
L673.376 60.3" style="fill:none;stroke:#000000;stroke-linecap:square;stroke-linejoin:miter;"/>
   </g>
   <g id="matplotlib.axis_3">
    <g id="xtick_9">
     <g id="line2d_39">
      <g>
       <use style="stroke:#000000;stroke-width:0.5;" x="751.435622732" xlink:href="#m93b0483c22" y="542.7"/>
      </g>
     </g>
     <g id="line2d_40">
      <g>
       <use style="stroke:#000000;stroke-width:0.5;" x="751.435622732" xlink:href="#m741efc42ff" y="60.3"/>
      </g>
     </g>
     <g id="text_21">
      <!-- 5 -->
      <g transform="translate(748.605310232 555.818125)scale(0.12 -0.12)">
       <use xlink:href="#BitstreamVeraSans-Roman-35"/>
      </g>
     </g>
    </g>
    <g id="xtick_10">
     <g id="line2d_41">
      <g>
       <use style="stroke:#000000;stroke-width:0.5;" x="842.480635012" xlink:href="#m93b0483c22" y="542.7"/>
      </g>
     </g>
     <g id="line2d_42">
      <g>
       <use style="stroke:#000000;stroke-width:0.5;" x="842.480635012" xlink:href="#m741efc42ff" y="60.3"/>
      </g>
     </g>
     <g id="text_22">
      <!-- 10 -->
      <g transform="translate(835.903135012 555.818125)scale(0.12 -0.12)">
       <use xlink:href="#BitstreamVeraSans-Roman-31"/>
       <use x="63.623046875" xlink:href="#BitstreamVeraSans-Roman-30"/>
      </g>
     </g>
    </g>
    <g id="xtick_11">
     <g id="line2d_43">
      <g>
       <use style="stroke:#000000;stroke-width:0.5;" x="933.525647293" xlink:href="#m93b0483c22" y="542.7"/>
      </g>
     </g>
     <g id="line2d_44">
      <g>
       <use style="stroke:#000000;stroke-width:0.5;" x="933.525647293" xlink:href="#m741efc42ff" y="60.3"/>
      </g>
     </g>
     <g id="text_23">
      <!-- 15 -->
      <g transform="translate(927.073772293 555.818125)scale(0.12 -0.12)">
       <use xlink:href="#BitstreamVeraSans-Roman-31"/>
       <use x="63.623046875" xlink:href="#BitstreamVeraSans-Roman-35"/>
      </g>
     </g>
    </g>
    <g id="xtick_12">
     <g id="line2d_45">
      <g>
       <use style="stroke:#000000;stroke-width:0.5;" x="1024.57065957" xlink:href="#m93b0483c22" y="542.7"/>
      </g>
     </g>
     <g id="line2d_46">
      <g>
       <use style="stroke:#000000;stroke-width:0.5;" x="1024.57065957" xlink:href="#m741efc42ff" y="60.3"/>
      </g>
     </g>
     <g id="text_24">
      <!-- 20 -->
      <g transform="translate(1017.77378457 555.818125)scale(0.12 -0.12)">
       <use xlink:href="#BitstreamVeraSans-Roman-32"/>
       <use x="63.623046875" xlink:href="#BitstreamVeraSans-Roman-30"/>
      </g>
     </g>
    </g>
    <g id="text_25">
     <!-- time($s$) -->
     <g transform="translate(868.857954545 572.431875)scale(0.12 -0.12)">
      <use transform="translate(0.0 0.015625)" xlink:href="#BitstreamVeraSans-Roman-74"/>
      <use transform="translate(39.208984375 0.015625)" xlink:href="#BitstreamVeraSans-Roman-69"/>
      <use transform="translate(66.9921875 0.015625)" xlink:href="#BitstreamVeraSans-Roman-6d"/>
      <use transform="translate(164.404296875 0.015625)" xlink:href="#BitstreamVeraSans-Roman-65"/>
      <use transform="translate(225.927734375 0.015625)" xlink:href="#BitstreamVeraSans-Roman-28"/>
      <use transform="translate(264.94140625 0.015625)" xlink:href="#Cmmi10-73"/>
      <use transform="translate(311.71875 0.015625)" xlink:href="#BitstreamVeraSans-Roman-29"/>
     </g>
    </g>
   </g>
   <g id="matplotlib.axis_4">
    <g id="ytick_10">
     <g id="line2d_47">
      <g>
       <use style="stroke:#000000;stroke-width:0.5;" x="673.375909091" xlink:href="#m728421d6d4" y="512.195294118"/>
      </g>
     </g>
     <g id="line2d_48">
      <g>
       <use style="stroke:#000000;stroke-width:0.5;" x="1106.46" xlink:href="#mcb0005524f" y="512.195294118"/>
      </g>
     </g>
     <g id="text_26">
      <!-- −40 -->
      <g transform="translate(646.118409091 515.506544118)scale(0.12 -0.12)">
       <use xlink:href="#BitstreamVeraSans-Roman-2212"/>
       <use x="83.7890625" xlink:href="#BitstreamVeraSans-Roman-34"/>
       <use x="147.412109375" xlink:href="#BitstreamVeraSans-Roman-30"/>
      </g>
     </g>
    </g>
    <g id="ytick_11">
     <g id="line2d_49">
      <g>
       <use style="stroke:#000000;stroke-width:0.5;" x="673.375909091" xlink:href="#m728421d6d4" y="448.821176471"/>
      </g>
     </g>
     <g id="line2d_50">
      <g>
       <use style="stroke:#000000;stroke-width:0.5;" x="1106.46" xlink:href="#mcb0005524f" y="448.821176471"/>
      </g>
     </g>
     <g id="text_27">
      <!-- −20 -->
      <g transform="translate(646.118409091 452.132426471)scale(0.12 -0.12)">
       <use xlink:href="#BitstreamVeraSans-Roman-2212"/>
       <use x="83.7890625" xlink:href="#BitstreamVeraSans-Roman-32"/>
       <use x="147.412109375" xlink:href="#BitstreamVeraSans-Roman-30"/>
      </g>
     </g>
    </g>
    <g id="ytick_12">
     <g id="line2d_51">
      <g>
       <use style="stroke:#000000;stroke-width:0.5;" x="673.375909091" xlink:href="#m728421d6d4" y="385.447058824"/>
      </g>
     </g>
     <g id="line2d_52">
      <g>
       <use style="stroke:#000000;stroke-width:0.5;" x="1106.46" xlink:href="#mcb0005524f" y="385.447058824"/>
      </g>
     </g>
     <g id="text_28">
      <!-- 0 -->
      <g transform="translate(663.329034091 388.758308824)scale(0.12 -0.12)">
       <use xlink:href="#BitstreamVeraSans-Roman-30"/>
      </g>
     </g>
    </g>
    <g id="ytick_13">
     <g id="line2d_53">
      <g>
       <use style="stroke:#000000;stroke-width:0.5;" x="673.375909091" xlink:href="#m728421d6d4" y="322.072941176"/>
      </g>
     </g>
     <g id="line2d_54">
      <g>
       <use style="stroke:#000000;stroke-width:0.5;" x="1106.46" xlink:href="#mcb0005524f" y="322.072941176"/>
      </g>
     </g>
     <g id="text_29">
      <!-- 20 -->
      <g transform="translate(655.782159091 325.384191176)scale(0.12 -0.12)">
       <use xlink:href="#BitstreamVeraSans-Roman-32"/>
       <use x="63.623046875" xlink:href="#BitstreamVeraSans-Roman-30"/>
      </g>
     </g>
    </g>
    <g id="ytick_14">
     <g id="line2d_55">
      <g>
       <use style="stroke:#000000;stroke-width:0.5;" x="673.375909091" xlink:href="#m728421d6d4" y="258.698823529"/>
      </g>
     </g>
     <g id="line2d_56">
      <g>
       <use style="stroke:#000000;stroke-width:0.5;" x="1106.46" xlink:href="#mcb0005524f" y="258.698823529"/>
      </g>
     </g>
     <g id="text_30">
      <!-- 40 -->
      <g transform="translate(655.489659091 262.010073529)scale(0.12 -0.12)">
       <use xlink:href="#BitstreamVeraSans-Roman-34"/>
       <use x="63.623046875" xlink:href="#BitstreamVeraSans-Roman-30"/>
      </g>
     </g>
    </g>
    <g id="ytick_15">
     <g id="line2d_57">
      <g>
       <use style="stroke:#000000;stroke-width:0.5;" x="673.375909091" xlink:href="#m728421d6d4" y="195.324705882"/>
      </g>
     </g>
     <g id="line2d_58">
      <g>
       <use style="stroke:#000000;stroke-width:0.5;" x="1106.46" xlink:href="#mcb0005524f" y="195.324705882"/>
      </g>
     </g>
     <g id="text_31">
      <!-- 60 -->
      <defs>
       <path d="
M33.0156 40.375
Q26.375 40.375 22.4844 35.8281
Q18.6094 31.2969 18.6094 23.3906
Q18.6094 15.5312 22.4844 10.9531
Q26.375 6.39062 33.0156 6.39062
Q39.6562 6.39062 43.5312 10.9531
Q47.4062 15.5312 47.4062 23.3906
Q47.4062 31.2969 43.5312 35.8281
Q39.6562 40.375 33.0156 40.375
M52.5938 71.2969
L52.5938 62.3125
Q48.875 64.0625 45.0938 64.9844
Q41.3125 65.9219 37.5938 65.9219
Q27.8281 65.9219 22.6719 59.3281
Q17.5312 52.7344 16.7969 39.4062
Q19.6719 43.6562 24.0156 45.9219
Q28.375 48.1875 33.5938 48.1875
Q44.5781 48.1875 50.9531 41.5156
Q57.3281 34.8594 57.3281 23.3906
Q57.3281 12.1562 50.6875 5.35938
Q44.0469 -1.42188 33.0156 -1.42188
Q20.3594 -1.42188 13.6719 8.26562
Q6.98438 17.9688 6.98438 36.375
Q6.98438 53.6562 15.1875 63.9375
Q23.3906 74.2188 37.2031 74.2188
Q40.9219 74.2188 44.7031 73.4844
Q48.4844 72.75 52.5938 71.2969" id="BitstreamVeraSans-Roman-36"/>
      </defs>
      <g transform="translate(655.740909091 198.635955882)scale(0.12 -0.12)">
       <use xlink:href="#BitstreamVeraSans-Roman-36"/>
       <use x="63.623046875" xlink:href="#BitstreamVeraSans-Roman-30"/>
      </g>
     </g>
    </g>
    <g id="ytick_16">
     <g id="line2d_59">
      <g>
       <use style="stroke:#000000;stroke-width:0.5;" x="673.375909091" xlink:href="#m728421d6d4" y="131.950588235"/>
      </g>
     </g>
     <g id="line2d_60">
      <g>
       <use style="stroke:#000000;stroke-width:0.5;" x="1106.46" xlink:href="#mcb0005524f" y="131.950588235"/>
      </g>
     </g>
     <g id="text_32">
      <!-- 80 -->
      <defs>
       <path d="
M31.7812 34.625
Q24.75 34.625 20.7188 30.8594
Q16.7031 27.0938 16.7031 20.5156
Q16.7031 13.9219 20.7188 10.1562
Q24.75 6.39062 31.7812 6.39062
Q38.8125 6.39062 42.8594 10.1719
Q46.9219 13.9688 46.9219 20.5156
Q46.9219 27.0938 42.8906 30.8594
Q38.875 34.625 31.7812 34.625
M21.9219 38.8125
Q15.5781 40.375 12.0312 44.7188
Q8.5 49.0781 8.5 55.3281
Q8.5 64.0625 14.7188 69.1406
Q20.9531 74.2188 31.7812 74.2188
Q42.6719 74.2188 48.875 69.1406
Q55.0781 64.0625 55.0781 55.3281
Q55.0781 49.0781 51.5312 44.7188
Q48 40.375 41.7031 38.8125
Q48.8281 37.1562 52.7969 32.3125
Q56.7812 27.4844 56.7812 20.5156
Q56.7812 9.90625 50.3125 4.23438
Q43.8438 -1.42188 31.7812 -1.42188
Q19.7344 -1.42188 13.25 4.23438
Q6.78125 9.90625 6.78125 20.5156
Q6.78125 27.4844 10.7812 32.3125
Q14.7969 37.1562 21.9219 38.8125
M18.3125 54.3906
Q18.3125 48.7344 21.8438 45.5625
Q25.3906 42.3906 31.7812 42.3906
Q38.1406 42.3906 41.7188 45.5625
Q45.3125 48.7344 45.3125 54.3906
Q45.3125 60.0625 41.7188 63.2344
Q38.1406 66.4062 31.7812 66.4062
Q25.3906 66.4062 21.8438 63.2344
Q18.3125 60.0625 18.3125 54.3906" id="BitstreamVeraSans-Roman-38"/>
      </defs>
      <g transform="translate(655.716534091 135.261838235)scale(0.12 -0.12)">
       <use xlink:href="#BitstreamVeraSans-Roman-38"/>
       <use x="63.623046875" xlink:href="#BitstreamVeraSans-Roman-30"/>
      </g>
     </g>
    </g>
    <g id="ytick_17">
     <g id="line2d_61">
      <g>
       <use style="stroke:#000000;stroke-width:0.5;" x="673.375909091" xlink:href="#m728421d6d4" y="68.5764705882"/>
      </g>
     </g>
     <g id="line2d_62">
      <g>
       <use style="stroke:#000000;stroke-width:0.5;" x="1106.46" xlink:href="#mcb0005524f" y="68.5764705882"/>
      </g>
     </g>
     <g id="text_33">
      <!-- 100 -->
      <g transform="translate(648.585909091 71.8877205882)scale(0.12 -0.12)">
       <use xlink:href="#BitstreamVeraSans-Roman-31"/>
       <use x="63.623046875" xlink:href="#BitstreamVeraSans-Roman-30"/>
       <use x="127.24609375" xlink:href="#BitstreamVeraSans-Roman-30"/>
      </g>
     </g>
    </g>
    <g id="text_34">
     <!-- $\omega$($Rad/s$) -->
     <defs>
      <path d="
M5.60938 -23
Q5.60938 -22.7031 5.71875 -22.6094
L40.4844 73.7812
Q40.6719 74.3594 41.1562 74.6719
Q41.6562 75 42.2812 75
Q43.1719 75 43.7188 74.4531
Q44.2812 73.9219 44.2812 73
L44.2812 72.6094
L9.51562 -23.7812
Q8.9375 -25 7.625 -25
Q6.78125 -25 6.1875 -24.4062
Q5.60938 -23.8281 5.60938 -23" id="Cmmi10-3d"/>
      <path d="
M12.1094 -1.125
Q6.45312 -1.125 3.9375 3.01562
Q1.42188 7.17188 1.42188 13.1875
Q1.42188 17.1406 2.125 20.9219
Q2.82812 24.7031 4.26562 28.5781
Q5.71875 32.4688 7.5625 35.8594
Q9.42188 39.2656 11.7188 42.4844
Q12.1562 43.1094 12.8906 43.1094
Q13.5312 43.1094 13.9219 42.7188
Q14.3125 42.3281 14.3125 41.7969
Q14.3125 41.2656 14.0156 40.8281
Q4.89062 28.2656 4.89062 17.6719
Q4.89062 13.0938 7 9.79688
Q9.125 6.5 13.4844 6.5
Q17.2344 6.5 20.4375 8.6875
Q23.6406 10.8906 25.9844 14.3125
Q25.9844 16.0625 26.5938 19.7656
Q27.2031 23.4844 28.4844 26.3906
Q29.7812 29.2969 31.5938 29.2969
Q33.8906 29.2969 33.8906 26.6094
Q33.8906 25.0469 33.2188 22.6719
Q32.5625 20.3125 31.75 18.2656
Q30.9531 16.2188 29.7812 13.625
Q30.9531 6.5 36.9219 6.5
Q40.375 6.5 43.8594 8.5
Q47.3594 10.5 50.0469 13.75
Q52.7344 17 54.2656 20.75
Q55.8125 24.5156 55.8125 27.875
Q55.8125 30.9062 54.8594 32.5938
Q53.9062 34.2812 52.3438 36.125
Q50.7812 37.9844 50.7812 39.1094
Q50.7812 41.0625 52.4375 42.6719
Q54.1094 44.2812 56 44.2812
Q58.4531 44.2812 59.4688 42.0625
Q60.5 39.8438 60.5 37.0156
Q60.5 32.4219 58.6719 25.4375
Q56.8438 18.4531 54.5 13.8125
Q51.2656 7.51562 46.4062 3.1875
Q41.5469 -1.125 35.5 -1.125
Q31.6406 -1.125 29.2656 1.1875
Q26.9062 3.51562 26.2188 7.51562
Q23.4375 3.5625 19.875 1.21875
Q16.3125 -1.125 12.1094 -1.125" id="Cmmi10-21"/>
     </defs>
     <g transform="translate(638.118409091 326.58)rotate(-90.0)scale(0.12 -0.12)">
      <use transform="translate(0.0 0.125)" xlink:href="#Cmmi10-21"/>
      <use transform="translate(62.20703125 0.125)" xlink:href="#BitstreamVeraSans-Roman-28"/>
      <use transform="translate(101.220703125 0.125)" xlink:href="#Cmmi10-52"/>
      <use transform="translate(177.099609375 0.125)" xlink:href="#Cmmi10-61"/>
      <use transform="translate(229.8828125 0.125)" xlink:href="#Cmmi10-64"/>
      <use transform="translate(281.884765625 0.125)" xlink:href="#Cmmi10-3d"/>
      <use transform="translate(331.884765625 0.125)" xlink:href="#Cmmi10-73"/>
      <use transform="translate(378.662109375 0.125)" xlink:href="#BitstreamVeraSans-Roman-29"/>
     </g>
    </g>
   </g>
   <g id="legend_2">
    <g id="line2d_63">
     <path d="
M1058.98 73.3932
L1072.97 73.3932" style="fill:none;stroke:#bf00bf;stroke-linecap:square;stroke-width:2;"/>
    </g>
    <g id="line2d_64"/>
    <g id="text_35">
     <!-- $\omega$-$t$ -->
     <g transform="translate(1083.969 76.891798125)scale(0.09996 -0.09996)">
      <use transform="translate(0.0 0.40625)" xlink:href="#Cmmi10-21"/>
      <use transform="translate(62.20703125 0.40625)" xlink:href="#BitstreamVeraSans-Roman-2d"/>
      <use transform="translate(98.291015625 0.40625)" xlink:href="#Cmmi10-74"/>
     </g>
    </g>
   </g>
  </g>
  <g id="text_36">
   <!-- elleptical orbit, $m1/M=$0.5 -->
   <defs>
    <path id="BitstreamVeraSans-Roman-20"/>
    <path d="
M9.28125 0
L9.28125 3.51562
Q21.7812 3.51562 21.7812 6.6875
L21.7812 59.1875
Q16.6094 56.6875 8.6875 56.6875
L8.6875 60.2031
Q20.9531 60.2031 27.2031 66.6094
L28.6094 66.6094
Q28.9531 66.6094 29.2656 66.3281
Q29.5938 66.0625 29.5938 65.7188
L29.5938 6.6875
Q29.5938 3.51562 42.0938 3.51562
L42.0938 0
z
" id="Cmr10-31"/>
    <path d="
M5.07812 0
Q4.10938 0 4.10938 1.3125
Q4.15625 1.5625 4.29688 2.14062
Q4.4375 2.73438 4.6875 3.125
Q4.9375 3.51562 5.42188 3.51562
Q14.9375 3.51562 16.5 9.625
L29.5 61.8125
Q29.6875 62.7969 29.6875 63.1875
Q29.6875 64.2656 28.5156 64.4062
Q26.6094 64.7969 21.2969 64.7969
Q20.3125 64.7969 20.3125 66.1094
Q20.3594 66.3594 20.5 66.9688
Q20.6562 67.5781 20.9219 67.9375
Q21.1875 68.3125 21.5781 68.3125
L39.2031 68.3125
Q40.3281 68.3125 40.4844 67.1875
L48.2969 9.90625
L84.7188 67.1875
Q85.4062 68.3125 86.625 68.3125
L103.609 68.3125
Q104.594 68.3125 104.594 67
Q104.547 66.75 104.391 66.1406
Q104.25 65.5312 103.984 65.1562
Q103.719 64.7969 103.328 64.7969
Q97.2188 64.7969 94.8281 64.1094
Q93.5 63.6719 92.9219 61.375
L79.2031 6.5
Q79 5.51562 79 5.07812
Q79 4.6875 79.125 4.42188
Q79.25 4.15625 79.4688 4.07812
Q79.6875 4 80.1719 3.90625
Q82.0781 3.51562 87.4062 3.51562
Q88.375 3.51562 88.375 2.20312
Q88.0312 0.78125 87.8281 0.390625
Q87.6406 0 86.7188 0
L60.5938 0
Q59.625 0 59.625 1.3125
Q59.6719 1.5625 59.8125 2.17188
Q59.9688 2.78125 60.2344 3.14062
Q60.5 3.51562 60.8906 3.51562
Q67 3.51562 69.3906 4.20312
Q70.7031 4.64062 71.2969 6.89062
L85.6875 64.7969
L45.3125 1.125
Q44.7344 0 43.3125 0
Q42.0469 0 41.8906 1.125
L33.4062 64.0156
L19.6719 9.1875
Q19.5781 8.9375 19.5312 8.5625
Q19.4844 8.20312 19.3906 7.71875
Q19.3906 5.125 21.6562 4.3125
Q23.9219 3.51562 27.2031 3.51562
Q28.2188 3.51562 28.2188 2.20312
Q27.875 0.875 27.6562 0.4375
Q27.4375 0 26.5156 0
z
" id="Cmmi10-4d"/>
    <path d="
M7.71875 1.70312
Q7.71875 2.29688 7.8125 2.59375
L15.2812 32.4219
Q16.0156 35.2031 16.0156 37.3125
Q16.0156 41.6094 13.0938 41.6094
Q9.96875 41.6094 8.45312 37.8594
Q6.9375 34.125 5.51562 28.4219
Q5.51562 28.125 5.21875 27.9531
Q4.9375 27.7812 4.6875 27.7812
L3.51562 27.7812
Q3.17188 27.7812 2.92188 28.1406
Q2.6875 28.5156 2.6875 28.8125
Q3.76562 33.1562 4.76562 36.1719
Q5.76562 39.2031 7.89062 41.6875
Q10.0156 44.1875 13.1875 44.1875
Q16.9375 44.1875 19.8125 41.8125
Q22.7031 39.4531 22.7031 35.7969
Q25.6875 39.7031 29.6875 41.9375
Q33.6875 44.1875 38.1875 44.1875
Q42.9219 44.1875 46.3594 41.7656
Q49.8125 39.3594 49.8125 34.9062
Q52.875 39.2656 57 41.7188
Q61.1406 44.1875 66.0156 44.1875
Q71.1875 44.1875 74.3281 41.375
Q77.4844 38.5781 77.4844 33.4062
Q77.4844 29.2969 75.6562 23.4844
Q73.8281 17.6719 71.0938 10.5
Q69.6719 7.03125 69.6719 4.5
Q69.6719 1.51562 72.0156 1.51562
Q75.9219 1.51562 78.5156 5.70312
Q81.1094 9.90625 82.1719 14.7031
Q82.4688 15.2812 83.0156 15.2812
L84.1875 15.2812
Q84.5781 15.2812 84.8438 15.0156
Q85.1094 14.75 85.1094 14.4062
Q85.1094 14.3125 85.0156 14.1094
Q83.6406 8.45312 80.25 3.65625
Q76.8594 -1.125 71.7812 -1.125
Q68.2656 -1.125 65.7656 1.29688
Q63.2812 3.71875 63.2812 7.17188
Q63.2812 8.9375 64.1094 11.0781
Q66.9375 18.6094 68.8125 24.5156
Q70.7031 30.4219 70.7031 34.9062
Q70.7031 37.7031 69.5781 39.6562
Q68.4531 41.6094 65.8281 41.6094
Q60.3594 41.6094 56.3438 38.25
Q52.3438 34.9062 49.4219 29.3906
Q49.2188 28.4219 49.125 27.875
L42.6719 2.20312
Q42.3281 0.828125 41.125 -0.140625
Q39.9375 -1.125 38.4844 -1.125
Q37.3125 -1.125 36.4062 -0.34375
Q35.5 0.4375 35.5 1.70312
Q35.5 2.29688 35.5938 2.59375
L42 28.0781
Q43.0156 32.1719 43.0156 34.9062
Q43.0156 37.7031 41.8594 39.6562
Q40.7188 41.6094 37.9844 41.6094
Q34.3281 41.6094 31.25 39.9844
Q28.1719 38.375 25.875 35.7188
Q23.5781 33.0625 21.6875 29.3906
L14.8906 2.20312
Q14.5469 0.828125 13.3438 -0.140625
Q12.1562 -1.125 10.6875 -1.125
Q9.46875 -1.125 8.59375 -0.34375
Q7.71875 0.4375 7.71875 1.70312" id="Cmmi10-6d"/>
    <path d="
M41.1094 46.2969
Q39.5938 47.1719 37.8125 47.5781
Q36.0312 48 33.8906 48
Q26.2656 48 22.1875 43.0469
Q18.1094 38.0938 18.1094 28.8125
L18.1094 0
L9.07812 0
L9.07812 54.6875
L18.1094 54.6875
L18.1094 46.1875
Q20.9531 51.1719 25.4844 53.5781
Q30.0312 56 36.5312 56
Q37.4531 56 38.5781 55.875
Q39.7031 55.7656 41.0625 55.5156
z
" id="BitstreamVeraSans-Roman-72"/>
    <path d="
M30.6094 48.3906
Q23.3906 48.3906 19.1875 42.75
Q14.9844 37.1094 14.9844 27.2969
Q14.9844 17.4844 19.1562 11.8438
Q23.3438 6.20312 30.6094 6.20312
Q37.7969 6.20312 41.9844 11.8594
Q46.1875 17.5312 46.1875 27.2969
Q46.1875 37.0156 41.9844 42.7031
Q37.7969 48.3906 30.6094 48.3906
M30.6094 56
Q42.3281 56 49.0156 48.375
Q55.7188 40.7656 55.7188 27.2969
Q55.7188 13.875 49.0156 6.21875
Q42.3281 -1.42188 30.6094 -1.42188
Q18.8438 -1.42188 12.1719 6.21875
Q5.51562 13.875 5.51562 27.2969
Q5.51562 40.7656 12.1719 48.375
Q18.8438 56 30.6094 56" id="BitstreamVeraSans-Roman-6f"/>
    <path d="
M9.42188 75.9844
L18.4062 75.9844
L18.4062 0
L9.42188 0
z
" id="BitstreamVeraSans-Roman-6c"/>
    <path d="
M11.7188 12.4062
L22.0156 12.4062
L22.0156 4
L14.0156 -11.625
L7.71875 -11.625
L11.7188 4
z
" id="BitstreamVeraSans-Roman-2c"/>
    <path d="
M10.6875 12.4062
L21 12.4062
L21 0
L10.6875 0
z
" id="BitstreamVeraSans-Roman-2e"/>
    <path d="
M18.1094 8.20312
L18.1094 -20.7969
L9.07812 -20.7969
L9.07812 54.6875
L18.1094 54.6875
L18.1094 46.3906
Q20.9531 51.2656 25.2656 53.625
Q29.5938 56 35.5938 56
Q45.5625 56 51.7812 48.0938
Q58.0156 40.1875 58.0156 27.2969
Q58.0156 14.4062 51.7812 6.48438
Q45.5625 -1.42188 35.5938 -1.42188
Q29.5938 -1.42188 25.2656 0.953125
Q20.9531 3.32812 18.1094 8.20312
M48.6875 27.2969
Q48.6875 37.2031 44.6094 42.8438
Q40.5312 48.4844 33.4062 48.4844
Q26.2656 48.4844 22.1875 42.8438
Q18.1094 37.2031 18.1094 27.2969
Q18.1094 17.3906 22.1875 11.75
Q26.2656 6.10938 33.4062 6.10938
Q40.5312 6.10938 44.6094 11.75
Q48.6875 17.3906 48.6875 27.2969" id="BitstreamVeraSans-Roman-70"/>
    <path d="
M7.51562 13.2812
Q6.6875 13.2812 6.14062 13.9062
Q5.60938 14.5469 5.60938 15.2812
Q5.60938 16.1094 6.14062 16.6875
Q6.6875 17.2812 7.51562 17.2812
L70.3125 17.2812
Q71.0469 17.2812 71.5781 16.6875
Q72.125 16.1094 72.125 15.2812
Q72.125 14.5469 71.5781 13.9062
Q71.0469 13.2812 70.3125 13.2812
z

M7.51562 32.7188
Q6.6875 32.7188 6.14062 33.2969
Q5.60938 33.8906 5.60938 34.7188
Q5.60938 35.4531 6.14062 36.0781
Q6.6875 36.7188 7.51562 36.7188
L70.3125 36.7188
Q71.0469 36.7188 71.5781 36.0781
Q72.125 35.4531 72.125 34.7188
Q72.125 33.8906 71.5781 33.2969
Q71.0469 32.7188 70.3125 32.7188
z
" id="Cmr10-3d"/>
    <path d="
M34.2812 27.4844
Q23.3906 27.4844 19.1875 25
Q14.9844 22.5156 14.9844 16.5
Q14.9844 11.7188 18.1406 8.90625
Q21.2969 6.10938 26.7031 6.10938
Q34.1875 6.10938 38.7031 11.4062
Q43.2188 16.7031 43.2188 25.4844
L43.2188 27.4844
z

M52.2031 31.2031
L52.2031 0
L43.2188 0
L43.2188 8.29688
Q40.1406 3.32812 35.5469 0.953125
Q30.9531 -1.42188 24.3125 -1.42188
Q15.9219 -1.42188 10.9531 3.29688
Q6 8.01562 6 15.9219
Q6 25.1406 12.1719 29.8281
Q18.3594 34.5156 30.6094 34.5156
L43.2188 34.5156
L43.2188 35.4062
Q43.2188 41.6094 39.1406 45
Q35.0625 48.3906 27.6875 48.3906
Q23 48.3906 18.5469 47.2656
Q14.1094 46.1406 10.0156 43.8906
L10.0156 52.2031
Q14.9375 54.1094 19.5781 55.0469
Q24.2188 56 28.6094 56
Q40.4844 56 46.3438 49.8438
Q52.2031 43.7031 52.2031 31.2031" id="BitstreamVeraSans-Roman-61"/>
    <path d="
M48.7812 52.5938
L48.7812 44.1875
Q44.9688 46.2969 41.1406 47.3438
Q37.3125 48.3906 33.4062 48.3906
Q24.6562 48.3906 19.8125 42.8438
Q14.9844 37.3125 14.9844 27.2969
Q14.9844 17.2812 19.8125 11.7344
Q24.6562 6.20312 33.4062 6.20312
Q37.3125 6.20312 41.1406 7.25
Q44.9688 8.29688 48.7812 10.4062
L48.7812 2.09375
Q45.0156 0.34375 40.9844 -0.53125
Q36.9688 -1.42188 32.4219 -1.42188
Q20.0625 -1.42188 12.7812 6.34375
Q5.51562 14.1094 5.51562 27.2969
Q5.51562 40.6719 12.8594 48.3281
Q20.2188 56 33.0156 56
Q37.1562 56 41.1094 55.1406
Q45.0625 54.2969 48.7812 52.5938" id="BitstreamVeraSans-Roman-63"/>
    <path d="
M48.6875 27.2969
Q48.6875 37.2031 44.6094 42.8438
Q40.5312 48.4844 33.4062 48.4844
Q26.2656 48.4844 22.1875 42.8438
Q18.1094 37.2031 18.1094 27.2969
Q18.1094 17.3906 22.1875 11.75
Q26.2656 6.10938 33.4062 6.10938
Q40.5312 6.10938 44.6094 11.75
Q48.6875 17.3906 48.6875 27.2969
M18.1094 46.3906
Q20.9531 51.2656 25.2656 53.625
Q29.5938 56 35.5938 56
Q45.5625 56 51.7812 48.0938
Q58.0156 40.1875 58.0156 27.2969
Q58.0156 14.4062 51.7812 6.48438
Q45.5625 -1.42188 35.5938 -1.42188
Q29.5938 -1.42188 25.2656 0.953125
Q20.9531 3.32812 18.1094 8.20312
L18.1094 0
L9.07812 0
L9.07812 75.9844
L18.1094 75.9844
z
" id="BitstreamVeraSans-Roman-62"/>
   </defs>
   <g transform="translate(535.08 21.18)scale(0.12 -0.12)">
    <use transform="translate(0.0 0.015625)" xlink:href="#BitstreamVeraSans-Roman-65"/>
    <use transform="translate(61.5234375 0.015625)" xlink:href="#BitstreamVeraSans-Roman-6c"/>
    <use transform="translate(89.306640625 0.015625)" xlink:href="#BitstreamVeraSans-Roman-6c"/>
    <use transform="translate(117.08984375 0.015625)" xlink:href="#BitstreamVeraSans-Roman-65"/>
    <use transform="translate(178.61328125 0.015625)" xlink:href="#BitstreamVeraSans-Roman-70"/>
    <use transform="translate(242.08984375 0.015625)" xlink:href="#BitstreamVeraSans-Roman-74"/>
    <use transform="translate(281.298828125 0.015625)" xlink:href="#BitstreamVeraSans-Roman-69"/>
    <use transform="translate(309.08203125 0.015625)" xlink:href="#BitstreamVeraSans-Roman-63"/>
    <use transform="translate(364.0625 0.015625)" xlink:href="#BitstreamVeraSans-Roman-61"/>
    <use transform="translate(425.341796875 0.015625)" xlink:href="#BitstreamVeraSans-Roman-6c"/>
    <use transform="translate(453.125 0.015625)" xlink:href="#BitstreamVeraSans-Roman-20"/>
    <use transform="translate(484.912109375 0.015625)" xlink:href="#BitstreamVeraSans-Roman-6f"/>
    <use transform="translate(546.09375 0.015625)" xlink:href="#BitstreamVeraSans-Roman-72"/>
    <use transform="translate(587.20703125 0.015625)" xlink:href="#BitstreamVeraSans-Roman-62"/>
    <use transform="translate(650.68359375 0.015625)" xlink:href="#BitstreamVeraSans-Roman-69"/>
    <use transform="translate(678.466796875 0.015625)" xlink:href="#BitstreamVeraSans-Roman-74"/>
    <use transform="translate(717.67578125 0.015625)" xlink:href="#BitstreamVeraSans-Roman-2c"/>
    <use transform="translate(749.462890625 0.015625)" xlink:href="#BitstreamVeraSans-Roman-20"/>
    <use transform="translate(781.25 0.015625)" xlink:href="#Cmmi10-6d"/>
    <use transform="translate(869.04296875 0.015625)" xlink:href="#Cmr10-31"/>
    <use transform="translate(919.04296875 0.015625)" xlink:href="#Cmmi10-3d"/>
    <use transform="translate(969.04296875 0.015625)" xlink:href="#Cmmi10-4d"/>
    <use transform="translate(1083.62304688 0.015625)" xlink:href="#Cmr10-3d"/>
    <use transform="translate(1167.68164062 0.015625)" xlink:href="#BitstreamVeraSans-Roman-30"/>
    <use transform="translate(1231.3046875 0.015625)" xlink:href="#BitstreamVeraSans-Roman-2e"/>
    <use transform="translate(1263.09179688 0.015625)" xlink:href="#BitstreamVeraSans-Roman-35"/>
   </g>
  </g>
 </g>
 <defs>
  <clipPath id="paa341766a5">
   <rect height="482.4" width="433.084090909" x="153.675" y="60.3"/>
  </clipPath>
  <clipPath id="p9b96c9b755">
   <rect height="482.4" width="433.084090909" x="673.375909091" y="60.3"/>
  </clipPath>
 </defs>
</svg>
