<?xml version="1.0" encoding="utf-8" standalone="no"?>
<!DOCTYPE svg PUBLIC "-//W3C//DTD SVG 1.1//EN"
  "http://www.w3.org/Graphics/SVG/1.1/DTD/svg11.dtd">
<!-- Created with matplotlib (http://matplotlib.org/) -->
<svg height="603pt" version="1.1" viewBox="0 0 1229 603" width="1229pt" xmlns="http://www.w3.org/2000/svg" xmlns:xlink="http://www.w3.org/1999/xlink">
 <defs>
  <style type="text/css">
*{stroke-linecap:butt;stroke-linejoin:round;}
  </style>
 </defs>
 <g id="figure_1">
  <g id="patch_1">
   <path d="
M0 603
L1229.4 603
L1229.4 0
L0 0
z
" style="fill:#ffffff;"/>
  </g>
  <g id="axes_1">
   <g id="patch_2">
    <path d="
M153.675 542.7
L586.759 542.7
L586.759 60.3
L153.675 60.3
z
" style="fill:#ffffff;"/>
   </g>
   <g id="line2d_1">
    <path clip-path="url(#paa341766a5)" d="
M153.675 301.5
L155.011 300.728
L155.766 300.016
L156.447 299.056
L157.115 297.707
L157.783 295.832
L158.464 293.231
L159.157 289.67
L159.862 284.825
L160.567 278.349
L161.26 269.806
L161.916 258.869
L162.547 244.422
L163.141 225.387
L163.71 199.535
L164.292 162.27
L164.873 112.284
L164.886 489.966
L164.985 480.25
L168.598 113.082
L168.61 490.718
L168.709 480.82
L172.384 113.186
L172.397 490.817
L172.496 480.859
L176.171 113.087
L176.183 490.718
L176.282 480.752
L179.957 113.194
L179.969 490.832
L180.068 480.901
L183.682 112.7
L183.694 490.354
L183.793 480.76
L184.523 421.898
L185.154 387.911
L185.785 365.416
L186.441 349.592
L187.146 337.753
L187.889 328.897
L188.668 322.174
L189.472 317.095
L190.314 313.158
L191.205 310.018
L192.244 307.176
L195.783 298.181
L196.649 294.88
L197.466 290.871
L198.258 285.833
L199.025 279.466
L199.768 271.348
L200.46 261.252
L201.116 248.295
L201.723 231.656
L202.279 210.006
L202.824 179.65
L203.405 133.67
L203.628 112.216
L203.641 489.845
L203.74 479.69
L207.291 112.065
L207.303 489.684
L207.402 479.651
L211.028 112.222
L211.04 489.835
L211.139 479.73
L214.765 112.188
L214.777 489.801
L214.876 479.687
L218.502 112.825
L218.514 490.474
L218.613 480.628
L221.137 239.649
L221.669 214.996
L222.152 201.848
L222.659 193.734
L223.303 187.114
L225.344 167.882
L226.582 153.101
L228.24 130.357
L229.489 112.077
L229.502 490.77
L229.601 489.31
L232.36 450.241
L233.783 433.188
L234.996 421.255
L236.283 408.697
L236.741 401.42
L237.149 391.134
L237.57 374.399
L238.04 345.963
L238.621 295.953
L239.648 183.349
L240.304 113.333
L240.317 490.934
L240.416 480.76
L243.917 112.358
L243.93 489.919
L244.029 479.417
L247.506 113.222
L247.518 490.784
L247.617 480.26
L251.107 113.297
L251.119 490.884
L251.218 480.531
L253.544 247.645
L254.361 193.199
L255.029 162.253
L255.672 142.162
L256.316 128.573
L256.947 119.582
L257.553 113.891
L257.826 112.089
L257.838 490.893
L257.937 490.345
L258.432 488.328
L258.84 487.461
L259.162 487.207
L259.434 487.249
L259.743 487.542
L260.164 488.288
L260.771 489.872
L261.105 490.903
L261.117 112.066
L261.216 112.382
L262.577 116.395
L263.122 117.346
L263.493 117.606
L263.765 117.551
L264.05 117.238
L264.384 116.495
L264.78 115.017
L265.237 112.375
L265.275 112.112
L265.287 490.898
L265.386 490.151
L265.906 485.217
L266.462 477.701
L267.044 466.637
L267.626 451.019
L268.195 429.381
L268.789 397.572
L269.482 347.432
L270.286 272.456
L271.709 112.567
L271.721 490.094
L271.82 479.342
L275.149 113.367
L275.161 490.867
L275.26 479.866
L278.601 112.244
L278.614 489.746
L278.713 478.732
L282.053 112.18
L282.066 489.818
L282.165 479.965
L283.316 354.947
L284.095 236.945
L284.937 113.065
L284.949 490.221
L285.048 476.446
L287.56 113.067
L287.572 490.145
L287.671 475.789
L290.183 112.669
L290.195 489.744
L290.294 475.337
L292.806 112.273
L292.819 489.351
L292.918 474.942
L295.43 112.179
L295.442 489.341
L295.541 475.618
L296.667 303.869
L297.447 197.538
L298.276 113.226
L298.288 490.894
L298.387 481.183
L299.661 344.628
L301.802 112.701
L301.815 490.22
L301.913 479.391
L305.304 112.989
L305.316 490.51
L305.415 479.65
L308.818 112.834
L308.83 490.575
L308.929 481.663
L309.709 422.501
L310.216 398.225
L310.575 389.973
L310.847 387.766
L310.996 387.547
L311.021 387.558
L311.157 387.791
L311.491 388.987
L311.912 390.188
L312.11 390.288
L312.27 390.098
L312.493 389.421
L312.815 387.615
L313.248 383.759
L313.817 376.518
L314.547 364.159
L315.438 345.067
L316.515 316.925
L317.987 271.922
L319.917 213.806
L320.883 191.78
L321.427 177.666
L321.798 161.245
L322.207 132.068
L322.417 112.273
L322.429 489.893
L322.528 479.507
L323.419 371.312
L324.892 203.603
L325.671 112.788
L325.684 490.229
L325.783 478.787
L328.987 112.312
L329 489.75
L329.099 478.225
L332.316 112.157
L332.328 489.79
L332.427 479.917
L333.652 347.745
L334.321 243.779
L335.112 112.062
L335.125 488.991
L335.224 473.448
L337.451 113.306
L337.464 490.165
L337.563 474.064
L339.79 114.067
L339.802 490.925
L339.901 474.77
L342.141 113.099
L342.153 489.989
L342.252 474.017
L344.442 113.331
L344.455 489.734
L344.554 469.879
L345.519 298.169
L346.595 112.221
L346.608 488.973
L346.707 472.054
L348.786 113.603
L348.798 490.326
L348.897 473.123
L350.988 112.57
L351 489.296
L351.099 472.059
L353.178 114.014
L353.191 490.82
L353.29 474.202
L355.121 183.607
L355.839 112.074
L355.851 489.745
L355.95 480.055
L357.002 365.577
L359.229 113.16
L359.241 490.608
L359.34 479.196
L362.62 112.246
L362.632 489.764
L362.731 478.8
L363.77 350.109
L364.488 272.714
L364.995 240.495
L366.084 191.628
L367.891 112.486
L367.903 490.881
L368.002 487.076
L368.992 453.64
L369.833 432.203
L370.514 419.958
L371.034 414.095
L371.405 411.992
L371.64 411.591
L371.776 411.669
L371.974 412.124
L372.568 413.863
L372.618 413.814
L372.741 413.36
L372.915 411.66
L373.137 406.942
L373.422 395.492
L373.793 370.441
L374.325 317.77
L374.993 228.376
L375.761 112.693
L375.773 489.783
L375.872 475.592
L378.371 113.696
L378.384 490.743
L378.483 476.104
L380.995 113.262
L381.007 490.407
L381.106 476.446
L383.012 220.896
L383.469 199.515
L384.088 181.668
L386.13 126.89
L386.637 112.149
L386.649 490.666
L386.748 487.79
L388.518 439.635
L390.065 399.137
L390.436 379.963
L390.807 347.921
L391.253 287.646
L392.304 113.859
L392.317 490.892
L392.416 476.256
L394.779 113.577
L394.791 490.507
L394.89 474.947
L397.254 113.027
L397.266 490.059
L397.365 475.163
L399.073 231.674
L399.494 211.535
L400.298 187.333
L401.152 157.433
L402.265 112.404
L402.278 490.777
L402.377 486.762
L403.602 441.685
L404.369 420.884
L405.185 405.158
L405.544 395.752
L405.841 381.501
L406.163 354.307
L406.571 298.209
L407.586 112.564
L407.598 489.351
L407.697 472.769
L409.776 112.314
L409.789 488.992
L409.888 471.422
L411.954 114.105
L411.966 490.91
L412.065 474.178
L413.662 219.501
L414.058 198.939
L414.552 185.016
L415.518 159.152
L416.384 128.376
L416.78 112.52
L416.792 490.889
L416.891 486.817
L419.7 366.215
L420.046 328.517
L420.517 249.037
L421.271 112.277
L421.284 489.159
L421.383 473.373
L423.561 112.258
L423.573 489.01
L423.672 471.98
L425.825 113.536
L425.837 490.781
L425.936 478.43
L426.345 443.225
L426.592 436.111
L426.79 435.219
L426.914 434.782
L427.062 433.159
L427.285 427.615
L427.619 412.778
L428.139 378.361
L429.079 298.009
L430.082 219.557
L430.787 180.392
L431.27 163.872
L431.517 160.782
L431.554 160.753
L431.579 160.802
L431.579 160.802
L431.678 161.549
L431.888 165.526
L432.148 169.628
L432.173 169.585
L432.247 168.768
L432.396 163.843
L432.668 145.251
L433.002 112.956
L433.014 490.512
L433.113 479.672
L433.781 392.369
L435.675 112.635
L435.687 489.612
L435.786 474.341
L437.023 299.821
L437.642 203.941
L438.038 115.083
L438.05 490.883
L438.149 466.197
L438.818 327.598
L440.104 112.992
L440.117 489.666
L440.216 472.21
L442.344 112.954
L442.356 489.839
L442.455 473.633
L443.062 354.496
L443.792 214.117
L444.25 168.362
L444.72 141.905
L445.215 125.714
L445.784 114.19
L445.908 112.098
L445.92 490.767
L446.019 489.11
L446.675 476.245
L447.108 462.871
L447.516 442.964
L447.912 411.833
L448.296 362.185
L448.741 271.025
L449.509 113.86
L449.521 490.695
L449.62 474.649
L451.117 217.695
L451.736 113.685
L451.748 490.346
L451.847 472.357
L452.887 300.651
L453.233 274.515
L453.369 272.34
L453.406 272.448
L453.58 274.374
L453.654 274.706
L453.691 274.554
L453.79 272.908
L453.976 264.98
L454.297 239.7
L454.817 178.737
L455.287 112.606
L455.3 489.74
L455.398 475.947
L456.252 373.535
L457.292 252.838
L457.712 171.079
L457.935 112.243
L457.948 487.641
L458.046 459.679
L458.653 319.404
L459.791 112.526
L459.804 488.939
L459.903 469.4
L461.808 118.294
L461.858 112.419
L461.87 489.914
L461.969 480.244
L462.216 468.369
L462.303 467.898
L462.353 467.977
L462.402 468.035
L462.439 467.938
L462.526 466.841
L462.674 461.136
L462.922 441.264
L463.342 386.825
L465.248 113.717
L465.26 490.798
L465.359 475.915
L465.879 378.168
L466.696 223.003
L467.302 156.202
L467.871 112.486
L467.884 490.582
L467.983 484.591
L468.552 457.949
L469.666 414.139
L469.938 383.006
L470.247 318.497
L470.952 113.98
L470.965 489.805
L471.064 465.815
L472.437 112.831
L472.45 488.384
L472.549 461.489
L473.823 113.725
L473.836 487.995
L473.934 451.55
L474.442 308.397
L475.246 114.268
L475.258 489.894
L475.357 464.262
L476.793 114.404
L476.805 490.858
L476.904 472.05
L477.486 384.874
L477.709 375.391
L477.721 375.357
L477.733 375.366
L477.733 375.366
L477.795 375.972
L477.993 381.307
L478.265 386.172
L478.29 386.177
L478.302 386.15
L478.302 386.15
L478.389 385.407
L478.562 381.209
L478.847 367.602
L479.243 336.654
L479.676 284.411
L480.134 199.146
L480.505 113.873
L480.517 489.993
L480.616 468.53
L481.285 350.591
L481.817 291.209
L482.262 263.544
L482.633 252.483
L483.017 242.29
L483.227 228.109
L483.462 194.999
L483.747 118.196
L483.759 113.856
L483.772 488.321
L483.871 450.921
L484.724 158.745
L484.848 115.566
L484.861 490.142
L484.96 456.271
L485.999 115.26
L486.011 490.438
L486.11 460.359
L486.556 286.565
L487.014 133.577
L487.1 113.439
L487.113 489.537
L487.212 467.852
L487.954 283.847
L488.659 113.613
L488.672 489.573
L488.771 465.177
L489.179 330.693
L489.674 179.463
L490.02 136.211
L490.342 120.315
L490.689 112.062
L490.701 490.612
L490.8 487.615
L491.048 475.407
L491.32 449.498
L491.617 396.852
L491.951 291.955
L492.508 122.53
L492.557 112.932
L492.569 489.515
L492.668 472.534
L493.126 416.691
L493.498 393.394
L493.634 391.331
L493.671 391.562
L493.782 394.361
L494.067 405.496
L494.129 404.512
L494.24 396.692
L494.5 356.64
L494.97 293.531
L495.23 281.799
L495.279 281.47
L495.329 281.702
L495.44 284.018
L495.886 297.941
L495.96 297.266
L496.084 292.647
L496.294 274.199
L496.851 204.771
L496.95 207.746
L497.247 221.437
L497.284 221.132
L497.395 217.56
L497.63 200.815
L498.039 153.371
L498.286 112.316
L498.299 488.769
L498.398 467.627
L498.707 369.861
L499.35 112.58
L499.363 488.541
L499.462 466.932
L500.142 350.804
L500.575 258.85
L500.86 147.346
L500.922 113.945
L500.934 485.898
L501.033 430.447
L501.454 261.6
L501.862 112.286
L501.875 486.043
L501.974 445.611
L502.803 112.502
L502.815 484.557
L502.914 433.595
L503.236 333.857
L503.508 306.144
L503.706 302.193
L503.867 300.35
L504.003 294.821
L504.189 276.06
L504.411 228.119
L504.671 117.86
L504.683 490.018
L504.782 435.628
L505.166 289.601
L505.562 219.517
L505.834 199.203
L505.871 198.899
L505.896 199.108
L505.896 199.108
L505.983 202.392
L506.181 213.34
L506.23 211.998
L506.342 198.647
L506.75 113.296
L506.762 490.368
L506.861 478.796
L507.034 471.288
L507.047 471.36
L507.121 473.264
L507.443 487.898
L507.517 486.171
L507.653 474.443
L507.901 428.714
L508.136 395.418
L508.161 395.97
L508.297 407.541
L508.408 412.349
L508.445 411.73
L508.556 404.557
L508.816 369.325
L509.175 290.224
L509.435 183.635
L509.534 118.564
L509.546 488.418
L509.645 415.855
L510.041 216.596
L510.239 114.894
L510.252 486.82
L510.351 432.055
L510.957 112.682
L510.969 481.58
L511.068 404.959
L511.452 212.37
L511.638 113.715
L511.65 485.366
L511.749 428.42
L512.368 115.513
L512.38 484.073
L512.479 394.867
L512.825 118.78
L512.838 487.28
L512.937 408.019
L513.308 114.837
L513.32 484.874
L513.419 410.874
L513.778 119.115
L513.791 490.906
L513.89 433.723
L514.36 116.056
L514.372 486.523
L514.471 413.184
L514.805 236.302
L515.127 194.243
L515.313 114.114
L515.325 486.734
L515.424 436.786
L515.721 344.697
L515.894 320.972
L516.055 229.72
L516.204 112.394
L516.216 482.386
L516.315 418.229
L516.76 117.606
L516.773 490.568
L516.872 458.541
L516.934 454.296
L516.995 455.677
L517.033 453.825
L517.132 430.695
L517.354 307.756
L517.713 137.388
L517.775 132.306
L517.824 135.096
L517.874 138.202
L517.911 135.951
L517.985 115.576
L517.998 489.301
L518.097 434.187
L518.505 119.282
L518.517 488.924
L518.616 403.941
L518.913 220.828
L519.074 188.005
L519.223 117.183
L519.235 488.958
L519.334 431.913
L519.606 340.974
L519.718 292.256
L519.916 112.587
L519.928 481.409
L520.027 413.075
L520.398 123.041
L520.411 490.175
L520.51 421.653
L521.227 119.503
L521.24 490.334
L521.339 401.125
L521.636 199.817
L521.722 187.288
L521.772 191.017
L521.834 196.37
L521.871 191.342
L521.982 130.758
L521.994 120.886
L522.007 489.328
L522.106 381.447
L522.316 125.269
L522.329 489.047
L522.428 356.6
L522.626 216.291
L522.638 216.52
L522.7 222.1
L522.737 219.001
L522.836 178.036
L522.91 121.625
L522.922 489.037
L523.021 386.475
L523.257 263.533
L523.393 124.511
L523.405 489.227
L523.504 398.809
L523.64 345.48
L523.677 348.494
L523.714 352.782
L523.739 350.446
L523.739 350.446
L523.826 297.344
L523.95 129.679
L523.962 488.643
L524.061 353.09
L524.209 128.609
L524.222 490.026
L524.321 409.418
L524.482 364.797
L524.779 115.813
L524.791 490.488
L524.89 391.68" style="fill:none;stroke:#008000;stroke-linecap:square;stroke-width:2;"/>
   </g>
   <g id="patch_3">
    <path d="
M153.675 60.3
L586.759 60.3" style="fill:none;stroke:#000000;stroke-linecap:square;stroke-linejoin:miter;"/>
   </g>
   <g id="patch_4">
    <path d="
M586.759 542.7
L586.759 60.3" style="fill:none;stroke:#000000;stroke-linecap:square;stroke-linejoin:miter;"/>
   </g>
   <g id="patch_5">
    <path d="
M153.675 542.7
L586.759 542.7" style="fill:none;stroke:#000000;stroke-linecap:square;stroke-linejoin:miter;"/>
   </g>
   <g id="patch_6">
    <path d="
M153.675 542.7
L153.675 60.3" style="fill:none;stroke:#000000;stroke-linecap:square;stroke-linejoin:miter;"/>
   </g>
   <g id="matplotlib.axis_1">
    <g id="xtick_1">
     <g id="line2d_2">
      <defs>
       <path d="
M0 0
L0 -4" id="m93b0483c22" style="stroke:#000000;stroke-width:0.5;"/>
      </defs>
      <g>
       <use style="stroke:#000000;stroke-width:0.5;" x="153.675" xlink:href="#m93b0483c22" y="542.7"/>
      </g>
     </g>
     <g id="line2d_3">
      <defs>
       <path d="
M0 0
L0 4" id="m741efc42ff" style="stroke:#000000;stroke-width:0.5;"/>
      </defs>
      <g>
       <use style="stroke:#000000;stroke-width:0.5;" x="153.675" xlink:href="#m741efc42ff" y="60.3"/>
      </g>
     </g>
     <g id="text_1">
      <!-- 0 -->
      <defs>
       <path d="
M31.7812 66.4062
Q24.1719 66.4062 20.3281 58.9062
Q16.5 51.4219 16.5 36.375
Q16.5 21.3906 20.3281 13.8906
Q24.1719 6.39062 31.7812 6.39062
Q39.4531 6.39062 43.2812 13.8906
Q47.125 21.3906 47.125 36.375
Q47.125 51.4219 43.2812 58.9062
Q39.4531 66.4062 31.7812 66.4062
M31.7812 74.2188
Q44.0469 74.2188 50.5156 64.5156
Q56.9844 54.8281 56.9844 36.375
Q56.9844 17.9688 50.5156 8.26562
Q44.0469 -1.42188 31.7812 -1.42188
Q19.5312 -1.42188 13.0625 8.26562
Q6.59375 17.9688 6.59375 36.375
Q6.59375 54.8281 13.0625 64.5156
Q19.5312 74.2188 31.7812 74.2188" id="BitstreamVeraSans-Roman-30"/>
      </defs>
      <g transform="translate(150.6515625 555.818125)scale(0.12 -0.12)">
       <use xlink:href="#BitstreamVeraSans-Roman-30"/>
      </g>
     </g>
    </g>
    <g id="xtick_2">
     <g id="line2d_4">
      <g>
       <use style="stroke:#000000;stroke-width:0.5;" x="215.544155844" xlink:href="#m93b0483c22" y="542.7"/>
      </g>
     </g>
     <g id="line2d_5">
      <g>
       <use style="stroke:#000000;stroke-width:0.5;" x="215.544155844" xlink:href="#m741efc42ff" y="60.3"/>
      </g>
     </g>
     <g id="text_2">
      <!-- 5 -->
      <defs>
       <path d="
M10.7969 72.9062
L49.5156 72.9062
L49.5156 64.5938
L19.8281 64.5938
L19.8281 46.7344
Q21.9688 47.4688 24.1094 47.8281
Q26.2656 48.1875 28.4219 48.1875
Q40.625 48.1875 47.75 41.5
Q54.8906 34.8125 54.8906 23.3906
Q54.8906 11.625 47.5625 5.09375
Q40.2344 -1.42188 26.9062 -1.42188
Q22.3125 -1.42188 17.5469 -0.640625
Q12.7969 0.140625 7.71875 1.70312
L7.71875 11.625
Q12.1094 9.23438 16.7969 8.0625
Q21.4844 6.89062 26.7031 6.89062
Q35.1562 6.89062 40.0781 11.3281
Q45.0156 15.7656 45.0156 23.3906
Q45.0156 31 40.0781 35.4375
Q35.1562 39.8906 26.7031 39.8906
Q22.75 39.8906 18.8125 39.0156
Q14.8906 38.1406 10.7969 36.2812
z
" id="BitstreamVeraSans-Roman-35"/>
      </defs>
      <g transform="translate(212.713843344 555.818125)scale(0.12 -0.12)">
       <use xlink:href="#BitstreamVeraSans-Roman-35"/>
      </g>
     </g>
    </g>
    <g id="xtick_3">
     <g id="line2d_6">
      <g>
       <use style="stroke:#000000;stroke-width:0.5;" x="277.413311688" xlink:href="#m93b0483c22" y="542.7"/>
      </g>
     </g>
     <g id="line2d_7">
      <g>
       <use style="stroke:#000000;stroke-width:0.5;" x="277.413311688" xlink:href="#m741efc42ff" y="60.3"/>
      </g>
     </g>
     <g id="text_3">
      <!-- 10 -->
      <defs>
       <path d="
M12.4062 8.29688
L28.5156 8.29688
L28.5156 63.9219
L10.9844 60.4062
L10.9844 69.3906
L28.4219 72.9062
L38.2812 72.9062
L38.2812 8.29688
L54.3906 8.29688
L54.3906 0
L12.4062 0
z
" id="BitstreamVeraSans-Roman-31"/>
      </defs>
      <g transform="translate(270.835811688 555.818125)scale(0.12 -0.12)">
       <use xlink:href="#BitstreamVeraSans-Roman-31"/>
       <use x="63.623046875" xlink:href="#BitstreamVeraSans-Roman-30"/>
      </g>
     </g>
    </g>
    <g id="xtick_4">
     <g id="line2d_8">
      <g>
       <use style="stroke:#000000;stroke-width:0.5;" x="339.282467532" xlink:href="#m93b0483c22" y="542.7"/>
      </g>
     </g>
     <g id="line2d_9">
      <g>
       <use style="stroke:#000000;stroke-width:0.5;" x="339.282467532" xlink:href="#m741efc42ff" y="60.3"/>
      </g>
     </g>
     <g id="text_4">
      <!-- 15 -->
      <g transform="translate(332.830592532 555.818125)scale(0.12 -0.12)">
       <use xlink:href="#BitstreamVeraSans-Roman-31"/>
       <use x="63.623046875" xlink:href="#BitstreamVeraSans-Roman-35"/>
      </g>
     </g>
    </g>
    <g id="xtick_5">
     <g id="line2d_10">
      <g>
       <use style="stroke:#000000;stroke-width:0.5;" x="401.151623377" xlink:href="#m93b0483c22" y="542.7"/>
      </g>
     </g>
     <g id="line2d_11">
      <g>
       <use style="stroke:#000000;stroke-width:0.5;" x="401.151623377" xlink:href="#m741efc42ff" y="60.3"/>
      </g>
     </g>
     <g id="text_5">
      <!-- 20 -->
      <defs>
       <path d="
M19.1875 8.29688
L53.6094 8.29688
L53.6094 0
L7.32812 0
L7.32812 8.29688
Q12.9375 14.1094 22.625 23.8906
Q32.3281 33.6875 34.8125 36.5312
Q39.5469 41.8438 41.4219 45.5312
Q43.3125 49.2188 43.3125 52.7812
Q43.3125 58.5938 39.2344 62.25
Q35.1562 65.9219 28.6094 65.9219
Q23.9688 65.9219 18.8125 64.3125
Q13.6719 62.7031 7.8125 59.4219
L7.8125 69.3906
Q13.7656 71.7812 18.9375 73
Q24.125 74.2188 28.4219 74.2188
Q39.75 74.2188 46.4844 68.5469
Q53.2188 62.8906 53.2188 53.4219
Q53.2188 48.9219 51.5312 44.8906
Q49.8594 40.875 45.4062 35.4062
Q44.1875 33.9844 37.6406 27.2188
Q31.1094 20.4531 19.1875 8.29688" id="BitstreamVeraSans-Roman-32"/>
      </defs>
      <g transform="translate(394.354748377 555.818125)scale(0.12 -0.12)">
       <use xlink:href="#BitstreamVeraSans-Roman-32"/>
       <use x="63.623046875" xlink:href="#BitstreamVeraSans-Roman-30"/>
      </g>
     </g>
    </g>
    <g id="xtick_6">
     <g id="line2d_12">
      <g>
       <use style="stroke:#000000;stroke-width:0.5;" x="463.020779221" xlink:href="#m93b0483c22" y="542.7"/>
      </g>
     </g>
     <g id="line2d_13">
      <g>
       <use style="stroke:#000000;stroke-width:0.5;" x="463.020779221" xlink:href="#m741efc42ff" y="60.3"/>
      </g>
     </g>
     <g id="text_6">
      <!-- 25 -->
      <g transform="translate(456.349529221 555.818125)scale(0.12 -0.12)">
       <use xlink:href="#BitstreamVeraSans-Roman-32"/>
       <use x="63.623046875" xlink:href="#BitstreamVeraSans-Roman-35"/>
      </g>
     </g>
    </g>
    <g id="xtick_7">
     <g id="line2d_14">
      <g>
       <use style="stroke:#000000;stroke-width:0.5;" x="524.889935065" xlink:href="#m93b0483c22" y="542.7"/>
      </g>
     </g>
     <g id="line2d_15">
      <g>
       <use style="stroke:#000000;stroke-width:0.5;" x="524.889935065" xlink:href="#m741efc42ff" y="60.3"/>
      </g>
     </g>
     <g id="text_7">
      <!-- 30 -->
      <defs>
       <path d="
M40.5781 39.3125
Q47.6562 37.7969 51.625 33
Q55.6094 28.2188 55.6094 21.1875
Q55.6094 10.4062 48.1875 4.48438
Q40.7656 -1.42188 27.0938 -1.42188
Q22.5156 -1.42188 17.6562 -0.515625
Q12.7969 0.390625 7.625 2.20312
L7.625 11.7188
Q11.7188 9.32812 16.5938 8.10938
Q21.4844 6.89062 26.8125 6.89062
Q36.0781 6.89062 40.9375 10.5469
Q45.7969 14.2031 45.7969 21.1875
Q45.7969 27.6406 41.2812 31.2656
Q36.7656 34.9062 28.7188 34.9062
L20.2188 34.9062
L20.2188 43.0156
L29.1094 43.0156
Q36.375 43.0156 40.2344 45.9219
Q44.0938 48.8281 44.0938 54.2969
Q44.0938 59.9062 40.1094 62.9062
Q36.1406 65.9219 28.7188 65.9219
Q24.6562 65.9219 20.0156 65.0312
Q15.375 64.1562 9.8125 62.3125
L9.8125 71.0938
Q15.4375 72.6562 20.3438 73.4375
Q25.25 74.2188 29.5938 74.2188
Q40.8281 74.2188 47.3594 69.1094
Q53.9062 64.0156 53.9062 55.3281
Q53.9062 49.2656 50.4375 45.0938
Q46.9688 40.9219 40.5781 39.3125" id="BitstreamVeraSans-Roman-33"/>
      </defs>
      <g transform="translate(518.110872565 555.818125)scale(0.12 -0.12)">
       <use xlink:href="#BitstreamVeraSans-Roman-33"/>
       <use x="63.623046875" xlink:href="#BitstreamVeraSans-Roman-30"/>
      </g>
     </g>
    </g>
    <g id="xtick_8">
     <g id="line2d_16">
      <g>
       <use style="stroke:#000000;stroke-width:0.5;" x="586.759090909" xlink:href="#m93b0483c22" y="542.7"/>
      </g>
     </g>
     <g id="line2d_17">
      <g>
       <use style="stroke:#000000;stroke-width:0.5;" x="586.759090909" xlink:href="#m741efc42ff" y="60.3"/>
      </g>
     </g>
     <g id="text_8">
      <!-- 35 -->
      <g transform="translate(580.105653409 555.818125)scale(0.12 -0.12)">
       <use xlink:href="#BitstreamVeraSans-Roman-33"/>
       <use x="63.623046875" xlink:href="#BitstreamVeraSans-Roman-35"/>
      </g>
     </g>
    </g>
    <g id="text_9">
     <!-- time($s$) -->
     <defs>
      <path d="
M8.01562 75.875
L15.8281 75.875
Q23.1406 64.3594 26.7812 53.3125
Q30.4219 42.2812 30.4219 31.3906
Q30.4219 20.4531 26.7812 9.375
Q23.1406 -1.70312 15.8281 -13.1875
L8.01562 -13.1875
Q14.5 -2 17.7031 9.0625
Q20.9062 20.125 20.9062 31.3906
Q20.9062 42.6719 17.7031 53.6562
Q14.5 64.6562 8.01562 75.875" id="BitstreamVeraSans-Roman-29"/>
      <path d="
M52 44.1875
Q55.375 50.25 60.0625 53.125
Q64.75 56 71.0938 56
Q79.6406 56 84.2812 50.0156
Q88.9219 44.0469 88.9219 33.0156
L88.9219 0
L79.8906 0
L79.8906 32.7188
Q79.8906 40.5781 77.0938 44.375
Q74.3125 48.1875 68.6094 48.1875
Q61.625 48.1875 57.5625 43.5469
Q53.5156 38.9219 53.5156 30.9062
L53.5156 0
L44.4844 0
L44.4844 32.7188
Q44.4844 40.625 41.7031 44.4062
Q38.9219 48.1875 33.1094 48.1875
Q26.2188 48.1875 22.1562 43.5312
Q18.1094 38.875 18.1094 30.9062
L18.1094 0
L9.07812 0
L9.07812 54.6875
L18.1094 54.6875
L18.1094 46.1875
Q21.1875 51.2188 25.4844 53.6094
Q29.7812 56 35.6875 56
Q41.6562 56 45.8281 52.9688
Q50 49.9531 52 44.1875" id="BitstreamVeraSans-Roman-6d"/>
      <path d="
M8.6875 6.10938
Q11.375 1.51562 19.4844 1.51562
Q23 1.51562 26.1719 2.70312
Q29.3438 3.90625 31.4219 6.29688
Q33.5 8.6875 33.5 12.1094
Q33.5 14.7031 31.6406 16.3594
Q29.7812 18.0156 27.0938 18.6094
L21.6875 19.6719
Q17.9688 20.6094 15.5781 23.1406
Q13.1875 25.6875 13.1875 29.2969
Q13.1875 33.7344 15.5938 37.1562
Q18.0156 40.5781 21.9688 42.375
Q25.9219 44.1875 30.1719 44.1875
Q34.7188 44.1875 38.2969 42.0156
Q41.8906 39.8438 41.8906 35.5938
Q41.8906 33.2969 40.5938 31.5312
Q39.3125 29.7812 37.0156 29.7812
Q35.6875 29.7812 34.7344 30.6406
Q33.7969 31.5 33.7969 32.8125
Q33.7969 33.9844 34.4531 35.0781
Q35.1094 36.1875 36.2031 36.8438
Q37.3125 37.5 38.4844 37.5
Q37.5938 39.6562 35.1719 40.625
Q32.7656 41.6094 29.9844 41.6094
Q27.4375 41.6094 24.8906 40.5781
Q22.3594 39.5469 20.8125 37.5625
Q19.2812 35.5938 19.2812 32.9062
Q19.2812 31.1094 20.5469 29.7344
Q21.8281 28.375 23.6875 27.7812
L29.5 26.6094
Q32.2812 26.0312 34.5938 24.5312
Q36.9219 23.0469 38.25 20.7656
Q39.5938 18.5 39.5938 15.5781
Q39.5938 11.8594 37.5156 8.25
Q35.4531 4.64062 32.4219 2.48438
Q27.0938 -1.125 19.3906 -1.125
Q14.0625 -1.125 9.60938 1.3125
Q5.17188 3.76562 5.17188 8.59375
Q5.17188 11.3281 6.75 13.3438
Q8.34375 15.375 11.0781 15.375
Q12.7031 15.375 13.7969 14.3906
Q14.8906 13.4219 14.8906 11.8125
Q14.8906 9.51562 13.1719 7.8125
Q11.4688 6.10938 9.1875 6.10938
z
" id="Cmmi10-73"/>
      <path d="
M9.42188 54.6875
L18.4062 54.6875
L18.4062 0
L9.42188 0
z

M9.42188 75.9844
L18.4062 75.9844
L18.4062 64.5938
L9.42188 64.5938
z
" id="BitstreamVeraSans-Roman-69"/>
      <path d="
M31 75.875
Q24.4688 64.6562 21.2812 53.6562
Q18.1094 42.6719 18.1094 31.3906
Q18.1094 20.125 21.3125 9.0625
Q24.5156 -2 31 -13.1875
L23.1875 -13.1875
Q15.875 -1.70312 12.2344 9.375
Q8.59375 20.4531 8.59375 31.3906
Q8.59375 42.2812 12.2031 53.3125
Q15.8281 64.3594 23.1875 75.875
z
" id="BitstreamVeraSans-Roman-28"/>
      <path d="
M56.2031 29.5938
L56.2031 25.2031
L14.8906 25.2031
Q15.4844 15.9219 20.4844 11.0625
Q25.4844 6.20312 34.4219 6.20312
Q39.5938 6.20312 44.4531 7.46875
Q49.3125 8.73438 54.1094 11.2812
L54.1094 2.78125
Q49.2656 0.734375 44.1875 -0.34375
Q39.1094 -1.42188 33.8906 -1.42188
Q20.7969 -1.42188 13.1562 6.1875
Q5.51562 13.8125 5.51562 26.8125
Q5.51562 40.2344 12.7656 48.1094
Q20.0156 56 32.3281 56
Q43.3594 56 49.7812 48.8906
Q56.2031 41.7969 56.2031 29.5938
M47.2188 32.2344
Q47.125 39.5938 43.0938 43.9844
Q39.0625 48.3906 32.4219 48.3906
Q24.9062 48.3906 20.3906 44.1406
Q15.875 39.8906 15.1875 32.1719
z
" id="BitstreamVeraSans-Roman-65"/>
      <path d="
M18.3125 70.2188
L18.3125 54.6875
L36.8125 54.6875
L36.8125 47.7031
L18.3125 47.7031
L18.3125 18.0156
Q18.3125 11.3281 20.1406 9.42188
Q21.9688 7.51562 27.5938 7.51562
L36.8125 7.51562
L36.8125 0
L27.5938 0
Q17.1875 0 13.2344 3.875
Q9.28125 7.76562 9.28125 18.0156
L9.28125 47.7031
L2.6875 47.7031
L2.6875 54.6875
L9.28125 54.6875
L9.28125 70.2188
z
" id="BitstreamVeraSans-Roman-74"/>
     </defs>
     <g transform="translate(349.157045455 572.431875)scale(0.12 -0.12)">
      <use transform="translate(0.0 0.015625)" xlink:href="#BitstreamVeraSans-Roman-74"/>
      <use transform="translate(39.208984375 0.015625)" xlink:href="#BitstreamVeraSans-Roman-69"/>
      <use transform="translate(66.9921875 0.015625)" xlink:href="#BitstreamVeraSans-Roman-6d"/>
      <use transform="translate(164.404296875 0.015625)" xlink:href="#BitstreamVeraSans-Roman-65"/>
      <use transform="translate(225.927734375 0.015625)" xlink:href="#BitstreamVeraSans-Roman-28"/>
      <use transform="translate(264.94140625 0.015625)" xlink:href="#Cmmi10-73"/>
      <use transform="translate(311.71875 0.015625)" xlink:href="#BitstreamVeraSans-Roman-29"/>
     </g>
    </g>
   </g>
   <g id="matplotlib.axis_2">
    <g id="ytick_1">
     <g id="line2d_18">
      <defs>
       <path d="
M0 0
L4 0" id="m728421d6d4" style="stroke:#000000;stroke-width:0.5;"/>
      </defs>
      <g>
       <use style="stroke:#000000;stroke-width:0.5;" x="153.675" xlink:href="#m728421d6d4" y="542.7"/>
      </g>
     </g>
     <g id="line2d_19">
      <defs>
       <path d="
M0 0
L-4 0" id="mcb0005524f" style="stroke:#000000;stroke-width:0.5;"/>
      </defs>
      <g>
       <use style="stroke:#000000;stroke-width:0.5;" x="586.759090909" xlink:href="#mcb0005524f" y="542.7"/>
      </g>
     </g>
     <g id="text_10">
      <!-- −4 -->
      <defs>
       <path d="
M10.5938 35.5
L73.1875 35.5
L73.1875 27.2031
L10.5938 27.2031
z
" id="BitstreamVeraSans-Roman-2212"/>
       <path d="
M37.7969 64.3125
L12.8906 25.3906
L37.7969 25.3906
z

M35.2031 72.9062
L47.6094 72.9062
L47.6094 25.3906
L58.0156 25.3906
L58.0156 17.1875
L47.6094 17.1875
L47.6094 0
L37.7969 0
L37.7969 17.1875
L4.89062 17.1875
L4.89062 26.7031
z
" id="BitstreamVeraSans-Roman-34"/>
      </defs>
      <g transform="translate(133.92875 546.01125)scale(0.12 -0.12)">
       <use xlink:href="#BitstreamVeraSans-Roman-2212"/>
       <use x="83.7890625" xlink:href="#BitstreamVeraSans-Roman-34"/>
      </g>
     </g>
    </g>
    <g id="ytick_2">
     <g id="line2d_20">
      <g>
       <use style="stroke:#000000;stroke-width:0.5;" x="153.675" xlink:href="#m728421d6d4" y="482.4"/>
      </g>
     </g>
     <g id="line2d_21">
      <g>
       <use style="stroke:#000000;stroke-width:0.5;" x="586.759090909" xlink:href="#mcb0005524f" y="482.4"/>
      </g>
     </g>
     <g id="text_11">
      <!-- −3 -->
      <g transform="translate(134.2175 485.71125)scale(0.12 -0.12)">
       <use xlink:href="#BitstreamVeraSans-Roman-2212"/>
       <use x="83.7890625" xlink:href="#BitstreamVeraSans-Roman-33"/>
      </g>
     </g>
    </g>
    <g id="ytick_3">
     <g id="line2d_22">
      <g>
       <use style="stroke:#000000;stroke-width:0.5;" x="153.675" xlink:href="#m728421d6d4" y="422.1"/>
      </g>
     </g>
     <g id="line2d_23">
      <g>
       <use style="stroke:#000000;stroke-width:0.5;" x="586.759090909" xlink:href="#mcb0005524f" y="422.1"/>
      </g>
     </g>
     <g id="text_12">
      <!-- −2 -->
      <g transform="translate(134.4575 425.41125)scale(0.12 -0.12)">
       <use xlink:href="#BitstreamVeraSans-Roman-2212"/>
       <use x="83.7890625" xlink:href="#BitstreamVeraSans-Roman-32"/>
      </g>
     </g>
    </g>
    <g id="ytick_4">
     <g id="line2d_24">
      <g>
       <use style="stroke:#000000;stroke-width:0.5;" x="153.675" xlink:href="#m728421d6d4" y="361.8"/>
      </g>
     </g>
     <g id="line2d_25">
      <g>
       <use style="stroke:#000000;stroke-width:0.5;" x="586.759090909" xlink:href="#mcb0005524f" y="361.8"/>
      </g>
     </g>
     <g id="text_13">
      <!-- −1 -->
      <g transform="translate(134.36375 365.11125)scale(0.12 -0.12)">
       <use xlink:href="#BitstreamVeraSans-Roman-2212"/>
       <use x="83.7890625" xlink:href="#BitstreamVeraSans-Roman-31"/>
      </g>
     </g>
    </g>
    <g id="ytick_5">
     <g id="line2d_26">
      <g>
       <use style="stroke:#000000;stroke-width:0.5;" x="153.675" xlink:href="#m728421d6d4" y="301.5"/>
      </g>
     </g>
     <g id="line2d_27">
      <g>
       <use style="stroke:#000000;stroke-width:0.5;" x="586.759090909" xlink:href="#mcb0005524f" y="301.5"/>
      </g>
     </g>
     <g id="text_14">
      <!-- 0 -->
      <g transform="translate(143.628125 304.81125)scale(0.12 -0.12)">
       <use xlink:href="#BitstreamVeraSans-Roman-30"/>
      </g>
     </g>
    </g>
    <g id="ytick_6">
     <g id="line2d_28">
      <g>
       <use style="stroke:#000000;stroke-width:0.5;" x="153.675" xlink:href="#m728421d6d4" y="241.2"/>
      </g>
     </g>
     <g id="line2d_29">
      <g>
       <use style="stroke:#000000;stroke-width:0.5;" x="586.759090909" xlink:href="#mcb0005524f" y="241.2"/>
      </g>
     </g>
     <g id="text_15">
      <!-- 1 -->
      <g transform="translate(144.46625 244.51125)scale(0.12 -0.12)">
       <use xlink:href="#BitstreamVeraSans-Roman-31"/>
      </g>
     </g>
    </g>
    <g id="ytick_7">
     <g id="line2d_30">
      <g>
       <use style="stroke:#000000;stroke-width:0.5;" x="153.675" xlink:href="#m728421d6d4" y="180.9"/>
      </g>
     </g>
     <g id="line2d_31">
      <g>
       <use style="stroke:#000000;stroke-width:0.5;" x="586.759090909" xlink:href="#mcb0005524f" y="180.9"/>
      </g>
     </g>
     <g id="text_16">
      <!-- 2 -->
      <g transform="translate(144.12125 184.21125)scale(0.12 -0.12)">
       <use xlink:href="#BitstreamVeraSans-Roman-32"/>
      </g>
     </g>
    </g>
    <g id="ytick_8">
     <g id="line2d_32">
      <g>
       <use style="stroke:#000000;stroke-width:0.5;" x="153.675" xlink:href="#m728421d6d4" y="120.6"/>
      </g>
     </g>
     <g id="line2d_33">
      <g>
       <use style="stroke:#000000;stroke-width:0.5;" x="586.759090909" xlink:href="#mcb0005524f" y="120.6"/>
      </g>
     </g>
     <g id="text_17">
      <!-- 3 -->
      <g transform="translate(143.916875 123.91125)scale(0.12 -0.12)">
       <use xlink:href="#BitstreamVeraSans-Roman-33"/>
      </g>
     </g>
    </g>
    <g id="ytick_9">
     <g id="line2d_34">
      <g>
       <use style="stroke:#000000;stroke-width:0.5;" x="153.675" xlink:href="#m728421d6d4" y="60.3"/>
      </g>
     </g>
     <g id="line2d_35">
      <g>
       <use style="stroke:#000000;stroke-width:0.5;" x="586.759090909" xlink:href="#mcb0005524f" y="60.3"/>
      </g>
     </g>
     <g id="text_18">
      <!-- 4 -->
      <g transform="translate(143.3 63.61125)scale(0.12 -0.12)">
       <use xlink:href="#BitstreamVeraSans-Roman-34"/>
      </g>
     </g>
    </g>
    <g id="text_19">
     <!-- $\theta$($Rad$) -->
     <defs>
      <path d="
M16.1094 -1.125
Q11.5781 -1.125 8.84375 2.1875
Q6.10938 5.51562 5.04688 10.2031
Q4 14.8906 4 19.4844
L4 19.5781
Q4 24.5625 4.95312 29.9219
Q5.90625 35.2969 7.70312 40.6406
Q9.51562 46 11.625 50.2031
Q13.0938 53.125 15.4062 56.7344
Q17.7188 60.3594 20.5781 63.5
Q23.4375 66.6562 26.7344 68.5781
Q30.0312 70.5156 33.4062 70.5156
L33.5 70.5156
Q37.1094 70.5156 39.5156 68.5
Q41.9375 66.5 43.2812 63.375
Q44.625 60.25 45.1562 56.6875
Q45.7031 53.125 45.7031 49.9062
Q45.7031 42.3281 43.6562 34.4375
Q41.6094 26.5625 37.9844 19.1875
Q36.625 16.4062 34.2031 12.6406
Q31.7812 8.89062 29.0781 5.90625
Q26.375 2.9375 23 0.90625
Q19.625 -1.125 16.2188 -1.125
z

M16.3125 1.51562
Q19.625 1.51562 22.6719 5.04688
Q25.7344 8.59375 28.0312 13.6406
Q30.3281 18.7031 32.0625 24
Q33.7969 29.2969 34.625 33.0156
L14.2031 33.0156
Q12.6406 26.7031 11.7656 22.1406
Q10.8906 17.5781 10.8906 13.1875
Q10.8906 1.51562 16.3125 1.51562
M14.9844 36.5312
L35.5 36.5312
Q36.5781 40.9219 37.2031 43.875
Q37.8438 46.8281 38.2812 50.0938
Q38.7188 53.375 38.7188 56.2031
Q38.7188 67.9219 33.4062 67.9219
Q27.0469 67.9219 22.4375 57.6875
Q17.8281 47.4688 14.9844 36.5312" id="Cmmi10-b5"/>
      <path d="
M17.3906 -1.125
Q11.0781 -1.125 7.4375 3.64062
Q3.8125 8.40625 3.8125 14.8906
Q3.8125 21.2969 7.125 28.1719
Q10.4531 35.0625 16.0938 39.625
Q21.7344 44.1875 28.2188 44.1875
Q31.2031 44.1875 33.5469 42.5781
Q35.8906 40.9688 37.2031 38.1875
Q38.3281 42.1875 41.6094 42.1875
Q42.875 42.1875 43.7188 41.4219
Q44.5781 40.6719 44.5781 39.4062
Q44.5781 39.1094 44.5469 38.9531
Q44.5312 38.8125 44.4844 38.625
L37.5 10.6875
Q36.8125 7.71875 36.8125 5.8125
Q36.8125 1.51562 39.7031 1.51562
Q42.8281 1.51562 44.4531 5.48438
Q46.0938 9.46875 47.2188 14.7031
Q47.4062 15.2812 48 15.2812
L49.2188 15.2812
Q49.6094 15.2812 49.8438 14.9375
Q50.0938 14.5938 50.0938 14.3125
Q48.3438 7.32812 46.2656 3.09375
Q44.1875 -1.125 39.5 -1.125
Q36.1406 -1.125 33.5469 0.84375
Q30.9531 2.82812 30.3281 6.10938
Q23.875 -1.125 17.3906 -1.125
M17.4844 1.51562
Q21.0938 1.51562 24.4844 4.21875
Q27.875 6.9375 30.3281 10.5938
Q30.4219 10.6875 30.4219 10.8906
L35.7969 32.625
L35.8906 32.9062
Q35.2969 36.4688 33.3125 39.0312
Q31.3438 41.6094 27.9844 41.6094
Q24.6094 41.6094 21.7031 38.8438
Q18.7969 36.0781 16.7969 32.3281
Q14.8438 28.3281 13.0625 21.3438
Q11.2812 14.3594 11.2812 10.5
Q11.2812 7.03125 12.7656 4.26562
Q14.2656 1.51562 17.4844 1.51562" id="Cmmi10-61"/>
      <path d="
M4.89062 0
Q3.90625 0 3.90625 1.3125
Q3.95312 1.5625 4.09375 2.17188
Q4.25 2.78125 4.51562 3.14062
Q4.78125 3.51562 5.17188 3.51562
Q11.2812 3.51562 13.7188 4.20312
Q14.9844 4.64062 15.5781 6.89062
L29.2969 61.8125
Q29.5 62.7969 29.5 63.1875
Q29.5 64.2656 28.3281 64.4062
Q26.4219 64.7969 21.0938 64.7969
Q20.125 64.7969 20.125 66.1094
Q20.1719 66.3594 20.3125 66.9688
Q20.4531 67.5781 20.7188 67.9375
Q21 68.3125 21.3906 68.3125
L51.7031 68.3125
Q55.3281 68.3125 59.2344 67.4844
Q63.1406 66.6562 66.4062 64.875
Q69.6719 63.0938 71.7656 60.125
Q73.875 57.1719 73.875 53.2188
Q73.875 48.1875 70.5469 44.2344
Q67.2344 40.2812 62.1562 37.625
Q57.0781 34.9688 52.2969 33.8906
Q56.2031 32.4688 58.6875 29.3594
Q61.1875 26.2656 61.1875 22.2188
Q61.1875 21.6875 61.1562 21.4062
Q61.1406 21.1406 61.0781 20.7969
L60.2969 11.9219
Q60.2031 9.96875 60.1094 8.59375
Q60.0156 7.23438 60.0156 6.39062
Q60.0156 3.65625 60.8125 2.01562
Q61.625 0.390625 64.0156 0.390625
Q67.1406 0.390625 69.5 3.29688
Q71.875 6.20312 72.6094 9.625
Q73.0469 10.5 73.5781 10.5
L74.5156 10.5
Q75.4844 10.5 75.4844 9.1875
Q74.75 6.29688 73.1562 3.70312
Q71.5781 1.125 69.1562 -0.53125
Q66.75 -2.20312 63.9219 -2.20312
Q58.0625 -2.20312 53.9375 0.40625
Q49.8125 3.03125 49.8125 8.59375
Q49.8125 10.6875 50.2031 12.3125
L52.3906 21.1875
Q52.7812 22.4062 52.7812 24.0312
Q52.7812 28.1719 49.9688 30.5312
Q47.1719 32.9062 42.9219 32.9062
L30.6094 32.9062
L24.0312 6.5
Q23.7812 5.67188 23.7812 5.07812
Q23.7812 4.04688 25 3.90625
Q26.9062 3.51562 32.1719 3.51562
Q33.2031 3.51562 33.2031 2.20312
Q32.8594 0.78125 32.6562 0.390625
Q32.4688 0 31.5 0
z

M31.2031 35.5
L42.2812 35.5
Q53.1719 35.5 58.6875 41.0156
Q61.2344 43.5625 62.7188 47.4844
Q64.2031 51.4219 64.2031 55.3281
Q64.2031 59.0312 62.0312 61.125
Q59.8594 63.2344 56.6562 64.0156
Q53.4688 64.7969 49.6094 64.7969
L42.9219 64.7969
Q40.1875 64.7969 39.2969 64.3281
Q38.4219 63.875 37.7031 61.375
z
" id="Cmmi10-52"/>
      <path d="
M17.3906 -1.125
Q11.0781 -1.125 7.4375 3.64062
Q3.8125 8.40625 3.8125 14.8906
Q3.8125 21.2969 7.125 28.1719
Q10.4531 35.0625 16.0938 39.625
Q21.7344 44.1875 28.2188 44.1875
Q31.1562 44.1875 33.5156 42.5469
Q35.8906 40.9219 37.2031 38.1875
L42.8281 60.5
Q43.2188 62.2031 43.3125 63.1875
Q43.3125 64.7969 36.8125 64.7969
Q35.7969 64.7969 35.7969 66.1094
Q35.8438 66.3594 36.0156 66.9844
Q36.1875 67.625 36.4531 67.9688
Q36.7188 68.3125 37.2031 68.3125
L50.6875 69.3906
Q51.9062 69.3906 51.9062 68.1094
L37.5 10.5938
Q36.8125 8.9375 36.8125 5.8125
Q36.8125 1.51562 39.7031 1.51562
Q42.8281 1.51562 44.4531 5.48438
Q46.0938 9.46875 47.2188 14.7031
Q47.4062 15.2812 48 15.2812
L49.2188 15.2812
Q49.6094 15.2812 49.8438 14.9375
Q50.0938 14.5938 50.0938 14.3125
Q48.3438 7.32812 46.2656 3.09375
Q44.1875 -1.125 39.5 -1.125
Q36.1406 -1.125 33.5469 0.84375
Q30.9531 2.82812 30.3281 6.10938
Q23.875 -1.125 17.3906 -1.125
M17.4844 1.51562
Q21.0938 1.51562 24.4844 4.21875
Q27.875 6.9375 30.3281 10.5938
Q30.4219 10.6875 30.4219 10.9844
L35.8906 33.0156
Q35.2969 36.5312 33.2969 39.0625
Q31.2969 41.6094 27.9844 41.6094
Q24.6094 41.6094 21.7031 38.8438
Q18.7969 36.0781 16.7969 32.3281
Q14.8438 28.3281 13.0625 21.3438
Q11.2812 14.3594 11.2812 10.5
Q11.2812 7.03125 12.7656 4.26562
Q14.2656 1.51562 17.4844 1.51562" id="Cmmi10-64"/>
     </defs>
     <g transform="translate(126.433125 319.86)rotate(-90.0)scale(0.12 -0.12)">
      <use transform="translate(0.0 0.125)" xlink:href="#Cmmi10-b5"/>
      <use transform="translate(46.923828125 0.125)" xlink:href="#BitstreamVeraSans-Roman-28"/>
      <use transform="translate(85.9375 0.125)" xlink:href="#Cmmi10-52"/>
      <use transform="translate(161.81640625 0.125)" xlink:href="#Cmmi10-61"/>
      <use transform="translate(214.599609375 0.125)" xlink:href="#Cmmi10-64"/>
      <use transform="translate(266.6015625 0.125)" xlink:href="#BitstreamVeraSans-Roman-29"/>
     </g>
    </g>
   </g>
   <g id="legend_1">
    <g id="line2d_36">
     <path d="
M540.777 73.3932
L554.772 73.3932" style="fill:none;stroke:#008000;stroke-linecap:square;stroke-width:2;"/>
    </g>
    <g id="line2d_37"/>
    <g id="text_20">
     <!-- $\theta$-$t$ -->
     <defs>
      <path d="
M4.89062 31.3906
L31.2031 31.3906
L31.2031 23.3906
L4.89062 23.3906
z
" id="BitstreamVeraSans-Roman-2d"/>
      <path d="
M6.20312 8.10938
Q6.20312 9.57812 6.5 10.8906
L13.7188 39.5938
L3.21875 39.5938
Q2.20312 39.5938 2.20312 40.9219
Q2.59375 43.1094 3.51562 43.1094
L14.5938 43.1094
L18.6094 59.4219
Q19 60.75 20.1719 61.6719
Q21.3438 62.5938 22.7969 62.5938
Q24.0781 62.5938 24.9219 61.8281
Q25.7812 61.0781 25.7812 59.8125
Q25.7812 59.5156 25.75 59.3438
Q25.7344 59.1875 25.6875 58.9844
L21.6875 43.1094
L31.9844 43.1094
Q33.0156 43.1094 33.0156 41.7969
Q32.9531 41.5469 32.8125 40.9531
Q32.6719 40.375 32.4219 39.9844
Q32.1719 39.5938 31.6875 39.5938
L20.7969 39.5938
L13.625 10.6875
Q12.8906 7.85938 12.8906 5.8125
Q12.8906 1.51562 15.8281 1.51562
Q20.2188 1.51562 23.6094 5.64062
Q27 9.76562 28.8125 14.7031
Q29.2031 15.2812 29.5938 15.2812
L30.8125 15.2812
Q31.2031 15.2812 31.4375 15.0156
Q31.6875 14.75 31.6875 14.4062
Q31.6875 14.2031 31.5938 14.1094
Q29.3906 8.0625 25.1875 3.46875
Q21 -1.125 15.5781 -1.125
Q11.625 -1.125 8.90625 1.45312
Q6.20312 4.04688 6.20312 8.10938" id="Cmmi10-74"/>
     </defs>
     <g transform="translate(565.767490909 76.891798125)scale(0.09996 -0.09996)">
      <use transform="translate(0.0 0.484375)" xlink:href="#Cmmi10-b5"/>
      <use transform="translate(46.923828125 0.484375)" xlink:href="#BitstreamVeraSans-Roman-2d"/>
      <use transform="translate(83.0078125 0.484375)" xlink:href="#Cmmi10-74"/>
     </g>
    </g>
   </g>
  </g>
  <g id="axes_2">
   <g id="patch_7">
    <path d="
M673.376 542.7
L1106.46 542.7
L1106.46 60.3
L673.376 60.3
z
" style="fill:#ffffff;"/>
   </g>
   <g id="line2d_38">
    <path clip-path="url(#p9b96c9b755)" d="
M673.376 482.279
L675.096 482.168
L676.704 481.844
L678.09 481.343
L679.216 480.706
L680.12 479.943
L680.862 479.026
L681.493 477.891
L682.062 476.391
L682.594 474.317
L683.126 471.261
L683.745 466.241
L684.921 456.457
L685.193 455.741
L685.354 455.743
L685.539 456.059
L686.071 457.643
L686.43 458.278
L686.665 458.318
L686.925 458.082
L687.705 457.239
L687.977 457.321
L688.967 457.857
L689.412 457.604
L689.883 457.426
L690.266 457.538
L690.984 457.779
L691.442 457.625
L692.011 457.481
L692.506 457.635
L693.063 457.748
L693.607 457.575
L694.114 457.5
L694.708 457.697
L695.179 457.738
L696.478 457.59
L697.158 457.779
L697.591 457.612
L698.161 457.423
L698.532 457.568
L699.225 457.884
L699.547 457.733
L700.351 457.231
L700.611 457.423
L701.551 458.359
L701.761 458.094
L702.071 457.264
L702.727 455.426
L702.875 455.471
L703.036 455.854
L703.283 457.137
L703.692 460.65
L705.003 472.612
L705.585 475.606
L706.167 477.502
L706.798 478.83
L707.503 479.802
L708.307 480.534
L709.26 481.099
L710.411 481.517
L711.784 481.774
L713.331 481.834
L714.94 481.676
L716.424 481.31
L717.662 480.782
L718.652 480.121
L719.444 479.326
L720.099 478.353
L720.681 477.075
L721.201 475.366
L721.696 472.917
L722.203 469.169
L722.871 462.287
L723.552 455.924
L723.849 454.835
L723.997 454.797
L724.01 454.808
L724.183 455.141
L724.566 456.561
L725.024 457.937
L725.272 458.148
L725.47 458.052
L725.791 457.578
L726.311 456.883
L726.559 456.868
L726.868 457.114
L727.462 457.584
L727.759 457.526
L728.774 457.101
L729.9 457.416
L730.79 457.136
L731.36 457.391
L731.78 457.447
L732.263 457.243
L732.746 457.124
L733.166 457.283
L733.748 457.475
L734.131 457.334
L734.787 457.078
L735.134 457.224
L735.827 457.566
L736.136 457.418
L736.94 456.907
L737.2 457.103
L738.079 457.982
L738.289 457.758
L738.586 457.051
L739.217 455.495
L739.366 455.548
L739.539 455.964
L739.799 457.318
L740.207 460.841
L742.026 478.149
L742.447 479.497
L742.83 480.06
L743.214 480.255
L743.684 480.231
L744.525 479.92
L746.654 479.111
L748.114 478.818
L749.549 478.754
L750.985 478.913
L752.42 479.297
L755.254 480.159
L755.6 479.92
L755.922 479.399
L756.256 478.376
L756.615 476.477
L757.035 472.926
L757.741 464.607
L758.52 456.331
L758.867 454.573
L759.065 454.366
L759.213 454.544
L759.485 455.336
L760.055 456.944
L760.29 457.083
L760.5 456.934
L760.958 456.204
L761.304 455.876
L761.539 455.927
L761.923 456.312
L762.344 456.617
L762.628 456.551
L763.594 456.097
L764.126 456.443
L764.484 456.524
L764.856 456.35
L765.425 456.1
L765.771 456.227
L766.452 456.519
L766.811 456.362
L767.429 456.077
L767.751 456.215
L768.456 456.584
L768.753 456.427
L769.483 455.945
L769.743 456.119
L770.585 456.873
L770.807 456.637
L771.179 455.821
L771.575 455.124
L771.735 455.157
L771.909 455.487
L772.181 456.607
L772.75 460.217
L775.064 474.752
L775.707 477.225
L776.4 479.028
L777.18 480.446
L778.046 481.57
L778.962 482.407
L779.853 482.931
L780.682 483.17
L781.486 483.174
L782.303 482.951
L783.157 482.48
L784.047 481.731
L784.926 480.697
L785.718 479.416
L786.398 477.882
L786.992 475.982
L787.549 473.42
L788.168 469.395
L790.247 454.882
L790.556 453.893
L790.729 453.84
L790.903 454.086
L791.818 455.773
L792.041 455.587
L792.833 454.716
L793.08 454.869
L793.81 455.451
L794.095 455.304
L794.788 454.857
L795.085 455.005
L795.741 455.389
L796.038 455.253
L796.718 454.868
L797.015 455.025
L797.659 455.426
L797.931 455.293
L798.698 454.782
L798.958 454.992
L799.638 455.65
L799.849 455.508
L800.158 454.963
L800.616 454.233
L800.789 454.29
L800.987 454.677
L801.334 455.991
L801.866 457.847
L802.051 457.934
L802.187 457.705
L802.385 456.855
L802.658 454.569
L803.078 448.765
L803.549 443.132
L803.685 442.8
L803.722 442.835
L803.846 443.288
L804.143 445.584
L804.514 447.812
L804.675 447.989
L804.687 447.983
L804.823 447.755
L805.17 446.51
L805.454 445.898
L805.603 445.952
L805.838 446.413
L806.221 447.05
L806.395 446.996
L806.692 446.554
L807.001 446.255
L807.199 446.355
L807.83 446.855
L808.102 446.611
L808.473 446.353
L808.709 446.476
L809.228 446.817
L809.488 446.649
L809.921 446.377
L810.169 446.515
L810.651 446.819
L810.899 446.665
L811.369 446.354
L811.604 446.511
L812.087 446.876
L812.297 446.731
L812.841 446.257
L813.039 446.447
L813.584 447.063
L813.757 446.869
L814.351 445.864
L814.4 445.906
L814.574 446.294
L815.18 448.111
L815.23 448.071
L815.366 447.696
L815.588 446.269
L816.17 442.207
L816.182 442.214
L816.269 442.446
L816.43 443.712
L816.764 448.619
L817.333 456.198
L817.655 458.021
L817.865 458.319
L818.001 458.206
L818.224 457.628
L819.177 454.675
L819.35 454.763
L819.622 455.24
L820.142 456.114
L820.365 456.134
L820.624 455.884
L821.268 455.187
L821.503 455.267
L821.948 455.753
L822.295 455.956
L822.555 455.848
L823.421 455.279
L823.73 455.539
L824.262 455.973
L824.51 455.89
L824.893 455.45
L825.277 455.138
L825.5 455.224
L825.809 455.651
L826.304 456.275
L826.502 456.215
L826.737 455.838
L827.517 454.284
L827.529 454.291
L827.678 454.52
L827.9 455.355
L828.296 457.913
L829.373 466.741
L829.88 473.548
L830.499 481.142
L830.833 482.956
L831.08 483.361
L831.254 483.32
L831.501 482.977
L832.083 481.662
L833.122 479.454
L834.137 477.846
L835.485 476.14
L836.599 475.042
L837.342 474.593
L837.911 474.493
L838.406 474.629
L838.901 475.006
L839.445 475.72
L840.472 477.153
L840.633 477.002
L840.819 476.427
L841.054 474.817
L841.363 470.891
L842.687 451.548
L842.86 451.231
L842.873 451.234
L842.984 451.399
L843.207 452.273
L843.863 454.989
L844.061 455.101
L844.234 454.913
L844.593 454.066
L844.964 453.421
L845.162 453.427
L845.397 453.719
L845.991 454.507
L846.201 454.441
L846.523 454.032
L846.944 453.604
L847.166 453.672
L847.513 454.1
L847.896 454.454
L848.119 454.385
L848.441 453.976
L848.862 453.536
L849.06 453.605
L849.332 453.992
L849.839 454.693
L850.025 454.628
L850.247 454.256
L850.953 452.89
L851.101 453.087
L851.324 453.852
L852.351 458.118
L852.363 458.113
L852.499 457.909
L852.697 457.08
L852.97 454.832
L853.341 449.684
L854.034 439.804
L854.133 439.626
L854.17 439.668
L854.294 440.159
L854.937 443.571
L854.974 443.547
L855.11 443.246
L855.667 441.641
L855.704 441.659
L855.865 441.938
L856.348 442.86
L856.496 442.727
L857.065 441.965
L857.09 441.982
L857.313 442.307
L857.647 442.706
L857.82 442.604
L858.402 442.053
L858.637 442.359
L858.959 442.684
L859.132 442.574
L859.701 442.031
L859.924 442.346
L860.27 442.761
L860.431 442.639
L860.988 441.858
L861.05 441.919
L861.273 442.424
L861.619 443.082
L861.743 442.967
L861.941 442.351
L862.349 441.127
L862.448 441.272
L862.621 442.089
L863.203 445.451
L863.228 445.434
L863.327 445.135
L863.5 443.652
L863.784 438.848
L864.193 432.776
L864.242 432.715
L864.279 432.796
L864.391 433.638
L864.688 438.267
L865.022 441.906
L865.133 442.124
L865.17 442.09
L865.294 441.655
L865.888 438.554
L865.962 438.633
L866.148 439.257
L866.519 440.379
L866.643 440.31
L866.853 439.787
L867.175 439.163
L867.311 439.261
L867.868 440.077
L867.93 440.019
L868.499 439.335
L868.561 439.397
L869.118 439.994
L869.142 439.973
L869.415 439.539
L869.662 439.324
L869.823 439.47
L870.318 440.038
L870.503 439.776
L870.887 439.237
L871.035 439.391
L871.53 440.23
L871.58 440.189
L871.753 439.807
L872.162 438.886
L872.273 439.055
L872.496 439.971
L872.817 441.068
L872.904 440.988
L873.04 440.421
L873.337 437.874
L873.597 436.477
L873.659 436.598
L873.782 437.505
L874.018 441.294
L874.847 455.839
L875.181 458.086
L875.403 458.47
L875.527 458.359
L875.725 457.785
L876.109 455.789
L876.616 453.463
L876.826 453.245
L876.975 453.391
L877.247 454.075
L877.742 455.215
L877.94 455.249
L878.15 454.998
L878.93 453.832
L879.128 454.015
L879.982 455.115
L880.192 454.857
L880.972 453.67
L881.157 453.915
L881.491 454.858
L881.912 455.863
L882.073 455.87
L882.234 455.577
L882.469 454.582
L883.273 450.131
L883.347 450.228
L883.484 450.865
L883.706 453.219
L884.09 460.167
L884.659 469.602
L884.944 471.289
L885.166 471.604
L885.364 471.543
L886.218 471.059
L886.552 471.217
L886.973 471.688
L887.604 472.779
L888.866 475.507
L890.24 478.902
L891.341 482.326
L891.786 483.316
L891.96 483.333
L892.108 483.055
L892.306 482.113
L892.566 479.624
L892.925 473.718
L894.026 454.07
L894.781 444.778
L894.954 444.359
L894.966 444.364
L895.065 444.552
L895.288 445.628
L895.709 447.463
L895.845 447.514
L895.857 447.504
L896.018 447.185
L896.625 445.674
L896.637 445.679
L896.785 445.879
L897.416 447.069
L897.441 447.053
L897.627 446.755
L898.147 445.8
L898.295 445.942
L898.592 446.678
L898.889 447.151
L899.025 447.059
L899.235 446.545
L899.681 445.479
L899.805 445.596
L900.003 446.248
L900.535 448.133
L900.634 448.016
L900.795 447.327
L901.067 444.936
L901.487 441.622
L901.537 441.633
L901.562 441.687
L901.673 442.361
L901.871 445.266
L902.255 455.026
L902.898 470.346
L903.269 474.365
L903.591 475.762
L903.876 476.158
L904.148 476.181
L904.581 475.939
L905.682 475.285
L906.289 475.2
L906.882 475.345
L907.538 475.748
L908.862 476.652
L909.085 476.47
L909.308 475.933
L909.555 474.632
L909.827 471.825
L910.149 465.842
L910.656 451.18
L911.127 440.095
L911.3 439.115
L911.312 439.121
L911.387 439.342
L911.56 440.822
L912.129 446.006
L912.24 446.11
L912.277 446.071
L912.426 445.613
L913.032 443.163
L913.069 443.184
L913.206 443.465
L913.787 445.075
L913.824 445.053
L913.985 444.747
L914.517 443.477
L914.542 443.489
L914.69 443.736
L915.26 445.065
L915.297 445.037
L915.458 444.692
L915.99 443.184
L916.027 443.211
L916.163 443.539
L916.472 445.115
L916.757 446.05
L916.843 445.982
L916.98 445.451
L917.215 443.398
L917.685 439.412
L917.747 439.547
L917.87 440.576
L918.093 444.869
L918.576 459.993
L919.046 471.804
L919.343 474.718
L919.566 475.289
L919.714 475.249
L919.949 474.849
L921.125 472.516
L921.533 472.249
L921.88 472.277
L922.238 472.541
L922.684 473.175
L923.241 474.394
L924.057 476.809
L924.54 477.935
L924.701 477.942
L924.837 477.642
L925.023 476.556
L925.258 473.575
L925.567 466.192
L926.693 434.566
L926.718 434.59
L926.804 435.014
L927.027 437.607
L927.398 441.134
L927.497 441.262
L927.534 441.219
L927.671 440.704
L928.19 438.131
L928.227 438.152
L928.351 438.468
L928.858 440.249
L928.908 440.21
L929.056 439.82
L929.502 438.44
L929.527 438.451
L929.65 438.688
L930.158 440.265
L930.232 440.182
L930.405 439.578
L930.813 438.086
L930.826 438.091
L930.925 438.292
L931.123 439.402
L931.506 441.422
L931.581 441.35
L931.704 440.732
L931.927 438.175
L932.335 433.742
L932.397 433.932
L932.521 435.389
L932.744 441.242
L933.833 474.234
L934.117 476.155
L934.328 476.469
L934.488 476.36
L934.773 475.799
L936.208 472.583
L936.679 472.134
L937.05 472.063
L937.396 472.23
L937.829 472.719
L938.448 473.408
L938.597 473.299
L938.757 472.826
L938.955 471.394
L939.191 467.735
L939.5 458.647
L940.255 434.664
L940.329 434.4
L940.378 434.508
L940.502 435.596
L941.207 443.465
L941.22 443.459
L941.319 443.222
L941.529 441.896
L941.925 439.64
L941.999 439.642
L942.024 439.678
L942.173 440.211
L942.68 442.278
L942.779 442.131
L942.977 441.287
L943.361 439.797
L943.447 439.883
L943.608 440.527
L944.091 442.785
L944.115 442.776
L944.214 442.545
L944.4 441.328
L944.87 437.779
L944.895 437.801
L944.982 438.171
L945.142 440.085
L945.439 446.889
L945.885 462.368
L946.442 481.868
L946.479 481.957
L946.516 481.873
L946.516 481.873
L946.627 480.798
L947.036 473.378
L947.555 466.229
L948.063 461.993
L948.409 460.59
L948.607 460.421
L948.756 460.593
L948.978 461.277
L949.362 463.303
L950.315 469.909
L950.797 474.518
L951.156 480.356
L951.602 488.131
L951.626 488.085
L951.7 487.301
L951.861 482.247
L952.492 459.13
L953.123 450.532
L953.68 443.913
L953.816 443.574
L953.854 443.6
L953.965 443.947
L954.225 445.749
L954.608 447.924
L954.707 447.999
L954.744 447.965
L954.881 447.573
L955.153 445.882
L955.512 444.068
L955.586 444.066
L955.611 444.103
L955.747 444.635
L956.019 446.921
L956.464 450.255
L956.551 450.363
L956.601 450.308
L956.712 449.834
L956.898 447.8
L957.145 442.14
L957.553 426.149
L957.801 420.604
L957.838 420.717
L957.937 422.281
L958.197 431.463
L958.593 442.549
L958.815 444.167
L958.877 444.107
L959.001 443.456
L959.298 440.227
L959.607 437.848
L959.669 437.819
L959.706 437.879
L959.842 438.532
L960.375 441.687
L960.399 441.67
L960.511 441.351
L960.746 439.717
L961.067 437.932
L961.142 438.002
L961.265 438.615
L961.575 441.71
L961.859 443.481
L961.934 443.39
L962.057 442.57
L962.255 439.382
L962.837 426.27
L962.924 426.914
L963.072 430.73
L964.26 469.735
L964.705 474.68
L965.126 477.197
L965.473 478.134
L965.695 478.256
L965.869 478.1
L966.104 477.529
L966.413 476.108
L966.772 473.326
L967.155 468.435
L967.514 460.804
L967.873 448.007
L968.504 424.198
L968.541 424.302
L968.64 425.688
L968.925 434.316
L969.284 442.382
L969.469 443.375
L969.482 443.37
L969.568 443.114
L969.742 441.665
L970.261 436.973
L970.335 437.1
L970.484 438.046
L971.004 441.79
L971.016 441.783
L971.103 441.55
L971.276 440.2
L971.758 435.66
L971.796 435.718
L971.895 436.367
L972.08 439.409
L972.464 450.298
L972.81 465.753
L973.206 485.626
L973.243 485.441
L973.342 482.89
L974.184 454.695
L974.629 448.007
L974.852 447.091
L974.939 447.261
L975.099 448.246
L975.508 452.674
L975.941 456.261
L976.151 456.74
L976.25 456.608
L976.399 455.92
L976.609 453.745
L976.869 448.424
L977.166 437.028
L977.71 412.379
L977.747 412.651
L977.859 415.673
L978.589 440.885
L978.651 441.021
L978.7 440.929
L978.824 440.018
L979.133 435.38
L979.406 432.888
L979.455 432.931
L979.467 432.967
L979.591 433.824
L980.111 438.706
L980.16 438.627
L980.284 437.823
L980.544 434.071
L980.828 431.142
L980.878 431.28
L980.989 432.531
L981.2 438.07
L981.559 454.062
L982.054 482.931
L982.14 481.373
L982.375 469.003
L982.808 450.999
L983.204 442.395
L983.39 441.368
L983.402 441.378
L983.489 441.696
L983.674 443.574
L984.38 451.568
L984.466 451.677
L984.516 451.616
L984.64 451.051
L984.838 448.809
L985.11 442.752
L985.704 427.085
L985.753 427.277
L985.865 429.235
L986.137 439.707
L986.558 452.742
L987.04 460.259
L987.931 470.46
L988.476 474.784
L988.686 475.324
L988.698 475.319
L988.785 475.139
L988.921 474.224
L989.119 471
L989.354 462.996
L989.651 444.065
L990.208 404.025
L990.245 404.291
L990.356 407.819
L990.789 423.114
L990.814 423.14
L990.827 423.117
L990.827 423.117
L990.901 422.496
L991.111 417.986
L991.334 414.979
L991.346 415.001
L991.42 415.562
L991.804 420.939
L991.903 420.395
L992.101 416.874
L992.287 414.596
L992.311 414.632
L992.398 415.52
L992.621 421.325
L992.856 425.261
L992.868 425.246
L992.93 424.73
L993.054 421.265
L993.264 407.484
L993.536 390.278
L993.574 390.574
L993.673 395.289
L994.229 428.03
L994.266 428.158
L994.304 428.056
L994.304 428.056
L994.403 426.795
L994.873 416.759
L994.972 417.566
L995.38 424.077
L995.467 423.655
L995.628 420.799
L995.912 416.025
L995.937 416.097
L996.024 417.232
L996.222 423.729
L996.692 438.142
L996.952 445.132
L997.174 460.111
L997.62 489.785
L997.657 489.986
L997.694 489.846
L997.694 489.846
L997.805 487.887
L999.463 442.399
L1000.01 424.655
L1000.03 424.614
L1000.05 424.634
L1000.05 424.634
L1000.12 425.274
L1000.32 429.939
L1001.78 467.816
L1002.28 476.839
L1002.41 477.402
L1002.45 477.322
L1002.54 476.399
L1002.71 472.15
L1002.93 459.178
L1003.24 425.931
L1003.63 384.105
L1003.66 384.306
L1003.74 388.128
L1004.09 406.26
L1004.12 406.193
L1004.2 404.534
L1004.5 395.843
L1004.56 396.381
L1004.87 403.601
L1004.98 402.252
L1005.25 395.399
L1005.32 396.02
L1005.46 401.584
L1005.69 408.523
L1005.71 408.44
L1005.79 406.729
L1005.93 396.239
L1006.21 371.959
L1006.26 373.198
L1006.39 387.52
L1006.78 425.482
L1006.96 429.146
L1006.97 429.133
L1007.04 428.657
L1007.18 425.106
L1007.59 412.988
L1007.64 413.27
L1007.77 416.13
L1008.19 427.49
L1008.21 427.451
L1008.29 426.597
L1008.42 421.835
L1008.64 404.303
L1008.9 385.621
L1008.93 385.956
L1009.02 391.097
L1009.36 434.467
L1009.75 464.413
L1010.07 475.445
L1010.24 477.018
L1010.27 477.001
L1010.34 476.6
L1010.49 474.305
L1010.74 466.484
L1011.06 448.627
L1011.38 417.365
L1011.7 388.825
L1011.71 388.888
L1011.78 390.968
L1011.96 408.423
L1012.38 443.064
L1012.8 459.177
L1013.24 476.47
L1013.59 495.007
L1013.64 494.181
L1013.76 485.244
L1014.19 438.829
L1014.23 439.103
L1014.34 442.813
L1014.77 468.906
L1015.25 492.501
L1015.3 492.808
L1015.34 492.617
L1015.34 492.617
L1015.44 490.355
L1015.65 478.918
L1016.24 442.156
L1016.28 442.66
L1016.37 448.131
L1016.55 480.127
L1016.72 499.599
L1016.75 499.165
L1016.86 491.032
L1017.26 462.956
L1018.1 425.762
L1018.35 390.694
L1018.58 357.547
L1018.62 358.776
L1018.74 376.37
L1019.13 428.92
L1019.41 440.682
L1019.62 442.695
L1019.68 442.5
L1019.81 441.024
L1019.99 435.481
L1020.2 421.212
L1020.41 389.567
L1020.67 342.377
L1020.72 345.389
L1020.96 388.862
L1021.15 402.652
L1021.18 402.528
L1021.27 399.514
L1021.58 380.015
L1021.66 382.537
L1022 402.122
L1022.06 400.814
L1022.18 390.306
L1022.48 344.194
L1022.57 353.163
L1023.28 476.481
L1023.43 480.744
L1023.46 480.61
L1023.54 478.306
L1023.73 465.303
L1024.03 426.742
L1024.43 345.357
L1024.52 354.38
L1025.06 438.892
L1025.58 483.653
L1025.76 500.512
L1025.79 498.998
L1025.89 480.886
L1026.19 423.485
L1026.2 423.508
L1026.27 425.872
L1026.46 446.313
L1026.95 497.95
L1026.97 497.655
L1027.06 492.615
L1027.3 459.193
L1027.6 428.083
L1027.61 428.215
L1027.68 432.924
L1027.8 466.886
L1027.96 507.109
L1028 504.274
L1028.58 437.257
L1028.85 414.391
L1029.04 377.208
L1029.28 298.081
L1029.36 311.214
L1029.64 375.926
L1029.66 375.915
L1029.72 372.784
L1029.96 343.203
L1030.05 349.54
L1030.3 377.956
L1030.35 376.087
L1030.45 360.221
L1030.68 282.392
L1030.76 299.492
L1031.04 374.86
L1031.05 374.862
L1031.1 372.614
L1031.25 350.219
L1031.36 337.597
L1031.41 339.798
L1031.72 380.983
L1031.82 375.099
L1031.94 345.181
L1032.16 254.708
L1032.23 273.514
L1032.34 300.62
L1032.39 296.08
L1032.51 273.79
L1032.58 280.547
L1032.67 294.904
L1032.72 291.148
L1032.84 272.681
L1032.9 279.773
L1033.02 305.617
L1033.07 300.887
L1033.23 239.191
L1033.31 262.776
L1033.52 341.889
L1033.54 341.098
L1033.63 325.442
L1033.76 297.583
L1033.81 301.998
L1033.97 328.615
L1034.04 322.797
L1034.2 287.904
L1034.26 299.908
L1034.47 424.109
L1034.59 479.633
L1034.64 470.675
L1035.06 356.02
L1035.09 356.976
L1035.19 373.693
L1035.47 467.009
L1035.55 442.201
L1035.82 280.254
L1035.88 291.463
L1036.05 334.406
L1036.1 330.507
L1036.29 288.014
L1036.35 300.733
L1036.56 425.527
L1036.67 490.306
L1036.72 470.325
L1037.07 314.487
L1037.1 317.724
L1037.25 366.106
L1037.54 504.112
L1037.6 467.666
L1037.91 264.745
L1037.93 262.377
L1037.95 263.141
L1037.95 263.141
L1038.05 296.317
L1038.13 315.144
L1038.18 309.86
L1038.35 242
L1038.42 267.997
L1038.64 452.557
L1038.71 430.124
L1038.97 337.569
L1039 338.726
L1039.08 360.32
L1039.27 437.577
L1039.32 422.16
L1039.53 235.852
L1039.62 273.101
L1039.79 337.742
L1039.81 336.656
L1039.89 317.375
L1040.06 222.552
L1040.12 259.382
L1040.31 428.388
L1040.37 411.377
L1040.59 335.557
L1040.63 338.862
L1040.75 383.479
L1040.83 405.38
L1040.87 395.607
L1041.05 224.004
L1041.15 283.484
L1041.49 514.866
L1041.51 508.036
L1041.76 220.966
L1041.84 143.054
L1041.89 170.561
L1041.97 211.964
L1042.02 190.849
L1042.09 140.172
L1042.14 173.298
L1042.38 511.523
L1042.45 428.551
L1042.69 217.811
L1042.71 221.792
L1042.8 315.381
L1042.88 429.513
L1042.93 385.384
L1043.08 187.751
L1043.13 221.791
L1043.39 520.223
L1043.44 444.15
L1043.65 78.8266
L1043.68 95.7521
L1043.76 173.279
L1043.81 133.186
L1043.87 64.7998
L1043.91 106.457
L1044.07 485.161
L1044.13 389.252
L1044.29 176.41
L1044.33 202.111
L1044.47 429.478
L1044.52 329.618
L1044.59 116.321
L1044.59 116.321" style="fill:none;stroke:#bf00bf;stroke-linecap:square;stroke-width:2;"/>
   </g>
   <g id="patch_8">
    <path d="
M673.376 60.3
L1106.46 60.3" style="fill:none;stroke:#000000;stroke-linecap:square;stroke-linejoin:miter;"/>
   </g>
   <g id="patch_9">
    <path d="
M1106.46 542.7
L1106.46 60.3" style="fill:none;stroke:#000000;stroke-linecap:square;stroke-linejoin:miter;"/>
   </g>
   <g id="patch_10">
    <path d="
M673.376 542.7
L1106.46 542.7" style="fill:none;stroke:#000000;stroke-linecap:square;stroke-linejoin:miter;"/>
   </g>
   <g id="patch_11">
    <path d="
M673.376 542.7
L673.376 60.3" style="fill:none;stroke:#000000;stroke-linecap:square;stroke-linejoin:miter;"/>
   </g>
   <g id="matplotlib.axis_3">
    <g id="xtick_9">
     <g id="line2d_39">
      <g>
       <use style="stroke:#000000;stroke-width:0.5;" x="673.375909091" xlink:href="#m93b0483c22" y="542.7"/>
      </g>
     </g>
     <g id="line2d_40">
      <g>
       <use style="stroke:#000000;stroke-width:0.5;" x="673.375909091" xlink:href="#m741efc42ff" y="60.3"/>
      </g>
     </g>
     <g id="text_21">
      <!-- 0 -->
      <g transform="translate(670.352471591 555.818125)scale(0.12 -0.12)">
       <use xlink:href="#BitstreamVeraSans-Roman-30"/>
      </g>
     </g>
    </g>
    <g id="xtick_10">
     <g id="line2d_41">
      <g>
       <use style="stroke:#000000;stroke-width:0.5;" x="735.245064935" xlink:href="#m93b0483c22" y="542.7"/>
      </g>
     </g>
     <g id="line2d_42">
      <g>
       <use style="stroke:#000000;stroke-width:0.5;" x="735.245064935" xlink:href="#m741efc42ff" y="60.3"/>
      </g>
     </g>
     <g id="text_22">
      <!-- 5 -->
      <g transform="translate(732.414752435 555.818125)scale(0.12 -0.12)">
       <use xlink:href="#BitstreamVeraSans-Roman-35"/>
      </g>
     </g>
    </g>
    <g id="xtick_11">
     <g id="line2d_43">
      <g>
       <use style="stroke:#000000;stroke-width:0.5;" x="797.114220779" xlink:href="#m93b0483c22" y="542.7"/>
      </g>
     </g>
     <g id="line2d_44">
      <g>
       <use style="stroke:#000000;stroke-width:0.5;" x="797.114220779" xlink:href="#m741efc42ff" y="60.3"/>
      </g>
     </g>
     <g id="text_23">
      <!-- 10 -->
      <g transform="translate(790.536720779 555.818125)scale(0.12 -0.12)">
       <use xlink:href="#BitstreamVeraSans-Roman-31"/>
       <use x="63.623046875" xlink:href="#BitstreamVeraSans-Roman-30"/>
      </g>
     </g>
    </g>
    <g id="xtick_12">
     <g id="line2d_45">
      <g>
       <use style="stroke:#000000;stroke-width:0.5;" x="858.983376623" xlink:href="#m93b0483c22" y="542.7"/>
      </g>
     </g>
     <g id="line2d_46">
      <g>
       <use style="stroke:#000000;stroke-width:0.5;" x="858.983376623" xlink:href="#m741efc42ff" y="60.3"/>
      </g>
     </g>
     <g id="text_24">
      <!-- 15 -->
      <g transform="translate(852.531501623 555.818125)scale(0.12 -0.12)">
       <use xlink:href="#BitstreamVeraSans-Roman-31"/>
       <use x="63.623046875" xlink:href="#BitstreamVeraSans-Roman-35"/>
      </g>
     </g>
    </g>
    <g id="xtick_13">
     <g id="line2d_47">
      <g>
       <use style="stroke:#000000;stroke-width:0.5;" x="920.852532468" xlink:href="#m93b0483c22" y="542.7"/>
      </g>
     </g>
     <g id="line2d_48">
      <g>
       <use style="stroke:#000000;stroke-width:0.5;" x="920.852532468" xlink:href="#m741efc42ff" y="60.3"/>
      </g>
     </g>
     <g id="text_25">
      <!-- 20 -->
      <g transform="translate(914.055657468 555.818125)scale(0.12 -0.12)">
       <use xlink:href="#BitstreamVeraSans-Roman-32"/>
       <use x="63.623046875" xlink:href="#BitstreamVeraSans-Roman-30"/>
      </g>
     </g>
    </g>
    <g id="xtick_14">
     <g id="line2d_49">
      <g>
       <use style="stroke:#000000;stroke-width:0.5;" x="982.721688312" xlink:href="#m93b0483c22" y="542.7"/>
      </g>
     </g>
     <g id="line2d_50">
      <g>
       <use style="stroke:#000000;stroke-width:0.5;" x="982.721688312" xlink:href="#m741efc42ff" y="60.3"/>
      </g>
     </g>
     <g id="text_26">
      <!-- 25 -->
      <g transform="translate(976.050438312 555.818125)scale(0.12 -0.12)">
       <use xlink:href="#BitstreamVeraSans-Roman-32"/>
       <use x="63.623046875" xlink:href="#BitstreamVeraSans-Roman-35"/>
      </g>
     </g>
    </g>
    <g id="xtick_15">
     <g id="line2d_51">
      <g>
       <use style="stroke:#000000;stroke-width:0.5;" x="1044.59084416" xlink:href="#m93b0483c22" y="542.7"/>
      </g>
     </g>
     <g id="line2d_52">
      <g>
       <use style="stroke:#000000;stroke-width:0.5;" x="1044.59084416" xlink:href="#m741efc42ff" y="60.3"/>
      </g>
     </g>
     <g id="text_27">
      <!-- 30 -->
      <g transform="translate(1037.81178166 555.818125)scale(0.12 -0.12)">
       <use xlink:href="#BitstreamVeraSans-Roman-33"/>
       <use x="63.623046875" xlink:href="#BitstreamVeraSans-Roman-30"/>
      </g>
     </g>
    </g>
    <g id="xtick_16">
     <g id="line2d_53">
      <g>
       <use style="stroke:#000000;stroke-width:0.5;" x="1106.46" xlink:href="#m93b0483c22" y="542.7"/>
      </g>
     </g>
     <g id="line2d_54">
      <g>
       <use style="stroke:#000000;stroke-width:0.5;" x="1106.46" xlink:href="#m741efc42ff" y="60.3"/>
      </g>
     </g>
     <g id="text_28">
      <!-- 35 -->
      <g transform="translate(1099.8065625 555.818125)scale(0.12 -0.12)">
       <use xlink:href="#BitstreamVeraSans-Roman-33"/>
       <use x="63.623046875" xlink:href="#BitstreamVeraSans-Roman-35"/>
      </g>
     </g>
    </g>
    <g id="text_29">
     <!-- time($s$) -->
     <g transform="translate(868.857954545 572.431875)scale(0.12 -0.12)">
      <use transform="translate(0.0 0.015625)" xlink:href="#BitstreamVeraSans-Roman-74"/>
      <use transform="translate(39.208984375 0.015625)" xlink:href="#BitstreamVeraSans-Roman-69"/>
      <use transform="translate(66.9921875 0.015625)" xlink:href="#BitstreamVeraSans-Roman-6d"/>
      <use transform="translate(164.404296875 0.015625)" xlink:href="#BitstreamVeraSans-Roman-65"/>
      <use transform="translate(225.927734375 0.015625)" xlink:href="#BitstreamVeraSans-Roman-28"/>
      <use transform="translate(264.94140625 0.015625)" xlink:href="#Cmmi10-73"/>
      <use transform="translate(311.71875 0.015625)" xlink:href="#BitstreamVeraSans-Roman-29"/>
     </g>
    </g>
   </g>
   <g id="matplotlib.axis_4">
    <g id="ytick_10">
     <g id="line2d_55">
      <g>
       <use style="stroke:#000000;stroke-width:0.5;" x="673.375909091" xlink:href="#m728421d6d4" y="542.7"/>
      </g>
     </g>
     <g id="line2d_56">
      <g>
       <use style="stroke:#000000;stroke-width:0.5;" x="1106.46" xlink:href="#mcb0005524f" y="542.7"/>
      </g>
     </g>
     <g id="text_30">
      <!-- −50 -->
      <g transform="translate(646.118409091 546.01125)scale(0.12 -0.12)">
       <use xlink:href="#BitstreamVeraSans-Roman-2212"/>
       <use x="83.7890625" xlink:href="#BitstreamVeraSans-Roman-35"/>
       <use x="147.412109375" xlink:href="#BitstreamVeraSans-Roman-30"/>
      </g>
     </g>
    </g>
    <g id="ytick_11">
     <g id="line2d_57">
      <g>
       <use style="stroke:#000000;stroke-width:0.5;" x="673.375909091" xlink:href="#m728421d6d4" y="482.4"/>
      </g>
     </g>
     <g id="line2d_58">
      <g>
       <use style="stroke:#000000;stroke-width:0.5;" x="1106.46" xlink:href="#mcb0005524f" y="482.4"/>
      </g>
     </g>
     <g id="text_31">
      <!-- 0 -->
      <g transform="translate(663.329034091 485.71125)scale(0.12 -0.12)">
       <use xlink:href="#BitstreamVeraSans-Roman-30"/>
      </g>
     </g>
    </g>
    <g id="ytick_12">
     <g id="line2d_59">
      <g>
       <use style="stroke:#000000;stroke-width:0.5;" x="673.375909091" xlink:href="#m728421d6d4" y="422.1"/>
      </g>
     </g>
     <g id="line2d_60">
      <g>
       <use style="stroke:#000000;stroke-width:0.5;" x="1106.46" xlink:href="#mcb0005524f" y="422.1"/>
      </g>
     </g>
     <g id="text_32">
      <!-- 50 -->
      <g transform="translate(655.829034091 425.41125)scale(0.12 -0.12)">
       <use xlink:href="#BitstreamVeraSans-Roman-35"/>
       <use x="63.623046875" xlink:href="#BitstreamVeraSans-Roman-30"/>
      </g>
     </g>
    </g>
    <g id="ytick_13">
     <g id="line2d_61">
      <g>
       <use style="stroke:#000000;stroke-width:0.5;" x="673.375909091" xlink:href="#m728421d6d4" y="361.8"/>
      </g>
     </g>
     <g id="line2d_62">
      <g>
       <use style="stroke:#000000;stroke-width:0.5;" x="1106.46" xlink:href="#mcb0005524f" y="361.8"/>
      </g>
     </g>
     <g id="text_33">
      <!-- 100 -->
      <g transform="translate(648.585909091 365.11125)scale(0.12 -0.12)">
       <use xlink:href="#BitstreamVeraSans-Roman-31"/>
       <use x="63.623046875" xlink:href="#BitstreamVeraSans-Roman-30"/>
       <use x="127.24609375" xlink:href="#BitstreamVeraSans-Roman-30"/>
      </g>
     </g>
    </g>
    <g id="ytick_14">
     <g id="line2d_63">
      <g>
       <use style="stroke:#000000;stroke-width:0.5;" x="673.375909091" xlink:href="#m728421d6d4" y="301.5"/>
      </g>
     </g>
     <g id="line2d_64">
      <g>
       <use style="stroke:#000000;stroke-width:0.5;" x="1106.46" xlink:href="#mcb0005524f" y="301.5"/>
      </g>
     </g>
     <g id="text_34">
      <!-- 150 -->
      <g transform="translate(648.585909091 304.81125)scale(0.12 -0.12)">
       <use xlink:href="#BitstreamVeraSans-Roman-31"/>
       <use x="63.623046875" xlink:href="#BitstreamVeraSans-Roman-35"/>
       <use x="127.24609375" xlink:href="#BitstreamVeraSans-Roman-30"/>
      </g>
     </g>
    </g>
    <g id="ytick_15">
     <g id="line2d_65">
      <g>
       <use style="stroke:#000000;stroke-width:0.5;" x="673.375909091" xlink:href="#m728421d6d4" y="241.2"/>
      </g>
     </g>
     <g id="line2d_66">
      <g>
       <use style="stroke:#000000;stroke-width:0.5;" x="1106.46" xlink:href="#mcb0005524f" y="241.2"/>
      </g>
     </g>
     <g id="text_35">
      <!-- 200 -->
      <g transform="translate(648.147159091 244.51125)scale(0.12 -0.12)">
       <use xlink:href="#BitstreamVeraSans-Roman-32"/>
       <use x="63.623046875" xlink:href="#BitstreamVeraSans-Roman-30"/>
       <use x="127.24609375" xlink:href="#BitstreamVeraSans-Roman-30"/>
      </g>
     </g>
    </g>
    <g id="ytick_16">
     <g id="line2d_67">
      <g>
       <use style="stroke:#000000;stroke-width:0.5;" x="673.375909091" xlink:href="#m728421d6d4" y="180.9"/>
      </g>
     </g>
     <g id="line2d_68">
      <g>
       <use style="stroke:#000000;stroke-width:0.5;" x="1106.46" xlink:href="#mcb0005524f" y="180.9"/>
      </g>
     </g>
     <g id="text_36">
      <!-- 250 -->
      <g transform="translate(648.147159091 184.21125)scale(0.12 -0.12)">
       <use xlink:href="#BitstreamVeraSans-Roman-32"/>
       <use x="63.623046875" xlink:href="#BitstreamVeraSans-Roman-35"/>
       <use x="127.24609375" xlink:href="#BitstreamVeraSans-Roman-30"/>
      </g>
     </g>
    </g>
    <g id="ytick_17">
     <g id="line2d_69">
      <g>
       <use style="stroke:#000000;stroke-width:0.5;" x="673.375909091" xlink:href="#m728421d6d4" y="120.6"/>
      </g>
     </g>
     <g id="line2d_70">
      <g>
       <use style="stroke:#000000;stroke-width:0.5;" x="1106.46" xlink:href="#mcb0005524f" y="120.6"/>
      </g>
     </g>
     <g id="text_37">
      <!-- 300 -->
      <g transform="translate(648.182784091 123.91125)scale(0.12 -0.12)">
       <use xlink:href="#BitstreamVeraSans-Roman-33"/>
       <use x="63.623046875" xlink:href="#BitstreamVeraSans-Roman-30"/>
       <use x="127.24609375" xlink:href="#BitstreamVeraSans-Roman-30"/>
      </g>
     </g>
    </g>
    <g id="ytick_18">
     <g id="line2d_71">
      <g>
       <use style="stroke:#000000;stroke-width:0.5;" x="673.375909091" xlink:href="#m728421d6d4" y="60.3"/>
      </g>
     </g>
     <g id="line2d_72">
      <g>
       <use style="stroke:#000000;stroke-width:0.5;" x="1106.46" xlink:href="#mcb0005524f" y="60.3"/>
      </g>
     </g>
     <g id="text_38">
      <!-- 350 -->
      <g transform="translate(648.182784091 63.61125)scale(0.12 -0.12)">
       <use xlink:href="#BitstreamVeraSans-Roman-33"/>
       <use x="63.623046875" xlink:href="#BitstreamVeraSans-Roman-35"/>
       <use x="127.24609375" xlink:href="#BitstreamVeraSans-Roman-30"/>
      </g>
     </g>
    </g>
    <g id="text_39">
     <!-- $\omega$($Rad/s$) -->
     <defs>
      <path d="
M5.60938 -23
Q5.60938 -22.7031 5.71875 -22.6094
L40.4844 73.7812
Q40.6719 74.3594 41.1562 74.6719
Q41.6562 75 42.2812 75
Q43.1719 75 43.7188 74.4531
Q44.2812 73.9219 44.2812 73
L44.2812 72.6094
L9.51562 -23.7812
Q8.9375 -25 7.625 -25
Q6.78125 -25 6.1875 -24.4062
Q5.60938 -23.8281 5.60938 -23" id="Cmmi10-3d"/>
      <path d="
M12.1094 -1.125
Q6.45312 -1.125 3.9375 3.01562
Q1.42188 7.17188 1.42188 13.1875
Q1.42188 17.1406 2.125 20.9219
Q2.82812 24.7031 4.26562 28.5781
Q5.71875 32.4688 7.5625 35.8594
Q9.42188 39.2656 11.7188 42.4844
Q12.1562 43.1094 12.8906 43.1094
Q13.5312 43.1094 13.9219 42.7188
Q14.3125 42.3281 14.3125 41.7969
Q14.3125 41.2656 14.0156 40.8281
Q4.89062 28.2656 4.89062 17.6719
Q4.89062 13.0938 7 9.79688
Q9.125 6.5 13.4844 6.5
Q17.2344 6.5 20.4375 8.6875
Q23.6406 10.8906 25.9844 14.3125
Q25.9844 16.0625 26.5938 19.7656
Q27.2031 23.4844 28.4844 26.3906
Q29.7812 29.2969 31.5938 29.2969
Q33.8906 29.2969 33.8906 26.6094
Q33.8906 25.0469 33.2188 22.6719
Q32.5625 20.3125 31.75 18.2656
Q30.9531 16.2188 29.7812 13.625
Q30.9531 6.5 36.9219 6.5
Q40.375 6.5 43.8594 8.5
Q47.3594 10.5 50.0469 13.75
Q52.7344 17 54.2656 20.75
Q55.8125 24.5156 55.8125 27.875
Q55.8125 30.9062 54.8594 32.5938
Q53.9062 34.2812 52.3438 36.125
Q50.7812 37.9844 50.7812 39.1094
Q50.7812 41.0625 52.4375 42.6719
Q54.1094 44.2812 56 44.2812
Q58.4531 44.2812 59.4688 42.0625
Q60.5 39.8438 60.5 37.0156
Q60.5 32.4219 58.6719 25.4375
Q56.8438 18.4531 54.5 13.8125
Q51.2656 7.51562 46.4062 3.1875
Q41.5469 -1.125 35.5 -1.125
Q31.6406 -1.125 29.2656 1.1875
Q26.9062 3.51562 26.2188 7.51562
Q23.4375 3.5625 19.875 1.21875
Q16.3125 -1.125 12.1094 -1.125" id="Cmmi10-21"/>
     </defs>
     <g transform="translate(638.118409091 326.58)rotate(-90.0)scale(0.12 -0.12)">
      <use transform="translate(0.0 0.125)" xlink:href="#Cmmi10-21"/>
      <use transform="translate(62.20703125 0.125)" xlink:href="#BitstreamVeraSans-Roman-28"/>
      <use transform="translate(101.220703125 0.125)" xlink:href="#Cmmi10-52"/>
      <use transform="translate(177.099609375 0.125)" xlink:href="#Cmmi10-61"/>
      <use transform="translate(229.8828125 0.125)" xlink:href="#Cmmi10-64"/>
      <use transform="translate(281.884765625 0.125)" xlink:href="#Cmmi10-3d"/>
      <use transform="translate(331.884765625 0.125)" xlink:href="#Cmmi10-73"/>
      <use transform="translate(378.662109375 0.125)" xlink:href="#BitstreamVeraSans-Roman-29"/>
     </g>
    </g>
   </g>
   <g id="legend_2">
    <g id="line2d_73">
     <path d="
M1058.98 73.3932
L1072.97 73.3932" style="fill:none;stroke:#bf00bf;stroke-linecap:square;stroke-width:2;"/>
    </g>
    <g id="line2d_74"/>
    <g id="text_40">
     <!-- $\omega$-$t$ -->
     <g transform="translate(1083.969 76.891798125)scale(0.09996 -0.09996)">
      <use transform="translate(0.0 0.40625)" xlink:href="#Cmmi10-21"/>
      <use transform="translate(62.20703125 0.40625)" xlink:href="#BitstreamVeraSans-Roman-2d"/>
      <use transform="translate(98.291015625 0.40625)" xlink:href="#Cmmi10-74"/>
     </g>
    </g>
   </g>
  </g>
  <g id="text_41">
   <!-- elleptical orbit, $m1/M=$0.7 -->
   <defs>
    <path id="BitstreamVeraSans-Roman-20"/>
    <path d="
M9.28125 0
L9.28125 3.51562
Q21.7812 3.51562 21.7812 6.6875
L21.7812 59.1875
Q16.6094 56.6875 8.6875 56.6875
L8.6875 60.2031
Q20.9531 60.2031 27.2031 66.6094
L28.6094 66.6094
Q28.9531 66.6094 29.2656 66.3281
Q29.5938 66.0625 29.5938 65.7188
L29.5938 6.6875
Q29.5938 3.51562 42.0938 3.51562
L42.0938 0
z
" id="Cmr10-31"/>
    <path d="
M5.07812 0
Q4.10938 0 4.10938 1.3125
Q4.15625 1.5625 4.29688 2.14062
Q4.4375 2.73438 4.6875 3.125
Q4.9375 3.51562 5.42188 3.51562
Q14.9375 3.51562 16.5 9.625
L29.5 61.8125
Q29.6875 62.7969 29.6875 63.1875
Q29.6875 64.2656 28.5156 64.4062
Q26.6094 64.7969 21.2969 64.7969
Q20.3125 64.7969 20.3125 66.1094
Q20.3594 66.3594 20.5 66.9688
Q20.6562 67.5781 20.9219 67.9375
Q21.1875 68.3125 21.5781 68.3125
L39.2031 68.3125
Q40.3281 68.3125 40.4844 67.1875
L48.2969 9.90625
L84.7188 67.1875
Q85.4062 68.3125 86.625 68.3125
L103.609 68.3125
Q104.594 68.3125 104.594 67
Q104.547 66.75 104.391 66.1406
Q104.25 65.5312 103.984 65.1562
Q103.719 64.7969 103.328 64.7969
Q97.2188 64.7969 94.8281 64.1094
Q93.5 63.6719 92.9219 61.375
L79.2031 6.5
Q79 5.51562 79 5.07812
Q79 4.6875 79.125 4.42188
Q79.25 4.15625 79.4688 4.07812
Q79.6875 4 80.1719 3.90625
Q82.0781 3.51562 87.4062 3.51562
Q88.375 3.51562 88.375 2.20312
Q88.0312 0.78125 87.8281 0.390625
Q87.6406 0 86.7188 0
L60.5938 0
Q59.625 0 59.625 1.3125
Q59.6719 1.5625 59.8125 2.17188
Q59.9688 2.78125 60.2344 3.14062
Q60.5 3.51562 60.8906 3.51562
Q67 3.51562 69.3906 4.20312
Q70.7031 4.64062 71.2969 6.89062
L85.6875 64.7969
L45.3125 1.125
Q44.7344 0 43.3125 0
Q42.0469 0 41.8906 1.125
L33.4062 64.0156
L19.6719 9.1875
Q19.5781 8.9375 19.5312 8.5625
Q19.4844 8.20312 19.3906 7.71875
Q19.3906 5.125 21.6562 4.3125
Q23.9219 3.51562 27.2031 3.51562
Q28.2188 3.51562 28.2188 2.20312
Q27.875 0.875 27.6562 0.4375
Q27.4375 0 26.5156 0
z
" id="Cmmi10-4d"/>
    <path d="
M7.71875 1.70312
Q7.71875 2.29688 7.8125 2.59375
L15.2812 32.4219
Q16.0156 35.2031 16.0156 37.3125
Q16.0156 41.6094 13.0938 41.6094
Q9.96875 41.6094 8.45312 37.8594
Q6.9375 34.125 5.51562 28.4219
Q5.51562 28.125 5.21875 27.9531
Q4.9375 27.7812 4.6875 27.7812
L3.51562 27.7812
Q3.17188 27.7812 2.92188 28.1406
Q2.6875 28.5156 2.6875 28.8125
Q3.76562 33.1562 4.76562 36.1719
Q5.76562 39.2031 7.89062 41.6875
Q10.0156 44.1875 13.1875 44.1875
Q16.9375 44.1875 19.8125 41.8125
Q22.7031 39.4531 22.7031 35.7969
Q25.6875 39.7031 29.6875 41.9375
Q33.6875 44.1875 38.1875 44.1875
Q42.9219 44.1875 46.3594 41.7656
Q49.8125 39.3594 49.8125 34.9062
Q52.875 39.2656 57 41.7188
Q61.1406 44.1875 66.0156 44.1875
Q71.1875 44.1875 74.3281 41.375
Q77.4844 38.5781 77.4844 33.4062
Q77.4844 29.2969 75.6562 23.4844
Q73.8281 17.6719 71.0938 10.5
Q69.6719 7.03125 69.6719 4.5
Q69.6719 1.51562 72.0156 1.51562
Q75.9219 1.51562 78.5156 5.70312
Q81.1094 9.90625 82.1719 14.7031
Q82.4688 15.2812 83.0156 15.2812
L84.1875 15.2812
Q84.5781 15.2812 84.8438 15.0156
Q85.1094 14.75 85.1094 14.4062
Q85.1094 14.3125 85.0156 14.1094
Q83.6406 8.45312 80.25 3.65625
Q76.8594 -1.125 71.7812 -1.125
Q68.2656 -1.125 65.7656 1.29688
Q63.2812 3.71875 63.2812 7.17188
Q63.2812 8.9375 64.1094 11.0781
Q66.9375 18.6094 68.8125 24.5156
Q70.7031 30.4219 70.7031 34.9062
Q70.7031 37.7031 69.5781 39.6562
Q68.4531 41.6094 65.8281 41.6094
Q60.3594 41.6094 56.3438 38.25
Q52.3438 34.9062 49.4219 29.3906
Q49.2188 28.4219 49.125 27.875
L42.6719 2.20312
Q42.3281 0.828125 41.125 -0.140625
Q39.9375 -1.125 38.4844 -1.125
Q37.3125 -1.125 36.4062 -0.34375
Q35.5 0.4375 35.5 1.70312
Q35.5 2.29688 35.5938 2.59375
L42 28.0781
Q43.0156 32.1719 43.0156 34.9062
Q43.0156 37.7031 41.8594 39.6562
Q40.7188 41.6094 37.9844 41.6094
Q34.3281 41.6094 31.25 39.9844
Q28.1719 38.375 25.875 35.7188
Q23.5781 33.0625 21.6875 29.3906
L14.8906 2.20312
Q14.5469 0.828125 13.3438 -0.140625
Q12.1562 -1.125 10.6875 -1.125
Q9.46875 -1.125 8.59375 -0.34375
Q7.71875 0.4375 7.71875 1.70312" id="Cmmi10-6d"/>
    <path d="
M41.1094 46.2969
Q39.5938 47.1719 37.8125 47.5781
Q36.0312 48 33.8906 48
Q26.2656 48 22.1875 43.0469
Q18.1094 38.0938 18.1094 28.8125
L18.1094 0
L9.07812 0
L9.07812 54.6875
L18.1094 54.6875
L18.1094 46.1875
Q20.9531 51.1719 25.4844 53.5781
Q30.0312 56 36.5312 56
Q37.4531 56 38.5781 55.875
Q39.7031 55.7656 41.0625 55.5156
z
" id="BitstreamVeraSans-Roman-72"/>
    <path d="
M30.6094 48.3906
Q23.3906 48.3906 19.1875 42.75
Q14.9844 37.1094 14.9844 27.2969
Q14.9844 17.4844 19.1562 11.8438
Q23.3438 6.20312 30.6094 6.20312
Q37.7969 6.20312 41.9844 11.8594
Q46.1875 17.5312 46.1875 27.2969
Q46.1875 37.0156 41.9844 42.7031
Q37.7969 48.3906 30.6094 48.3906
M30.6094 56
Q42.3281 56 49.0156 48.375
Q55.7188 40.7656 55.7188 27.2969
Q55.7188 13.875 49.0156 6.21875
Q42.3281 -1.42188 30.6094 -1.42188
Q18.8438 -1.42188 12.1719 6.21875
Q5.51562 13.875 5.51562 27.2969
Q5.51562 40.7656 12.1719 48.375
Q18.8438 56 30.6094 56" id="BitstreamVeraSans-Roman-6f"/>
    <path d="
M9.42188 75.9844
L18.4062 75.9844
L18.4062 0
L9.42188 0
z
" id="BitstreamVeraSans-Roman-6c"/>
    <path d="
M11.7188 12.4062
L22.0156 12.4062
L22.0156 4
L14.0156 -11.625
L7.71875 -11.625
L11.7188 4
z
" id="BitstreamVeraSans-Roman-2c"/>
    <path d="
M10.6875 12.4062
L21 12.4062
L21 0
L10.6875 0
z
" id="BitstreamVeraSans-Roman-2e"/>
    <path d="
M18.1094 8.20312
L18.1094 -20.7969
L9.07812 -20.7969
L9.07812 54.6875
L18.1094 54.6875
L18.1094 46.3906
Q20.9531 51.2656 25.2656 53.625
Q29.5938 56 35.5938 56
Q45.5625 56 51.7812 48.0938
Q58.0156 40.1875 58.0156 27.2969
Q58.0156 14.4062 51.7812 6.48438
Q45.5625 -1.42188 35.5938 -1.42188
Q29.5938 -1.42188 25.2656 0.953125
Q20.9531 3.32812 18.1094 8.20312
M48.6875 27.2969
Q48.6875 37.2031 44.6094 42.8438
Q40.5312 48.4844 33.4062 48.4844
Q26.2656 48.4844 22.1875 42.8438
Q18.1094 37.2031 18.1094 27.2969
Q18.1094 17.3906 22.1875 11.75
Q26.2656 6.10938 33.4062 6.10938
Q40.5312 6.10938 44.6094 11.75
Q48.6875 17.3906 48.6875 27.2969" id="BitstreamVeraSans-Roman-70"/>
    <path d="
M7.51562 13.2812
Q6.6875 13.2812 6.14062 13.9062
Q5.60938 14.5469 5.60938 15.2812
Q5.60938 16.1094 6.14062 16.6875
Q6.6875 17.2812 7.51562 17.2812
L70.3125 17.2812
Q71.0469 17.2812 71.5781 16.6875
Q72.125 16.1094 72.125 15.2812
Q72.125 14.5469 71.5781 13.9062
Q71.0469 13.2812 70.3125 13.2812
z

M7.51562 32.7188
Q6.6875 32.7188 6.14062 33.2969
Q5.60938 33.8906 5.60938 34.7188
Q5.60938 35.4531 6.14062 36.0781
Q6.6875 36.7188 7.51562 36.7188
L70.3125 36.7188
Q71.0469 36.7188 71.5781 36.0781
Q72.125 35.4531 72.125 34.7188
Q72.125 33.8906 71.5781 33.2969
Q71.0469 32.7188 70.3125 32.7188
z
" id="Cmr10-3d"/>
    <path d="
M8.20312 72.9062
L55.0781 72.9062
L55.0781 68.7031
L28.6094 0
L18.3125 0
L43.2188 64.5938
L8.20312 64.5938
z
" id="BitstreamVeraSans-Roman-37"/>
    <path d="
M34.2812 27.4844
Q23.3906 27.4844 19.1875 25
Q14.9844 22.5156 14.9844 16.5
Q14.9844 11.7188 18.1406 8.90625
Q21.2969 6.10938 26.7031 6.10938
Q34.1875 6.10938 38.7031 11.4062
Q43.2188 16.7031 43.2188 25.4844
L43.2188 27.4844
z

M52.2031 31.2031
L52.2031 0
L43.2188 0
L43.2188 8.29688
Q40.1406 3.32812 35.5469 0.953125
Q30.9531 -1.42188 24.3125 -1.42188
Q15.9219 -1.42188 10.9531 3.29688
Q6 8.01562 6 15.9219
Q6 25.1406 12.1719 29.8281
Q18.3594 34.5156 30.6094 34.5156
L43.2188 34.5156
L43.2188 35.4062
Q43.2188 41.6094 39.1406 45
Q35.0625 48.3906 27.6875 48.3906
Q23 48.3906 18.5469 47.2656
Q14.1094 46.1406 10.0156 43.8906
L10.0156 52.2031
Q14.9375 54.1094 19.5781 55.0469
Q24.2188 56 28.6094 56
Q40.4844 56 46.3438 49.8438
Q52.2031 43.7031 52.2031 31.2031" id="BitstreamVeraSans-Roman-61"/>
    <path d="
M48.7812 52.5938
L48.7812 44.1875
Q44.9688 46.2969 41.1406 47.3438
Q37.3125 48.3906 33.4062 48.3906
Q24.6562 48.3906 19.8125 42.8438
Q14.9844 37.3125 14.9844 27.2969
Q14.9844 17.2812 19.8125 11.7344
Q24.6562 6.20312 33.4062 6.20312
Q37.3125 6.20312 41.1406 7.25
Q44.9688 8.29688 48.7812 10.4062
L48.7812 2.09375
Q45.0156 0.34375 40.9844 -0.53125
Q36.9688 -1.42188 32.4219 -1.42188
Q20.0625 -1.42188 12.7812 6.34375
Q5.51562 14.1094 5.51562 27.2969
Q5.51562 40.6719 12.8594 48.3281
Q20.2188 56 33.0156 56
Q37.1562 56 41.1094 55.1406
Q45.0625 54.2969 48.7812 52.5938" id="BitstreamVeraSans-Roman-63"/>
    <path d="
M48.6875 27.2969
Q48.6875 37.2031 44.6094 42.8438
Q40.5312 48.4844 33.4062 48.4844
Q26.2656 48.4844 22.1875 42.8438
Q18.1094 37.2031 18.1094 27.2969
Q18.1094 17.3906 22.1875 11.75
Q26.2656 6.10938 33.4062 6.10938
Q40.5312 6.10938 44.6094 11.75
Q48.6875 17.3906 48.6875 27.2969
M18.1094 46.3906
Q20.9531 51.2656 25.2656 53.625
Q29.5938 56 35.5938 56
Q45.5625 56 51.7812 48.0938
Q58.0156 40.1875 58.0156 27.2969
Q58.0156 14.4062 51.7812 6.48438
Q45.5625 -1.42188 35.5938 -1.42188
Q29.5938 -1.42188 25.2656 0.953125
Q20.9531 3.32812 18.1094 8.20312
L18.1094 0
L9.07812 0
L9.07812 75.9844
L18.1094 75.9844
z
" id="BitstreamVeraSans-Roman-62"/>
   </defs>
   <g transform="translate(535.56 21.18)scale(0.12 -0.12)">
    <use transform="translate(0.0 0.015625)" xlink:href="#BitstreamVeraSans-Roman-65"/>
    <use transform="translate(61.5234375 0.015625)" xlink:href="#BitstreamVeraSans-Roman-6c"/>
    <use transform="translate(89.306640625 0.015625)" xlink:href="#BitstreamVeraSans-Roman-6c"/>
    <use transform="translate(117.08984375 0.015625)" xlink:href="#BitstreamVeraSans-Roman-65"/>
    <use transform="translate(178.61328125 0.015625)" xlink:href="#BitstreamVeraSans-Roman-70"/>
    <use transform="translate(242.08984375 0.015625)" xlink:href="#BitstreamVeraSans-Roman-74"/>
    <use transform="translate(281.298828125 0.015625)" xlink:href="#BitstreamVeraSans-Roman-69"/>
    <use transform="translate(309.08203125 0.015625)" xlink:href="#BitstreamVeraSans-Roman-63"/>
    <use transform="translate(364.0625 0.015625)" xlink:href="#BitstreamVeraSans-Roman-61"/>
    <use transform="translate(425.341796875 0.015625)" xlink:href="#BitstreamVeraSans-Roman-6c"/>
    <use transform="translate(453.125 0.015625)" xlink:href="#BitstreamVeraSans-Roman-20"/>
    <use transform="translate(484.912109375 0.015625)" xlink:href="#BitstreamVeraSans-Roman-6f"/>
    <use transform="translate(546.09375 0.015625)" xlink:href="#BitstreamVeraSans-Roman-72"/>
    <use transform="translate(587.20703125 0.015625)" xlink:href="#BitstreamVeraSans-Roman-62"/>
    <use transform="translate(650.68359375 0.015625)" xlink:href="#BitstreamVeraSans-Roman-69"/>
    <use transform="translate(678.466796875 0.015625)" xlink:href="#BitstreamVeraSans-Roman-74"/>
    <use transform="translate(717.67578125 0.015625)" xlink:href="#BitstreamVeraSans-Roman-2c"/>
    <use transform="translate(749.462890625 0.015625)" xlink:href="#BitstreamVeraSans-Roman-20"/>
    <use transform="translate(781.25 0.015625)" xlink:href="#Cmmi10-6d"/>
    <use transform="translate(869.04296875 0.015625)" xlink:href="#Cmr10-31"/>
    <use transform="translate(919.04296875 0.015625)" xlink:href="#Cmmi10-3d"/>
    <use transform="translate(969.04296875 0.015625)" xlink:href="#Cmmi10-4d"/>
    <use transform="translate(1083.62304688 0.015625)" xlink:href="#Cmr10-3d"/>
    <use transform="translate(1167.68164062 0.015625)" xlink:href="#BitstreamVeraSans-Roman-30"/>
    <use transform="translate(1231.3046875 0.015625)" xlink:href="#BitstreamVeraSans-Roman-2e"/>
    <use transform="translate(1255.34179688 0.015625)" xlink:href="#BitstreamVeraSans-Roman-37"/>
   </g>
  </g>
 </g>
 <defs>
  <clipPath id="paa341766a5">
   <rect height="482.4" width="433.084090909" x="153.675" y="60.3"/>
  </clipPath>
  <clipPath id="p9b96c9b755">
   <rect height="482.4" width="433.084090909" x="673.375909091" y="60.3"/>
  </clipPath>
 </defs>
</svg>
