<?xml version="1.0" encoding="utf-8" standalone="no"?>
<!DOCTYPE svg PUBLIC "-//W3C//DTD SVG 1.1//EN"
  "http://www.w3.org/Graphics/SVG/1.1/DTD/svg11.dtd">
<!-- Created with matplotlib (http://matplotlib.org/) -->
<svg height="603pt" version="1.1" viewBox="0 0 1229 603" width="1229pt" xmlns="http://www.w3.org/2000/svg" xmlns:xlink="http://www.w3.org/1999/xlink">
 <defs>
  <style type="text/css">
*{stroke-linecap:butt;stroke-linejoin:round;}
  </style>
 </defs>
 <g id="figure_1">
  <g id="patch_1">
   <path d="
M0 603
L1229.4 603
L1229.4 0
L0 0
z
" style="fill:#ffffff;"/>
  </g>
  <g id="axes_1">
   <g id="patch_2">
    <path d="
M153.675 542.7
L586.759 542.7
L586.759 60.3
L153.675 60.3
z
" style="fill:#ffffff;"/>
   </g>
   <g id="line2d_1">
    <path clip-path="url(#paa341766a5)" d="
M153.675 301.5
L155.605 300.437
L156.645 299.597
L157.536 298.589
L158.365 297.305
L159.157 295.651
L159.924 293.514
L160.679 290.722
L161.421 287.087
L162.176 282.229
L163.19 274.002
L163.797 269.944
L164.081 269.213
L164.23 269.234
L164.403 269.577
L164.762 270.942
L165.269 272.61
L165.517 272.838
L165.702 272.733
L165.95 272.273
L166.333 271
L166.952 268.058
L168.239 260.612
L171.32 242.794
L173.362 232.344
L175.144 224.324
L176.641 218.553
L177.841 214.753
L178.782 212.453
L179.512 211.197
L180.081 210.614
L180.539 210.437
L180.935 210.515
L181.355 210.837
L181.9 211.565
L182.729 212.658
L182.964 212.645
L183.162 212.378
L183.409 211.599
L183.719 209.78
L184.176 205.521
L184.956 198.423
L185.327 196.883
L185.612 196.487
L185.835 196.507
L186.132 196.806
L187.74 198.801
L188.161 198.849
L188.582 198.663
L189.064 198.18
L189.646 197.26
L190.376 195.656
L191.279 193.096
L192.393 189.231
L193.741 183.706
L195.338 176.185
L197.181 166.378
L199.854 150.75
L200.955 145.028
L201.475 143.323
L201.772 142.944
L201.958 143.004
L202.168 143.379
L202.477 144.473
L203.108 146.758
L203.257 146.758
L203.405 146.437
L203.653 145.229
L204.098 141.664
L205.336 131.464
L206.041 127.589
L206.722 125.011
L207.39 123.294
L208.058 122.157
L208.739 121.422
L209.469 120.958
L210.36 120.665
L213.069 119.945
L213.849 119.395
L214.567 118.61
L215.272 117.498
L215.977 115.958
L216.695 113.839
L217.165 112.079
L217.178 490.905
L217.276 490.489
L218.019 486.821
L218.786 481.843
L219.776 473.734
L220.419 469.233
L220.692 468.519
L220.828 468.562
L221.001 468.987
L221.36 470.675
L221.793 472.347
L222.016 472.535
L222.177 472.368
L222.424 471.689
L222.832 469.773
L223.624 464.735
L226.025 449.155
L227.411 441.753
L228.673 436.164
L229.799 432.136
L230.764 429.454
L231.581 427.787
L232.261 426.854
L232.843 426.407
L233.35 426.287
L233.833 426.401
L234.39 426.774
L235.812 427.862
L236.072 427.719
L236.332 427.286
L236.629 426.29
L236.976 424.244
L237.421 420.104
L238.25 412.264
L238.522 411.461
L238.683 411.462
L238.869 411.78
L239.29 413.087
L239.871 414.66
L240.23 415.072
L240.502 415.083
L240.787 414.843
L241.158 414.204
L241.678 412.811
L242.408 410.145
L243.46 405.372
L245.056 396.982
L250.414 368.028
L251.119 365.631
L251.577 364.746
L251.861 364.575
L252.084 364.689
L252.344 365.123
L252.703 366.23
L253.408 368.445
L253.544 368.391
L253.705 367.939
L253.953 366.387
L254.41 361.663
L255.103 355.083
L255.549 352.795
L255.932 351.855
L256.254 351.569
L256.563 351.576
L256.984 351.839
L258.729 353.164
L259.224 353.178
L259.706 352.964
L260.226 352.471
L260.808 351.591
L261.476 350.152
L262.243 347.939
L263.109 344.724
L264.074 340.241
L265.138 334.185
L266.388 325.684
L267.7 316.977
L268.059 315.851
L268.232 315.781
L268.38 316.019
L268.616 316.944
L269.333 320.145
L269.445 320.059
L269.618 319.499
L269.915 317.59
L270.719 310.331
L271.573 303.736
L272.291 299.811
L272.971 297.238
L273.615 295.617
L274.221 294.657
L274.79 294.147
L275.359 293.928
L276.003 293.928
L277.005 294.191
L277.995 294.375
L278.552 294.256
L279.034 293.92
L279.504 293.298
L279.987 292.258
L280.494 290.593
L281.026 288.034
L281.608 284.048
L282.338 277.293
L282.982 271.999
L283.217 271.424
L283.328 271.533
L283.501 272.138
L284.38 275.889
L284.516 275.798
L284.714 275.327
L285.048 273.846
L285.667 269.873
L288.327 251.821
L289.428 246.171
L290.356 242.481
L291.136 240.213
L291.779 238.965
L292.299 238.398
L292.72 238.238
L293.103 238.326
L293.536 238.674
L294.13 239.486
L294.959 240.581
L295.219 240.605
L295.43 240.37
L295.677 239.681
L295.974 238.075
L296.345 234.675
L297.298 225.268
L297.484 225.028
L297.607 225.192
L297.855 226.023
L298.672 228.998
L298.956 229.295
L299.167 229.241
L299.426 228.894
L299.798 227.954
L300.342 225.874
L301.159 221.762
L302.557 213.396
L305.502 195.648
L306.418 191.48
L306.999 189.721
L307.383 189.14
L307.63 189.081
L307.853 189.273
L308.138 189.875
L308.558 191.404
L309.09 193.175
L309.226 193.189
L309.239 193.175
L309.375 192.825
L309.585 191.532
L309.932 187.719
L310.637 180.098
L310.971 178.642
L311.206 178.36
L311.392 178.438
L311.676 178.877
L313.149 181.593
L313.508 181.708
L313.829 181.575
L314.201 181.152
L314.659 180.255
L315.228 178.611
L315.945 175.797
L316.824 171.378
L317.913 164.676
L320.474 148.328
L320.746 147.879
L320.883 147.947
L321.056 148.358
L321.328 149.709
L321.897 152.613
L321.984 152.592
L321.996 152.573
L322.132 152.111
L322.367 150.338
L323.902 136.506
L324.323 135.158
L324.694 134.622
L325.015 134.511
L325.362 134.642
L325.869 135.111
L327.267 136.501
L327.725 136.614
L328.109 136.485
L328.505 136.097
L328.938 135.337
L329.433 133.989
L329.99 131.786
L330.621 128.31
L331.338 123.001
L332.625 112.123
L332.638 490.935
L332.737 490.507
L332.935 490.178
L333.046 490.353
L333.182 490.922
L333.195 112.115
L333.294 112.756
L333.875 116.182
L333.974 116.168
L333.986 116.151
L334.135 115.69
L334.407 113.9
L334.605 112.138
L334.618 490.897
L334.717 489.941
L335.929 479.146
L336.61 475.119
L337.216 472.761
L337.748 471.511
L338.194 470.966
L338.59 470.806
L338.973 470.892
L339.443 471.243
L340.309 472.242
L340.965 472.841
L341.324 472.904
L341.609 472.726
L341.906 472.249
L342.24 471.249
L342.623 469.324
L343.069 465.809
L343.725 458.464
L344.158 454.782
L344.306 454.511
L344.331 454.528
L344.442 454.812
L344.677 456.253
L345.185 459.273
L345.37 459.453
L345.507 459.252
L345.742 458.372
L346.15 455.802
L347.264 446.801
L348.402 438.538
L349.243 433.92
L349.924 431.307
L350.456 430.045
L350.864 429.574
L351.174 429.513
L351.471 429.692
L351.83 430.198
L352.374 431.416
L353.055 432.826
L353.265 432.885
L353.426 432.68
L353.636 431.968
L353.908 430.102
L354.28 425.741
L354.898 418.614
L355.071 418.209
L355.084 418.213
L355.183 418.379
L355.393 419.33
L356.111 422.88
L356.346 423.133
L356.507 423.027
L356.742 422.526
L357.101 421.14
L357.67 417.927
L358.747 410.321
L360.553 397.758
L361.32 393.872
L361.828 392.288
L362.162 391.849
L362.372 391.872
L362.595 392.175
L362.892 393.033
L363.486 395.682
L363.77 396.39
L363.869 396.325
L364.005 395.863
L364.216 394.184
L364.612 388.664
L365.057 383.596
L365.305 382.753
L365.428 382.793
L365.602 383.202
L366.035 385.01
L366.579 386.913
L366.901 387.385
L367.124 387.404
L367.359 387.168
L367.668 386.494
L368.101 384.956
L368.707 381.879
L369.561 376.267
L371.974 359.688
L372.283 358.983
L372.444 358.99
L372.605 359.305
L372.84 360.347
L373.521 364.104
L373.57 364.052
L373.694 363.543
L373.917 361.362
L374.87 350.52
L375.142 349.79
L375.315 349.77
L375.513 350.038
L375.884 351.013
L376.825 353.538
L377.196 353.94
L377.456 353.942
L377.716 353.704
L378.037 353.073
L378.458 351.699
L378.99 349.105
L379.658 344.615
L380.623 336.368
L381.391 330.491
L381.663 329.724
L381.774 329.805
L381.923 330.335
L382.183 332.306
L382.591 335.079
L382.653 335.078
L382.677 335.036
L382.801 334.476
L383.049 331.979
L384.026 321.033
L384.41 319.28
L384.707 318.776
L384.93 318.762
L385.177 319.015
L385.585 319.821
L386.773 322.318
L387.107 322.52
L387.355 322.424
L387.627 322.039
L387.961 321.118
L388.369 319.249
L388.852 315.895
L389.471 309.86
L390.238 302.62
L390.399 302.284
L390.424 302.304
L390.535 302.647
L390.745 304.298
L391.191 307.707
L391.253 307.717
L391.29 307.656
L391.426 307.042
L391.698 304.507
L392.911 291.981
L393.381 289.591
L393.752 288.663
L394.037 288.434
L394.272 288.507
L394.569 288.872
L395.039 289.87
L396.029 292.015
L396.301 292.165
L396.499 292.036
L396.734 291.552
L397.019 290.38
L397.365 287.91
L397.811 282.929
L398.491 275.366
L398.578 275.235
L398.627 275.306
L398.751 275.928
L399.407 280.722
L399.481 280.63
L399.642 279.953
L399.951 277.417
L401.647 261.775
L402.154 259.473
L402.537 258.618
L402.81 258.461
L403.032 258.591
L403.317 259.064
L403.75 260.284
L404.554 262.57
L404.752 262.629
L404.901 262.391
L405.099 261.578
L405.359 259.458
L405.742 254.123
L406.213 248.266
L406.299 248.08
L406.349 248.139
L406.472 248.746
L407.215 253.633
L407.24 253.621
L407.363 253.382
L407.586 252.328
L407.994 249.102
L409.925 232.438
L410.407 230.376
L410.729 229.782
L410.927 229.761
L411.125 230.012
L411.397 230.784
L411.855 232.894
L412.3 234.563
L412.412 234.58
L412.424 234.565
L412.548 234.207
L412.734 232.835
L413.018 228.735
L413.525 221.617
L413.624 221.402
L413.674 221.463
L413.81 222.092
L414.651 227.045
L414.775 226.972
L414.961 226.486
L415.27 224.888
L415.79 220.823
L417.695 204.929
L418.067 203.648
L418.277 203.497
L418.425 203.685
L418.636 204.393
L418.97 206.448
L419.415 208.912
L419.477 208.91
L419.502 208.868
L419.613 208.36
L419.811 206.093
L420.541 196.296
L420.603 196.304
L420.628 196.344
L420.777 196.934
L421.779 202.014
L421.927 201.944
L422.125 201.499
L422.422 200.189
L422.88 197.027
L423.697 189.525
L424.612 181.678
L424.959 180.245
L425.107 180.152
L425.12 180.162
L425.243 180.415
L425.441 181.441
L426.048 185.945
L426.134 185.74
L426.283 184.39
L426.617 178.483
L426.976 173.852
L427.174 173.274
L427.273 173.41
L427.471 174.239
L428.424 178.93
L428.634 179.051
L428.795 178.864
L429.03 178.176
L429.376 176.353
L429.871 172.393
L431.393 159.211
L431.48 159.236
L431.492 159.257
L431.616 159.715
L431.826 161.515
L432.247 165.194
L432.259 165.189
L432.334 164.943
L432.482 163.402
L433.361 152.143
L433.472 152.071
L433.509 152.104
L433.658 152.466
L433.967 153.964
L434.685 157.41
L434.957 157.827
L435.118 157.756
L435.316 157.332
L435.6 156.074
L435.984 153.235
L436.553 147.106
L437.246 140.083
L437.382 139.771
L437.419 139.808
L437.531 140.272
L437.729 142.333
L438.088 145.845
L438.1 145.844
L438.162 145.67
L438.298 144.392
L438.731 137.07
L439.115 132.81
L439.362 131.928
L439.486 131.928
L439.498 131.942
L439.659 132.301
L439.968 133.656
L440.773 137.298
L441.008 137.575
L441.156 137.458
L441.354 136.913
L441.626 135.395
L441.998 131.883
L442.975 121.005
L443.025 121.091
L443.148 121.935
L443.619 127.098
L443.705 126.822
L443.866 125.111
L444.844 112.601
L445.029 112.076
L445.042 490.937
L445.141 490.903
L445.178 490.926
L445.19 112.062
L445.289 112.225
L445.537 113.069
L446.663 117.592
L446.786 117.472
L446.96 116.914
L447.207 115.235
L447.479 112.124
L447.492 490.829
L447.591 489.38
L448.234 481.153
L448.284 481.224
L448.395 482.045
L448.853 487.247
L448.927 487.055
L449.075 485.725
L449.521 478.793
L450.016 472.822
L450.338 471.114
L450.536 470.877
L450.672 471.028
L450.894 471.729
L451.328 474.058
L451.81 476.259
L451.971 476.395
L451.983 476.386
L452.107 476.122
L452.293 475.048
L452.553 471.998
L453.208 462.179
L453.283 462.392
L453.431 464.107
L453.802 468.287
L453.852 468.256
L453.864 468.225
L453.988 467.467
L454.26 463.976
L455.089 452.959
L455.436 451.005
L455.646 450.744
L455.782 450.929
L455.992 451.694
L456.401 454.246
L456.809 456.297
L456.896 456.353
L456.933 456.313
L457.057 455.852
L457.242 454.068
L457.539 448.546
L457.898 443.074
L457.923 443.069
L457.948 443.127
L458.046 443.925
L458.529 449.249
L458.579 449.189
L458.702 448.534
L458.962 445.589
L460.039 432.18
L460.323 431.052
L460.447 431.015
L460.459 431.026
L460.596 431.335
L460.831 432.582
L461.486 436.828
L461.536 436.766
L461.647 436.176
L461.833 433.613
L462.353 424.279
L462.414 424.484
L462.563 426.208
L462.947 430.512
L463.021 430.593
L463.058 430.538
L463.182 429.958
L463.429 427.465
L464.716 412.598
L464.877 412.362
L464.902 412.38
L465.025 412.687
L465.236 414.02
L465.78 418.467
L465.842 418.355
L465.953 417.433
L466.164 413.183
L466.523 406.49
L466.547 406.462
L466.572 406.498
L466.572 406.498
L466.671 407.201
L467.253 412.976
L467.29 412.945
L467.401 412.548
L467.624 410.678
L468.106 404.139
L468.737 396.476
L468.997 395.394
L469.084 395.47
L469.22 396.087
L469.455 398.461
L469.814 401.769
L469.826 401.755
L469.901 401.36
L470.049 398.913
L470.507 390.128
L470.532 390.161
L470.631 390.817
L471.262 396.883
L471.311 396.837
L471.435 396.363
L471.67 394.323
L472.153 387.633
L472.709 380.908
L472.895 380.292
L472.907 380.299
L472.994 380.53
L473.155 381.855
L473.588 386.897
L473.65 386.615
L473.786 384.361
L474.244 375.475
L474.256 375.482
L474.33 375.802
L474.528 378.116
L474.924 382.243
L475.048 382.482
L475.085 382.447
L475.209 382.003
L475.432 380.115
L475.852 374.197
L476.397 367.287
L476.521 366.932
L476.558 366.982
L476.657 367.512
L476.842 370.012
L477.127 373.709
L477.152 373.667
L477.238 372.809
L477.449 367.483
L477.733 362.452
L477.77 362.387
L477.808 362.446
L477.808 362.446
L477.919 363.229
L478.599 369.624
L478.624 369.608
L478.723 369.328
L478.909 367.962
L479.243 363.446
L479.874 355.041
L479.923 354.982
L479.961 355.052
L480.06 355.76
L480.27 359.414
L480.468 361.872
L480.493 361.807
L480.579 360.777
L481.099 350.554
L481.186 350.857
L481.371 352.879
L481.841 357.812
L481.94 357.965
L481.977 357.925
L482.089 357.493
L482.299 355.513
L482.695 349.045
L483.079 344.083
L483.116 344.036
L483.153 344.114
L483.252 344.987
L483.611 350.992
L483.71 350.038
L483.982 342.725
L484.217 339.601
L484.242 339.582
L484.279 339.648
L484.39 340.413
L485.071 347.098
L485.133 347.001
L485.269 346.219
L485.504 343.214
L486.123 333.688
L486.172 333.856
L486.284 335.334
L486.568 340.664
L486.63 340.322
L486.779 336.961
L487.15 329.194
L487.212 329.071
L487.261 329.2
L487.397 330.35
L488.016 336.611
L488.028 336.604
L488.115 336.346
L488.276 334.897
L488.56 329.79
L488.956 323.561
L489.006 323.781
L489.13 325.908
L489.365 330.525
L489.414 330.291
L489.538 327.733
L489.959 318.731
L490.008 318.644
L490.058 318.758
L490.194 319.887
L490.788 326.134
L490.812 326.108
L490.911 325.646
L491.085 323.472
L491.617 313.324
L491.716 314.165
L492.013 320.251
L492.099 319.279
L492.656 307.988
L492.73 308.239
L492.891 309.92
L493.386 315.362
L493.448 315.243
L493.572 314.186
L493.794 309.696
L494.141 302.718
L494.166 302.814
L494.252 304.203
L494.5 309.598
L494.549 309.257
L494.698 305.653
L495.081 297.062
L495.156 296.853
L495.205 296.975
L495.341 298.178
L495.849 304.067
L495.898 303.945
L496.009 302.876
L496.22 298.009
L496.504 291.554
L496.541 291.708
L496.64 293.778
L496.851 298.385
L496.888 298.175
L497.012 295.504
L497.457 285.234
L497.519 285.099
L497.569 285.234
L497.705 286.526
L498.15 292.138
L498.2 292.032
L498.299 291.004
L498.497 285.8
L498.744 279.758
L498.769 279.867
L498.855 281.638
L499.066 286.554
L499.103 286.381
L499.214 284.13
L499.709 272.76
L499.746 272.718
L499.771 272.762
L499.771 272.762
L499.87 273.467
L500.13 277.66
L500.328 279.605
L500.353 279.563
L500.439 278.74
L500.6 274.38
L500.848 267.386
L500.885 267.628
L501.008 271.112
L501.157 274.171
L501.194 274.03
L501.305 271.845
L501.825 259.873
L501.85 259.875
L501.875 259.941
L501.986 260.959
L502.37 266.657
L502.444 266.163
L502.58 262.591
L502.827 254.642
L502.877 255.069
L503.137 261.461
L503.236 260.292
L503.545 250.745
L503.793 246.876
L503.817 246.875
L503.83 246.902
L503.83 246.902
L503.916 247.586
L504.151 252.149
L504.288 253.632
L504.325 253.45
L504.424 251.341
L504.696 241.856
L504.77 243.007
L505.005 248.76
L505.055 248.377
L505.203 244.639
L505.624 234.186
L505.649 234.142
L505.673 234.184
L505.673 234.184
L505.76 235.003
L506.082 240.96
L506.168 239.76
L506.453 229.451
L506.552 231.621
L506.75 236.501
L506.787 236.345
L506.898 234.141
L507.369 222.126
L507.406 222.223
L507.505 223.604
L507.765 229.053
L507.814 228.487
L507.95 222.735
L508.099 217.824
L508.136 218.221
L508.396 225.072
L508.495 223.964
L508.742 215.913
L508.977 211.167
L508.99 211.174
L509.051 211.69
L509.212 215.988
L509.336 218.251
L509.373 217.841
L509.485 213.169
L509.645 207.3
L509.682 207.755
L509.942 214.783
L510.029 213.847
L510.239 206.998
L510.487 201.481
L510.499 201.514
L510.573 202.531
L510.796 208.743
L510.87 207.424
L511.093 198.055
L511.167 199.631
L511.39 205.798
L511.427 205.589
L511.539 203.052
L511.885 193.143
L511.935 193.527
L512.058 197.408
L512.182 200.587
L512.219 200.017
L512.38 191.59
L512.442 190.155
L512.491 190.77
L512.739 198.162
L512.813 197.388
L512.999 191.032
L513.197 186.139
L513.221 186.273
L513.308 188.489
L513.469 193.76
L513.518 192.675
L513.716 183.557
L513.791 185.213
L514.001 191.827
L514.05 191.461
L514.187 187.303
L514.422 180.385
L514.446 180.556
L514.533 183.208
L514.669 188.178
L514.719 187.124
L514.904 178.188
L514.978 179.937
L515.189 186.694
L515.226 186.357
L515.35 182.453
L515.56 175.767
L515.597 176.085
L515.709 180.768
L515.795 183.718
L515.845 182.578
L516.018 173.932
L516.08 175.354
L516.29 182.661
L516.34 182.038
L516.5 175.742
L516.637 172.191
L516.674 172.723
L516.847 180.271
L516.921 177.695
L517.057 170.683
L517.107 171.679
L517.317 179.616
L517.379 178.612
L517.626 169.53
L517.701 171.227
L517.837 177.761
L517.886 176.273
L518.035 168.348
L518.084 169.654
L518.27 177.465
L518.332 176.548
L518.567 167.719
L518.641 170.023
L518.765 176.061
L518.814 174.041
L518.938 166.845
L519 168.634
L519.173 176.127
L519.223 175.256
L519.433 166.699
L519.507 168.896
L519.619 175.186
L519.668 173.5
L519.792 166.114
L519.841 167.644
L520.002 175.563
L520.064 174.383
L520.25 166.411
L520.312 168.204
L520.423 175.027
L520.485 172.26
L520.584 166.13
L520.633 167.755
L520.782 175.726
L520.844 174.418
L521.017 166.845
L521.066 168.469
L521.178 175.603
L521.227 173.364
L521.326 166.866
L521.376 168.825
L521.512 176.611
L521.561 175.56
L521.722 167.968
L521.784 170.359
L521.883 176.867
L521.933 174.074
L522.019 168.318
L522.069 170.689
L522.192 178.198
L522.242 176.899
L522.39 169.808
L522.44 171.954
L522.539 178.83
L522.588 175.636
L522.663 170.471
L522.712 173.082
L522.824 180.485
L522.873 179.064
L522.997 172.331
L523.046 173.865
L523.145 181.525
L523.195 178.403
L523.269 173.375
L523.318 176.904
L523.417 183.445
L523.467 181.524
L523.578 175.488
L523.628 177.805
L523.714 184.872
L523.764 181.353
L523.826 176.873
L523.875 180.614
L523.962 187.099
L524.011 185.147
L524.11 179.309
L524.16 181.581
L524.246 188.826
L524.296 184.651
L524.345 181.019
L524.383 183.573
L524.383 183.573
L524.469 191.334
L524.531 188.345
L524.605 183.713
L524.655 185.892
L524.729 193.333
L524.779 190.059
L524.828 185.706
L524.878 190.045
L524.89 191.814
L524.89 191.814" style="fill:none;stroke:#008000;stroke-linecap:square;stroke-width:2;"/>
   </g>
   <g id="patch_3">
    <path d="
M153.675 60.3
L586.759 60.3" style="fill:none;stroke:#000000;stroke-linecap:square;stroke-linejoin:miter;"/>
   </g>
   <g id="patch_4">
    <path d="
M586.759 542.7
L586.759 60.3" style="fill:none;stroke:#000000;stroke-linecap:square;stroke-linejoin:miter;"/>
   </g>
   <g id="patch_5">
    <path d="
M153.675 542.7
L586.759 542.7" style="fill:none;stroke:#000000;stroke-linecap:square;stroke-linejoin:miter;"/>
   </g>
   <g id="patch_6">
    <path d="
M153.675 542.7
L153.675 60.3" style="fill:none;stroke:#000000;stroke-linecap:square;stroke-linejoin:miter;"/>
   </g>
   <g id="matplotlib.axis_1">
    <g id="xtick_1">
     <g id="line2d_2">
      <defs>
       <path d="
M0 0
L0 -4" id="m93b0483c22" style="stroke:#000000;stroke-width:0.5;"/>
      </defs>
      <g>
       <use style="stroke:#000000;stroke-width:0.5;" x="153.675" xlink:href="#m93b0483c22" y="542.7"/>
      </g>
     </g>
     <g id="line2d_3">
      <defs>
       <path d="
M0 0
L0 4" id="m741efc42ff" style="stroke:#000000;stroke-width:0.5;"/>
      </defs>
      <g>
       <use style="stroke:#000000;stroke-width:0.5;" x="153.675" xlink:href="#m741efc42ff" y="60.3"/>
      </g>
     </g>
     <g id="text_1">
      <!-- 0 -->
      <defs>
       <path d="
M31.7812 66.4062
Q24.1719 66.4062 20.3281 58.9062
Q16.5 51.4219 16.5 36.375
Q16.5 21.3906 20.3281 13.8906
Q24.1719 6.39062 31.7812 6.39062
Q39.4531 6.39062 43.2812 13.8906
Q47.125 21.3906 47.125 36.375
Q47.125 51.4219 43.2812 58.9062
Q39.4531 66.4062 31.7812 66.4062
M31.7812 74.2188
Q44.0469 74.2188 50.5156 64.5156
Q56.9844 54.8281 56.9844 36.375
Q56.9844 17.9688 50.5156 8.26562
Q44.0469 -1.42188 31.7812 -1.42188
Q19.5312 -1.42188 13.0625 8.26562
Q6.59375 17.9688 6.59375 36.375
Q6.59375 54.8281 13.0625 64.5156
Q19.5312 74.2188 31.7812 74.2188" id="BitstreamVeraSans-Roman-30"/>
      </defs>
      <g transform="translate(150.6515625 555.818125)scale(0.12 -0.12)">
       <use xlink:href="#BitstreamVeraSans-Roman-30"/>
      </g>
     </g>
    </g>
    <g id="xtick_2">
     <g id="line2d_4">
      <g>
       <use style="stroke:#000000;stroke-width:0.5;" x="215.544155844" xlink:href="#m93b0483c22" y="542.7"/>
      </g>
     </g>
     <g id="line2d_5">
      <g>
       <use style="stroke:#000000;stroke-width:0.5;" x="215.544155844" xlink:href="#m741efc42ff" y="60.3"/>
      </g>
     </g>
     <g id="text_2">
      <!-- 5 -->
      <defs>
       <path d="
M10.7969 72.9062
L49.5156 72.9062
L49.5156 64.5938
L19.8281 64.5938
L19.8281 46.7344
Q21.9688 47.4688 24.1094 47.8281
Q26.2656 48.1875 28.4219 48.1875
Q40.625 48.1875 47.75 41.5
Q54.8906 34.8125 54.8906 23.3906
Q54.8906 11.625 47.5625 5.09375
Q40.2344 -1.42188 26.9062 -1.42188
Q22.3125 -1.42188 17.5469 -0.640625
Q12.7969 0.140625 7.71875 1.70312
L7.71875 11.625
Q12.1094 9.23438 16.7969 8.0625
Q21.4844 6.89062 26.7031 6.89062
Q35.1562 6.89062 40.0781 11.3281
Q45.0156 15.7656 45.0156 23.3906
Q45.0156 31 40.0781 35.4375
Q35.1562 39.8906 26.7031 39.8906
Q22.75 39.8906 18.8125 39.0156
Q14.8906 38.1406 10.7969 36.2812
z
" id="BitstreamVeraSans-Roman-35"/>
      </defs>
      <g transform="translate(212.713843344 555.818125)scale(0.12 -0.12)">
       <use xlink:href="#BitstreamVeraSans-Roman-35"/>
      </g>
     </g>
    </g>
    <g id="xtick_3">
     <g id="line2d_6">
      <g>
       <use style="stroke:#000000;stroke-width:0.5;" x="277.413311688" xlink:href="#m93b0483c22" y="542.7"/>
      </g>
     </g>
     <g id="line2d_7">
      <g>
       <use style="stroke:#000000;stroke-width:0.5;" x="277.413311688" xlink:href="#m741efc42ff" y="60.3"/>
      </g>
     </g>
     <g id="text_3">
      <!-- 10 -->
      <defs>
       <path d="
M12.4062 8.29688
L28.5156 8.29688
L28.5156 63.9219
L10.9844 60.4062
L10.9844 69.3906
L28.4219 72.9062
L38.2812 72.9062
L38.2812 8.29688
L54.3906 8.29688
L54.3906 0
L12.4062 0
z
" id="BitstreamVeraSans-Roman-31"/>
      </defs>
      <g transform="translate(270.835811688 555.818125)scale(0.12 -0.12)">
       <use xlink:href="#BitstreamVeraSans-Roman-31"/>
       <use x="63.623046875" xlink:href="#BitstreamVeraSans-Roman-30"/>
      </g>
     </g>
    </g>
    <g id="xtick_4">
     <g id="line2d_8">
      <g>
       <use style="stroke:#000000;stroke-width:0.5;" x="339.282467532" xlink:href="#m93b0483c22" y="542.7"/>
      </g>
     </g>
     <g id="line2d_9">
      <g>
       <use style="stroke:#000000;stroke-width:0.5;" x="339.282467532" xlink:href="#m741efc42ff" y="60.3"/>
      </g>
     </g>
     <g id="text_4">
      <!-- 15 -->
      <g transform="translate(332.830592532 555.818125)scale(0.12 -0.12)">
       <use xlink:href="#BitstreamVeraSans-Roman-31"/>
       <use x="63.623046875" xlink:href="#BitstreamVeraSans-Roman-35"/>
      </g>
     </g>
    </g>
    <g id="xtick_5">
     <g id="line2d_10">
      <g>
       <use style="stroke:#000000;stroke-width:0.5;" x="401.151623377" xlink:href="#m93b0483c22" y="542.7"/>
      </g>
     </g>
     <g id="line2d_11">
      <g>
       <use style="stroke:#000000;stroke-width:0.5;" x="401.151623377" xlink:href="#m741efc42ff" y="60.3"/>
      </g>
     </g>
     <g id="text_5">
      <!-- 20 -->
      <defs>
       <path d="
M19.1875 8.29688
L53.6094 8.29688
L53.6094 0
L7.32812 0
L7.32812 8.29688
Q12.9375 14.1094 22.625 23.8906
Q32.3281 33.6875 34.8125 36.5312
Q39.5469 41.8438 41.4219 45.5312
Q43.3125 49.2188 43.3125 52.7812
Q43.3125 58.5938 39.2344 62.25
Q35.1562 65.9219 28.6094 65.9219
Q23.9688 65.9219 18.8125 64.3125
Q13.6719 62.7031 7.8125 59.4219
L7.8125 69.3906
Q13.7656 71.7812 18.9375 73
Q24.125 74.2188 28.4219 74.2188
Q39.75 74.2188 46.4844 68.5469
Q53.2188 62.8906 53.2188 53.4219
Q53.2188 48.9219 51.5312 44.8906
Q49.8594 40.875 45.4062 35.4062
Q44.1875 33.9844 37.6406 27.2188
Q31.1094 20.4531 19.1875 8.29688" id="BitstreamVeraSans-Roman-32"/>
      </defs>
      <g transform="translate(394.354748377 555.818125)scale(0.12 -0.12)">
       <use xlink:href="#BitstreamVeraSans-Roman-32"/>
       <use x="63.623046875" xlink:href="#BitstreamVeraSans-Roman-30"/>
      </g>
     </g>
    </g>
    <g id="xtick_6">
     <g id="line2d_12">
      <g>
       <use style="stroke:#000000;stroke-width:0.5;" x="463.020779221" xlink:href="#m93b0483c22" y="542.7"/>
      </g>
     </g>
     <g id="line2d_13">
      <g>
       <use style="stroke:#000000;stroke-width:0.5;" x="463.020779221" xlink:href="#m741efc42ff" y="60.3"/>
      </g>
     </g>
     <g id="text_6">
      <!-- 25 -->
      <g transform="translate(456.349529221 555.818125)scale(0.12 -0.12)">
       <use xlink:href="#BitstreamVeraSans-Roman-32"/>
       <use x="63.623046875" xlink:href="#BitstreamVeraSans-Roman-35"/>
      </g>
     </g>
    </g>
    <g id="xtick_7">
     <g id="line2d_14">
      <g>
       <use style="stroke:#000000;stroke-width:0.5;" x="524.889935065" xlink:href="#m93b0483c22" y="542.7"/>
      </g>
     </g>
     <g id="line2d_15">
      <g>
       <use style="stroke:#000000;stroke-width:0.5;" x="524.889935065" xlink:href="#m741efc42ff" y="60.3"/>
      </g>
     </g>
     <g id="text_7">
      <!-- 30 -->
      <defs>
       <path d="
M40.5781 39.3125
Q47.6562 37.7969 51.625 33
Q55.6094 28.2188 55.6094 21.1875
Q55.6094 10.4062 48.1875 4.48438
Q40.7656 -1.42188 27.0938 -1.42188
Q22.5156 -1.42188 17.6562 -0.515625
Q12.7969 0.390625 7.625 2.20312
L7.625 11.7188
Q11.7188 9.32812 16.5938 8.10938
Q21.4844 6.89062 26.8125 6.89062
Q36.0781 6.89062 40.9375 10.5469
Q45.7969 14.2031 45.7969 21.1875
Q45.7969 27.6406 41.2812 31.2656
Q36.7656 34.9062 28.7188 34.9062
L20.2188 34.9062
L20.2188 43.0156
L29.1094 43.0156
Q36.375 43.0156 40.2344 45.9219
Q44.0938 48.8281 44.0938 54.2969
Q44.0938 59.9062 40.1094 62.9062
Q36.1406 65.9219 28.7188 65.9219
Q24.6562 65.9219 20.0156 65.0312
Q15.375 64.1562 9.8125 62.3125
L9.8125 71.0938
Q15.4375 72.6562 20.3438 73.4375
Q25.25 74.2188 29.5938 74.2188
Q40.8281 74.2188 47.3594 69.1094
Q53.9062 64.0156 53.9062 55.3281
Q53.9062 49.2656 50.4375 45.0938
Q46.9688 40.9219 40.5781 39.3125" id="BitstreamVeraSans-Roman-33"/>
      </defs>
      <g transform="translate(518.110872565 555.818125)scale(0.12 -0.12)">
       <use xlink:href="#BitstreamVeraSans-Roman-33"/>
       <use x="63.623046875" xlink:href="#BitstreamVeraSans-Roman-30"/>
      </g>
     </g>
    </g>
    <g id="xtick_8">
     <g id="line2d_16">
      <g>
       <use style="stroke:#000000;stroke-width:0.5;" x="586.759090909" xlink:href="#m93b0483c22" y="542.7"/>
      </g>
     </g>
     <g id="line2d_17">
      <g>
       <use style="stroke:#000000;stroke-width:0.5;" x="586.759090909" xlink:href="#m741efc42ff" y="60.3"/>
      </g>
     </g>
     <g id="text_8">
      <!-- 35 -->
      <g transform="translate(580.105653409 555.818125)scale(0.12 -0.12)">
       <use xlink:href="#BitstreamVeraSans-Roman-33"/>
       <use x="63.623046875" xlink:href="#BitstreamVeraSans-Roman-35"/>
      </g>
     </g>
    </g>
    <g id="text_9">
     <!-- time($s$) -->
     <defs>
      <path d="
M8.01562 75.875
L15.8281 75.875
Q23.1406 64.3594 26.7812 53.3125
Q30.4219 42.2812 30.4219 31.3906
Q30.4219 20.4531 26.7812 9.375
Q23.1406 -1.70312 15.8281 -13.1875
L8.01562 -13.1875
Q14.5 -2 17.7031 9.0625
Q20.9062 20.125 20.9062 31.3906
Q20.9062 42.6719 17.7031 53.6562
Q14.5 64.6562 8.01562 75.875" id="BitstreamVeraSans-Roman-29"/>
      <path d="
M52 44.1875
Q55.375 50.25 60.0625 53.125
Q64.75 56 71.0938 56
Q79.6406 56 84.2812 50.0156
Q88.9219 44.0469 88.9219 33.0156
L88.9219 0
L79.8906 0
L79.8906 32.7188
Q79.8906 40.5781 77.0938 44.375
Q74.3125 48.1875 68.6094 48.1875
Q61.625 48.1875 57.5625 43.5469
Q53.5156 38.9219 53.5156 30.9062
L53.5156 0
L44.4844 0
L44.4844 32.7188
Q44.4844 40.625 41.7031 44.4062
Q38.9219 48.1875 33.1094 48.1875
Q26.2188 48.1875 22.1562 43.5312
Q18.1094 38.875 18.1094 30.9062
L18.1094 0
L9.07812 0
L9.07812 54.6875
L18.1094 54.6875
L18.1094 46.1875
Q21.1875 51.2188 25.4844 53.6094
Q29.7812 56 35.6875 56
Q41.6562 56 45.8281 52.9688
Q50 49.9531 52 44.1875" id="BitstreamVeraSans-Roman-6d"/>
      <path d="
M8.6875 6.10938
Q11.375 1.51562 19.4844 1.51562
Q23 1.51562 26.1719 2.70312
Q29.3438 3.90625 31.4219 6.29688
Q33.5 8.6875 33.5 12.1094
Q33.5 14.7031 31.6406 16.3594
Q29.7812 18.0156 27.0938 18.6094
L21.6875 19.6719
Q17.9688 20.6094 15.5781 23.1406
Q13.1875 25.6875 13.1875 29.2969
Q13.1875 33.7344 15.5938 37.1562
Q18.0156 40.5781 21.9688 42.375
Q25.9219 44.1875 30.1719 44.1875
Q34.7188 44.1875 38.2969 42.0156
Q41.8906 39.8438 41.8906 35.5938
Q41.8906 33.2969 40.5938 31.5312
Q39.3125 29.7812 37.0156 29.7812
Q35.6875 29.7812 34.7344 30.6406
Q33.7969 31.5 33.7969 32.8125
Q33.7969 33.9844 34.4531 35.0781
Q35.1094 36.1875 36.2031 36.8438
Q37.3125 37.5 38.4844 37.5
Q37.5938 39.6562 35.1719 40.625
Q32.7656 41.6094 29.9844 41.6094
Q27.4375 41.6094 24.8906 40.5781
Q22.3594 39.5469 20.8125 37.5625
Q19.2812 35.5938 19.2812 32.9062
Q19.2812 31.1094 20.5469 29.7344
Q21.8281 28.375 23.6875 27.7812
L29.5 26.6094
Q32.2812 26.0312 34.5938 24.5312
Q36.9219 23.0469 38.25 20.7656
Q39.5938 18.5 39.5938 15.5781
Q39.5938 11.8594 37.5156 8.25
Q35.4531 4.64062 32.4219 2.48438
Q27.0938 -1.125 19.3906 -1.125
Q14.0625 -1.125 9.60938 1.3125
Q5.17188 3.76562 5.17188 8.59375
Q5.17188 11.3281 6.75 13.3438
Q8.34375 15.375 11.0781 15.375
Q12.7031 15.375 13.7969 14.3906
Q14.8906 13.4219 14.8906 11.8125
Q14.8906 9.51562 13.1719 7.8125
Q11.4688 6.10938 9.1875 6.10938
z
" id="Cmmi10-73"/>
      <path d="
M9.42188 54.6875
L18.4062 54.6875
L18.4062 0
L9.42188 0
z

M9.42188 75.9844
L18.4062 75.9844
L18.4062 64.5938
L9.42188 64.5938
z
" id="BitstreamVeraSans-Roman-69"/>
      <path d="
M31 75.875
Q24.4688 64.6562 21.2812 53.6562
Q18.1094 42.6719 18.1094 31.3906
Q18.1094 20.125 21.3125 9.0625
Q24.5156 -2 31 -13.1875
L23.1875 -13.1875
Q15.875 -1.70312 12.2344 9.375
Q8.59375 20.4531 8.59375 31.3906
Q8.59375 42.2812 12.2031 53.3125
Q15.8281 64.3594 23.1875 75.875
z
" id="BitstreamVeraSans-Roman-28"/>
      <path d="
M56.2031 29.5938
L56.2031 25.2031
L14.8906 25.2031
Q15.4844 15.9219 20.4844 11.0625
Q25.4844 6.20312 34.4219 6.20312
Q39.5938 6.20312 44.4531 7.46875
Q49.3125 8.73438 54.1094 11.2812
L54.1094 2.78125
Q49.2656 0.734375 44.1875 -0.34375
Q39.1094 -1.42188 33.8906 -1.42188
Q20.7969 -1.42188 13.1562 6.1875
Q5.51562 13.8125 5.51562 26.8125
Q5.51562 40.2344 12.7656 48.1094
Q20.0156 56 32.3281 56
Q43.3594 56 49.7812 48.8906
Q56.2031 41.7969 56.2031 29.5938
M47.2188 32.2344
Q47.125 39.5938 43.0938 43.9844
Q39.0625 48.3906 32.4219 48.3906
Q24.9062 48.3906 20.3906 44.1406
Q15.875 39.8906 15.1875 32.1719
z
" id="BitstreamVeraSans-Roman-65"/>
      <path d="
M18.3125 70.2188
L18.3125 54.6875
L36.8125 54.6875
L36.8125 47.7031
L18.3125 47.7031
L18.3125 18.0156
Q18.3125 11.3281 20.1406 9.42188
Q21.9688 7.51562 27.5938 7.51562
L36.8125 7.51562
L36.8125 0
L27.5938 0
Q17.1875 0 13.2344 3.875
Q9.28125 7.76562 9.28125 18.0156
L9.28125 47.7031
L2.6875 47.7031
L2.6875 54.6875
L9.28125 54.6875
L9.28125 70.2188
z
" id="BitstreamVeraSans-Roman-74"/>
     </defs>
     <g transform="translate(349.157045455 572.431875)scale(0.12 -0.12)">
      <use transform="translate(0.0 0.015625)" xlink:href="#BitstreamVeraSans-Roman-74"/>
      <use transform="translate(39.208984375 0.015625)" xlink:href="#BitstreamVeraSans-Roman-69"/>
      <use transform="translate(66.9921875 0.015625)" xlink:href="#BitstreamVeraSans-Roman-6d"/>
      <use transform="translate(164.404296875 0.015625)" xlink:href="#BitstreamVeraSans-Roman-65"/>
      <use transform="translate(225.927734375 0.015625)" xlink:href="#BitstreamVeraSans-Roman-28"/>
      <use transform="translate(264.94140625 0.015625)" xlink:href="#Cmmi10-73"/>
      <use transform="translate(311.71875 0.015625)" xlink:href="#BitstreamVeraSans-Roman-29"/>
     </g>
    </g>
   </g>
   <g id="matplotlib.axis_2">
    <g id="ytick_1">
     <g id="line2d_18">
      <defs>
       <path d="
M0 0
L4 0" id="m728421d6d4" style="stroke:#000000;stroke-width:0.5;"/>
      </defs>
      <g>
       <use style="stroke:#000000;stroke-width:0.5;" x="153.675" xlink:href="#m728421d6d4" y="542.7"/>
      </g>
     </g>
     <g id="line2d_19">
      <defs>
       <path d="
M0 0
L-4 0" id="mcb0005524f" style="stroke:#000000;stroke-width:0.5;"/>
      </defs>
      <g>
       <use style="stroke:#000000;stroke-width:0.5;" x="586.759090909" xlink:href="#mcb0005524f" y="542.7"/>
      </g>
     </g>
     <g id="text_10">
      <!-- −4 -->
      <defs>
       <path d="
M10.5938 35.5
L73.1875 35.5
L73.1875 27.2031
L10.5938 27.2031
z
" id="BitstreamVeraSans-Roman-2212"/>
       <path d="
M37.7969 64.3125
L12.8906 25.3906
L37.7969 25.3906
z

M35.2031 72.9062
L47.6094 72.9062
L47.6094 25.3906
L58.0156 25.3906
L58.0156 17.1875
L47.6094 17.1875
L47.6094 0
L37.7969 0
L37.7969 17.1875
L4.89062 17.1875
L4.89062 26.7031
z
" id="BitstreamVeraSans-Roman-34"/>
      </defs>
      <g transform="translate(133.92875 546.01125)scale(0.12 -0.12)">
       <use xlink:href="#BitstreamVeraSans-Roman-2212"/>
       <use x="83.7890625" xlink:href="#BitstreamVeraSans-Roman-34"/>
      </g>
     </g>
    </g>
    <g id="ytick_2">
     <g id="line2d_20">
      <g>
       <use style="stroke:#000000;stroke-width:0.5;" x="153.675" xlink:href="#m728421d6d4" y="482.4"/>
      </g>
     </g>
     <g id="line2d_21">
      <g>
       <use style="stroke:#000000;stroke-width:0.5;" x="586.759090909" xlink:href="#mcb0005524f" y="482.4"/>
      </g>
     </g>
     <g id="text_11">
      <!-- −3 -->
      <g transform="translate(134.2175 485.71125)scale(0.12 -0.12)">
       <use xlink:href="#BitstreamVeraSans-Roman-2212"/>
       <use x="83.7890625" xlink:href="#BitstreamVeraSans-Roman-33"/>
      </g>
     </g>
    </g>
    <g id="ytick_3">
     <g id="line2d_22">
      <g>
       <use style="stroke:#000000;stroke-width:0.5;" x="153.675" xlink:href="#m728421d6d4" y="422.1"/>
      </g>
     </g>
     <g id="line2d_23">
      <g>
       <use style="stroke:#000000;stroke-width:0.5;" x="586.759090909" xlink:href="#mcb0005524f" y="422.1"/>
      </g>
     </g>
     <g id="text_12">
      <!-- −2 -->
      <g transform="translate(134.4575 425.41125)scale(0.12 -0.12)">
       <use xlink:href="#BitstreamVeraSans-Roman-2212"/>
       <use x="83.7890625" xlink:href="#BitstreamVeraSans-Roman-32"/>
      </g>
     </g>
    </g>
    <g id="ytick_4">
     <g id="line2d_24">
      <g>
       <use style="stroke:#000000;stroke-width:0.5;" x="153.675" xlink:href="#m728421d6d4" y="361.8"/>
      </g>
     </g>
     <g id="line2d_25">
      <g>
       <use style="stroke:#000000;stroke-width:0.5;" x="586.759090909" xlink:href="#mcb0005524f" y="361.8"/>
      </g>
     </g>
     <g id="text_13">
      <!-- −1 -->
      <g transform="translate(134.36375 365.11125)scale(0.12 -0.12)">
       <use xlink:href="#BitstreamVeraSans-Roman-2212"/>
       <use x="83.7890625" xlink:href="#BitstreamVeraSans-Roman-31"/>
      </g>
     </g>
    </g>
    <g id="ytick_5">
     <g id="line2d_26">
      <g>
       <use style="stroke:#000000;stroke-width:0.5;" x="153.675" xlink:href="#m728421d6d4" y="301.5"/>
      </g>
     </g>
     <g id="line2d_27">
      <g>
       <use style="stroke:#000000;stroke-width:0.5;" x="586.759090909" xlink:href="#mcb0005524f" y="301.5"/>
      </g>
     </g>
     <g id="text_14">
      <!-- 0 -->
      <g transform="translate(143.628125 304.81125)scale(0.12 -0.12)">
       <use xlink:href="#BitstreamVeraSans-Roman-30"/>
      </g>
     </g>
    </g>
    <g id="ytick_6">
     <g id="line2d_28">
      <g>
       <use style="stroke:#000000;stroke-width:0.5;" x="153.675" xlink:href="#m728421d6d4" y="241.2"/>
      </g>
     </g>
     <g id="line2d_29">
      <g>
       <use style="stroke:#000000;stroke-width:0.5;" x="586.759090909" xlink:href="#mcb0005524f" y="241.2"/>
      </g>
     </g>
     <g id="text_15">
      <!-- 1 -->
      <g transform="translate(144.46625 244.51125)scale(0.12 -0.12)">
       <use xlink:href="#BitstreamVeraSans-Roman-31"/>
      </g>
     </g>
    </g>
    <g id="ytick_7">
     <g id="line2d_30">
      <g>
       <use style="stroke:#000000;stroke-width:0.5;" x="153.675" xlink:href="#m728421d6d4" y="180.9"/>
      </g>
     </g>
     <g id="line2d_31">
      <g>
       <use style="stroke:#000000;stroke-width:0.5;" x="586.759090909" xlink:href="#mcb0005524f" y="180.9"/>
      </g>
     </g>
     <g id="text_16">
      <!-- 2 -->
      <g transform="translate(144.12125 184.21125)scale(0.12 -0.12)">
       <use xlink:href="#BitstreamVeraSans-Roman-32"/>
      </g>
     </g>
    </g>
    <g id="ytick_8">
     <g id="line2d_32">
      <g>
       <use style="stroke:#000000;stroke-width:0.5;" x="153.675" xlink:href="#m728421d6d4" y="120.6"/>
      </g>
     </g>
     <g id="line2d_33">
      <g>
       <use style="stroke:#000000;stroke-width:0.5;" x="586.759090909" xlink:href="#mcb0005524f" y="120.6"/>
      </g>
     </g>
     <g id="text_17">
      <!-- 3 -->
      <g transform="translate(143.916875 123.91125)scale(0.12 -0.12)">
       <use xlink:href="#BitstreamVeraSans-Roman-33"/>
      </g>
     </g>
    </g>
    <g id="ytick_9">
     <g id="line2d_34">
      <g>
       <use style="stroke:#000000;stroke-width:0.5;" x="153.675" xlink:href="#m728421d6d4" y="60.3"/>
      </g>
     </g>
     <g id="line2d_35">
      <g>
       <use style="stroke:#000000;stroke-width:0.5;" x="586.759090909" xlink:href="#mcb0005524f" y="60.3"/>
      </g>
     </g>
     <g id="text_18">
      <!-- 4 -->
      <g transform="translate(143.3 63.61125)scale(0.12 -0.12)">
       <use xlink:href="#BitstreamVeraSans-Roman-34"/>
      </g>
     </g>
    </g>
    <g id="text_19">
     <!-- $\theta$($Rad$) -->
     <defs>
      <path d="
M16.1094 -1.125
Q11.5781 -1.125 8.84375 2.1875
Q6.10938 5.51562 5.04688 10.2031
Q4 14.8906 4 19.4844
L4 19.5781
Q4 24.5625 4.95312 29.9219
Q5.90625 35.2969 7.70312 40.6406
Q9.51562 46 11.625 50.2031
Q13.0938 53.125 15.4062 56.7344
Q17.7188 60.3594 20.5781 63.5
Q23.4375 66.6562 26.7344 68.5781
Q30.0312 70.5156 33.4062 70.5156
L33.5 70.5156
Q37.1094 70.5156 39.5156 68.5
Q41.9375 66.5 43.2812 63.375
Q44.625 60.25 45.1562 56.6875
Q45.7031 53.125 45.7031 49.9062
Q45.7031 42.3281 43.6562 34.4375
Q41.6094 26.5625 37.9844 19.1875
Q36.625 16.4062 34.2031 12.6406
Q31.7812 8.89062 29.0781 5.90625
Q26.375 2.9375 23 0.90625
Q19.625 -1.125 16.2188 -1.125
z

M16.3125 1.51562
Q19.625 1.51562 22.6719 5.04688
Q25.7344 8.59375 28.0312 13.6406
Q30.3281 18.7031 32.0625 24
Q33.7969 29.2969 34.625 33.0156
L14.2031 33.0156
Q12.6406 26.7031 11.7656 22.1406
Q10.8906 17.5781 10.8906 13.1875
Q10.8906 1.51562 16.3125 1.51562
M14.9844 36.5312
L35.5 36.5312
Q36.5781 40.9219 37.2031 43.875
Q37.8438 46.8281 38.2812 50.0938
Q38.7188 53.375 38.7188 56.2031
Q38.7188 67.9219 33.4062 67.9219
Q27.0469 67.9219 22.4375 57.6875
Q17.8281 47.4688 14.9844 36.5312" id="Cmmi10-b5"/>
      <path d="
M17.3906 -1.125
Q11.0781 -1.125 7.4375 3.64062
Q3.8125 8.40625 3.8125 14.8906
Q3.8125 21.2969 7.125 28.1719
Q10.4531 35.0625 16.0938 39.625
Q21.7344 44.1875 28.2188 44.1875
Q31.2031 44.1875 33.5469 42.5781
Q35.8906 40.9688 37.2031 38.1875
Q38.3281 42.1875 41.6094 42.1875
Q42.875 42.1875 43.7188 41.4219
Q44.5781 40.6719 44.5781 39.4062
Q44.5781 39.1094 44.5469 38.9531
Q44.5312 38.8125 44.4844 38.625
L37.5 10.6875
Q36.8125 7.71875 36.8125 5.8125
Q36.8125 1.51562 39.7031 1.51562
Q42.8281 1.51562 44.4531 5.48438
Q46.0938 9.46875 47.2188 14.7031
Q47.4062 15.2812 48 15.2812
L49.2188 15.2812
Q49.6094 15.2812 49.8438 14.9375
Q50.0938 14.5938 50.0938 14.3125
Q48.3438 7.32812 46.2656 3.09375
Q44.1875 -1.125 39.5 -1.125
Q36.1406 -1.125 33.5469 0.84375
Q30.9531 2.82812 30.3281 6.10938
Q23.875 -1.125 17.3906 -1.125
M17.4844 1.51562
Q21.0938 1.51562 24.4844 4.21875
Q27.875 6.9375 30.3281 10.5938
Q30.4219 10.6875 30.4219 10.8906
L35.7969 32.625
L35.8906 32.9062
Q35.2969 36.4688 33.3125 39.0312
Q31.3438 41.6094 27.9844 41.6094
Q24.6094 41.6094 21.7031 38.8438
Q18.7969 36.0781 16.7969 32.3281
Q14.8438 28.3281 13.0625 21.3438
Q11.2812 14.3594 11.2812 10.5
Q11.2812 7.03125 12.7656 4.26562
Q14.2656 1.51562 17.4844 1.51562" id="Cmmi10-61"/>
      <path d="
M4.89062 0
Q3.90625 0 3.90625 1.3125
Q3.95312 1.5625 4.09375 2.17188
Q4.25 2.78125 4.51562 3.14062
Q4.78125 3.51562 5.17188 3.51562
Q11.2812 3.51562 13.7188 4.20312
Q14.9844 4.64062 15.5781 6.89062
L29.2969 61.8125
Q29.5 62.7969 29.5 63.1875
Q29.5 64.2656 28.3281 64.4062
Q26.4219 64.7969 21.0938 64.7969
Q20.125 64.7969 20.125 66.1094
Q20.1719 66.3594 20.3125 66.9688
Q20.4531 67.5781 20.7188 67.9375
Q21 68.3125 21.3906 68.3125
L51.7031 68.3125
Q55.3281 68.3125 59.2344 67.4844
Q63.1406 66.6562 66.4062 64.875
Q69.6719 63.0938 71.7656 60.125
Q73.875 57.1719 73.875 53.2188
Q73.875 48.1875 70.5469 44.2344
Q67.2344 40.2812 62.1562 37.625
Q57.0781 34.9688 52.2969 33.8906
Q56.2031 32.4688 58.6875 29.3594
Q61.1875 26.2656 61.1875 22.2188
Q61.1875 21.6875 61.1562 21.4062
Q61.1406 21.1406 61.0781 20.7969
L60.2969 11.9219
Q60.2031 9.96875 60.1094 8.59375
Q60.0156 7.23438 60.0156 6.39062
Q60.0156 3.65625 60.8125 2.01562
Q61.625 0.390625 64.0156 0.390625
Q67.1406 0.390625 69.5 3.29688
Q71.875 6.20312 72.6094 9.625
Q73.0469 10.5 73.5781 10.5
L74.5156 10.5
Q75.4844 10.5 75.4844 9.1875
Q74.75 6.29688 73.1562 3.70312
Q71.5781 1.125 69.1562 -0.53125
Q66.75 -2.20312 63.9219 -2.20312
Q58.0625 -2.20312 53.9375 0.40625
Q49.8125 3.03125 49.8125 8.59375
Q49.8125 10.6875 50.2031 12.3125
L52.3906 21.1875
Q52.7812 22.4062 52.7812 24.0312
Q52.7812 28.1719 49.9688 30.5312
Q47.1719 32.9062 42.9219 32.9062
L30.6094 32.9062
L24.0312 6.5
Q23.7812 5.67188 23.7812 5.07812
Q23.7812 4.04688 25 3.90625
Q26.9062 3.51562 32.1719 3.51562
Q33.2031 3.51562 33.2031 2.20312
Q32.8594 0.78125 32.6562 0.390625
Q32.4688 0 31.5 0
z

M31.2031 35.5
L42.2812 35.5
Q53.1719 35.5 58.6875 41.0156
Q61.2344 43.5625 62.7188 47.4844
Q64.2031 51.4219 64.2031 55.3281
Q64.2031 59.0312 62.0312 61.125
Q59.8594 63.2344 56.6562 64.0156
Q53.4688 64.7969 49.6094 64.7969
L42.9219 64.7969
Q40.1875 64.7969 39.2969 64.3281
Q38.4219 63.875 37.7031 61.375
z
" id="Cmmi10-52"/>
      <path d="
M17.3906 -1.125
Q11.0781 -1.125 7.4375 3.64062
Q3.8125 8.40625 3.8125 14.8906
Q3.8125 21.2969 7.125 28.1719
Q10.4531 35.0625 16.0938 39.625
Q21.7344 44.1875 28.2188 44.1875
Q31.1562 44.1875 33.5156 42.5469
Q35.8906 40.9219 37.2031 38.1875
L42.8281 60.5
Q43.2188 62.2031 43.3125 63.1875
Q43.3125 64.7969 36.8125 64.7969
Q35.7969 64.7969 35.7969 66.1094
Q35.8438 66.3594 36.0156 66.9844
Q36.1875 67.625 36.4531 67.9688
Q36.7188 68.3125 37.2031 68.3125
L50.6875 69.3906
Q51.9062 69.3906 51.9062 68.1094
L37.5 10.5938
Q36.8125 8.9375 36.8125 5.8125
Q36.8125 1.51562 39.7031 1.51562
Q42.8281 1.51562 44.4531 5.48438
Q46.0938 9.46875 47.2188 14.7031
Q47.4062 15.2812 48 15.2812
L49.2188 15.2812
Q49.6094 15.2812 49.8438 14.9375
Q50.0938 14.5938 50.0938 14.3125
Q48.3438 7.32812 46.2656 3.09375
Q44.1875 -1.125 39.5 -1.125
Q36.1406 -1.125 33.5469 0.84375
Q30.9531 2.82812 30.3281 6.10938
Q23.875 -1.125 17.3906 -1.125
M17.4844 1.51562
Q21.0938 1.51562 24.4844 4.21875
Q27.875 6.9375 30.3281 10.5938
Q30.4219 10.6875 30.4219 10.9844
L35.8906 33.0156
Q35.2969 36.5312 33.2969 39.0625
Q31.2969 41.6094 27.9844 41.6094
Q24.6094 41.6094 21.7031 38.8438
Q18.7969 36.0781 16.7969 32.3281
Q14.8438 28.3281 13.0625 21.3438
Q11.2812 14.3594 11.2812 10.5
Q11.2812 7.03125 12.7656 4.26562
Q14.2656 1.51562 17.4844 1.51562" id="Cmmi10-64"/>
     </defs>
     <g transform="translate(126.433125 319.86)rotate(-90.0)scale(0.12 -0.12)">
      <use transform="translate(0.0 0.125)" xlink:href="#Cmmi10-b5"/>
      <use transform="translate(46.923828125 0.125)" xlink:href="#BitstreamVeraSans-Roman-28"/>
      <use transform="translate(85.9375 0.125)" xlink:href="#Cmmi10-52"/>
      <use transform="translate(161.81640625 0.125)" xlink:href="#Cmmi10-61"/>
      <use transform="translate(214.599609375 0.125)" xlink:href="#Cmmi10-64"/>
      <use transform="translate(266.6015625 0.125)" xlink:href="#BitstreamVeraSans-Roman-29"/>
     </g>
    </g>
   </g>
   <g id="legend_1">
    <g id="line2d_36">
     <path d="
M540.777 73.3932
L554.772 73.3932" style="fill:none;stroke:#008000;stroke-linecap:square;stroke-width:2;"/>
    </g>
    <g id="line2d_37"/>
    <g id="text_20">
     <!-- $\theta$-$t$ -->
     <defs>
      <path d="
M4.89062 31.3906
L31.2031 31.3906
L31.2031 23.3906
L4.89062 23.3906
z
" id="BitstreamVeraSans-Roman-2d"/>
      <path d="
M6.20312 8.10938
Q6.20312 9.57812 6.5 10.8906
L13.7188 39.5938
L3.21875 39.5938
Q2.20312 39.5938 2.20312 40.9219
Q2.59375 43.1094 3.51562 43.1094
L14.5938 43.1094
L18.6094 59.4219
Q19 60.75 20.1719 61.6719
Q21.3438 62.5938 22.7969 62.5938
Q24.0781 62.5938 24.9219 61.8281
Q25.7812 61.0781 25.7812 59.8125
Q25.7812 59.5156 25.75 59.3438
Q25.7344 59.1875 25.6875 58.9844
L21.6875 43.1094
L31.9844 43.1094
Q33.0156 43.1094 33.0156 41.7969
Q32.9531 41.5469 32.8125 40.9531
Q32.6719 40.375 32.4219 39.9844
Q32.1719 39.5938 31.6875 39.5938
L20.7969 39.5938
L13.625 10.6875
Q12.8906 7.85938 12.8906 5.8125
Q12.8906 1.51562 15.8281 1.51562
Q20.2188 1.51562 23.6094 5.64062
Q27 9.76562 28.8125 14.7031
Q29.2031 15.2812 29.5938 15.2812
L30.8125 15.2812
Q31.2031 15.2812 31.4375 15.0156
Q31.6875 14.75 31.6875 14.4062
Q31.6875 14.2031 31.5938 14.1094
Q29.3906 8.0625 25.1875 3.46875
Q21 -1.125 15.5781 -1.125
Q11.625 -1.125 8.90625 1.45312
Q6.20312 4.04688 6.20312 8.10938" id="Cmmi10-74"/>
     </defs>
     <g transform="translate(565.767490909 76.891798125)scale(0.09996 -0.09996)">
      <use transform="translate(0.0 0.484375)" xlink:href="#Cmmi10-b5"/>
      <use transform="translate(46.923828125 0.484375)" xlink:href="#BitstreamVeraSans-Roman-2d"/>
      <use transform="translate(83.0078125 0.484375)" xlink:href="#Cmmi10-74"/>
     </g>
    </g>
   </g>
  </g>
  <g id="axes_2">
   <g id="patch_7">
    <path d="
M673.376 542.7
L1106.46 542.7
L1106.46 60.3
L673.376 60.3
z
" style="fill:#ffffff;"/>
   </g>
   <g id="line2d_38">
    <path clip-path="url(#p9b96c9b755)" d="
M673.376 300.696
L674.527 300.586
L675.64 300.258
L676.68 299.719
L677.645 298.966
L678.523 297.996
L679.34 296.759
L680.12 295.16
L680.874 293.083
L681.765 289.913
L682.458 287.707
L682.681 287.534
L682.817 287.715
L683.003 288.459
L683.238 290.481
L683.56 295.502
L684.327 308.221
L684.45 308.498
L684.488 308.459
L684.611 307.971
L684.859 305.803
L685.898 295.669
L686.356 293.56
L686.802 292.453
L687.247 291.894
L687.717 291.644
L688.286 291.599
L689.115 291.778
L690.576 292.356
L693.261 293.675
L695.228 294.865
L696.626 295.962
L697.752 297.125
L698.73 298.456
L699.658 300.107
L700.833 302.723
L701.502 303.97
L701.786 304.132
L701.972 303.998
L702.182 303.515
L702.442 302.257
L702.751 299.517
L703.172 293.479
L703.816 284.432
L703.976 283.942
L704.001 283.962
L704.1 284.292
L704.286 285.902
L704.669 291.744
L705.3 300.559
L705.684 303.177
L705.993 304.039
L706.228 304.19
L706.451 304.066
L706.798 303.557
L707.54 301.957
L708.852 299.249
L709.891 297.625
L711.005 296.297
L712.292 295.111
L713.9 293.942
L716.016 292.69
L717.773 291.873
L718.664 291.677
L719.221 291.764
L719.654 292.06
L720.038 292.609
L720.409 293.56
L720.792 295.223
L721.188 298.023
L721.671 303.221
L722.24 308.882
L722.327 309.032
L722.376 308.968
L722.488 308.386
L722.686 305.819
L723.094 296.58
L723.552 288.353
L723.836 286.508
L723.997 286.335
L724.01 286.341
L724.146 286.553
L724.406 287.479
L725.21 291.578
L726.027 295.063
L726.769 297.298
L727.511 298.852
L728.254 299.913
L729.009 300.617
L729.776 301.034
L730.555 301.21
L731.372 301.167
L732.226 300.898
L733.117 300.38
L734.032 299.585
L734.936 298.498
L735.814 297.082
L736.656 295.288
L737.472 293.005
L738.45 289.536
L739.106 287.509
L739.328 287.336
L739.465 287.514
L739.638 288.194
L739.861 290.08
L740.157 294.834
L740.999 310.054
L741.061 309.986
L741.185 309.221
L741.444 305.71
L742.236 294.496
L742.645 291.828
L743.016 290.681
L743.362 290.251
L743.696 290.175
L744.105 290.336
L744.748 290.868
L746.196 292.43
L749.685 296.517
L751.381 298.862
L754.326 303.089
L754.66 303.148
L754.919 302.968
L755.192 302.477
L755.501 301.395
L755.847 299.278
L756.243 295.349
L757.308 282.999
L757.357 283.079
L757.481 283.841
L757.691 286.953
L758.223 299.746
L758.607 305.742
L758.854 306.998
L758.966 307.047
L758.99 307.025
L759.139 306.68
L759.436 305.294
L760.847 297.998
L761.502 296.013
L762.171 294.659
L762.888 293.687
L763.68 292.981
L764.583 292.472
L765.598 292.157
L766.65 292.059
L767.59 292.188
L768.37 292.513
L769.026 293.031
L769.595 293.769
L770.127 294.844
L770.634 296.403
L771.142 298.743
L771.698 302.478
L772.515 307.992
L772.602 308.055
L772.639 308.013
L772.75 307.592
L772.923 305.917
L773.183 300.865
L774 283.113
L774.099 282.896
L774.136 282.94
L774.247 283.425
L774.482 285.723
L775.707 299.496
L776.153 301.689
L776.561 302.704
L776.908 303.054
L777.229 303.091
L777.601 302.895
L778.133 302.331
L779.024 301.012
L782.488 295.201
L785.904 289.705
L786.275 289.504
L786.51 289.595
L786.745 289.965
L787.005 290.867
L787.289 292.762
L787.611 296.576
L788.057 305.062
L788.465 311.337
L788.527 311.474
L788.576 311.361
L788.688 310.36
L788.898 305.98
L789.678 287.863
L789.95 286.225
L790.111 286.083
L790.123 286.091
L790.271 286.332
L790.556 287.333
L791.633 292.479
L792.511 295.878
L793.34 298.245
L794.157 299.938
L794.924 301.047
L795.617 301.686
L796.236 301.97
L796.793 301.987
L797.325 301.773
L797.857 301.31
L798.413 300.517
L798.995 299.285
L799.601 297.457
L800.232 294.808
L800.925 290.856
L801.915 285.157
L802.027 285.071
L802.064 285.108
L802.187 285.525
L802.361 287.057
L802.596 291.379
L803.029 304.681
L803.351 311.345
L803.437 311.688
L803.487 311.598
L803.61 310.581
L803.883 305.838
L804.539 294.646
L804.934 291.389
L805.293 290.006
L805.615 289.508
L805.912 289.418
L806.246 289.573
L806.741 290.085
L807.595 291.335
L809.092 293.958
L810.626 297.072
L812.136 300.671
L813.423 303.612
L813.831 304.076
L814.066 304.078
L814.277 303.832
L814.524 303.136
L814.809 301.6
L815.143 298.458
L815.564 292.061
L816.269 281.101
L816.331 281.005
L816.368 281.078
L816.479 281.93
L816.677 285.791
L817.642 308.812
L817.729 308.924
L817.779 308.865
L817.915 308.338
L818.212 306.068
L819.251 297.688
L819.833 294.948
L820.402 293.267
L820.983 292.199
L821.577 291.549
L822.184 291.198
L822.815 291.085
L823.446 291.195
L824.064 291.528
L824.671 292.116
L825.24 292.988
L825.784 294.24
L826.316 296.046
L826.849 298.681
L827.442 302.863
L828.234 308.346
L828.333 308.428
L828.371 308.379
L828.482 307.92
L828.655 306.086
L828.903 300.695
L829.719 280.069
L829.732 280.072
L829.794 280.28
L829.942 281.92
L830.276 289.017
L830.87 300.622
L831.241 304.1
L831.538 305.212
L831.761 305.387
L831.947 305.237
L832.244 304.627
L832.813 302.821
L834.706 296.571
L835.82 293.779
L836.933 291.563
L837.812 290.255
L838.369 289.772
L838.715 289.726
L838.987 289.914
L839.259 290.401
L839.556 291.446
L839.878 293.501
L840.225 297.334
L840.658 305.036
L841.128 312.416
L841.165 312.486
L841.202 312.427
L841.202 312.427
L841.301 311.58
L841.474 307.594
L842.378 282.15
L842.427 282.137
L842.464 282.206
L842.6 282.922
L842.91 286.144
L843.912 297.026
L844.456 300.467
L844.951 302.3
L845.385 303.14
L845.743 303.417
L846.065 303.405
L846.424 303.152
L846.882 302.527
L847.488 301.283
L848.268 299.127
L849.196 295.871
L850.272 291.228
L851.386 286.535
L851.621 286.244
L851.745 286.385
L851.906 287.025
L852.116 288.974
L852.376 293.863
L852.759 306.296
L853.093 314.414
L853.143 314.538
L853.18 314.397
L853.291 312.816
L853.527 305.316
L854.071 288.678
L854.356 285.654
L854.566 285.136
L854.677 285.231
L854.875 285.799
L855.296 287.87
L857.041 297.017
L857.919 300.295
L858.649 302.239
L859.206 303.169
L859.614 303.483
L859.924 303.476
L860.221 303.238
L860.555 302.654
L860.938 301.498
L861.372 299.433
L861.854 295.965
L862.423 290.072
L863.215 281.92
L863.277 281.846
L863.327 281.93
L863.438 282.683
L863.611 285.775
L863.871 295.278
L864.378 313.872
L864.453 314.192
L864.502 313.998
L864.638 312.091
L865.034 301.774
L865.492 292.789
L865.863 289.376
L866.185 288.145
L866.445 287.837
L866.668 287.882
L866.952 288.211
L867.41 289.138
L868.152 291.207
L869.217 294.873
L870.454 299.975
L871.704 304.994
L872.05 305.619
L872.223 305.601
L872.384 305.303
L872.595 304.381
L872.867 302.005
L873.189 296.976
L873.659 285.451
L874.042 278.14
L874.092 278.004
L874.141 278.151
L874.253 279.611
L874.451 286.025
L875.144 311.459
L875.243 311.846
L875.292 311.756
L875.416 310.893
L875.713 306.777
L876.468 296.53
L876.963 292.784
L877.433 290.778
L877.878 289.763
L878.274 289.348
L878.633 289.268
L878.992 289.421
L879.4 289.855
L879.87 290.703
L880.378 292.098
L880.91 294.252
L881.454 297.449
L882.048 302.368
L882.89 309.323
L882.976 309.405
L883.013 309.352
L883.125 308.814
L883.298 306.58
L883.545 299.79
L884.251 276.329
L884.288 276.44
L884.387 277.731
L884.597 284.233
L885.265 306.213
L885.525 308.681
L885.649 308.89
L885.686 308.862
L885.81 308.526
L886.07 306.995
L888.012 293.517
L888.681 291.053
L889.287 289.596
L889.769 288.95
L890.104 288.813
L890.363 288.929
L890.636 289.319
L890.945 290.214
L891.279 291.946
L891.638 295.122
L892.034 300.882
L892.789 313.545
L892.838 313.421
L892.937 312.262
L893.11 306.946
L893.84 276.971
L893.902 277.211
L894.038 279.206
L894.397 288.98
L894.929 301.242
L895.301 305.331
L895.585 306.533
L895.783 306.669
L895.944 306.468
L896.216 305.67
L896.686 303.465
L898.184 294.808
L899.322 289.074
L899.904 287.073
L900.201 286.662
L900.349 286.736
L900.51 287.122
L900.72 288.302
L900.968 291.132
L901.252 297.218
L901.933 316.881
L902.02 316.069
L902.168 310.947
L902.91 278.969
L902.948 278.917
L902.985 278.986
L902.985 278.986
L903.096 279.789
L903.356 283.748
L904.321 299.384
L904.791 303.403
L905.175 305.08
L905.472 305.567
L905.67 305.559
L905.893 305.27
L906.202 304.441
L906.647 302.515
L907.254 298.786
L908.07 292.247
L909.172 283.495
L909.32 283.23
L909.345 283.247
L909.444 283.538
L909.592 284.833
L909.79 288.82
L910.05 299.218
L910.52 318.809
L910.533 318.808
L910.582 318.382
L910.706 314.542
L911.523 281.621
L911.646 281.28
L911.684 281.326
L911.807 281.846
L912.079 284.235
L913.837 301.863
L914.356 304.551
L914.727 305.525
L914.975 305.686
L915.148 305.548
L915.383 305.005
L915.693 303.619
L916.076 300.735
L916.534 295.434
L917.165 285.131
L917.611 279.18
L917.672 279.02
L917.722 279.115
L917.821 280.038
L917.982 284.222
L918.229 298.102
L918.625 319.012
L918.65 319.133
L918.675 319.075
L918.675 319.075
L918.761 317.586
L918.972 308.486
L919.467 288.52
L919.764 284.3
L919.986 283.512
L920.098 283.583
L920.271 284.101
L920.605 285.968
L921.31 291.476
L923.055 305.3
L923.451 306.897
L923.661 307.092
L923.785 306.915
L923.971 306.153
L924.218 303.995
L924.528 299.004
L924.924 288.468
L925.456 274.87
L925.48 274.82
L925.505 274.875
L925.505 274.875
L925.579 275.737
L925.728 281.043
L926.025 302.985
L926.322 317.699
L926.371 317.981
L926.421 317.694
L926.544 315.038
L927.547 287.725
L927.868 285.613
L928.104 285.171
L928.252 285.221
L928.45 285.586
L928.772 286.741
L929.242 289.383
L929.848 294.183
L930.615 302.243
L931.346 309.377
L931.519 309.842
L931.544 309.827
L931.643 309.508
L931.803 307.935
L932.026 302.972
L932.335 289.983
L932.793 271.635
L932.806 271.603
L932.818 271.613
L932.818 271.613
L932.88 272.309
L933.016 277.688
L933.721 315.932
L933.758 315.799
L933.882 314.18
L934.229 305.399
L934.773 293.639
L935.206 288.679
L935.59 286.548
L935.887 285.917
L936.085 285.893
L936.283 286.157
L936.555 286.976
L936.901 288.818
L937.31 292.33
L937.768 298.428
L938.72 313.525
L938.795 313.261
L938.918 311.365
L939.104 304.278
L939.5 277.035
L939.71 269.953
L939.723 269.968
L939.784 270.818
L939.933 277.457
L940.601 313.1
L940.725 313.806
L940.762 313.73
L940.873 312.9
L941.133 308.832
L942.111 292.575
L942.618 287.988
L943.026 286.003
L943.311 285.474
L943.472 285.51
L943.645 285.856
L943.88 286.93
L944.165 289.42
L944.487 294.401
L944.87 304.285
L945.39 317.486
L945.402 317.481
L945.464 316.97
L945.588 313.109
L945.798 297.616
L946.194 269.947
L946.231 269.722
L946.256 269.839
L946.256 269.839
L946.343 271.761
L946.565 283.628
L947.048 307.756
L947.308 311.875
L947.407 312.129
L947.444 312.083
L947.555 311.561
L947.79 309.127
L948.508 298.275
L949.238 289.11
L949.745 285.127
L950.055 284.043
L950.179 284.017
L950.191 284.03
L950.315 284.344
L950.5 285.568
L950.735 288.909
L951.008 296.408
L951.441 316.355
L951.626 321.178
L951.651 321.105
L951.725 319.503
L951.874 309.736
L952.393 270.397
L952.431 270.602
L952.542 273.303
L952.876 289.553
L953.309 306.043
L953.606 310.484
L953.779 311.029
L953.792 311.022
L953.891 310.778
L954.076 309.563
L954.423 305.54
L956.254 281.712
L956.353 281.581
L956.39 281.626
L956.502 282.146
L956.662 284.208
L956.873 290.279
L957.145 305.7
L957.491 324.283
L957.504 324.254
L957.566 322.866
L957.702 312.756
L958.197 271.723
L958.234 271.538
L958.271 271.701
L958.271 271.701
L958.382 273.829
L958.692 285.74
L959.236 304.162
L959.583 309.474
L959.805 310.47
L959.892 310.423
L960.028 309.919
L960.263 307.988
L960.647 302.666
L961.364 288.919
L961.971 278.868
L962.107 278.294
L962.144 278.374
L962.243 279.245
L962.391 282.945
L962.602 295.085
L963.023 326.62
L963.084 325.33
L963.221 314.217
L963.678 273.996
L963.777 272.882
L963.827 273.074
L963.951 275.074
L964.285 285.393
L964.94 304.103
L965.312 309.4
L965.547 310.49
L965.621 310.472
L965.646 310.428
L965.782 309.85
L966.005 307.72
L966.339 301.986
L966.834 289.054
L967.428 274.447
L967.477 274.269
L967.514 274.383
L967.514 274.383
L967.601 275.674
L967.749 282.299
L967.984 306.157
L968.244 328.057
L968.269 327.929
L968.343 324.733
L968.566 300.698
L968.875 277.067
L969.061 274.272
L969.11 274.439
L969.247 276.144
L969.568 283.904
L970.509 307.053
L970.855 310.871
L970.991 311.229
L971.028 311.199
L971.127 310.836
L971.301 309.154
L971.56 303.955
L971.919 291.487
L972.513 269.779
L972.538 269.829
L972.612 271.189
L972.748 279.572
L973.033 317.522
L973.194 328.585
L973.219 328.395
L973.305 324.122
L974.011 275.915
L974.097 275.573
L974.147 275.696
L974.283 276.93
L974.567 282.161
L976.04 312.821
L976.089 312.785
L976.102 312.751
L976.213 311.943
L976.386 308.674
L976.634 299.088
L977.252 265.257
L977.351 267.593
L977.488 280.492
L977.884 328.26
L977.933 327.279
L978.069 317.674
L978.564 281.501
L978.812 276.881
L978.898 276.619
L978.948 276.698
L979.071 277.494
L979.307 280.782
L979.715 290.08
L980.767 315.386
L980.816 315.222
L980.927 313.636
L981.101 307.098
L981.361 287.102
L981.719 261.225
L981.732 261.301
L981.794 263.443
L981.93 278.71
L982.326 327.347
L982.338 327.249
L982.425 324.11
L982.784 296.472
L983.118 281.286
L983.378 277.462
L983.476 277.238
L983.514 277.295
L983.625 277.874
L983.835 280.44
L984.157 287.571
L984.615 303.385
L985.11 318.704
L985.147 318.797
L985.172 318.695
L985.172 318.695
L985.258 317.146
L985.407 309.261
L985.667 279.678
L985.914 258.085
L985.939 258.31
L986.013 262.589
L986.199 291.614
L986.483 325.804
L986.52 326.27
L986.558 325.939
L986.558 325.939
L986.669 321.409
L987.473 280.048
L987.721 277.384
L987.783 277.294
L987.832 277.374
L987.956 278.144
L988.166 281.297
L988.451 289.442
L988.847 308.299
L989.218 322.784
L989.255 322.499
L989.342 319.437
L989.503 303.301
L989.874 255.905
L989.923 257.287
L990.047 271.673
L990.468 325.123
L990.492 325.337
L990.517 325.258
L990.517 325.258
L990.604 323.083
L990.864 308.001
L991.346 283.973
L991.656 277.56
L991.816 276.749
L991.841 276.775
L991.928 277.194
L992.089 279.397
L992.311 285.965
L992.608 302.348
L993.029 327.003
L993.054 326.766
L993.14 322.471
L993.301 299.017
L993.598 254.528
L993.623 254.733
L993.697 259.817
L993.945 300.514
L994.205 324.256
L994.254 324.752
L994.304 324.278
L994.44 319.418
L995.392 277.017
L995.578 275.616
L995.59 275.626
L995.665 275.993
L995.801 278.155
L995.999 285.539
L996.259 304.872
L996.593 331.206
L996.63 330.705
L996.716 323.781
L996.914 282.086
L997.125 253.592
L997.137 253.759
L997.211 258.795
L997.484 302.376
L997.744 323.984
L997.793 324.514
L997.843 324.167
L997.966 320.401
L998.35 298.6
L998.82 277.747
L999.068 273.934
L999.092 273.926
L999.105 273.952
L999.105 273.952
L999.179 274.558
L999.315 278.02
L999.513 290.232
L999.958 335.254
L1000.05 329.127
L1000.22 288.464
L1000.44 252.886
L1000.45 253.036
L1000.53 258.041
L1000.82 304.187
L1001.08 324.064
L1001.13 324.574
L1001.2 324.067
L1001.33 319.561
L1001.73 295.838
L1002.19 274.179
L1002.36 271.673
L1002.38 271.722
L1002.46 272.643
L1002.59 278.057
L1002.78 295.975
L1003.11 339.124
L1003.18 335.108
L1003.31 302.695
L1003.57 252.233
L1003.62 254.108
L1003.77 273.316
L1004.18 322.641
L1004.29 324.861
L1004.33 324.647
L1004.44 321.726
L1004.7 306.736
L1005.33 270.197
L1005.43 268.86
L1005.48 269.148
L1005.58 272.239
L1005.72 285.377
L1006.08 342.775
L1006.17 334.03
L1006.53 251.551
L1006.62 256.951
L1007.26 325.313
L1007.32 324.731
L1007.46 319.736
L1007.77 297.593
L1008.26 266.004
L1008.31 265.438
L1008.36 265.857
L1008.46 270.536
L1008.61 290.678
L1008.89 346.206
L1008.95 339.991
L1009.14 278.527
L1009.31 250.768
L1009.34 251.162
L1009.44 259.721
L1010.04 325.839
L1010.07 325.911
L1010.08 325.864
L1010.08 325.864
L1010.15 324.486
L1010.32 316.082
L1010.74 277.849
L1011.02 261.355
L1011.05 261.453
L1011.12 264.36
L1011.24 280.791
L1011.54 349.378
L1011.61 338.075
L1011.95 249.935
L1012.01 252.339
L1012.18 274.893
L1012.6 324.494
L1012.7 326.69
L1012.75 326.276
L1012.86 321.978
L1013.09 302.526
L1013.58 256.558
L1013.61 256.967
L1013.69 263.909
L1013.84 301.204
L1014.03 352.337
L1014.08 347.765
L1014.24 287.558
L1014.44 249.081
L1014.45 249.101
L1014.51 252.054
L1014.7 276.624
L1015.12 326.023
L1015.2 327.728
L1015.25 327.099
L1015.36 321.576
L1015.59 296.577
L1015.98 251.045
L1016.01 251.669
L1016.09 262.058
L1016.25 319.213
L1016.39 354.932
L1016.43 350.45
L1016.59 287.032
L1016.8 248.2
L1016.85 249.958
L1017 266.862
L1017.52 328.825
L1017.55 329.161
L1017.58 328.934
L1017.58 328.934
L1017.67 325.257
L1017.84 305.204
L1018.23 244.836
L1018.3 248.852
L1018.41 281.466
L1018.61 357.268
L1018.66 350.639
L1019.01 247.353
L1019.1 250.908
L1019.3 277.283
L1019.73 330.834
L1019.76 331.172
L1019.78 331.044
L1019.78 331.044
L1019.86 327.716
L1020 307.611
L1020.36 238.157
L1020.42 244.643
L1020.55 297.522
L1020.7 359.085
L1020.75 352.939
L1021.12 246.502
L1021.2 249.994
L1021.39 274.537
L1021.84 333.987
L1021.85 333.953
L1021.91 331.225
L1022.03 312.087
L1022.36 231.251
L1022.43 242.351
L1022.6 341.579
L1022.68 360.692
L1022.73 352.632
L1023.11 245.625
L1023.16 247.098
L1023.3 261.556
L1023.79 337.725
L1023.86 332.573
L1024 298.01
L1024.24 224.451
L1024.29 231.674
L1024.41 305.925
L1024.53 362.005
L1024.58 354.87
L1024.98 244.657
L1025.03 246.131
L1025.15 259.558
L1025.61 342.478
L1025.7 332.424
L1025.86 266.071
L1025.99 218.186
L1026.04 225.464
L1026.18 318.977
L1026.29 363.33
L1026.33 357.578
L1026.74 243.504
L1026.81 247.067
L1026.96 270.539
L1027.3 348.166
L1027.37 341.715
L1027.49 286.603
L1027.65 212.4
L1027.7 223.304
L1027.94 364.912
L1028.03 334.89
L1028.33 243.445
L1028.38 242.076
L1028.42 243.317
L1028.53 257.665
L1028.76 327.922
L1028.89 354.509
L1028.94 349.805
L1029.04 301.736
L1029.2 207.473
L1029.25 218.184
L1029.47 367.092
L1029.57 340.45
L1029.89 240.63
L1029.92 240.285
L1029.93 240.497
L1029.93 240.497
L1030 247.046
L1030.15 286.271
L1030.37 361.448
L1030.42 354.452
L1030.53 277.828
L1030.66 202.766
L1030.71 219.153
L1030.92 369.837
L1030.99 352.637
L1031.34 238.152
L1031.36 238.477
L1031.44 247.09
L1031.59 298.754
L1031.76 368.674
L1031.81 359.447
L1031.93 249.898
L1032.02 198.472
L1032.07 216.459
L1032.28 373.2
L1032.35 351.838
L1032.69 235.633
L1032.7 236.03
L1032.77 247.045
L1032.92 314.126
L1033.06 376.225
L1033.11 362.115
L1033.29 194.282
L1033.38 250.072
L1033.54 377.356
L1033.59 367.569
L1033.92 232.703
L1034 241.277
L1034.12 299.856
L1034.27 383.851
L1034.32 365.202
L1034.49 189.917
L1034.57 244.14
L1034.73 382.183
L1034.78 370.153
L1035.09 229.466
L1035.15 236.898
L1035.26 295.345
L1035.41 391.444
L1035.45 374.859
L1035.61 185.26
L1035.68 240.114
L1035.84 387.512
L1035.88 377.317
L1036.18 225.882
L1036.25 241.306
L1036.4 361.947
L1036.46 399.307
L1036.51 374.439
L1036.66 180.144
L1036.72 231.961
L1036.87 393.891
L1036.92 379.956
L1037.19 222.02
L1037.25 235.996
L1037.38 346.508
L1037.45 407.155
L1037.5 378.898
L1037.64 174.559
L1037.7 231.376
L1037.85 400.704
L1037.9 377.654
L1038.13 217.941
L1038.18 226.642
L1038.28 312.45
L1038.38 415.588
L1038.43 379.314
L1038.55 168.535
L1038.61 234.127
L1038.75 408.659
L1038.8 381.746
L1039.02 213.489
L1039.07 228.512
L1039.2 378.368
L1039.25 424.13
L1039.29 380.801
L1039.41 162.261
L1039.47 233.737
L1039.59 417.735
L1039.64 387.952
L1039.84 208.899
L1039.89 222.21
L1040 370.751
L1040.06 433.369
L1040.1 392.176
L1040.21 154.916
L1040.26 220.422
L1040.38 427.162
L1040.43 386.549
L1040.62 204.05
L1040.66 218.831
L1040.78 412.279
L1040.82 442.86
L1040.84 421.05
L1040.84 421.05
L1040.95 147.894
L1041.01 247.279
L1041.11 438.822
L1041.16 396.443
L1041.34 198.892
L1041.37 217.155
L1041.52 452.702
L1041.57 358.313
L1041.66 140.027
L1041.71 244.366
L1041.79 450.581
L1041.86 385.772
L1042 193.317
L1042.04 214.94
L1042.18 463.213
L1042.23 360.185
L1042.3 131.229
L1042.35 230.844
L1042.44 465.223
L1042.49 402.794
L1042.62 187.124
L1042.67 224.788
L1042.8 472.597
L1042.83 382.827
L1042.91 122.394
L1042.96 243.517
L1043.03 480.479
L1043.09 373.898
L1043.2 180.625
L1043.25 228.382
L1043.37 484.842
L1043.4 388.009
L1043.48 112.949
L1043.53 283.873
L1043.59 498.215
L1043.65 358.884
L1043.75 173.735
L1043.79 213.57
L1043.9 496.546
L1043.94 382.146
L1044 104.654
L1044.05 271.332
L1044.11 517.279
L1044.16 381.382
L1044.24 165.288
L1044.29 224.66
L1044.39 508.791
L1044.43 374.961
L1044.49 93.0705
L1044.54 338.334
L1044.59 537.289
L1044.59 537.289" style="fill:none;stroke:#bf00bf;stroke-linecap:square;stroke-width:2;"/>
   </g>
   <g id="patch_8">
    <path d="
M673.376 60.3
L1106.46 60.3" style="fill:none;stroke:#000000;stroke-linecap:square;stroke-linejoin:miter;"/>
   </g>
   <g id="patch_9">
    <path d="
M1106.46 542.7
L1106.46 60.3" style="fill:none;stroke:#000000;stroke-linecap:square;stroke-linejoin:miter;"/>
   </g>
   <g id="patch_10">
    <path d="
M673.376 542.7
L1106.46 542.7" style="fill:none;stroke:#000000;stroke-linecap:square;stroke-linejoin:miter;"/>
   </g>
   <g id="patch_11">
    <path d="
M673.376 542.7
L673.376 60.3" style="fill:none;stroke:#000000;stroke-linecap:square;stroke-linejoin:miter;"/>
   </g>
   <g id="matplotlib.axis_3">
    <g id="xtick_9">
     <g id="line2d_39">
      <g>
       <use style="stroke:#000000;stroke-width:0.5;" x="673.375909091" xlink:href="#m93b0483c22" y="542.7"/>
      </g>
     </g>
     <g id="line2d_40">
      <g>
       <use style="stroke:#000000;stroke-width:0.5;" x="673.375909091" xlink:href="#m741efc42ff" y="60.3"/>
      </g>
     </g>
     <g id="text_21">
      <!-- 0 -->
      <g transform="translate(670.352471591 555.818125)scale(0.12 -0.12)">
       <use xlink:href="#BitstreamVeraSans-Roman-30"/>
      </g>
     </g>
    </g>
    <g id="xtick_10">
     <g id="line2d_41">
      <g>
       <use style="stroke:#000000;stroke-width:0.5;" x="735.245064935" xlink:href="#m93b0483c22" y="542.7"/>
      </g>
     </g>
     <g id="line2d_42">
      <g>
       <use style="stroke:#000000;stroke-width:0.5;" x="735.245064935" xlink:href="#m741efc42ff" y="60.3"/>
      </g>
     </g>
     <g id="text_22">
      <!-- 5 -->
      <g transform="translate(732.414752435 555.818125)scale(0.12 -0.12)">
       <use xlink:href="#BitstreamVeraSans-Roman-35"/>
      </g>
     </g>
    </g>
    <g id="xtick_11">
     <g id="line2d_43">
      <g>
       <use style="stroke:#000000;stroke-width:0.5;" x="797.114220779" xlink:href="#m93b0483c22" y="542.7"/>
      </g>
     </g>
     <g id="line2d_44">
      <g>
       <use style="stroke:#000000;stroke-width:0.5;" x="797.114220779" xlink:href="#m741efc42ff" y="60.3"/>
      </g>
     </g>
     <g id="text_23">
      <!-- 10 -->
      <g transform="translate(790.536720779 555.818125)scale(0.12 -0.12)">
       <use xlink:href="#BitstreamVeraSans-Roman-31"/>
       <use x="63.623046875" xlink:href="#BitstreamVeraSans-Roman-30"/>
      </g>
     </g>
    </g>
    <g id="xtick_12">
     <g id="line2d_45">
      <g>
       <use style="stroke:#000000;stroke-width:0.5;" x="858.983376623" xlink:href="#m93b0483c22" y="542.7"/>
      </g>
     </g>
     <g id="line2d_46">
      <g>
       <use style="stroke:#000000;stroke-width:0.5;" x="858.983376623" xlink:href="#m741efc42ff" y="60.3"/>
      </g>
     </g>
     <g id="text_24">
      <!-- 15 -->
      <g transform="translate(852.531501623 555.818125)scale(0.12 -0.12)">
       <use xlink:href="#BitstreamVeraSans-Roman-31"/>
       <use x="63.623046875" xlink:href="#BitstreamVeraSans-Roman-35"/>
      </g>
     </g>
    </g>
    <g id="xtick_13">
     <g id="line2d_47">
      <g>
       <use style="stroke:#000000;stroke-width:0.5;" x="920.852532468" xlink:href="#m93b0483c22" y="542.7"/>
      </g>
     </g>
     <g id="line2d_48">
      <g>
       <use style="stroke:#000000;stroke-width:0.5;" x="920.852532468" xlink:href="#m741efc42ff" y="60.3"/>
      </g>
     </g>
     <g id="text_25">
      <!-- 20 -->
      <g transform="translate(914.055657468 555.818125)scale(0.12 -0.12)">
       <use xlink:href="#BitstreamVeraSans-Roman-32"/>
       <use x="63.623046875" xlink:href="#BitstreamVeraSans-Roman-30"/>
      </g>
     </g>
    </g>
    <g id="xtick_14">
     <g id="line2d_49">
      <g>
       <use style="stroke:#000000;stroke-width:0.5;" x="982.721688312" xlink:href="#m93b0483c22" y="542.7"/>
      </g>
     </g>
     <g id="line2d_50">
      <g>
       <use style="stroke:#000000;stroke-width:0.5;" x="982.721688312" xlink:href="#m741efc42ff" y="60.3"/>
      </g>
     </g>
     <g id="text_26">
      <!-- 25 -->
      <g transform="translate(976.050438312 555.818125)scale(0.12 -0.12)">
       <use xlink:href="#BitstreamVeraSans-Roman-32"/>
       <use x="63.623046875" xlink:href="#BitstreamVeraSans-Roman-35"/>
      </g>
     </g>
    </g>
    <g id="xtick_15">
     <g id="line2d_51">
      <g>
       <use style="stroke:#000000;stroke-width:0.5;" x="1044.59084416" xlink:href="#m93b0483c22" y="542.7"/>
      </g>
     </g>
     <g id="line2d_52">
      <g>
       <use style="stroke:#000000;stroke-width:0.5;" x="1044.59084416" xlink:href="#m741efc42ff" y="60.3"/>
      </g>
     </g>
     <g id="text_27">
      <!-- 30 -->
      <g transform="translate(1037.81178166 555.818125)scale(0.12 -0.12)">
       <use xlink:href="#BitstreamVeraSans-Roman-33"/>
       <use x="63.623046875" xlink:href="#BitstreamVeraSans-Roman-30"/>
      </g>
     </g>
    </g>
    <g id="xtick_16">
     <g id="line2d_53">
      <g>
       <use style="stroke:#000000;stroke-width:0.5;" x="1106.46" xlink:href="#m93b0483c22" y="542.7"/>
      </g>
     </g>
     <g id="line2d_54">
      <g>
       <use style="stroke:#000000;stroke-width:0.5;" x="1106.46" xlink:href="#m741efc42ff" y="60.3"/>
      </g>
     </g>
     <g id="text_28">
      <!-- 35 -->
      <g transform="translate(1099.8065625 555.818125)scale(0.12 -0.12)">
       <use xlink:href="#BitstreamVeraSans-Roman-33"/>
       <use x="63.623046875" xlink:href="#BitstreamVeraSans-Roman-35"/>
      </g>
     </g>
    </g>
    <g id="text_29">
     <!-- time($s$) -->
     <g transform="translate(868.857954545 572.431875)scale(0.12 -0.12)">
      <use transform="translate(0.0 0.015625)" xlink:href="#BitstreamVeraSans-Roman-74"/>
      <use transform="translate(39.208984375 0.015625)" xlink:href="#BitstreamVeraSans-Roman-69"/>
      <use transform="translate(66.9921875 0.015625)" xlink:href="#BitstreamVeraSans-Roman-6d"/>
      <use transform="translate(164.404296875 0.015625)" xlink:href="#BitstreamVeraSans-Roman-65"/>
      <use transform="translate(225.927734375 0.015625)" xlink:href="#BitstreamVeraSans-Roman-28"/>
      <use transform="translate(264.94140625 0.015625)" xlink:href="#Cmmi10-73"/>
      <use transform="translate(311.71875 0.015625)" xlink:href="#BitstreamVeraSans-Roman-29"/>
     </g>
    </g>
   </g>
   <g id="matplotlib.axis_4">
    <g id="ytick_10">
     <g id="line2d_55">
      <g>
       <use style="stroke:#000000;stroke-width:0.5;" x="673.375909091" xlink:href="#m728421d6d4" y="542.7"/>
      </g>
     </g>
     <g id="line2d_56">
      <g>
       <use style="stroke:#000000;stroke-width:0.5;" x="1106.46" xlink:href="#mcb0005524f" y="542.7"/>
      </g>
     </g>
     <g id="text_30">
      <!-- −30 -->
      <g transform="translate(646.118409091 546.01125)scale(0.12 -0.12)">
       <use xlink:href="#BitstreamVeraSans-Roman-2212"/>
       <use x="83.7890625" xlink:href="#BitstreamVeraSans-Roman-33"/>
       <use x="147.412109375" xlink:href="#BitstreamVeraSans-Roman-30"/>
      </g>
     </g>
    </g>
    <g id="ytick_11">
     <g id="line2d_57">
      <g>
       <use style="stroke:#000000;stroke-width:0.5;" x="673.375909091" xlink:href="#m728421d6d4" y="462.3"/>
      </g>
     </g>
     <g id="line2d_58">
      <g>
       <use style="stroke:#000000;stroke-width:0.5;" x="1106.46" xlink:href="#mcb0005524f" y="462.3"/>
      </g>
     </g>
     <g id="text_31">
      <!-- −20 -->
      <g transform="translate(646.118409091 465.61125)scale(0.12 -0.12)">
       <use xlink:href="#BitstreamVeraSans-Roman-2212"/>
       <use x="83.7890625" xlink:href="#BitstreamVeraSans-Roman-32"/>
       <use x="147.412109375" xlink:href="#BitstreamVeraSans-Roman-30"/>
      </g>
     </g>
    </g>
    <g id="ytick_12">
     <g id="line2d_59">
      <g>
       <use style="stroke:#000000;stroke-width:0.5;" x="673.375909091" xlink:href="#m728421d6d4" y="381.9"/>
      </g>
     </g>
     <g id="line2d_60">
      <g>
       <use style="stroke:#000000;stroke-width:0.5;" x="1106.46" xlink:href="#mcb0005524f" y="381.9"/>
      </g>
     </g>
     <g id="text_32">
      <!-- −10 -->
      <g transform="translate(646.118409091 385.21125)scale(0.12 -0.12)">
       <use xlink:href="#BitstreamVeraSans-Roman-2212"/>
       <use x="83.7890625" xlink:href="#BitstreamVeraSans-Roman-31"/>
       <use x="147.412109375" xlink:href="#BitstreamVeraSans-Roman-30"/>
      </g>
     </g>
    </g>
    <g id="ytick_13">
     <g id="line2d_61">
      <g>
       <use style="stroke:#000000;stroke-width:0.5;" x="673.375909091" xlink:href="#m728421d6d4" y="301.5"/>
      </g>
     </g>
     <g id="line2d_62">
      <g>
       <use style="stroke:#000000;stroke-width:0.5;" x="1106.46" xlink:href="#mcb0005524f" y="301.5"/>
      </g>
     </g>
     <g id="text_33">
      <!-- 0 -->
      <g transform="translate(663.329034091 304.81125)scale(0.12 -0.12)">
       <use xlink:href="#BitstreamVeraSans-Roman-30"/>
      </g>
     </g>
    </g>
    <g id="ytick_14">
     <g id="line2d_63">
      <g>
       <use style="stroke:#000000;stroke-width:0.5;" x="673.375909091" xlink:href="#m728421d6d4" y="221.1"/>
      </g>
     </g>
     <g id="line2d_64">
      <g>
       <use style="stroke:#000000;stroke-width:0.5;" x="1106.46" xlink:href="#mcb0005524f" y="221.1"/>
      </g>
     </g>
     <g id="text_34">
      <!-- 10 -->
      <g transform="translate(656.220909091 224.41125)scale(0.12 -0.12)">
       <use xlink:href="#BitstreamVeraSans-Roman-31"/>
       <use x="63.623046875" xlink:href="#BitstreamVeraSans-Roman-30"/>
      </g>
     </g>
    </g>
    <g id="ytick_15">
     <g id="line2d_65">
      <g>
       <use style="stroke:#000000;stroke-width:0.5;" x="673.375909091" xlink:href="#m728421d6d4" y="140.7"/>
      </g>
     </g>
     <g id="line2d_66">
      <g>
       <use style="stroke:#000000;stroke-width:0.5;" x="1106.46" xlink:href="#mcb0005524f" y="140.7"/>
      </g>
     </g>
     <g id="text_35">
      <!-- 20 -->
      <g transform="translate(655.782159091 144.01125)scale(0.12 -0.12)">
       <use xlink:href="#BitstreamVeraSans-Roman-32"/>
       <use x="63.623046875" xlink:href="#BitstreamVeraSans-Roman-30"/>
      </g>
     </g>
    </g>
    <g id="ytick_16">
     <g id="line2d_67">
      <g>
       <use style="stroke:#000000;stroke-width:0.5;" x="673.375909091" xlink:href="#m728421d6d4" y="60.3"/>
      </g>
     </g>
     <g id="line2d_68">
      <g>
       <use style="stroke:#000000;stroke-width:0.5;" x="1106.46" xlink:href="#mcb0005524f" y="60.3"/>
      </g>
     </g>
     <g id="text_36">
      <!-- 30 -->
      <g transform="translate(655.817784091 63.61125)scale(0.12 -0.12)">
       <use xlink:href="#BitstreamVeraSans-Roman-33"/>
       <use x="63.623046875" xlink:href="#BitstreamVeraSans-Roman-30"/>
      </g>
     </g>
    </g>
    <g id="text_37">
     <!-- $\omega$($Rad/s$) -->
     <defs>
      <path d="
M5.60938 -23
Q5.60938 -22.7031 5.71875 -22.6094
L40.4844 73.7812
Q40.6719 74.3594 41.1562 74.6719
Q41.6562 75 42.2812 75
Q43.1719 75 43.7188 74.4531
Q44.2812 73.9219 44.2812 73
L44.2812 72.6094
L9.51562 -23.7812
Q8.9375 -25 7.625 -25
Q6.78125 -25 6.1875 -24.4062
Q5.60938 -23.8281 5.60938 -23" id="Cmmi10-3d"/>
      <path d="
M12.1094 -1.125
Q6.45312 -1.125 3.9375 3.01562
Q1.42188 7.17188 1.42188 13.1875
Q1.42188 17.1406 2.125 20.9219
Q2.82812 24.7031 4.26562 28.5781
Q5.71875 32.4688 7.5625 35.8594
Q9.42188 39.2656 11.7188 42.4844
Q12.1562 43.1094 12.8906 43.1094
Q13.5312 43.1094 13.9219 42.7188
Q14.3125 42.3281 14.3125 41.7969
Q14.3125 41.2656 14.0156 40.8281
Q4.89062 28.2656 4.89062 17.6719
Q4.89062 13.0938 7 9.79688
Q9.125 6.5 13.4844 6.5
Q17.2344 6.5 20.4375 8.6875
Q23.6406 10.8906 25.9844 14.3125
Q25.9844 16.0625 26.5938 19.7656
Q27.2031 23.4844 28.4844 26.3906
Q29.7812 29.2969 31.5938 29.2969
Q33.8906 29.2969 33.8906 26.6094
Q33.8906 25.0469 33.2188 22.6719
Q32.5625 20.3125 31.75 18.2656
Q30.9531 16.2188 29.7812 13.625
Q30.9531 6.5 36.9219 6.5
Q40.375 6.5 43.8594 8.5
Q47.3594 10.5 50.0469 13.75
Q52.7344 17 54.2656 20.75
Q55.8125 24.5156 55.8125 27.875
Q55.8125 30.9062 54.8594 32.5938
Q53.9062 34.2812 52.3438 36.125
Q50.7812 37.9844 50.7812 39.1094
Q50.7812 41.0625 52.4375 42.6719
Q54.1094 44.2812 56 44.2812
Q58.4531 44.2812 59.4688 42.0625
Q60.5 39.8438 60.5 37.0156
Q60.5 32.4219 58.6719 25.4375
Q56.8438 18.4531 54.5 13.8125
Q51.2656 7.51562 46.4062 3.1875
Q41.5469 -1.125 35.5 -1.125
Q31.6406 -1.125 29.2656 1.1875
Q26.9062 3.51562 26.2188 7.51562
Q23.4375 3.5625 19.875 1.21875
Q16.3125 -1.125 12.1094 -1.125" id="Cmmi10-21"/>
     </defs>
     <g transform="translate(638.118409091 326.58)rotate(-90.0)scale(0.12 -0.12)">
      <use transform="translate(0.0 0.125)" xlink:href="#Cmmi10-21"/>
      <use transform="translate(62.20703125 0.125)" xlink:href="#BitstreamVeraSans-Roman-28"/>
      <use transform="translate(101.220703125 0.125)" xlink:href="#Cmmi10-52"/>
      <use transform="translate(177.099609375 0.125)" xlink:href="#Cmmi10-61"/>
      <use transform="translate(229.8828125 0.125)" xlink:href="#Cmmi10-64"/>
      <use transform="translate(281.884765625 0.125)" xlink:href="#Cmmi10-3d"/>
      <use transform="translate(331.884765625 0.125)" xlink:href="#Cmmi10-73"/>
      <use transform="translate(378.662109375 0.125)" xlink:href="#BitstreamVeraSans-Roman-29"/>
     </g>
    </g>
   </g>
   <g id="legend_2">
    <g id="line2d_69">
     <path d="
M1058.98 73.3932
L1072.97 73.3932" style="fill:none;stroke:#bf00bf;stroke-linecap:square;stroke-width:2;"/>
    </g>
    <g id="line2d_70"/>
    <g id="text_38">
     <!-- $\omega$-$t$ -->
     <g transform="translate(1083.969 76.891798125)scale(0.09996 -0.09996)">
      <use transform="translate(0.0 0.40625)" xlink:href="#Cmmi10-21"/>
      <use transform="translate(62.20703125 0.40625)" xlink:href="#BitstreamVeraSans-Roman-2d"/>
      <use transform="translate(98.291015625 0.40625)" xlink:href="#Cmmi10-74"/>
     </g>
    </g>
   </g>
  </g>
  <g id="text_39">
   <!-- elleptical orbit, $m1/M=$0.9 -->
   <defs>
    <path id="BitstreamVeraSans-Roman-20"/>
    <path d="
M9.28125 0
L9.28125 3.51562
Q21.7812 3.51562 21.7812 6.6875
L21.7812 59.1875
Q16.6094 56.6875 8.6875 56.6875
L8.6875 60.2031
Q20.9531 60.2031 27.2031 66.6094
L28.6094 66.6094
Q28.9531 66.6094 29.2656 66.3281
Q29.5938 66.0625 29.5938 65.7188
L29.5938 6.6875
Q29.5938 3.51562 42.0938 3.51562
L42.0938 0
z
" id="Cmr10-31"/>
    <path d="
M5.07812 0
Q4.10938 0 4.10938 1.3125
Q4.15625 1.5625 4.29688 2.14062
Q4.4375 2.73438 4.6875 3.125
Q4.9375 3.51562 5.42188 3.51562
Q14.9375 3.51562 16.5 9.625
L29.5 61.8125
Q29.6875 62.7969 29.6875 63.1875
Q29.6875 64.2656 28.5156 64.4062
Q26.6094 64.7969 21.2969 64.7969
Q20.3125 64.7969 20.3125 66.1094
Q20.3594 66.3594 20.5 66.9688
Q20.6562 67.5781 20.9219 67.9375
Q21.1875 68.3125 21.5781 68.3125
L39.2031 68.3125
Q40.3281 68.3125 40.4844 67.1875
L48.2969 9.90625
L84.7188 67.1875
Q85.4062 68.3125 86.625 68.3125
L103.609 68.3125
Q104.594 68.3125 104.594 67
Q104.547 66.75 104.391 66.1406
Q104.25 65.5312 103.984 65.1562
Q103.719 64.7969 103.328 64.7969
Q97.2188 64.7969 94.8281 64.1094
Q93.5 63.6719 92.9219 61.375
L79.2031 6.5
Q79 5.51562 79 5.07812
Q79 4.6875 79.125 4.42188
Q79.25 4.15625 79.4688 4.07812
Q79.6875 4 80.1719 3.90625
Q82.0781 3.51562 87.4062 3.51562
Q88.375 3.51562 88.375 2.20312
Q88.0312 0.78125 87.8281 0.390625
Q87.6406 0 86.7188 0
L60.5938 0
Q59.625 0 59.625 1.3125
Q59.6719 1.5625 59.8125 2.17188
Q59.9688 2.78125 60.2344 3.14062
Q60.5 3.51562 60.8906 3.51562
Q67 3.51562 69.3906 4.20312
Q70.7031 4.64062 71.2969 6.89062
L85.6875 64.7969
L45.3125 1.125
Q44.7344 0 43.3125 0
Q42.0469 0 41.8906 1.125
L33.4062 64.0156
L19.6719 9.1875
Q19.5781 8.9375 19.5312 8.5625
Q19.4844 8.20312 19.3906 7.71875
Q19.3906 5.125 21.6562 4.3125
Q23.9219 3.51562 27.2031 3.51562
Q28.2188 3.51562 28.2188 2.20312
Q27.875 0.875 27.6562 0.4375
Q27.4375 0 26.5156 0
z
" id="Cmmi10-4d"/>
    <path d="
M7.71875 1.70312
Q7.71875 2.29688 7.8125 2.59375
L15.2812 32.4219
Q16.0156 35.2031 16.0156 37.3125
Q16.0156 41.6094 13.0938 41.6094
Q9.96875 41.6094 8.45312 37.8594
Q6.9375 34.125 5.51562 28.4219
Q5.51562 28.125 5.21875 27.9531
Q4.9375 27.7812 4.6875 27.7812
L3.51562 27.7812
Q3.17188 27.7812 2.92188 28.1406
Q2.6875 28.5156 2.6875 28.8125
Q3.76562 33.1562 4.76562 36.1719
Q5.76562 39.2031 7.89062 41.6875
Q10.0156 44.1875 13.1875 44.1875
Q16.9375 44.1875 19.8125 41.8125
Q22.7031 39.4531 22.7031 35.7969
Q25.6875 39.7031 29.6875 41.9375
Q33.6875 44.1875 38.1875 44.1875
Q42.9219 44.1875 46.3594 41.7656
Q49.8125 39.3594 49.8125 34.9062
Q52.875 39.2656 57 41.7188
Q61.1406 44.1875 66.0156 44.1875
Q71.1875 44.1875 74.3281 41.375
Q77.4844 38.5781 77.4844 33.4062
Q77.4844 29.2969 75.6562 23.4844
Q73.8281 17.6719 71.0938 10.5
Q69.6719 7.03125 69.6719 4.5
Q69.6719 1.51562 72.0156 1.51562
Q75.9219 1.51562 78.5156 5.70312
Q81.1094 9.90625 82.1719 14.7031
Q82.4688 15.2812 83.0156 15.2812
L84.1875 15.2812
Q84.5781 15.2812 84.8438 15.0156
Q85.1094 14.75 85.1094 14.4062
Q85.1094 14.3125 85.0156 14.1094
Q83.6406 8.45312 80.25 3.65625
Q76.8594 -1.125 71.7812 -1.125
Q68.2656 -1.125 65.7656 1.29688
Q63.2812 3.71875 63.2812 7.17188
Q63.2812 8.9375 64.1094 11.0781
Q66.9375 18.6094 68.8125 24.5156
Q70.7031 30.4219 70.7031 34.9062
Q70.7031 37.7031 69.5781 39.6562
Q68.4531 41.6094 65.8281 41.6094
Q60.3594 41.6094 56.3438 38.25
Q52.3438 34.9062 49.4219 29.3906
Q49.2188 28.4219 49.125 27.875
L42.6719 2.20312
Q42.3281 0.828125 41.125 -0.140625
Q39.9375 -1.125 38.4844 -1.125
Q37.3125 -1.125 36.4062 -0.34375
Q35.5 0.4375 35.5 1.70312
Q35.5 2.29688 35.5938 2.59375
L42 28.0781
Q43.0156 32.1719 43.0156 34.9062
Q43.0156 37.7031 41.8594 39.6562
Q40.7188 41.6094 37.9844 41.6094
Q34.3281 41.6094 31.25 39.9844
Q28.1719 38.375 25.875 35.7188
Q23.5781 33.0625 21.6875 29.3906
L14.8906 2.20312
Q14.5469 0.828125 13.3438 -0.140625
Q12.1562 -1.125 10.6875 -1.125
Q9.46875 -1.125 8.59375 -0.34375
Q7.71875 0.4375 7.71875 1.70312" id="Cmmi10-6d"/>
    <path d="
M41.1094 46.2969
Q39.5938 47.1719 37.8125 47.5781
Q36.0312 48 33.8906 48
Q26.2656 48 22.1875 43.0469
Q18.1094 38.0938 18.1094 28.8125
L18.1094 0
L9.07812 0
L9.07812 54.6875
L18.1094 54.6875
L18.1094 46.1875
Q20.9531 51.1719 25.4844 53.5781
Q30.0312 56 36.5312 56
Q37.4531 56 38.5781 55.875
Q39.7031 55.7656 41.0625 55.5156
z
" id="BitstreamVeraSans-Roman-72"/>
    <path d="
M30.6094 48.3906
Q23.3906 48.3906 19.1875 42.75
Q14.9844 37.1094 14.9844 27.2969
Q14.9844 17.4844 19.1562 11.8438
Q23.3438 6.20312 30.6094 6.20312
Q37.7969 6.20312 41.9844 11.8594
Q46.1875 17.5312 46.1875 27.2969
Q46.1875 37.0156 41.9844 42.7031
Q37.7969 48.3906 30.6094 48.3906
M30.6094 56
Q42.3281 56 49.0156 48.375
Q55.7188 40.7656 55.7188 27.2969
Q55.7188 13.875 49.0156 6.21875
Q42.3281 -1.42188 30.6094 -1.42188
Q18.8438 -1.42188 12.1719 6.21875
Q5.51562 13.875 5.51562 27.2969
Q5.51562 40.7656 12.1719 48.375
Q18.8438 56 30.6094 56" id="BitstreamVeraSans-Roman-6f"/>
    <path d="
M9.42188 75.9844
L18.4062 75.9844
L18.4062 0
L9.42188 0
z
" id="BitstreamVeraSans-Roman-6c"/>
    <path d="
M11.7188 12.4062
L22.0156 12.4062
L22.0156 4
L14.0156 -11.625
L7.71875 -11.625
L11.7188 4
z
" id="BitstreamVeraSans-Roman-2c"/>
    <path d="
M10.6875 12.4062
L21 12.4062
L21 0
L10.6875 0
z
" id="BitstreamVeraSans-Roman-2e"/>
    <path d="
M18.1094 8.20312
L18.1094 -20.7969
L9.07812 -20.7969
L9.07812 54.6875
L18.1094 54.6875
L18.1094 46.3906
Q20.9531 51.2656 25.2656 53.625
Q29.5938 56 35.5938 56
Q45.5625 56 51.7812 48.0938
Q58.0156 40.1875 58.0156 27.2969
Q58.0156 14.4062 51.7812 6.48438
Q45.5625 -1.42188 35.5938 -1.42188
Q29.5938 -1.42188 25.2656 0.953125
Q20.9531 3.32812 18.1094 8.20312
M48.6875 27.2969
Q48.6875 37.2031 44.6094 42.8438
Q40.5312 48.4844 33.4062 48.4844
Q26.2656 48.4844 22.1875 42.8438
Q18.1094 37.2031 18.1094 27.2969
Q18.1094 17.3906 22.1875 11.75
Q26.2656 6.10938 33.4062 6.10938
Q40.5312 6.10938 44.6094 11.75
Q48.6875 17.3906 48.6875 27.2969" id="BitstreamVeraSans-Roman-70"/>
    <path d="
M10.9844 1.51562
L10.9844 10.5
Q14.7031 8.73438 18.5 7.8125
Q22.3125 6.89062 25.9844 6.89062
Q35.75 6.89062 40.8906 13.4531
Q46.0469 20.0156 46.7812 33.4062
Q43.9531 29.2031 39.5938 26.9531
Q35.25 24.7031 29.9844 24.7031
Q19.0469 24.7031 12.6719 31.3125
Q6.29688 37.9375 6.29688 49.4219
Q6.29688 60.6406 12.9375 67.4219
Q19.5781 74.2188 30.6094 74.2188
Q43.2656 74.2188 49.9219 64.5156
Q56.5938 54.8281 56.5938 36.375
Q56.5938 19.1406 48.4062 8.85938
Q40.2344 -1.42188 26.4219 -1.42188
Q22.7031 -1.42188 18.8906 -0.6875
Q15.0938 0.046875 10.9844 1.51562
M30.6094 32.4219
Q37.25 32.4219 41.125 36.9531
Q45.0156 41.5 45.0156 49.4219
Q45.0156 57.2812 41.125 61.8438
Q37.25 66.4062 30.6094 66.4062
Q23.9688 66.4062 20.0938 61.8438
Q16.2188 57.2812 16.2188 49.4219
Q16.2188 41.5 20.0938 36.9531
Q23.9688 32.4219 30.6094 32.4219" id="BitstreamVeraSans-Roman-39"/>
    <path d="
M7.51562 13.2812
Q6.6875 13.2812 6.14062 13.9062
Q5.60938 14.5469 5.60938 15.2812
Q5.60938 16.1094 6.14062 16.6875
Q6.6875 17.2812 7.51562 17.2812
L70.3125 17.2812
Q71.0469 17.2812 71.5781 16.6875
Q72.125 16.1094 72.125 15.2812
Q72.125 14.5469 71.5781 13.9062
Q71.0469 13.2812 70.3125 13.2812
z

M7.51562 32.7188
Q6.6875 32.7188 6.14062 33.2969
Q5.60938 33.8906 5.60938 34.7188
Q5.60938 35.4531 6.14062 36.0781
Q6.6875 36.7188 7.51562 36.7188
L70.3125 36.7188
Q71.0469 36.7188 71.5781 36.0781
Q72.125 35.4531 72.125 34.7188
Q72.125 33.8906 71.5781 33.2969
Q71.0469 32.7188 70.3125 32.7188
z
" id="Cmr10-3d"/>
    <path d="
M34.2812 27.4844
Q23.3906 27.4844 19.1875 25
Q14.9844 22.5156 14.9844 16.5
Q14.9844 11.7188 18.1406 8.90625
Q21.2969 6.10938 26.7031 6.10938
Q34.1875 6.10938 38.7031 11.4062
Q43.2188 16.7031 43.2188 25.4844
L43.2188 27.4844
z

M52.2031 31.2031
L52.2031 0
L43.2188 0
L43.2188 8.29688
Q40.1406 3.32812 35.5469 0.953125
Q30.9531 -1.42188 24.3125 -1.42188
Q15.9219 -1.42188 10.9531 3.29688
Q6 8.01562 6 15.9219
Q6 25.1406 12.1719 29.8281
Q18.3594 34.5156 30.6094 34.5156
L43.2188 34.5156
L43.2188 35.4062
Q43.2188 41.6094 39.1406 45
Q35.0625 48.3906 27.6875 48.3906
Q23 48.3906 18.5469 47.2656
Q14.1094 46.1406 10.0156 43.8906
L10.0156 52.2031
Q14.9375 54.1094 19.5781 55.0469
Q24.2188 56 28.6094 56
Q40.4844 56 46.3438 49.8438
Q52.2031 43.7031 52.2031 31.2031" id="BitstreamVeraSans-Roman-61"/>
    <path d="
M48.7812 52.5938
L48.7812 44.1875
Q44.9688 46.2969 41.1406 47.3438
Q37.3125 48.3906 33.4062 48.3906
Q24.6562 48.3906 19.8125 42.8438
Q14.9844 37.3125 14.9844 27.2969
Q14.9844 17.2812 19.8125 11.7344
Q24.6562 6.20312 33.4062 6.20312
Q37.3125 6.20312 41.1406 7.25
Q44.9688 8.29688 48.7812 10.4062
L48.7812 2.09375
Q45.0156 0.34375 40.9844 -0.53125
Q36.9688 -1.42188 32.4219 -1.42188
Q20.0625 -1.42188 12.7812 6.34375
Q5.51562 14.1094 5.51562 27.2969
Q5.51562 40.6719 12.8594 48.3281
Q20.2188 56 33.0156 56
Q37.1562 56 41.1094 55.1406
Q45.0625 54.2969 48.7812 52.5938" id="BitstreamVeraSans-Roman-63"/>
    <path d="
M48.6875 27.2969
Q48.6875 37.2031 44.6094 42.8438
Q40.5312 48.4844 33.4062 48.4844
Q26.2656 48.4844 22.1875 42.8438
Q18.1094 37.2031 18.1094 27.2969
Q18.1094 17.3906 22.1875 11.75
Q26.2656 6.10938 33.4062 6.10938
Q40.5312 6.10938 44.6094 11.75
Q48.6875 17.3906 48.6875 27.2969
M18.1094 46.3906
Q20.9531 51.2656 25.2656 53.625
Q29.5938 56 35.5938 56
Q45.5625 56 51.7812 48.0938
Q58.0156 40.1875 58.0156 27.2969
Q58.0156 14.4062 51.7812 6.48438
Q45.5625 -1.42188 35.5938 -1.42188
Q29.5938 -1.42188 25.2656 0.953125
Q20.9531 3.32812 18.1094 8.20312
L18.1094 0
L9.07812 0
L9.07812 75.9844
L18.1094 75.9844
z
" id="BitstreamVeraSans-Roman-62"/>
   </defs>
   <g transform="translate(535.08 21.18)scale(0.12 -0.12)">
    <use transform="translate(0.0 0.015625)" xlink:href="#BitstreamVeraSans-Roman-65"/>
    <use transform="translate(61.5234375 0.015625)" xlink:href="#BitstreamVeraSans-Roman-6c"/>
    <use transform="translate(89.306640625 0.015625)" xlink:href="#BitstreamVeraSans-Roman-6c"/>
    <use transform="translate(117.08984375 0.015625)" xlink:href="#BitstreamVeraSans-Roman-65"/>
    <use transform="translate(178.61328125 0.015625)" xlink:href="#BitstreamVeraSans-Roman-70"/>
    <use transform="translate(242.08984375 0.015625)" xlink:href="#BitstreamVeraSans-Roman-74"/>
    <use transform="translate(281.298828125 0.015625)" xlink:href="#BitstreamVeraSans-Roman-69"/>
    <use transform="translate(309.08203125 0.015625)" xlink:href="#BitstreamVeraSans-Roman-63"/>
    <use transform="translate(364.0625 0.015625)" xlink:href="#BitstreamVeraSans-Roman-61"/>
    <use transform="translate(425.341796875 0.015625)" xlink:href="#BitstreamVeraSans-Roman-6c"/>
    <use transform="translate(453.125 0.015625)" xlink:href="#BitstreamVeraSans-Roman-20"/>
    <use transform="translate(484.912109375 0.015625)" xlink:href="#BitstreamVeraSans-Roman-6f"/>
    <use transform="translate(546.09375 0.015625)" xlink:href="#BitstreamVeraSans-Roman-72"/>
    <use transform="translate(587.20703125 0.015625)" xlink:href="#BitstreamVeraSans-Roman-62"/>
    <use transform="translate(650.68359375 0.015625)" xlink:href="#BitstreamVeraSans-Roman-69"/>
    <use transform="translate(678.466796875 0.015625)" xlink:href="#BitstreamVeraSans-Roman-74"/>
    <use transform="translate(717.67578125 0.015625)" xlink:href="#BitstreamVeraSans-Roman-2c"/>
    <use transform="translate(749.462890625 0.015625)" xlink:href="#BitstreamVeraSans-Roman-20"/>
    <use transform="translate(781.25 0.015625)" xlink:href="#Cmmi10-6d"/>
    <use transform="translate(869.04296875 0.015625)" xlink:href="#Cmr10-31"/>
    <use transform="translate(919.04296875 0.015625)" xlink:href="#Cmmi10-3d"/>
    <use transform="translate(969.04296875 0.015625)" xlink:href="#Cmmi10-4d"/>
    <use transform="translate(1083.62304688 0.015625)" xlink:href="#Cmr10-3d"/>
    <use transform="translate(1167.68164062 0.015625)" xlink:href="#BitstreamVeraSans-Roman-30"/>
    <use transform="translate(1231.3046875 0.015625)" xlink:href="#BitstreamVeraSans-Roman-2e"/>
    <use transform="translate(1263.09179688 0.015625)" xlink:href="#BitstreamVeraSans-Roman-39"/>
   </g>
  </g>
 </g>
 <defs>
  <clipPath id="paa341766a5">
   <rect height="482.4" width="433.084090909" x="153.675" y="60.3"/>
  </clipPath>
  <clipPath id="p9b96c9b755">
   <rect height="482.4" width="433.084090909" x="673.375909091" y="60.3"/>
  </clipPath>
 </defs>
</svg>
