<?xml version="1.0" encoding="utf-8" standalone="no"?>
<!DOCTYPE svg PUBLIC "-//W3C//DTD SVG 1.1//EN"
  "http://www.w3.org/Graphics/SVG/1.1/DTD/svg11.dtd">
<!-- Created with matplotlib (http://matplotlib.org/) -->
<svg height="603pt" version="1.1" viewBox="0 0 1229 603" width="1229pt" xmlns="http://www.w3.org/2000/svg" xmlns:xlink="http://www.w3.org/1999/xlink">
 <defs>
  <style type="text/css">
*{stroke-linecap:butt;stroke-linejoin:round;}
  </style>
 </defs>
 <g id="figure_1">
  <g id="patch_1">
   <path d="
M0 603
L1229.4 603
L1229.4 0
L0 0
z
" style="fill:#ffffff;"/>
  </g>
  <g id="axes_1">
   <g id="patch_2">
    <path d="
M153.675 542.7
L586.759 542.7
L586.759 60.3
L153.675 60.3
z
" style="fill:#ffffff;"/>
   </g>
   <g id="line2d_1">
    <path clip-path="url(#paa341766a5)" d="
M153.675 301.5
L154.554 300.95
L155.073 300.333
L155.581 299.362
L156.113 297.835
L156.707 295.397
L157.362 291.687
L158.092 286.191
L158.909 278.267
L159.837 266.99
L160.926 250.882
L162.312 226.796
L166.259 156.066
L167.398 140.662
L168.375 130.272
L169.229 123.403
L169.984 118.985
L170.664 116.22
L171.283 114.573
L171.852 113.643
L172.434 113.1
L173.362 112.601
L174.018 112.12
L174.067 112.069
L174.079 490.932
L174.178 490.821
L174.686 490.052
L175.205 488.827
L175.762 486.91
L176.381 483.925
L177.074 479.401
L177.853 472.722
L178.732 463.137
L179.734 449.618
L180.947 430.027
L182.754 396.675
L185.03 355.519
L186.28 336.909
L187.319 324.549
L188.223 316.277
L189.027 310.824
L189.745 307.384
L190.388 305.314
L190.97 304.128
L191.539 303.443
L192.195 303.009
L193.333 302.308
L193.853 301.66
L194.36 300.647
L194.905 299.022
L195.499 296.496
L196.154 292.678
L196.897 286.948
L197.726 278.713
L198.679 266.875
L199.792 250.066
L201.24 224.52
L204.779 160.667
L205.954 144.179
L206.957 133.074
L207.835 125.673
L208.615 120.882
L209.308 117.916
L209.926 116.164
L210.508 115.142
L211.09 114.557
L211.882 114.114
L212.661 113.607
L213.181 112.982
L213.651 112.086
L213.663 490.934
L213.762 490.694
L214.307 489.027
L214.901 486.449
L215.569 482.482
L216.311 476.648
L217.153 468.157
L218.106 456.157
L219.232 438.979
L220.716 412.575
L224.045 352.347
L225.233 335.406
L226.248 323.936
L227.126 316.353
L227.906 311.408
L228.599 308.319
L229.23 306.445
L229.811 305.367
L230.38 304.754
L231.098 304.327
L232.014 303.759
L232.533 303.14
L233.041 302.168
L233.573 300.64
L234.167 298.201
L234.823 294.487
L235.553 288.989
L236.369 281.062
L237.31 269.615
L238.399 253.47
L239.797 229.123
L243.695 159.226
L244.833 143.752
L245.811 133.298
L246.664 126.374
L247.432 121.849
L248.112 119.066
L248.731 117.406
L249.3 116.466
L249.882 115.917
L250.772 115.437
L251.453 114.953
L251.973 114.288
L252.48 113.252
L252.888 112.071
L252.901 490.905
L253 490.564
L253.594 488.036
L254.249 484.217
L254.992 478.484
L255.821 470.247
L256.774 458.406
L257.887 441.594
L259.335 416.046
L262.874 352.196
L264.05 335.711
L265.052 324.609
L265.93 317.211
L266.698 312.485
L267.391 309.501
L268.009 307.735
L268.591 306.702
L269.16 306.12
L269.927 305.684
L270.744 305.163
L271.264 304.544
L271.771 303.572
L272.303 302.043
L272.897 299.602
L273.553 295.888
L274.283 290.388
L275.099 282.459
L276.04 271.01
L277.129 254.863
L278.527 230.515
L282.425 160.621
L283.563 145.149
L284.541 134.696
L285.394 127.774
L286.162 123.25
L286.842 120.469
L287.461 118.81
L288.03 117.87
L288.612 117.322
L289.503 116.842
L290.183 116.357
L290.703 115.691
L291.21 114.656
L291.755 113.001
L291.99 112.087
L292.002 490.911
L292.101 490.485
L292.732 487.192
L293.437 482.262
L294.229 475.072
L295.133 464.71
L296.172 450.067
L297.447 428.749
L299.872 383.371
L301.53 354.747
L302.718 337.884
L303.72 326.61
L304.599 319.061
L305.378 314.145
L306.071 311.079
L306.702 309.223
L307.284 308.157
L307.853 307.553
L308.583 307.125
L309.474 306.567
L309.994 305.948
L310.501 304.975
L311.033 303.446
L311.627 301.004
L312.283 297.288
L313.013 291.787
L313.829 283.856
L314.77 272.406
L315.859 256.257
L317.257 231.907
L321.155 162.015
L322.293 146.545
L323.271 136.095
L324.125 129.174
L324.892 124.652
L325.572 121.872
L326.191 120.213
L326.76 119.274
L327.342 118.726
L328.233 118.246
L328.913 117.762
L329.433 117.095
L329.94 116.059
L330.485 114.404
L331.029 112.086
L331.041 490.901
L331.14 490.399
L331.809 486.34
L332.563 480.288
L333.405 471.644
L334.37 459.305
L335.508 441.718
L337.043 414.196
L340.124 358.293
L341.337 340.705
L342.351 328.996
L343.242 321.108
L344.034 315.945
L344.739 312.709
L345.37 310.773
L345.952 309.65
L346.521 309.008
L347.214 308.578
L348.216 307.96
L348.736 307.333
L349.243 306.349
L349.788 304.763
L350.382 302.285
L351.038 298.526
L351.768 292.973
L352.597 284.848
L353.537 273.3
L354.638 256.85
L356.049 232.155
L359.811 164.533
L360.961 148.693
L361.951 137.957
L362.817 130.833
L363.585 126.237
L364.265 123.399
L364.884 121.696
L365.453 120.726
L366.035 120.157
L366.864 119.702
L367.594 119.213
L368.113 118.578
L368.621 117.583
L369.165 115.983
L369.759 113.487
L370.019 112.123
L370.031 490.93
L370.13 490.362
L370.836 485.549
L371.628 478.494
L372.519 468.44
L373.546 454.18
L374.795 433.515
L376.887 394.486
L378.78 360.878
L380.005 342.906
L381.032 330.897
L381.935 322.792
L382.727 317.55
L383.432 314.252
L384.063 312.268
L384.645 311.11
L385.214 310.443
L385.882 310.013
L386.959 309.353
L387.479 308.718
L387.986 307.723
L388.53 306.122
L389.124 303.626
L389.78 299.844
L390.51 294.265
L391.339 286.109
L392.28 274.527
L393.381 258.042
L394.804 233.089
L398.504 166.494
L399.667 150.393
L400.657 139.59
L401.523 132.407
L402.29 127.763
L402.971 124.886
L403.589 123.153
L404.158 122.162
L404.74 121.579
L405.532 121.138
L406.312 120.629
L406.831 120.001
L407.339 119.016
L407.883 117.428
L408.477 114.949
L408.997 112.062
L409.009 490.861
L409.108 490.227
L409.838 484.722
L410.667 476.653
L411.608 465.166
L412.696 448.979
L414.095 424.597
L417.955 355.312
L419.106 339.624
L420.084 329.144
L420.95 322.112
L421.717 317.594
L422.397 314.816
L423.016 313.16
L423.585 312.223
L424.167 311.676
L425.07 311.189
L425.738 310.71
L426.258 310.043
L426.765 309.005
L427.31 307.348
L427.904 304.781
L428.572 300.829
L429.314 295.013
L430.156 286.542
L431.109 274.564
L432.235 257.408
L433.707 231.255
L437.073 170.381
L438.261 153.489
L439.263 142.187
L440.142 134.613
L440.921 129.676
L441.614 126.594
L442.245 124.725
L442.827 123.65
L443.396 123.04
L444.114 122.615
L445.017 122.056
L445.537 121.443
L446.044 120.478
L446.576 118.959
L447.158 116.59
L447.813 112.912
L447.937 112.091
L447.949 490.882
L448.048 490.192
L448.803 484.03
L449.657 475.12
L450.635 462.437
L451.798 444.233
L453.394 415.337
L456.228 363.865
L457.453 345.86
L458.48 333.82
L459.383 325.686
L460.175 320.422
L460.88 317.104
L461.511 315.105
L462.093 313.936
L462.662 313.263
L463.33 312.829
L464.431 312.15
L464.951 311.506
L465.458 310.499
L466.003 308.883
L466.597 306.368
L467.253 302.563
L467.995 296.847
L468.824 288.63
L469.765 276.981
L470.866 260.426
L472.301 235.183
L475.927 169.852
L477.09 153.644
L478.08 142.742
L478.946 135.472
L479.713 130.755
L480.406 127.776
L481.025 126.015
L481.606 124.987
L482.175 124.407
L482.943 123.971
L483.759 123.449
L484.279 122.828
L484.786 121.852
L485.331 120.276
L485.925 117.813
L486.581 114.071
L486.865 112.089
L486.878 490.874
L486.977 490.129
L487.756 483.303
L488.635 473.551
L489.649 459.669
L490.874 439.656
L492.78 404.281
L494.883 366.464
L496.133 347.909
L497.173 335.601
L498.076 327.375
L498.88 321.962
L499.585 318.602
L500.229 316.54
L500.81 315.359
L501.38 314.678
L502.035 314.246
L503.174 313.543
L503.694 312.891
L504.201 311.873
L504.745 310.242
L505.339 307.708
L505.995 303.88
L506.738 298.138
L507.567 289.89
L508.519 278.037
L509.633 261.213
L511.081 235.655
L514.607 172.011
L515.783 155.502
L516.785 144.378
L517.664 136.961
L518.443 132.156
L519.136 129.179
L519.755 127.419
L520.336 126.391
L520.906 125.811
L521.673 125.376
L522.489 124.853
L523.009 124.232
L523.516 123.255
L524.061 121.679
L524.655 119.214
L524.89 118.001
L524.89 118.001" style="fill:none;stroke:#008000;stroke-linecap:square;stroke-width:2;"/>
   </g>
   <g id="patch_3">
    <path d="
M153.675 60.3
L586.759 60.3" style="fill:none;stroke:#000000;stroke-linecap:square;stroke-linejoin:miter;"/>
   </g>
   <g id="patch_4">
    <path d="
M586.759 542.7
L586.759 60.3" style="fill:none;stroke:#000000;stroke-linecap:square;stroke-linejoin:miter;"/>
   </g>
   <g id="patch_5">
    <path d="
M153.675 542.7
L586.759 542.7" style="fill:none;stroke:#000000;stroke-linecap:square;stroke-linejoin:miter;"/>
   </g>
   <g id="patch_6">
    <path d="
M153.675 542.7
L153.675 60.3" style="fill:none;stroke:#000000;stroke-linecap:square;stroke-linejoin:miter;"/>
   </g>
   <g id="matplotlib.axis_1">
    <g id="xtick_1">
     <g id="line2d_2">
      <defs>
       <path d="
M0 0
L0 -4" id="m93b0483c22" style="stroke:#000000;stroke-width:0.5;"/>
      </defs>
      <g>
       <use style="stroke:#000000;stroke-width:0.5;" x="153.675" xlink:href="#m93b0483c22" y="542.7"/>
      </g>
     </g>
     <g id="line2d_3">
      <defs>
       <path d="
M0 0
L0 4" id="m741efc42ff" style="stroke:#000000;stroke-width:0.5;"/>
      </defs>
      <g>
       <use style="stroke:#000000;stroke-width:0.5;" x="153.675" xlink:href="#m741efc42ff" y="60.3"/>
      </g>
     </g>
     <g id="text_1">
      <!-- 0 -->
      <defs>
       <path d="
M31.7812 66.4062
Q24.1719 66.4062 20.3281 58.9062
Q16.5 51.4219 16.5 36.375
Q16.5 21.3906 20.3281 13.8906
Q24.1719 6.39062 31.7812 6.39062
Q39.4531 6.39062 43.2812 13.8906
Q47.125 21.3906 47.125 36.375
Q47.125 51.4219 43.2812 58.9062
Q39.4531 66.4062 31.7812 66.4062
M31.7812 74.2188
Q44.0469 74.2188 50.5156 64.5156
Q56.9844 54.8281 56.9844 36.375
Q56.9844 17.9688 50.5156 8.26562
Q44.0469 -1.42188 31.7812 -1.42188
Q19.5312 -1.42188 13.0625 8.26562
Q6.59375 17.9688 6.59375 36.375
Q6.59375 54.8281 13.0625 64.5156
Q19.5312 74.2188 31.7812 74.2188" id="BitstreamVeraSans-Roman-30"/>
      </defs>
      <g transform="translate(150.6515625 555.818125)scale(0.12 -0.12)">
       <use xlink:href="#BitstreamVeraSans-Roman-30"/>
      </g>
     </g>
    </g>
    <g id="xtick_2">
     <g id="line2d_4">
      <g>
       <use style="stroke:#000000;stroke-width:0.5;" x="215.544155844" xlink:href="#m93b0483c22" y="542.7"/>
      </g>
     </g>
     <g id="line2d_5">
      <g>
       <use style="stroke:#000000;stroke-width:0.5;" x="215.544155844" xlink:href="#m741efc42ff" y="60.3"/>
      </g>
     </g>
     <g id="text_2">
      <!-- 5 -->
      <defs>
       <path d="
M10.7969 72.9062
L49.5156 72.9062
L49.5156 64.5938
L19.8281 64.5938
L19.8281 46.7344
Q21.9688 47.4688 24.1094 47.8281
Q26.2656 48.1875 28.4219 48.1875
Q40.625 48.1875 47.75 41.5
Q54.8906 34.8125 54.8906 23.3906
Q54.8906 11.625 47.5625 5.09375
Q40.2344 -1.42188 26.9062 -1.42188
Q22.3125 -1.42188 17.5469 -0.640625
Q12.7969 0.140625 7.71875 1.70312
L7.71875 11.625
Q12.1094 9.23438 16.7969 8.0625
Q21.4844 6.89062 26.7031 6.89062
Q35.1562 6.89062 40.0781 11.3281
Q45.0156 15.7656 45.0156 23.3906
Q45.0156 31 40.0781 35.4375
Q35.1562 39.8906 26.7031 39.8906
Q22.75 39.8906 18.8125 39.0156
Q14.8906 38.1406 10.7969 36.2812
z
" id="BitstreamVeraSans-Roman-35"/>
      </defs>
      <g transform="translate(212.713843344 555.818125)scale(0.12 -0.12)">
       <use xlink:href="#BitstreamVeraSans-Roman-35"/>
      </g>
     </g>
    </g>
    <g id="xtick_3">
     <g id="line2d_6">
      <g>
       <use style="stroke:#000000;stroke-width:0.5;" x="277.413311688" xlink:href="#m93b0483c22" y="542.7"/>
      </g>
     </g>
     <g id="line2d_7">
      <g>
       <use style="stroke:#000000;stroke-width:0.5;" x="277.413311688" xlink:href="#m741efc42ff" y="60.3"/>
      </g>
     </g>
     <g id="text_3">
      <!-- 10 -->
      <defs>
       <path d="
M12.4062 8.29688
L28.5156 8.29688
L28.5156 63.9219
L10.9844 60.4062
L10.9844 69.3906
L28.4219 72.9062
L38.2812 72.9062
L38.2812 8.29688
L54.3906 8.29688
L54.3906 0
L12.4062 0
z
" id="BitstreamVeraSans-Roman-31"/>
      </defs>
      <g transform="translate(270.835811688 555.818125)scale(0.12 -0.12)">
       <use xlink:href="#BitstreamVeraSans-Roman-31"/>
       <use x="63.623046875" xlink:href="#BitstreamVeraSans-Roman-30"/>
      </g>
     </g>
    </g>
    <g id="xtick_4">
     <g id="line2d_8">
      <g>
       <use style="stroke:#000000;stroke-width:0.5;" x="339.282467532" xlink:href="#m93b0483c22" y="542.7"/>
      </g>
     </g>
     <g id="line2d_9">
      <g>
       <use style="stroke:#000000;stroke-width:0.5;" x="339.282467532" xlink:href="#m741efc42ff" y="60.3"/>
      </g>
     </g>
     <g id="text_4">
      <!-- 15 -->
      <g transform="translate(332.830592532 555.818125)scale(0.12 -0.12)">
       <use xlink:href="#BitstreamVeraSans-Roman-31"/>
       <use x="63.623046875" xlink:href="#BitstreamVeraSans-Roman-35"/>
      </g>
     </g>
    </g>
    <g id="xtick_5">
     <g id="line2d_10">
      <g>
       <use style="stroke:#000000;stroke-width:0.5;" x="401.151623377" xlink:href="#m93b0483c22" y="542.7"/>
      </g>
     </g>
     <g id="line2d_11">
      <g>
       <use style="stroke:#000000;stroke-width:0.5;" x="401.151623377" xlink:href="#m741efc42ff" y="60.3"/>
      </g>
     </g>
     <g id="text_5">
      <!-- 20 -->
      <defs>
       <path d="
M19.1875 8.29688
L53.6094 8.29688
L53.6094 0
L7.32812 0
L7.32812 8.29688
Q12.9375 14.1094 22.625 23.8906
Q32.3281 33.6875 34.8125 36.5312
Q39.5469 41.8438 41.4219 45.5312
Q43.3125 49.2188 43.3125 52.7812
Q43.3125 58.5938 39.2344 62.25
Q35.1562 65.9219 28.6094 65.9219
Q23.9688 65.9219 18.8125 64.3125
Q13.6719 62.7031 7.8125 59.4219
L7.8125 69.3906
Q13.7656 71.7812 18.9375 73
Q24.125 74.2188 28.4219 74.2188
Q39.75 74.2188 46.4844 68.5469
Q53.2188 62.8906 53.2188 53.4219
Q53.2188 48.9219 51.5312 44.8906
Q49.8594 40.875 45.4062 35.4062
Q44.1875 33.9844 37.6406 27.2188
Q31.1094 20.4531 19.1875 8.29688" id="BitstreamVeraSans-Roman-32"/>
      </defs>
      <g transform="translate(394.354748377 555.818125)scale(0.12 -0.12)">
       <use xlink:href="#BitstreamVeraSans-Roman-32"/>
       <use x="63.623046875" xlink:href="#BitstreamVeraSans-Roman-30"/>
      </g>
     </g>
    </g>
    <g id="xtick_6">
     <g id="line2d_12">
      <g>
       <use style="stroke:#000000;stroke-width:0.5;" x="463.020779221" xlink:href="#m93b0483c22" y="542.7"/>
      </g>
     </g>
     <g id="line2d_13">
      <g>
       <use style="stroke:#000000;stroke-width:0.5;" x="463.020779221" xlink:href="#m741efc42ff" y="60.3"/>
      </g>
     </g>
     <g id="text_6">
      <!-- 25 -->
      <g transform="translate(456.349529221 555.818125)scale(0.12 -0.12)">
       <use xlink:href="#BitstreamVeraSans-Roman-32"/>
       <use x="63.623046875" xlink:href="#BitstreamVeraSans-Roman-35"/>
      </g>
     </g>
    </g>
    <g id="xtick_7">
     <g id="line2d_14">
      <g>
       <use style="stroke:#000000;stroke-width:0.5;" x="524.889935065" xlink:href="#m93b0483c22" y="542.7"/>
      </g>
     </g>
     <g id="line2d_15">
      <g>
       <use style="stroke:#000000;stroke-width:0.5;" x="524.889935065" xlink:href="#m741efc42ff" y="60.3"/>
      </g>
     </g>
     <g id="text_7">
      <!-- 30 -->
      <defs>
       <path d="
M40.5781 39.3125
Q47.6562 37.7969 51.625 33
Q55.6094 28.2188 55.6094 21.1875
Q55.6094 10.4062 48.1875 4.48438
Q40.7656 -1.42188 27.0938 -1.42188
Q22.5156 -1.42188 17.6562 -0.515625
Q12.7969 0.390625 7.625 2.20312
L7.625 11.7188
Q11.7188 9.32812 16.5938 8.10938
Q21.4844 6.89062 26.8125 6.89062
Q36.0781 6.89062 40.9375 10.5469
Q45.7969 14.2031 45.7969 21.1875
Q45.7969 27.6406 41.2812 31.2656
Q36.7656 34.9062 28.7188 34.9062
L20.2188 34.9062
L20.2188 43.0156
L29.1094 43.0156
Q36.375 43.0156 40.2344 45.9219
Q44.0938 48.8281 44.0938 54.2969
Q44.0938 59.9062 40.1094 62.9062
Q36.1406 65.9219 28.7188 65.9219
Q24.6562 65.9219 20.0156 65.0312
Q15.375 64.1562 9.8125 62.3125
L9.8125 71.0938
Q15.4375 72.6562 20.3438 73.4375
Q25.25 74.2188 29.5938 74.2188
Q40.8281 74.2188 47.3594 69.1094
Q53.9062 64.0156 53.9062 55.3281
Q53.9062 49.2656 50.4375 45.0938
Q46.9688 40.9219 40.5781 39.3125" id="BitstreamVeraSans-Roman-33"/>
      </defs>
      <g transform="translate(518.110872565 555.818125)scale(0.12 -0.12)">
       <use xlink:href="#BitstreamVeraSans-Roman-33"/>
       <use x="63.623046875" xlink:href="#BitstreamVeraSans-Roman-30"/>
      </g>
     </g>
    </g>
    <g id="xtick_8">
     <g id="line2d_16">
      <g>
       <use style="stroke:#000000;stroke-width:0.5;" x="586.759090909" xlink:href="#m93b0483c22" y="542.7"/>
      </g>
     </g>
     <g id="line2d_17">
      <g>
       <use style="stroke:#000000;stroke-width:0.5;" x="586.759090909" xlink:href="#m741efc42ff" y="60.3"/>
      </g>
     </g>
     <g id="text_8">
      <!-- 35 -->
      <g transform="translate(580.105653409 555.818125)scale(0.12 -0.12)">
       <use xlink:href="#BitstreamVeraSans-Roman-33"/>
       <use x="63.623046875" xlink:href="#BitstreamVeraSans-Roman-35"/>
      </g>
     </g>
    </g>
    <g id="text_9">
     <!-- time($s$) -->
     <defs>
      <path d="
M8.01562 75.875
L15.8281 75.875
Q23.1406 64.3594 26.7812 53.3125
Q30.4219 42.2812 30.4219 31.3906
Q30.4219 20.4531 26.7812 9.375
Q23.1406 -1.70312 15.8281 -13.1875
L8.01562 -13.1875
Q14.5 -2 17.7031 9.0625
Q20.9062 20.125 20.9062 31.3906
Q20.9062 42.6719 17.7031 53.6562
Q14.5 64.6562 8.01562 75.875" id="BitstreamVeraSans-Roman-29"/>
      <path d="
M52 44.1875
Q55.375 50.25 60.0625 53.125
Q64.75 56 71.0938 56
Q79.6406 56 84.2812 50.0156
Q88.9219 44.0469 88.9219 33.0156
L88.9219 0
L79.8906 0
L79.8906 32.7188
Q79.8906 40.5781 77.0938 44.375
Q74.3125 48.1875 68.6094 48.1875
Q61.625 48.1875 57.5625 43.5469
Q53.5156 38.9219 53.5156 30.9062
L53.5156 0
L44.4844 0
L44.4844 32.7188
Q44.4844 40.625 41.7031 44.4062
Q38.9219 48.1875 33.1094 48.1875
Q26.2188 48.1875 22.1562 43.5312
Q18.1094 38.875 18.1094 30.9062
L18.1094 0
L9.07812 0
L9.07812 54.6875
L18.1094 54.6875
L18.1094 46.1875
Q21.1875 51.2188 25.4844 53.6094
Q29.7812 56 35.6875 56
Q41.6562 56 45.8281 52.9688
Q50 49.9531 52 44.1875" id="BitstreamVeraSans-Roman-6d"/>
      <path d="
M8.6875 6.10938
Q11.375 1.51562 19.4844 1.51562
Q23 1.51562 26.1719 2.70312
Q29.3438 3.90625 31.4219 6.29688
Q33.5 8.6875 33.5 12.1094
Q33.5 14.7031 31.6406 16.3594
Q29.7812 18.0156 27.0938 18.6094
L21.6875 19.6719
Q17.9688 20.6094 15.5781 23.1406
Q13.1875 25.6875 13.1875 29.2969
Q13.1875 33.7344 15.5938 37.1562
Q18.0156 40.5781 21.9688 42.375
Q25.9219 44.1875 30.1719 44.1875
Q34.7188 44.1875 38.2969 42.0156
Q41.8906 39.8438 41.8906 35.5938
Q41.8906 33.2969 40.5938 31.5312
Q39.3125 29.7812 37.0156 29.7812
Q35.6875 29.7812 34.7344 30.6406
Q33.7969 31.5 33.7969 32.8125
Q33.7969 33.9844 34.4531 35.0781
Q35.1094 36.1875 36.2031 36.8438
Q37.3125 37.5 38.4844 37.5
Q37.5938 39.6562 35.1719 40.625
Q32.7656 41.6094 29.9844 41.6094
Q27.4375 41.6094 24.8906 40.5781
Q22.3594 39.5469 20.8125 37.5625
Q19.2812 35.5938 19.2812 32.9062
Q19.2812 31.1094 20.5469 29.7344
Q21.8281 28.375 23.6875 27.7812
L29.5 26.6094
Q32.2812 26.0312 34.5938 24.5312
Q36.9219 23.0469 38.25 20.7656
Q39.5938 18.5 39.5938 15.5781
Q39.5938 11.8594 37.5156 8.25
Q35.4531 4.64062 32.4219 2.48438
Q27.0938 -1.125 19.3906 -1.125
Q14.0625 -1.125 9.60938 1.3125
Q5.17188 3.76562 5.17188 8.59375
Q5.17188 11.3281 6.75 13.3438
Q8.34375 15.375 11.0781 15.375
Q12.7031 15.375 13.7969 14.3906
Q14.8906 13.4219 14.8906 11.8125
Q14.8906 9.51562 13.1719 7.8125
Q11.4688 6.10938 9.1875 6.10938
z
" id="Cmmi10-73"/>
      <path d="
M9.42188 54.6875
L18.4062 54.6875
L18.4062 0
L9.42188 0
z

M9.42188 75.9844
L18.4062 75.9844
L18.4062 64.5938
L9.42188 64.5938
z
" id="BitstreamVeraSans-Roman-69"/>
      <path d="
M31 75.875
Q24.4688 64.6562 21.2812 53.6562
Q18.1094 42.6719 18.1094 31.3906
Q18.1094 20.125 21.3125 9.0625
Q24.5156 -2 31 -13.1875
L23.1875 -13.1875
Q15.875 -1.70312 12.2344 9.375
Q8.59375 20.4531 8.59375 31.3906
Q8.59375 42.2812 12.2031 53.3125
Q15.8281 64.3594 23.1875 75.875
z
" id="BitstreamVeraSans-Roman-28"/>
      <path d="
M56.2031 29.5938
L56.2031 25.2031
L14.8906 25.2031
Q15.4844 15.9219 20.4844 11.0625
Q25.4844 6.20312 34.4219 6.20312
Q39.5938 6.20312 44.4531 7.46875
Q49.3125 8.73438 54.1094 11.2812
L54.1094 2.78125
Q49.2656 0.734375 44.1875 -0.34375
Q39.1094 -1.42188 33.8906 -1.42188
Q20.7969 -1.42188 13.1562 6.1875
Q5.51562 13.8125 5.51562 26.8125
Q5.51562 40.2344 12.7656 48.1094
Q20.0156 56 32.3281 56
Q43.3594 56 49.7812 48.8906
Q56.2031 41.7969 56.2031 29.5938
M47.2188 32.2344
Q47.125 39.5938 43.0938 43.9844
Q39.0625 48.3906 32.4219 48.3906
Q24.9062 48.3906 20.3906 44.1406
Q15.875 39.8906 15.1875 32.1719
z
" id="BitstreamVeraSans-Roman-65"/>
      <path d="
M18.3125 70.2188
L18.3125 54.6875
L36.8125 54.6875
L36.8125 47.7031
L18.3125 47.7031
L18.3125 18.0156
Q18.3125 11.3281 20.1406 9.42188
Q21.9688 7.51562 27.5938 7.51562
L36.8125 7.51562
L36.8125 0
L27.5938 0
Q17.1875 0 13.2344 3.875
Q9.28125 7.76562 9.28125 18.0156
L9.28125 47.7031
L2.6875 47.7031
L2.6875 54.6875
L9.28125 54.6875
L9.28125 70.2188
z
" id="BitstreamVeraSans-Roman-74"/>
     </defs>
     <g transform="translate(349.157045455 572.431875)scale(0.12 -0.12)">
      <use transform="translate(0.0 0.015625)" xlink:href="#BitstreamVeraSans-Roman-74"/>
      <use transform="translate(39.208984375 0.015625)" xlink:href="#BitstreamVeraSans-Roman-69"/>
      <use transform="translate(66.9921875 0.015625)" xlink:href="#BitstreamVeraSans-Roman-6d"/>
      <use transform="translate(164.404296875 0.015625)" xlink:href="#BitstreamVeraSans-Roman-65"/>
      <use transform="translate(225.927734375 0.015625)" xlink:href="#BitstreamVeraSans-Roman-28"/>
      <use transform="translate(264.94140625 0.015625)" xlink:href="#Cmmi10-73"/>
      <use transform="translate(311.71875 0.015625)" xlink:href="#BitstreamVeraSans-Roman-29"/>
     </g>
    </g>
   </g>
   <g id="matplotlib.axis_2">
    <g id="ytick_1">
     <g id="line2d_18">
      <defs>
       <path d="
M0 0
L4 0" id="m728421d6d4" style="stroke:#000000;stroke-width:0.5;"/>
      </defs>
      <g>
       <use style="stroke:#000000;stroke-width:0.5;" x="153.675" xlink:href="#m728421d6d4" y="542.7"/>
      </g>
     </g>
     <g id="line2d_19">
      <defs>
       <path d="
M0 0
L-4 0" id="mcb0005524f" style="stroke:#000000;stroke-width:0.5;"/>
      </defs>
      <g>
       <use style="stroke:#000000;stroke-width:0.5;" x="586.759090909" xlink:href="#mcb0005524f" y="542.7"/>
      </g>
     </g>
     <g id="text_10">
      <!-- −4 -->
      <defs>
       <path d="
M10.5938 35.5
L73.1875 35.5
L73.1875 27.2031
L10.5938 27.2031
z
" id="BitstreamVeraSans-Roman-2212"/>
       <path d="
M37.7969 64.3125
L12.8906 25.3906
L37.7969 25.3906
z

M35.2031 72.9062
L47.6094 72.9062
L47.6094 25.3906
L58.0156 25.3906
L58.0156 17.1875
L47.6094 17.1875
L47.6094 0
L37.7969 0
L37.7969 17.1875
L4.89062 17.1875
L4.89062 26.7031
z
" id="BitstreamVeraSans-Roman-34"/>
      </defs>
      <g transform="translate(133.92875 546.01125)scale(0.12 -0.12)">
       <use xlink:href="#BitstreamVeraSans-Roman-2212"/>
       <use x="83.7890625" xlink:href="#BitstreamVeraSans-Roman-34"/>
      </g>
     </g>
    </g>
    <g id="ytick_2">
     <g id="line2d_20">
      <g>
       <use style="stroke:#000000;stroke-width:0.5;" x="153.675" xlink:href="#m728421d6d4" y="482.4"/>
      </g>
     </g>
     <g id="line2d_21">
      <g>
       <use style="stroke:#000000;stroke-width:0.5;" x="586.759090909" xlink:href="#mcb0005524f" y="482.4"/>
      </g>
     </g>
     <g id="text_11">
      <!-- −3 -->
      <g transform="translate(134.2175 485.71125)scale(0.12 -0.12)">
       <use xlink:href="#BitstreamVeraSans-Roman-2212"/>
       <use x="83.7890625" xlink:href="#BitstreamVeraSans-Roman-33"/>
      </g>
     </g>
    </g>
    <g id="ytick_3">
     <g id="line2d_22">
      <g>
       <use style="stroke:#000000;stroke-width:0.5;" x="153.675" xlink:href="#m728421d6d4" y="422.1"/>
      </g>
     </g>
     <g id="line2d_23">
      <g>
       <use style="stroke:#000000;stroke-width:0.5;" x="586.759090909" xlink:href="#mcb0005524f" y="422.1"/>
      </g>
     </g>
     <g id="text_12">
      <!-- −2 -->
      <g transform="translate(134.4575 425.41125)scale(0.12 -0.12)">
       <use xlink:href="#BitstreamVeraSans-Roman-2212"/>
       <use x="83.7890625" xlink:href="#BitstreamVeraSans-Roman-32"/>
      </g>
     </g>
    </g>
    <g id="ytick_4">
     <g id="line2d_24">
      <g>
       <use style="stroke:#000000;stroke-width:0.5;" x="153.675" xlink:href="#m728421d6d4" y="361.8"/>
      </g>
     </g>
     <g id="line2d_25">
      <g>
       <use style="stroke:#000000;stroke-width:0.5;" x="586.759090909" xlink:href="#mcb0005524f" y="361.8"/>
      </g>
     </g>
     <g id="text_13">
      <!-- −1 -->
      <g transform="translate(134.36375 365.11125)scale(0.12 -0.12)">
       <use xlink:href="#BitstreamVeraSans-Roman-2212"/>
       <use x="83.7890625" xlink:href="#BitstreamVeraSans-Roman-31"/>
      </g>
     </g>
    </g>
    <g id="ytick_5">
     <g id="line2d_26">
      <g>
       <use style="stroke:#000000;stroke-width:0.5;" x="153.675" xlink:href="#m728421d6d4" y="301.5"/>
      </g>
     </g>
     <g id="line2d_27">
      <g>
       <use style="stroke:#000000;stroke-width:0.5;" x="586.759090909" xlink:href="#mcb0005524f" y="301.5"/>
      </g>
     </g>
     <g id="text_14">
      <!-- 0 -->
      <g transform="translate(143.628125 304.81125)scale(0.12 -0.12)">
       <use xlink:href="#BitstreamVeraSans-Roman-30"/>
      </g>
     </g>
    </g>
    <g id="ytick_6">
     <g id="line2d_28">
      <g>
       <use style="stroke:#000000;stroke-width:0.5;" x="153.675" xlink:href="#m728421d6d4" y="241.2"/>
      </g>
     </g>
     <g id="line2d_29">
      <g>
       <use style="stroke:#000000;stroke-width:0.5;" x="586.759090909" xlink:href="#mcb0005524f" y="241.2"/>
      </g>
     </g>
     <g id="text_15">
      <!-- 1 -->
      <g transform="translate(144.46625 244.51125)scale(0.12 -0.12)">
       <use xlink:href="#BitstreamVeraSans-Roman-31"/>
      </g>
     </g>
    </g>
    <g id="ytick_7">
     <g id="line2d_30">
      <g>
       <use style="stroke:#000000;stroke-width:0.5;" x="153.675" xlink:href="#m728421d6d4" y="180.9"/>
      </g>
     </g>
     <g id="line2d_31">
      <g>
       <use style="stroke:#000000;stroke-width:0.5;" x="586.759090909" xlink:href="#mcb0005524f" y="180.9"/>
      </g>
     </g>
     <g id="text_16">
      <!-- 2 -->
      <g transform="translate(144.12125 184.21125)scale(0.12 -0.12)">
       <use xlink:href="#BitstreamVeraSans-Roman-32"/>
      </g>
     </g>
    </g>
    <g id="ytick_8">
     <g id="line2d_32">
      <g>
       <use style="stroke:#000000;stroke-width:0.5;" x="153.675" xlink:href="#m728421d6d4" y="120.6"/>
      </g>
     </g>
     <g id="line2d_33">
      <g>
       <use style="stroke:#000000;stroke-width:0.5;" x="586.759090909" xlink:href="#mcb0005524f" y="120.6"/>
      </g>
     </g>
     <g id="text_17">
      <!-- 3 -->
      <g transform="translate(143.916875 123.91125)scale(0.12 -0.12)">
       <use xlink:href="#BitstreamVeraSans-Roman-33"/>
      </g>
     </g>
    </g>
    <g id="ytick_9">
     <g id="line2d_34">
      <g>
       <use style="stroke:#000000;stroke-width:0.5;" x="153.675" xlink:href="#m728421d6d4" y="60.3"/>
      </g>
     </g>
     <g id="line2d_35">
      <g>
       <use style="stroke:#000000;stroke-width:0.5;" x="586.759090909" xlink:href="#mcb0005524f" y="60.3"/>
      </g>
     </g>
     <g id="text_18">
      <!-- 4 -->
      <g transform="translate(143.3 63.61125)scale(0.12 -0.12)">
       <use xlink:href="#BitstreamVeraSans-Roman-34"/>
      </g>
     </g>
    </g>
    <g id="text_19">
     <!-- $\theta$($Rad$) -->
     <defs>
      <path d="
M16.1094 -1.125
Q11.5781 -1.125 8.84375 2.1875
Q6.10938 5.51562 5.04688 10.2031
Q4 14.8906 4 19.4844
L4 19.5781
Q4 24.5625 4.95312 29.9219
Q5.90625 35.2969 7.70312 40.6406
Q9.51562 46 11.625 50.2031
Q13.0938 53.125 15.4062 56.7344
Q17.7188 60.3594 20.5781 63.5
Q23.4375 66.6562 26.7344 68.5781
Q30.0312 70.5156 33.4062 70.5156
L33.5 70.5156
Q37.1094 70.5156 39.5156 68.5
Q41.9375 66.5 43.2812 63.375
Q44.625 60.25 45.1562 56.6875
Q45.7031 53.125 45.7031 49.9062
Q45.7031 42.3281 43.6562 34.4375
Q41.6094 26.5625 37.9844 19.1875
Q36.625 16.4062 34.2031 12.6406
Q31.7812 8.89062 29.0781 5.90625
Q26.375 2.9375 23 0.90625
Q19.625 -1.125 16.2188 -1.125
z

M16.3125 1.51562
Q19.625 1.51562 22.6719 5.04688
Q25.7344 8.59375 28.0312 13.6406
Q30.3281 18.7031 32.0625 24
Q33.7969 29.2969 34.625 33.0156
L14.2031 33.0156
Q12.6406 26.7031 11.7656 22.1406
Q10.8906 17.5781 10.8906 13.1875
Q10.8906 1.51562 16.3125 1.51562
M14.9844 36.5312
L35.5 36.5312
Q36.5781 40.9219 37.2031 43.875
Q37.8438 46.8281 38.2812 50.0938
Q38.7188 53.375 38.7188 56.2031
Q38.7188 67.9219 33.4062 67.9219
Q27.0469 67.9219 22.4375 57.6875
Q17.8281 47.4688 14.9844 36.5312" id="Cmmi10-b5"/>
      <path d="
M17.3906 -1.125
Q11.0781 -1.125 7.4375 3.64062
Q3.8125 8.40625 3.8125 14.8906
Q3.8125 21.2969 7.125 28.1719
Q10.4531 35.0625 16.0938 39.625
Q21.7344 44.1875 28.2188 44.1875
Q31.2031 44.1875 33.5469 42.5781
Q35.8906 40.9688 37.2031 38.1875
Q38.3281 42.1875 41.6094 42.1875
Q42.875 42.1875 43.7188 41.4219
Q44.5781 40.6719 44.5781 39.4062
Q44.5781 39.1094 44.5469 38.9531
Q44.5312 38.8125 44.4844 38.625
L37.5 10.6875
Q36.8125 7.71875 36.8125 5.8125
Q36.8125 1.51562 39.7031 1.51562
Q42.8281 1.51562 44.4531 5.48438
Q46.0938 9.46875 47.2188 14.7031
Q47.4062 15.2812 48 15.2812
L49.2188 15.2812
Q49.6094 15.2812 49.8438 14.9375
Q50.0938 14.5938 50.0938 14.3125
Q48.3438 7.32812 46.2656 3.09375
Q44.1875 -1.125 39.5 -1.125
Q36.1406 -1.125 33.5469 0.84375
Q30.9531 2.82812 30.3281 6.10938
Q23.875 -1.125 17.3906 -1.125
M17.4844 1.51562
Q21.0938 1.51562 24.4844 4.21875
Q27.875 6.9375 30.3281 10.5938
Q30.4219 10.6875 30.4219 10.8906
L35.7969 32.625
L35.8906 32.9062
Q35.2969 36.4688 33.3125 39.0312
Q31.3438 41.6094 27.9844 41.6094
Q24.6094 41.6094 21.7031 38.8438
Q18.7969 36.0781 16.7969 32.3281
Q14.8438 28.3281 13.0625 21.3438
Q11.2812 14.3594 11.2812 10.5
Q11.2812 7.03125 12.7656 4.26562
Q14.2656 1.51562 17.4844 1.51562" id="Cmmi10-61"/>
      <path d="
M4.89062 0
Q3.90625 0 3.90625 1.3125
Q3.95312 1.5625 4.09375 2.17188
Q4.25 2.78125 4.51562 3.14062
Q4.78125 3.51562 5.17188 3.51562
Q11.2812 3.51562 13.7188 4.20312
Q14.9844 4.64062 15.5781 6.89062
L29.2969 61.8125
Q29.5 62.7969 29.5 63.1875
Q29.5 64.2656 28.3281 64.4062
Q26.4219 64.7969 21.0938 64.7969
Q20.125 64.7969 20.125 66.1094
Q20.1719 66.3594 20.3125 66.9688
Q20.4531 67.5781 20.7188 67.9375
Q21 68.3125 21.3906 68.3125
L51.7031 68.3125
Q55.3281 68.3125 59.2344 67.4844
Q63.1406 66.6562 66.4062 64.875
Q69.6719 63.0938 71.7656 60.125
Q73.875 57.1719 73.875 53.2188
Q73.875 48.1875 70.5469 44.2344
Q67.2344 40.2812 62.1562 37.625
Q57.0781 34.9688 52.2969 33.8906
Q56.2031 32.4688 58.6875 29.3594
Q61.1875 26.2656 61.1875 22.2188
Q61.1875 21.6875 61.1562 21.4062
Q61.1406 21.1406 61.0781 20.7969
L60.2969 11.9219
Q60.2031 9.96875 60.1094 8.59375
Q60.0156 7.23438 60.0156 6.39062
Q60.0156 3.65625 60.8125 2.01562
Q61.625 0.390625 64.0156 0.390625
Q67.1406 0.390625 69.5 3.29688
Q71.875 6.20312 72.6094 9.625
Q73.0469 10.5 73.5781 10.5
L74.5156 10.5
Q75.4844 10.5 75.4844 9.1875
Q74.75 6.29688 73.1562 3.70312
Q71.5781 1.125 69.1562 -0.53125
Q66.75 -2.20312 63.9219 -2.20312
Q58.0625 -2.20312 53.9375 0.40625
Q49.8125 3.03125 49.8125 8.59375
Q49.8125 10.6875 50.2031 12.3125
L52.3906 21.1875
Q52.7812 22.4062 52.7812 24.0312
Q52.7812 28.1719 49.9688 30.5312
Q47.1719 32.9062 42.9219 32.9062
L30.6094 32.9062
L24.0312 6.5
Q23.7812 5.67188 23.7812 5.07812
Q23.7812 4.04688 25 3.90625
Q26.9062 3.51562 32.1719 3.51562
Q33.2031 3.51562 33.2031 2.20312
Q32.8594 0.78125 32.6562 0.390625
Q32.4688 0 31.5 0
z

M31.2031 35.5
L42.2812 35.5
Q53.1719 35.5 58.6875 41.0156
Q61.2344 43.5625 62.7188 47.4844
Q64.2031 51.4219 64.2031 55.3281
Q64.2031 59.0312 62.0312 61.125
Q59.8594 63.2344 56.6562 64.0156
Q53.4688 64.7969 49.6094 64.7969
L42.9219 64.7969
Q40.1875 64.7969 39.2969 64.3281
Q38.4219 63.875 37.7031 61.375
z
" id="Cmmi10-52"/>
      <path d="
M17.3906 -1.125
Q11.0781 -1.125 7.4375 3.64062
Q3.8125 8.40625 3.8125 14.8906
Q3.8125 21.2969 7.125 28.1719
Q10.4531 35.0625 16.0938 39.625
Q21.7344 44.1875 28.2188 44.1875
Q31.1562 44.1875 33.5156 42.5469
Q35.8906 40.9219 37.2031 38.1875
L42.8281 60.5
Q43.2188 62.2031 43.3125 63.1875
Q43.3125 64.7969 36.8125 64.7969
Q35.7969 64.7969 35.7969 66.1094
Q35.8438 66.3594 36.0156 66.9844
Q36.1875 67.625 36.4531 67.9688
Q36.7188 68.3125 37.2031 68.3125
L50.6875 69.3906
Q51.9062 69.3906 51.9062 68.1094
L37.5 10.5938
Q36.8125 8.9375 36.8125 5.8125
Q36.8125 1.51562 39.7031 1.51562
Q42.8281 1.51562 44.4531 5.48438
Q46.0938 9.46875 47.2188 14.7031
Q47.4062 15.2812 48 15.2812
L49.2188 15.2812
Q49.6094 15.2812 49.8438 14.9375
Q50.0938 14.5938 50.0938 14.3125
Q48.3438 7.32812 46.2656 3.09375
Q44.1875 -1.125 39.5 -1.125
Q36.1406 -1.125 33.5469 0.84375
Q30.9531 2.82812 30.3281 6.10938
Q23.875 -1.125 17.3906 -1.125
M17.4844 1.51562
Q21.0938 1.51562 24.4844 4.21875
Q27.875 6.9375 30.3281 10.5938
Q30.4219 10.6875 30.4219 10.9844
L35.8906 33.0156
Q35.2969 36.5312 33.2969 39.0625
Q31.2969 41.6094 27.9844 41.6094
Q24.6094 41.6094 21.7031 38.8438
Q18.7969 36.0781 16.7969 32.3281
Q14.8438 28.3281 13.0625 21.3438
Q11.2812 14.3594 11.2812 10.5
Q11.2812 7.03125 12.7656 4.26562
Q14.2656 1.51562 17.4844 1.51562" id="Cmmi10-64"/>
     </defs>
     <g transform="translate(126.433125 319.86)rotate(-90.0)scale(0.12 -0.12)">
      <use transform="translate(0.0 0.125)" xlink:href="#Cmmi10-b5"/>
      <use transform="translate(46.923828125 0.125)" xlink:href="#BitstreamVeraSans-Roman-28"/>
      <use transform="translate(85.9375 0.125)" xlink:href="#Cmmi10-52"/>
      <use transform="translate(161.81640625 0.125)" xlink:href="#Cmmi10-61"/>
      <use transform="translate(214.599609375 0.125)" xlink:href="#Cmmi10-64"/>
      <use transform="translate(266.6015625 0.125)" xlink:href="#BitstreamVeraSans-Roman-29"/>
     </g>
    </g>
   </g>
   <g id="legend_1">
    <g id="line2d_36">
     <path d="
M540.777 73.3932
L554.772 73.3932" style="fill:none;stroke:#008000;stroke-linecap:square;stroke-width:2;"/>
    </g>
    <g id="line2d_37"/>
    <g id="text_20">
     <!-- $\theta$-$t$ -->
     <defs>
      <path d="
M4.89062 31.3906
L31.2031 31.3906
L31.2031 23.3906
L4.89062 23.3906
z
" id="BitstreamVeraSans-Roman-2d"/>
      <path d="
M6.20312 8.10938
Q6.20312 9.57812 6.5 10.8906
L13.7188 39.5938
L3.21875 39.5938
Q2.20312 39.5938 2.20312 40.9219
Q2.59375 43.1094 3.51562 43.1094
L14.5938 43.1094
L18.6094 59.4219
Q19 60.75 20.1719 61.6719
Q21.3438 62.5938 22.7969 62.5938
Q24.0781 62.5938 24.9219 61.8281
Q25.7812 61.0781 25.7812 59.8125
Q25.7812 59.5156 25.75 59.3438
Q25.7344 59.1875 25.6875 58.9844
L21.6875 43.1094
L31.9844 43.1094
Q33.0156 43.1094 33.0156 41.7969
Q32.9531 41.5469 32.8125 40.9531
Q32.6719 40.375 32.4219 39.9844
Q32.1719 39.5938 31.6875 39.5938
L20.7969 39.5938
L13.625 10.6875
Q12.8906 7.85938 12.8906 5.8125
Q12.8906 1.51562 15.8281 1.51562
Q20.2188 1.51562 23.6094 5.64062
Q27 9.76562 28.8125 14.7031
Q29.2031 15.2812 29.5938 15.2812
L30.8125 15.2812
Q31.2031 15.2812 31.4375 15.0156
Q31.6875 14.75 31.6875 14.4062
Q31.6875 14.2031 31.5938 14.1094
Q29.3906 8.0625 25.1875 3.46875
Q21 -1.125 15.5781 -1.125
Q11.625 -1.125 8.90625 1.45312
Q6.20312 4.04688 6.20312 8.10938" id="Cmmi10-74"/>
     </defs>
     <g transform="translate(565.767490909 76.891798125)scale(0.09996 -0.09996)">
      <use transform="translate(0.0 0.484375)" xlink:href="#Cmmi10-b5"/>
      <use transform="translate(46.923828125 0.484375)" xlink:href="#BitstreamVeraSans-Roman-2d"/>
      <use transform="translate(83.0078125 0.484375)" xlink:href="#Cmmi10-74"/>
     </g>
    </g>
   </g>
  </g>
  <g id="axes_2">
   <g id="patch_7">
    <path d="
M673.376 542.7
L1106.46 542.7
L1106.46 60.3
L673.376 60.3
z
" style="fill:#ffffff;"/>
   </g>
   <g id="line2d_38">
    <path clip-path="url(#p9b96c9b755)" d="
M673.376 530.64
L673.463 530.553
L673.611 529.935
L673.846 527.751
L674.18 522.156
L674.613 510.752
L675.182 489.309
L675.937 451.538
L677.001 385.793
L681.085 121.789
L681.815 92.8308
L682.359 78.9983
L682.755 73.6448
L683.015 72.3922
L683.102 72.3782
L683.126 72.4113
L683.263 72.888
L683.473 74.6006
L683.782 79.238
L684.191 89.0707
L684.723 107.705
L685.428 141.014
L686.393 198.203
L688.101 315.203
L689.994 440.239
L690.934 488.785
L691.615 513.765
L692.135 525.626
L692.506 529.859
L692.741 530.64
L692.828 530.553
L692.976 529.933
L693.211 527.747
L693.545 522.149
L693.978 510.741
L694.548 489.294
L695.302 451.518
L696.366 385.769
L700.437 122.353
L701.168 93.2158
L701.712 79.2245
L702.108 73.7465
L702.368 72.4102
L702.454 72.3681
L702.492 72.4119
L702.628 72.8899
L702.838 74.6045
L703.147 79.2447
L703.556 89.081
L704.088 107.719
L704.793 141.033
L705.758 198.226
L707.466 315.228
L709.359 440.259
L710.299 488.801
L710.98 513.775
L711.5 525.632
L711.871 529.862
L712.106 530.64
L712.193 530.552
L712.341 529.931
L712.576 527.743
L712.91 522.141
L713.343 510.729
L713.913 489.279
L714.667 451.498
L715.732 385.746
L719.803 122.337
L720.533 93.2044
L721.077 79.2178
L721.473 73.7434
L721.733 72.4096
L721.819 72.3683
L721.857 72.4125
L721.993 72.8918
L722.203 74.6084
L722.512 79.2514
L722.921 89.0913
L723.453 107.734
L724.158 141.051
L725.123 198.248
L726.831 315.253
L728.724 440.28
L729.664 488.816
L730.345 513.785
L730.865 525.638
L731.236 529.864
L731.471 530.64
L731.558 530.551
L731.706 529.929
L731.941 527.738
L732.275 522.134
L732.708 510.718
L733.278 489.263
L734.032 451.478
L735.097 385.722
L739.168 122.32
L739.898 93.1931
L740.442 79.2111
L740.838 73.7403
L741.098 72.409
L741.185 72.3686
L741.222 72.4131
L741.358 72.8937
L741.568 74.6123
L741.877 79.2582
L742.286 89.1016
L742.818 107.748
L743.523 141.07
L744.488 198.271
L746.196 315.277
L748.089 440.301
L749.03 488.832
L749.71 513.796
L750.23 525.644
L750.601 529.866
L750.836 530.64
L750.923 530.55
L751.071 529.927
L751.306 527.734
L751.64 522.126
L752.086 510.315
L752.655 488.708
L753.41 450.766
L754.474 384.876
L758.52 122.887
L759.25 93.5812
L759.795 79.4408
L760.203 73.7373
L760.463 72.4084
L760.55 72.3688
L760.587 72.4137
L760.723 72.8956
L760.933 74.6162
L761.242 79.2649
L761.651 89.1119
L762.183 107.763
L762.888 141.089
L763.853 198.294
L765.561 315.302
L767.454 440.322
L768.395 488.847
L769.075 513.806
L769.595 525.649
L769.966 529.869
L770.201 530.64
L770.288 530.55
L770.436 529.924
L770.671 527.729
L771.005 522.119
L771.451 510.304
L772.02 488.692
L772.775 450.746
L773.839 384.853
L777.885 122.87
L778.615 93.5697
L779.16 79.4339
L779.568 73.7343
L779.828 72.4078
L779.915 72.3691
L779.952 72.4143
L780.088 72.8975
L780.311 74.758
L780.62 79.5092
L781.041 89.849
L781.585 109.303
L782.303 143.757
L783.293 203.113
L785.136 330.054
L786.856 442.502
L787.784 489.938
L788.465 514.53
L788.972 525.854
L789.343 529.948
L789.566 530.64
L789.653 530.549
L789.801 529.922
L790.036 527.725
L790.37 522.111
L790.816 510.293
L791.385 488.677
L792.14 450.726
L793.204 384.829
L797.25 122.853
L797.98 93.5582
L798.525 79.4271
L798.933 73.7312
L799.193 72.4073
L799.28 72.3693
L799.317 72.4149
L799.453 72.8994
L799.676 74.7621
L799.985 79.516
L800.406 89.8595
L800.95 109.318
L801.668 143.777
L802.658 203.136
L804.501 330.079
L806.221 442.522
L807.149 489.954
L807.83 514.54
L808.337 525.86
L808.709 529.951
L808.931 530.64
L809.018 530.548
L809.166 529.92
L809.401 527.721
L809.736 522.104
L810.181 510.282
L810.75 488.661
L811.505 450.706
L812.569 384.806
L816.615 122.836
L817.345 93.5468
L817.89 79.4203
L818.298 73.7282
L818.558 72.4067
L818.645 72.3696
L818.682 72.4156
L818.818 72.9013
L819.041 74.7661
L819.35 79.5229
L819.771 89.87
L820.315 109.333
L821.033 143.796
L822.023 203.159
L823.866 330.104
L825.586 442.543
L826.514 489.969
L827.195 514.55
L827.702 525.865
L828.061 529.875
L828.284 530.637
L828.371 530.573
L828.507 530.064
L828.729 528.161
L829.051 523.11
L829.472 512.57
L830.029 492.367
L830.759 456.846
L831.773 395.395
L833.79 256.105
L835.349 155.828
L836.253 110.648
L836.921 87.2318
L837.416 76.6529
L837.775 72.9381
L837.985 72.3596
L838.072 72.4677
L838.22 73.1224
L838.455 75.3638
L838.789 81.0384
L839.235 92.9326
L839.816 115.178
L840.571 153.367
L841.648 220.291
L845.62 478.128
L846.362 508.458
L846.919 523.229
L847.327 529.113
L847.599 530.584
L847.686 530.634
L847.723 530.594
L847.847 530.192
L848.057 528.566
L848.354 524.282
L848.763 514.731
L849.295 496.424
L849.988 464.115
L850.94 408.171
L852.561 297.576
L854.578 163.671
L855.531 114.354
L856.212 89.328
L856.731 77.4254
L857.103 73.1613
L857.338 72.3606
L857.424 72.4406
L857.573 73.0474
L857.808 75.2137
L858.13 80.5274
L858.563 91.7726
L859.132 113.032
L859.874 149.927
L860.926 214.559
L865.096 483.377
L865.814 511.25
L866.346 524.405
L866.742 529.531
L866.989 530.619
L867.076 530.611
L867.101 530.571
L867.237 530.06
L867.459 528.153
L867.781 523.096
L868.202 512.549
L868.759 492.337
L869.489 456.808
L870.503 395.349
L872.52 256.056
L874.079 155.788
L874.983 110.618
L875.651 87.2123
L876.146 76.6422
L876.505 72.9342
L876.715 72.3597
L876.802 72.4694
L876.95 73.1269
L877.185 75.3728
L877.519 81.0535
L877.965 92.9553
L878.546 115.21
L879.301 153.407
L880.378 220.338
L884.35 478.162
L885.092 508.481
L885.649 523.243
L886.057 529.119
L886.33 530.585
L886.416 530.634
L886.453 530.593
L886.577 530.188
L886.787 528.559
L887.084 524.269
L887.493 514.711
L888.025 496.395
L888.718 464.078
L889.67 408.126
L891.291 297.526
L893.308 163.63
L894.261 114.323
L894.942 89.3073
L895.461 77.4138
L895.833 73.1566
L896.068 72.3604
L896.154 72.4421
L896.303 73.0517
L896.538 75.2224
L896.86 80.542
L897.293 91.7946
L897.862 113.062
L898.604 149.967
L899.656 214.606
L903.826 483.409
L904.544 511.272
L905.076 524.418
L905.472 529.536
L905.719 530.62
L905.806 530.61
L905.818 530.592
L905.954 530.123
L906.165 528.422
L906.474 523.802
L906.882 513.991
L907.415 495.381
L908.12 462.098
L909.085 404.933
L910.78 288.813
L912.686 162.885
L913.626 114.307
L914.307 89.2969
L914.826 77.408
L915.198 73.1543
L915.433 72.3603
L915.519 72.4428
L915.668 73.0539
L915.903 75.2268
L916.225 80.5493
L916.658 91.8057
L917.227 113.078
L917.969 149.986
L919.021 214.63
L923.191 483.425
L923.909 511.283
L924.441 524.424
L924.837 529.539
L925.084 530.62
L925.171 530.61
L925.183 530.592
L925.319 530.121
L925.53 528.419
L925.839 523.795
L926.248 513.98
L926.78 495.367
L927.485 462.08
L928.45 404.91
L930.145 288.789
L932.051 162.864
L932.991 114.292
L933.672 89.2866
L934.192 77.4022
L934.563 73.152
L934.798 72.3603
L934.884 72.4436
L935.033 73.056
L935.268 75.2312
L935.602 80.8144
L936.035 92.2041
L936.604 113.63
L937.347 150.694
L938.399 215.472
L942.531 482.299
L943.249 510.518
L943.794 524.205
L944.19 529.445
L944.449 530.621
L944.536 530.609
L944.548 530.591
L944.685 530.119
L944.895 528.415
L945.204 523.789
L945.613 513.97
L946.145 495.352
L946.85 462.061
L947.815 404.887
L949.51 288.764
L951.416 162.843
L952.356 114.276
L953.037 89.2762
L953.557 77.3965
L953.928 73.1497
L954.163 72.3602
L954.25 72.4443
L954.398 73.0582
L954.633 75.2356
L954.967 80.8219
L955.4 92.2152
L955.969 113.645
L956.712 150.714
L957.764 215.496
L961.897 482.315
L962.614 510.529
L963.159 524.211
L963.555 529.448
L963.814 530.621
L963.901 530.609
L963.913 530.59
L964.05 530.118
L964.26 528.411
L964.569 523.782
L964.978 513.96
L965.51 495.338
L966.215 462.042
L967.18 404.865
L968.875 288.739
L970.781 162.823
L971.721 114.261
L972.402 89.2659
L972.922 77.3907
L973.293 73.1474
L973.528 72.3601
L973.615 72.4451
L973.763 73.0604
L973.998 75.24
L974.332 80.8293
L974.765 92.2264
L975.335 113.66
L976.077 150.733
L977.129 215.519
L981.262 482.332
L981.979 510.54
L982.524 524.218
L982.92 529.45
L983.18 530.621
L983.266 530.608
L983.279 530.59
L983.415 530.116
L983.625 528.407
L983.934 523.775
L984.343 513.949
L984.875 495.323
L985.58 462.023
L986.545 404.842
L988.24 288.714
L990.146 162.802
L991.086 114.245
L991.767 89.2555
L992.287 77.3849
L992.658 73.1451
L992.893 72.3601
L992.98 72.4459
L993.128 73.0626
L993.363 75.2444
L993.697 80.8368
L994.13 92.2375
L994.7 113.676
L995.454 151.443
L996.519 217.185
L1000.6 481.195
L1001.33 510.158
L1001.88 523.995
L1002.27 529.352
L1002.53 530.607
L1002.62 530.622
L1002.64 530.589
L1002.78 530.114
L1002.99 528.403
L1003.3 523.768
L1003.71 513.939
L1004.24 495.309
L1004.95 462.004
L1005.91 404.819
L1007.62 287.821
L1009.51 162.781
L1010.45 114.23
L1011.13 89.2452
L1011.65 77.3791
L1012.02 73.1428
L1012.26 72.36
L1012.34 72.4466
L1012.49 73.0647
L1012.73 75.2488
L1013.06 80.8442
L1013.5 92.2487
L1014.06 113.691
L1014.82 151.463
L1015.88 217.208
L1019.97 481.211
L1020.7 510.17
L1021.24 524.002
L1021.64 529.355
L1021.9 530.608
L1021.98 530.622
L1022.01 530.589
L1022.14 530.112
L1022.36 528.399
L1022.66 523.762
L1023.07 513.929
L1023.6 495.295
L1024.31 461.985
L1025.28 404.796
L1026.98 287.796
L1028.88 162.76
L1029.82 114.214
L1030.5 89.2349
L1031.02 77.3734
L1031.39 73.1405
L1031.62 72.3599
L1031.71 72.4474
L1031.86 73.0669
L1032.09 75.2532
L1032.43 80.8517
L1032.86 92.2598
L1033.43 113.707
L1034.18 151.483
L1035.25 217.232
L1039.32 480.647
L1040.05 509.785
L1040.59 523.776
L1040.99 529.254
L1041.25 530.59
L1041.34 530.632
L1041.37 530.588
L1041.51 530.11
L1041.72 528.395
L1042.03 523.755
L1042.44 513.919
L1042.97 495.28
L1043.68 461.967
L1044.59 407.945
L1044.59 407.945" style="fill:none;stroke:#bf00bf;stroke-linecap:square;stroke-width:2;"/>
   </g>
   <g id="patch_8">
    <path d="
M673.376 60.3
L1106.46 60.3" style="fill:none;stroke:#000000;stroke-linecap:square;stroke-linejoin:miter;"/>
   </g>
   <g id="patch_9">
    <path d="
M1106.46 542.7
L1106.46 60.3" style="fill:none;stroke:#000000;stroke-linecap:square;stroke-linejoin:miter;"/>
   </g>
   <g id="patch_10">
    <path d="
M673.376 542.7
L1106.46 542.7" style="fill:none;stroke:#000000;stroke-linecap:square;stroke-linejoin:miter;"/>
   </g>
   <g id="patch_11">
    <path d="
M673.376 542.7
L673.376 60.3" style="fill:none;stroke:#000000;stroke-linecap:square;stroke-linejoin:miter;"/>
   </g>
   <g id="matplotlib.axis_3">
    <g id="xtick_9">
     <g id="line2d_39">
      <g>
       <use style="stroke:#000000;stroke-width:0.5;" x="673.375909091" xlink:href="#m93b0483c22" y="542.7"/>
      </g>
     </g>
     <g id="line2d_40">
      <g>
       <use style="stroke:#000000;stroke-width:0.5;" x="673.375909091" xlink:href="#m741efc42ff" y="60.3"/>
      </g>
     </g>
     <g id="text_21">
      <!-- 0 -->
      <g transform="translate(670.352471591 555.818125)scale(0.12 -0.12)">
       <use xlink:href="#BitstreamVeraSans-Roman-30"/>
      </g>
     </g>
    </g>
    <g id="xtick_10">
     <g id="line2d_41">
      <g>
       <use style="stroke:#000000;stroke-width:0.5;" x="735.245064935" xlink:href="#m93b0483c22" y="542.7"/>
      </g>
     </g>
     <g id="line2d_42">
      <g>
       <use style="stroke:#000000;stroke-width:0.5;" x="735.245064935" xlink:href="#m741efc42ff" y="60.3"/>
      </g>
     </g>
     <g id="text_22">
      <!-- 5 -->
      <g transform="translate(732.414752435 555.818125)scale(0.12 -0.12)">
       <use xlink:href="#BitstreamVeraSans-Roman-35"/>
      </g>
     </g>
    </g>
    <g id="xtick_11">
     <g id="line2d_43">
      <g>
       <use style="stroke:#000000;stroke-width:0.5;" x="797.114220779" xlink:href="#m93b0483c22" y="542.7"/>
      </g>
     </g>
     <g id="line2d_44">
      <g>
       <use style="stroke:#000000;stroke-width:0.5;" x="797.114220779" xlink:href="#m741efc42ff" y="60.3"/>
      </g>
     </g>
     <g id="text_23">
      <!-- 10 -->
      <g transform="translate(790.536720779 555.818125)scale(0.12 -0.12)">
       <use xlink:href="#BitstreamVeraSans-Roman-31"/>
       <use x="63.623046875" xlink:href="#BitstreamVeraSans-Roman-30"/>
      </g>
     </g>
    </g>
    <g id="xtick_12">
     <g id="line2d_45">
      <g>
       <use style="stroke:#000000;stroke-width:0.5;" x="858.983376623" xlink:href="#m93b0483c22" y="542.7"/>
      </g>
     </g>
     <g id="line2d_46">
      <g>
       <use style="stroke:#000000;stroke-width:0.5;" x="858.983376623" xlink:href="#m741efc42ff" y="60.3"/>
      </g>
     </g>
     <g id="text_24">
      <!-- 15 -->
      <g transform="translate(852.531501623 555.818125)scale(0.12 -0.12)">
       <use xlink:href="#BitstreamVeraSans-Roman-31"/>
       <use x="63.623046875" xlink:href="#BitstreamVeraSans-Roman-35"/>
      </g>
     </g>
    </g>
    <g id="xtick_13">
     <g id="line2d_47">
      <g>
       <use style="stroke:#000000;stroke-width:0.5;" x="920.852532468" xlink:href="#m93b0483c22" y="542.7"/>
      </g>
     </g>
     <g id="line2d_48">
      <g>
       <use style="stroke:#000000;stroke-width:0.5;" x="920.852532468" xlink:href="#m741efc42ff" y="60.3"/>
      </g>
     </g>
     <g id="text_25">
      <!-- 20 -->
      <g transform="translate(914.055657468 555.818125)scale(0.12 -0.12)">
       <use xlink:href="#BitstreamVeraSans-Roman-32"/>
       <use x="63.623046875" xlink:href="#BitstreamVeraSans-Roman-30"/>
      </g>
     </g>
    </g>
    <g id="xtick_14">
     <g id="line2d_49">
      <g>
       <use style="stroke:#000000;stroke-width:0.5;" x="982.721688312" xlink:href="#m93b0483c22" y="542.7"/>
      </g>
     </g>
     <g id="line2d_50">
      <g>
       <use style="stroke:#000000;stroke-width:0.5;" x="982.721688312" xlink:href="#m741efc42ff" y="60.3"/>
      </g>
     </g>
     <g id="text_26">
      <!-- 25 -->
      <g transform="translate(976.050438312 555.818125)scale(0.12 -0.12)">
       <use xlink:href="#BitstreamVeraSans-Roman-32"/>
       <use x="63.623046875" xlink:href="#BitstreamVeraSans-Roman-35"/>
      </g>
     </g>
    </g>
    <g id="xtick_15">
     <g id="line2d_51">
      <g>
       <use style="stroke:#000000;stroke-width:0.5;" x="1044.59084416" xlink:href="#m93b0483c22" y="542.7"/>
      </g>
     </g>
     <g id="line2d_52">
      <g>
       <use style="stroke:#000000;stroke-width:0.5;" x="1044.59084416" xlink:href="#m741efc42ff" y="60.3"/>
      </g>
     </g>
     <g id="text_27">
      <!-- 30 -->
      <g transform="translate(1037.81178166 555.818125)scale(0.12 -0.12)">
       <use xlink:href="#BitstreamVeraSans-Roman-33"/>
       <use x="63.623046875" xlink:href="#BitstreamVeraSans-Roman-30"/>
      </g>
     </g>
    </g>
    <g id="xtick_16">
     <g id="line2d_53">
      <g>
       <use style="stroke:#000000;stroke-width:0.5;" x="1106.46" xlink:href="#m93b0483c22" y="542.7"/>
      </g>
     </g>
     <g id="line2d_54">
      <g>
       <use style="stroke:#000000;stroke-width:0.5;" x="1106.46" xlink:href="#m741efc42ff" y="60.3"/>
      </g>
     </g>
     <g id="text_28">
      <!-- 35 -->
      <g transform="translate(1099.8065625 555.818125)scale(0.12 -0.12)">
       <use xlink:href="#BitstreamVeraSans-Roman-33"/>
       <use x="63.623046875" xlink:href="#BitstreamVeraSans-Roman-35"/>
      </g>
     </g>
    </g>
    <g id="text_29">
     <!-- time($s$) -->
     <g transform="translate(868.857954545 572.431875)scale(0.12 -0.12)">
      <use transform="translate(0.0 0.015625)" xlink:href="#BitstreamVeraSans-Roman-74"/>
      <use transform="translate(39.208984375 0.015625)" xlink:href="#BitstreamVeraSans-Roman-69"/>
      <use transform="translate(66.9921875 0.015625)" xlink:href="#BitstreamVeraSans-Roman-6d"/>
      <use transform="translate(164.404296875 0.015625)" xlink:href="#BitstreamVeraSans-Roman-65"/>
      <use transform="translate(225.927734375 0.015625)" xlink:href="#BitstreamVeraSans-Roman-28"/>
      <use transform="translate(264.94140625 0.015625)" xlink:href="#Cmmi10-73"/>
      <use transform="translate(311.71875 0.015625)" xlink:href="#BitstreamVeraSans-Roman-29"/>
     </g>
    </g>
   </g>
   <g id="matplotlib.axis_4">
    <g id="ytick_10">
     <g id="line2d_55">
      <g>
       <use style="stroke:#000000;stroke-width:0.5;" x="673.375909091" xlink:href="#m728421d6d4" y="542.7"/>
      </g>
     </g>
     <g id="line2d_56">
      <g>
       <use style="stroke:#000000;stroke-width:0.5;" x="1106.46" xlink:href="#mcb0005524f" y="542.7"/>
      </g>
     </g>
     <g id="text_30">
      <!-- 0.0 -->
      <defs>
       <path d="
M10.6875 12.4062
L21 12.4062
L21 0
L10.6875 0
z
" id="BitstreamVeraSans-Roman-2e"/>
      </defs>
      <g transform="translate(651.880284091 546.01125)scale(0.12 -0.12)">
       <use xlink:href="#BitstreamVeraSans-Roman-30"/>
       <use x="63.623046875" xlink:href="#BitstreamVeraSans-Roman-2e"/>
       <use x="95.41015625" xlink:href="#BitstreamVeraSans-Roman-30"/>
      </g>
     </g>
    </g>
    <g id="ytick_11">
     <g id="line2d_57">
      <g>
       <use style="stroke:#000000;stroke-width:0.5;" x="673.375909091" xlink:href="#m728421d6d4" y="482.4"/>
      </g>
     </g>
     <g id="line2d_58">
      <g>
       <use style="stroke:#000000;stroke-width:0.5;" x="1106.46" xlink:href="#mcb0005524f" y="482.4"/>
      </g>
     </g>
     <g id="text_31">
      <!-- 0.5 -->
      <g transform="translate(652.131534091 485.71125)scale(0.12 -0.12)">
       <use xlink:href="#BitstreamVeraSans-Roman-30"/>
       <use x="63.623046875" xlink:href="#BitstreamVeraSans-Roman-2e"/>
       <use x="95.41015625" xlink:href="#BitstreamVeraSans-Roman-35"/>
      </g>
     </g>
    </g>
    <g id="ytick_12">
     <g id="line2d_59">
      <g>
       <use style="stroke:#000000;stroke-width:0.5;" x="673.375909091" xlink:href="#m728421d6d4" y="422.1"/>
      </g>
     </g>
     <g id="line2d_60">
      <g>
       <use style="stroke:#000000;stroke-width:0.5;" x="1106.46" xlink:href="#mcb0005524f" y="422.1"/>
      </g>
     </g>
     <g id="text_32">
      <!-- 1.0 -->
      <g transform="translate(652.407159091 425.41125)scale(0.12 -0.12)">
       <use xlink:href="#BitstreamVeraSans-Roman-31"/>
       <use x="63.623046875" xlink:href="#BitstreamVeraSans-Roman-2e"/>
       <use x="95.41015625" xlink:href="#BitstreamVeraSans-Roman-30"/>
      </g>
     </g>
    </g>
    <g id="ytick_13">
     <g id="line2d_61">
      <g>
       <use style="stroke:#000000;stroke-width:0.5;" x="673.375909091" xlink:href="#m728421d6d4" y="361.8"/>
      </g>
     </g>
     <g id="line2d_62">
      <g>
       <use style="stroke:#000000;stroke-width:0.5;" x="1106.46" xlink:href="#mcb0005524f" y="361.8"/>
      </g>
     </g>
     <g id="text_33">
      <!-- 1.5 -->
      <g transform="translate(652.658409091 365.11125)scale(0.12 -0.12)">
       <use xlink:href="#BitstreamVeraSans-Roman-31"/>
       <use x="63.623046875" xlink:href="#BitstreamVeraSans-Roman-2e"/>
       <use x="95.41015625" xlink:href="#BitstreamVeraSans-Roman-35"/>
      </g>
     </g>
    </g>
    <g id="ytick_14">
     <g id="line2d_63">
      <g>
       <use style="stroke:#000000;stroke-width:0.5;" x="673.375909091" xlink:href="#m728421d6d4" y="301.5"/>
      </g>
     </g>
     <g id="line2d_64">
      <g>
       <use style="stroke:#000000;stroke-width:0.5;" x="1106.46" xlink:href="#mcb0005524f" y="301.5"/>
      </g>
     </g>
     <g id="text_34">
      <!-- 2.0 -->
      <g transform="translate(651.968409091 304.81125)scale(0.12 -0.12)">
       <use xlink:href="#BitstreamVeraSans-Roman-32"/>
       <use x="63.623046875" xlink:href="#BitstreamVeraSans-Roman-2e"/>
       <use x="95.41015625" xlink:href="#BitstreamVeraSans-Roman-30"/>
      </g>
     </g>
    </g>
    <g id="ytick_15">
     <g id="line2d_65">
      <g>
       <use style="stroke:#000000;stroke-width:0.5;" x="673.375909091" xlink:href="#m728421d6d4" y="241.2"/>
      </g>
     </g>
     <g id="line2d_66">
      <g>
       <use style="stroke:#000000;stroke-width:0.5;" x="1106.46" xlink:href="#mcb0005524f" y="241.2"/>
      </g>
     </g>
     <g id="text_35">
      <!-- 2.5 -->
      <g transform="translate(652.219659091 244.51125)scale(0.12 -0.12)">
       <use xlink:href="#BitstreamVeraSans-Roman-32"/>
       <use x="63.623046875" xlink:href="#BitstreamVeraSans-Roman-2e"/>
       <use x="95.41015625" xlink:href="#BitstreamVeraSans-Roman-35"/>
      </g>
     </g>
    </g>
    <g id="ytick_16">
     <g id="line2d_67">
      <g>
       <use style="stroke:#000000;stroke-width:0.5;" x="673.375909091" xlink:href="#m728421d6d4" y="180.9"/>
      </g>
     </g>
     <g id="line2d_68">
      <g>
       <use style="stroke:#000000;stroke-width:0.5;" x="1106.46" xlink:href="#mcb0005524f" y="180.9"/>
      </g>
     </g>
     <g id="text_36">
      <!-- 3.0 -->
      <g transform="translate(652.004034091 184.21125)scale(0.12 -0.12)">
       <use xlink:href="#BitstreamVeraSans-Roman-33"/>
       <use x="63.623046875" xlink:href="#BitstreamVeraSans-Roman-2e"/>
       <use x="95.41015625" xlink:href="#BitstreamVeraSans-Roman-30"/>
      </g>
     </g>
    </g>
    <g id="ytick_17">
     <g id="line2d_69">
      <g>
       <use style="stroke:#000000;stroke-width:0.5;" x="673.375909091" xlink:href="#m728421d6d4" y="120.6"/>
      </g>
     </g>
     <g id="line2d_70">
      <g>
       <use style="stroke:#000000;stroke-width:0.5;" x="1106.46" xlink:href="#mcb0005524f" y="120.6"/>
      </g>
     </g>
     <g id="text_37">
      <!-- 3.5 -->
      <g transform="translate(652.255284091 123.91125)scale(0.12 -0.12)">
       <use xlink:href="#BitstreamVeraSans-Roman-33"/>
       <use x="63.623046875" xlink:href="#BitstreamVeraSans-Roman-2e"/>
       <use x="95.41015625" xlink:href="#BitstreamVeraSans-Roman-35"/>
      </g>
     </g>
    </g>
    <g id="ytick_18">
     <g id="line2d_71">
      <g>
       <use style="stroke:#000000;stroke-width:0.5;" x="673.375909091" xlink:href="#m728421d6d4" y="60.3"/>
      </g>
     </g>
     <g id="line2d_72">
      <g>
       <use style="stroke:#000000;stroke-width:0.5;" x="1106.46" xlink:href="#mcb0005524f" y="60.3"/>
      </g>
     </g>
     <g id="text_38">
      <!-- 4.0 -->
      <g transform="translate(651.675909091 63.61125)scale(0.12 -0.12)">
       <use xlink:href="#BitstreamVeraSans-Roman-34"/>
       <use x="63.623046875" xlink:href="#BitstreamVeraSans-Roman-2e"/>
       <use x="95.41015625" xlink:href="#BitstreamVeraSans-Roman-30"/>
      </g>
     </g>
    </g>
    <g id="text_39">
     <!-- $\omega$($Rad/s$) -->
     <defs>
      <path d="
M5.60938 -23
Q5.60938 -22.7031 5.71875 -22.6094
L40.4844 73.7812
Q40.6719 74.3594 41.1562 74.6719
Q41.6562 75 42.2812 75
Q43.1719 75 43.7188 74.4531
Q44.2812 73.9219 44.2812 73
L44.2812 72.6094
L9.51562 -23.7812
Q8.9375 -25 7.625 -25
Q6.78125 -25 6.1875 -24.4062
Q5.60938 -23.8281 5.60938 -23" id="Cmmi10-3d"/>
      <path d="
M12.1094 -1.125
Q6.45312 -1.125 3.9375 3.01562
Q1.42188 7.17188 1.42188 13.1875
Q1.42188 17.1406 2.125 20.9219
Q2.82812 24.7031 4.26562 28.5781
Q5.71875 32.4688 7.5625 35.8594
Q9.42188 39.2656 11.7188 42.4844
Q12.1562 43.1094 12.8906 43.1094
Q13.5312 43.1094 13.9219 42.7188
Q14.3125 42.3281 14.3125 41.7969
Q14.3125 41.2656 14.0156 40.8281
Q4.89062 28.2656 4.89062 17.6719
Q4.89062 13.0938 7 9.79688
Q9.125 6.5 13.4844 6.5
Q17.2344 6.5 20.4375 8.6875
Q23.6406 10.8906 25.9844 14.3125
Q25.9844 16.0625 26.5938 19.7656
Q27.2031 23.4844 28.4844 26.3906
Q29.7812 29.2969 31.5938 29.2969
Q33.8906 29.2969 33.8906 26.6094
Q33.8906 25.0469 33.2188 22.6719
Q32.5625 20.3125 31.75 18.2656
Q30.9531 16.2188 29.7812 13.625
Q30.9531 6.5 36.9219 6.5
Q40.375 6.5 43.8594 8.5
Q47.3594 10.5 50.0469 13.75
Q52.7344 17 54.2656 20.75
Q55.8125 24.5156 55.8125 27.875
Q55.8125 30.9062 54.8594 32.5938
Q53.9062 34.2812 52.3438 36.125
Q50.7812 37.9844 50.7812 39.1094
Q50.7812 41.0625 52.4375 42.6719
Q54.1094 44.2812 56 44.2812
Q58.4531 44.2812 59.4688 42.0625
Q60.5 39.8438 60.5 37.0156
Q60.5 32.4219 58.6719 25.4375
Q56.8438 18.4531 54.5 13.8125
Q51.2656 7.51562 46.4062 3.1875
Q41.5469 -1.125 35.5 -1.125
Q31.6406 -1.125 29.2656 1.1875
Q26.9062 3.51562 26.2188 7.51562
Q23.4375 3.5625 19.875 1.21875
Q16.3125 -1.125 12.1094 -1.125" id="Cmmi10-21"/>
     </defs>
     <g transform="translate(643.675909091 326.58)rotate(-90.0)scale(0.12 -0.12)">
      <use transform="translate(0.0 0.125)" xlink:href="#Cmmi10-21"/>
      <use transform="translate(62.20703125 0.125)" xlink:href="#BitstreamVeraSans-Roman-28"/>
      <use transform="translate(101.220703125 0.125)" xlink:href="#Cmmi10-52"/>
      <use transform="translate(177.099609375 0.125)" xlink:href="#Cmmi10-61"/>
      <use transform="translate(229.8828125 0.125)" xlink:href="#Cmmi10-64"/>
      <use transform="translate(281.884765625 0.125)" xlink:href="#Cmmi10-3d"/>
      <use transform="translate(331.884765625 0.125)" xlink:href="#Cmmi10-73"/>
      <use transform="translate(378.662109375 0.125)" xlink:href="#BitstreamVeraSans-Roman-29"/>
     </g>
    </g>
   </g>
   <g id="legend_2">
    <g id="line2d_73">
     <path d="
M1058.98 73.3932
L1072.97 73.3932" style="fill:none;stroke:#bf00bf;stroke-linecap:square;stroke-width:2;"/>
    </g>
    <g id="line2d_74"/>
    <g id="text_40">
     <!-- $\omega$-$t$ -->
     <g transform="translate(1083.969 76.891798125)scale(0.09996 -0.09996)">
      <use transform="translate(0.0 0.40625)" xlink:href="#Cmmi10-21"/>
      <use transform="translate(62.20703125 0.40625)" xlink:href="#BitstreamVeraSans-Roman-2d"/>
      <use transform="translate(98.291015625 0.40625)" xlink:href="#Cmmi10-74"/>
     </g>
    </g>
   </g>
  </g>
  <g id="text_41">
   <!-- circular orbit, $m1/M=$0.25 -->
   <defs>
    <path id="BitstreamVeraSans-Roman-20"/>
    <path d="
M9.28125 0
L9.28125 3.51562
Q21.7812 3.51562 21.7812 6.6875
L21.7812 59.1875
Q16.6094 56.6875 8.6875 56.6875
L8.6875 60.2031
Q20.9531 60.2031 27.2031 66.6094
L28.6094 66.6094
Q28.9531 66.6094 29.2656 66.3281
Q29.5938 66.0625 29.5938 65.7188
L29.5938 6.6875
Q29.5938 3.51562 42.0938 3.51562
L42.0938 0
z
" id="Cmr10-31"/>
    <path d="
M5.07812 0
Q4.10938 0 4.10938 1.3125
Q4.15625 1.5625 4.29688 2.14062
Q4.4375 2.73438 4.6875 3.125
Q4.9375 3.51562 5.42188 3.51562
Q14.9375 3.51562 16.5 9.625
L29.5 61.8125
Q29.6875 62.7969 29.6875 63.1875
Q29.6875 64.2656 28.5156 64.4062
Q26.6094 64.7969 21.2969 64.7969
Q20.3125 64.7969 20.3125 66.1094
Q20.3594 66.3594 20.5 66.9688
Q20.6562 67.5781 20.9219 67.9375
Q21.1875 68.3125 21.5781 68.3125
L39.2031 68.3125
Q40.3281 68.3125 40.4844 67.1875
L48.2969 9.90625
L84.7188 67.1875
Q85.4062 68.3125 86.625 68.3125
L103.609 68.3125
Q104.594 68.3125 104.594 67
Q104.547 66.75 104.391 66.1406
Q104.25 65.5312 103.984 65.1562
Q103.719 64.7969 103.328 64.7969
Q97.2188 64.7969 94.8281 64.1094
Q93.5 63.6719 92.9219 61.375
L79.2031 6.5
Q79 5.51562 79 5.07812
Q79 4.6875 79.125 4.42188
Q79.25 4.15625 79.4688 4.07812
Q79.6875 4 80.1719 3.90625
Q82.0781 3.51562 87.4062 3.51562
Q88.375 3.51562 88.375 2.20312
Q88.0312 0.78125 87.8281 0.390625
Q87.6406 0 86.7188 0
L60.5938 0
Q59.625 0 59.625 1.3125
Q59.6719 1.5625 59.8125 2.17188
Q59.9688 2.78125 60.2344 3.14062
Q60.5 3.51562 60.8906 3.51562
Q67 3.51562 69.3906 4.20312
Q70.7031 4.64062 71.2969 6.89062
L85.6875 64.7969
L45.3125 1.125
Q44.7344 0 43.3125 0
Q42.0469 0 41.8906 1.125
L33.4062 64.0156
L19.6719 9.1875
Q19.5781 8.9375 19.5312 8.5625
Q19.4844 8.20312 19.3906 7.71875
Q19.3906 5.125 21.6562 4.3125
Q23.9219 3.51562 27.2031 3.51562
Q28.2188 3.51562 28.2188 2.20312
Q27.875 0.875 27.6562 0.4375
Q27.4375 0 26.5156 0
z
" id="Cmmi10-4d"/>
    <path d="
M7.71875 1.70312
Q7.71875 2.29688 7.8125 2.59375
L15.2812 32.4219
Q16.0156 35.2031 16.0156 37.3125
Q16.0156 41.6094 13.0938 41.6094
Q9.96875 41.6094 8.45312 37.8594
Q6.9375 34.125 5.51562 28.4219
Q5.51562 28.125 5.21875 27.9531
Q4.9375 27.7812 4.6875 27.7812
L3.51562 27.7812
Q3.17188 27.7812 2.92188 28.1406
Q2.6875 28.5156 2.6875 28.8125
Q3.76562 33.1562 4.76562 36.1719
Q5.76562 39.2031 7.89062 41.6875
Q10.0156 44.1875 13.1875 44.1875
Q16.9375 44.1875 19.8125 41.8125
Q22.7031 39.4531 22.7031 35.7969
Q25.6875 39.7031 29.6875 41.9375
Q33.6875 44.1875 38.1875 44.1875
Q42.9219 44.1875 46.3594 41.7656
Q49.8125 39.3594 49.8125 34.9062
Q52.875 39.2656 57 41.7188
Q61.1406 44.1875 66.0156 44.1875
Q71.1875 44.1875 74.3281 41.375
Q77.4844 38.5781 77.4844 33.4062
Q77.4844 29.2969 75.6562 23.4844
Q73.8281 17.6719 71.0938 10.5
Q69.6719 7.03125 69.6719 4.5
Q69.6719 1.51562 72.0156 1.51562
Q75.9219 1.51562 78.5156 5.70312
Q81.1094 9.90625 82.1719 14.7031
Q82.4688 15.2812 83.0156 15.2812
L84.1875 15.2812
Q84.5781 15.2812 84.8438 15.0156
Q85.1094 14.75 85.1094 14.4062
Q85.1094 14.3125 85.0156 14.1094
Q83.6406 8.45312 80.25 3.65625
Q76.8594 -1.125 71.7812 -1.125
Q68.2656 -1.125 65.7656 1.29688
Q63.2812 3.71875 63.2812 7.17188
Q63.2812 8.9375 64.1094 11.0781
Q66.9375 18.6094 68.8125 24.5156
Q70.7031 30.4219 70.7031 34.9062
Q70.7031 37.7031 69.5781 39.6562
Q68.4531 41.6094 65.8281 41.6094
Q60.3594 41.6094 56.3438 38.25
Q52.3438 34.9062 49.4219 29.3906
Q49.2188 28.4219 49.125 27.875
L42.6719 2.20312
Q42.3281 0.828125 41.125 -0.140625
Q39.9375 -1.125 38.4844 -1.125
Q37.3125 -1.125 36.4062 -0.34375
Q35.5 0.4375 35.5 1.70312
Q35.5 2.29688 35.5938 2.59375
L42 28.0781
Q43.0156 32.1719 43.0156 34.9062
Q43.0156 37.7031 41.8594 39.6562
Q40.7188 41.6094 37.9844 41.6094
Q34.3281 41.6094 31.25 39.9844
Q28.1719 38.375 25.875 35.7188
Q23.5781 33.0625 21.6875 29.3906
L14.8906 2.20312
Q14.5469 0.828125 13.3438 -0.140625
Q12.1562 -1.125 10.6875 -1.125
Q9.46875 -1.125 8.59375 -0.34375
Q7.71875 0.4375 7.71875 1.70312" id="Cmmi10-6d"/>
    <path d="
M41.1094 46.2969
Q39.5938 47.1719 37.8125 47.5781
Q36.0312 48 33.8906 48
Q26.2656 48 22.1875 43.0469
Q18.1094 38.0938 18.1094 28.8125
L18.1094 0
L9.07812 0
L9.07812 54.6875
L18.1094 54.6875
L18.1094 46.1875
Q20.9531 51.1719 25.4844 53.5781
Q30.0312 56 36.5312 56
Q37.4531 56 38.5781 55.875
Q39.7031 55.7656 41.0625 55.5156
z
" id="BitstreamVeraSans-Roman-72"/>
    <path d="
M30.6094 48.3906
Q23.3906 48.3906 19.1875 42.75
Q14.9844 37.1094 14.9844 27.2969
Q14.9844 17.4844 19.1562 11.8438
Q23.3438 6.20312 30.6094 6.20312
Q37.7969 6.20312 41.9844 11.8594
Q46.1875 17.5312 46.1875 27.2969
Q46.1875 37.0156 41.9844 42.7031
Q37.7969 48.3906 30.6094 48.3906
M30.6094 56
Q42.3281 56 49.0156 48.375
Q55.7188 40.7656 55.7188 27.2969
Q55.7188 13.875 49.0156 6.21875
Q42.3281 -1.42188 30.6094 -1.42188
Q18.8438 -1.42188 12.1719 6.21875
Q5.51562 13.875 5.51562 27.2969
Q5.51562 40.7656 12.1719 48.375
Q18.8438 56 30.6094 56" id="BitstreamVeraSans-Roman-6f"/>
    <path d="
M9.42188 75.9844
L18.4062 75.9844
L18.4062 0
L9.42188 0
z
" id="BitstreamVeraSans-Roman-6c"/>
    <path d="
M11.7188 12.4062
L22.0156 12.4062
L22.0156 4
L14.0156 -11.625
L7.71875 -11.625
L11.7188 4
z
" id="BitstreamVeraSans-Roman-2c"/>
    <path d="
M7.51562 13.2812
Q6.6875 13.2812 6.14062 13.9062
Q5.60938 14.5469 5.60938 15.2812
Q5.60938 16.1094 6.14062 16.6875
Q6.6875 17.2812 7.51562 17.2812
L70.3125 17.2812
Q71.0469 17.2812 71.5781 16.6875
Q72.125 16.1094 72.125 15.2812
Q72.125 14.5469 71.5781 13.9062
Q71.0469 13.2812 70.3125 13.2812
z

M7.51562 32.7188
Q6.6875 32.7188 6.14062 33.2969
Q5.60938 33.8906 5.60938 34.7188
Q5.60938 35.4531 6.14062 36.0781
Q6.6875 36.7188 7.51562 36.7188
L70.3125 36.7188
Q71.0469 36.7188 71.5781 36.0781
Q72.125 35.4531 72.125 34.7188
Q72.125 33.8906 71.5781 33.2969
Q71.0469 32.7188 70.3125 32.7188
z
" id="Cmr10-3d"/>
    <path d="
M8.5 21.5781
L8.5 54.6875
L17.4844 54.6875
L17.4844 21.9219
Q17.4844 14.1562 20.5 10.2656
Q23.5312 6.39062 29.5938 6.39062
Q36.8594 6.39062 41.0781 11.0312
Q45.3125 15.6719 45.3125 23.6875
L45.3125 54.6875
L54.2969 54.6875
L54.2969 0
L45.3125 0
L45.3125 8.40625
Q42.0469 3.42188 37.7188 1
Q33.4062 -1.42188 27.6875 -1.42188
Q18.2656 -1.42188 13.375 4.4375
Q8.5 10.2969 8.5 21.5781" id="BitstreamVeraSans-Roman-75"/>
    <path d="
M34.2812 27.4844
Q23.3906 27.4844 19.1875 25
Q14.9844 22.5156 14.9844 16.5
Q14.9844 11.7188 18.1406 8.90625
Q21.2969 6.10938 26.7031 6.10938
Q34.1875 6.10938 38.7031 11.4062
Q43.2188 16.7031 43.2188 25.4844
L43.2188 27.4844
z

M52.2031 31.2031
L52.2031 0
L43.2188 0
L43.2188 8.29688
Q40.1406 3.32812 35.5469 0.953125
Q30.9531 -1.42188 24.3125 -1.42188
Q15.9219 -1.42188 10.9531 3.29688
Q6 8.01562 6 15.9219
Q6 25.1406 12.1719 29.8281
Q18.3594 34.5156 30.6094 34.5156
L43.2188 34.5156
L43.2188 35.4062
Q43.2188 41.6094 39.1406 45
Q35.0625 48.3906 27.6875 48.3906
Q23 48.3906 18.5469 47.2656
Q14.1094 46.1406 10.0156 43.8906
L10.0156 52.2031
Q14.9375 54.1094 19.5781 55.0469
Q24.2188 56 28.6094 56
Q40.4844 56 46.3438 49.8438
Q52.2031 43.7031 52.2031 31.2031" id="BitstreamVeraSans-Roman-61"/>
    <path d="
M48.7812 52.5938
L48.7812 44.1875
Q44.9688 46.2969 41.1406 47.3438
Q37.3125 48.3906 33.4062 48.3906
Q24.6562 48.3906 19.8125 42.8438
Q14.9844 37.3125 14.9844 27.2969
Q14.9844 17.2812 19.8125 11.7344
Q24.6562 6.20312 33.4062 6.20312
Q37.3125 6.20312 41.1406 7.25
Q44.9688 8.29688 48.7812 10.4062
L48.7812 2.09375
Q45.0156 0.34375 40.9844 -0.53125
Q36.9688 -1.42188 32.4219 -1.42188
Q20.0625 -1.42188 12.7812 6.34375
Q5.51562 14.1094 5.51562 27.2969
Q5.51562 40.6719 12.8594 48.3281
Q20.2188 56 33.0156 56
Q37.1562 56 41.1094 55.1406
Q45.0625 54.2969 48.7812 52.5938" id="BitstreamVeraSans-Roman-63"/>
    <path d="
M48.6875 27.2969
Q48.6875 37.2031 44.6094 42.8438
Q40.5312 48.4844 33.4062 48.4844
Q26.2656 48.4844 22.1875 42.8438
Q18.1094 37.2031 18.1094 27.2969
Q18.1094 17.3906 22.1875 11.75
Q26.2656 6.10938 33.4062 6.10938
Q40.5312 6.10938 44.6094 11.75
Q48.6875 17.3906 48.6875 27.2969
M18.1094 46.3906
Q20.9531 51.2656 25.2656 53.625
Q29.5938 56 35.5938 56
Q45.5625 56 51.7812 48.0938
Q58.0156 40.1875 58.0156 27.2969
Q58.0156 14.4062 51.7812 6.48438
Q45.5625 -1.42188 35.5938 -1.42188
Q29.5938 -1.42188 25.2656 0.953125
Q20.9531 3.32812 18.1094 8.20312
L18.1094 0
L9.07812 0
L9.07812 75.9844
L18.1094 75.9844
z
" id="BitstreamVeraSans-Roman-62"/>
   </defs>
   <g transform="translate(536.4 21.18)scale(0.12 -0.12)">
    <use transform="translate(0.0 0.015625)" xlink:href="#BitstreamVeraSans-Roman-63"/>
    <use transform="translate(54.98046875 0.015625)" xlink:href="#BitstreamVeraSans-Roman-69"/>
    <use transform="translate(82.763671875 0.015625)" xlink:href="#BitstreamVeraSans-Roman-72"/>
    <use transform="translate(123.876953125 0.015625)" xlink:href="#BitstreamVeraSans-Roman-63"/>
    <use transform="translate(178.857421875 0.015625)" xlink:href="#BitstreamVeraSans-Roman-75"/>
    <use transform="translate(242.236328125 0.015625)" xlink:href="#BitstreamVeraSans-Roman-6c"/>
    <use transform="translate(270.01953125 0.015625)" xlink:href="#BitstreamVeraSans-Roman-61"/>
    <use transform="translate(331.298828125 0.015625)" xlink:href="#BitstreamVeraSans-Roman-72"/>
    <use transform="translate(372.412109375 0.015625)" xlink:href="#BitstreamVeraSans-Roman-20"/>
    <use transform="translate(404.19921875 0.015625)" xlink:href="#BitstreamVeraSans-Roman-6f"/>
    <use transform="translate(465.380859375 0.015625)" xlink:href="#BitstreamVeraSans-Roman-72"/>
    <use transform="translate(506.494140625 0.015625)" xlink:href="#BitstreamVeraSans-Roman-62"/>
    <use transform="translate(569.970703125 0.015625)" xlink:href="#BitstreamVeraSans-Roman-69"/>
    <use transform="translate(597.75390625 0.015625)" xlink:href="#BitstreamVeraSans-Roman-74"/>
    <use transform="translate(636.962890625 0.015625)" xlink:href="#BitstreamVeraSans-Roman-2c"/>
    <use transform="translate(668.75 0.015625)" xlink:href="#BitstreamVeraSans-Roman-20"/>
    <use transform="translate(700.537109375 0.015625)" xlink:href="#Cmmi10-6d"/>
    <use transform="translate(788.330078125 0.015625)" xlink:href="#Cmr10-31"/>
    <use transform="translate(838.330078125 0.015625)" xlink:href="#Cmmi10-3d"/>
    <use transform="translate(888.330078125 0.015625)" xlink:href="#Cmmi10-4d"/>
    <use transform="translate(1002.91015625 0.015625)" xlink:href="#Cmr10-3d"/>
    <use transform="translate(1086.96875 0.015625)" xlink:href="#BitstreamVeraSans-Roman-30"/>
    <use transform="translate(1150.59179688 0.015625)" xlink:href="#BitstreamVeraSans-Roman-2e"/>
    <use transform="translate(1176.87890625 0.015625)" xlink:href="#BitstreamVeraSans-Roman-32"/>
    <use transform="translate(1240.50195312 0.015625)" xlink:href="#BitstreamVeraSans-Roman-35"/>
   </g>
  </g>
 </g>
 <defs>
  <clipPath id="paa341766a5">
   <rect height="482.4" width="433.084090909" x="153.675" y="60.3"/>
  </clipPath>
  <clipPath id="p9b96c9b755">
   <rect height="482.4" width="433.084090909" x="673.375909091" y="60.3"/>
  </clipPath>
 </defs>
</svg>
