<?xml version="1.0" encoding="utf-8" standalone="no"?>
<!DOCTYPE svg PUBLIC "-//W3C//DTD SVG 1.1//EN"
  "http://www.w3.org/Graphics/SVG/1.1/DTD/svg11.dtd">
<!-- Created with matplotlib (http://matplotlib.org/) -->
<svg height="603pt" version="1.1" viewBox="0 0 1229 603" width="1229pt" xmlns="http://www.w3.org/2000/svg" xmlns:xlink="http://www.w3.org/1999/xlink">
 <defs>
  <style type="text/css">
*{stroke-linecap:butt;stroke-linejoin:round;}
  </style>
 </defs>
 <g id="figure_1">
  <g id="patch_1">
   <path d="
M0 603
L1229.4 603
L1229.4 0
L0 0
z
" style="fill:#ffffff;"/>
  </g>
  <g id="axes_1">
   <g id="patch_2">
    <path d="
M153.675 542.7
L586.759 542.7
L586.759 60.3
L153.675 60.3
z
" style="fill:#ffffff;"/>
   </g>
   <g id="line2d_1">
    <path clip-path="url(#paa341766a5)" d="
M153.675 301.5
L154.504 300.973
L154.999 300.36
L155.482 299.383
L156.001 297.785
L156.57 295.26
L157.202 291.388
L157.919 285.503
L158.736 276.828
L159.676 264.299
L160.815 245.949
L162.572 213.439
L164.601 176.996
L165.764 159.971
L166.729 148.88
L167.571 141.605
L168.313 136.995
L168.969 134.215
L169.563 132.595
L170.107 131.704
L170.664 131.199
L172.397 129.937
L172.879 129.051
L173.387 127.619
L173.943 125.329
L174.562 121.778
L175.255 116.429
L175.713 112.066
L175.725 490.815
L175.824 489.781
L176.69 479.422
L177.717 464.291
L179.041 441.204
L182.543 378.415
L183.62 363.867
L184.535 354.289
L185.34 348.055
L186.045 344.187
L186.676 341.863
L187.245 340.541
L187.79 339.801
L188.384 339.365
L189.633 338.563
L190.116 337.884
L190.611 336.769
L191.143 334.968
L191.725 332.16
L192.38 327.817
L193.123 321.292
L193.964 311.793
L194.942 298.08
L196.167 277.5
L200.547 200.628
L201.549 188.483
L202.416 180.526
L203.17 175.494
L203.839 172.409
L204.445 170.582
L205.002 169.561
L205.546 169
L206.301 168.576
L207.019 168.1
L207.514 167.481
L207.996 166.496
L208.516 164.888
L209.085 162.349
L209.716 158.461
L210.434 152.556
L211.25 143.858
L212.191 131.305
L213.329 112.931
L213.379 112.067
L213.391 490.726
L213.49 488.983
L215.532 450.863
L217.239 420.885
L218.378 404.6
L219.331 393.954
L220.16 387.019
L220.89 382.652
L221.533 380.032
L222.115 378.511
L222.659 377.661
L223.228 377.173
L224.812 376.072
L225.295 375.26
L225.802 373.928
L226.347 371.824
L226.953 368.535
L227.633 363.536
L228.401 356.159
L229.279 345.444
L230.319 329.88
L231.692 305.648
L234.909 247.679
L236.01 232.391
L236.939 222.366
L237.755 215.79
L238.473 211.68
L239.116 209.195
L239.698 207.773
L240.242 206.99
L240.824 206.537
L242.197 205.634
L242.68 204.913
L243.175 203.739
L243.707 201.864
L244.301 198.889
L244.969 194.308
L245.724 187.462
L246.578 177.553
L247.58 163.153
L248.855 141.335
L250.401 112.232
L250.414 490.875
L250.513 489.011
L252.233 458.769
L253.371 442.451
L254.324 431.772
L255.153 424.81
L255.883 420.42
L256.526 417.783
L257.108 416.249
L257.652 415.389
L258.221 414.895
L259.83 413.769
L260.313 412.946
L260.82 411.598
L261.364 409.475
L261.971 406.161
L262.651 401.133
L263.431 393.586
L264.322 382.632
L265.374 366.757
L266.772 341.943
L269.853 286.327
L270.967 270.695
L271.907 260.414
L272.724 253.747
L273.441 249.564
L274.085 247.02
L274.666 245.556
L275.211 244.744
L275.792 244.273
L277.252 243.289
L277.735 242.529
L278.23 241.304
L278.774 239.307
L279.368 236.227
L280.037 231.516
L280.791 224.518
L281.658 214.278
L282.672 199.469
L283.971 176.977
L287.585 112.236
L287.597 490.927
L287.696 489.462
L288.748 475.648
L289.651 466.514
L290.443 460.616
L291.136 456.986
L291.755 454.819
L292.324 453.572
L292.868 452.883
L293.487 452.463
L294.576 451.781
L295.058 451.15
L295.541 450.133
L296.061 448.483
L296.63 445.89
L297.273 441.845
L297.991 435.833
L298.808 427.013
L299.76 414.144
L300.924 395.175
L302.817 359.947
L304.673 326.949
L305.824 310.264
L306.789 299.305
L307.618 292.237
L308.348 287.759
L309.004 285.012
L309.598 283.417
L310.142 282.543
L310.711 282.041
L312.369 280.859
L312.852 280.009
L313.359 278.624
L313.916 276.396
L314.535 272.921
L315.228 267.663
L316.007 259.942
L316.911 248.624
L317.975 232.314
L319.422 206.358
L322.256 155.073
L323.394 138.805
L324.347 128.174
L325.176 121.253
L325.906 116.897
L326.55 114.286
L327.131 112.772
L327.552 112.078
L327.564 490.938
L327.663 490.816
L328.233 490.324
L329.841 489.196
L330.324 488.37
L330.831 487.018
L331.376 484.89
L331.982 481.57
L332.662 476.534
L333.442 468.979
L334.333 458.016
L335.385 442.131
L336.783 417.31
L339.852 361.897
L340.978 346.084
L341.918 335.812
L342.735 329.155
L343.452 324.978
L344.096 322.441
L344.677 320.98
L345.222 320.172
L345.803 319.702
L347.251 318.731
L347.734 317.978
L348.229 316.762
L348.773 314.777
L349.367 311.712
L350.035 307.019
L350.79 300.042
L351.656 289.826
L352.671 275.042
L353.97 252.572
L357.67 186.512
L358.734 172.449
L359.637 163.255
L360.429 157.305
L361.135 153.579
L361.753 151.399
L362.323 150.142
L362.867 149.447
L363.486 149.023
L364.587 148.333
L365.07 147.7
L365.552 146.679
L366.072 145.025
L366.641 142.427
L367.284 138.375
L368.002 132.355
L368.819 123.526
L369.673 112.107
L369.685 490.802
L369.784 489.339
L370.947 470.328
L372.865 434.611
L374.684 402.324
L375.835 385.651
L376.8 374.702
L377.629 367.643
L378.359 363.173
L379.015 360.432
L379.596 358.866
L380.141 357.985
L380.698 357.486
L382.405 356.251
L382.888 355.377
L383.395 353.961
L383.952 351.692
L384.571 348.167
L385.264 342.848
L386.056 334.919
L386.959 323.489
L388.035 306.86
L389.52 280.09
L392.218 231.236
L393.368 214.664
L394.321 203.932
L395.15 196.923
L395.88 192.495
L396.536 189.787
L397.118 188.246
L397.662 187.381
L398.231 186.885
L399.865 185.73
L400.347 184.891
L400.855 183.522
L401.411 181.314
L402.03 177.865
L402.723 172.637
L403.503 164.951
L404.394 153.843
L405.458 137.607
L406.881 112.175
L406.893 490.818
L406.992 488.954
L409.727 439.419
L410.877 422.87
L411.83 412.159
L412.659 405.169
L413.389 400.756
L414.045 398.06
L414.627 396.527
L415.171 395.669
L415.74 395.177
L417.349 394.049
L417.832 393.225
L418.339 391.875
L418.883 389.75
L419.49 386.433
L420.17 381.401
L420.95 373.851
L421.841 362.892
L422.892 347.012
L424.291 322.195
L427.372 266.583
L428.485 250.957
L429.426 240.68
L430.243 234.018
L430.96 229.838
L431.604 227.298
L432.185 225.835
L432.73 225.025
L433.311 224.554
L434.759 223.585
L435.242 222.833
L435.736 221.618
L436.281 219.636
L436.875 216.574
L437.543 211.885
L438.298 204.913
L439.164 194.701
L440.179 179.922
L441.478 157.457
L443.903 112.209
L443.916 490.866
L444.015 489.125
L445.339 467.927
L446.378 454.647
L447.269 445.939
L448.048 440.359
L448.741 436.9
L449.36 434.866
L449.917 433.733
L450.461 433.098
L451.117 432.689
L452.045 432.11
L452.54 431.491
L453.023 430.506
L453.542 428.898
L454.112 426.36
L454.743 422.471
L455.46 416.567
L456.277 407.87
L457.217 395.317
L458.356 376.944
L460.125 344.186
L462.142 308.001
L463.305 291.004
L464.271 279.939
L465.112 272.687
L465.854 268.096
L466.51 265.33
L467.104 263.721
L467.649 262.838
L468.205 262.338
L469.913 261.105
L470.396 260.233
L470.903 258.818
L471.46 256.552
L472.078 253.03
L472.771 247.716
L473.563 239.791
L474.467 228.366
L475.543 211.742
L477.028 184.976
L479.725 136.116
L480.876 119.538
L481.507 112.108
L481.52 490.851
L481.619 489.802
L482.472 482.047
L483.227 477.074
L483.895 474.037
L484.489 472.274
L485.046 471.267
L485.603 470.706
L486.395 470.27
L487.076 469.8
L487.57 469.163
L488.053 468.154
L488.573 466.515
L489.142 463.936
L489.785 459.908
L490.503 453.917
L491.32 445.119
L492.273 432.275
L493.436 413.331
L495.316 378.349
L497.185 345.091
L498.336 328.378
L499.301 317.392
L500.13 310.3
L500.86 305.803
L501.516 303.04
L502.11 301.433
L502.654 300.552
L503.211 300.052
L504.919 298.818
L505.401 297.944
L505.908 296.528
L506.465 294.259
L507.084 290.734
L507.777 285.416
L508.569 277.487
L509.472 266.057
L510.549 249.428
L512.034 222.659
L514.731 173.804
L515.882 157.231
L516.835 146.5
L517.664 139.491
L518.394 135.062
L519.049 132.354
L519.631 130.813
L520.176 129.948
L520.745 129.452
L522.378 128.296
L522.861 127.458
L523.368 126.089
L523.925 123.881
L524.543 120.432
L524.89 118.004
L524.89 118.004" style="fill:none;stroke:#008000;stroke-linecap:square;stroke-width:2;"/>
   </g>
   <g id="patch_3">
    <path d="
M153.675 60.3
L586.759 60.3" style="fill:none;stroke:#000000;stroke-linecap:square;stroke-linejoin:miter;"/>
   </g>
   <g id="patch_4">
    <path d="
M586.759 542.7
L586.759 60.3" style="fill:none;stroke:#000000;stroke-linecap:square;stroke-linejoin:miter;"/>
   </g>
   <g id="patch_5">
    <path d="
M153.675 542.7
L586.759 542.7" style="fill:none;stroke:#000000;stroke-linecap:square;stroke-linejoin:miter;"/>
   </g>
   <g id="patch_6">
    <path d="
M153.675 542.7
L153.675 60.3" style="fill:none;stroke:#000000;stroke-linecap:square;stroke-linejoin:miter;"/>
   </g>
   <g id="matplotlib.axis_1">
    <g id="xtick_1">
     <g id="line2d_2">
      <defs>
       <path d="
M0 0
L0 -4" id="m93b0483c22" style="stroke:#000000;stroke-width:0.5;"/>
      </defs>
      <g>
       <use style="stroke:#000000;stroke-width:0.5;" x="153.675" xlink:href="#m93b0483c22" y="542.7"/>
      </g>
     </g>
     <g id="line2d_3">
      <defs>
       <path d="
M0 0
L0 4" id="m741efc42ff" style="stroke:#000000;stroke-width:0.5;"/>
      </defs>
      <g>
       <use style="stroke:#000000;stroke-width:0.5;" x="153.675" xlink:href="#m741efc42ff" y="60.3"/>
      </g>
     </g>
     <g id="text_1">
      <!-- 0 -->
      <defs>
       <path d="
M31.7812 66.4062
Q24.1719 66.4062 20.3281 58.9062
Q16.5 51.4219 16.5 36.375
Q16.5 21.3906 20.3281 13.8906
Q24.1719 6.39062 31.7812 6.39062
Q39.4531 6.39062 43.2812 13.8906
Q47.125 21.3906 47.125 36.375
Q47.125 51.4219 43.2812 58.9062
Q39.4531 66.4062 31.7812 66.4062
M31.7812 74.2188
Q44.0469 74.2188 50.5156 64.5156
Q56.9844 54.8281 56.9844 36.375
Q56.9844 17.9688 50.5156 8.26562
Q44.0469 -1.42188 31.7812 -1.42188
Q19.5312 -1.42188 13.0625 8.26562
Q6.59375 17.9688 6.59375 36.375
Q6.59375 54.8281 13.0625 64.5156
Q19.5312 74.2188 31.7812 74.2188" id="BitstreamVeraSans-Roman-30"/>
      </defs>
      <g transform="translate(150.6515625 555.818125)scale(0.12 -0.12)">
       <use xlink:href="#BitstreamVeraSans-Roman-30"/>
      </g>
     </g>
    </g>
    <g id="xtick_2">
     <g id="line2d_4">
      <g>
       <use style="stroke:#000000;stroke-width:0.5;" x="215.544155844" xlink:href="#m93b0483c22" y="542.7"/>
      </g>
     </g>
     <g id="line2d_5">
      <g>
       <use style="stroke:#000000;stroke-width:0.5;" x="215.544155844" xlink:href="#m741efc42ff" y="60.3"/>
      </g>
     </g>
     <g id="text_2">
      <!-- 5 -->
      <defs>
       <path d="
M10.7969 72.9062
L49.5156 72.9062
L49.5156 64.5938
L19.8281 64.5938
L19.8281 46.7344
Q21.9688 47.4688 24.1094 47.8281
Q26.2656 48.1875 28.4219 48.1875
Q40.625 48.1875 47.75 41.5
Q54.8906 34.8125 54.8906 23.3906
Q54.8906 11.625 47.5625 5.09375
Q40.2344 -1.42188 26.9062 -1.42188
Q22.3125 -1.42188 17.5469 -0.640625
Q12.7969 0.140625 7.71875 1.70312
L7.71875 11.625
Q12.1094 9.23438 16.7969 8.0625
Q21.4844 6.89062 26.7031 6.89062
Q35.1562 6.89062 40.0781 11.3281
Q45.0156 15.7656 45.0156 23.3906
Q45.0156 31 40.0781 35.4375
Q35.1562 39.8906 26.7031 39.8906
Q22.75 39.8906 18.8125 39.0156
Q14.8906 38.1406 10.7969 36.2812
z
" id="BitstreamVeraSans-Roman-35"/>
      </defs>
      <g transform="translate(212.713843344 555.818125)scale(0.12 -0.12)">
       <use xlink:href="#BitstreamVeraSans-Roman-35"/>
      </g>
     </g>
    </g>
    <g id="xtick_3">
     <g id="line2d_6">
      <g>
       <use style="stroke:#000000;stroke-width:0.5;" x="277.413311688" xlink:href="#m93b0483c22" y="542.7"/>
      </g>
     </g>
     <g id="line2d_7">
      <g>
       <use style="stroke:#000000;stroke-width:0.5;" x="277.413311688" xlink:href="#m741efc42ff" y="60.3"/>
      </g>
     </g>
     <g id="text_3">
      <!-- 10 -->
      <defs>
       <path d="
M12.4062 8.29688
L28.5156 8.29688
L28.5156 63.9219
L10.9844 60.4062
L10.9844 69.3906
L28.4219 72.9062
L38.2812 72.9062
L38.2812 8.29688
L54.3906 8.29688
L54.3906 0
L12.4062 0
z
" id="BitstreamVeraSans-Roman-31"/>
      </defs>
      <g transform="translate(270.835811688 555.818125)scale(0.12 -0.12)">
       <use xlink:href="#BitstreamVeraSans-Roman-31"/>
       <use x="63.623046875" xlink:href="#BitstreamVeraSans-Roman-30"/>
      </g>
     </g>
    </g>
    <g id="xtick_4">
     <g id="line2d_8">
      <g>
       <use style="stroke:#000000;stroke-width:0.5;" x="339.282467532" xlink:href="#m93b0483c22" y="542.7"/>
      </g>
     </g>
     <g id="line2d_9">
      <g>
       <use style="stroke:#000000;stroke-width:0.5;" x="339.282467532" xlink:href="#m741efc42ff" y="60.3"/>
      </g>
     </g>
     <g id="text_4">
      <!-- 15 -->
      <g transform="translate(332.830592532 555.818125)scale(0.12 -0.12)">
       <use xlink:href="#BitstreamVeraSans-Roman-31"/>
       <use x="63.623046875" xlink:href="#BitstreamVeraSans-Roman-35"/>
      </g>
     </g>
    </g>
    <g id="xtick_5">
     <g id="line2d_10">
      <g>
       <use style="stroke:#000000;stroke-width:0.5;" x="401.151623377" xlink:href="#m93b0483c22" y="542.7"/>
      </g>
     </g>
     <g id="line2d_11">
      <g>
       <use style="stroke:#000000;stroke-width:0.5;" x="401.151623377" xlink:href="#m741efc42ff" y="60.3"/>
      </g>
     </g>
     <g id="text_5">
      <!-- 20 -->
      <defs>
       <path d="
M19.1875 8.29688
L53.6094 8.29688
L53.6094 0
L7.32812 0
L7.32812 8.29688
Q12.9375 14.1094 22.625 23.8906
Q32.3281 33.6875 34.8125 36.5312
Q39.5469 41.8438 41.4219 45.5312
Q43.3125 49.2188 43.3125 52.7812
Q43.3125 58.5938 39.2344 62.25
Q35.1562 65.9219 28.6094 65.9219
Q23.9688 65.9219 18.8125 64.3125
Q13.6719 62.7031 7.8125 59.4219
L7.8125 69.3906
Q13.7656 71.7812 18.9375 73
Q24.125 74.2188 28.4219 74.2188
Q39.75 74.2188 46.4844 68.5469
Q53.2188 62.8906 53.2188 53.4219
Q53.2188 48.9219 51.5312 44.8906
Q49.8594 40.875 45.4062 35.4062
Q44.1875 33.9844 37.6406 27.2188
Q31.1094 20.4531 19.1875 8.29688" id="BitstreamVeraSans-Roman-32"/>
      </defs>
      <g transform="translate(394.354748377 555.818125)scale(0.12 -0.12)">
       <use xlink:href="#BitstreamVeraSans-Roman-32"/>
       <use x="63.623046875" xlink:href="#BitstreamVeraSans-Roman-30"/>
      </g>
     </g>
    </g>
    <g id="xtick_6">
     <g id="line2d_12">
      <g>
       <use style="stroke:#000000;stroke-width:0.5;" x="463.020779221" xlink:href="#m93b0483c22" y="542.7"/>
      </g>
     </g>
     <g id="line2d_13">
      <g>
       <use style="stroke:#000000;stroke-width:0.5;" x="463.020779221" xlink:href="#m741efc42ff" y="60.3"/>
      </g>
     </g>
     <g id="text_6">
      <!-- 25 -->
      <g transform="translate(456.349529221 555.818125)scale(0.12 -0.12)">
       <use xlink:href="#BitstreamVeraSans-Roman-32"/>
       <use x="63.623046875" xlink:href="#BitstreamVeraSans-Roman-35"/>
      </g>
     </g>
    </g>
    <g id="xtick_7">
     <g id="line2d_14">
      <g>
       <use style="stroke:#000000;stroke-width:0.5;" x="524.889935065" xlink:href="#m93b0483c22" y="542.7"/>
      </g>
     </g>
     <g id="line2d_15">
      <g>
       <use style="stroke:#000000;stroke-width:0.5;" x="524.889935065" xlink:href="#m741efc42ff" y="60.3"/>
      </g>
     </g>
     <g id="text_7">
      <!-- 30 -->
      <defs>
       <path d="
M40.5781 39.3125
Q47.6562 37.7969 51.625 33
Q55.6094 28.2188 55.6094 21.1875
Q55.6094 10.4062 48.1875 4.48438
Q40.7656 -1.42188 27.0938 -1.42188
Q22.5156 -1.42188 17.6562 -0.515625
Q12.7969 0.390625 7.625 2.20312
L7.625 11.7188
Q11.7188 9.32812 16.5938 8.10938
Q21.4844 6.89062 26.8125 6.89062
Q36.0781 6.89062 40.9375 10.5469
Q45.7969 14.2031 45.7969 21.1875
Q45.7969 27.6406 41.2812 31.2656
Q36.7656 34.9062 28.7188 34.9062
L20.2188 34.9062
L20.2188 43.0156
L29.1094 43.0156
Q36.375 43.0156 40.2344 45.9219
Q44.0938 48.8281 44.0938 54.2969
Q44.0938 59.9062 40.1094 62.9062
Q36.1406 65.9219 28.7188 65.9219
Q24.6562 65.9219 20.0156 65.0312
Q15.375 64.1562 9.8125 62.3125
L9.8125 71.0938
Q15.4375 72.6562 20.3438 73.4375
Q25.25 74.2188 29.5938 74.2188
Q40.8281 74.2188 47.3594 69.1094
Q53.9062 64.0156 53.9062 55.3281
Q53.9062 49.2656 50.4375 45.0938
Q46.9688 40.9219 40.5781 39.3125" id="BitstreamVeraSans-Roman-33"/>
      </defs>
      <g transform="translate(518.110872565 555.818125)scale(0.12 -0.12)">
       <use xlink:href="#BitstreamVeraSans-Roman-33"/>
       <use x="63.623046875" xlink:href="#BitstreamVeraSans-Roman-30"/>
      </g>
     </g>
    </g>
    <g id="xtick_8">
     <g id="line2d_16">
      <g>
       <use style="stroke:#000000;stroke-width:0.5;" x="586.759090909" xlink:href="#m93b0483c22" y="542.7"/>
      </g>
     </g>
     <g id="line2d_17">
      <g>
       <use style="stroke:#000000;stroke-width:0.5;" x="586.759090909" xlink:href="#m741efc42ff" y="60.3"/>
      </g>
     </g>
     <g id="text_8">
      <!-- 35 -->
      <g transform="translate(580.105653409 555.818125)scale(0.12 -0.12)">
       <use xlink:href="#BitstreamVeraSans-Roman-33"/>
       <use x="63.623046875" xlink:href="#BitstreamVeraSans-Roman-35"/>
      </g>
     </g>
    </g>
    <g id="text_9">
     <!-- time($s$) -->
     <defs>
      <path d="
M8.01562 75.875
L15.8281 75.875
Q23.1406 64.3594 26.7812 53.3125
Q30.4219 42.2812 30.4219 31.3906
Q30.4219 20.4531 26.7812 9.375
Q23.1406 -1.70312 15.8281 -13.1875
L8.01562 -13.1875
Q14.5 -2 17.7031 9.0625
Q20.9062 20.125 20.9062 31.3906
Q20.9062 42.6719 17.7031 53.6562
Q14.5 64.6562 8.01562 75.875" id="BitstreamVeraSans-Roman-29"/>
      <path d="
M52 44.1875
Q55.375 50.25 60.0625 53.125
Q64.75 56 71.0938 56
Q79.6406 56 84.2812 50.0156
Q88.9219 44.0469 88.9219 33.0156
L88.9219 0
L79.8906 0
L79.8906 32.7188
Q79.8906 40.5781 77.0938 44.375
Q74.3125 48.1875 68.6094 48.1875
Q61.625 48.1875 57.5625 43.5469
Q53.5156 38.9219 53.5156 30.9062
L53.5156 0
L44.4844 0
L44.4844 32.7188
Q44.4844 40.625 41.7031 44.4062
Q38.9219 48.1875 33.1094 48.1875
Q26.2188 48.1875 22.1562 43.5312
Q18.1094 38.875 18.1094 30.9062
L18.1094 0
L9.07812 0
L9.07812 54.6875
L18.1094 54.6875
L18.1094 46.1875
Q21.1875 51.2188 25.4844 53.6094
Q29.7812 56 35.6875 56
Q41.6562 56 45.8281 52.9688
Q50 49.9531 52 44.1875" id="BitstreamVeraSans-Roman-6d"/>
      <path d="
M8.6875 6.10938
Q11.375 1.51562 19.4844 1.51562
Q23 1.51562 26.1719 2.70312
Q29.3438 3.90625 31.4219 6.29688
Q33.5 8.6875 33.5 12.1094
Q33.5 14.7031 31.6406 16.3594
Q29.7812 18.0156 27.0938 18.6094
L21.6875 19.6719
Q17.9688 20.6094 15.5781 23.1406
Q13.1875 25.6875 13.1875 29.2969
Q13.1875 33.7344 15.5938 37.1562
Q18.0156 40.5781 21.9688 42.375
Q25.9219 44.1875 30.1719 44.1875
Q34.7188 44.1875 38.2969 42.0156
Q41.8906 39.8438 41.8906 35.5938
Q41.8906 33.2969 40.5938 31.5312
Q39.3125 29.7812 37.0156 29.7812
Q35.6875 29.7812 34.7344 30.6406
Q33.7969 31.5 33.7969 32.8125
Q33.7969 33.9844 34.4531 35.0781
Q35.1094 36.1875 36.2031 36.8438
Q37.3125 37.5 38.4844 37.5
Q37.5938 39.6562 35.1719 40.625
Q32.7656 41.6094 29.9844 41.6094
Q27.4375 41.6094 24.8906 40.5781
Q22.3594 39.5469 20.8125 37.5625
Q19.2812 35.5938 19.2812 32.9062
Q19.2812 31.1094 20.5469 29.7344
Q21.8281 28.375 23.6875 27.7812
L29.5 26.6094
Q32.2812 26.0312 34.5938 24.5312
Q36.9219 23.0469 38.25 20.7656
Q39.5938 18.5 39.5938 15.5781
Q39.5938 11.8594 37.5156 8.25
Q35.4531 4.64062 32.4219 2.48438
Q27.0938 -1.125 19.3906 -1.125
Q14.0625 -1.125 9.60938 1.3125
Q5.17188 3.76562 5.17188 8.59375
Q5.17188 11.3281 6.75 13.3438
Q8.34375 15.375 11.0781 15.375
Q12.7031 15.375 13.7969 14.3906
Q14.8906 13.4219 14.8906 11.8125
Q14.8906 9.51562 13.1719 7.8125
Q11.4688 6.10938 9.1875 6.10938
z
" id="Cmmi10-73"/>
      <path d="
M9.42188 54.6875
L18.4062 54.6875
L18.4062 0
L9.42188 0
z

M9.42188 75.9844
L18.4062 75.9844
L18.4062 64.5938
L9.42188 64.5938
z
" id="BitstreamVeraSans-Roman-69"/>
      <path d="
M31 75.875
Q24.4688 64.6562 21.2812 53.6562
Q18.1094 42.6719 18.1094 31.3906
Q18.1094 20.125 21.3125 9.0625
Q24.5156 -2 31 -13.1875
L23.1875 -13.1875
Q15.875 -1.70312 12.2344 9.375
Q8.59375 20.4531 8.59375 31.3906
Q8.59375 42.2812 12.2031 53.3125
Q15.8281 64.3594 23.1875 75.875
z
" id="BitstreamVeraSans-Roman-28"/>
      <path d="
M56.2031 29.5938
L56.2031 25.2031
L14.8906 25.2031
Q15.4844 15.9219 20.4844 11.0625
Q25.4844 6.20312 34.4219 6.20312
Q39.5938 6.20312 44.4531 7.46875
Q49.3125 8.73438 54.1094 11.2812
L54.1094 2.78125
Q49.2656 0.734375 44.1875 -0.34375
Q39.1094 -1.42188 33.8906 -1.42188
Q20.7969 -1.42188 13.1562 6.1875
Q5.51562 13.8125 5.51562 26.8125
Q5.51562 40.2344 12.7656 48.1094
Q20.0156 56 32.3281 56
Q43.3594 56 49.7812 48.8906
Q56.2031 41.7969 56.2031 29.5938
M47.2188 32.2344
Q47.125 39.5938 43.0938 43.9844
Q39.0625 48.3906 32.4219 48.3906
Q24.9062 48.3906 20.3906 44.1406
Q15.875 39.8906 15.1875 32.1719
z
" id="BitstreamVeraSans-Roman-65"/>
      <path d="
M18.3125 70.2188
L18.3125 54.6875
L36.8125 54.6875
L36.8125 47.7031
L18.3125 47.7031
L18.3125 18.0156
Q18.3125 11.3281 20.1406 9.42188
Q21.9688 7.51562 27.5938 7.51562
L36.8125 7.51562
L36.8125 0
L27.5938 0
Q17.1875 0 13.2344 3.875
Q9.28125 7.76562 9.28125 18.0156
L9.28125 47.7031
L2.6875 47.7031
L2.6875 54.6875
L9.28125 54.6875
L9.28125 70.2188
z
" id="BitstreamVeraSans-Roman-74"/>
     </defs>
     <g transform="translate(349.157045455 572.431875)scale(0.12 -0.12)">
      <use transform="translate(0.0 0.015625)" xlink:href="#BitstreamVeraSans-Roman-74"/>
      <use transform="translate(39.208984375 0.015625)" xlink:href="#BitstreamVeraSans-Roman-69"/>
      <use transform="translate(66.9921875 0.015625)" xlink:href="#BitstreamVeraSans-Roman-6d"/>
      <use transform="translate(164.404296875 0.015625)" xlink:href="#BitstreamVeraSans-Roman-65"/>
      <use transform="translate(225.927734375 0.015625)" xlink:href="#BitstreamVeraSans-Roman-28"/>
      <use transform="translate(264.94140625 0.015625)" xlink:href="#Cmmi10-73"/>
      <use transform="translate(311.71875 0.015625)" xlink:href="#BitstreamVeraSans-Roman-29"/>
     </g>
    </g>
   </g>
   <g id="matplotlib.axis_2">
    <g id="ytick_1">
     <g id="line2d_18">
      <defs>
       <path d="
M0 0
L4 0" id="m728421d6d4" style="stroke:#000000;stroke-width:0.5;"/>
      </defs>
      <g>
       <use style="stroke:#000000;stroke-width:0.5;" x="153.675" xlink:href="#m728421d6d4" y="542.7"/>
      </g>
     </g>
     <g id="line2d_19">
      <defs>
       <path d="
M0 0
L-4 0" id="mcb0005524f" style="stroke:#000000;stroke-width:0.5;"/>
      </defs>
      <g>
       <use style="stroke:#000000;stroke-width:0.5;" x="586.759090909" xlink:href="#mcb0005524f" y="542.7"/>
      </g>
     </g>
     <g id="text_10">
      <!-- −4 -->
      <defs>
       <path d="
M10.5938 35.5
L73.1875 35.5
L73.1875 27.2031
L10.5938 27.2031
z
" id="BitstreamVeraSans-Roman-2212"/>
       <path d="
M37.7969 64.3125
L12.8906 25.3906
L37.7969 25.3906
z

M35.2031 72.9062
L47.6094 72.9062
L47.6094 25.3906
L58.0156 25.3906
L58.0156 17.1875
L47.6094 17.1875
L47.6094 0
L37.7969 0
L37.7969 17.1875
L4.89062 17.1875
L4.89062 26.7031
z
" id="BitstreamVeraSans-Roman-34"/>
      </defs>
      <g transform="translate(133.92875 546.01125)scale(0.12 -0.12)">
       <use xlink:href="#BitstreamVeraSans-Roman-2212"/>
       <use x="83.7890625" xlink:href="#BitstreamVeraSans-Roman-34"/>
      </g>
     </g>
    </g>
    <g id="ytick_2">
     <g id="line2d_20">
      <g>
       <use style="stroke:#000000;stroke-width:0.5;" x="153.675" xlink:href="#m728421d6d4" y="482.4"/>
      </g>
     </g>
     <g id="line2d_21">
      <g>
       <use style="stroke:#000000;stroke-width:0.5;" x="586.759090909" xlink:href="#mcb0005524f" y="482.4"/>
      </g>
     </g>
     <g id="text_11">
      <!-- −3 -->
      <g transform="translate(134.2175 485.71125)scale(0.12 -0.12)">
       <use xlink:href="#BitstreamVeraSans-Roman-2212"/>
       <use x="83.7890625" xlink:href="#BitstreamVeraSans-Roman-33"/>
      </g>
     </g>
    </g>
    <g id="ytick_3">
     <g id="line2d_22">
      <g>
       <use style="stroke:#000000;stroke-width:0.5;" x="153.675" xlink:href="#m728421d6d4" y="422.1"/>
      </g>
     </g>
     <g id="line2d_23">
      <g>
       <use style="stroke:#000000;stroke-width:0.5;" x="586.759090909" xlink:href="#mcb0005524f" y="422.1"/>
      </g>
     </g>
     <g id="text_12">
      <!-- −2 -->
      <g transform="translate(134.4575 425.41125)scale(0.12 -0.12)">
       <use xlink:href="#BitstreamVeraSans-Roman-2212"/>
       <use x="83.7890625" xlink:href="#BitstreamVeraSans-Roman-32"/>
      </g>
     </g>
    </g>
    <g id="ytick_4">
     <g id="line2d_24">
      <g>
       <use style="stroke:#000000;stroke-width:0.5;" x="153.675" xlink:href="#m728421d6d4" y="361.8"/>
      </g>
     </g>
     <g id="line2d_25">
      <g>
       <use style="stroke:#000000;stroke-width:0.5;" x="586.759090909" xlink:href="#mcb0005524f" y="361.8"/>
      </g>
     </g>
     <g id="text_13">
      <!-- −1 -->
      <g transform="translate(134.36375 365.11125)scale(0.12 -0.12)">
       <use xlink:href="#BitstreamVeraSans-Roman-2212"/>
       <use x="83.7890625" xlink:href="#BitstreamVeraSans-Roman-31"/>
      </g>
     </g>
    </g>
    <g id="ytick_5">
     <g id="line2d_26">
      <g>
       <use style="stroke:#000000;stroke-width:0.5;" x="153.675" xlink:href="#m728421d6d4" y="301.5"/>
      </g>
     </g>
     <g id="line2d_27">
      <g>
       <use style="stroke:#000000;stroke-width:0.5;" x="586.759090909" xlink:href="#mcb0005524f" y="301.5"/>
      </g>
     </g>
     <g id="text_14">
      <!-- 0 -->
      <g transform="translate(143.628125 304.81125)scale(0.12 -0.12)">
       <use xlink:href="#BitstreamVeraSans-Roman-30"/>
      </g>
     </g>
    </g>
    <g id="ytick_6">
     <g id="line2d_28">
      <g>
       <use style="stroke:#000000;stroke-width:0.5;" x="153.675" xlink:href="#m728421d6d4" y="241.2"/>
      </g>
     </g>
     <g id="line2d_29">
      <g>
       <use style="stroke:#000000;stroke-width:0.5;" x="586.759090909" xlink:href="#mcb0005524f" y="241.2"/>
      </g>
     </g>
     <g id="text_15">
      <!-- 1 -->
      <g transform="translate(144.46625 244.51125)scale(0.12 -0.12)">
       <use xlink:href="#BitstreamVeraSans-Roman-31"/>
      </g>
     </g>
    </g>
    <g id="ytick_7">
     <g id="line2d_30">
      <g>
       <use style="stroke:#000000;stroke-width:0.5;" x="153.675" xlink:href="#m728421d6d4" y="180.9"/>
      </g>
     </g>
     <g id="line2d_31">
      <g>
       <use style="stroke:#000000;stroke-width:0.5;" x="586.759090909" xlink:href="#mcb0005524f" y="180.9"/>
      </g>
     </g>
     <g id="text_16">
      <!-- 2 -->
      <g transform="translate(144.12125 184.21125)scale(0.12 -0.12)">
       <use xlink:href="#BitstreamVeraSans-Roman-32"/>
      </g>
     </g>
    </g>
    <g id="ytick_8">
     <g id="line2d_32">
      <g>
       <use style="stroke:#000000;stroke-width:0.5;" x="153.675" xlink:href="#m728421d6d4" y="120.6"/>
      </g>
     </g>
     <g id="line2d_33">
      <g>
       <use style="stroke:#000000;stroke-width:0.5;" x="586.759090909" xlink:href="#mcb0005524f" y="120.6"/>
      </g>
     </g>
     <g id="text_17">
      <!-- 3 -->
      <g transform="translate(143.916875 123.91125)scale(0.12 -0.12)">
       <use xlink:href="#BitstreamVeraSans-Roman-33"/>
      </g>
     </g>
    </g>
    <g id="ytick_9">
     <g id="line2d_34">
      <g>
       <use style="stroke:#000000;stroke-width:0.5;" x="153.675" xlink:href="#m728421d6d4" y="60.3"/>
      </g>
     </g>
     <g id="line2d_35">
      <g>
       <use style="stroke:#000000;stroke-width:0.5;" x="586.759090909" xlink:href="#mcb0005524f" y="60.3"/>
      </g>
     </g>
     <g id="text_18">
      <!-- 4 -->
      <g transform="translate(143.3 63.61125)scale(0.12 -0.12)">
       <use xlink:href="#BitstreamVeraSans-Roman-34"/>
      </g>
     </g>
    </g>
    <g id="text_19">
     <!-- $\theta$($Rad$) -->
     <defs>
      <path d="
M16.1094 -1.125
Q11.5781 -1.125 8.84375 2.1875
Q6.10938 5.51562 5.04688 10.2031
Q4 14.8906 4 19.4844
L4 19.5781
Q4 24.5625 4.95312 29.9219
Q5.90625 35.2969 7.70312 40.6406
Q9.51562 46 11.625 50.2031
Q13.0938 53.125 15.4062 56.7344
Q17.7188 60.3594 20.5781 63.5
Q23.4375 66.6562 26.7344 68.5781
Q30.0312 70.5156 33.4062 70.5156
L33.5 70.5156
Q37.1094 70.5156 39.5156 68.5
Q41.9375 66.5 43.2812 63.375
Q44.625 60.25 45.1562 56.6875
Q45.7031 53.125 45.7031 49.9062
Q45.7031 42.3281 43.6562 34.4375
Q41.6094 26.5625 37.9844 19.1875
Q36.625 16.4062 34.2031 12.6406
Q31.7812 8.89062 29.0781 5.90625
Q26.375 2.9375 23 0.90625
Q19.625 -1.125 16.2188 -1.125
z

M16.3125 1.51562
Q19.625 1.51562 22.6719 5.04688
Q25.7344 8.59375 28.0312 13.6406
Q30.3281 18.7031 32.0625 24
Q33.7969 29.2969 34.625 33.0156
L14.2031 33.0156
Q12.6406 26.7031 11.7656 22.1406
Q10.8906 17.5781 10.8906 13.1875
Q10.8906 1.51562 16.3125 1.51562
M14.9844 36.5312
L35.5 36.5312
Q36.5781 40.9219 37.2031 43.875
Q37.8438 46.8281 38.2812 50.0938
Q38.7188 53.375 38.7188 56.2031
Q38.7188 67.9219 33.4062 67.9219
Q27.0469 67.9219 22.4375 57.6875
Q17.8281 47.4688 14.9844 36.5312" id="Cmmi10-b5"/>
      <path d="
M17.3906 -1.125
Q11.0781 -1.125 7.4375 3.64062
Q3.8125 8.40625 3.8125 14.8906
Q3.8125 21.2969 7.125 28.1719
Q10.4531 35.0625 16.0938 39.625
Q21.7344 44.1875 28.2188 44.1875
Q31.2031 44.1875 33.5469 42.5781
Q35.8906 40.9688 37.2031 38.1875
Q38.3281 42.1875 41.6094 42.1875
Q42.875 42.1875 43.7188 41.4219
Q44.5781 40.6719 44.5781 39.4062
Q44.5781 39.1094 44.5469 38.9531
Q44.5312 38.8125 44.4844 38.625
L37.5 10.6875
Q36.8125 7.71875 36.8125 5.8125
Q36.8125 1.51562 39.7031 1.51562
Q42.8281 1.51562 44.4531 5.48438
Q46.0938 9.46875 47.2188 14.7031
Q47.4062 15.2812 48 15.2812
L49.2188 15.2812
Q49.6094 15.2812 49.8438 14.9375
Q50.0938 14.5938 50.0938 14.3125
Q48.3438 7.32812 46.2656 3.09375
Q44.1875 -1.125 39.5 -1.125
Q36.1406 -1.125 33.5469 0.84375
Q30.9531 2.82812 30.3281 6.10938
Q23.875 -1.125 17.3906 -1.125
M17.4844 1.51562
Q21.0938 1.51562 24.4844 4.21875
Q27.875 6.9375 30.3281 10.5938
Q30.4219 10.6875 30.4219 10.8906
L35.7969 32.625
L35.8906 32.9062
Q35.2969 36.4688 33.3125 39.0312
Q31.3438 41.6094 27.9844 41.6094
Q24.6094 41.6094 21.7031 38.8438
Q18.7969 36.0781 16.7969 32.3281
Q14.8438 28.3281 13.0625 21.3438
Q11.2812 14.3594 11.2812 10.5
Q11.2812 7.03125 12.7656 4.26562
Q14.2656 1.51562 17.4844 1.51562" id="Cmmi10-61"/>
      <path d="
M4.89062 0
Q3.90625 0 3.90625 1.3125
Q3.95312 1.5625 4.09375 2.17188
Q4.25 2.78125 4.51562 3.14062
Q4.78125 3.51562 5.17188 3.51562
Q11.2812 3.51562 13.7188 4.20312
Q14.9844 4.64062 15.5781 6.89062
L29.2969 61.8125
Q29.5 62.7969 29.5 63.1875
Q29.5 64.2656 28.3281 64.4062
Q26.4219 64.7969 21.0938 64.7969
Q20.125 64.7969 20.125 66.1094
Q20.1719 66.3594 20.3125 66.9688
Q20.4531 67.5781 20.7188 67.9375
Q21 68.3125 21.3906 68.3125
L51.7031 68.3125
Q55.3281 68.3125 59.2344 67.4844
Q63.1406 66.6562 66.4062 64.875
Q69.6719 63.0938 71.7656 60.125
Q73.875 57.1719 73.875 53.2188
Q73.875 48.1875 70.5469 44.2344
Q67.2344 40.2812 62.1562 37.625
Q57.0781 34.9688 52.2969 33.8906
Q56.2031 32.4688 58.6875 29.3594
Q61.1875 26.2656 61.1875 22.2188
Q61.1875 21.6875 61.1562 21.4062
Q61.1406 21.1406 61.0781 20.7969
L60.2969 11.9219
Q60.2031 9.96875 60.1094 8.59375
Q60.0156 7.23438 60.0156 6.39062
Q60.0156 3.65625 60.8125 2.01562
Q61.625 0.390625 64.0156 0.390625
Q67.1406 0.390625 69.5 3.29688
Q71.875 6.20312 72.6094 9.625
Q73.0469 10.5 73.5781 10.5
L74.5156 10.5
Q75.4844 10.5 75.4844 9.1875
Q74.75 6.29688 73.1562 3.70312
Q71.5781 1.125 69.1562 -0.53125
Q66.75 -2.20312 63.9219 -2.20312
Q58.0625 -2.20312 53.9375 0.40625
Q49.8125 3.03125 49.8125 8.59375
Q49.8125 10.6875 50.2031 12.3125
L52.3906 21.1875
Q52.7812 22.4062 52.7812 24.0312
Q52.7812 28.1719 49.9688 30.5312
Q47.1719 32.9062 42.9219 32.9062
L30.6094 32.9062
L24.0312 6.5
Q23.7812 5.67188 23.7812 5.07812
Q23.7812 4.04688 25 3.90625
Q26.9062 3.51562 32.1719 3.51562
Q33.2031 3.51562 33.2031 2.20312
Q32.8594 0.78125 32.6562 0.390625
Q32.4688 0 31.5 0
z

M31.2031 35.5
L42.2812 35.5
Q53.1719 35.5 58.6875 41.0156
Q61.2344 43.5625 62.7188 47.4844
Q64.2031 51.4219 64.2031 55.3281
Q64.2031 59.0312 62.0312 61.125
Q59.8594 63.2344 56.6562 64.0156
Q53.4688 64.7969 49.6094 64.7969
L42.9219 64.7969
Q40.1875 64.7969 39.2969 64.3281
Q38.4219 63.875 37.7031 61.375
z
" id="Cmmi10-52"/>
      <path d="
M17.3906 -1.125
Q11.0781 -1.125 7.4375 3.64062
Q3.8125 8.40625 3.8125 14.8906
Q3.8125 21.2969 7.125 28.1719
Q10.4531 35.0625 16.0938 39.625
Q21.7344 44.1875 28.2188 44.1875
Q31.1562 44.1875 33.5156 42.5469
Q35.8906 40.9219 37.2031 38.1875
L42.8281 60.5
Q43.2188 62.2031 43.3125 63.1875
Q43.3125 64.7969 36.8125 64.7969
Q35.7969 64.7969 35.7969 66.1094
Q35.8438 66.3594 36.0156 66.9844
Q36.1875 67.625 36.4531 67.9688
Q36.7188 68.3125 37.2031 68.3125
L50.6875 69.3906
Q51.9062 69.3906 51.9062 68.1094
L37.5 10.5938
Q36.8125 8.9375 36.8125 5.8125
Q36.8125 1.51562 39.7031 1.51562
Q42.8281 1.51562 44.4531 5.48438
Q46.0938 9.46875 47.2188 14.7031
Q47.4062 15.2812 48 15.2812
L49.2188 15.2812
Q49.6094 15.2812 49.8438 14.9375
Q50.0938 14.5938 50.0938 14.3125
Q48.3438 7.32812 46.2656 3.09375
Q44.1875 -1.125 39.5 -1.125
Q36.1406 -1.125 33.5469 0.84375
Q30.9531 2.82812 30.3281 6.10938
Q23.875 -1.125 17.3906 -1.125
M17.4844 1.51562
Q21.0938 1.51562 24.4844 4.21875
Q27.875 6.9375 30.3281 10.5938
Q30.4219 10.6875 30.4219 10.9844
L35.8906 33.0156
Q35.2969 36.5312 33.2969 39.0625
Q31.2969 41.6094 27.9844 41.6094
Q24.6094 41.6094 21.7031 38.8438
Q18.7969 36.0781 16.7969 32.3281
Q14.8438 28.3281 13.0625 21.3438
Q11.2812 14.3594 11.2812 10.5
Q11.2812 7.03125 12.7656 4.26562
Q14.2656 1.51562 17.4844 1.51562" id="Cmmi10-64"/>
     </defs>
     <g transform="translate(126.433125 319.86)rotate(-90.0)scale(0.12 -0.12)">
      <use transform="translate(0.0 0.125)" xlink:href="#Cmmi10-b5"/>
      <use transform="translate(46.923828125 0.125)" xlink:href="#BitstreamVeraSans-Roman-28"/>
      <use transform="translate(85.9375 0.125)" xlink:href="#Cmmi10-52"/>
      <use transform="translate(161.81640625 0.125)" xlink:href="#Cmmi10-61"/>
      <use transform="translate(214.599609375 0.125)" xlink:href="#Cmmi10-64"/>
      <use transform="translate(266.6015625 0.125)" xlink:href="#BitstreamVeraSans-Roman-29"/>
     </g>
    </g>
   </g>
   <g id="legend_1">
    <g id="line2d_36">
     <path d="
M540.777 73.3932
L554.772 73.3932" style="fill:none;stroke:#008000;stroke-linecap:square;stroke-width:2;"/>
    </g>
    <g id="line2d_37"/>
    <g id="text_20">
     <!-- $\theta$-$t$ -->
     <defs>
      <path d="
M4.89062 31.3906
L31.2031 31.3906
L31.2031 23.3906
L4.89062 23.3906
z
" id="BitstreamVeraSans-Roman-2d"/>
      <path d="
M6.20312 8.10938
Q6.20312 9.57812 6.5 10.8906
L13.7188 39.5938
L3.21875 39.5938
Q2.20312 39.5938 2.20312 40.9219
Q2.59375 43.1094 3.51562 43.1094
L14.5938 43.1094
L18.6094 59.4219
Q19 60.75 20.1719 61.6719
Q21.3438 62.5938 22.7969 62.5938
Q24.0781 62.5938 24.9219 61.8281
Q25.7812 61.0781 25.7812 59.8125
Q25.7812 59.5156 25.75 59.3438
Q25.7344 59.1875 25.6875 58.9844
L21.6875 43.1094
L31.9844 43.1094
Q33.0156 43.1094 33.0156 41.7969
Q32.9531 41.5469 32.8125 40.9531
Q32.6719 40.375 32.4219 39.9844
Q32.1719 39.5938 31.6875 39.5938
L20.7969 39.5938
L13.625 10.6875
Q12.8906 7.85938 12.8906 5.8125
Q12.8906 1.51562 15.8281 1.51562
Q20.2188 1.51562 23.6094 5.64062
Q27 9.76562 28.8125 14.7031
Q29.2031 15.2812 29.5938 15.2812
L30.8125 15.2812
Q31.2031 15.2812 31.4375 15.0156
Q31.6875 14.75 31.6875 14.4062
Q31.6875 14.2031 31.5938 14.1094
Q29.3906 8.0625 25.1875 3.46875
Q21 -1.125 15.5781 -1.125
Q11.625 -1.125 8.90625 1.45312
Q6.20312 4.04688 6.20312 8.10938" id="Cmmi10-74"/>
     </defs>
     <g transform="translate(565.767490909 76.891798125)scale(0.09996 -0.09996)">
      <use transform="translate(0.0 0.484375)" xlink:href="#Cmmi10-b5"/>
      <use transform="translate(46.923828125 0.484375)" xlink:href="#BitstreamVeraSans-Roman-2d"/>
      <use transform="translate(83.0078125 0.484375)" xlink:href="#Cmmi10-74"/>
     </g>
    </g>
   </g>
  </g>
  <g id="axes_2">
   <g id="patch_7">
    <path d="
M673.376 542.7
L1106.46 542.7
L1106.46 60.3
L673.376 60.3
z
" style="fill:#ffffff;"/>
   </g>
   <g id="line2d_38">
    <path clip-path="url(#p9b96c9b755)" d="
M673.376 530.64
L673.463 530.536
L673.611 529.795
L673.846 527.175
L674.18 520.472
L674.626 506.376
L675.207 480.051
L675.987 433.508
L677.15 348.95
L679.847 149.124
L680.664 105.835
L681.27 84.2146
L681.716 75.1628
L682.025 72.5473
L682.137 72.3596
L682.174 72.3861
L682.285 72.7327
L682.471 74.1977
L682.755 78.5699
L683.139 88.394
L683.646 107.792
L684.314 142.837
L685.242 204.599
L687.024 341.837
L688.497 447.565
L689.351 494.289
L689.969 517.332
L690.427 527.279
L690.749 530.345
L690.897 530.638
L690.922 530.617
L691.033 530.28
L691.219 528.831
L691.504 524.483
L691.887 514.689
L692.394 495.327
L693.063 460.321
L693.978 399.489
L695.711 266.175
L697.233 156.383
L698.086 109.395
L698.705 86.1014
L699.163 75.9445
L699.485 72.7242
L699.646 72.3612
L699.67 72.3796
L699.782 72.7071
L699.967 74.1403
L700.239 78.2242
L700.623 87.8453
L701.118 106.455
L701.774 140.335
L702.677 199.754
L704.31 325.033
L705.944 444.091
L706.81 492.342
L707.441 516.458
L707.911 527.015
L708.233 530.263
L708.394 530.64
L708.419 530.623
L708.53 530.305
L708.716 528.888
L708.988 524.827
L709.359 515.614
L709.854 497.206
L710.51 463.542
L711.401 405.208
L712.985 283.987
L714.68 159.87
L715.546 111.358
L716.177 86.9885
L716.647 76.217
L716.981 72.7505
L717.142 72.3598
L717.167 72.3739
L717.266 72.6283
L717.439 73.8332
L717.699 77.4346
L718.058 85.844
L718.54 103.025
L719.171 134.334
L720.025 188.848
L721.436 295.493
L723.403 441.368
L724.282 490.936
L724.913 515.558
L725.383 526.544
L725.717 530.17
L725.89 530.641
L725.915 530.629
L726.014 530.383
L726.187 529.193
L726.447 525.613
L726.806 517.232
L727.289 500.087
L727.92 468.816
L728.774 414.338
L730.184 307.716
L732.152 161.803
L733.03 112.189
L733.674 87.1482
L734.144 76.3008
L734.478 72.7777
L734.651 72.3618
L734.663 72.3692
L734.762 72.6066
L734.936 73.7819
L735.196 77.3396
L735.554 85.6912
L736.037 102.801
L736.668 134.034
L737.522 188.475
L738.92 294.104
L740.912 441.823
L741.791 491.268
L742.422 515.772
L742.892 526.657
L743.226 530.208
L743.399 530.639
L743.412 530.633
L743.511 530.404
L743.684 529.243
L743.944 525.708
L744.303 517.385
L744.785 500.31
L745.416 469.116
L746.27 414.711
L747.668 309.105
L749.661 161.348
L750.539 111.857
L751.17 87.3086
L751.64 76.3855
L751.974 72.8057
L752.148 72.3602
L752.16 72.3655
L752.259 72.5858
L752.432 73.7315
L752.692 77.2455
L753.051 85.5393
L753.521 102.063
L754.14 132.347
L754.981 185.517
L756.342 287.86
L758.421 442.277
L759.3 491.599
L759.931 515.984
L760.401 526.769
L760.735 530.245
L760.896 530.64
L760.921 530.627
L761.02 530.376
L761.193 529.176
L761.453 525.582
L761.812 517.182
L762.294 500.014
L762.925 468.718
L763.779 414.217
L765.19 307.58
L767.157 161.691
L768.036 112.107
L768.667 87.4699
L769.137 76.4711
L769.471 72.8347
L769.644 72.3594
L769.669 72.3707
L769.768 72.6136
L769.941 73.7986
L770.201 77.3706
L770.56 85.7411
L771.043 102.874
L771.674 134.132
L772.527 188.597
L773.938 295.212
L775.905 441.137
L776.784 490.768
L777.427 515.824
L777.898 526.685
L778.232 530.218
L778.405 530.639
L778.417 530.631
L778.516 530.397
L778.69 529.227
L778.949 525.677
L779.308 517.335
L779.791 500.238
L780.422 469.018
L781.276 414.589
L782.674 308.969
L784.666 161.236
L785.545 111.775
L786.176 87.256
L786.646 76.3577
L786.98 72.7964
L787.153 72.3606
L787.166 72.3666
L787.265 72.5925
L787.438 73.7479
L787.698 77.2762
L788.057 85.5889
L788.527 102.135
L789.145 132.444
L789.987 185.638
L791.348 287.996
L793.427 442.389
L794.305 491.68
L794.936 516.036
L795.407 526.796
L795.741 530.254
L795.902 530.64
L795.926 530.625
L796.025 530.368
L796.199 529.159
L796.458 525.551
L796.817 517.132
L797.3 499.941
L797.931 468.62
L798.785 414.095
L800.195 307.443
L802.163 161.579
L803.041 112.025
L803.672 87.417
L804.143 76.443
L804.477 72.8251
L804.65 72.3596
L804.675 72.3722
L804.774 72.6207
L804.947 73.8154
L805.207 77.4016
L805.566 85.7911
L806.048 102.947
L806.679 134.23
L807.533 188.719
L808.944 295.348
L810.911 441.249
L811.79 490.85
L812.421 515.502
L812.891 526.514
L813.225 530.16
L813.398 530.641
L813.423 530.63
L813.522 530.39
L813.695 529.21
L813.955 525.646
L814.314 517.285
L814.796 500.165
L815.427 468.92
L816.281 414.467
L817.68 308.832
L819.672 161.124
L820.55 111.693
L821.181 87.2035
L821.652 76.33
L821.986 72.7873
L822.159 72.3612
L822.171 72.3678
L822.27 72.5993
L822.443 73.7644
L822.703 77.307
L823.062 85.6386
L823.545 102.724
L824.176 133.93
L825.03 188.347
L826.428 293.959
L828.42 441.704
L829.299 491.182
L829.93 515.716
L830.4 526.628
L830.734 530.199
L830.907 530.64
L830.92 530.634
L831.019 530.411
L831.192 529.261
L831.452 525.74
L831.81 517.437
L832.281 500.903
L832.899 470.607
L833.741 417.426
L835.102 315.076
L837.181 160.67
L838.059 111.363
L838.69 86.9915
L839.16 76.2185
L839.495 72.751
L839.655 72.3598
L839.68 72.3738
L839.779 72.6279
L839.952 73.8322
L840.212 77.4328
L840.571 85.8412
L841.054 103.02
L841.685 134.328
L842.539 188.841
L843.949 295.485
L845.917 441.362
L846.795 490.932
L847.426 515.555
L847.896 526.542
L848.231 530.17
L848.404 530.641
L848.428 530.629
L848.527 530.383
L848.701 529.194
L848.961 525.615
L849.319 517.235
L849.802 500.091
L850.433 468.822
L851.287 414.345
L852.697 307.724
L854.665 161.81
L855.543 112.194
L856.187 87.1511
L856.657 76.3024
L856.991 72.7782
L857.164 72.3618
L857.177 72.3692
L857.276 72.6062
L857.449 73.781
L857.709 77.3378
L858.068 85.6884
L858.55 102.797
L859.181 134.028
L860.035 188.469
L861.433 294.096
L863.426 441.816
L864.304 491.264
L864.935 515.769
L865.405 526.655
L865.739 530.208
L865.913 530.639
L865.925 530.633
L866.024 530.404
L866.197 529.244
L866.457 525.709
L866.816 517.388
L867.299 500.315
L867.93 469.122
L868.783 414.717
L870.182 309.113
L872.174 161.355
L873.052 111.861
L873.683 87.3116
L874.154 76.3871
L874.488 72.8063
L874.661 72.3602
L874.673 72.3654
L874.772 72.5854
L874.946 73.7306
L875.205 77.2437
L875.564 85.5365
L876.035 102.059
L876.653 132.341
L877.495 185.51
L878.856 287.852
L880.935 442.27
L881.813 491.594
L882.444 515.981
L882.914 526.767
L883.248 530.244
L883.409 530.64
L883.434 530.627
L883.533 530.376
L883.706 529.177
L883.966 525.584
L884.325 517.185
L884.808 500.018
L885.439 468.723
L886.292 414.224
L887.703 307.587
L889.67 161.698
L890.549 112.112
L891.18 87.4729
L891.65 76.4727
L891.984 72.8353
L892.158 72.3594
L892.182 72.3706
L892.281 72.6132
L892.455 73.7976
L892.714 77.3688
L893.073 85.7383
L893.556 102.87
L894.187 134.126
L895.041 188.59
L896.451 295.204
L898.419 441.131
L899.297 490.763
L899.941 515.821
L900.411 526.683
L900.745 530.217
L900.918 530.639
L900.931 530.632
L901.03 530.397
L901.203 529.228
L901.463 525.678
L901.822 517.338
L902.304 500.242
L902.935 469.024
L903.789 414.596
L905.187 308.976
L907.179 161.243
L908.058 111.78
L908.689 87.259
L909.159 76.3593
L909.493 72.797
L909.667 72.3606
L909.679 72.3665
L909.778 72.5921
L909.951 73.747
L910.211 77.2744
L910.57 85.5861
L911.04 102.131
L911.659 132.439
L912.5 185.631
L913.861 287.989
L915.94 442.382
L916.819 491.676
L917.45 516.033
L917.92 526.794
L918.254 530.253
L918.415 530.64
L918.44 530.625
L918.539 530.369
L918.712 529.16
L918.972 525.552
L919.331 517.135
L919.813 499.945
L920.444 468.625
L921.298 414.102
L922.709 307.451
L924.676 161.585
L925.555 112.03
L926.186 87.42
L926.656 76.4446
L926.99 72.8257
L927.163 72.3596
L927.188 72.3721
L927.287 72.6203
L927.46 73.8144
L927.72 77.3999
L928.079 85.7883
L928.561 102.943
L929.192 134.225
L930.046 188.712
L931.457 295.341
L933.424 441.243
L934.303 490.845
L934.934 515.499
L935.404 526.512
L935.738 530.16
L935.911 530.641
L935.936 530.63
L936.035 530.391
L936.208 529.211
L936.468 525.648
L936.827 517.288
L937.31 500.169
L937.941 468.925
L938.795 414.474
L940.193 308.84
L942.185 161.131
L943.064 111.698
L943.695 87.2065
L944.165 76.3316
L944.499 72.7878
L944.672 72.3611
L944.685 72.3678
L944.784 72.5989
L944.957 73.7634
L945.217 77.3052
L945.575 85.6358
L946.058 102.72
L946.689 133.925
L947.543 188.34
L948.941 293.952
L950.933 441.698
L951.812 491.177
L952.443 515.713
L952.913 526.626
L953.247 530.198
L953.42 530.64
L953.433 530.634
L953.532 530.411
L953.705 529.262
L953.965 525.742
L954.324 517.44
L954.794 500.907
L955.413 470.613
L956.254 417.433
L957.615 315.083
L959.694 160.677
L960.573 111.367
L961.204 86.9944
L961.674 76.2201
L962.008 72.7515
L962.169 72.3598
L962.194 72.3738
L962.292 72.6275
L962.466 73.8313
L962.726 77.431
L963.084 85.8383
L963.567 103.016
L964.198 134.323
L965.052 188.834
L966.462 295.477
L968.43 441.355
L969.308 490.927
L969.94 515.552
L970.41 526.541
L970.744 530.169
L970.917 530.641
L970.942 530.629
L971.041 530.383
L971.214 529.194
L971.474 525.617
L971.833 517.238
L972.315 500.096
L972.946 468.827
L973.8 414.352
L975.211 307.732
L977.178 161.816
L978.057 112.198
L978.7 87.1541
L979.17 76.3039
L979.504 72.7787
L979.678 72.3618
L979.69 72.3691
L979.789 72.6058
L979.962 73.78
L980.222 77.3361
L980.581 85.6856
L981.064 102.793
L981.695 134.023
L982.548 188.462
L983.947 294.088
L985.939 441.81
L986.817 491.259
L987.448 515.766
L987.919 526.654
L988.253 530.207
L988.426 530.639
L988.438 530.633
L988.537 530.405
L988.711 529.245
L988.97 525.711
L989.329 517.39
L989.8 500.835
L990.418 470.516
L991.26 417.312
L992.621 314.947
L994.7 160.565
L995.578 111.286
L996.209 86.9424
L996.679 76.1928
L997.013 72.7428
L997.174 72.3601
L997.199 72.3755
L997.298 72.6348
L997.471 73.8483
L997.731 77.4623
L998.09 85.8885
L998.573 103.09
L999.204 134.421
L1000.06 188.956
L1001.47 295.614
L1003.44 441.468
L1004.31 491.009
L1004.95 515.605
L1005.42 526.569
L1005.75 530.179
L1005.92 530.64
L1005.95 530.627
L1006.05 530.376
L1006.22 529.178
L1006.48 525.585
L1006.84 517.188
L1007.32 500.022
L1007.95 468.729
L1008.81 414.23
L1010.22 307.595
L1012.18 161.704
L1013.06 112.116
L1013.69 87.4759
L1014.16 76.4743
L1014.5 72.8358
L1014.67 72.3594
L1014.7 72.3705
L1014.79 72.6128
L1014.97 73.7967
L1015.23 77.3671
L1015.59 85.7355
L1016.07 102.866
L1016.7 134.121
L1017.55 188.583
L1018.96 295.196
L1020.93 441.125
L1021.81 490.758
L1022.45 515.818
L1022.92 526.681
L1023.26 530.217
L1023.43 530.639
L1023.44 530.632
L1023.54 530.398
L1023.72 529.229
L1023.98 525.68
L1024.33 517.341
L1024.82 500.246
L1025.45 469.029
L1026.3 414.603
L1027.7 308.984
L1029.69 161.249
L1030.57 111.784
L1031.2 87.262
L1031.67 76.3608
L1032.01 72.7975
L1032.18 72.3606
L1032.19 72.3665
L1032.29 72.5917
L1032.46 73.746
L1032.72 77.2727
L1033.08 85.5833
L1033.55 102.127
L1034.17 132.433
L1035.01 185.624
L1036.37 287.981
L1038.45 442.376
L1039.33 491.671
L1039.96 516.03
L1040.43 526.793
L1040.77 530.253
L1040.93 530.64
L1040.95 530.625
L1041.05 530.369
L1041.23 529.161
L1041.49 525.554
L1041.84 517.138
L1042.33 499.949
L1042.96 468.631
L1043.81 414.109
L1044.59 356.588
L1044.59 356.588" style="fill:none;stroke:#bf00bf;stroke-linecap:square;stroke-width:2;"/>
   </g>
   <g id="patch_8">
    <path d="
M673.376 60.3
L1106.46 60.3" style="fill:none;stroke:#000000;stroke-linecap:square;stroke-linejoin:miter;"/>
   </g>
   <g id="patch_9">
    <path d="
M1106.46 542.7
L1106.46 60.3" style="fill:none;stroke:#000000;stroke-linecap:square;stroke-linejoin:miter;"/>
   </g>
   <g id="patch_10">
    <path d="
M673.376 542.7
L1106.46 542.7" style="fill:none;stroke:#000000;stroke-linecap:square;stroke-linejoin:miter;"/>
   </g>
   <g id="patch_11">
    <path d="
M673.376 542.7
L673.376 60.3" style="fill:none;stroke:#000000;stroke-linecap:square;stroke-linejoin:miter;"/>
   </g>
   <g id="matplotlib.axis_3">
    <g id="xtick_9">
     <g id="line2d_39">
      <g>
       <use style="stroke:#000000;stroke-width:0.5;" x="673.375909091" xlink:href="#m93b0483c22" y="542.7"/>
      </g>
     </g>
     <g id="line2d_40">
      <g>
       <use style="stroke:#000000;stroke-width:0.5;" x="673.375909091" xlink:href="#m741efc42ff" y="60.3"/>
      </g>
     </g>
     <g id="text_21">
      <!-- 0 -->
      <g transform="translate(670.352471591 555.818125)scale(0.12 -0.12)">
       <use xlink:href="#BitstreamVeraSans-Roman-30"/>
      </g>
     </g>
    </g>
    <g id="xtick_10">
     <g id="line2d_41">
      <g>
       <use style="stroke:#000000;stroke-width:0.5;" x="735.245064935" xlink:href="#m93b0483c22" y="542.7"/>
      </g>
     </g>
     <g id="line2d_42">
      <g>
       <use style="stroke:#000000;stroke-width:0.5;" x="735.245064935" xlink:href="#m741efc42ff" y="60.3"/>
      </g>
     </g>
     <g id="text_22">
      <!-- 5 -->
      <g transform="translate(732.414752435 555.818125)scale(0.12 -0.12)">
       <use xlink:href="#BitstreamVeraSans-Roman-35"/>
      </g>
     </g>
    </g>
    <g id="xtick_11">
     <g id="line2d_43">
      <g>
       <use style="stroke:#000000;stroke-width:0.5;" x="797.114220779" xlink:href="#m93b0483c22" y="542.7"/>
      </g>
     </g>
     <g id="line2d_44">
      <g>
       <use style="stroke:#000000;stroke-width:0.5;" x="797.114220779" xlink:href="#m741efc42ff" y="60.3"/>
      </g>
     </g>
     <g id="text_23">
      <!-- 10 -->
      <g transform="translate(790.536720779 555.818125)scale(0.12 -0.12)">
       <use xlink:href="#BitstreamVeraSans-Roman-31"/>
       <use x="63.623046875" xlink:href="#BitstreamVeraSans-Roman-30"/>
      </g>
     </g>
    </g>
    <g id="xtick_12">
     <g id="line2d_45">
      <g>
       <use style="stroke:#000000;stroke-width:0.5;" x="858.983376623" xlink:href="#m93b0483c22" y="542.7"/>
      </g>
     </g>
     <g id="line2d_46">
      <g>
       <use style="stroke:#000000;stroke-width:0.5;" x="858.983376623" xlink:href="#m741efc42ff" y="60.3"/>
      </g>
     </g>
     <g id="text_24">
      <!-- 15 -->
      <g transform="translate(852.531501623 555.818125)scale(0.12 -0.12)">
       <use xlink:href="#BitstreamVeraSans-Roman-31"/>
       <use x="63.623046875" xlink:href="#BitstreamVeraSans-Roman-35"/>
      </g>
     </g>
    </g>
    <g id="xtick_13">
     <g id="line2d_47">
      <g>
       <use style="stroke:#000000;stroke-width:0.5;" x="920.852532468" xlink:href="#m93b0483c22" y="542.7"/>
      </g>
     </g>
     <g id="line2d_48">
      <g>
       <use style="stroke:#000000;stroke-width:0.5;" x="920.852532468" xlink:href="#m741efc42ff" y="60.3"/>
      </g>
     </g>
     <g id="text_25">
      <!-- 20 -->
      <g transform="translate(914.055657468 555.818125)scale(0.12 -0.12)">
       <use xlink:href="#BitstreamVeraSans-Roman-32"/>
       <use x="63.623046875" xlink:href="#BitstreamVeraSans-Roman-30"/>
      </g>
     </g>
    </g>
    <g id="xtick_14">
     <g id="line2d_49">
      <g>
       <use style="stroke:#000000;stroke-width:0.5;" x="982.721688312" xlink:href="#m93b0483c22" y="542.7"/>
      </g>
     </g>
     <g id="line2d_50">
      <g>
       <use style="stroke:#000000;stroke-width:0.5;" x="982.721688312" xlink:href="#m741efc42ff" y="60.3"/>
      </g>
     </g>
     <g id="text_26">
      <!-- 25 -->
      <g transform="translate(976.050438312 555.818125)scale(0.12 -0.12)">
       <use xlink:href="#BitstreamVeraSans-Roman-32"/>
       <use x="63.623046875" xlink:href="#BitstreamVeraSans-Roman-35"/>
      </g>
     </g>
    </g>
    <g id="xtick_15">
     <g id="line2d_51">
      <g>
       <use style="stroke:#000000;stroke-width:0.5;" x="1044.59084416" xlink:href="#m93b0483c22" y="542.7"/>
      </g>
     </g>
     <g id="line2d_52">
      <g>
       <use style="stroke:#000000;stroke-width:0.5;" x="1044.59084416" xlink:href="#m741efc42ff" y="60.3"/>
      </g>
     </g>
     <g id="text_27">
      <!-- 30 -->
      <g transform="translate(1037.81178166 555.818125)scale(0.12 -0.12)">
       <use xlink:href="#BitstreamVeraSans-Roman-33"/>
       <use x="63.623046875" xlink:href="#BitstreamVeraSans-Roman-30"/>
      </g>
     </g>
    </g>
    <g id="xtick_16">
     <g id="line2d_53">
      <g>
       <use style="stroke:#000000;stroke-width:0.5;" x="1106.46" xlink:href="#m93b0483c22" y="542.7"/>
      </g>
     </g>
     <g id="line2d_54">
      <g>
       <use style="stroke:#000000;stroke-width:0.5;" x="1106.46" xlink:href="#m741efc42ff" y="60.3"/>
      </g>
     </g>
     <g id="text_28">
      <!-- 35 -->
      <g transform="translate(1099.8065625 555.818125)scale(0.12 -0.12)">
       <use xlink:href="#BitstreamVeraSans-Roman-33"/>
       <use x="63.623046875" xlink:href="#BitstreamVeraSans-Roman-35"/>
      </g>
     </g>
    </g>
    <g id="text_29">
     <!-- time($s$) -->
     <g transform="translate(868.857954545 572.431875)scale(0.12 -0.12)">
      <use transform="translate(0.0 0.015625)" xlink:href="#BitstreamVeraSans-Roman-74"/>
      <use transform="translate(39.208984375 0.015625)" xlink:href="#BitstreamVeraSans-Roman-69"/>
      <use transform="translate(66.9921875 0.015625)" xlink:href="#BitstreamVeraSans-Roman-6d"/>
      <use transform="translate(164.404296875 0.015625)" xlink:href="#BitstreamVeraSans-Roman-65"/>
      <use transform="translate(225.927734375 0.015625)" xlink:href="#BitstreamVeraSans-Roman-28"/>
      <use transform="translate(264.94140625 0.015625)" xlink:href="#Cmmi10-73"/>
      <use transform="translate(311.71875 0.015625)" xlink:href="#BitstreamVeraSans-Roman-29"/>
     </g>
    </g>
   </g>
   <g id="matplotlib.axis_4">
    <g id="ytick_10">
     <g id="line2d_55">
      <g>
       <use style="stroke:#000000;stroke-width:0.5;" x="673.375909091" xlink:href="#m728421d6d4" y="542.7"/>
      </g>
     </g>
     <g id="line2d_56">
      <g>
       <use style="stroke:#000000;stroke-width:0.5;" x="1106.46" xlink:href="#mcb0005524f" y="542.7"/>
      </g>
     </g>
     <g id="text_30">
      <!-- 0.0 -->
      <defs>
       <path d="
M10.6875 12.4062
L21 12.4062
L21 0
L10.6875 0
z
" id="BitstreamVeraSans-Roman-2e"/>
      </defs>
      <g transform="translate(651.880284091 546.01125)scale(0.12 -0.12)">
       <use xlink:href="#BitstreamVeraSans-Roman-30"/>
       <use x="63.623046875" xlink:href="#BitstreamVeraSans-Roman-2e"/>
       <use x="95.41015625" xlink:href="#BitstreamVeraSans-Roman-30"/>
      </g>
     </g>
    </g>
    <g id="ytick_11">
     <g id="line2d_57">
      <g>
       <use style="stroke:#000000;stroke-width:0.5;" x="673.375909091" xlink:href="#m728421d6d4" y="482.4"/>
      </g>
     </g>
     <g id="line2d_58">
      <g>
       <use style="stroke:#000000;stroke-width:0.5;" x="1106.46" xlink:href="#mcb0005524f" y="482.4"/>
      </g>
     </g>
     <g id="text_31">
      <!-- 0.5 -->
      <g transform="translate(652.131534091 485.71125)scale(0.12 -0.12)">
       <use xlink:href="#BitstreamVeraSans-Roman-30"/>
       <use x="63.623046875" xlink:href="#BitstreamVeraSans-Roman-2e"/>
       <use x="95.41015625" xlink:href="#BitstreamVeraSans-Roman-35"/>
      </g>
     </g>
    </g>
    <g id="ytick_12">
     <g id="line2d_59">
      <g>
       <use style="stroke:#000000;stroke-width:0.5;" x="673.375909091" xlink:href="#m728421d6d4" y="422.1"/>
      </g>
     </g>
     <g id="line2d_60">
      <g>
       <use style="stroke:#000000;stroke-width:0.5;" x="1106.46" xlink:href="#mcb0005524f" y="422.1"/>
      </g>
     </g>
     <g id="text_32">
      <!-- 1.0 -->
      <g transform="translate(652.407159091 425.41125)scale(0.12 -0.12)">
       <use xlink:href="#BitstreamVeraSans-Roman-31"/>
       <use x="63.623046875" xlink:href="#BitstreamVeraSans-Roman-2e"/>
       <use x="95.41015625" xlink:href="#BitstreamVeraSans-Roman-30"/>
      </g>
     </g>
    </g>
    <g id="ytick_13">
     <g id="line2d_61">
      <g>
       <use style="stroke:#000000;stroke-width:0.5;" x="673.375909091" xlink:href="#m728421d6d4" y="361.8"/>
      </g>
     </g>
     <g id="line2d_62">
      <g>
       <use style="stroke:#000000;stroke-width:0.5;" x="1106.46" xlink:href="#mcb0005524f" y="361.8"/>
      </g>
     </g>
     <g id="text_33">
      <!-- 1.5 -->
      <g transform="translate(652.658409091 365.11125)scale(0.12 -0.12)">
       <use xlink:href="#BitstreamVeraSans-Roman-31"/>
       <use x="63.623046875" xlink:href="#BitstreamVeraSans-Roman-2e"/>
       <use x="95.41015625" xlink:href="#BitstreamVeraSans-Roman-35"/>
      </g>
     </g>
    </g>
    <g id="ytick_14">
     <g id="line2d_63">
      <g>
       <use style="stroke:#000000;stroke-width:0.5;" x="673.375909091" xlink:href="#m728421d6d4" y="301.5"/>
      </g>
     </g>
     <g id="line2d_64">
      <g>
       <use style="stroke:#000000;stroke-width:0.5;" x="1106.46" xlink:href="#mcb0005524f" y="301.5"/>
      </g>
     </g>
     <g id="text_34">
      <!-- 2.0 -->
      <g transform="translate(651.968409091 304.81125)scale(0.12 -0.12)">
       <use xlink:href="#BitstreamVeraSans-Roman-32"/>
       <use x="63.623046875" xlink:href="#BitstreamVeraSans-Roman-2e"/>
       <use x="95.41015625" xlink:href="#BitstreamVeraSans-Roman-30"/>
      </g>
     </g>
    </g>
    <g id="ytick_15">
     <g id="line2d_65">
      <g>
       <use style="stroke:#000000;stroke-width:0.5;" x="673.375909091" xlink:href="#m728421d6d4" y="241.2"/>
      </g>
     </g>
     <g id="line2d_66">
      <g>
       <use style="stroke:#000000;stroke-width:0.5;" x="1106.46" xlink:href="#mcb0005524f" y="241.2"/>
      </g>
     </g>
     <g id="text_35">
      <!-- 2.5 -->
      <g transform="translate(652.219659091 244.51125)scale(0.12 -0.12)">
       <use xlink:href="#BitstreamVeraSans-Roman-32"/>
       <use x="63.623046875" xlink:href="#BitstreamVeraSans-Roman-2e"/>
       <use x="95.41015625" xlink:href="#BitstreamVeraSans-Roman-35"/>
      </g>
     </g>
    </g>
    <g id="ytick_16">
     <g id="line2d_67">
      <g>
       <use style="stroke:#000000;stroke-width:0.5;" x="673.375909091" xlink:href="#m728421d6d4" y="180.9"/>
      </g>
     </g>
     <g id="line2d_68">
      <g>
       <use style="stroke:#000000;stroke-width:0.5;" x="1106.46" xlink:href="#mcb0005524f" y="180.9"/>
      </g>
     </g>
     <g id="text_36">
      <!-- 3.0 -->
      <g transform="translate(652.004034091 184.21125)scale(0.12 -0.12)">
       <use xlink:href="#BitstreamVeraSans-Roman-33"/>
       <use x="63.623046875" xlink:href="#BitstreamVeraSans-Roman-2e"/>
       <use x="95.41015625" xlink:href="#BitstreamVeraSans-Roman-30"/>
      </g>
     </g>
    </g>
    <g id="ytick_17">
     <g id="line2d_69">
      <g>
       <use style="stroke:#000000;stroke-width:0.5;" x="673.375909091" xlink:href="#m728421d6d4" y="120.6"/>
      </g>
     </g>
     <g id="line2d_70">
      <g>
       <use style="stroke:#000000;stroke-width:0.5;" x="1106.46" xlink:href="#mcb0005524f" y="120.6"/>
      </g>
     </g>
     <g id="text_37">
      <!-- 3.5 -->
      <g transform="translate(652.255284091 123.91125)scale(0.12 -0.12)">
       <use xlink:href="#BitstreamVeraSans-Roman-33"/>
       <use x="63.623046875" xlink:href="#BitstreamVeraSans-Roman-2e"/>
       <use x="95.41015625" xlink:href="#BitstreamVeraSans-Roman-35"/>
      </g>
     </g>
    </g>
    <g id="ytick_18">
     <g id="line2d_71">
      <g>
       <use style="stroke:#000000;stroke-width:0.5;" x="673.375909091" xlink:href="#m728421d6d4" y="60.3"/>
      </g>
     </g>
     <g id="line2d_72">
      <g>
       <use style="stroke:#000000;stroke-width:0.5;" x="1106.46" xlink:href="#mcb0005524f" y="60.3"/>
      </g>
     </g>
     <g id="text_38">
      <!-- 4.0 -->
      <g transform="translate(651.675909091 63.61125)scale(0.12 -0.12)">
       <use xlink:href="#BitstreamVeraSans-Roman-34"/>
       <use x="63.623046875" xlink:href="#BitstreamVeraSans-Roman-2e"/>
       <use x="95.41015625" xlink:href="#BitstreamVeraSans-Roman-30"/>
      </g>
     </g>
    </g>
    <g id="text_39">
     <!-- $\omega$($Rad/s$) -->
     <defs>
      <path d="
M5.60938 -23
Q5.60938 -22.7031 5.71875 -22.6094
L40.4844 73.7812
Q40.6719 74.3594 41.1562 74.6719
Q41.6562 75 42.2812 75
Q43.1719 75 43.7188 74.4531
Q44.2812 73.9219 44.2812 73
L44.2812 72.6094
L9.51562 -23.7812
Q8.9375 -25 7.625 -25
Q6.78125 -25 6.1875 -24.4062
Q5.60938 -23.8281 5.60938 -23" id="Cmmi10-3d"/>
      <path d="
M12.1094 -1.125
Q6.45312 -1.125 3.9375 3.01562
Q1.42188 7.17188 1.42188 13.1875
Q1.42188 17.1406 2.125 20.9219
Q2.82812 24.7031 4.26562 28.5781
Q5.71875 32.4688 7.5625 35.8594
Q9.42188 39.2656 11.7188 42.4844
Q12.1562 43.1094 12.8906 43.1094
Q13.5312 43.1094 13.9219 42.7188
Q14.3125 42.3281 14.3125 41.7969
Q14.3125 41.2656 14.0156 40.8281
Q4.89062 28.2656 4.89062 17.6719
Q4.89062 13.0938 7 9.79688
Q9.125 6.5 13.4844 6.5
Q17.2344 6.5 20.4375 8.6875
Q23.6406 10.8906 25.9844 14.3125
Q25.9844 16.0625 26.5938 19.7656
Q27.2031 23.4844 28.4844 26.3906
Q29.7812 29.2969 31.5938 29.2969
Q33.8906 29.2969 33.8906 26.6094
Q33.8906 25.0469 33.2188 22.6719
Q32.5625 20.3125 31.75 18.2656
Q30.9531 16.2188 29.7812 13.625
Q30.9531 6.5 36.9219 6.5
Q40.375 6.5 43.8594 8.5
Q47.3594 10.5 50.0469 13.75
Q52.7344 17 54.2656 20.75
Q55.8125 24.5156 55.8125 27.875
Q55.8125 30.9062 54.8594 32.5938
Q53.9062 34.2812 52.3438 36.125
Q50.7812 37.9844 50.7812 39.1094
Q50.7812 41.0625 52.4375 42.6719
Q54.1094 44.2812 56 44.2812
Q58.4531 44.2812 59.4688 42.0625
Q60.5 39.8438 60.5 37.0156
Q60.5 32.4219 58.6719 25.4375
Q56.8438 18.4531 54.5 13.8125
Q51.2656 7.51562 46.4062 3.1875
Q41.5469 -1.125 35.5 -1.125
Q31.6406 -1.125 29.2656 1.1875
Q26.9062 3.51562 26.2188 7.51562
Q23.4375 3.5625 19.875 1.21875
Q16.3125 -1.125 12.1094 -1.125" id="Cmmi10-21"/>
     </defs>
     <g transform="translate(643.675909091 326.58)rotate(-90.0)scale(0.12 -0.12)">
      <use transform="translate(0.0 0.125)" xlink:href="#Cmmi10-21"/>
      <use transform="translate(62.20703125 0.125)" xlink:href="#BitstreamVeraSans-Roman-28"/>
      <use transform="translate(101.220703125 0.125)" xlink:href="#Cmmi10-52"/>
      <use transform="translate(177.099609375 0.125)" xlink:href="#Cmmi10-61"/>
      <use transform="translate(229.8828125 0.125)" xlink:href="#Cmmi10-64"/>
      <use transform="translate(281.884765625 0.125)" xlink:href="#Cmmi10-3d"/>
      <use transform="translate(331.884765625 0.125)" xlink:href="#Cmmi10-73"/>
      <use transform="translate(378.662109375 0.125)" xlink:href="#BitstreamVeraSans-Roman-29"/>
     </g>
    </g>
   </g>
   <g id="legend_2">
    <g id="line2d_73">
     <path d="
M1058.98 73.3932
L1072.97 73.3932" style="fill:none;stroke:#bf00bf;stroke-linecap:square;stroke-width:2;"/>
    </g>
    <g id="line2d_74"/>
    <g id="text_40">
     <!-- $\omega$-$t$ -->
     <g transform="translate(1083.969 76.891798125)scale(0.09996 -0.09996)">
      <use transform="translate(0.0 0.40625)" xlink:href="#Cmmi10-21"/>
      <use transform="translate(62.20703125 0.40625)" xlink:href="#BitstreamVeraSans-Roman-2d"/>
      <use transform="translate(98.291015625 0.40625)" xlink:href="#Cmmi10-74"/>
     </g>
    </g>
   </g>
  </g>
  <g id="text_41">
   <!-- circular orbit, $m1/M=$0.1 -->
   <defs>
    <path id="BitstreamVeraSans-Roman-20"/>
    <path d="
M9.28125 0
L9.28125 3.51562
Q21.7812 3.51562 21.7812 6.6875
L21.7812 59.1875
Q16.6094 56.6875 8.6875 56.6875
L8.6875 60.2031
Q20.9531 60.2031 27.2031 66.6094
L28.6094 66.6094
Q28.9531 66.6094 29.2656 66.3281
Q29.5938 66.0625 29.5938 65.7188
L29.5938 6.6875
Q29.5938 3.51562 42.0938 3.51562
L42.0938 0
z
" id="Cmr10-31"/>
    <path d="
M5.07812 0
Q4.10938 0 4.10938 1.3125
Q4.15625 1.5625 4.29688 2.14062
Q4.4375 2.73438 4.6875 3.125
Q4.9375 3.51562 5.42188 3.51562
Q14.9375 3.51562 16.5 9.625
L29.5 61.8125
Q29.6875 62.7969 29.6875 63.1875
Q29.6875 64.2656 28.5156 64.4062
Q26.6094 64.7969 21.2969 64.7969
Q20.3125 64.7969 20.3125 66.1094
Q20.3594 66.3594 20.5 66.9688
Q20.6562 67.5781 20.9219 67.9375
Q21.1875 68.3125 21.5781 68.3125
L39.2031 68.3125
Q40.3281 68.3125 40.4844 67.1875
L48.2969 9.90625
L84.7188 67.1875
Q85.4062 68.3125 86.625 68.3125
L103.609 68.3125
Q104.594 68.3125 104.594 67
Q104.547 66.75 104.391 66.1406
Q104.25 65.5312 103.984 65.1562
Q103.719 64.7969 103.328 64.7969
Q97.2188 64.7969 94.8281 64.1094
Q93.5 63.6719 92.9219 61.375
L79.2031 6.5
Q79 5.51562 79 5.07812
Q79 4.6875 79.125 4.42188
Q79.25 4.15625 79.4688 4.07812
Q79.6875 4 80.1719 3.90625
Q82.0781 3.51562 87.4062 3.51562
Q88.375 3.51562 88.375 2.20312
Q88.0312 0.78125 87.8281 0.390625
Q87.6406 0 86.7188 0
L60.5938 0
Q59.625 0 59.625 1.3125
Q59.6719 1.5625 59.8125 2.17188
Q59.9688 2.78125 60.2344 3.14062
Q60.5 3.51562 60.8906 3.51562
Q67 3.51562 69.3906 4.20312
Q70.7031 4.64062 71.2969 6.89062
L85.6875 64.7969
L45.3125 1.125
Q44.7344 0 43.3125 0
Q42.0469 0 41.8906 1.125
L33.4062 64.0156
L19.6719 9.1875
Q19.5781 8.9375 19.5312 8.5625
Q19.4844 8.20312 19.3906 7.71875
Q19.3906 5.125 21.6562 4.3125
Q23.9219 3.51562 27.2031 3.51562
Q28.2188 3.51562 28.2188 2.20312
Q27.875 0.875 27.6562 0.4375
Q27.4375 0 26.5156 0
z
" id="Cmmi10-4d"/>
    <path d="
M7.71875 1.70312
Q7.71875 2.29688 7.8125 2.59375
L15.2812 32.4219
Q16.0156 35.2031 16.0156 37.3125
Q16.0156 41.6094 13.0938 41.6094
Q9.96875 41.6094 8.45312 37.8594
Q6.9375 34.125 5.51562 28.4219
Q5.51562 28.125 5.21875 27.9531
Q4.9375 27.7812 4.6875 27.7812
L3.51562 27.7812
Q3.17188 27.7812 2.92188 28.1406
Q2.6875 28.5156 2.6875 28.8125
Q3.76562 33.1562 4.76562 36.1719
Q5.76562 39.2031 7.89062 41.6875
Q10.0156 44.1875 13.1875 44.1875
Q16.9375 44.1875 19.8125 41.8125
Q22.7031 39.4531 22.7031 35.7969
Q25.6875 39.7031 29.6875 41.9375
Q33.6875 44.1875 38.1875 44.1875
Q42.9219 44.1875 46.3594 41.7656
Q49.8125 39.3594 49.8125 34.9062
Q52.875 39.2656 57 41.7188
Q61.1406 44.1875 66.0156 44.1875
Q71.1875 44.1875 74.3281 41.375
Q77.4844 38.5781 77.4844 33.4062
Q77.4844 29.2969 75.6562 23.4844
Q73.8281 17.6719 71.0938 10.5
Q69.6719 7.03125 69.6719 4.5
Q69.6719 1.51562 72.0156 1.51562
Q75.9219 1.51562 78.5156 5.70312
Q81.1094 9.90625 82.1719 14.7031
Q82.4688 15.2812 83.0156 15.2812
L84.1875 15.2812
Q84.5781 15.2812 84.8438 15.0156
Q85.1094 14.75 85.1094 14.4062
Q85.1094 14.3125 85.0156 14.1094
Q83.6406 8.45312 80.25 3.65625
Q76.8594 -1.125 71.7812 -1.125
Q68.2656 -1.125 65.7656 1.29688
Q63.2812 3.71875 63.2812 7.17188
Q63.2812 8.9375 64.1094 11.0781
Q66.9375 18.6094 68.8125 24.5156
Q70.7031 30.4219 70.7031 34.9062
Q70.7031 37.7031 69.5781 39.6562
Q68.4531 41.6094 65.8281 41.6094
Q60.3594 41.6094 56.3438 38.25
Q52.3438 34.9062 49.4219 29.3906
Q49.2188 28.4219 49.125 27.875
L42.6719 2.20312
Q42.3281 0.828125 41.125 -0.140625
Q39.9375 -1.125 38.4844 -1.125
Q37.3125 -1.125 36.4062 -0.34375
Q35.5 0.4375 35.5 1.70312
Q35.5 2.29688 35.5938 2.59375
L42 28.0781
Q43.0156 32.1719 43.0156 34.9062
Q43.0156 37.7031 41.8594 39.6562
Q40.7188 41.6094 37.9844 41.6094
Q34.3281 41.6094 31.25 39.9844
Q28.1719 38.375 25.875 35.7188
Q23.5781 33.0625 21.6875 29.3906
L14.8906 2.20312
Q14.5469 0.828125 13.3438 -0.140625
Q12.1562 -1.125 10.6875 -1.125
Q9.46875 -1.125 8.59375 -0.34375
Q7.71875 0.4375 7.71875 1.70312" id="Cmmi10-6d"/>
    <path d="
M41.1094 46.2969
Q39.5938 47.1719 37.8125 47.5781
Q36.0312 48 33.8906 48
Q26.2656 48 22.1875 43.0469
Q18.1094 38.0938 18.1094 28.8125
L18.1094 0
L9.07812 0
L9.07812 54.6875
L18.1094 54.6875
L18.1094 46.1875
Q20.9531 51.1719 25.4844 53.5781
Q30.0312 56 36.5312 56
Q37.4531 56 38.5781 55.875
Q39.7031 55.7656 41.0625 55.5156
z
" id="BitstreamVeraSans-Roman-72"/>
    <path d="
M30.6094 48.3906
Q23.3906 48.3906 19.1875 42.75
Q14.9844 37.1094 14.9844 27.2969
Q14.9844 17.4844 19.1562 11.8438
Q23.3438 6.20312 30.6094 6.20312
Q37.7969 6.20312 41.9844 11.8594
Q46.1875 17.5312 46.1875 27.2969
Q46.1875 37.0156 41.9844 42.7031
Q37.7969 48.3906 30.6094 48.3906
M30.6094 56
Q42.3281 56 49.0156 48.375
Q55.7188 40.7656 55.7188 27.2969
Q55.7188 13.875 49.0156 6.21875
Q42.3281 -1.42188 30.6094 -1.42188
Q18.8438 -1.42188 12.1719 6.21875
Q5.51562 13.875 5.51562 27.2969
Q5.51562 40.7656 12.1719 48.375
Q18.8438 56 30.6094 56" id="BitstreamVeraSans-Roman-6f"/>
    <path d="
M9.42188 75.9844
L18.4062 75.9844
L18.4062 0
L9.42188 0
z
" id="BitstreamVeraSans-Roman-6c"/>
    <path d="
M11.7188 12.4062
L22.0156 12.4062
L22.0156 4
L14.0156 -11.625
L7.71875 -11.625
L11.7188 4
z
" id="BitstreamVeraSans-Roman-2c"/>
    <path d="
M7.51562 13.2812
Q6.6875 13.2812 6.14062 13.9062
Q5.60938 14.5469 5.60938 15.2812
Q5.60938 16.1094 6.14062 16.6875
Q6.6875 17.2812 7.51562 17.2812
L70.3125 17.2812
Q71.0469 17.2812 71.5781 16.6875
Q72.125 16.1094 72.125 15.2812
Q72.125 14.5469 71.5781 13.9062
Q71.0469 13.2812 70.3125 13.2812
z

M7.51562 32.7188
Q6.6875 32.7188 6.14062 33.2969
Q5.60938 33.8906 5.60938 34.7188
Q5.60938 35.4531 6.14062 36.0781
Q6.6875 36.7188 7.51562 36.7188
L70.3125 36.7188
Q71.0469 36.7188 71.5781 36.0781
Q72.125 35.4531 72.125 34.7188
Q72.125 33.8906 71.5781 33.2969
Q71.0469 32.7188 70.3125 32.7188
z
" id="Cmr10-3d"/>
    <path d="
M8.5 21.5781
L8.5 54.6875
L17.4844 54.6875
L17.4844 21.9219
Q17.4844 14.1562 20.5 10.2656
Q23.5312 6.39062 29.5938 6.39062
Q36.8594 6.39062 41.0781 11.0312
Q45.3125 15.6719 45.3125 23.6875
L45.3125 54.6875
L54.2969 54.6875
L54.2969 0
L45.3125 0
L45.3125 8.40625
Q42.0469 3.42188 37.7188 1
Q33.4062 -1.42188 27.6875 -1.42188
Q18.2656 -1.42188 13.375 4.4375
Q8.5 10.2969 8.5 21.5781" id="BitstreamVeraSans-Roman-75"/>
    <path d="
M34.2812 27.4844
Q23.3906 27.4844 19.1875 25
Q14.9844 22.5156 14.9844 16.5
Q14.9844 11.7188 18.1406 8.90625
Q21.2969 6.10938 26.7031 6.10938
Q34.1875 6.10938 38.7031 11.4062
Q43.2188 16.7031 43.2188 25.4844
L43.2188 27.4844
z

M52.2031 31.2031
L52.2031 0
L43.2188 0
L43.2188 8.29688
Q40.1406 3.32812 35.5469 0.953125
Q30.9531 -1.42188 24.3125 -1.42188
Q15.9219 -1.42188 10.9531 3.29688
Q6 8.01562 6 15.9219
Q6 25.1406 12.1719 29.8281
Q18.3594 34.5156 30.6094 34.5156
L43.2188 34.5156
L43.2188 35.4062
Q43.2188 41.6094 39.1406 45
Q35.0625 48.3906 27.6875 48.3906
Q23 48.3906 18.5469 47.2656
Q14.1094 46.1406 10.0156 43.8906
L10.0156 52.2031
Q14.9375 54.1094 19.5781 55.0469
Q24.2188 56 28.6094 56
Q40.4844 56 46.3438 49.8438
Q52.2031 43.7031 52.2031 31.2031" id="BitstreamVeraSans-Roman-61"/>
    <path d="
M48.7812 52.5938
L48.7812 44.1875
Q44.9688 46.2969 41.1406 47.3438
Q37.3125 48.3906 33.4062 48.3906
Q24.6562 48.3906 19.8125 42.8438
Q14.9844 37.3125 14.9844 27.2969
Q14.9844 17.2812 19.8125 11.7344
Q24.6562 6.20312 33.4062 6.20312
Q37.3125 6.20312 41.1406 7.25
Q44.9688 8.29688 48.7812 10.4062
L48.7812 2.09375
Q45.0156 0.34375 40.9844 -0.53125
Q36.9688 -1.42188 32.4219 -1.42188
Q20.0625 -1.42188 12.7812 6.34375
Q5.51562 14.1094 5.51562 27.2969
Q5.51562 40.6719 12.8594 48.3281
Q20.2188 56 33.0156 56
Q37.1562 56 41.1094 55.1406
Q45.0625 54.2969 48.7812 52.5938" id="BitstreamVeraSans-Roman-63"/>
    <path d="
M48.6875 27.2969
Q48.6875 37.2031 44.6094 42.8438
Q40.5312 48.4844 33.4062 48.4844
Q26.2656 48.4844 22.1875 42.8438
Q18.1094 37.2031 18.1094 27.2969
Q18.1094 17.3906 22.1875 11.75
Q26.2656 6.10938 33.4062 6.10938
Q40.5312 6.10938 44.6094 11.75
Q48.6875 17.3906 48.6875 27.2969
M18.1094 46.3906
Q20.9531 51.2656 25.2656 53.625
Q29.5938 56 35.5938 56
Q45.5625 56 51.7812 48.0938
Q58.0156 40.1875 58.0156 27.2969
Q58.0156 14.4062 51.7812 6.48438
Q45.5625 -1.42188 35.5938 -1.42188
Q29.5938 -1.42188 25.2656 0.953125
Q20.9531 3.32812 18.1094 8.20312
L18.1094 0
L9.07812 0
L9.07812 75.9844
L18.1094 75.9844
z
" id="BitstreamVeraSans-Roman-62"/>
   </defs>
   <g transform="translate(539.88 21.18)scale(0.12 -0.12)">
    <use transform="translate(0.0 0.015625)" xlink:href="#BitstreamVeraSans-Roman-63"/>
    <use transform="translate(54.98046875 0.015625)" xlink:href="#BitstreamVeraSans-Roman-69"/>
    <use transform="translate(82.763671875 0.015625)" xlink:href="#BitstreamVeraSans-Roman-72"/>
    <use transform="translate(123.876953125 0.015625)" xlink:href="#BitstreamVeraSans-Roman-63"/>
    <use transform="translate(178.857421875 0.015625)" xlink:href="#BitstreamVeraSans-Roman-75"/>
    <use transform="translate(242.236328125 0.015625)" xlink:href="#BitstreamVeraSans-Roman-6c"/>
    <use transform="translate(270.01953125 0.015625)" xlink:href="#BitstreamVeraSans-Roman-61"/>
    <use transform="translate(331.298828125 0.015625)" xlink:href="#BitstreamVeraSans-Roman-72"/>
    <use transform="translate(372.412109375 0.015625)" xlink:href="#BitstreamVeraSans-Roman-20"/>
    <use transform="translate(404.19921875 0.015625)" xlink:href="#BitstreamVeraSans-Roman-6f"/>
    <use transform="translate(465.380859375 0.015625)" xlink:href="#BitstreamVeraSans-Roman-72"/>
    <use transform="translate(506.494140625 0.015625)" xlink:href="#BitstreamVeraSans-Roman-62"/>
    <use transform="translate(569.970703125 0.015625)" xlink:href="#BitstreamVeraSans-Roman-69"/>
    <use transform="translate(597.75390625 0.015625)" xlink:href="#BitstreamVeraSans-Roman-74"/>
    <use transform="translate(636.962890625 0.015625)" xlink:href="#BitstreamVeraSans-Roman-2c"/>
    <use transform="translate(668.75 0.015625)" xlink:href="#BitstreamVeraSans-Roman-20"/>
    <use transform="translate(700.537109375 0.015625)" xlink:href="#Cmmi10-6d"/>
    <use transform="translate(788.330078125 0.015625)" xlink:href="#Cmr10-31"/>
    <use transform="translate(838.330078125 0.015625)" xlink:href="#Cmmi10-3d"/>
    <use transform="translate(888.330078125 0.015625)" xlink:href="#Cmmi10-4d"/>
    <use transform="translate(1002.91015625 0.015625)" xlink:href="#Cmr10-3d"/>
    <use transform="translate(1086.96875 0.015625)" xlink:href="#BitstreamVeraSans-Roman-30"/>
    <use transform="translate(1150.59179688 0.015625)" xlink:href="#BitstreamVeraSans-Roman-2e"/>
    <use transform="translate(1182.37890625 0.015625)" xlink:href="#BitstreamVeraSans-Roman-31"/>
   </g>
  </g>
 </g>
 <defs>
  <clipPath id="paa341766a5">
   <rect height="482.4" width="433.084090909" x="153.675" y="60.3"/>
  </clipPath>
  <clipPath id="p9b96c9b755">
   <rect height="482.4" width="433.084090909" x="673.375909091" y="60.3"/>
  </clipPath>
 </defs>
</svg>
