<?xml version="1.0" encoding="utf-8" standalone="no"?>
<!DOCTYPE svg PUBLIC "-//W3C//DTD SVG 1.1//EN"
  "http://www.w3.org/Graphics/SVG/1.1/DTD/svg11.dtd">
<!-- Created with matplotlib (http://matplotlib.org/) -->
<svg height="603pt" version="1.1" viewBox="0 0 1229 603" width="1229pt" xmlns="http://www.w3.org/2000/svg" xmlns:xlink="http://www.w3.org/1999/xlink">
 <defs>
  <style type="text/css">
*{stroke-linecap:butt;stroke-linejoin:round;}
  </style>
 </defs>
 <g id="figure_1">
  <g id="patch_1">
   <path d="
M0 603
L1229.4 603
L1229.4 0
L0 0
z
" style="fill:#ffffff;"/>
  </g>
  <g id="axes_1">
   <g id="patch_2">
    <path d="
M153.675 542.7
L586.759 542.7
L586.759 60.3
L153.675 60.3
z
" style="fill:#ffffff;"/>
   </g>
   <g id="line2d_1">
    <path clip-path="url(#paa341766a5)" d="
M153.675 301.5
L154.479 300.984
L154.962 300.373
L155.432 299.392
L155.939 297.779
L156.496 295.215
L157.127 291.175
L157.833 285.123
L158.637 276.193
L159.577 263.126
L160.753 243.46
L165.009 168.991
L165.975 157.523
L166.804 150.146
L167.534 145.509
L168.177 142.744
L168.759 141.155
L169.291 140.297
L169.848 139.811
L171.394 138.718
L171.865 137.899
L172.359 136.546
L172.904 134.344
L173.51 130.875
L174.191 125.583
L174.958 117.767
L175.416 112.172
L175.428 490.887
L175.527 489.585
L176.529 474.751
L177.841 451.729
L181.034 394.395
L182.098 379.924
L182.989 370.627
L183.768 364.66
L184.449 361.022
L185.055 358.877
L185.612 357.661
L186.144 357.001
L186.763 356.596
L187.728 355.992
L188.21 355.366
L188.681 354.365
L189.188 352.726
L189.745 350.129
L190.376 346.047
L191.093 339.824
L191.91 330.649
L192.863 317.262
L194.063 296.997
L198.109 225.758
L199.087 213.758
L199.928 205.964
L200.671 201.021
L201.327 198.046
L201.908 196.352
L202.44 195.422
L202.985 194.898
L203.938 194.38
L204.482 193.919
L204.952 193.212
L205.435 192.05
L205.954 190.177
L206.536 187.183
L207.192 182.542
L207.934 175.572
L208.788 165.292
L209.79 150.363
L211.127 126.8
L211.906 112.065
L211.919 490.706
L212.018 488.826
L213.936 454.513
L215.062 438.207
L215.99 427.766
L216.794 421.042
L217.499 416.863
L218.13 414.356
L218.699 412.936
L219.232 412.165
L219.801 411.724
L221.1 410.866
L221.57 410.156
L222.053 408.99
L222.572 407.11
L223.154 404.109
L223.81 399.46
L224.552 392.479
L225.406 382.187
L226.421 367.044
L227.757 343.441
L230.801 288.627
L231.878 273.765
L232.781 264.173
L233.56 258.081
L234.253 254.286
L234.872 252.049
L235.429 250.805
L235.961 250.126
L236.567 249.718
L237.582 249.083
L238.052 248.468
L238.522 247.467
L239.03 245.827
L239.587 243.23
L240.218 239.147
L240.935 232.923
L241.752 223.748
L242.705 210.359
L243.905 190.093
L247.951 118.856
L248.471 112.09
L248.483 490.816
L248.582 489.629
L249.473 480.42
L250.24 474.607
L250.921 471.003
L251.527 468.885
L252.084 467.688
L252.616 467.041
L253.247 466.636
L254.175 466.054
L254.658 465.433
L255.128 464.44
L255.635 462.811
L256.192 460.226
L256.823 456.159
L257.529 450.076
L258.345 440.956
L259.298 427.627
L260.486 407.638
L264.619 335.069
L265.596 323.239
L266.425 315.694
L267.155 310.916
L267.799 308.04
L268.38 306.369
L268.912 305.455
L269.457 304.941
L271.177 303.659
L271.647 302.753
L272.142 301.284
L272.687 298.932
L273.305 295.19
L273.998 289.531
L274.79 281.1
L275.706 268.815
L276.832 250.485
L278.7 215.699
L280.457 184.629
L281.571 168.699
L282.499 158.425
L283.303 151.844
L284.009 147.784
L284.627 145.405
L285.184 144.06
L285.716 143.313
L286.298 142.879
L287.51 142.095
L287.981 141.419
L288.463 140.299
L288.983 138.48
L289.564 135.556
L290.208 131.1
L290.938 124.39
L291.779 114.456
L291.953 112.127
L291.965 490.833
L292.064 489.457
L293.116 473.12
L294.601 446.186
L297.038 402.105
L298.152 386.067
L299.08 375.691
L299.884 369.023
L300.589 364.891
L301.221 362.42
L301.79 361.027
L302.322 360.273
L302.903 359.836
L304.128 359.042
L304.599 358.363
L305.081 357.238
L305.601 355.414
L306.182 352.483
L306.826 348.018
L307.556 341.298
L308.397 331.351
L309.387 316.832
L310.674 294.398
L314.015 234.554
L315.067 220.462
L315.945 211.449
L316.713 205.678
L317.393 202.109
L317.999 200.018
L318.556 198.84
L319.088 198.205
L319.732 197.801
L320.623 197.24
L321.105 196.625
L321.576 195.639
L322.083 194.019
L322.64 191.447
L323.271 187.396
L323.976 181.331
L324.78 172.386
L325.721 159.304
L326.909 139.402
L328.369 112.073
L328.381 490.715
L328.48 488.84
L330.274 456.996
L331.388 440.986
L332.316 430.637
L333.12 423.992
L333.826 419.878
L334.457 417.421
L335.026 416.038
L335.558 415.292
L336.14 414.858
L337.352 414.074
L337.822 413.397
L338.305 412.277
L338.825 410.457
L339.406 407.533
L340.05 403.076
L340.78 396.365
L341.621 386.43
L342.611 371.922
L343.898 349.497
L347.251 289.454
L348.303 275.39
L349.182 266.401
L349.949 260.652
L350.629 257.101
L351.236 255.022
L351.78 253.873
L352.312 253.235
L352.943 252.836
L353.846 252.271
L354.329 251.659
L354.799 250.677
L355.307 249.061
L355.863 246.495
L356.494 242.452
L357.2 236.396
L358.004 227.462
L358.944 214.39
L360.12 194.721
L364.364 120.424
L365.032 112.135
L365.045 490.872
L365.144 489.772
L365.998 481.65
L366.74 476.543
L367.396 473.439
L367.99 471.62
L368.534 470.618
L369.066 470.075
L369.833 469.652
L370.489 469.195
L370.959 468.583
L371.43 467.585
L371.937 465.949
L372.494 463.356
L373.125 459.28
L373.83 453.185
L374.647 444.051
L375.6 430.707
L376.8 410.482
L380.883 338.667
L381.861 326.736
L382.702 319.005
L383.432 314.181
L384.088 311.224
L384.67 309.543
L385.202 308.622
L385.746 308.104
L387.491 306.79
L387.961 305.869
L388.468 304.335
L389.025 301.872
L389.644 298.049
L390.337 292.293
L391.129 283.751
L392.057 271.161
L393.195 252.464
L395.225 214.576
L396.846 186.341
L397.934 171.021
L398.85 161.068
L399.642 154.716
L400.335 150.803
L400.954 148.474
L401.51 147.164
L402.043 146.441
L402.636 146.015
L403.775 145.288
L404.245 144.634
L404.728 143.547
L405.247 141.771
L405.817 138.973
L406.46 134.609
L407.19 128.008
L408.019 118.357
L408.477 112.082
L408.489 490.78
L408.588 489.336
L409.702 471.299
L411.496 437.973
L413.327 405.38
L414.453 389.161
L415.382 378.801
L416.186 372.146
L416.891 368.025
L417.522 365.562
L418.091 364.175
L418.623 363.426
L419.205 362.991
L420.418 362.208
L420.888 361.534
L421.37 360.417
L421.89 358.602
L422.472 355.684
L423.115 351.234
L423.845 344.532
L424.687 334.606
L425.677 320.108
L426.963 297.691
L430.317 237.636
L431.369 223.561
L432.247 214.562
L433.014 208.804
L433.695 205.246
L434.301 203.162
L434.858 201.99
L435.39 201.358
L436.033 200.956
L436.912 200.405
L437.395 199.795
L437.865 198.816
L438.372 197.205
L438.929 194.644
L439.56 190.608
L440.265 184.56
L441.07 175.635
L442.01 162.574
L443.186 142.914
L444.831 112.091
L444.844 490.734
L444.943 488.869
L446.625 459.288
L447.727 443.612
L448.642 433.51
L449.434 427.029
L450.14 422.953
L450.758 420.564
L451.328 419.187
L451.86 418.445
L452.441 418.014
L453.641 417.24
L454.112 416.568
L454.594 415.455
L455.114 413.646
L455.683 410.806
L456.327 406.39
L457.057 399.728
L457.898 389.847
L458.888 375.395
L460.175 353.019
L463.565 292.352
L464.605 278.489
L465.483 269.515
L466.25 263.779
L466.931 260.237
L467.537 258.167
L468.082 257.023
L468.614 256.389
L469.257 255.986
L470.148 255.425
L470.631 254.808
L471.101 253.821
L471.608 252.2
L472.165 249.626
L472.796 245.572
L473.501 239.505
L474.306 230.557
L475.246 217.471
L476.434 197.566
L480.641 123.849
L481.606 112.284
L481.619 112.156
L481.631 490.904
L481.73 489.901
L482.547 482.871
L483.264 478.481
L483.895 475.878
L484.465 474.388
L484.997 473.569
L485.554 473.107
L486.989 472.128
L487.459 471.364
L487.942 470.126
L488.474 468.098
L489.068 464.878
L489.736 459.926
L490.491 452.547
L491.357 441.758
L492.396 425.835
L493.832 400.019
L496.455 352.58
L497.569 336.71
L498.484 326.61
L499.276 320.13
L499.981 316.055
L500.6 313.666
L501.169 312.289
L501.701 311.547
L502.283 311.117
L503.483 310.343
L503.953 309.671
L504.436 308.557
L504.956 306.747
L505.525 303.907
L506.168 299.49
L506.898 292.827
L507.74 282.945
L508.73 268.492
L510.017 246.115
L513.407 185.449
L514.446 171.587
L515.325 162.615
L516.092 156.879
L516.773 153.339
L517.379 151.269
L517.923 150.126
L518.456 149.492
L519.099 149.088
L519.99 148.527
L520.472 147.911
L520.943 146.924
L521.45 145.301
L522.007 142.727
L522.638 138.673
L523.343 132.604
L524.148 123.655
L524.89 113.544
L524.89 113.544" style="fill:none;stroke:#008000;stroke-linecap:square;stroke-width:2;"/>
   </g>
   <g id="patch_3">
    <path d="
M153.675 60.3
L586.759 60.3" style="fill:none;stroke:#000000;stroke-linecap:square;stroke-linejoin:miter;"/>
   </g>
   <g id="patch_4">
    <path d="
M586.759 542.7
L586.759 60.3" style="fill:none;stroke:#000000;stroke-linecap:square;stroke-linejoin:miter;"/>
   </g>
   <g id="patch_5">
    <path d="
M153.675 542.7
L586.759 542.7" style="fill:none;stroke:#000000;stroke-linecap:square;stroke-linejoin:miter;"/>
   </g>
   <g id="patch_6">
    <path d="
M153.675 542.7
L153.675 60.3" style="fill:none;stroke:#000000;stroke-linecap:square;stroke-linejoin:miter;"/>
   </g>
   <g id="matplotlib.axis_1">
    <g id="xtick_1">
     <g id="line2d_2">
      <defs>
       <path d="
M0 0
L0 -4" id="m93b0483c22" style="stroke:#000000;stroke-width:0.5;"/>
      </defs>
      <g>
       <use style="stroke:#000000;stroke-width:0.5;" x="153.675" xlink:href="#m93b0483c22" y="542.7"/>
      </g>
     </g>
     <g id="line2d_3">
      <defs>
       <path d="
M0 0
L0 4" id="m741efc42ff" style="stroke:#000000;stroke-width:0.5;"/>
      </defs>
      <g>
       <use style="stroke:#000000;stroke-width:0.5;" x="153.675" xlink:href="#m741efc42ff" y="60.3"/>
      </g>
     </g>
     <g id="text_1">
      <!-- 0 -->
      <defs>
       <path d="
M31.7812 66.4062
Q24.1719 66.4062 20.3281 58.9062
Q16.5 51.4219 16.5 36.375
Q16.5 21.3906 20.3281 13.8906
Q24.1719 6.39062 31.7812 6.39062
Q39.4531 6.39062 43.2812 13.8906
Q47.125 21.3906 47.125 36.375
Q47.125 51.4219 43.2812 58.9062
Q39.4531 66.4062 31.7812 66.4062
M31.7812 74.2188
Q44.0469 74.2188 50.5156 64.5156
Q56.9844 54.8281 56.9844 36.375
Q56.9844 17.9688 50.5156 8.26562
Q44.0469 -1.42188 31.7812 -1.42188
Q19.5312 -1.42188 13.0625 8.26562
Q6.59375 17.9688 6.59375 36.375
Q6.59375 54.8281 13.0625 64.5156
Q19.5312 74.2188 31.7812 74.2188" id="BitstreamVeraSans-Roman-30"/>
      </defs>
      <g transform="translate(150.6515625 555.818125)scale(0.12 -0.12)">
       <use xlink:href="#BitstreamVeraSans-Roman-30"/>
      </g>
     </g>
    </g>
    <g id="xtick_2">
     <g id="line2d_4">
      <g>
       <use style="stroke:#000000;stroke-width:0.5;" x="215.544155844" xlink:href="#m93b0483c22" y="542.7"/>
      </g>
     </g>
     <g id="line2d_5">
      <g>
       <use style="stroke:#000000;stroke-width:0.5;" x="215.544155844" xlink:href="#m741efc42ff" y="60.3"/>
      </g>
     </g>
     <g id="text_2">
      <!-- 5 -->
      <defs>
       <path d="
M10.7969 72.9062
L49.5156 72.9062
L49.5156 64.5938
L19.8281 64.5938
L19.8281 46.7344
Q21.9688 47.4688 24.1094 47.8281
Q26.2656 48.1875 28.4219 48.1875
Q40.625 48.1875 47.75 41.5
Q54.8906 34.8125 54.8906 23.3906
Q54.8906 11.625 47.5625 5.09375
Q40.2344 -1.42188 26.9062 -1.42188
Q22.3125 -1.42188 17.5469 -0.640625
Q12.7969 0.140625 7.71875 1.70312
L7.71875 11.625
Q12.1094 9.23438 16.7969 8.0625
Q21.4844 6.89062 26.7031 6.89062
Q35.1562 6.89062 40.0781 11.3281
Q45.0156 15.7656 45.0156 23.3906
Q45.0156 31 40.0781 35.4375
Q35.1562 39.8906 26.7031 39.8906
Q22.75 39.8906 18.8125 39.0156
Q14.8906 38.1406 10.7969 36.2812
z
" id="BitstreamVeraSans-Roman-35"/>
      </defs>
      <g transform="translate(212.713843344 555.818125)scale(0.12 -0.12)">
       <use xlink:href="#BitstreamVeraSans-Roman-35"/>
      </g>
     </g>
    </g>
    <g id="xtick_3">
     <g id="line2d_6">
      <g>
       <use style="stroke:#000000;stroke-width:0.5;" x="277.413311688" xlink:href="#m93b0483c22" y="542.7"/>
      </g>
     </g>
     <g id="line2d_7">
      <g>
       <use style="stroke:#000000;stroke-width:0.5;" x="277.413311688" xlink:href="#m741efc42ff" y="60.3"/>
      </g>
     </g>
     <g id="text_3">
      <!-- 10 -->
      <defs>
       <path d="
M12.4062 8.29688
L28.5156 8.29688
L28.5156 63.9219
L10.9844 60.4062
L10.9844 69.3906
L28.4219 72.9062
L38.2812 72.9062
L38.2812 8.29688
L54.3906 8.29688
L54.3906 0
L12.4062 0
z
" id="BitstreamVeraSans-Roman-31"/>
      </defs>
      <g transform="translate(270.835811688 555.818125)scale(0.12 -0.12)">
       <use xlink:href="#BitstreamVeraSans-Roman-31"/>
       <use x="63.623046875" xlink:href="#BitstreamVeraSans-Roman-30"/>
      </g>
     </g>
    </g>
    <g id="xtick_4">
     <g id="line2d_8">
      <g>
       <use style="stroke:#000000;stroke-width:0.5;" x="339.282467532" xlink:href="#m93b0483c22" y="542.7"/>
      </g>
     </g>
     <g id="line2d_9">
      <g>
       <use style="stroke:#000000;stroke-width:0.5;" x="339.282467532" xlink:href="#m741efc42ff" y="60.3"/>
      </g>
     </g>
     <g id="text_4">
      <!-- 15 -->
      <g transform="translate(332.830592532 555.818125)scale(0.12 -0.12)">
       <use xlink:href="#BitstreamVeraSans-Roman-31"/>
       <use x="63.623046875" xlink:href="#BitstreamVeraSans-Roman-35"/>
      </g>
     </g>
    </g>
    <g id="xtick_5">
     <g id="line2d_10">
      <g>
       <use style="stroke:#000000;stroke-width:0.5;" x="401.151623377" xlink:href="#m93b0483c22" y="542.7"/>
      </g>
     </g>
     <g id="line2d_11">
      <g>
       <use style="stroke:#000000;stroke-width:0.5;" x="401.151623377" xlink:href="#m741efc42ff" y="60.3"/>
      </g>
     </g>
     <g id="text_5">
      <!-- 20 -->
      <defs>
       <path d="
M19.1875 8.29688
L53.6094 8.29688
L53.6094 0
L7.32812 0
L7.32812 8.29688
Q12.9375 14.1094 22.625 23.8906
Q32.3281 33.6875 34.8125 36.5312
Q39.5469 41.8438 41.4219 45.5312
Q43.3125 49.2188 43.3125 52.7812
Q43.3125 58.5938 39.2344 62.25
Q35.1562 65.9219 28.6094 65.9219
Q23.9688 65.9219 18.8125 64.3125
Q13.6719 62.7031 7.8125 59.4219
L7.8125 69.3906
Q13.7656 71.7812 18.9375 73
Q24.125 74.2188 28.4219 74.2188
Q39.75 74.2188 46.4844 68.5469
Q53.2188 62.8906 53.2188 53.4219
Q53.2188 48.9219 51.5312 44.8906
Q49.8594 40.875 45.4062 35.4062
Q44.1875 33.9844 37.6406 27.2188
Q31.1094 20.4531 19.1875 8.29688" id="BitstreamVeraSans-Roman-32"/>
      </defs>
      <g transform="translate(394.354748377 555.818125)scale(0.12 -0.12)">
       <use xlink:href="#BitstreamVeraSans-Roman-32"/>
       <use x="63.623046875" xlink:href="#BitstreamVeraSans-Roman-30"/>
      </g>
     </g>
    </g>
    <g id="xtick_6">
     <g id="line2d_12">
      <g>
       <use style="stroke:#000000;stroke-width:0.5;" x="463.020779221" xlink:href="#m93b0483c22" y="542.7"/>
      </g>
     </g>
     <g id="line2d_13">
      <g>
       <use style="stroke:#000000;stroke-width:0.5;" x="463.020779221" xlink:href="#m741efc42ff" y="60.3"/>
      </g>
     </g>
     <g id="text_6">
      <!-- 25 -->
      <g transform="translate(456.349529221 555.818125)scale(0.12 -0.12)">
       <use xlink:href="#BitstreamVeraSans-Roman-32"/>
       <use x="63.623046875" xlink:href="#BitstreamVeraSans-Roman-35"/>
      </g>
     </g>
    </g>
    <g id="xtick_7">
     <g id="line2d_14">
      <g>
       <use style="stroke:#000000;stroke-width:0.5;" x="524.889935065" xlink:href="#m93b0483c22" y="542.7"/>
      </g>
     </g>
     <g id="line2d_15">
      <g>
       <use style="stroke:#000000;stroke-width:0.5;" x="524.889935065" xlink:href="#m741efc42ff" y="60.3"/>
      </g>
     </g>
     <g id="text_7">
      <!-- 30 -->
      <defs>
       <path d="
M40.5781 39.3125
Q47.6562 37.7969 51.625 33
Q55.6094 28.2188 55.6094 21.1875
Q55.6094 10.4062 48.1875 4.48438
Q40.7656 -1.42188 27.0938 -1.42188
Q22.5156 -1.42188 17.6562 -0.515625
Q12.7969 0.390625 7.625 2.20312
L7.625 11.7188
Q11.7188 9.32812 16.5938 8.10938
Q21.4844 6.89062 26.8125 6.89062
Q36.0781 6.89062 40.9375 10.5469
Q45.7969 14.2031 45.7969 21.1875
Q45.7969 27.6406 41.2812 31.2656
Q36.7656 34.9062 28.7188 34.9062
L20.2188 34.9062
L20.2188 43.0156
L29.1094 43.0156
Q36.375 43.0156 40.2344 45.9219
Q44.0938 48.8281 44.0938 54.2969
Q44.0938 59.9062 40.1094 62.9062
Q36.1406 65.9219 28.7188 65.9219
Q24.6562 65.9219 20.0156 65.0312
Q15.375 64.1562 9.8125 62.3125
L9.8125 71.0938
Q15.4375 72.6562 20.3438 73.4375
Q25.25 74.2188 29.5938 74.2188
Q40.8281 74.2188 47.3594 69.1094
Q53.9062 64.0156 53.9062 55.3281
Q53.9062 49.2656 50.4375 45.0938
Q46.9688 40.9219 40.5781 39.3125" id="BitstreamVeraSans-Roman-33"/>
      </defs>
      <g transform="translate(518.110872565 555.818125)scale(0.12 -0.12)">
       <use xlink:href="#BitstreamVeraSans-Roman-33"/>
       <use x="63.623046875" xlink:href="#BitstreamVeraSans-Roman-30"/>
      </g>
     </g>
    </g>
    <g id="xtick_8">
     <g id="line2d_16">
      <g>
       <use style="stroke:#000000;stroke-width:0.5;" x="586.759090909" xlink:href="#m93b0483c22" y="542.7"/>
      </g>
     </g>
     <g id="line2d_17">
      <g>
       <use style="stroke:#000000;stroke-width:0.5;" x="586.759090909" xlink:href="#m741efc42ff" y="60.3"/>
      </g>
     </g>
     <g id="text_8">
      <!-- 35 -->
      <g transform="translate(580.105653409 555.818125)scale(0.12 -0.12)">
       <use xlink:href="#BitstreamVeraSans-Roman-33"/>
       <use x="63.623046875" xlink:href="#BitstreamVeraSans-Roman-35"/>
      </g>
     </g>
    </g>
    <g id="text_9">
     <!-- time($s$) -->
     <defs>
      <path d="
M8.01562 75.875
L15.8281 75.875
Q23.1406 64.3594 26.7812 53.3125
Q30.4219 42.2812 30.4219 31.3906
Q30.4219 20.4531 26.7812 9.375
Q23.1406 -1.70312 15.8281 -13.1875
L8.01562 -13.1875
Q14.5 -2 17.7031 9.0625
Q20.9062 20.125 20.9062 31.3906
Q20.9062 42.6719 17.7031 53.6562
Q14.5 64.6562 8.01562 75.875" id="BitstreamVeraSans-Roman-29"/>
      <path d="
M52 44.1875
Q55.375 50.25 60.0625 53.125
Q64.75 56 71.0938 56
Q79.6406 56 84.2812 50.0156
Q88.9219 44.0469 88.9219 33.0156
L88.9219 0
L79.8906 0
L79.8906 32.7188
Q79.8906 40.5781 77.0938 44.375
Q74.3125 48.1875 68.6094 48.1875
Q61.625 48.1875 57.5625 43.5469
Q53.5156 38.9219 53.5156 30.9062
L53.5156 0
L44.4844 0
L44.4844 32.7188
Q44.4844 40.625 41.7031 44.4062
Q38.9219 48.1875 33.1094 48.1875
Q26.2188 48.1875 22.1562 43.5312
Q18.1094 38.875 18.1094 30.9062
L18.1094 0
L9.07812 0
L9.07812 54.6875
L18.1094 54.6875
L18.1094 46.1875
Q21.1875 51.2188 25.4844 53.6094
Q29.7812 56 35.6875 56
Q41.6562 56 45.8281 52.9688
Q50 49.9531 52 44.1875" id="BitstreamVeraSans-Roman-6d"/>
      <path d="
M8.6875 6.10938
Q11.375 1.51562 19.4844 1.51562
Q23 1.51562 26.1719 2.70312
Q29.3438 3.90625 31.4219 6.29688
Q33.5 8.6875 33.5 12.1094
Q33.5 14.7031 31.6406 16.3594
Q29.7812 18.0156 27.0938 18.6094
L21.6875 19.6719
Q17.9688 20.6094 15.5781 23.1406
Q13.1875 25.6875 13.1875 29.2969
Q13.1875 33.7344 15.5938 37.1562
Q18.0156 40.5781 21.9688 42.375
Q25.9219 44.1875 30.1719 44.1875
Q34.7188 44.1875 38.2969 42.0156
Q41.8906 39.8438 41.8906 35.5938
Q41.8906 33.2969 40.5938 31.5312
Q39.3125 29.7812 37.0156 29.7812
Q35.6875 29.7812 34.7344 30.6406
Q33.7969 31.5 33.7969 32.8125
Q33.7969 33.9844 34.4531 35.0781
Q35.1094 36.1875 36.2031 36.8438
Q37.3125 37.5 38.4844 37.5
Q37.5938 39.6562 35.1719 40.625
Q32.7656 41.6094 29.9844 41.6094
Q27.4375 41.6094 24.8906 40.5781
Q22.3594 39.5469 20.8125 37.5625
Q19.2812 35.5938 19.2812 32.9062
Q19.2812 31.1094 20.5469 29.7344
Q21.8281 28.375 23.6875 27.7812
L29.5 26.6094
Q32.2812 26.0312 34.5938 24.5312
Q36.9219 23.0469 38.25 20.7656
Q39.5938 18.5 39.5938 15.5781
Q39.5938 11.8594 37.5156 8.25
Q35.4531 4.64062 32.4219 2.48438
Q27.0938 -1.125 19.3906 -1.125
Q14.0625 -1.125 9.60938 1.3125
Q5.17188 3.76562 5.17188 8.59375
Q5.17188 11.3281 6.75 13.3438
Q8.34375 15.375 11.0781 15.375
Q12.7031 15.375 13.7969 14.3906
Q14.8906 13.4219 14.8906 11.8125
Q14.8906 9.51562 13.1719 7.8125
Q11.4688 6.10938 9.1875 6.10938
z
" id="Cmmi10-73"/>
      <path d="
M9.42188 54.6875
L18.4062 54.6875
L18.4062 0
L9.42188 0
z

M9.42188 75.9844
L18.4062 75.9844
L18.4062 64.5938
L9.42188 64.5938
z
" id="BitstreamVeraSans-Roman-69"/>
      <path d="
M31 75.875
Q24.4688 64.6562 21.2812 53.6562
Q18.1094 42.6719 18.1094 31.3906
Q18.1094 20.125 21.3125 9.0625
Q24.5156 -2 31 -13.1875
L23.1875 -13.1875
Q15.875 -1.70312 12.2344 9.375
Q8.59375 20.4531 8.59375 31.3906
Q8.59375 42.2812 12.2031 53.3125
Q15.8281 64.3594 23.1875 75.875
z
" id="BitstreamVeraSans-Roman-28"/>
      <path d="
M56.2031 29.5938
L56.2031 25.2031
L14.8906 25.2031
Q15.4844 15.9219 20.4844 11.0625
Q25.4844 6.20312 34.4219 6.20312
Q39.5938 6.20312 44.4531 7.46875
Q49.3125 8.73438 54.1094 11.2812
L54.1094 2.78125
Q49.2656 0.734375 44.1875 -0.34375
Q39.1094 -1.42188 33.8906 -1.42188
Q20.7969 -1.42188 13.1562 6.1875
Q5.51562 13.8125 5.51562 26.8125
Q5.51562 40.2344 12.7656 48.1094
Q20.0156 56 32.3281 56
Q43.3594 56 49.7812 48.8906
Q56.2031 41.7969 56.2031 29.5938
M47.2188 32.2344
Q47.125 39.5938 43.0938 43.9844
Q39.0625 48.3906 32.4219 48.3906
Q24.9062 48.3906 20.3906 44.1406
Q15.875 39.8906 15.1875 32.1719
z
" id="BitstreamVeraSans-Roman-65"/>
      <path d="
M18.3125 70.2188
L18.3125 54.6875
L36.8125 54.6875
L36.8125 47.7031
L18.3125 47.7031
L18.3125 18.0156
Q18.3125 11.3281 20.1406 9.42188
Q21.9688 7.51562 27.5938 7.51562
L36.8125 7.51562
L36.8125 0
L27.5938 0
Q17.1875 0 13.2344 3.875
Q9.28125 7.76562 9.28125 18.0156
L9.28125 47.7031
L2.6875 47.7031
L2.6875 54.6875
L9.28125 54.6875
L9.28125 70.2188
z
" id="BitstreamVeraSans-Roman-74"/>
     </defs>
     <g transform="translate(349.157045455 572.431875)scale(0.12 -0.12)">
      <use transform="translate(0.0 0.015625)" xlink:href="#BitstreamVeraSans-Roman-74"/>
      <use transform="translate(39.208984375 0.015625)" xlink:href="#BitstreamVeraSans-Roman-69"/>
      <use transform="translate(66.9921875 0.015625)" xlink:href="#BitstreamVeraSans-Roman-6d"/>
      <use transform="translate(164.404296875 0.015625)" xlink:href="#BitstreamVeraSans-Roman-65"/>
      <use transform="translate(225.927734375 0.015625)" xlink:href="#BitstreamVeraSans-Roman-28"/>
      <use transform="translate(264.94140625 0.015625)" xlink:href="#Cmmi10-73"/>
      <use transform="translate(311.71875 0.015625)" xlink:href="#BitstreamVeraSans-Roman-29"/>
     </g>
    </g>
   </g>
   <g id="matplotlib.axis_2">
    <g id="ytick_1">
     <g id="line2d_18">
      <defs>
       <path d="
M0 0
L4 0" id="m728421d6d4" style="stroke:#000000;stroke-width:0.5;"/>
      </defs>
      <g>
       <use style="stroke:#000000;stroke-width:0.5;" x="153.675" xlink:href="#m728421d6d4" y="542.7"/>
      </g>
     </g>
     <g id="line2d_19">
      <defs>
       <path d="
M0 0
L-4 0" id="mcb0005524f" style="stroke:#000000;stroke-width:0.5;"/>
      </defs>
      <g>
       <use style="stroke:#000000;stroke-width:0.5;" x="586.759090909" xlink:href="#mcb0005524f" y="542.7"/>
      </g>
     </g>
     <g id="text_10">
      <!-- −4 -->
      <defs>
       <path d="
M10.5938 35.5
L73.1875 35.5
L73.1875 27.2031
L10.5938 27.2031
z
" id="BitstreamVeraSans-Roman-2212"/>
       <path d="
M37.7969 64.3125
L12.8906 25.3906
L37.7969 25.3906
z

M35.2031 72.9062
L47.6094 72.9062
L47.6094 25.3906
L58.0156 25.3906
L58.0156 17.1875
L47.6094 17.1875
L47.6094 0
L37.7969 0
L37.7969 17.1875
L4.89062 17.1875
L4.89062 26.7031
z
" id="BitstreamVeraSans-Roman-34"/>
      </defs>
      <g transform="translate(133.92875 546.01125)scale(0.12 -0.12)">
       <use xlink:href="#BitstreamVeraSans-Roman-2212"/>
       <use x="83.7890625" xlink:href="#BitstreamVeraSans-Roman-34"/>
      </g>
     </g>
    </g>
    <g id="ytick_2">
     <g id="line2d_20">
      <g>
       <use style="stroke:#000000;stroke-width:0.5;" x="153.675" xlink:href="#m728421d6d4" y="482.4"/>
      </g>
     </g>
     <g id="line2d_21">
      <g>
       <use style="stroke:#000000;stroke-width:0.5;" x="586.759090909" xlink:href="#mcb0005524f" y="482.4"/>
      </g>
     </g>
     <g id="text_11">
      <!-- −3 -->
      <g transform="translate(134.2175 485.71125)scale(0.12 -0.12)">
       <use xlink:href="#BitstreamVeraSans-Roman-2212"/>
       <use x="83.7890625" xlink:href="#BitstreamVeraSans-Roman-33"/>
      </g>
     </g>
    </g>
    <g id="ytick_3">
     <g id="line2d_22">
      <g>
       <use style="stroke:#000000;stroke-width:0.5;" x="153.675" xlink:href="#m728421d6d4" y="422.1"/>
      </g>
     </g>
     <g id="line2d_23">
      <g>
       <use style="stroke:#000000;stroke-width:0.5;" x="586.759090909" xlink:href="#mcb0005524f" y="422.1"/>
      </g>
     </g>
     <g id="text_12">
      <!-- −2 -->
      <g transform="translate(134.4575 425.41125)scale(0.12 -0.12)">
       <use xlink:href="#BitstreamVeraSans-Roman-2212"/>
       <use x="83.7890625" xlink:href="#BitstreamVeraSans-Roman-32"/>
      </g>
     </g>
    </g>
    <g id="ytick_4">
     <g id="line2d_24">
      <g>
       <use style="stroke:#000000;stroke-width:0.5;" x="153.675" xlink:href="#m728421d6d4" y="361.8"/>
      </g>
     </g>
     <g id="line2d_25">
      <g>
       <use style="stroke:#000000;stroke-width:0.5;" x="586.759090909" xlink:href="#mcb0005524f" y="361.8"/>
      </g>
     </g>
     <g id="text_13">
      <!-- −1 -->
      <g transform="translate(134.36375 365.11125)scale(0.12 -0.12)">
       <use xlink:href="#BitstreamVeraSans-Roman-2212"/>
       <use x="83.7890625" xlink:href="#BitstreamVeraSans-Roman-31"/>
      </g>
     </g>
    </g>
    <g id="ytick_5">
     <g id="line2d_26">
      <g>
       <use style="stroke:#000000;stroke-width:0.5;" x="153.675" xlink:href="#m728421d6d4" y="301.5"/>
      </g>
     </g>
     <g id="line2d_27">
      <g>
       <use style="stroke:#000000;stroke-width:0.5;" x="586.759090909" xlink:href="#mcb0005524f" y="301.5"/>
      </g>
     </g>
     <g id="text_14">
      <!-- 0 -->
      <g transform="translate(143.628125 304.81125)scale(0.12 -0.12)">
       <use xlink:href="#BitstreamVeraSans-Roman-30"/>
      </g>
     </g>
    </g>
    <g id="ytick_6">
     <g id="line2d_28">
      <g>
       <use style="stroke:#000000;stroke-width:0.5;" x="153.675" xlink:href="#m728421d6d4" y="241.2"/>
      </g>
     </g>
     <g id="line2d_29">
      <g>
       <use style="stroke:#000000;stroke-width:0.5;" x="586.759090909" xlink:href="#mcb0005524f" y="241.2"/>
      </g>
     </g>
     <g id="text_15">
      <!-- 1 -->
      <g transform="translate(144.46625 244.51125)scale(0.12 -0.12)">
       <use xlink:href="#BitstreamVeraSans-Roman-31"/>
      </g>
     </g>
    </g>
    <g id="ytick_7">
     <g id="line2d_30">
      <g>
       <use style="stroke:#000000;stroke-width:0.5;" x="153.675" xlink:href="#m728421d6d4" y="180.9"/>
      </g>
     </g>
     <g id="line2d_31">
      <g>
       <use style="stroke:#000000;stroke-width:0.5;" x="586.759090909" xlink:href="#mcb0005524f" y="180.9"/>
      </g>
     </g>
     <g id="text_16">
      <!-- 2 -->
      <g transform="translate(144.12125 184.21125)scale(0.12 -0.12)">
       <use xlink:href="#BitstreamVeraSans-Roman-32"/>
      </g>
     </g>
    </g>
    <g id="ytick_8">
     <g id="line2d_32">
      <g>
       <use style="stroke:#000000;stroke-width:0.5;" x="153.675" xlink:href="#m728421d6d4" y="120.6"/>
      </g>
     </g>
     <g id="line2d_33">
      <g>
       <use style="stroke:#000000;stroke-width:0.5;" x="586.759090909" xlink:href="#mcb0005524f" y="120.6"/>
      </g>
     </g>
     <g id="text_17">
      <!-- 3 -->
      <g transform="translate(143.916875 123.91125)scale(0.12 -0.12)">
       <use xlink:href="#BitstreamVeraSans-Roman-33"/>
      </g>
     </g>
    </g>
    <g id="ytick_9">
     <g id="line2d_34">
      <g>
       <use style="stroke:#000000;stroke-width:0.5;" x="153.675" xlink:href="#m728421d6d4" y="60.3"/>
      </g>
     </g>
     <g id="line2d_35">
      <g>
       <use style="stroke:#000000;stroke-width:0.5;" x="586.759090909" xlink:href="#mcb0005524f" y="60.3"/>
      </g>
     </g>
     <g id="text_18">
      <!-- 4 -->
      <g transform="translate(143.3 63.61125)scale(0.12 -0.12)">
       <use xlink:href="#BitstreamVeraSans-Roman-34"/>
      </g>
     </g>
    </g>
    <g id="text_19">
     <!-- $\theta$($Rad$) -->
     <defs>
      <path d="
M16.1094 -1.125
Q11.5781 -1.125 8.84375 2.1875
Q6.10938 5.51562 5.04688 10.2031
Q4 14.8906 4 19.4844
L4 19.5781
Q4 24.5625 4.95312 29.9219
Q5.90625 35.2969 7.70312 40.6406
Q9.51562 46 11.625 50.2031
Q13.0938 53.125 15.4062 56.7344
Q17.7188 60.3594 20.5781 63.5
Q23.4375 66.6562 26.7344 68.5781
Q30.0312 70.5156 33.4062 70.5156
L33.5 70.5156
Q37.1094 70.5156 39.5156 68.5
Q41.9375 66.5 43.2812 63.375
Q44.625 60.25 45.1562 56.6875
Q45.7031 53.125 45.7031 49.9062
Q45.7031 42.3281 43.6562 34.4375
Q41.6094 26.5625 37.9844 19.1875
Q36.625 16.4062 34.2031 12.6406
Q31.7812 8.89062 29.0781 5.90625
Q26.375 2.9375 23 0.90625
Q19.625 -1.125 16.2188 -1.125
z

M16.3125 1.51562
Q19.625 1.51562 22.6719 5.04688
Q25.7344 8.59375 28.0312 13.6406
Q30.3281 18.7031 32.0625 24
Q33.7969 29.2969 34.625 33.0156
L14.2031 33.0156
Q12.6406 26.7031 11.7656 22.1406
Q10.8906 17.5781 10.8906 13.1875
Q10.8906 1.51562 16.3125 1.51562
M14.9844 36.5312
L35.5 36.5312
Q36.5781 40.9219 37.2031 43.875
Q37.8438 46.8281 38.2812 50.0938
Q38.7188 53.375 38.7188 56.2031
Q38.7188 67.9219 33.4062 67.9219
Q27.0469 67.9219 22.4375 57.6875
Q17.8281 47.4688 14.9844 36.5312" id="Cmmi10-b5"/>
      <path d="
M17.3906 -1.125
Q11.0781 -1.125 7.4375 3.64062
Q3.8125 8.40625 3.8125 14.8906
Q3.8125 21.2969 7.125 28.1719
Q10.4531 35.0625 16.0938 39.625
Q21.7344 44.1875 28.2188 44.1875
Q31.2031 44.1875 33.5469 42.5781
Q35.8906 40.9688 37.2031 38.1875
Q38.3281 42.1875 41.6094 42.1875
Q42.875 42.1875 43.7188 41.4219
Q44.5781 40.6719 44.5781 39.4062
Q44.5781 39.1094 44.5469 38.9531
Q44.5312 38.8125 44.4844 38.625
L37.5 10.6875
Q36.8125 7.71875 36.8125 5.8125
Q36.8125 1.51562 39.7031 1.51562
Q42.8281 1.51562 44.4531 5.48438
Q46.0938 9.46875 47.2188 14.7031
Q47.4062 15.2812 48 15.2812
L49.2188 15.2812
Q49.6094 15.2812 49.8438 14.9375
Q50.0938 14.5938 50.0938 14.3125
Q48.3438 7.32812 46.2656 3.09375
Q44.1875 -1.125 39.5 -1.125
Q36.1406 -1.125 33.5469 0.84375
Q30.9531 2.82812 30.3281 6.10938
Q23.875 -1.125 17.3906 -1.125
M17.4844 1.51562
Q21.0938 1.51562 24.4844 4.21875
Q27.875 6.9375 30.3281 10.5938
Q30.4219 10.6875 30.4219 10.8906
L35.7969 32.625
L35.8906 32.9062
Q35.2969 36.4688 33.3125 39.0312
Q31.3438 41.6094 27.9844 41.6094
Q24.6094 41.6094 21.7031 38.8438
Q18.7969 36.0781 16.7969 32.3281
Q14.8438 28.3281 13.0625 21.3438
Q11.2812 14.3594 11.2812 10.5
Q11.2812 7.03125 12.7656 4.26562
Q14.2656 1.51562 17.4844 1.51562" id="Cmmi10-61"/>
      <path d="
M4.89062 0
Q3.90625 0 3.90625 1.3125
Q3.95312 1.5625 4.09375 2.17188
Q4.25 2.78125 4.51562 3.14062
Q4.78125 3.51562 5.17188 3.51562
Q11.2812 3.51562 13.7188 4.20312
Q14.9844 4.64062 15.5781 6.89062
L29.2969 61.8125
Q29.5 62.7969 29.5 63.1875
Q29.5 64.2656 28.3281 64.4062
Q26.4219 64.7969 21.0938 64.7969
Q20.125 64.7969 20.125 66.1094
Q20.1719 66.3594 20.3125 66.9688
Q20.4531 67.5781 20.7188 67.9375
Q21 68.3125 21.3906 68.3125
L51.7031 68.3125
Q55.3281 68.3125 59.2344 67.4844
Q63.1406 66.6562 66.4062 64.875
Q69.6719 63.0938 71.7656 60.125
Q73.875 57.1719 73.875 53.2188
Q73.875 48.1875 70.5469 44.2344
Q67.2344 40.2812 62.1562 37.625
Q57.0781 34.9688 52.2969 33.8906
Q56.2031 32.4688 58.6875 29.3594
Q61.1875 26.2656 61.1875 22.2188
Q61.1875 21.6875 61.1562 21.4062
Q61.1406 21.1406 61.0781 20.7969
L60.2969 11.9219
Q60.2031 9.96875 60.1094 8.59375
Q60.0156 7.23438 60.0156 6.39062
Q60.0156 3.65625 60.8125 2.01562
Q61.625 0.390625 64.0156 0.390625
Q67.1406 0.390625 69.5 3.29688
Q71.875 6.20312 72.6094 9.625
Q73.0469 10.5 73.5781 10.5
L74.5156 10.5
Q75.4844 10.5 75.4844 9.1875
Q74.75 6.29688 73.1562 3.70312
Q71.5781 1.125 69.1562 -0.53125
Q66.75 -2.20312 63.9219 -2.20312
Q58.0625 -2.20312 53.9375 0.40625
Q49.8125 3.03125 49.8125 8.59375
Q49.8125 10.6875 50.2031 12.3125
L52.3906 21.1875
Q52.7812 22.4062 52.7812 24.0312
Q52.7812 28.1719 49.9688 30.5312
Q47.1719 32.9062 42.9219 32.9062
L30.6094 32.9062
L24.0312 6.5
Q23.7812 5.67188 23.7812 5.07812
Q23.7812 4.04688 25 3.90625
Q26.9062 3.51562 32.1719 3.51562
Q33.2031 3.51562 33.2031 2.20312
Q32.8594 0.78125 32.6562 0.390625
Q32.4688 0 31.5 0
z

M31.2031 35.5
L42.2812 35.5
Q53.1719 35.5 58.6875 41.0156
Q61.2344 43.5625 62.7188 47.4844
Q64.2031 51.4219 64.2031 55.3281
Q64.2031 59.0312 62.0312 61.125
Q59.8594 63.2344 56.6562 64.0156
Q53.4688 64.7969 49.6094 64.7969
L42.9219 64.7969
Q40.1875 64.7969 39.2969 64.3281
Q38.4219 63.875 37.7031 61.375
z
" id="Cmmi10-52"/>
      <path d="
M17.3906 -1.125
Q11.0781 -1.125 7.4375 3.64062
Q3.8125 8.40625 3.8125 14.8906
Q3.8125 21.2969 7.125 28.1719
Q10.4531 35.0625 16.0938 39.625
Q21.7344 44.1875 28.2188 44.1875
Q31.1562 44.1875 33.5156 42.5469
Q35.8906 40.9219 37.2031 38.1875
L42.8281 60.5
Q43.2188 62.2031 43.3125 63.1875
Q43.3125 64.7969 36.8125 64.7969
Q35.7969 64.7969 35.7969 66.1094
Q35.8438 66.3594 36.0156 66.9844
Q36.1875 67.625 36.4531 67.9688
Q36.7188 68.3125 37.2031 68.3125
L50.6875 69.3906
Q51.9062 69.3906 51.9062 68.1094
L37.5 10.5938
Q36.8125 8.9375 36.8125 5.8125
Q36.8125 1.51562 39.7031 1.51562
Q42.8281 1.51562 44.4531 5.48438
Q46.0938 9.46875 47.2188 14.7031
Q47.4062 15.2812 48 15.2812
L49.2188 15.2812
Q49.6094 15.2812 49.8438 14.9375
Q50.0938 14.5938 50.0938 14.3125
Q48.3438 7.32812 46.2656 3.09375
Q44.1875 -1.125 39.5 -1.125
Q36.1406 -1.125 33.5469 0.84375
Q30.9531 2.82812 30.3281 6.10938
Q23.875 -1.125 17.3906 -1.125
M17.4844 1.51562
Q21.0938 1.51562 24.4844 4.21875
Q27.875 6.9375 30.3281 10.5938
Q30.4219 10.6875 30.4219 10.9844
L35.8906 33.0156
Q35.2969 36.5312 33.2969 39.0625
Q31.2969 41.6094 27.9844 41.6094
Q24.6094 41.6094 21.7031 38.8438
Q18.7969 36.0781 16.7969 32.3281
Q14.8438 28.3281 13.0625 21.3438
Q11.2812 14.3594 11.2812 10.5
Q11.2812 7.03125 12.7656 4.26562
Q14.2656 1.51562 17.4844 1.51562" id="Cmmi10-64"/>
     </defs>
     <g transform="translate(126.433125 319.86)rotate(-90.0)scale(0.12 -0.12)">
      <use transform="translate(0.0 0.125)" xlink:href="#Cmmi10-b5"/>
      <use transform="translate(46.923828125 0.125)" xlink:href="#BitstreamVeraSans-Roman-28"/>
      <use transform="translate(85.9375 0.125)" xlink:href="#Cmmi10-52"/>
      <use transform="translate(161.81640625 0.125)" xlink:href="#Cmmi10-61"/>
      <use transform="translate(214.599609375 0.125)" xlink:href="#Cmmi10-64"/>
      <use transform="translate(266.6015625 0.125)" xlink:href="#BitstreamVeraSans-Roman-29"/>
     </g>
    </g>
   </g>
   <g id="legend_1">
    <g id="line2d_36">
     <path d="
M540.777 73.3932
L554.772 73.3932" style="fill:none;stroke:#008000;stroke-linecap:square;stroke-width:2;"/>
    </g>
    <g id="line2d_37"/>
    <g id="text_20">
     <!-- $\theta$-$t$ -->
     <defs>
      <path d="
M4.89062 31.3906
L31.2031 31.3906
L31.2031 23.3906
L4.89062 23.3906
z
" id="BitstreamVeraSans-Roman-2d"/>
      <path d="
M6.20312 8.10938
Q6.20312 9.57812 6.5 10.8906
L13.7188 39.5938
L3.21875 39.5938
Q2.20312 39.5938 2.20312 40.9219
Q2.59375 43.1094 3.51562 43.1094
L14.5938 43.1094
L18.6094 59.4219
Q19 60.75 20.1719 61.6719
Q21.3438 62.5938 22.7969 62.5938
Q24.0781 62.5938 24.9219 61.8281
Q25.7812 61.0781 25.7812 59.8125
Q25.7812 59.5156 25.75 59.3438
Q25.7344 59.1875 25.6875 58.9844
L21.6875 43.1094
L31.9844 43.1094
Q33.0156 43.1094 33.0156 41.7969
Q32.9531 41.5469 32.8125 40.9531
Q32.6719 40.375 32.4219 39.9844
Q32.1719 39.5938 31.6875 39.5938
L20.7969 39.5938
L13.625 10.6875
Q12.8906 7.85938 12.8906 5.8125
Q12.8906 1.51562 15.8281 1.51562
Q20.2188 1.51562 23.6094 5.64062
Q27 9.76562 28.8125 14.7031
Q29.2031 15.2812 29.5938 15.2812
L30.8125 15.2812
Q31.2031 15.2812 31.4375 15.0156
Q31.6875 14.75 31.6875 14.4062
Q31.6875 14.2031 31.5938 14.1094
Q29.3906 8.0625 25.1875 3.46875
Q21 -1.125 15.5781 -1.125
Q11.625 -1.125 8.90625 1.45312
Q6.20312 4.04688 6.20312 8.10938" id="Cmmi10-74"/>
     </defs>
     <g transform="translate(565.767490909 76.891798125)scale(0.09996 -0.09996)">
      <use transform="translate(0.0 0.484375)" xlink:href="#Cmmi10-b5"/>
      <use transform="translate(46.923828125 0.484375)" xlink:href="#BitstreamVeraSans-Roman-2d"/>
      <use transform="translate(83.0078125 0.484375)" xlink:href="#Cmmi10-74"/>
     </g>
    </g>
   </g>
  </g>
  <g id="axes_2">
   <g id="patch_7">
    <path d="
M673.376 542.7
L1106.46 542.7
L1106.46 60.3
L673.376 60.3
z
" style="fill:#ffffff;"/>
   </g>
   <g id="line2d_38">
    <path clip-path="url(#p9b96c9b755)" d="
M673.376 530.64
L673.45 530.558
L673.586 529.9
L673.809 527.413
L674.118 521.111
L674.539 507.483
L675.096 481.388
L675.838 435.046
L676.952 349.714
L679.538 147.537
L680.33 103.991
L680.899 83.3081
L681.32 74.7745
L681.605 72.4862
L681.703 72.3631
L681.741 72.4067
L681.864 72.9057
L682.062 74.8303
L682.359 80.2741
L682.755 92.1091
L683.275 114.883
L683.968 155.889
L684.97 229.995
L688.113 471.876
L688.831 507.165
L689.351 523.299
L689.734 529.424
L689.969 530.628
L690.031 530.619
L690.056 530.577
L690.18 530.041
L690.39 527.889
L690.687 522.235
L691.095 509.677
L691.627 485.772
L692.345 442.401
L693.384 364.413
L696.317 137.249
L697.059 98.9959
L697.604 80.9573
L698 73.9881
L698.26 72.3924
L698.322 72.3656
L698.359 72.4148
L698.482 72.9325
L698.693 75.0546
L698.99 80.6678
L699.398 93.1719
L699.93 117.016
L700.635 159.488
L701.662 236.272
L704.645 467
L705.375 504.348
L705.919 522.244
L706.315 529.1
L706.575 530.619
L706.637 530.628
L706.674 530.567
L706.81 529.928
L707.02 527.653
L707.33 521.522
L707.75 508.111
L708.295 482.93
L709.025 437.884
L710.101 356.069
L712.836 143.083
L713.603 101.974
L714.172 82.0934
L714.581 74.3598
L714.853 72.4312
L714.927 72.3613
L714.977 72.4236
L715.1 72.96
L715.311 75.1136
L715.608 80.7701
L716.016 93.33
L716.548 117.238
L717.266 160.612
L718.305 238.603
L721.226 465.012
L721.968 503.496
L722.512 521.744
L722.908 528.879
L723.168 530.586
L723.242 530.634
L723.28 530.585
L723.403 530.066
L723.614 527.943
L723.911 522.327
L724.319 509.821
L724.851 485.973
L725.556 443.499
L726.583 366.712
L729.565 135.988
L730.296 98.6436
L730.84 80.7512
L731.236 73.898
L731.496 72.3806
L731.558 72.3725
L731.595 72.433
L731.731 73.0735
L731.941 75.35
L732.251 81.4831
L732.671 94.8962
L733.216 120.08
L733.946 165.13
L735.022 246.947
L737.757 459.93
L738.524 501.035
L739.093 520.912
L739.502 528.643
L739.774 530.569
L739.848 530.639
L739.898 530.576
L740.021 530.039
L740.232 527.884
L740.529 522.225
L740.937 509.663
L741.469 485.752
L742.187 442.375
L743.226 364.381
L746.146 137.976
L746.889 99.4957
L747.433 81.2515
L747.829 74.1192
L748.089 72.4133
L748.163 72.3658
L748.2 72.4156
L748.324 72.935
L748.535 75.06
L748.832 80.6772
L749.24 93.1865
L749.772 117.037
L750.477 159.515
L751.504 236.304
L754.486 467.023
L755.216 504.365
L755.761 522.254
L756.157 529.104
L756.417 530.62
L756.479 530.627
L756.516 530.567
L756.652 529.925
L756.862 527.647
L757.171 521.512
L757.592 508.096
L758.137 482.909
L758.867 437.857
L759.943 356.037
L762.665 143.834
L763.433 102.498
L764.002 82.4056
L764.41 74.5047
L764.682 72.4609
L764.769 72.3615
L764.806 72.4005
L764.918 72.8115
L765.115 74.6256
L765.4 79.6273
L765.796 91.0999
L766.316 113.454
L766.996 153.207
L767.974 224.807
L771.265 476.641
L771.958 509.404
L772.466 524.301
L772.837 529.716
L773.059 530.64
L773.134 530.556
L773.27 529.895
L773.493 527.401
L773.802 521.09
L774.223 507.452
L774.779 481.345
L775.522 434.992
L776.636 349.65
L779.222 147.487
L780.014 103.956
L780.583 83.2866
L781.003 74.7642
L781.288 72.4839
L781.387 72.3635
L781.424 72.4081
L781.548 72.9106
L781.746 74.8407
L782.043 80.2925
L782.439 92.1375
L782.971 115.557
L783.676 157.592
L784.691 233.02
L787.76 469.743
L788.477 505.721
L789.009 522.749
L789.393 529.191
L789.64 530.615
L789.702 530.631
L789.739 530.575
L789.863 530.036
L790.074 527.878
L790.37 522.216
L790.779 509.648
L791.311 485.731
L792.029 442.348
L793.068 364.35
L795.988 137.952
L796.731 99.4793
L797.275 81.2418
L797.671 74.1148
L797.931 72.4125
L798.005 72.3661
L798.042 72.4164
L798.166 72.9375
L798.376 75.0654
L798.673 80.6866
L799.082 93.201
L799.614 117.057
L800.319 159.541
L801.346 236.335
L804.328 467.047
L805.058 504.381
L805.603 522.263
L805.999 529.108
L806.258 530.62
L806.32 530.627
L806.357 530.566
L806.494 529.922
L806.716 527.459
L807.026 521.189
L807.446 507.603
L808.003 481.555
L808.746 435.261
L809.847 350.974
L812.458 146.943
L813.25 103.576
L813.819 83.0551
L814.24 74.6547
L814.524 72.4598
L814.611 72.3616
L814.648 72.4012
L814.759 72.8137
L814.957 74.6305
L815.242 79.6361
L815.638 91.1138
L816.158 113.473
L816.838 153.232
L817.816 224.838
L821.107 476.663
L821.8 509.418
L822.307 524.31
L822.679 529.72
L822.901 530.64
L822.976 530.555
L823.112 529.892
L823.334 527.395
L823.656 520.761
L824.077 506.952
L824.634 480.65
L825.376 434.102
L826.49 348.608
L829.051 148.255
L829.843 104.496
L830.425 83.2759
L830.845 74.7591
L831.13 72.4827
L831.229 72.3637
L831.266 72.4089
L831.39 72.9131
L831.588 74.8459
L831.885 80.3017
L832.281 92.1517
L832.813 115.577
L833.518 157.618
L834.533 233.051
L837.601 469.766
L838.319 505.737
L838.851 522.758
L839.235 529.195
L839.482 530.615
L839.544 530.63
L839.581 530.574
L839.705 530.034
L839.915 527.873
L840.212 522.206
L840.621 509.633
L841.153 485.711
L841.87 442.321
L842.91 364.318
L845.83 137.928
L846.572 99.4628
L847.117 81.2321
L847.513 74.1105
L847.773 72.4118
L847.847 72.3664
L847.884 72.4172
L848.008 72.9401
L848.218 75.0709
L848.515 80.696
L848.923 93.2156
L849.456 117.078
L850.173 160.404
L851.213 238.355
L854.145 465.577
L854.888 503.884
L855.432 521.972
L855.828 528.981
L856.088 530.603
L856.15 530.636
L856.187 530.591
L856.311 530.086
L856.509 528.152
L856.806 522.694
L857.202 510.841
L857.734 487.413
L858.439 445.369
L859.454 369.933
L862.522 133.222
L863.24 97.2553
L863.772 80.2375
L864.156 73.8026
L864.403 72.3846
L864.465 72.3697
L864.502 72.4261
L864.626 72.9677
L864.836 75.13
L865.133 80.7985
L865.542 93.3738
L866.074 117.3
L866.791 160.692
L867.831 238.698
L870.751 465.084
L871.493 503.545
L872.038 521.773
L872.434 528.892
L872.694 530.589
L872.768 530.633
L872.805 530.582
L872.929 530.059
L873.139 527.926
L873.436 522.299
L873.844 509.777
L874.376 485.912
L875.094 442.583
L876.134 364.629
L879.066 137.411
L879.809 99.1076
L880.353 81.0229
L880.749 74.0171
L881.009 72.3966
L881.071 72.3639
L881.108 72.4096
L881.232 72.9155
L881.43 74.8511
L881.726 80.3109
L882.122 92.1659
L882.655 115.597
L883.36 157.645
L884.374 233.083
L887.443 469.79
L888.161 505.753
L888.693 522.767
L889.077 529.199
L889.324 530.616
L889.386 530.63
L889.423 530.573
L889.547 530.031
L889.757 527.867
L890.054 522.197
L890.462 509.619
L890.994 485.69
L891.712 442.295
L892.752 364.287
L895.672 137.904
L896.414 99.4464
L896.959 81.2224
L897.355 74.1061
L897.614 72.411
L897.689 72.3667
L897.726 72.418
L897.85 72.9426
L898.06 75.0763
L898.357 80.7055
L898.765 93.2301
L899.297 117.098
L900.015 160.43
L901.054 238.387
L903.987 465.6
L904.729 503.901
L905.274 521.982
L905.67 528.985
L905.93 530.604
L905.992 530.636
L906.029 530.59
L906.152 530.083
L906.35 528.146
L906.647 522.685
L907.043 510.827
L907.575 487.393
L908.281 445.342
L909.295 369.901
L912.364 133.199
L913.082 97.2396
L913.614 80.2283
L913.997 73.7986
L914.245 72.384
L914.307 72.3701
L914.344 72.427
L914.468 72.9703
L914.678 75.1355
L914.975 80.8079
L915.383 93.3884
L915.915 117.32
L916.633 160.718
L917.672 238.729
L920.593 465.108
L921.335 503.562
L921.88 521.782
L922.276 528.896
L922.535 530.589
L922.61 530.633
L922.647 530.582
L922.77 530.056
L922.981 527.921
L923.278 522.29
L923.686 509.763
L924.218 485.892
L924.936 442.557
L925.975 364.597
L928.908 137.388
L929.65 99.0913
L930.195 81.0133
L930.591 74.0128
L930.851 72.396
L930.912 72.3641
L930.95 72.4104
L931.073 72.918
L931.271 74.8563
L931.568 80.3201
L931.964 92.1801
L932.496 115.617
L933.202 157.671
L934.216 233.114
L937.285 469.813
L938.003 505.768
L938.535 522.776
L938.918 529.203
L939.166 530.616
L939.228 530.63
L939.265 530.573
L939.389 530.028
L939.599 527.862
L939.908 521.886
L940.317 509.141
L940.861 484.369
L941.579 440.586
L942.63 361.263
L945.476 140.152
L946.231 100.474
L946.788 81.521
L947.196 74.1018
L947.456 72.4103
L947.531 72.367
L947.568 72.4188
L947.691 72.9451
L947.902 75.0817
L948.199 80.7149
L948.607 93.2447
L949.139 117.118
L949.857 160.457
L950.896 238.418
L953.829 465.624
L954.571 503.917
L955.116 521.992
L955.512 528.989
L955.771 530.604
L955.833 530.636
L955.87 530.589
L955.994 530.081
L956.192 528.141
L956.489 522.675
L956.885 510.813
L957.417 487.373
L958.123 445.316
L959.137 369.87
L962.206 133.176
L962.924 97.2238
L963.456 80.2192
L963.839 73.7947
L964.087 72.3835
L964.149 72.3704
L964.186 72.4279
L964.309 72.9729
L964.52 75.1409
L964.829 81.119
L965.237 93.8667
L965.782 118.641
L966.5 162.428
L967.551 241.753
L970.397 462.86
L971.152 502.534
L971.709 521.484
L972.117 528.9
L972.377 530.59
L972.451 530.633
L972.489 530.581
L972.612 530.054
L972.823 527.916
L973.12 522.28
L973.528 509.748
L974.06 485.871
L974.778 442.53
L975.817 364.566
L978.75 137.364
L979.492 99.075
L980.037 81.0037
L980.433 74.0086
L980.692 72.3953
L980.754 72.3644
L980.791 72.4111
L980.915 72.9205
L981.113 74.8615
L981.41 80.3293
L981.806 92.1943
L982.338 115.637
L983.043 157.697
L984.058 233.146
L987.127 469.836
L987.844 505.784
L988.377 522.785
L988.76 529.207
L989.008 530.617
L989.069 530.629
L989.107 530.572
L989.23 530.026
L989.441 527.856
L989.75 521.876
L990.158 509.126
L990.703 484.348
L991.42 440.559
L992.472 361.231
L995.318 140.128
L996.073 100.458
L996.63 81.5111
L997.038 74.0974
L997.298 72.4095
L997.372 72.3672
L997.409 72.4196
L997.533 72.9476
L997.744 75.0871
L998.04 80.7243
L998.449 93.2593
L998.981 117.139
L999.699 160.483
L1000.74 238.45
L1003.67 465.648
L1004.41 503.933
L1004.96 522.001
L1005.35 528.994
L1005.61 530.605
L1005.68 530.636
L1005.71 530.589
L1005.84 530.078
L1006.05 527.969
L1006.34 522.373
L1006.75 509.891
L1007.28 486.073
L1007.99 443.627
L1009.02 366.865
L1012 136.103
L1012.73 98.7222
L1013.27 80.7971
L1013.67 73.918
L1013.93 72.383
L1013.99 72.3708
L1014.03 72.4287
L1014.15 72.9754
L1014.36 75.1464
L1014.67 81.1286
L1015.08 93.8815
L1015.62 118.662
L1016.34 162.454
L1017.39 241.785
L1020.24 462.884
L1020.99 502.551
L1021.55 521.494
L1021.96 528.905
L1022.22 530.591
L1022.29 530.633
L1022.33 530.58
L1022.45 530.051
L1022.66 527.91
L1022.96 522.271
L1023.37 509.733
L1023.9 485.851
L1024.62 442.503
L1025.66 364.534
L1028.59 137.34
L1029.33 99.0587
L1029.88 80.9941
L1030.27 74.0044
L1030.53 72.3947
L1030.6 72.3646
L1030.63 72.4119
L1030.76 72.9229
L1030.97 75.0338
L1031.26 80.6317
L1031.67 93.1159
L1032.2 116.938
L1032.91 159.386
L1033.94 236.151
L1036.92 466.909
L1037.65 504.286
L1038.19 522.208
L1038.59 529.084
L1038.85 530.617
L1038.91 530.629
L1038.95 530.571
L1039.07 530.023
L1039.28 527.851
L1039.59 521.867
L1040 509.111
L1040.54 484.328
L1041.26 440.532
L1042.31 361.199
L1044.59 178.25
L1044.59 178.25" style="fill:none;stroke:#bf00bf;stroke-linecap:square;stroke-width:2;"/>
   </g>
   <g id="patch_8">
    <path d="
M673.376 60.3
L1106.46 60.3" style="fill:none;stroke:#000000;stroke-linecap:square;stroke-linejoin:miter;"/>
   </g>
   <g id="patch_9">
    <path d="
M1106.46 542.7
L1106.46 60.3" style="fill:none;stroke:#000000;stroke-linecap:square;stroke-linejoin:miter;"/>
   </g>
   <g id="patch_10">
    <path d="
M673.376 542.7
L1106.46 542.7" style="fill:none;stroke:#000000;stroke-linecap:square;stroke-linejoin:miter;"/>
   </g>
   <g id="patch_11">
    <path d="
M673.376 542.7
L673.376 60.3" style="fill:none;stroke:#000000;stroke-linecap:square;stroke-linejoin:miter;"/>
   </g>
   <g id="matplotlib.axis_3">
    <g id="xtick_9">
     <g id="line2d_39">
      <g>
       <use style="stroke:#000000;stroke-width:0.5;" x="673.375909091" xlink:href="#m93b0483c22" y="542.7"/>
      </g>
     </g>
     <g id="line2d_40">
      <g>
       <use style="stroke:#000000;stroke-width:0.5;" x="673.375909091" xlink:href="#m741efc42ff" y="60.3"/>
      </g>
     </g>
     <g id="text_21">
      <!-- 0 -->
      <g transform="translate(670.352471591 555.818125)scale(0.12 -0.12)">
       <use xlink:href="#BitstreamVeraSans-Roman-30"/>
      </g>
     </g>
    </g>
    <g id="xtick_10">
     <g id="line2d_41">
      <g>
       <use style="stroke:#000000;stroke-width:0.5;" x="735.245064935" xlink:href="#m93b0483c22" y="542.7"/>
      </g>
     </g>
     <g id="line2d_42">
      <g>
       <use style="stroke:#000000;stroke-width:0.5;" x="735.245064935" xlink:href="#m741efc42ff" y="60.3"/>
      </g>
     </g>
     <g id="text_22">
      <!-- 5 -->
      <g transform="translate(732.414752435 555.818125)scale(0.12 -0.12)">
       <use xlink:href="#BitstreamVeraSans-Roman-35"/>
      </g>
     </g>
    </g>
    <g id="xtick_11">
     <g id="line2d_43">
      <g>
       <use style="stroke:#000000;stroke-width:0.5;" x="797.114220779" xlink:href="#m93b0483c22" y="542.7"/>
      </g>
     </g>
     <g id="line2d_44">
      <g>
       <use style="stroke:#000000;stroke-width:0.5;" x="797.114220779" xlink:href="#m741efc42ff" y="60.3"/>
      </g>
     </g>
     <g id="text_23">
      <!-- 10 -->
      <g transform="translate(790.536720779 555.818125)scale(0.12 -0.12)">
       <use xlink:href="#BitstreamVeraSans-Roman-31"/>
       <use x="63.623046875" xlink:href="#BitstreamVeraSans-Roman-30"/>
      </g>
     </g>
    </g>
    <g id="xtick_12">
     <g id="line2d_45">
      <g>
       <use style="stroke:#000000;stroke-width:0.5;" x="858.983376623" xlink:href="#m93b0483c22" y="542.7"/>
      </g>
     </g>
     <g id="line2d_46">
      <g>
       <use style="stroke:#000000;stroke-width:0.5;" x="858.983376623" xlink:href="#m741efc42ff" y="60.3"/>
      </g>
     </g>
     <g id="text_24">
      <!-- 15 -->
      <g transform="translate(852.531501623 555.818125)scale(0.12 -0.12)">
       <use xlink:href="#BitstreamVeraSans-Roman-31"/>
       <use x="63.623046875" xlink:href="#BitstreamVeraSans-Roman-35"/>
      </g>
     </g>
    </g>
    <g id="xtick_13">
     <g id="line2d_47">
      <g>
       <use style="stroke:#000000;stroke-width:0.5;" x="920.852532468" xlink:href="#m93b0483c22" y="542.7"/>
      </g>
     </g>
     <g id="line2d_48">
      <g>
       <use style="stroke:#000000;stroke-width:0.5;" x="920.852532468" xlink:href="#m741efc42ff" y="60.3"/>
      </g>
     </g>
     <g id="text_25">
      <!-- 20 -->
      <g transform="translate(914.055657468 555.818125)scale(0.12 -0.12)">
       <use xlink:href="#BitstreamVeraSans-Roman-32"/>
       <use x="63.623046875" xlink:href="#BitstreamVeraSans-Roman-30"/>
      </g>
     </g>
    </g>
    <g id="xtick_14">
     <g id="line2d_49">
      <g>
       <use style="stroke:#000000;stroke-width:0.5;" x="982.721688312" xlink:href="#m93b0483c22" y="542.7"/>
      </g>
     </g>
     <g id="line2d_50">
      <g>
       <use style="stroke:#000000;stroke-width:0.5;" x="982.721688312" xlink:href="#m741efc42ff" y="60.3"/>
      </g>
     </g>
     <g id="text_26">
      <!-- 25 -->
      <g transform="translate(976.050438312 555.818125)scale(0.12 -0.12)">
       <use xlink:href="#BitstreamVeraSans-Roman-32"/>
       <use x="63.623046875" xlink:href="#BitstreamVeraSans-Roman-35"/>
      </g>
     </g>
    </g>
    <g id="xtick_15">
     <g id="line2d_51">
      <g>
       <use style="stroke:#000000;stroke-width:0.5;" x="1044.59084416" xlink:href="#m93b0483c22" y="542.7"/>
      </g>
     </g>
     <g id="line2d_52">
      <g>
       <use style="stroke:#000000;stroke-width:0.5;" x="1044.59084416" xlink:href="#m741efc42ff" y="60.3"/>
      </g>
     </g>
     <g id="text_27">
      <!-- 30 -->
      <g transform="translate(1037.81178166 555.818125)scale(0.12 -0.12)">
       <use xlink:href="#BitstreamVeraSans-Roman-33"/>
       <use x="63.623046875" xlink:href="#BitstreamVeraSans-Roman-30"/>
      </g>
     </g>
    </g>
    <g id="xtick_16">
     <g id="line2d_53">
      <g>
       <use style="stroke:#000000;stroke-width:0.5;" x="1106.46" xlink:href="#m93b0483c22" y="542.7"/>
      </g>
     </g>
     <g id="line2d_54">
      <g>
       <use style="stroke:#000000;stroke-width:0.5;" x="1106.46" xlink:href="#m741efc42ff" y="60.3"/>
      </g>
     </g>
     <g id="text_28">
      <!-- 35 -->
      <g transform="translate(1099.8065625 555.818125)scale(0.12 -0.12)">
       <use xlink:href="#BitstreamVeraSans-Roman-33"/>
       <use x="63.623046875" xlink:href="#BitstreamVeraSans-Roman-35"/>
      </g>
     </g>
    </g>
    <g id="text_29">
     <!-- time($s$) -->
     <g transform="translate(868.857954545 572.431875)scale(0.12 -0.12)">
      <use transform="translate(0.0 0.015625)" xlink:href="#BitstreamVeraSans-Roman-74"/>
      <use transform="translate(39.208984375 0.015625)" xlink:href="#BitstreamVeraSans-Roman-69"/>
      <use transform="translate(66.9921875 0.015625)" xlink:href="#BitstreamVeraSans-Roman-6d"/>
      <use transform="translate(164.404296875 0.015625)" xlink:href="#BitstreamVeraSans-Roman-65"/>
      <use transform="translate(225.927734375 0.015625)" xlink:href="#BitstreamVeraSans-Roman-28"/>
      <use transform="translate(264.94140625 0.015625)" xlink:href="#Cmmi10-73"/>
      <use transform="translate(311.71875 0.015625)" xlink:href="#BitstreamVeraSans-Roman-29"/>
     </g>
    </g>
   </g>
   <g id="matplotlib.axis_4">
    <g id="ytick_10">
     <g id="line2d_55">
      <g>
       <use style="stroke:#000000;stroke-width:0.5;" x="673.375909091" xlink:href="#m728421d6d4" y="542.7"/>
      </g>
     </g>
     <g id="line2d_56">
      <g>
       <use style="stroke:#000000;stroke-width:0.5;" x="1106.46" xlink:href="#mcb0005524f" y="542.7"/>
      </g>
     </g>
     <g id="text_30">
      <!-- 0.0 -->
      <defs>
       <path d="
M10.6875 12.4062
L21 12.4062
L21 0
L10.6875 0
z
" id="BitstreamVeraSans-Roman-2e"/>
      </defs>
      <g transform="translate(651.880284091 546.01125)scale(0.12 -0.12)">
       <use xlink:href="#BitstreamVeraSans-Roman-30"/>
       <use x="63.623046875" xlink:href="#BitstreamVeraSans-Roman-2e"/>
       <use x="95.41015625" xlink:href="#BitstreamVeraSans-Roman-30"/>
      </g>
     </g>
    </g>
    <g id="ytick_11">
     <g id="line2d_57">
      <g>
       <use style="stroke:#000000;stroke-width:0.5;" x="673.375909091" xlink:href="#m728421d6d4" y="482.4"/>
      </g>
     </g>
     <g id="line2d_58">
      <g>
       <use style="stroke:#000000;stroke-width:0.5;" x="1106.46" xlink:href="#mcb0005524f" y="482.4"/>
      </g>
     </g>
     <g id="text_31">
      <!-- 0.5 -->
      <g transform="translate(652.131534091 485.71125)scale(0.12 -0.12)">
       <use xlink:href="#BitstreamVeraSans-Roman-30"/>
       <use x="63.623046875" xlink:href="#BitstreamVeraSans-Roman-2e"/>
       <use x="95.41015625" xlink:href="#BitstreamVeraSans-Roman-35"/>
      </g>
     </g>
    </g>
    <g id="ytick_12">
     <g id="line2d_59">
      <g>
       <use style="stroke:#000000;stroke-width:0.5;" x="673.375909091" xlink:href="#m728421d6d4" y="422.1"/>
      </g>
     </g>
     <g id="line2d_60">
      <g>
       <use style="stroke:#000000;stroke-width:0.5;" x="1106.46" xlink:href="#mcb0005524f" y="422.1"/>
      </g>
     </g>
     <g id="text_32">
      <!-- 1.0 -->
      <g transform="translate(652.407159091 425.41125)scale(0.12 -0.12)">
       <use xlink:href="#BitstreamVeraSans-Roman-31"/>
       <use x="63.623046875" xlink:href="#BitstreamVeraSans-Roman-2e"/>
       <use x="95.41015625" xlink:href="#BitstreamVeraSans-Roman-30"/>
      </g>
     </g>
    </g>
    <g id="ytick_13">
     <g id="line2d_61">
      <g>
       <use style="stroke:#000000;stroke-width:0.5;" x="673.375909091" xlink:href="#m728421d6d4" y="361.8"/>
      </g>
     </g>
     <g id="line2d_62">
      <g>
       <use style="stroke:#000000;stroke-width:0.5;" x="1106.46" xlink:href="#mcb0005524f" y="361.8"/>
      </g>
     </g>
     <g id="text_33">
      <!-- 1.5 -->
      <g transform="translate(652.658409091 365.11125)scale(0.12 -0.12)">
       <use xlink:href="#BitstreamVeraSans-Roman-31"/>
       <use x="63.623046875" xlink:href="#BitstreamVeraSans-Roman-2e"/>
       <use x="95.41015625" xlink:href="#BitstreamVeraSans-Roman-35"/>
      </g>
     </g>
    </g>
    <g id="ytick_14">
     <g id="line2d_63">
      <g>
       <use style="stroke:#000000;stroke-width:0.5;" x="673.375909091" xlink:href="#m728421d6d4" y="301.5"/>
      </g>
     </g>
     <g id="line2d_64">
      <g>
       <use style="stroke:#000000;stroke-width:0.5;" x="1106.46" xlink:href="#mcb0005524f" y="301.5"/>
      </g>
     </g>
     <g id="text_34">
      <!-- 2.0 -->
      <g transform="translate(651.968409091 304.81125)scale(0.12 -0.12)">
       <use xlink:href="#BitstreamVeraSans-Roman-32"/>
       <use x="63.623046875" xlink:href="#BitstreamVeraSans-Roman-2e"/>
       <use x="95.41015625" xlink:href="#BitstreamVeraSans-Roman-30"/>
      </g>
     </g>
    </g>
    <g id="ytick_15">
     <g id="line2d_65">
      <g>
       <use style="stroke:#000000;stroke-width:0.5;" x="673.375909091" xlink:href="#m728421d6d4" y="241.2"/>
      </g>
     </g>
     <g id="line2d_66">
      <g>
       <use style="stroke:#000000;stroke-width:0.5;" x="1106.46" xlink:href="#mcb0005524f" y="241.2"/>
      </g>
     </g>
     <g id="text_35">
      <!-- 2.5 -->
      <g transform="translate(652.219659091 244.51125)scale(0.12 -0.12)">
       <use xlink:href="#BitstreamVeraSans-Roman-32"/>
       <use x="63.623046875" xlink:href="#BitstreamVeraSans-Roman-2e"/>
       <use x="95.41015625" xlink:href="#BitstreamVeraSans-Roman-35"/>
      </g>
     </g>
    </g>
    <g id="ytick_16">
     <g id="line2d_67">
      <g>
       <use style="stroke:#000000;stroke-width:0.5;" x="673.375909091" xlink:href="#m728421d6d4" y="180.9"/>
      </g>
     </g>
     <g id="line2d_68">
      <g>
       <use style="stroke:#000000;stroke-width:0.5;" x="1106.46" xlink:href="#mcb0005524f" y="180.9"/>
      </g>
     </g>
     <g id="text_36">
      <!-- 3.0 -->
      <g transform="translate(652.004034091 184.21125)scale(0.12 -0.12)">
       <use xlink:href="#BitstreamVeraSans-Roman-33"/>
       <use x="63.623046875" xlink:href="#BitstreamVeraSans-Roman-2e"/>
       <use x="95.41015625" xlink:href="#BitstreamVeraSans-Roman-30"/>
      </g>
     </g>
    </g>
    <g id="ytick_17">
     <g id="line2d_69">
      <g>
       <use style="stroke:#000000;stroke-width:0.5;" x="673.375909091" xlink:href="#m728421d6d4" y="120.6"/>
      </g>
     </g>
     <g id="line2d_70">
      <g>
       <use style="stroke:#000000;stroke-width:0.5;" x="1106.46" xlink:href="#mcb0005524f" y="120.6"/>
      </g>
     </g>
     <g id="text_37">
      <!-- 3.5 -->
      <g transform="translate(652.255284091 123.91125)scale(0.12 -0.12)">
       <use xlink:href="#BitstreamVeraSans-Roman-33"/>
       <use x="63.623046875" xlink:href="#BitstreamVeraSans-Roman-2e"/>
       <use x="95.41015625" xlink:href="#BitstreamVeraSans-Roman-35"/>
      </g>
     </g>
    </g>
    <g id="ytick_18">
     <g id="line2d_71">
      <g>
       <use style="stroke:#000000;stroke-width:0.5;" x="673.375909091" xlink:href="#m728421d6d4" y="60.3"/>
      </g>
     </g>
     <g id="line2d_72">
      <g>
       <use style="stroke:#000000;stroke-width:0.5;" x="1106.46" xlink:href="#mcb0005524f" y="60.3"/>
      </g>
     </g>
     <g id="text_38">
      <!-- 4.0 -->
      <g transform="translate(651.675909091 63.61125)scale(0.12 -0.12)">
       <use xlink:href="#BitstreamVeraSans-Roman-34"/>
       <use x="63.623046875" xlink:href="#BitstreamVeraSans-Roman-2e"/>
       <use x="95.41015625" xlink:href="#BitstreamVeraSans-Roman-30"/>
      </g>
     </g>
    </g>
    <g id="text_39">
     <!-- $\omega$($Rad/s$) -->
     <defs>
      <path d="
M5.60938 -23
Q5.60938 -22.7031 5.71875 -22.6094
L40.4844 73.7812
Q40.6719 74.3594 41.1562 74.6719
Q41.6562 75 42.2812 75
Q43.1719 75 43.7188 74.4531
Q44.2812 73.9219 44.2812 73
L44.2812 72.6094
L9.51562 -23.7812
Q8.9375 -25 7.625 -25
Q6.78125 -25 6.1875 -24.4062
Q5.60938 -23.8281 5.60938 -23" id="Cmmi10-3d"/>
      <path d="
M12.1094 -1.125
Q6.45312 -1.125 3.9375 3.01562
Q1.42188 7.17188 1.42188 13.1875
Q1.42188 17.1406 2.125 20.9219
Q2.82812 24.7031 4.26562 28.5781
Q5.71875 32.4688 7.5625 35.8594
Q9.42188 39.2656 11.7188 42.4844
Q12.1562 43.1094 12.8906 43.1094
Q13.5312 43.1094 13.9219 42.7188
Q14.3125 42.3281 14.3125 41.7969
Q14.3125 41.2656 14.0156 40.8281
Q4.89062 28.2656 4.89062 17.6719
Q4.89062 13.0938 7 9.79688
Q9.125 6.5 13.4844 6.5
Q17.2344 6.5 20.4375 8.6875
Q23.6406 10.8906 25.9844 14.3125
Q25.9844 16.0625 26.5938 19.7656
Q27.2031 23.4844 28.4844 26.3906
Q29.7812 29.2969 31.5938 29.2969
Q33.8906 29.2969 33.8906 26.6094
Q33.8906 25.0469 33.2188 22.6719
Q32.5625 20.3125 31.75 18.2656
Q30.9531 16.2188 29.7812 13.625
Q30.9531 6.5 36.9219 6.5
Q40.375 6.5 43.8594 8.5
Q47.3594 10.5 50.0469 13.75
Q52.7344 17 54.2656 20.75
Q55.8125 24.5156 55.8125 27.875
Q55.8125 30.9062 54.8594 32.5938
Q53.9062 34.2812 52.3438 36.125
Q50.7812 37.9844 50.7812 39.1094
Q50.7812 41.0625 52.4375 42.6719
Q54.1094 44.2812 56 44.2812
Q58.4531 44.2812 59.4688 42.0625
Q60.5 39.8438 60.5 37.0156
Q60.5 32.4219 58.6719 25.4375
Q56.8438 18.4531 54.5 13.8125
Q51.2656 7.51562 46.4062 3.1875
Q41.5469 -1.125 35.5 -1.125
Q31.6406 -1.125 29.2656 1.1875
Q26.9062 3.51562 26.2188 7.51562
Q23.4375 3.5625 19.875 1.21875
Q16.3125 -1.125 12.1094 -1.125" id="Cmmi10-21"/>
     </defs>
     <g transform="translate(643.675909091 326.58)rotate(-90.0)scale(0.12 -0.12)">
      <use transform="translate(0.0 0.125)" xlink:href="#Cmmi10-21"/>
      <use transform="translate(62.20703125 0.125)" xlink:href="#BitstreamVeraSans-Roman-28"/>
      <use transform="translate(101.220703125 0.125)" xlink:href="#Cmmi10-52"/>
      <use transform="translate(177.099609375 0.125)" xlink:href="#Cmmi10-61"/>
      <use transform="translate(229.8828125 0.125)" xlink:href="#Cmmi10-64"/>
      <use transform="translate(281.884765625 0.125)" xlink:href="#Cmmi10-3d"/>
      <use transform="translate(331.884765625 0.125)" xlink:href="#Cmmi10-73"/>
      <use transform="translate(378.662109375 0.125)" xlink:href="#BitstreamVeraSans-Roman-29"/>
     </g>
    </g>
   </g>
   <g id="legend_2">
    <g id="line2d_73">
     <path d="
M1058.98 73.3932
L1072.97 73.3932" style="fill:none;stroke:#bf00bf;stroke-linecap:square;stroke-width:2;"/>
    </g>
    <g id="line2d_74"/>
    <g id="text_40">
     <!-- $\omega$-$t$ -->
     <g transform="translate(1083.969 76.891798125)scale(0.09996 -0.09996)">
      <use transform="translate(0.0 0.40625)" xlink:href="#Cmmi10-21"/>
      <use transform="translate(62.20703125 0.40625)" xlink:href="#BitstreamVeraSans-Roman-2d"/>
      <use transform="translate(98.291015625 0.40625)" xlink:href="#Cmmi10-74"/>
     </g>
    </g>
   </g>
  </g>
  <g id="text_41">
   <!-- circular orbit, $m1/M=$0.01 -->
   <defs>
    <path id="BitstreamVeraSans-Roman-20"/>
    <path d="
M9.28125 0
L9.28125 3.51562
Q21.7812 3.51562 21.7812 6.6875
L21.7812 59.1875
Q16.6094 56.6875 8.6875 56.6875
L8.6875 60.2031
Q20.9531 60.2031 27.2031 66.6094
L28.6094 66.6094
Q28.9531 66.6094 29.2656 66.3281
Q29.5938 66.0625 29.5938 65.7188
L29.5938 6.6875
Q29.5938 3.51562 42.0938 3.51562
L42.0938 0
z
" id="Cmr10-31"/>
    <path d="
M5.07812 0
Q4.10938 0 4.10938 1.3125
Q4.15625 1.5625 4.29688 2.14062
Q4.4375 2.73438 4.6875 3.125
Q4.9375 3.51562 5.42188 3.51562
Q14.9375 3.51562 16.5 9.625
L29.5 61.8125
Q29.6875 62.7969 29.6875 63.1875
Q29.6875 64.2656 28.5156 64.4062
Q26.6094 64.7969 21.2969 64.7969
Q20.3125 64.7969 20.3125 66.1094
Q20.3594 66.3594 20.5 66.9688
Q20.6562 67.5781 20.9219 67.9375
Q21.1875 68.3125 21.5781 68.3125
L39.2031 68.3125
Q40.3281 68.3125 40.4844 67.1875
L48.2969 9.90625
L84.7188 67.1875
Q85.4062 68.3125 86.625 68.3125
L103.609 68.3125
Q104.594 68.3125 104.594 67
Q104.547 66.75 104.391 66.1406
Q104.25 65.5312 103.984 65.1562
Q103.719 64.7969 103.328 64.7969
Q97.2188 64.7969 94.8281 64.1094
Q93.5 63.6719 92.9219 61.375
L79.2031 6.5
Q79 5.51562 79 5.07812
Q79 4.6875 79.125 4.42188
Q79.25 4.15625 79.4688 4.07812
Q79.6875 4 80.1719 3.90625
Q82.0781 3.51562 87.4062 3.51562
Q88.375 3.51562 88.375 2.20312
Q88.0312 0.78125 87.8281 0.390625
Q87.6406 0 86.7188 0
L60.5938 0
Q59.625 0 59.625 1.3125
Q59.6719 1.5625 59.8125 2.17188
Q59.9688 2.78125 60.2344 3.14062
Q60.5 3.51562 60.8906 3.51562
Q67 3.51562 69.3906 4.20312
Q70.7031 4.64062 71.2969 6.89062
L85.6875 64.7969
L45.3125 1.125
Q44.7344 0 43.3125 0
Q42.0469 0 41.8906 1.125
L33.4062 64.0156
L19.6719 9.1875
Q19.5781 8.9375 19.5312 8.5625
Q19.4844 8.20312 19.3906 7.71875
Q19.3906 5.125 21.6562 4.3125
Q23.9219 3.51562 27.2031 3.51562
Q28.2188 3.51562 28.2188 2.20312
Q27.875 0.875 27.6562 0.4375
Q27.4375 0 26.5156 0
z
" id="Cmmi10-4d"/>
    <path d="
M7.71875 1.70312
Q7.71875 2.29688 7.8125 2.59375
L15.2812 32.4219
Q16.0156 35.2031 16.0156 37.3125
Q16.0156 41.6094 13.0938 41.6094
Q9.96875 41.6094 8.45312 37.8594
Q6.9375 34.125 5.51562 28.4219
Q5.51562 28.125 5.21875 27.9531
Q4.9375 27.7812 4.6875 27.7812
L3.51562 27.7812
Q3.17188 27.7812 2.92188 28.1406
Q2.6875 28.5156 2.6875 28.8125
Q3.76562 33.1562 4.76562 36.1719
Q5.76562 39.2031 7.89062 41.6875
Q10.0156 44.1875 13.1875 44.1875
Q16.9375 44.1875 19.8125 41.8125
Q22.7031 39.4531 22.7031 35.7969
Q25.6875 39.7031 29.6875 41.9375
Q33.6875 44.1875 38.1875 44.1875
Q42.9219 44.1875 46.3594 41.7656
Q49.8125 39.3594 49.8125 34.9062
Q52.875 39.2656 57 41.7188
Q61.1406 44.1875 66.0156 44.1875
Q71.1875 44.1875 74.3281 41.375
Q77.4844 38.5781 77.4844 33.4062
Q77.4844 29.2969 75.6562 23.4844
Q73.8281 17.6719 71.0938 10.5
Q69.6719 7.03125 69.6719 4.5
Q69.6719 1.51562 72.0156 1.51562
Q75.9219 1.51562 78.5156 5.70312
Q81.1094 9.90625 82.1719 14.7031
Q82.4688 15.2812 83.0156 15.2812
L84.1875 15.2812
Q84.5781 15.2812 84.8438 15.0156
Q85.1094 14.75 85.1094 14.4062
Q85.1094 14.3125 85.0156 14.1094
Q83.6406 8.45312 80.25 3.65625
Q76.8594 -1.125 71.7812 -1.125
Q68.2656 -1.125 65.7656 1.29688
Q63.2812 3.71875 63.2812 7.17188
Q63.2812 8.9375 64.1094 11.0781
Q66.9375 18.6094 68.8125 24.5156
Q70.7031 30.4219 70.7031 34.9062
Q70.7031 37.7031 69.5781 39.6562
Q68.4531 41.6094 65.8281 41.6094
Q60.3594 41.6094 56.3438 38.25
Q52.3438 34.9062 49.4219 29.3906
Q49.2188 28.4219 49.125 27.875
L42.6719 2.20312
Q42.3281 0.828125 41.125 -0.140625
Q39.9375 -1.125 38.4844 -1.125
Q37.3125 -1.125 36.4062 -0.34375
Q35.5 0.4375 35.5 1.70312
Q35.5 2.29688 35.5938 2.59375
L42 28.0781
Q43.0156 32.1719 43.0156 34.9062
Q43.0156 37.7031 41.8594 39.6562
Q40.7188 41.6094 37.9844 41.6094
Q34.3281 41.6094 31.25 39.9844
Q28.1719 38.375 25.875 35.7188
Q23.5781 33.0625 21.6875 29.3906
L14.8906 2.20312
Q14.5469 0.828125 13.3438 -0.140625
Q12.1562 -1.125 10.6875 -1.125
Q9.46875 -1.125 8.59375 -0.34375
Q7.71875 0.4375 7.71875 1.70312" id="Cmmi10-6d"/>
    <path d="
M41.1094 46.2969
Q39.5938 47.1719 37.8125 47.5781
Q36.0312 48 33.8906 48
Q26.2656 48 22.1875 43.0469
Q18.1094 38.0938 18.1094 28.8125
L18.1094 0
L9.07812 0
L9.07812 54.6875
L18.1094 54.6875
L18.1094 46.1875
Q20.9531 51.1719 25.4844 53.5781
Q30.0312 56 36.5312 56
Q37.4531 56 38.5781 55.875
Q39.7031 55.7656 41.0625 55.5156
z
" id="BitstreamVeraSans-Roman-72"/>
    <path d="
M30.6094 48.3906
Q23.3906 48.3906 19.1875 42.75
Q14.9844 37.1094 14.9844 27.2969
Q14.9844 17.4844 19.1562 11.8438
Q23.3438 6.20312 30.6094 6.20312
Q37.7969 6.20312 41.9844 11.8594
Q46.1875 17.5312 46.1875 27.2969
Q46.1875 37.0156 41.9844 42.7031
Q37.7969 48.3906 30.6094 48.3906
M30.6094 56
Q42.3281 56 49.0156 48.375
Q55.7188 40.7656 55.7188 27.2969
Q55.7188 13.875 49.0156 6.21875
Q42.3281 -1.42188 30.6094 -1.42188
Q18.8438 -1.42188 12.1719 6.21875
Q5.51562 13.875 5.51562 27.2969
Q5.51562 40.7656 12.1719 48.375
Q18.8438 56 30.6094 56" id="BitstreamVeraSans-Roman-6f"/>
    <path d="
M9.42188 75.9844
L18.4062 75.9844
L18.4062 0
L9.42188 0
z
" id="BitstreamVeraSans-Roman-6c"/>
    <path d="
M11.7188 12.4062
L22.0156 12.4062
L22.0156 4
L14.0156 -11.625
L7.71875 -11.625
L11.7188 4
z
" id="BitstreamVeraSans-Roman-2c"/>
    <path d="
M7.51562 13.2812
Q6.6875 13.2812 6.14062 13.9062
Q5.60938 14.5469 5.60938 15.2812
Q5.60938 16.1094 6.14062 16.6875
Q6.6875 17.2812 7.51562 17.2812
L70.3125 17.2812
Q71.0469 17.2812 71.5781 16.6875
Q72.125 16.1094 72.125 15.2812
Q72.125 14.5469 71.5781 13.9062
Q71.0469 13.2812 70.3125 13.2812
z

M7.51562 32.7188
Q6.6875 32.7188 6.14062 33.2969
Q5.60938 33.8906 5.60938 34.7188
Q5.60938 35.4531 6.14062 36.0781
Q6.6875 36.7188 7.51562 36.7188
L70.3125 36.7188
Q71.0469 36.7188 71.5781 36.0781
Q72.125 35.4531 72.125 34.7188
Q72.125 33.8906 71.5781 33.2969
Q71.0469 32.7188 70.3125 32.7188
z
" id="Cmr10-3d"/>
    <path d="
M8.5 21.5781
L8.5 54.6875
L17.4844 54.6875
L17.4844 21.9219
Q17.4844 14.1562 20.5 10.2656
Q23.5312 6.39062 29.5938 6.39062
Q36.8594 6.39062 41.0781 11.0312
Q45.3125 15.6719 45.3125 23.6875
L45.3125 54.6875
L54.2969 54.6875
L54.2969 0
L45.3125 0
L45.3125 8.40625
Q42.0469 3.42188 37.7188 1
Q33.4062 -1.42188 27.6875 -1.42188
Q18.2656 -1.42188 13.375 4.4375
Q8.5 10.2969 8.5 21.5781" id="BitstreamVeraSans-Roman-75"/>
    <path d="
M34.2812 27.4844
Q23.3906 27.4844 19.1875 25
Q14.9844 22.5156 14.9844 16.5
Q14.9844 11.7188 18.1406 8.90625
Q21.2969 6.10938 26.7031 6.10938
Q34.1875 6.10938 38.7031 11.4062
Q43.2188 16.7031 43.2188 25.4844
L43.2188 27.4844
z

M52.2031 31.2031
L52.2031 0
L43.2188 0
L43.2188 8.29688
Q40.1406 3.32812 35.5469 0.953125
Q30.9531 -1.42188 24.3125 -1.42188
Q15.9219 -1.42188 10.9531 3.29688
Q6 8.01562 6 15.9219
Q6 25.1406 12.1719 29.8281
Q18.3594 34.5156 30.6094 34.5156
L43.2188 34.5156
L43.2188 35.4062
Q43.2188 41.6094 39.1406 45
Q35.0625 48.3906 27.6875 48.3906
Q23 48.3906 18.5469 47.2656
Q14.1094 46.1406 10.0156 43.8906
L10.0156 52.2031
Q14.9375 54.1094 19.5781 55.0469
Q24.2188 56 28.6094 56
Q40.4844 56 46.3438 49.8438
Q52.2031 43.7031 52.2031 31.2031" id="BitstreamVeraSans-Roman-61"/>
    <path d="
M48.7812 52.5938
L48.7812 44.1875
Q44.9688 46.2969 41.1406 47.3438
Q37.3125 48.3906 33.4062 48.3906
Q24.6562 48.3906 19.8125 42.8438
Q14.9844 37.3125 14.9844 27.2969
Q14.9844 17.2812 19.8125 11.7344
Q24.6562 6.20312 33.4062 6.20312
Q37.3125 6.20312 41.1406 7.25
Q44.9688 8.29688 48.7812 10.4062
L48.7812 2.09375
Q45.0156 0.34375 40.9844 -0.53125
Q36.9688 -1.42188 32.4219 -1.42188
Q20.0625 -1.42188 12.7812 6.34375
Q5.51562 14.1094 5.51562 27.2969
Q5.51562 40.6719 12.8594 48.3281
Q20.2188 56 33.0156 56
Q37.1562 56 41.1094 55.1406
Q45.0625 54.2969 48.7812 52.5938" id="BitstreamVeraSans-Roman-63"/>
    <path d="
M48.6875 27.2969
Q48.6875 37.2031 44.6094 42.8438
Q40.5312 48.4844 33.4062 48.4844
Q26.2656 48.4844 22.1875 42.8438
Q18.1094 37.2031 18.1094 27.2969
Q18.1094 17.3906 22.1875 11.75
Q26.2656 6.10938 33.4062 6.10938
Q40.5312 6.10938 44.6094 11.75
Q48.6875 17.3906 48.6875 27.2969
M18.1094 46.3906
Q20.9531 51.2656 25.2656 53.625
Q29.5938 56 35.5938 56
Q45.5625 56 51.7812 48.0938
Q58.0156 40.1875 58.0156 27.2969
Q58.0156 14.4062 51.7812 6.48438
Q45.5625 -1.42188 35.5938 -1.42188
Q29.5938 -1.42188 25.2656 0.953125
Q20.9531 3.32812 18.1094 8.20312
L18.1094 0
L9.07812 0
L9.07812 75.9844
L18.1094 75.9844
z
" id="BitstreamVeraSans-Roman-62"/>
   </defs>
   <g transform="translate(536.1 21.18)scale(0.12 -0.12)">
    <use transform="translate(0.0 0.015625)" xlink:href="#BitstreamVeraSans-Roman-63"/>
    <use transform="translate(54.98046875 0.015625)" xlink:href="#BitstreamVeraSans-Roman-69"/>
    <use transform="translate(82.763671875 0.015625)" xlink:href="#BitstreamVeraSans-Roman-72"/>
    <use transform="translate(123.876953125 0.015625)" xlink:href="#BitstreamVeraSans-Roman-63"/>
    <use transform="translate(178.857421875 0.015625)" xlink:href="#BitstreamVeraSans-Roman-75"/>
    <use transform="translate(242.236328125 0.015625)" xlink:href="#BitstreamVeraSans-Roman-6c"/>
    <use transform="translate(270.01953125 0.015625)" xlink:href="#BitstreamVeraSans-Roman-61"/>
    <use transform="translate(331.298828125 0.015625)" xlink:href="#BitstreamVeraSans-Roman-72"/>
    <use transform="translate(372.412109375 0.015625)" xlink:href="#BitstreamVeraSans-Roman-20"/>
    <use transform="translate(404.19921875 0.015625)" xlink:href="#BitstreamVeraSans-Roman-6f"/>
    <use transform="translate(465.380859375 0.015625)" xlink:href="#BitstreamVeraSans-Roman-72"/>
    <use transform="translate(506.494140625 0.015625)" xlink:href="#BitstreamVeraSans-Roman-62"/>
    <use transform="translate(569.970703125 0.015625)" xlink:href="#BitstreamVeraSans-Roman-69"/>
    <use transform="translate(597.75390625 0.015625)" xlink:href="#BitstreamVeraSans-Roman-74"/>
    <use transform="translate(636.962890625 0.015625)" xlink:href="#BitstreamVeraSans-Roman-2c"/>
    <use transform="translate(668.75 0.015625)" xlink:href="#BitstreamVeraSans-Roman-20"/>
    <use transform="translate(700.537109375 0.015625)" xlink:href="#Cmmi10-6d"/>
    <use transform="translate(788.330078125 0.015625)" xlink:href="#Cmr10-31"/>
    <use transform="translate(838.330078125 0.015625)" xlink:href="#Cmmi10-3d"/>
    <use transform="translate(888.330078125 0.015625)" xlink:href="#Cmmi10-4d"/>
    <use transform="translate(1002.91015625 0.015625)" xlink:href="#Cmr10-3d"/>
    <use transform="translate(1086.96875 0.015625)" xlink:href="#BitstreamVeraSans-Roman-30"/>
    <use transform="translate(1150.59179688 0.015625)" xlink:href="#BitstreamVeraSans-Roman-2e"/>
    <use transform="translate(1182.37890625 0.015625)" xlink:href="#BitstreamVeraSans-Roman-30"/>
    <use transform="translate(1246.00195312 0.015625)" xlink:href="#BitstreamVeraSans-Roman-31"/>
   </g>
  </g>
 </g>
 <defs>
  <clipPath id="paa341766a5">
   <rect height="482.4" width="433.084090909" x="153.675" y="60.3"/>
  </clipPath>
  <clipPath id="p9b96c9b755">
   <rect height="482.4" width="433.084090909" x="673.375909091" y="60.3"/>
  </clipPath>
 </defs>
</svg>
